<svg xmlns="http://www.w3.org/2000/svg" width="146.334" height="197.212" viewBox="0 0 146.334 197.212">
  <defs>
    <style>
      .a {
        fill: #f9fcfd;
      }
    </style>
  </defs>
  <path class="a" d="M146.121,3.623l-.24.957C145.237,2,142.415,2.246,140.952,0c.74,2.918-3.68-.006-2.752,4.39-.542-.052-.3-1-.783-1.292.4,1.342.215,2.046-.674,2.6l-.1-.333c-1.511,2.917-2.863,3.2-5.185,5.608l.9.829c-.511.5-.835.308-1.216.346.681,2.332,1.214-1.716,2.055.714-2.087-1.287-2.91,4.5-5.027,2.643-.638.975,1.06.931.421,1.906l-.639-.4.45,1.1c-.511.511-1.316,0-1.732-.532.149-.089.177-.6.249-.815-1.019.052-1.3,2.258-1.632,2.59l.83-.484c-1.31,3.268-4.032,5.676-4.8,9.537l.485.31c-.655,2.862-1.438,1-2.572,3.549l-.032-.2a3.231,3.231,0,0,1-.575,2.27c-.049-1.122-1.491-.143-1.469-1.493-.74,3.063-.161,1.8.2,5.043l-.805-.522c.2,1.222.456,1.66-.123,2.922.1-1.576-1.356-.611-1.348-2.52-2.809.349-.979,5.113-3.558,3.413.9,3.324,2.234-.584,2.178.466.856.285.63,2.574-.026,3.01-.534.638-2.907-1.8-4.125-.031.132-.161.018-.349.149-.511-.878.053-.36,2.074-1.6,1.9.65,1.856-.8.95.346,2.879l.86-2c-.328,1.365.519,4.331-1.268,4.776a6.308,6.308,0,0,1-.133-1.96c-.676-.094-.369,1.176-1.072,1.075-1.138-1.923,1.139-2.3.886-4.644-.859-.3-.418,3.128-1.411.692,1.208,3.187-1.461,1.367-1.016,4.42L104.6,50.1c-.019.353.048,1.242-.221,1.549l-.507-2.01c.123,2.129-2.056.748-2.277,2.294,1.373-1.905,1.2.885,2.334.884-.726,3.708-2.862-1.355-4.434,1.475.3-.4,1.354-.454,1.294.509a2.332,2.332,0,0,1-1.91.217c-1.145,1.907.957.86.858,2.243-1.34-.752-.273,1.365-.555,2.528l-.753-1.1c-1.959,1.207,1.166,2.814-.747,3.684L97.208,60.1l-.426,1.3-.707-1.445c-.124,1.913-.524,1.976-1.5,2.582.7.558,1.259,2.142.614,3.008-.9-.09-.454-1.373-1.292-.033-.253-.961-.6-2.125.492-1.617-.2-.415-.257-.96-.454-1.371-1-.146-1.344,1.365-1.679,1.8.16-.123.357-.26.543-.2l-.337,3.253c-.5-.148-.548-.7-.6-1.238-.2.467-.047,1.219-.39,1.825-.5-1.037-1.147-1.939-.856-3.086l-.632,2.635c-.35-.285-1.389-.245-1.443-.79-1.071.377-.6,3.973-2.047,4.438a1.544,1.544,0,0,1-.045.908c-1.051.9-2.6.764-2.857,3.321L81.9,74.5c-.6,1.4,2.186,1.049,1.178,3.374-.661,1.728-1.291-.944-1.944-.978.03,1.136.175,3.106-.708,3.708a5.085,5.085,0,0,0-.626-.369,3.248,3.248,0,0,0,.5-.632L79,79.527c-.01-.22-.01-.418-.006-.6l.09-.037A.429.429,0,0,1,79,78.841c.055-1.8.647-2.055-.557-2.477a3.691,3.691,0,0,0-1.82-2.647,1.532,1.532,0,0,1,.734.079c-2.957-1.9.382-6.384-5-6.028l-2.142-1.206c.846,2.033-2.289.23-2.592,1.226-.765-.691.222-2.332,1.062-1.456l-.151.206c2.747-.28-.623-2.632,1.131-3.007-2.5-3.8-3.575-7.845-5.784-11.441L62.19,53l-.707-1.269a1.011,1.011,0,0,1,1.751.075c.8-.749-1.928-1.242-2.37-1.158-.375-1.931,2.737.089,2.426-.453l-.633-.682-.119.221c-1.193-.378-2.075-.211-2.694-1.3-.062-.772.972-.656.869-.94.14-.034.144-.14-.217-.42l-.887-1.6L58.488,46.5c-1.226-.493-.908-1.485-2.169-.313,2.01-1.763-3.048-6.037-2.656-6.9a5.384,5.384,0,0,1-3.127-2.83c-.11.376-1.711,1.01-2.226-.054,3.736-.569.385-2.181,2.057-3.657-1.139.8-2.418-2.8-3.944-1.071-.319-.92,1.294-.411,1.67-1.276-2.8-1.638-2.358-4.647-4.644-6.992-.493.09-.9.7-1.983.36l1.357-1.944c-.591-.424-3.012.293-2.078-1.039-.3.233-.743.583-1.14.3-.713-2.714-3.033-5.049-5.166-7.444-2.154-2.389-4.023-4.866-3.867-7.891-.365.912-.807.5-1.244.01.048.387-1.147.321-1.72.565l.1-2.524c-2.032.133-1.873-2.136-3.7-1.865l.816.553c-2.644-.282-3.384,2.452-6,3.054,2.994.308-1.271,3.453,3.176,4.094-.235.491-1.047-.061-1.482.29,1.4.086,1.994.5,2.211,1.528l-.346-.024c2.22,2.422,2.02,3.789,3.483,6.8l1.088-.559c.3.652,0,.889-.094,1.26,2.425.163-1.194-1.73,1.378-1.684-1.927,1.517,3.229,4.282.753,5.629.7.935,1.239-.675,1.934.26l-.594.464,1.188-.045c.3.656-.449,1.237-1.1,1.444-.032-.171-.5-.372-.679-.514-.3.974,1.672,2,1.87,2.423l-.169-.946c2.619,2.354,3.944,5.739,7.3,7.792l.458-.349c2.463,1.6.442,1.693,2.449,3.636l-.2-.038A3.23,3.23,0,0,1,43.4,38.318c-1.07-.34-.647,1.35-1.906.865,2.621,1.749,1.639.773,4.8,1.551l-.767.576c1.218.228,1.716.143,2.7,1.12-1.447-.633-1.04,1.063-2.831.4-.637,2.758,4.466,2.677,1.982,4.514,3.432.294.22-2.3,1.187-1.885.562-.705,2.634.294,2.817,1.06.415.721-2.694,2.11-1.448,3.863-.106-.179-.321-.137-.428-.316-.253.842,1.823,1.052,1.235,2.157,1.966.028.617,1.078,2.822.665l-1.586-1.5c1.169.778,4.246,1,4.048,2.833a6.3,6.3,0,0,1-1.886-.549c-.321.6.978.751.641,1.376-2.2.408-1.768-1.861-4.055-2.429-.574.7,2.793,1.469.164,1.563,3.408-.038.78,1.841,3.8,2.475l-1.323.244c.324.139,1.182.381,1.379.74l-2.062-.216c2.042.617,0,2.188,1.37,2.927-1.315-1.944,1.246-.826,1.634-1.888,3.232,1.958-2.257,2.222-.141,4.672-.267-.42.039-1.428.924-1.04a2.328,2.328,0,0,1-.454,1.868c1.4,1.73,1.137-.6,2.4-.034-1.166,1,1.189.725,2.183,1.39l-1.292.328c.46,2.255,3.044-.127,3.2,1.969l-2.29-.336,1.071.847-1.6.166c1.754.776,1.676,1.172,1.908,2.3.764-.463,2.444-.445,3.036.459-.393.811-1.446-.047-.475,1.2-.99-.093-2.2-.163-1.349-1.019-.459.046-.99-.088-1.444-.045-.48.887.819,1.732,1.115,2.2a.659.659,0,0,1,0-.58l2.938,1.435c-.309.414-.843.275-1.368.137.371.345,1.129.463,1.579.994-1.144.111-2.214.41-3.191-.258l2.256,1.5c-.387.23-.707,1.22-1.237,1.082-.015,1.136,3.523,1.932,3.463,3.45a1.533,1.533,0,0,1,.837.354c.485,1.3-.175,2.7,2.136,3.824l-1.415,1.281c1.1,1.048,1.736-1.692,3.573.054,1.395,1.215-1.331.888-1.587,1.489a8.145,8.145,0,0,1,2.869,1.339c.041.434.064.922.074,1.341-.409-.306-.367-.652-.688-.968l-.52,1.2-.055-.019a1.649,1.649,0,0,1,.5-1.21c-1.975-1.67-1.218-.2-1.6.77-.378-.184-.646-.35-.859-.463l.035-.089c-1.641-1.274-1.788.042-3.357-.164.585.383,3.5.964,3.162,2.716-.393.031-.783.27-.838,1.414-.732-1.129-1.007-.358-1.534.324L66.722,92.8c-.337,1.1.2,1.812.273,2.881-.78.6-1.666-.415-2.454-1.222-1.249.95,1.95,1.046.833,2.739-1.28.414-1.528,1.723-2.047,3.811-.975.165-.472-1.04-.977-1.226l.189,1.8c-.16.118-.349-.3-.444-.51-.189.973.916,1.549.413,2.756.846,1.878-3.1-.795-2.851,2.08-.5-.186-.471-1.044-.911-1.555a15.371,15.371,0,0,0-.553,4.843l-1.53-.048c1.381.446,1.375,2.678,1.306,4.54a12.015,12.015,0,0,0,1.373.673l-.7,2.031c-.3-.1-.506-.745-.7-1.578,0,.208,0,.411.006.587-.783-.125-1.106-1.226-1.327-2.385.334.151.68.323,1.021.5a9.353,9.353,0,0,0-1.257-3.346,1.588,1.588,0,0,1-.138.807,1.528,1.528,0,0,0-.3-.717c-.141-.118-.057.344-.012.929L54.6,109.774l.354.738-2.239.528c-.065,2.838.514,6.337-.848,8.844-.326-1.692-1.164-2.128-2.053-3.626,1.456,1.068.976-2.059,2.1-2.676-.586.324-.916-.485-.946-.854l-.774,3.084c-.712-1.245-.91-.546-1.655-.617,1.807,2.061-.268,2.8-.5,4.2-.538-.761-.879-1.738.073-2.354-2.028-.9.544,3.956-1.3,3.308.191-.218.377-.2.206-.687-.036,1.175-1.546,1.74-1.7.775l.193-.214c-1.513,1.048-4.153,3.925-3.11,6.158-.174-.25-1.32-2.621-1.489-3.11l1.74,9.151c-.851-1.951-4.212-5.34-3.682-7.4-.479.055-1.051.154-1.37,1.4.376.044,2.1,2.017,1.889,2.459-2.026-1.178-1.218-.507-3.263-1.219.564.067,1.858,3.156,1.273,3.556-.166-.487-1.689-2.672-1.668-3.136l.3,3.731a5.761,5.761,0,0,0-2.068-2.654c.456.4-1.172,1-1.362,1.587l.938.113c-1.738.957.807,5.133-.774,6.332-.155-.722-1.621-3.838-2.586-3.5.486,1.695,2.459,8.044,1.767,10.3l-.731-.57-.49,1.794a80.983,80.983,0,0,1-1.508-11.182c-.94-.126-.718-.8-1.519.028-.742-.478-.215-1.537.006-1.8l-2.251,1.265c1.058,1.545-.545,2.937.336,4.223l1.146-3.553c1.059,1.545,1.512,5.691-.072,6.62-.743-.335-1.453-3.119-1.8-3.635.151.717-.7,2.222-1.065,1.938l.08-1.384c-1.145.066,0,3.258-1.86,2.522-.384.18-2.213-1.262-1.7-.253,1.633,1.406,5.14,7.054,5.606,8.748a12.414,12.414,0,0,1-3.7-.922c-1.4-1-1.237-4.153-2.436-5.016a3.517,3.517,0,0,1,.247,1.541c-.568-.09-.67-1.5-1.3-.667.848,1.756-1.606,1.141.469,1.693-.455,1.088-.979.315-1.8,1.11.9.841,1.362,4.283.892,5.357a3.292,3.292,0,0,0-.918-1.052c-1.607,1.091-2.861,1-4.286,2.146-.362-.292-1.333-.228-1.455-1.176-.035.456.1,1.167-.314,1.557-1.686-.758.852-1-.8-2.209.506,1.007-.365,2.232-.643,3.332,1.057,1.336,1.617-.865,1.894-1.964a8.489,8.489,0,0,1,.407,7.205c-.9,1.454-1.286-.919-1.323-.463-2.439,1.414.169,5.1-2.561,5.06-1.5-.74-1.536-2.585-2.246-3.405.691-1.249,1.98-.322,2.612-.885L7.785,160c.06-.675.521-1.507,1.09-1.41-1.292-.683-3.932,2.708-6.291,2.96-.055.681-.332,1.537.225,1.876l.446-.6c1.115.673-.2,2.257.784,2.222-.318,1.3-.485,3.1-1.876,3.284L1.11,166.975c.272.422,1.2.381,1.229-.3-.058.993-2.765-.828-2.125,1.5l1.328.489c-.32,1.312-.335,3.608-1.542,3.819,1.27,1.173.122-.324,1.769.916-1.733-1.665,2.124-1.693.441-3.1,1.592,1.2,1.522-.151,3.31.855-.311-.474-.855-.711.066-1.052a3.146,3.146,0,0,1-.078-.565.476.476,0,0,1,.075,0l-.077-.026c-.009-.1-.014-.117-.028-.009a1.7,1.7,0,0,1-.828-.454c-.26-1.423,1-2.321,1.077-3.234.594-.119.132.715.686,1.049l.118-1.357c.691,1.05,2.267.881,1.553,2.359l1-.7a1.7,1.7,0,0,0,2.081-1.028c.6-.118.463-2.107.557-.941l1.125-1.878.172.263c1.574-1.054,2.032-4.239,4.877-3.645a2.98,2.98,0,0,1,1.672-1.812l.715.811c.447-.852,2.477-.627,2.176-1.834,2.185,1.978,3.411-2.032,4.794-2.516l-.683-1.263a7.352,7.352,0,0,0,2-2.847l-.7-1.033c.285-1.593,2.549-1.038,3.77-2.263.159.489-.232.663-.612.613,3,1.122,2.175-4.593,4.615-4.05.109-.7.438-.787.842-.731a.209.209,0,0,0-.051.133.6.6,0,0,0,.149-.113,7.906,7.906,0,0,0,.823.149,1.986,1.986,0,0,0-.75-.22,4.161,4.161,0,0,0,.806-1.372l.865,1.008c.023-.044.05-.065.072-.114.645.082-.02-.826-.751-1.513a4,4,0,0,0,.1-1.162c1.441,1.587.644-1.566,2.272.037-.3-1.122,1.255-2.336.67-4.279.571-.165,1.138-.336,1.178-1.26l1.077,1.3-.255-2.848c1.115.355,1.668.651,1.789,2.314.311-3.027.712-1.7.826-4.518l.522,1c.394-.429.282-2.324,1.012-1.779,2.047.941,4.717-4.156,8.112-4.786-2.172-2.317,1.856.152.615-2.09.543.518,1.1.561,1.074,1.512.791-1.842,2.437-.764,2.133-3.4.546.52.343,1.216.707,1.482.007-.238.023-.95.391-.684s.168.725.157,1.2c1.15-1.335.013-3.474-1.081-5.453,1.176.276,1.405-.161,1.073-1.846.6.4,1.364.688.748,1.67.492-.32,3.134-1.757,2.228-3.309.373.246.656-.5.656-.789a9.689,9.689,0,0,0,2-1.949l-.411.021c-.787-2.2.509-1.207,1.114-2.2l.1.208c2.535-.471.342-1.387,2.95-1.687l-.809-1.032c-1.392-2.6,2.379-.159,2.749-2.131l-.758-.268c-.007-1.4,3.574,1.706,4.3,1.434.25.086.035.535-.025.866,2.3-.073-.767-1.671.043-3.131.7.59,1.053,2.289,1.841,1.684.765.273.326-4.806,2.24-4.328-.6-.38-1.2-.762-1.023-1.752a.861.861,0,0,1,.466-.362l.734,1.02-.115.011a18.024,18.024,0,0,1,2.484.751c-.273.6-.52-.151-.916.075l1.454.838a1.682,1.682,0,0,1-2.369-.761c-3.164,1.8,1.393.652.364,3.228l-.995-.874c-1.761,1.1-.575,1.693-1.308,3.1.561-.418,2.108-2.955,3.637-2.035-.106.379-.015.828,1.04,1.273-1.311.3-.682.823-.224,1.552l-1.767.337c.917.694,1.771.433,2.8.734.291.937-.963,1.422-1.991,1.884.463,1.5,1.653-1.471,2.858.16-.051,1.344,1.093,2.027,2.875,3.233-.181.972-1.139.085-1.487.5l1.758.443c.057.19-.4.224-.631.241.849.512,1.77-.328,2.73.56,2.055-.149-1.814,2.639.973,3.392-.348.408-1.143.084-1.774.322A15.369,15.369,0,0,0,92.9,120.8l-.571,1.42c.894-1.144,2.987-.37,4.712.335a12.3,12.3,0,0,0,1.1-1.057l1.666,1.356c-.2.249-.874.219-1.724.118.194.076.384.146.553.2-.387.692-1.532.616-2.7.425.257-.262.538-.527.818-.787a9.357,9.357,0,0,0-3.574.029,1.593,1.593,0,0,1,.711.408,1.531,1.531,0,0,0-.777.035c-.159.092.3.171.869.33l-1.787.765.815-.078-.273,2.283c2.642,1.037,6.126,1.7,8.012,3.838-1.7-.276-2.4.362-4.111.682,1.5-1-1.6-1.626-1.79-2.894.1.662-.771.694-1.127.594l2.629,1.788c-1.413.24-.825.666-1.148,1.342,2.556-.989,2.54,1.215,3.771,1.912-.9.243-1.933.228-2.185-.878-1.545,1.594,3.9.85,2.658,2.36-.138-.255-.059-.423-.573-.43,1.09.438,1.1,2.05.142,1.866l-.134-.255c.463,1.781,2.256,5.249,4.712,5.038-.295.077-2.916.338-3.433.328l9.192,1.514c-2.125.128-6.463,2.118-8.212.913-.113.469-.217,1.04.845,1.768.17-.337,2.616-1.276,2.959-.928-1.8,1.5-.895.97-2.268,2.645.258-.506,3.6-.659,3.777.028-.514-.011-3.089.667-3.518.488l3.606,1a5.764,5.764,0,0,0-3.2,1.03c.535-.291.533,1.442,1.022,1.824l.428-.842c.3,1.961,5.1,1.008,5.679,2.9-.73-.1-4.161.2-4.177,1.224,1.759.127,8.4.458,10.277,1.882l-.788.491,1.518,1.077a80.987,80.987,0,0,1-11.019-2.43c-.442.84-.993.4-.5,1.436-.7.533-1.518-.326-1.69-.625l.414,2.549c1.815-.462,2.571,1.522,4.082,1.137l-2.943-2.3c1.815-.463,5.863.538,6.192,2.345-.571.582-3.429.291-4.034.445.724.1,1.845,1.421,1.453,1.666L108,162.567c-.332,1.1,3.059,1.12,1.728,2.615.037.423-1.946,1.644-.822,1.51,1.882-1.05,8.391-2.4,10.142-2.256a12.375,12.375,0,0,1-2.137,3.154c-1.422.971-4.325-.266-5.548.563a3.521,3.521,0,0,1,1.533.3c-.28.5-1.637.114-1.074.991,1.941-.193.519,1.9,1.751.142.865.8-.041,1.028.425,2.069,1.1-.56,4.49.194,5.336,1a3.288,3.288,0,0,0-1.3.5c.472,1.884-.041,3.032.541,4.762-.4.24-.673,1.173-1.605.963.416.189,1.132.3,1.354.83-1.292,1.322-.648-1.145-2.349-.009,1.119-.128,1.97,1.11,2.907,1.75,1.619-.534-.256-1.815-1.192-2.454a8.486,8.486,0,0,1,6.905,2.1c1.058,1.34-1.3.891-.889,1.083.488,2.776,4.846,1.595,3.87,4.145-1.21,1.152-2.956.553-3.969.937-.935-1.078.378-1.969.066-2.756l-.4,1.1c-.613-.288-1.235-1.007-.948-1.509-1.087.979,1.19,4.624.615,6.926.621.285,1.33.84,1.839.434l-.414-.627c1.016-.815,2.052.963,2.356.028,1.114.746,2.744,1.521,2.44,2.891l-1.634.524c.49-.111.769-.992.144-1.257.913.4-1.728,2.312.674,2.51l.916-1.078c1.122.751,3.273,1.555,3.056,2.761,1.538-.789-.263-.226,1.469-1.346-2.16,1.054-.86-2.577-2.76-1.481,1.675-1.081.382-1.481,1.941-2.813-.551.128-.961.558-.965-.425a3.012,3.012,0,0,1-.557-.121.442.442,0,0,1,.023-.07l-.05.063c-.1-.026-.115-.027-.018.023a1.709,1.709,0,0,1-.711.622c-1.426-.246-1.835-1.738-2.666-2.124.092-.6.716.121,1.22-.283l-1.234-.578c1.224-.288,1.608-1.826,2.749-.648l-.314-1.183a1.7,1.7,0,0,0-.25-2.308c.095-.6-1.819-1.159-.692-.846l-1.376-1.7.306-.072c-.449-1.84-3.282-3.366-1.746-5.832a2.984,2.984,0,0,1-1.126-2.194l1.007-.392c-.646-.713.263-2.542-.974-2.674,2.609-1.371-.735-3.9-.714-5.367l-1.42.207a7.341,7.341,0,0,0-1.988-2.852l-1.211.3c-1.4-.816-.1-2.75-.828-4.318.514.018.543.446.365.785,2.086-2.433-3.565-3.622-2.216-5.727-.619-.342-.588-.681-.4-1.041a.2.2,0,0,0,.107.093.621.621,0,0,0-.055-.179,7.914,7.914,0,0,0,.423-.721,2,2,0,0,0-.465.628,4.131,4.131,0,0,0-1.011-1.228l1.244-.466a1.1,1.1,0,0,0-.083-.106c.3-.578-.781-.266-1.677.184a3.984,3.984,0,0,0-1.058-.494c1.986-.807-1.248-1.144.817-2.121-1.157-.1-1.762-1.982-3.788-2.1.042-.593.076-1.184-.778-1.54l1.589-.564-2.761-.741c.717-.924,1.184-1.342,2.788-.883-2.736-1.333-1.354-1.255-3.959-2.33l1.119-.146c-.268-.518-2.085-1.064-1.323-1.562,1.588-1.6-2.28-5.859-1.7-9.263-2.922,1.242.781-1.691-1.751-1.3.674-.332.905-.839,1.789-.489-1.458-1.376.121-2.551-2.458-3.171.676-.334,1.259.095,1.635-.154-.221-.089-.884-.349-.509-.6s.739.091,1.182.265c-.859-1.539-3.258-1.207-5.493-.861.663-1.009.332-1.374-1.365-1.642.584-.426,1.116-1.045,1.826-.128-.131-.572-.572-3.548-2.341-3.23.359-.265-.244-.788-.516-.888a9.7,9.7,0,0,0-1.143-2.544l-.122.393c-2.337-.018-.958-.893-1.685-1.8l.23-.02c.429-2.542-1.186-.8-.571-3.35l-1.246.405c-2.917.414.668-2.289-1.056-3.314l-.512.619c-1.316-.475,2.831-2.77,2.824-3.542.167-.2.515.151.8.322.723-2.183-1.832.145-2.924-1.118.794-.455,2.51-.2,2.213-1.15.52-.623-4.4-1.957-3.294-3.591-.563.433-1.126.863-2,.359-.767-.9,1.29-3.2-1.411-3.553a.826.826,0,0,1,.463-.3c-.963-.6-2.243-2.158-3.709-2.316,2.053-.852.882-1.855-.292-2.762.313-.548.721-.633,1.423.451l1.546-2.142.194.414c1.224-1.012,1.024-2.331.837-3.622.4-.053.443.492.545.7,2.007-1.143,2.063-1.48,2.183-4.8l.894.985c-.092-1.085,3.42-.883,4-4.093a1.529,1.529,0,0,1,.179.717c.77-3.432,6.126-1.837,3.941-6.768l.4-2.426c-1.618,1.493-1-2.07-2.043-2.012.386-.956,2.266-.594,1.733.5l-.246-.07c1.208,2.483,2.257-1.491,3.213.027,2.707-3.652,6.136-6.054,8.754-9.365L111.3,57.039l.949-1.1a1.009,1.009,0,0,1,.53,1.669c.978.492.5-2.237.272-2.623,1.685-1.016.859,2.6,1.26,2.122l.423-.829-.248-.035c-.056-1.251-.515-2.021.29-2.976.7-.324.951.687,1.182.493.08.119.181.087.319-.349l1.2-1.384-1.347-.7c.041-1.321,1.082-1.364-.453-2.144,2.347,1.281,4.621-4.939,5.569-4.868a5.384,5.384,0,0,1,1.582-3.91c-.391.027-1.537-1.259-.715-2.109,1.819,3.313,2.181-.388,4.141.674-1.14-.8,1.8-3.233-.35-4.071.754-.617.831,1.073,1.773,1.128.575-3.192,3.552-3.811,4.968-6.764-.254-.433-.965-.6-1.02-1.739l2.292.606c.2-.7-1.311-2.728.261-2.309-.321-.2-.8-.5-.673-.966,2.3-1.605,3.7-4.586,5.213-7.412,1.5-2.845,3.186-5.452,6.08-6.346-.982-.028-.748-.585-.438-1.164-.346.179-.695-.966-1.121-1.421l2.4-.774C144.817,5.876,147,5.246,146.121,3.623ZM60.145,47.483l-.173.331C59.229,47.358,59.668,47.426,60.145,47.483ZM9.443,165.888a.537.537,0,0,0-.007-.077C10.239,165.854,9.944,165.821,9.443,165.888Zm31.243-30.339a3.652,3.652,0,0,0-.177-.47C40.679,135.326,40.863,135.353,40.686,135.549Zm14.24-22.38c-.073-.543.3-.609.851-.462A.8.8,0,0,1,54.926,113.169ZM81.4,103.96c-.424-.216-1.571-.579-.906-.955C82.163,102.983,81.575,103.39,81.4,103.96Zm14.113,21.278c-.534-.118-.469-.488-.141-.959A.8.8,0,0,1,95.509,125.238Zm33.862,60.839a.511.511,0,0,0-.075-.02C129.613,185.318,129.479,185.584,129.371,186.077Zm-17.744-39.771a3.677,3.677,0,0,0-.5,0C111.416,146.235,111.5,146.072,111.627,146.306ZM78.737,78.513a15,15,0,0,1-.255-1.9A2.4,2.4,0,0,1,78.737,78.513Zm-.291.633c-.078.129-.162.256-.25.381l-.343-.14ZM70.052,92.6c.057-.473,0-1.675.585-1.18C71.232,92.983,70.649,92.571,70.052,92.6Zm-.318-1.314.3-.76a2.168,2.168,0,0,1,.9.279A1.254,1.254,0,0,1,69.734,91.285ZM115.775,53.22l-.37-.048C115.577,52.317,115.665,52.753,115.775,53.22Z"/>
</svg>
