<svg xmlns="http://www.w3.org/2000/svg" width="227.936" height="165.114" viewBox="0 0 227.936 165.114">
  <defs>
    <style>
      .a {
        fill: #f9fcfd;
      }
    </style>
  </defs>
  <g>
    <path class="a" d="M.418,16.131c1.851-2.455,2.347,2.936,5.256-.614.3.465-.606.883-.529,1.449.813-1.176,1.493-1.478,2.5-1.126l-.2.29c3.29-.662,4.379.235,7.781.545l.086-1.247c.726.086.778.468,1.052.748,1.423-2.033-2.142.13-.744-2.093.308,2.484,5.448-.562,5.318,2.314,1.185-.115.064-1.44,1.249-1.553l.092.764.589-1.063c.733.081.843,1.047.682,1.721-.165-.063-.588.24-.807.322.692.778,2.63-.406,3.106-.356l-.916-.351c3.441-1.046,7.1-.417,10.668-2.269l-.063-.584c2.7-1.309,1.713.508,4.471-.22l-.136.151a3.3,3.3,0,0,1,2.176-.992c-.863.756.839,1.278-.251,2.124,2.914-1.369,1.542-1.026,3.892-3.38l.1.975c.843-.944,1.031-1.424,2.406-1.77-1.317.93.381,1.47-1.146,2.685,2.075,2.014,4.7-2.489,4.994.652,2.069-2.845-1.894-1.406-1.021-2.033-.32-.864,1.647-2.147,2.414-1.9.85.018.421,3.47,2.612,3.307-.212,0-.29.208-.5.207.6.665,1.882-1.038,2.537.059,1.063-1.7,1.268.03,2.073-2.115l-2.147.6c1.3-.612,3.119-3.183,4.615-2.043a6.435,6.435,0,0,1-1.476,1.359c.357.6,1.173-.459,1.542.166-.8,2.136-2.561.563-4.266,2.263.313.873,2.759-1.666,1.453.681,1.766-3,2.022.29,4.171-2.015l-.485,1.285c.293-.21.957-.833,1.375-.815L63.66,13.941c1.618-1.459,1.91,1.159,3.283.348-2.395.123-.064-1.525-.788-2.425,3.418-1.792.75,3.146,4.01,2.59-.509.012-1.227-.788-.422-1.357a2.378,2.378,0,0,1,1.393,1.383c2.251-.307.073-1.312,1.239-2.117.258,1.548,1.261-.655,2.368-1.173l-.4,1.3c2.215.789,1.5-2.728,3.413-1.76l-1.5,1.824,1.306-.488-.7,1.486c1.6-1.123,1.91-.846,3.017-.454,0-.912.9-2.372,2-2.412.5.773-.8,1.24.8,1.05-.605.816-1.307,1.84-1.6.641-.2.425-.6.819-.8,1.239.521.888,1.946.2,2.509.185-.2-.048-.435-.118-.509-.3l2.807-1.811c.2.489-.206.882-.6,1.268.5-.142,1-.742,1.7-.855-.507,1.059-.811,2.152-1.911,2.653l2.5-1.18c0,.46.693,1.262.293,1.653.985.613,3.55-2.059,4.844-1.2a1.576,1.576,0,0,1,.752-.545c1.389.261,2.268,1.58,4.471.153l.373,1.914c1.5-.412-.562-2.412,1.934-3.095,1.8-.578.074,1.632.463,2.173,1.1-.932,3.115-2.835,4.077-1.243-.6.342-.89.049-1.389.176l.773,1.088c-1.91,1.69-2.688,1.061-2.124,2.575,1.352-3.663,4.453-.236,5.809-3.9l.483.8c-.2-.042-.3.173-.5.13.852,1.8,1.935-2.623,3.606-2.032.547.313.816.868.237,1.282l1.724-.836c.325.076.162.521-.125.618l2.083-.169-.052.107a18.426,18.426,0,0,1,1.969-1.775c.377.554-.407.375-.418.84l1.5-.829c.173.975-1.131,1.847-1.917,1.67-.1,3.717,1.306-.873,3.015,1.387l-1.29.408c.035,2.121,1.177,1.4,2.016,2.779-.069-.711-1.469-3.4.142-4.255.276.293.715.45,1.662-.236-.431,1.3.359,1.03,1.239,1.015l-.64,1.723c1.091-.435,1.315-1.32,2.121-2.06.973.241.734,1.593.595,2.736,1.556.387-.413-2.222,1.649-2.414,1.149.754,2.35.115,4.345-.806.754.671-.527,1.041-.352,1.562l1.316-1.3c.2.051-.015.469-.122.679.9-.471.648-1.72,1.931-2.091.955-1.874,1.349,2.98,3.479.942.173.52-.53,1.043-.655,1.72a15.714,15.714,0,0,0,4.211-2.656l.939,1.25c-.527-1.386,1.255-2.807,2.782-3.943a12.382,12.382,0,0,0-.341-1.523l2.066-.74c.111.3-.271.879-.807,1.569.168-.129.33-.258.463-.379.4.7-.27,1.664-1.052,2.581-.093-.363-.177-.749-.256-1.131a9.567,9.567,0,0,0-1.862,3.139,1.629,1.629,0,0,1,.732-.4,1.558,1.558,0,0,0-.38.7c0,.188.31-.175.748-.584l-.275,1.965.362-.754,1.851,1.446c2.3-1.763,4.72-4.46,7.588-4.978-1.14,1.341-.951,2.287-1.576,3.954-.081-1.843-2.265.538-3.475.036.633.26.2,1.04-.076,1.3l2.951-1.354c-.536,1.362.147,1.074.567,1.713.486-2.757,2.4-1.579,3.663-2.287-.262.914-.822,1.811-1.921,1.447.577,2.192,2.8-2.963,3.467-1.078-.3-.013-.4-.172-.679.275.959-.723,2.374.119,1.706.861l-.294-.017c1.8.535,5.781.8,6.893-1.459-.087.3-1.244,2.727-1.525,3.174l6.177-7.236c-1.01,1.926-1.562,6.769-3.538,7.662.349.346.794.739,1.991.2-.2-.327.267-2.961.752-3.077.357,2.368.375,1.3,1.115,3.379-.307-.492,1.327-3.5,2.019-3.287-.282.444-1.049,3.053-1.432,3.333l2.781-2.622a5.884,5.884,0,0,0-.792,3.344c.03-.622,1.543.3,2.135.07l-.509-.819c1.873.773,3.573-3.924,5.538-3.431-.476.584-2.021,3.744-1.137,4.3,1.04-1.471,4.837-7.1,7.074-7.99l.013.948,1.743-.757a82.757,82.757,0,0,1-7.944,8.349c.5.829-.175,1.079.993,1.191.094.9-1.087,1.155-1.439,1.147l2.447.985c.554-1.831,2.688-1.443,3.149-2.967L180.137,21.1c.554-1.831,3.567-4.842,5.32-4.174.208.806-1.556,3.151-1.742,3.761.475-.578,2.217-.863,2.224-.39l-1.154.82c.785.871,2.595-2.083,3.2-.13.39.191.41,2.57.886,1.517.077-2.2,2.334-8.6,3.386-10.058a12.677,12.677,0,0,1,1.628,3.534c.1,1.756-2.517,3.64-2.438,5.147a3.585,3.585,0,0,1,1.069-1.182c.292.51-.764,1.49.3,1.462.856-1.8,1.935.55,1.049-1.456,1.157-.333.877.579,2.033.722.091-1.257,2.541-3.823,3.7-4.134a3.366,3.366,0,0,0-.25,1.4c1.9.583,2.629,1.637,4.448,2.042,0,.476.67,1.208-.006,1.912.385-.264.864-.829,1.441-.746.474,1.828-1.343-.038-1.249,2.049.48-1.046,2.012-1.135,3.066-1.617.388-1.7-1.722-.735-2.775-.254a8.668,8.668,0,0,1,5.479-4.929c1.731-.217.09,1.611.477,1.349,2.685,1.039,3.954-3.394,5.667-1.194.369,1.667-1.077,2.876-1.276,3.965-1.436.249-1.522-1.37-2.375-1.514l.756.929c-.575.384-1.533.549-1.819.033.281,1.466,4.67,1.4,6.379,3.119.577-.391,1.437-.718,1.35-1.378l-.766.031c-.176-1.319,1.925-1.284,1.269-2.045,1.24-.579,2.778-1.6,3.816-.605l-.406,1.7c.162-.487-.46-1.2-1.022-.789.828-.588,1.108,2.731,2.55.736l-.459-1.37c1.249-.584,3.088-2.039,4.028-1.213.123-1.761-.336.11-.4-1.995-.219,2.445-2.706-.609-2.752,1.63-.06-2.035-1.093-1.116-1.434-3.182-.18.549-.02,1.135-.881.619a3.144,3.144,0,0,1-.4.423A.424.424,0,0,1,222,15.6l.028.077c-.074.071-.084.086.011.028a1.739,1.739,0,0,1,.168.95c-.968,1.116-2.488.686-3.265,1.209-.474-.4.485-.563.4-1.217l-1.156.774c.395-1.222-.748-2.37.886-2.746l-1.2-.35a1.735,1.735,0,0,0-2.149-1c-.476-.4-1.975.979-1.106.158l-2.215.3.1-.305c-1.845-.58-4.675,1.091-6.02-1.555a3.044,3.044,0,0,1-2.512-.174l.189-1.087c-.965.188-2.084-1.573-2.853-.562.18-3.005-3.8-1.418-5.068-2.21l-.57,1.352a7.489,7.489,0,0,0-3.543.23l-.375,1.219c-1.451.791-2.456-1.367-4.212-1.557.288-.439.677-.239.88.1-1.026-3.108-5.05,1.2-6.177-1.087-.626.361-.907.155-1.12-.2a.208.208,0,0,0,.138-.043.6.6,0,0,0-.185-.047,7.826,7.826,0,0,0-.408-.751,2.06,2.06,0,0,0,.3.738,4.257,4.257,0,0,0-1.608.235l.25-1.333c-.049.01-.083,0-.136.016-.347-.566-.646.543-.725,1.564a4.11,4.11,0,0,0-.991.663c.344-2.162-1.659.488-1.423-1.834-.7.956-2.663.494-3.837,2.2a1.285,1.285,0,0,0-1.757-.133l.346-1.687-2.1,2.022c-.43-1.114-.549-1.744.7-2.9-2.611,1.687-1.812.52-4.128,2.23l.463-1.055c-.593-.04-2.031,1.26-2.063.33-.559-2.232-6.326-1.1-9-3.4-.458,3.211-1.066-1.575-2.058.846.066-.764-.255-1.234.517-1.822-1.973.548-2.166-1.453-4.07.474.065-.767.749-1.051.728-1.51-.194.146-.771.588-.8.125s.47-.6.855-.892c-1.8-.062-2.775,2.21-3.653,4.347-.532-1.113-1.026-1.016-2.156.326-.064-.736-.324-1.528.852-1.664-.569-.188-3.4-1.374-4.06.34-.042-.454-.817-.2-1.048-.018a9.96,9.96,0,0,0-2.828-.345l.279.315c-1.25,2.034-1.287.366-2.466.521l.1-.211c-2-1.718-1.324.614-3.23-1.271l-.305,1.3c-1.178,2.768-1.647-1.793-3.455-.827l.272.775c-1.11.9-.927-3.938-1.605-4.34-.092-.254.4-.37.706-.533-1.527-1.784-.841,1.678-2.522,1.966.022-.934,1.15-2.3.164-2.542-.27-.784-4.035,2.812-4.879.982.081.721.159,1.441-.741,1.935-1.19.2-2.113-2.816-3.851-.643a.848.848,0,0,1-.017-.563c-1.035.524-3.071.822-3.983,2.02.679-4.5-6.007,2.006-4.641-2.12l-2.694.137.2-.42c-1.588-.328-2.511.674-3.42,1.649-.3-.286.11-.667.212-.883-2.194-.868-2.5-.7-5.219,1.329l.213-1.342c-.8.767-2.889-2.159-5.82-.574A1.56,1.56,0,0,1,91,1.02c-3.226,1.581-5.38-3.7-7.911,1.187L80.9,3.442c2.224.335-1.007,2.123-.3,2.914-1.008.3-1.921-1.425-.712-1.7l.1.24c1.206-2.549-2.63-.845-2.032-2.577C73.323,2.5,69.217,1.3,64.906,1.336l-.1,1.957-1.483-.052a1.033,1.033,0,0,1,.991-1.491c-.234-1.093-2.1,1.03-2.264,1.46-1.886-.692,1.523-2.345.885-2.359l-.93.192.13.221c-.96.843-1.28,1.7-2.556,1.671-.708-.353-.06-1.2-.362-1.256.043-.14-.047-.2-.482-.032L56.87,1.576l.3,1.52c-1.079.812-1.779.01-1.419,1.732-.48-2.689-6.888-.525-7.438-1.325a5.5,5.5,0,0,1-4.125,1.239c.27.295-.021,2.03-1.224,1.918,1.477-3.567-1.7-1.489-2.109-3.73.094,1.417-3.726.634-3.02,2.882-.973-.207.324-1.348-.234-2.134-2.911,1.583-5.307-.392-8.565.367-.182.479.136,1.154-.732,1.924l-.983-2.213c-.683.292-1.335,2.787-2.006,1.268.048.381.118.956-.34,1.153-2.75-.809-6.017-.015-9.236.585-3.227.622-6.379.947-8.941-.787.6.8.011.97-.648,1.093.364.162-.325,1.171-.415,1.8L3.585,7.449C2.628,9.3.729,7.958,0,9.7l.915-.421C-.728,11.439,1.271,13.53.418,16.131Zm144.226-4.195a.819.819,0,0,1,.913.383C145.171,12.725,144.883,12.473,144.644,11.936Zm71.982,2.916a.415.415,0,0,0-.057.055C216.09,14.239,216.252,14.5,216.626,14.852Zm-44.139-5.5a3.848,3.848,0,0,0-.262.442C172.314,9.505,172.218,9.341,172.487,9.357ZM119.5,13.418c-.413.257-1.336,1.069-1.314.289C119.053,12.233,119.1,12.961,119.5,13.418ZM58.906,2.167l.2.326C58.313,2.9,58.605,2.554,58.906,2.167Z"/>
    <path class="a" d="M227.514,89.4c-.219,2.445-2.706-.609-2.752,1.63-.06-2.035-1.093-1.115-1.434-3.182-.18.55-.02,1.135-.881.62a3.133,3.133,0,0,1-.4.422.424.424,0,0,1-.049-.057l.028.077c-.074.071-.084.087.011.028a1.742,1.742,0,0,1,.168.95c-.968,1.116-2.488.686-3.265,1.209-.474-.4.485-.562.4-1.216l-1.156.773c.395-1.222-.748-2.37.886-2.745l-1.2-.351a1.736,1.736,0,0,0-2.149-1c-.476-.4-1.975.979-1.106.159l-2.215.3.1-.305c-1.845-.58-4.675,1.091-6.02-1.555a3.04,3.04,0,0,1-2.512-.174l.189-1.087c-.965.188-2.084-1.572-2.853-.562.18-3-3.8-1.417-5.068-2.21l-.57,1.352a7.489,7.489,0,0,0-3.543.23l-.375,1.219c-1.451.791-2.456-1.366-4.212-1.557.288-.439.677-.239.88.1-1.026-3.109-5.05,1.2-6.177-1.087-.626.36-.907.154-1.12-.2a.215.215,0,0,0,.138-.044.6.6,0,0,0-.185-.047,7.826,7.826,0,0,0-.408-.751,2.06,2.06,0,0,0,.3.738,4.242,4.242,0,0,0-1.608.236l.25-1.334c-.049.01-.083,0-.136.016-.347-.566-.646.543-.725,1.564a4.085,4.085,0,0,0-.991.664c.344-2.163-1.659.487-1.423-1.835-.7.957-2.663.494-3.837,2.2a1.285,1.285,0,0,0-1.757-.133l.346-1.687-2.1,2.023c-.43-1.115-.549-1.745.7-2.9-2.611,1.687-1.812.521-4.128,2.23l.463-1.055c-.593-.04-2.031,1.26-2.063.33-.559-2.231-6.326-1.1-9-3.4-.458,3.211-1.066-1.575-2.058.846.066-.763-.255-1.233.517-1.822-1.973.548-2.166-1.453-4.07.475.065-.768.749-1.051.728-1.511-.194.146-.771.588-.8.125s.47-.6.855-.892c-1.8-.062-2.775,2.21-3.653,4.347-.532-1.112-1.026-1.016-2.156.326-.064-.736-.324-1.527.852-1.664-.569-.187-3.4-1.374-4.06.34-.042-.454-.817-.2-1.048-.018a9.924,9.924,0,0,0-2.828-.344l.279.314c-1.25,2.034-1.287.366-2.466.521l.1-.211c-2-1.718-1.324.615-3.23-1.271l-.305,1.3c-1.178,2.769-1.647-1.793-3.455-.827l.272.775c-1.11.9-.927-3.937-1.605-4.34-.092-.254.4-.37.706-.533-1.527-1.784-.841,1.678-2.522,1.967.022-.935,1.15-2.3.164-2.543-.27-.784-4.035,2.813-4.879.983.081.721.159,1.44-.741,1.934-1.19.2-2.113-2.816-3.851-.643a.845.845,0,0,1-.017-.562c-1.035.523-3.071.821-3.983,2.019.679-4.5-6.007,2.006-4.641-2.12l-2.694.137.2-.42c-1.588-.327-2.511.675-3.42,1.65-.3-.287.11-.668.212-.884-2.194-.868-2.5-.7-5.219,1.33l.213-1.342c-.8.766-2.889-2.16-5.82-.575a1.551,1.551,0,0,1,.457-.6c-3.226,1.58-5.38-3.706-7.911,1.186L80.9,76.68c2.224.334-1.007,2.122-.3,2.914-1.008.3-1.921-1.426-.712-1.7l.1.241c1.206-2.55-2.63-.846-2.032-2.578-4.639.179-8.745-1.018-13.056-.986l-.1,1.958-1.483-.053a1.032,1.032,0,0,1,.991-1.49c-.234-1.093-2.1,1.029-2.264,1.46-1.886-.693,1.523-2.346.885-2.36l-.93.193.13.22c-.96.844-1.28,1.7-2.556,1.671-.708-.353-.06-1.2-.362-1.256.043-.14-.047-.2-.482-.031l-1.869-.072.3,1.521c-1.079.812-1.779.01-1.419,1.731-.48-2.689-6.888-.524-7.438-1.324a5.5,5.5,0,0,1-4.125,1.239c.27.294-.021,2.029-1.224,1.917,1.477-3.566-1.7-1.488-2.109-3.729.094,1.416-3.726.634-3.02,2.881-.973-.207.324-1.348-.234-2.133-2.911,1.583-5.307-.393-8.565.366-.182.479.136,1.154-.732,1.924l-.983-2.213c-.683.292-1.335,2.787-2.006,1.268.048.381.118.957-.34,1.154-2.75-.81-6.017-.015-9.236.584-3.227.622-6.379.948-8.941-.787.6.8.011.97-.648,1.093.364.162-.325,1.172-.415,1.8L3.585,80.686C2.628,82.533.729,81.195,0,82.935l.915-.421c-1.643,2.162.356,4.253-.5,6.854,1.851-2.455,2.347,2.936,5.256-.614.3.466-.606.883-.529,1.449.813-1.176,1.493-1.478,2.5-1.126l-.2.29c3.29-.661,4.379.235,7.781.545l.086-1.246c.726.085.778.467,1.052.747,1.423-2.033-2.142.13-.744-2.093.308,2.485,5.448-.562,5.318,2.315,1.185-.116.064-1.44,1.249-1.554l.092.764.589-1.062c.733.081.843,1.046.682,1.72-.165-.063-.588.24-.807.322.692.779,2.63-.406,3.106-.355l-.916-.352c3.441-1.046,7.1-.417,10.668-2.268l-.063-.585c2.7-1.308,1.713.508,4.471-.22l-.136.152a3.294,3.294,0,0,1,2.176-.993c-.863.756.839,1.278-.251,2.124,2.914-1.369,1.542-1.025,3.892-3.379l.1.974c.843-.944,1.031-1.424,2.406-1.77-1.317.93.381,1.47-1.146,2.685,2.075,2.014,4.7-2.489,4.994.652,2.069-2.844-1.894-1.406-1.021-2.033-.32-.864,1.647-2.147,2.414-1.9.85.018.421,3.47,2.612,3.307-.212,0-.29.208-.5.207.6.665,1.882-1.038,2.537.059,1.063-1.7,1.268.031,2.073-2.115l-2.147.6c1.3-.612,3.119-3.182,4.615-2.043a6.435,6.435,0,0,1-1.476,1.359c.357.6,1.173-.458,1.542.166-.8,2.136-2.561.563-4.266,2.263.313.873,2.759-1.666,1.453.682,1.766-3,2.022.29,4.171-2.016L63.563,86.3c.293-.21.957-.832,1.375-.814L63.66,87.178c1.618-1.459,1.91,1.16,3.283.348-2.395.124-.064-1.525-.788-2.425,3.418-1.792.75,3.146,4.01,2.59-.509.012-1.227-.788-.422-1.356a2.373,2.373,0,0,1,1.393,1.383c2.251-.308.073-1.313,1.239-2.117.258,1.547,1.261-.656,2.368-1.174l-.4,1.3c2.215.789,1.5-2.728,3.413-1.76l-1.5,1.825,1.306-.489-.7,1.487c1.6-1.124,1.91-.847,3.017-.455,0-.912.9-2.372,2-2.412.5.773-.8,1.24.8,1.05-.605.816-1.307,1.841-1.6.642-.2.425-.6.818-.8,1.238.521.888,1.946.2,2.509.185-.2-.048-.435-.117-.509-.3l2.807-1.811c.2.489-.206.882-.6,1.268.5-.142,1-.742,1.7-.855-.507,1.059-.811,2.153-1.911,2.653l2.5-1.18c0,.46.693,1.263.293,1.654.985.612,3.55-2.06,4.844-1.206a1.583,1.583,0,0,1,.752-.545c1.389.262,2.268,1.58,4.471.153l.373,1.914c1.5-.411-.562-2.412,1.934-3.095,1.8-.578.074,1.632.463,2.174,1.1-.932,3.115-2.836,4.077-1.243-.6.342-.89.049-1.389.175l.773,1.088c-1.91,1.69-2.688,1.061-2.124,2.576,1.352-3.664,4.453-.237,5.809-3.9l.483.8c-.2-.043-.3.172-.5.129.852,1.8,1.935-2.623,3.606-2.031.547.313.816.868.237,1.281L112.6,85.9c.325.076.162.521-.125.618l2.083-.169-.052.108a18.441,18.441,0,0,1,1.969-1.776c.377.554-.407.376-.418.84l1.5-.828c.173.975-1.131,1.846-1.917,1.669-.1,3.717,1.306-.873,3.015,1.387l-1.29.408c.035,2.122,1.177,1.4,2.016,2.779-.069-.711-1.469-3.4.142-4.255.276.293.715.451,1.662-.236-.431,1.3.359,1.031,1.239,1.015l-.64,1.723c1.091-.435,1.315-1.319,2.121-2.06.973.241.734,1.593.595,2.737,1.556.387-.413-2.223,1.649-2.414,1.149.754,2.35.114,4.345-.806.754.671-.527,1.04-.352,1.562l1.316-1.3c.2.052-.015.469-.122.679.9-.471.648-1.719,1.931-2.091.955-1.874,1.349,2.98,3.479.942.173.52-.53,1.043-.655,1.72a15.735,15.735,0,0,0,4.211-2.655l.939,1.249c-.527-1.386,1.255-2.807,2.782-3.942a12.363,12.363,0,0,0-.341-1.524l2.066-.74c.111.306-.271.879-.807,1.569.168-.129.33-.258.463-.379.4.7-.27,1.665-1.052,2.581-.093-.362-.177-.748-.256-1.131a9.561,9.561,0,0,0-1.862,3.14,1.631,1.631,0,0,1,.732-.406,1.563,1.563,0,0,0-.38.7c0,.188.31-.174.748-.584l-.275,1.965.362-.754,1.851,1.446c2.3-1.762,4.72-4.46,7.588-4.978-1.14,1.342-.951,2.288-1.576,3.954-.081-1.843-2.265.539-3.475.037.633.26.2,1.04-.076,1.3l2.951-1.355c-.536,1.363.147,1.074.567,1.714.486-2.758,2.4-1.579,3.663-2.288-.262.915-.822,1.811-1.921,1.447.577,2.193,2.8-2.962,3.467-1.078-.3-.013-.4-.172-.679.275.959-.722,2.374.119,1.706.861l-.294-.017c1.8.535,5.781.8,6.893-1.459-.087.3-1.244,2.727-1.525,3.174l6.177-7.236c-1.01,1.926-1.562,6.769-3.538,7.662.349.346.794.739,1.991.2-.2-.327.267-2.961.752-3.076.357,2.367.375,1.294,1.115,3.378-.307-.492,1.327-3.5,2.019-3.287-.282.444-1.049,3.053-1.432,3.333l2.781-2.622a5.888,5.888,0,0,0-.792,3.344c.03-.621,1.543.3,2.135.07l-.509-.819c1.873.773,3.573-3.924,5.538-3.431-.476.585-2.021,3.745-1.137,4.3,1.04-1.47,4.837-7.1,7.074-7.989l.013.947,1.743-.757a82.651,82.651,0,0,1-7.944,8.349c.5.829-.175,1.08.993,1.191.094.9-1.087,1.155-1.439,1.147l2.447.985c.554-1.83,2.688-1.443,3.149-2.967l-3.563,1.358c.554-1.831,3.567-4.841,5.32-4.174.208.806-1.556,3.151-1.742,3.761.475-.578,2.217-.862,2.224-.39l-1.154.821c.785.87,2.595-2.084,3.2-.13.39.19.41,2.569.886,1.516.077-2.2,2.334-8.6,3.386-10.058a12.677,12.677,0,0,1,1.628,3.534c.1,1.756-2.517,3.64-2.438,5.147a3.585,3.585,0,0,1,1.069-1.182c.292.51-.764,1.491.3,1.462.856-1.8,1.935.55,1.049-1.455,1.157-.333.877.578,2.033.721.091-1.257,2.541-3.823,3.7-4.134a3.366,3.366,0,0,0-.25,1.4c1.9.583,2.629,1.638,4.448,2.042,0,.476.67,1.208-.006,1.912.385-.264.864-.829,1.441-.746.474,1.828-1.343-.038-1.249,2.049.48-1.046,2.012-1.135,3.066-1.617.388-1.7-1.722-.735-2.775-.254a8.668,8.668,0,0,1,5.479-4.929c1.731-.217.09,1.612.477,1.35,2.685,1.039,3.954-3.395,5.667-1.194.369,1.666-1.077,2.876-1.276,3.964-1.436.249-1.522-1.37-2.375-1.514l.756.93c-.575.383-1.533.548-1.819.032.281,1.467,4.67,1.4,6.379,3.12.577-.392,1.437-.718,1.35-1.379l-.766.031c-.176-1.318,1.925-1.284,1.269-2.045,1.24-.579,2.778-1.6,3.816-.605l-.406,1.7c.162-.486-.46-1.195-1.022-.789.828-.588,1.108,2.732,2.55.736l-.459-1.37c1.249-.584,3.088-2.039,4.028-1.213C228.038,89.635,227.579,91.507,227.514,89.4ZM58.906,75.4l.2.326C58.313,76.139,58.605,75.791,58.906,75.4Zm59.282,11.54c.865-1.474.91-.746,1.314-.288C119.089,86.913,118.166,87.724,118.188,86.944Zm26.456-1.77a.816.816,0,0,1,.913.383C145.171,85.962,144.883,85.71,144.644,85.174Zm27.581-2.138c.089-.294-.007-.458.262-.442A3.848,3.848,0,0,0,172.225,83.036Zm44.344,5.108c-.479-.668-.317-.411.057-.055A.484.484,0,0,0,216.569,88.144Z"/>
    <path class="a" d="M227.514,158.077c-.219,2.445-2.706-.609-2.752,1.63-.06-2.035-1.093-1.116-1.434-3.182-.18.549-.02,1.135-.881.619a3.144,3.144,0,0,1-.4.423.424.424,0,0,1-.049-.057l.028.077c-.074.071-.084.086.011.028a1.741,1.741,0,0,1,.168.95c-.968,1.116-2.488.686-3.265,1.209-.474-.4.485-.563.4-1.217l-1.156.773c.395-1.221-.748-2.369.886-2.745l-1.2-.35a1.735,1.735,0,0,0-2.149-1c-.476-.4-1.975.979-1.106.158l-2.215.3.1-.305c-1.845-.58-4.675,1.091-6.02-1.555a3.044,3.044,0,0,1-2.512-.174l.189-1.087c-.965.188-2.084-1.573-2.853-.562.18-3-3.8-1.418-5.068-2.21l-.57,1.352a7.489,7.489,0,0,0-3.543.23l-.375,1.219c-1.451.791-2.456-1.367-4.212-1.557.288-.439.677-.239.88.095-1.026-3.108-5.05,1.2-6.177-1.087-.626.361-.907.155-1.12-.2a.208.208,0,0,0,.138-.043.6.6,0,0,0-.185-.047,7.826,7.826,0,0,0-.408-.751,2.06,2.06,0,0,0,.3.738,4.237,4.237,0,0,0-1.608.235l.25-1.333c-.049.01-.083,0-.136.016-.347-.566-.646.543-.725,1.564a4.11,4.11,0,0,0-.991.663c.344-2.162-1.659.488-1.423-1.834-.7.956-2.663.494-3.837,2.2a1.285,1.285,0,0,0-1.757-.133l.346-1.687-2.1,2.022c-.43-1.114-.549-1.744.7-2.9-2.611,1.687-1.812.52-4.128,2.23l.463-1.055c-.593-.04-2.031,1.26-2.063.33-.559-2.232-6.326-1.1-9-3.4-.458,3.211-1.066-1.576-2.058.846.066-.764-.255-1.234.517-1.822-1.973.548-2.166-1.453-4.07.474.065-.767.749-1.051.728-1.51-.194.146-.771.588-.8.125s.47-.6.855-.892c-1.8-.062-2.775,2.21-3.653,4.347-.532-1.113-1.026-1.016-2.156.326-.064-.736-.324-1.527.852-1.664-.569-.188-3.4-1.374-4.06.34-.042-.454-.817-.2-1.048-.018a9.96,9.96,0,0,0-2.828-.345l.279.315c-1.25,2.034-1.287.366-2.466.52l.1-.21c-2-1.718-1.324.614-3.23-1.271l-.305,1.3c-1.178,2.768-1.647-1.793-3.455-.827l.272.775c-1.11.9-.927-3.938-1.605-4.34-.092-.254.4-.37.706-.533-1.527-1.784-.841,1.678-2.522,1.966.022-.934,1.15-2.3.164-2.542-.27-.784-4.035,2.812-4.879.982.081.721.159,1.441-.741,1.935-1.19.2-2.113-2.816-3.851-.643a.848.848,0,0,1-.017-.563c-1.035.524-3.071.822-3.983,2.02.679-4.5-6.007,2.006-4.641-2.12l-2.694.137.2-.42c-1.588-.327-2.511.674-3.42,1.649-.3-.286.11-.667.212-.883-2.194-.868-2.5-.7-5.219,1.329l.213-1.342c-.8.767-2.889-2.159-5.82-.574a1.56,1.56,0,0,1,.457-.6c-3.226,1.581-5.38-3.7-7.911,1.187L80.9,145.355c2.224.335-1.007,2.123-.3,2.914-1.008.3-1.921-1.426-.712-1.7l.1.24c1.206-2.549-2.63-.846-2.032-2.577-4.639.179-8.745-1.018-13.056-.986l-.1,1.957-1.483-.052a1.033,1.033,0,0,1,.991-1.491c-.234-1.093-2.1,1.03-2.264,1.46-1.886-.692,1.523-2.345.885-2.359l-.93.192.13.221c-.96.843-1.28,1.7-2.556,1.671-.708-.353-.06-1.2-.362-1.256.043-.14-.047-.2-.482-.032l-1.869-.071.3,1.52c-1.079.812-1.779.01-1.419,1.732-.48-2.689-6.888-.525-7.438-1.325a5.5,5.5,0,0,1-4.125,1.239c.27.295-.021,2.03-1.224,1.918,1.477-3.567-1.7-1.489-2.109-3.73.094,1.417-3.726.634-3.02,2.882-.973-.207.324-1.348-.234-2.134-2.911,1.583-5.307-.392-8.565.367-.182.479.136,1.154-.732,1.924l-.983-2.213c-.683.292-1.335,2.787-2.006,1.268.048.381.118.956-.34,1.154-2.75-.81-6.017-.016-9.236.584-3.227.621-6.379.947-8.941-.787.6.8.011.97-.648,1.093.364.162-.325,1.171-.415,1.8l-2.153-1.421c-.957,1.847-2.856.509-3.585,2.249l.915-.421c-1.643,2.161.356,4.253-.5,6.854,1.851-2.455,2.347,2.936,5.256-.614.3.465-.606.883-.529,1.449.813-1.176,1.493-1.478,2.5-1.126l-.2.29c3.29-.661,4.379.235,7.781.545l.086-1.247c.726.086.778.468,1.052.748,1.423-2.033-2.142.13-.744-2.093.308,2.484,5.448-.562,5.318,2.314,1.185-.115.064-1.44,1.249-1.553l.092.764.589-1.063c.733.081.843,1.047.682,1.721-.165-.063-.588.24-.807.322.692.778,2.63-.406,3.106-.356l-.916-.351c3.441-1.046,7.1-.417,10.668-2.269l-.063-.584c2.7-1.309,1.713.508,4.471-.22l-.136.151a3.3,3.3,0,0,1,2.176-.992c-.863.756.839,1.278-.251,2.123,2.914-1.368,1.542-1.024,3.892-3.379l.1.975c.843-.944,1.031-1.424,2.406-1.77-1.317.93.381,1.47-1.146,2.685,2.075,2.014,4.7-2.489,4.994.652,2.069-2.844-1.894-1.406-1.021-2.033-.32-.864,1.647-2.147,2.414-1.9.85.018.421,3.47,2.612,3.306-.212,0-.29.209-.5.208.6.665,1.882-1.038,2.537.059,1.063-1.7,1.268.03,2.073-2.115l-2.147.6c1.3-.612,3.119-3.183,4.615-2.043a6.435,6.435,0,0,1-1.476,1.359c.357.6,1.173-.459,1.542.166-.8,2.136-2.561.563-4.266,2.263.313.873,2.759-1.666,1.453.681,1.766-3,2.022.29,4.171-2.015l-.485,1.285c.293-.21.957-.833,1.375-.815l-1.278,1.689c1.618-1.459,1.91,1.159,3.283.348-2.395.123-.064-1.525-.788-2.425,3.418-1.792.75,3.146,4.01,2.59-.509.012-1.227-.788-.422-1.357a2.378,2.378,0,0,1,1.393,1.383c2.251-.307.073-1.312,1.239-2.117.258,1.548,1.261-.656,2.368-1.173l-.4,1.3c2.215.789,1.5-2.728,3.413-1.76l-1.5,1.825,1.306-.489-.7,1.486c1.6-1.123,1.91-.846,3.017-.454,0-.912.9-2.372,2-2.412.5.773-.8,1.24.8,1.05-.605.816-1.307,1.84-1.6.641-.2.425-.6.819-.8,1.239.521.888,1.946.2,2.509.185-.2-.048-.435-.118-.509-.3l2.807-1.811c.2.489-.206.882-.6,1.268.5-.142,1-.742,1.7-.856-.507,1.06-.811,2.153-1.911,2.654l2.5-1.18c0,.46.693,1.262.293,1.653.985.613,3.55-2.059,4.844-1.2a1.576,1.576,0,0,1,.752-.545c1.389.261,2.268,1.58,4.471.153l.373,1.914c1.5-.412-.562-2.412,1.934-3.095,1.8-.578.074,1.632.463,2.173,1.1-.932,3.115-2.835,4.077-1.243-.6.342-.89.049-1.389.176l.773,1.088c-1.91,1.69-2.688,1.061-2.124,2.575,1.352-3.663,4.453-.236,5.809-3.9l.483.8c-.2-.043-.3.172-.5.129.852,1.8,1.935-2.623,3.606-2.032.547.313.816.868.237,1.282l1.724-.836c.325.076.162.521-.125.618l2.083-.169-.052.107a18.426,18.426,0,0,1,1.969-1.775c.377.554-.407.375-.418.84l1.5-.829c.173.975-1.131,1.847-1.917,1.67-.1,3.717,1.306-.873,3.015,1.387l-1.29.408c.035,2.121,1.177,1.4,2.016,2.779-.069-.711-1.469-3.4.142-4.255.276.293.715.45,1.662-.236-.431,1.3.359,1.03,1.239,1.015l-.64,1.723c1.091-.435,1.315-1.32,2.121-2.06.973.241.734,1.593.595,2.736,1.556.387-.413-2.222,1.649-2.414,1.149.754,2.35.115,4.345-.806.754.671-.527,1.041-.352,1.562l1.316-1.3c.2.051-.015.469-.122.679.9-.471.648-1.72,1.931-2.091.955-1.874,1.349,2.98,3.479.942.173.52-.53,1.043-.655,1.72a15.714,15.714,0,0,0,4.211-2.656l.939,1.25c-.527-1.386,1.255-2.807,2.782-3.943a12.382,12.382,0,0,0-.341-1.523l2.066-.74c.111.305-.271.879-.807,1.569.168-.129.33-.258.463-.379.4.7-.27,1.665-1.052,2.581-.093-.363-.177-.749-.256-1.131a9.567,9.567,0,0,0-1.862,3.139,1.629,1.629,0,0,1,.732-.405,1.558,1.558,0,0,0-.38.7c0,.188.31-.175.748-.584l-.275,1.965.362-.754,1.851,1.446c2.3-1.763,4.72-4.46,7.588-4.978-1.14,1.341-.951,2.287-1.576,3.954-.081-1.843-2.265.538-3.475.036.633.26.2,1.04-.076,1.3l2.951-1.354c-.536,1.362.147,1.074.567,1.713.486-2.757,2.4-1.579,3.663-2.287-.262.914-.822,1.811-1.921,1.447.577,2.192,2.8-2.963,3.467-1.078-.3-.013-.4-.172-.679.275.959-.723,2.374.119,1.706.861l-.294-.017c1.8.535,5.781.8,6.893-1.459-.087.3-1.244,2.727-1.525,3.174l6.177-7.236c-1.01,1.926-1.562,6.769-3.538,7.662.349.346.794.739,1.991.195-.2-.327.267-2.961.752-3.077.357,2.368.375,1.3,1.115,3.379-.307-.492,1.327-3.5,2.019-3.287-.282.444-1.049,3.053-1.432,3.333l2.781-2.622a5.886,5.886,0,0,0-.792,3.344c.03-.622,1.543.3,2.135.07l-.509-.819c1.873.773,3.573-3.924,5.538-3.431-.476.584-2.021,3.744-1.137,4.3,1.04-1.47,4.837-7.1,7.074-7.99l.013.948,1.743-.757a82.757,82.757,0,0,1-7.944,8.349c.5.829-.175,1.079.993,1.191.094.9-1.087,1.155-1.439,1.147l2.447.985c.554-1.83,2.688-1.443,3.149-2.967l-3.563,1.358c.554-1.831,3.567-4.842,5.32-4.174.208.806-1.556,3.151-1.742,3.761.475-.578,2.217-.863,2.224-.39l-1.154.82c.785.871,2.595-2.083,3.2-.13.39.191.41,2.57.886,1.517.077-2.2,2.334-8.6,3.386-10.058a12.677,12.677,0,0,1,1.628,3.534c.1,1.756-2.517,3.64-2.438,5.147a3.585,3.585,0,0,1,1.069-1.182c.292.51-.764,1.491.3,1.462.856-1.8,1.935.55,1.049-1.456,1.157-.333.877.579,2.033.722.091-1.257,2.541-3.823,3.7-4.134a3.366,3.366,0,0,0-.25,1.4c1.9.583,2.629,1.637,4.448,2.042,0,.476.67,1.208-.006,1.912.385-.264.864-.829,1.441-.746.474,1.828-1.343-.038-1.249,2.049.48-1.046,2.012-1.135,3.066-1.617.388-1.7-1.722-.735-2.775-.254a8.668,8.668,0,0,1,5.479-4.929c1.731-.217.09,1.611.477,1.349,2.685,1.039,3.954-3.394,5.667-1.194.369,1.667-1.077,2.876-1.276,3.965-1.436.249-1.522-1.37-2.375-1.514l.756.929c-.575.384-1.533.549-1.819.033.281,1.466,4.67,1.4,6.379,3.119.577-.391,1.437-.718,1.35-1.378l-.766.031c-.176-1.319,1.925-1.284,1.269-2.045,1.24-.579,2.778-1.595,3.816-.605l-.406,1.7c.162-.487-.46-1.2-1.022-.789.828-.588,1.108,2.731,2.55.736l-.459-1.371c1.249-.583,3.088-2.038,4.028-1.212C228.038,158.311,227.579,160.182,227.514,158.077Zm-168.608-14,.2.326C58.313,144.815,58.605,144.467,58.906,144.08Zm59.282,11.539c.865-1.473.91-.745,1.314-.288C119.089,155.588,118.166,156.4,118.188,155.619Zm26.456-1.77a.819.819,0,0,1,.913.383C145.171,154.638,144.883,154.386,144.644,153.849Zm27.581-2.137c.089-.294-.007-.458.262-.442A3.848,3.848,0,0,0,172.225,151.712Zm44.344,5.108c-.479-.668-.317-.411.057-.055A.484.484,0,0,0,216.569,156.82Z"/>
  </g>
</svg>
