<svg xmlns="http://www.w3.org/2000/svg" viewBox="0 0 512 512" xmlns:v="https://vecta.io/nano"><path d="M437 75C337-25 175.1-25 75 75-25 175-25 336.9 75 437c100 100 261.9 100 362 0 100-100 100-261.9 0-362zm-10.7 325.5c-12-10.7-24.7-20.2-38.2-28.3 8.9-30.8 14.2-64.7 15.4-99.9h75.2c-3.4 47.5-21.6 92-52.4 128.2h0zm-393-128.2h75.2c1.2 35.2 6.5 69.1 15.4 99.9-13.5 8.2-26.3 17.6-38.2 28.3-30.8-36.2-49-80.7-52.4-128.2zm52.4-160.8c12 10.7 24.7 20.2 38.2 28.3-8.9 30.8-14.2 64.7-15.4 99.9H33.3c3.4-47.5 21.6-92 52.4-128.2zm154 31.7a221.75 221.75 0 0 1-76-19.3c13.8-35.6 39.3-78.3 76-88.9v108.2zm0 32.7v63.8h-98.5c1.1-29.8 5.3-58.4 12.4-84.6 26.9 11.8 56 18.9 86.1 20.8zm0 96.4v63.8c-30.1 1.9-59.2 8.9-86.2 20.7-7-26.2-11.2-54.8-12.4-84.6h98.6zm0 96.5V477c-36.7-10.6-62.2-53.3-76-88.9 23.7-10.8 49.4-17.4 76-19.3zm32.6 0a221.75 221.75 0 0 1 76 19.3c-13.8 35.6-39.3 78.3-76 88.9V368.8zm0-32.7v-63.8h98.5c-1.1 29.8-5.3 58.4-12.4 84.6-26.9-11.8-56-18.9-86.1-20.8h0zm0-96.4v-63.8c30.1-1.9 59.2-8.9 86.2-20.7 7 26.2 11.2 54.8 12.4 84.6h-98.6zm0-96.5V35c36.7 10.6 62.2 53.3 76 88.9-23.7 10.8-49.4 17.4-76 19.3zm73.3-91.9c20.9 9.1 40.4 21.5 57.8 36.9-8.3 7.3-17.1 14-26.2 19.9-8.2-20.1-18.6-39.7-31.6-56.8zm-210.7 56.8c-9.2-5.9-17.9-12.6-26.2-19.9 17.5-15.4 36.9-27.8 57.8-36.9-13.1 17.1-23.5 36.7-31.6 56.8h0zm0 295.8c8.1 20.1 18.5 39.7 31.6 56.8-20.9-9.1-40.4-21.5-57.8-36.9 8.2-7.4 17-14 26.2-19.9zm242.2 0c9.2 5.9 17.9 12.6 26.2 19.9-17.5 15.4-36.9 27.8-57.8 36.9 13.1-17.1 23.5-36.7 31.6-56.8h0zm26.4-164.2c-1.2-35.2-6.5-69.1-15.4-99.9 13.5-8.2 26.3-17.6 38.2-28.3 30.8 36.2 49.1 80.7 52.5 128.2h-75.3z" fill="#fff"/></svg>