<svg xmlns="http://www.w3.org/2000/svg" viewBox="0 0 409.6 409.6" fill="#47aad5" xmlns:v="https://vecta.io/nano"><path d="M307.2 0H102.4C46.1 0 0 46.1 0 102.4v204.8c0 56.3 46.1 102.4 102.4 102.4h204.8c56.3 0 102.4-46.1 102.4-102.4V102.4C409.6 46.1 363.5 0 307.2 0zm68.3 307.2c0 37.6-30.6 68.3-68.3 68.3H102.4c-37.6 0-68.3-30.6-68.3-68.3V102.4c0-37.6 30.6-68.3 68.3-68.3h204.8c37.7 0 68.3 30.6 68.3 68.3v204.8h0z"/><circle cx="315.8" cy="93.9" r="25.6"/><path d="M204.8 102.4c-56.6 0-102.4 45.8-102.4 102.4 0 56.5 45.8 102.4 102.4 102.4 56.5 0 102.4-45.9 102.4-102.4 0-56.6-45.8-102.4-102.4-102.4zm0 170.7c-37.7 0-68.3-30.6-68.3-68.3s30.6-68.3 68.3-68.3 68.3 30.6 68.3 68.3-30.6 68.3-68.3 68.3z"/></svg>