<svg xmlns="http://www.w3.org/2000/svg" viewBox="0 0 512 512" xmlns:v="https://vecta.io/nano"><path d="M281.4 297.4c-19.8-22.4-38.3-162.3-39.6-169.2-12.6-80.3-53.8-93.5-86.2-90.4-40 3.8-93.3 59.7-150.2 109.9-6.3 5.6-7.2 15.1-2.1 21.8l22.6 29.2c5.2 6.8 14.9 8.3 21.8 3.3 19-13.4 27-17.9 30-19.5 42.2 14.1 43.3 297.8 154 297.8 109.7 0 359.7-312.9 255.7-424.1-39.8-42.6-167.3-46.2-212 99.9-4 13.1 9.4 24.9 21.8 19.3 9.7-4.3 19.4-6.5 29-6.5 14.2 0 15.2 5.3 16 9.2 6.5 33-42.8 106.2-60.8 119.3zm93.3-113.6c0-13.8-4-25.1-11.8-33.3-10.4-10.9-27.5-15.1-46.6-13.1 38.3-86.1 125-83.7 147.8-59.3 74.9 80.2-139.5 370.2-232.3 370.2-82.5 0-74.8-298.1-155.6-298.1-5.4 0-11.1 1.3-34.2 16.9l-4.2-5.4c32.5-29.3 94-89.5 120.9-92 52-5.2 50.9 72.1 53.7 77.3 20.4 137.4 37.8 183.7 68.7 183.7 32.3 0 93.6-96.1 93.6-146.9h0z"/></svg>