<svg xmlns="http://www.w3.org/2000/svg" viewBox="0 0 1732.6 25.7" fill="#47aad5" xmlns:v="https://vecta.io/nano"><path d="M1614.6 22.5c-.4-.3.5-1.6-1.9-1.5.1-.4-2.1 1.2 1.9 1.5zm-46.3-5.5l5.8 1.4-.7-.6-5.1-.8zm-7.8 1.7l-3-1.9-1.1.5c-6.6.8-16.4-1.9-19.9.5 5.7-.6 16 .6 24 .9zm-39.8 4.2c.3-.1.5-.2.8-.2-8.8-.5-3.4-.6-4.6.3 1.3-.1 2.5-.1 3.8-.1h0zm-16.7 1.4c-1.7-.4 2.9-.5 3.9-1.1l-5.1-.8c-3 .9-4.1 1.4 1.2 1.9zm-3.4-3.3l-2.6-.4c1.4.7 2.1.6 2.6.4z"/><path d="M1503.2 21.3c-1.8-1.4-1.8-.6-2.6-.3l5.6.7c-2.4-.5-3.5-1.2-3-.4zm7.6-1.6c5.1.8 1.4 1.1-1.4 1.7 9.8.3 11.2-1.4 1.4-1.7zm31-4.2l-3.3-.8-3.8.7c-.2.7 5.5-.3 7.1.1zm-64.9 6.7l-3.8-.6c-.4.6-2.4 1.5-2.1 2 .3-.7 3.9-1.1 5.9-1.4h0z"/><path d="M1467.5 20.7l5.6.9c.3-.6-.6-1-5.6-.9zm27.8-2.7l11.1 1.8-9.4-1.8h-1.7zm-48.3 5.1l5.7 1.8-3.2-1.2-2.5-.6zm-22.8.8c3.1.9 6.6 1.5 10.2 1.8-2.5-.6 3.1-1.3.7-2.2-3.4.7-7.2.9-10.9.4z"/><path d="M1424.2 23.9l-5-1.1c1.6.6 3.3.9 5 1.1zm31.4-2.9l-2.2 1.4c1.8-.1 3.5-.7 4.4-1.4h-2.2z"/><path d="M1450.8 21.1l4.8-.1h.1l-4.9.1h0zm7-.1h.6c-.2-.2-.3-.1-.6 0zm20.9-4.6c-6.7 1.2.2 2.1 3.5 2.9-4.9-1.2-1.1-1.9-3.5-2.9zm-11.1 3.8c-1.6-.4-.6-.9-.4-1.3l-6 .3 6.4 1zm-8.7-.9l2.2-.1-2.9-.5.7.6zm-27.7 1c-3.5 0-6.9.1-10.3.4 2.9 0 5.9.2 8.6.8 3.7.1 2.2-.7 1.7-1.2zm10.5.7c.2 0 .4 0 .6.1 0-.2-.3-.2-.6-.1zm-51.7-.3c0-.1-.1-.2-.1-.2l-.5.3.6-.1z"/><path d="M1431.2 20.3l6.2.2c-1.6-.6-3.7-.7-5.6-.5-.8 0-.8.1-.6.3zm-16.3 1.1l-4.5.8c.5.4 3.2-.3 4.5-.8zm26.3.1c-.1 0-.3 0-.4-.1-.4.3-.5.4.4.1z"/><path d="M1441.7 21l-4.3-.5c1.1.4 2.2.7 3.4.9l.9-.4h0zm-61.4-8.1l-6.9-.9c-1.7 2.4 11.5 3.2 8.3 4.8 3.8-.7 2.4-1.8 10.2-1.2 5 1.2-6.1 2.2-8.1 2.9 5.9.8 5.9 1.3 6.1 1.9 5-2.4 8.8-6.8 3-7.8-5.8 1.4-12.6.2-13.1-1.1-1.9.5.6 1.1.5 1.4h0z"/><path d="M1402 20.6l-12 .2c.3.4 1.1.9 5.2 1.6 2.6-.9 5.4-1.5 8.4-1.8l-2.4-.2.8.2z"/><path d="M1403.6 20.5l11.6.8h0c0-.1-.1-.1-.1-.2-1-.2-3.9-.2-.5-.5.2.2.4.3.5.5h.2c.6-.1.4 0-.1.2h0-.1c-.1 0-.2.1-.3.1l6-.7c-2.1 0-4.2-.2-6.2-.4 8.3-.8-6.5-2 5-1.6-4.3-.6-2.1-1.7-9.3-1.8-3.6 1.6 2.3 2.2 4.2 3.6a99.08 99.08 0 0 0-10.9 0h0zm68.6-6.8c0-.1.1-.3.4-.3-1.4 0-1.2.1-.4.3zm-10.1 4c-.8-.2 5.2-2 9.8-2.5l.8.2c5.2-.7 1.1-1.3-.6-1.7-.1.5 2.3.7-.1 1.2-1.5.1-3.1-.1-4.3-.6-2.3.8-4.2 2-5.6 3.4zm-26.2-1.9l.2-.7-4.9 1.2 9.6.7c-.6-.6.5-1.5-4.9-1.2zm-51.9 5.1l5.6 2.1-1.3-1.5-4.3-.6zm-11.1.9l3.3.8-.5-1.3-2.8.5zM667.1 4.6l2.8.4c-.9-.2-1.8-.4-2.8-.4zm23.8.9l-.5-.6c-.8 0-.5.2.5.6zm370.7 15.9l-1.3 1.4c-.5 1.5 4.1-.4 8.2-1.7-2.2.4-4.6.5-6.9.3zm-199.4-7.9l-2.8-1.4-1.2.4 4 1h0zm-12.4-6l5.4-.9c-1.8.1-3.6.5-5.4.9zm-295-5.6l3.3 1.5c-.4-.7 1.9-1.5-3.3-1.5zm684 19.7c3-.1 6-.4 8.9-.9-1.2-1.1-4.6.1-8.9.9zm-563.2-2.2c0 .3.7.6 2.4.9.3-.4-.7-.7-2.4-.9z"/><path d="M1238.8 21.6c-2.8.1-5.6-.1-8.4-.3l-1.9.3c3.3.8 7.1.8 10.3 0zM151.6 4.8c.3-.1.6-.1.9-.2-.6 0-1 0-.9.2zM39.2 19.3c-1.6 0-3.2 0-4.9-.1 1.6.2 3.3.2 4.9.1zm1298.1-3.8c.1.3.5.6 1.1.7-.6-.1-1-.4-1.1-.7zm-135.4-2.9h.2c.4-.2.6-.2-.2 0zm124.1 9.1c1.2-.1 2.3-.2 3.4-.4-1.1.1-2.2.2-3.4.4z"/><path d="M1331.2 21.8l-2.3.1c2.4.3 2.7.2 2.3-.1zm-5.7.1c-.1 0 .1-.1.6-.2l-4.3.1 3.7.1h0zM369.3 8.6c.2-.1.4-.1.6-.1-2.1-.4-3.3-.5-.6.1zm630.1-2.3l.4-.1c-.1 0-.2 0-.3-.1l-.1.2z"/><path d="M996.3 10.4l3.2-4.2c-3.1.4-5.4.6-9.4-1.2l6.2 5.4zM628.8 4.8c-8.8 1.9-17-.5-21.8-1.7-3.3.6 2.6 3.4-6.9 2.6-13.5-.9 2.6-3.3-5.5-3.8l-5.9 2.3c-10.3-1.8-18.1-.2-26.8.1-1.3-.1-2.4-.3-3.4-.7-9.3 1-19.5-2.3-26.5-1.5 1.6.5-4 1.5-4.8 2l-12.6-1.4c5.6.6 5.3 2 6.4 3.3-4-.1-5.8-.9-8.5-1.1 1.6.5 3.3 1 1.2 1.6l-13.3-2.2c1.1-.2 2.3-.4 3.6-.4-3.3 0-10.5-.9-15.2.2.4.5 2.1 1 2.5 1.5 4-1.5 6.2-.2 8.3.8-9.2-.2-2.3.3-6.7 1.3-6.5-.1-9.1-1.8-7.4-3-7.3.5-9.6.9-17.1-.5l1.4 1.8-6.8-.6 5.5 2.2c-13.1 1.2-2.4-3.1-17-2.1v1.6c-5.6-.6-7.5-3.3-11.9-1.4-5.4-1 9.3-2.3-3.5-2.6-3.4.9-7 1.5-10.8 1.8-4.1-.7 3.1-1.9 5.7-1.7-19.3-.8-12 5.5-29.2 3.4 5.9-1.2-4.9-3.1 9.1-3.1-6.7-1-13.2 2.3-20.1.6l4.5 2c-2.3-.1-4.6-.4-6.7-1l.6 1.6c-8.6-2.8-16 1.3-21.1-2.3 3.6 2.9-6.4-.2-9.8.9 7.1 2 20.3-.1 21.2 2.6-3.5 1.1-6.5-.2-9.6.5 2.3.3 4.4.9 6.3 1.6-10.9 1.5-17.1-1.6-23.7-2.3l11.7.6c-.9-2.6-5.2-.4-8.5-2.5-5.8 1.4-10.4-.6-15.1.2 1.3 0 1.4.2 2.6.2-12.7-.1-16.2 4.2-21.3 4.3-5 .3-14.4-1.1-11-2.2-4.1-.7 16.9.8 9.6-2.6-7.3 4-14.9-1.5-30.7 1.2 6.9 1.4-4.1 2.2 2.1 3.3-7.5-.3-7.8-.9-11.2-2l-2.3 1.2c-9.8-2.8-2.3-2.4-17.2-3.9 5 1-6 1.8-2.2 2.7-3.8.1-7.7-.2-11.2-1l.5.2c-15.1-.6-12.3 1.6-26.1.2l1.4-.7c-18-2-40.7-.7-59.4-1.6l6.6-.6c-2 .4-12.5-1.2-18.3 0 1.4.2 2.8.3 4.2.3-.2.8-2.4 2.1-6.9 2.3L148.1 6l-1.8 1c-6.8 0 2-1.8-4.8-1.8-4 3.7-29.4.5-35.3 3.7-4.6-2.6 12.9-.4 7.8-2.8a34.72 34.72 0 0 1-7.4 1.1l1.5-1.6c-20.5.8-28.4 2.2-46.8 1.8l.7.3c-6.5.6-10.1.3-13-1-1.4.7 3.4 1.1.8 1.8-11.5-4-23 3-30.1.1.9 3.2-14.1 6.2-7.9 8.7L7.2 17c1.6 2.1 14.8 0 17.6 2.2L39.7 17c-.5.8 2 2-.4 2.2 3.7 0 6.9.2 2.1 1.3 35.6-5.4 72.2-.2 107.2-3 2.4.2 1 .9.1 1.4 6.5-2 6.2 1.1 9.7 1.3l9.4-2.9c3.8.9.8 1.8 1.1 2.4 17.9.6 35.3-2.3 49.8-.5 4.6-1.1-1.1-2.4 5-2.7-8.3 3 17.7 1.4 12.5 3.5 5.9-3.2 21.9-.7 19.2-5.1 7.3-.3 6 1.9 3.9 2.3 8.4-.2 15.3-.2 22.2 1.2 4.6-1 38.6 1.1 46.1-2.2-5.1 2.2.4 1.1 5.3 2.1l-4.5 1.9 11.1-.2c2.3.2 2.9.1 2.9-.1 1.9-.1-.4-1.1 4.3-1.6 7.6-.1 7.9.9 12.1 1.9l-1.2.3 5.1.2c3.8-.1-13.4-1.9-1-2.9.2.5 7.4 3.1 10.7 1.7-6.3.1-5.5-1.2-3.2-1.8l8.8-.1-2.9 2.4c25.3-.1 51.7-1.9 78.7-1.7-.4-2.1 19.1-.1 16.7-3.2l-1 .3c-6.6-.3 1.9-2.5 7.3-2.1-5.7 1 10.1 3.1-3.6 3.6l10.6 1.5c5.9 6 28.3-.5 44.4 1.4-.7-.1-1.3-.4-1.6-.7 14.3 1.9 32.1-1.6 35.4-.7l1.3-1.6c12.2 2.5 13.7 2.8 28.3 1.7-.2-.3-1.9-.7.4-1.1 3.5 1.2 7 2.4 17 2.1l-.4-.5 15.6.3c-.1-5.1 26.8 3.1 31.5-2.4 3.1 1.5 14.5 2 19.6 2.7 0-.2.3-.4 1.2-.7 6 2.7 17.3-.9 24-.5 4.3.7 2.5 1.5.6 2.4 8.6-2.2 23.6 2.4 26.8 1.5 6.3-.2 2.3-2 4.1-3.1 9.3.5-1.6 4.6 11 2.6-1.5-.2-4.1-.4-3.1-.7 4.8-.4 13.3-6.3 18.1-5.1l-3.1.9c8.7 1.3 20.6-4.1 22-.7l-.8 1.6c15-2.1 6.4.6 21.6-1.2l-.2-.3c6.6.3 10.2-1.7 13.5.9l-2.3.3c5.8.1 11.6.1 17.4-.1 1 .2 5 .6 6.2.1.4 2.1 19.5 1 23.2.9-6.6-.3-3.5-1.2-1.6-2.1 3.9 1.7 6.6 1.9 12 .7.8 2.7 1.9 5.5 12.6 5.6-1.7-.4-4.3-.6-3.2-1.2 1.1-.5 3.6 0 4.4.2 1.1-.5-2.4-1-1.2-1.9 7.2 2.5 12.5.2 23 1.1-3.3-.8-.5-1.3.7-2.2.8 3 14.3-2.6 10.3 1.3 20.5-2.3 52.1-.2 60.1-2.7 2.2-1.1 7.9.7 11.4.7l-.5-1.3c10 2.4 7.8.9 19.5 3.3-4.9-1.6-2.8-2.3 2.1-3.5l8.1 2.7 1.6-2c3.3.8 7 .5 10.7.2-1.8 0-.8-.2-.7-.6 1.8 2.8 16.2 2.5 18.4 3.8 3.6-2.8 9.7.7 12.3-1.9 1.4.4 2.8.7 4.4 1-1.7 1.2-2.4 2.6.9 2h.8l1.4-1.6c2.9.3 5.9.5 8.9.6-1.2.2-2.3.5-3.4.8 1.4-.2 2.7-.5 4-.8h1.2c-.2-.1-.5-.1-.7-.1 2.2-.5 4.8-.5 7 0 11.6-2.5 25.8 3.4 38.6 0-1.9.3-4.6.5-5.4-.1 10.7.2 21.3-2.1 28.1-.9l-.5 1.5c6.7.7 13.4 1.1 20.2 1.1l.3 1.7c9.2-.6 28.9 2.1 34.5-1.4 2.2 1.3 12.7-.4 17.9.1l1.3-1.3c5-.3 10.1-.2 15.1.4 13.8-2.7 26.6 0 38.7-.2l.1-.4 12.2.9c-3.2-1.2 2.4.8 6.1.5 4.9.5 10.1.4 14.8-.5l7.8-.1c-8.7-.9.6-1.9 1.1-3.4l5 1.2c2-.7-3.2-1.2.5-1.5 3.3.8 13.2.8 16.3 2.3-.8.5-1.9.8-3.2 1-.4-.1-.4-.1-.1 0-.1 0-.2.1-.3.1h.4c.5.2 1 .4 1.4.6 6.2-.3 3.9.3 3.7 1 7-2.3 11-.8 16.4-3.5-7.3 3.1 16.2 0 11.6 3 5.2-2.4 3.6-.1 7-2.1-7.4.6-14.7-1.5-20.7-2.5l5.8-1.4c-3.8-2.7-13.1 1-16.6.1 2.3.6 7.6 0 7.8-.6l-1.6 2c-8.3.8-15-.8-20.9-1.8 5.6-.7-6.8-1.2-2.7-2.7l4.4.3c2-.7-2.3-1.3-4.7-1.9-14 1.5-39.6.2-44.6 1.8 3.6-.4 7.3-.2 10.6.5l-6.6.8c5.3.1 9.5-1.7 17.4-1.1-1.3 1.3 4.4 3.1-1.6 4.9-15 2-12.4-3.4-30.5-2.9-1.7-.4 3.8 2.1-5.9 1.4-12.1-1.3-21-4.2-21-7.1 5.1.8 15.3 2.5 16.9.4-5.1-.8-13.9-1.3-14.4-2.6-5.3 2.4 9.6.7 2.7 2.7-2.4-.1-4.8-.5-6.8-1.2 2.4 1-3.2 1.6-4.3 2.2-11.6 0-18.3 1.1-30.7 1.3-.7.3-2 1.1-1.7 1.7-6.1-.6-14.7-4.2-12.5-5.6-7.1-.1-7.5 1-13.6.4 9.7-2.1-1.9.4-2.9-1.9-6.2-.3-2.2 1.1-5 1.6-1-.2-3.5-1-3.7-1.6-3.8 1.7 7.4 4.5 2.9 6.5-3.1 1.3-16.4 3.5-17.4 3.7-3-1.9-2.1-9.8 2.3-12.4-.5-1.3-5.9 1.4-8.6 1.6-7.9 2.1-12-1.7-18.6-.8l5 1.2c-1.1.5-10.7-.2-12.3-.9-.2.7 5 3.8 2 4.7-11.8.4-22.9-3.7-22.2-6l18.1 2.3c.6-1.9-12.8-1.9-12.1-4.1l-16.6.7c2.1.1 8.5.6 6 1.6-7.1-.1-3.7.3-8.5 1.2 10.3 3.3 19.8 7 28.5 11.3l-8.6-1.2-2.1 1.1c-11.2-1.5-21.3-8.8-24.2-10.7-6.4.5-4.2 4.5-2.6 5.2-12.6.2-12.5-5.6-25.2-5.1l4.8-.9c-3-.4-13.9.4-12.8-.3-2.5 1.1-4.8 3.6-2 4.2l-11.3-3.7c1.7.4.6 3.6 1.3 4.2-4.5.1-7.7-3.7-4.9-4.2-8.8 2.3-6.7 1-13.8 3.8-2.6-.2.2-3.4 2.2-3.7-4-.6-8.2-.7-12.2-.1 9.8 1.4 2.7 7.2 4.5 9.6l-21-9.5a12.54 12.54 0 0 1 2.3 4c-1.8-2.8-25.8-3.2-37.6-2.8h1.8c2.4 1-7.7 1.8-11.9.8.7.6 1.7.4 3.4.4-7.9 2.1-10.2-4.3-18.2-1.8 7.3-.3 8.7.9 8.3 2-6-1-19.8.1-16.9-3.2-3.8.7-7.3.3-6.9 2l-14.6-2c1.1.3 2 1.3-2.3 1.6 8.2-.4 16.2 2.7 20.5.5.2 2.1-2.9 3.2 1.1 4.9-15.8-1-24.5-4.5-34.5-6.9L863.4 8l-.6-.9-2.4 2.4c-1.7-.5-2.9-1-3.2-.8s.1.5.8.9c-1.2-.1-2.4-.3-3.5-.6-.5 1.2 1.9 2.7 4.5 4 1.3-.4 2.5-.9 3.8-1.3 2.7 1.2 4.7 2.4.9 3.2-.5-.2-1.2-.3-2-.5 1.7.9 2.8 1.6 1.5 2l-10.7-1.1c1.8-.5 3.5-1.1 5.1-1.8-6.7-1.6-14.3-3.4-8.3-5l-8.1 1.4c-9.5-2.4-7.9-1.9-19.5-3.6-.6.8 2.5 1.5.4 2.1-8.5-2.7-20.7 3.1-22.5.8-6.8-.6-2.9-2-7.2-2.7.2.3.6.8-.6.8l-5.2-1.7c-2.1.6 4.8 1.2-1.1 1.9-10-1.3-15.8-2.1-24.1-1.3-11.8-.4 5.1-3.4-4.9-3-1.5 1.4-2.8 3-9 3.3-3.3-1-2.9-2-8.5-2.7l.4 2.1c-5.2-.1-9.3-.5-9.4 1.1-2.9-.7-6.3-.9-9.4-.4-7.9-1.1 5.8-4.3 7.6-5.2-7.2.6-12.6-.3-17 2.2l6.8.6c-14.6 2.6-13.9-3-20.6 1.5 5-.2 11 1 8.1 2.1l-7.3-1.1c-.9.6 4.1.4.8 1a70.57 70.57 0 0 1-8.2-2.3l.1.1-13.1-.4c2.5-.1 3.1.7.6.8l-8.6-1.1c2.6.5-.1 1.2-3.9 1.5-11.1.6-8.8-4.8-17.4-2.6 1.2 0 1.5.2 2.7.2l-4.4 1c-.9-4.5-26-.5-26.9-5-6.3 1.8-.4 1.1 7.6 3.2l-6.7 1.3c2.8.3 5.1 0 8 .4zm92.1.8c-3.3.5-5 1.4-7.2-.4 1.4-1 5.3 0 7.2.4zm152 3.8c-2 .4-4.1.5-6.2.3 2.5-.5 4.8-.8 6.2-.3zm423.3 11.1c.1 0 .1.1.2.1-3 .3-4.6.6-.2-.1zm9.2-.6c-2.7-.4-3.8-.1-4.5.3 2.3-.1 4.3-.1 4.9.3.4-.1.4-.4-.4-.6h0zm-963.9-.6c-1.1-.5-2.2-.9 1.8-.4l-1.8.4h0z"/><path d="M854.8 8.1c.1-.3.4-.6.8-.9-1.5.3-1.5.6-.8.9zM558.1 3.4l.3.3h.3l-.6-.3zm604.6 3.7c1-.4 2.3-.7 3.6-.8-2.8.1-3.7.4-3.6.8zm189.6 14.6a17.69 17.69 0 0 1-5.2.5l5.8.4c-1.8 0-.7-.5-.6-.9zm52.9-8l.2-.7c-.8-.2-1.8 0-2.6-.2-3.7.2-1.2.8 2.4.9zm-39.6 3h.7c-4-.2-7.6-.7-8.1.6 4.3.6 8.6 1.3 7.4-.6zm5.4 0c-1.2.1-2.5 0-3.7 0 2.2.2 4.1.8 3.7 0zm-52 5.3c-1.1.6-.4-1.5-2.3-1.2-10.4-.9 4.4 2.9 2.3 1.2zm38.8-8.8l2.3 1.3 1.4-1.7-3.7.4zm-20 1c-1-.1-1.8-.3-1.7-.6l-6.4.5c-.2.5 4.2.1 8.1.1z"/><path d="M1343 14.5c-1.7-.3-3.4-.4-5.2-.3 1.8.2 3.5.3 5.2.3zm3.2-1.7l4.5-.1 1.9-.3-6.4.4zm-88.9.4c-2.6-.2-4.5.1-3.8.7l7 .5c1.1-.5-1.5-.8-3.2-1.2h0zm21.2-4.2l.2 2.1c1.1-.6 1.2-.9 3.1-1.3l-3.3-.8zM1260 7.8c-8.9-.1.6.9 1.3 1.5 6.4-.4-.6-.9-1.3-1.5zm-103 7.6l.3-3.4h-1.8l1.5 3.4zm-89.5-8.9c-2-.7 6.1-.7 4.1-1.5-7.5 1-1.2-1.9-9.5-1.1-2.2 2.2.4 1.7 5.4 2.6h0z"/><path d="M1070.1 7c-.8-.2-1.7-.4-2.6-.5.8.2 1.7.4 2.6.5zM12.8 20.6l-3.5 1.1 5.4-.7-1.9-.4zM0 18.7l3.2 2 1.3-2.2c-.9.5-3.3.3-4.5.2zM731.6 2.4c2.5-.1 3.8-.1 4.6-.7l-.4-.5-4.2 1.2zm-69.5 2.3l2.3-2h-1.2l-1.1 2zM610.2.6c-2.5.1-5.4-.4-7.9-.3-.7 2.5 2.4 0 7.9.3z"/></svg>