<?xml version="1.0" encoding="utf-8"?>
<!-- Generator: Adobe Illustrator 25.4.1, SVG Export Plug-In . SVG Version: 6.00 Build 0)  -->
<svg version="1.1" id="Layer_1" xmlns:v="https://vecta.io/nano"
	 xmlns="http://www.w3.org/2000/svg" xmlns:xlink="http://www.w3.org/1999/xlink" x="0px" y="0px" viewBox="0 0 2536 41.7"
	 style="enable-background:new 0 0 2536 41.7;" xml:space="preserve">
<style type="text/css">
	.st0{fill:#47AAD5;}
</style>
<g>
	<path class="st0" d="M2311.3,31.2l-5.1-0.8c-3,0.9-4.1,1.4,1.2,1.9C2305.7,31.9,2310.3,31.8,2311.3,31.2z"/>
	<path class="st0" d="M2301.4,28.6c1.4,0.7,2.1,0.6,2.6,0.4L2301.4,28.6z"/>
	<path class="st0" d="M2416.1,29c0.1-0.4-2.1,1.2,1.9,1.5C2417.6,30.2,2418.5,28.9,2416.1,29z"/>
	<polygon class="st0" points="2371.7,25 2377.5,26.4 2376.8,25.8 	"/>
	<path class="st0" d="M2320.3,31c1.3-0.1,2.5-0.1,3.8-0.1c0.3-0.1,0.5-0.2,0.8-0.2C2316.1,30.2,2321.5,30.1,2320.3,31z"/>
	<path class="st0" d="M2359.8,25.3c-6.6,0.8-16.4-1.9-19.9,0.5c5.7-0.6,16,0.6,24,0.9l-3-1.9L2359.8,25.3z"/>
	<path class="st0" d="M2314.2,27.7c5.1,0.8,1.4,1.1-1.4,1.7C2322.6,29.7,2324,28,2314.2,27.7z"/>
	<path class="st0" d="M2306.6,29.3c-1.8-1.4-1.8-0.6-2.6-0.3l5.6,0.7C2307.2,29.2,2306.1,28.5,2306.6,29.3z"/>
	<path class="st0" d="M2274.4,31.6c0.3-0.7,3.9-1.1,5.9-1.4l-3.8-0.6C2276.1,30.2,2274.1,31.1,2274.4,31.6z"/>
	<path class="st0" d="M2345.2,23.5l-3.3-0.8l-3.8,0.7C2337.9,24.1,2343.6,23.1,2345.2,23.5z"/>
	<path class="st0" d="M2270.9,28.7l5.6,0.9C2276.8,29,2275.9,28.6,2270.9,28.7z"/>
	<path class="st0" d="M2238.5,31.5c-3.4,0.7-7.2,0.9-10.9,0.4c3.1,0.9,6.6,1.5,10.2,1.8C2235.3,33.1,2240.9,32.4,2238.5,31.5z"/>
	<polygon class="st0" points="2250.4,31.1 2256.1,32.9 2252.9,31.7 	"/>
	<polygon class="st0" points="2300.4,26 2298.7,26 2309.8,27.8 	"/>
	<path class="st0" d="M2227.6,31.9c-1.6-0.4-3.3-0.8-5-1.1C2224.2,31.4,2225.9,31.7,2227.6,31.9z"/>
	<path class="st0" d="M2270.6,26.9l-6,0.3l6.4,1C2269.4,27.8,2270.4,27.3,2270.6,26.9z"/>
	<path class="st0" d="M2282.1,24.4c-6.7,1.2,0.2,2.1,3.5,2.9C2280.7,26.1,2284.5,25.4,2282.1,24.4z"/>
	<path class="st0" d="M2261.2,29h0.6C2261.6,28.8,2261.5,28.9,2261.2,29z"/>
	<path class="st0" d="M2259,29L2259,29l-4.8,0.1L2259,29l-2.2,1.4c1.8-0.1,3.5-0.7,4.4-1.4H2259L2259,29z"/>
	<path class="st0" d="M2192.8,28.8l0.6-0.1c0-0.1-0.1-0.2-0.1-0.2L2192.8,28.8z"/>
	<path class="st0" d="M2245.1,29c0.2,0,0.4,0,0.6,0.1C2245.7,28.9,2245.4,28.9,2245.1,29z"/>
	<path class="st0" d="M2232.9,29.5c3.7,0.1,2.2-0.7,1.7-1.2c-3.5,0-6.9,0.1-10.3,0.4C2227.2,28.7,2230.2,28.9,2232.9,29.5z"/>
	<polygon class="st0" points="2262.3,27.3 2264.5,27.2 2261.6,26.7 	"/>
	<path class="st0" d="M2218.3,29.4c-1.5,0.2-3,0.5-4.5,0.8C2214.3,30.6,2217,29.9,2218.3,29.4z"/>
	<path class="st0" d="M2244.6,29.5c-0.1,0-0.3,0-0.4-0.1C2243.8,29.7,2243.7,29.8,2244.6,29.5z"/>
	<path class="st0" d="M2235.2,28c-0.8,0-0.8,0.1-0.6,0.3c2.1,0,4.1,0.1,6.2,0.2C2239.2,27.9,2237.1,27.8,2235.2,28z"/>
	<path class="st0" d="M2187.2,26.5c5.9,0.8,5.9,1.3,6.1,1.9c5-2.4,8.8-6.8,3-7.8c-5.8,1.4-12.6,0.2-13.1-1.1
		c-1.9,0.5,0.6,1.1,0.5,1.4l-6.9-0.9c-1.7,2.4,11.5,3.2,8.3,4.8c3.8-0.7,2.4-1.8,10.2-1.2C2200.3,24.8,2189.2,25.8,2187.2,26.5z"/>
	<path class="st0" d="M2244.2,29.4c0.2-0.1,0.5-0.2,0.9-0.4c-1.4-0.2-2.8-0.4-4.3-0.5C2241.9,28.9,2243,29.2,2244.2,29.4z"/>
	<path class="st0" d="M2205.4,28.6l-12,0.2c0.3,0.4,1.1,0.9,5.2,1.6c2.6-0.9,5.4-1.5,8.4-1.8l-2.4-0.2L2205.4,28.6z"/>
	<path class="st0" d="M2218.5,29.1c-1-0.2-3.9-0.2-0.5-0.5C2218.2,28.8,2218.4,28.9,2218.5,29.1c0.1,0,0.2,0,0.2,0
		c0.6-0.1,0.4,0-0.1,0.2h-0.1c-0.1,0-0.2,0.1-0.3,0.1c2-0.3,4-0.5,6-0.7c-2.1,0-4.2-0.2-6.2-0.4c8.3-0.8-6.5-2,5-1.6
		c-4.3-0.6-2.1-1.7-9.3-1.8c-3.6,1.6,2.3,2.2,4.2,3.6c-3.6-0.2-7.2-0.2-10.9,0l11.6,0.8C2218.6,29.2,2218.5,29.2,2218.5,29.1z"/>
	<path class="st0" d="M2275.6,21.7c0-0.1,0.1-0.3,0.4-0.3C2274.6,21.4,2274.8,21.5,2275.6,21.7z"/>
	<path class="st0" d="M1479,27.4c0,0.3,0.7,0.6,2.4,0.9C1481.7,27.9,1480.7,27.6,1479,27.4z"/>
	<path class="st0" d="M1358.2,9.9l3.3,1.5C1361.1,10.7,1363.4,9.9,1358.2,9.9z"/>
	<path class="st0" d="M2265.9,25.3c-0.4,0.2-0.5,0.3-0.4,0.3C2265.6,25.6,2265.8,25.5,2265.9,25.3z"/>
	<path class="st0" d="M2276.1,23.4c5.2-0.7,1.1-1.3-0.6-1.7c-0.1,0.5,2.3,0.7-0.1,1.2c-1.5,0.1-3.1-0.1-4.3-0.6
		c-2.1,0.7-3.9,1.8-5.2,3.1c1.4-0.6,5.8-1.8,9.4-2.2L2276.1,23.4z"/>
	<path class="st0" d="M2239.3,23.8l0.2-0.7l-4.9,1.2l9.6,0.7C2243.6,24.4,2244.7,23.5,2239.3,23.8z"/>
	<path class="st0" d="M1473.3,13c-0.9-0.2-1.8-0.4-2.8-0.4L1473.3,13z"/>
	<polygon class="st0" points="2176.3,29.8 2179.6,30.6 2179.1,29.3 	"/>
	<polygon class="st0" points="2187.4,28.9 2193,31 2191.7,29.5 	"/>
	<path class="st0" d="M842.6,27.3c-1.6,0-3.2,0-4.9-0.1C839.3,27.4,841,27.4,842.6,27.3z"/>
	<path class="st0" d="M2005.3,20.6h0.2C2005.9,20.4,2006.1,20.4,2005.3,20.6z"/>
	<path class="st0" d="M2126.6,29.8l2.3,0.1c-0.1,0,0.1-0.1,0.6-0.2C2128.6,29.7,2127.6,29.8,2126.6,29.8z"/>
	<path class="st0" d="M1744,17.4c-1.2-0.1-2.3-0.2-3.2-0.4C1741.5,17.6,1742.4,17.4,1744,17.4z"/>
	<path class="st0" d="M1802.8,14.3l0.4-0.1c-0.1,0-0.2,0-0.3-0.1L1802.8,14.3c-3.1,0.3-5.4,0.5-9.3-1.3l6.2,5.4L1802.8,14.3z"/>
	<path class="st0" d="M1744,17.4L1744,17.4c0.1,0,0.1,0,0.2,0C1744.1,17.4,1744.1,17.4,1744,17.4z"/>
	<path class="st0" d="M2152.3,26l5.8-1.4c-3.8-2.7-13.1,1-16.6,0.1c2.3,0.6,7.6,0,7.8-0.6l-1.6,2c-8.3,0.8-15-0.8-20.9-1.8
		c5.6-0.7-6.8-1.2-2.7-2.7l4.4,0.3c2-0.7-2.3-1.3-4.7-1.9c-14,1.5-39.6,0.2-44.6,1.8c3.6-0.4,7.3-0.2,10.6,0.5l-6.6,0.8
		c5.3,0.1,9.5-1.7,17.4-1.1c-1.3,1.3,4.4,3.1-1.6,4.9c-15,2-12.4-3.4-30.5-2.9c-1.7-0.4,3.8,2.1-5.9,1.4c-12.1-1.3-21-4.2-21-7.1
		c5.1,0.8,15.3,2.5,16.9,0.4c-5.1-0.8-13.9-1.3-14.4-2.6c-5.3,2.4,9.6,0.7,2.7,2.7c-2.4-0.1-4.8-0.5-6.8-1.2c2.4,1-3.2,1.6-4.3,2.2
		c-11.6,0-18.3,1.1-30.7,1.3c-0.7,0.3-2,1.1-1.7,1.7c-6.1-0.6-14.7-4.2-12.5-5.6c-7.1-0.1-7.5,1-13.6,0.4c9.7-2.1-1.9,0.4-2.9-1.9
		c-6.2-0.3-2.2,1.1-5,1.6c-1-0.2-3.5-1-3.7-1.6c-3.8,1.7,7.4,4.5,2.9,6.5c-3.1,1.3-16.4,3.5-17.4,3.7c-3-1.9-2.1-9.8,2.3-12.4
		c-0.5-1.3-5.9,1.4-8.6,1.6c-7.9,2.1-12-1.7-18.6-0.8l5,1.2c-1.1,0.5-10.7-0.2-12.3-0.9c-0.2,0.7,5,3.8,2,4.7
		c-11.8,0.4-22.9-3.7-22.2-6l18.1,2.3c0.6-1.9-12.8-1.9-12.1-4.1l-16.6,0.7c2.1,0.1,8.5,0.6,6,1.6c-7.1-0.1-3.7,0.3-8.5,1.2
		c10.3,3.3,19.8,7,28.5,11.3l-8.6-1.2l-2.1,1.1c-11.2-1.5-21.3-8.8-24.2-10.7c-6.4,0.5-4.2,4.5-2.6,5.2c-12.6,0.2-12.5-5.6-25.2-5.1
		l4.8-0.9c-3-0.4-13.9,0.4-12.8-0.3c-2.3,1-4.4,3.2-2.6,4l-10.7-3.5c1.7,0.4,0.6,3.6,1.3,4.2c-4.5,0.1-7.7-3.7-4.9-4.2
		c-8.8,2.3-6.7,1-13.8,3.8c-2.6-0.2,0.2-3.4,2.2-3.7c-4-0.6-8.2-0.7-12.2-0.1c9.8,1.4,2.7,7.2,4.5,9.6l-21-9.5
		c1.1,1.3,1.8,2.6,2.3,4c-1.8-2.8-25.8-3.2-37.6-2.8h1.8c1.9,0.8-3.9,1.4-8.6,1.2c-7.9,2.1-10.2-4.3-18.1-1.8c7.3-0.3,8.7,0.9,8.3,2
		c-6-1-19.8,0.1-16.9-3.2c-3.8,0.7-7.3,0.3-6.9,2l-14.6-2c1.1,0.3,2,1.3-2.3,1.6c8.2-0.4,16.2,2.7,20.5,0.5c0.2,2.1-2.9,3.2,1.1,4.9
		c-15.8-1-24.5-4.5-34.5-6.9l-13.9,1.5l-0.6-0.9l-2.4,2.4c-1.7-0.5-2.9-1-3.2-0.8c-0.3,0.2,0.1,0.5,0.8,0.9
		c-1.2-0.1-2.4-0.3-3.5-0.6c-0.5,1.2,1.9,2.7,4.5,4c0.2-0.1,0.3-0.1,0.5-0.2l2.7,0.7l-1.9-0.9c0.8-0.3,1.6-0.6,2.5-0.9
		c2.7,1.2,4.7,2.4,0.9,3.2c-0.5-0.2-1.2-0.3-2-0.5c1.7,0.9,2.8,1.6,1.5,2l-10.7-1.1c1.8-0.5,3.5-1.1,5.1-1.8
		c-4.6-1.1-9.6-2.3-10.4-3.4c0.7-0.4,1.2-0.9,1.3-1.3c0.2-0.1,0.5-0.2,0.8-0.2l-0.8,0.1c0.1-0.5-0.3-1-1.5-1.5l3.3,0.2
		c-0.2,0-0.4,0.1-0.5,0.1l0.7-0.1l1.2,0.1c-0.1-0.1-0.2-0.2-0.3-0.2l3.8-0.6c-1.3,0.1-2.6,0.3-3.9,0.6c-2.6-1.6-14.6,0.2-17.2-1.9
		l-9.6,1.4c-0.8-0.1-1.7-0.2-2.7-0.4c-0.2,0.3,0,0.5,0.3,0.8l-2.8,0.4c0.5-0.8-2-2,0.4-2.2c-3.7,0-6.9-0.2-2.1-1.3
		c-9.4,1.4-19,2.1-28.5,2.4l-2.4-0.8c-1,0.3-0.1,0.5,0.7,0.8c-3.1,0.1-6.2,0.1-9.3,0.1c-5.9-0.7-10.6-0.9-16.5-0.3
		c-11.8-0.4,5.1-3.4-4.9-3c-1.2,1.1-2.3,2.4-6.1,3c-1.3,0-2.6,0-3.9-0.1c-2.3-0.9-2.5-1.7-7.5-2.4l0.4,2.1c-3.8-0.1-7-0.3-8.5,0.2
		c-3.8,0-7.6,0.1-11.3,0.3c-0.5-0.1-0.8-0.2-1-0.4c-1.9,0.4-3.2,0.5-4.8-0.8c0.9-0.7,3-0.4,4.8-0.1c1.6-1.4,8.5-3.1,9.7-3.7
		c-7.2,0.6-12.6-0.3-17,2.2l6.8,0.6c-13.2,2.4-13.9-2-18.9,0.5l-5.4,1.7c-1-0.3-2-0.6-2.9-0.9l-0.4-0.5c-0.8,0-0.5,0.2,0.5,0.6l0,0
		h-1.4c0.3-0.3,0.5-0.5,0.4-0.7c-6.1-0.2-12.2,0-18.1,0.3l-2-0.3c0.5,0.1,0.8,0.2,0.9,0.3c-3.9,0.2-7.8,0.4-11.6,0.6
		c-3.9-1.2-4.5-3.6-10.7-2c1.2,0,1.5,0.2,2.7,0.2l-4.4,1c-0.9-4.5-26-0.5-26.9-5c-6.3,1.8-0.4,1.1,7.6,3.2l-6.7,1.3
		c0.6,0.1,1.2,0.1,1.7,0.1c-0.1,0.1-0.2,0.1-0.3,0.2c0.1-0.1,0.2-0.1,0.3-0.2c2.1,0.1,4,0,6.3,0.3c-1.8,0.4-3.6,0.6-5.3,0.7
		c-1.3-0.2-1.9-0.4-1.3-0.8c-0.7,0.3-1.5,0.6-2.3,0.8c-5.2-0.3-9.8-1.6-12.9-2.3c-3.3,0.6,2.6,3.4-6.9,2.6
		c-13.5-0.9,2.6-3.3-5.5-3.8l-5.9,2.3c-10.3-1.8-18.1-0.2-26.8,0.1c-1.3-0.1-2.4-0.3-3.4-0.7l-0.4-0.2c0.1,0.1,0.1,0.1,0.2,0.2
		c-9.3,0.9-19.4-2.3-26.3-1.5c1.6,0.5-4,1.5-4.8,2l-12.6-1.4c3.4,0.4,4.6,1,5.3,1.8h-0.5c-2.3-0.2-2.9-0.1-2.9,0.1
		c-1,0.1-0.8,0.4-1.2,0.7c-0.9-0.2-1.8-0.3-2.8-0.4c0.9,0.3,1.7,0.5,2.1,0.8c-0.5,0.2-1.2,0.3-2.4,0.5c-0.2,0-0.3,0-0.4,0l-11.3-1.9
		c1.1-0.2,2.3-0.4,3.6-0.4c-3.3,0-10.5-0.9-15.2,0.2c0.1,0.2,0.4,0.3,0.7,0.5c-1.1-0.1-2.2,0-3,0.4c6.3-0.1,5.5,1.2,3.2,1.8h-3.1
		c-1.6-0.6-2-1.4-1.1-2.1c-0.8,0.1-1.5,0.1-2.2,0.2l0.5-0.4c-4.2,0-8.4,0.1-12.7,0.2c-0.8-0.1-1.7-0.3-2.7-0.5l0.4,0.5
		c-7.8,0.2-15.8,0.5-23.8,0.7c-1.6-0.5-3.1-0.6-5.1,0.2c-0.2,0-0.4,0-0.7,0c-4.2-1,9.3-2.2-3.1-2.5c-3.4,0.9-7,1.5-10.8,1.8
		c-3.8-0.6,2.1-1.7,5-1.7c-11.2-0.4-13.1,1.7-16.6,3c-2.9,0-5.8,0-8.7,0c0.1,0.3-0.3,0.5-0.9,0.7c-0.7-0.1-1.5-0.1-2.3-0.2
		c5.9-1.2-4.9-3.1,9.1-3.1c-6.7-1-13.2,2.3-20.1,0.6l4.5,2c-2.3-0.1-4.6-0.4-6.7-1l0.6,1.6c-5.3-1.7-10.1-0.8-14.3-0.7
		c-6.1-5.8-28.3,0.6-44.3-1.3c0.7,0.1,1.3,0.4,1.6,0.7c-11.4-1.5-24.9,0.4-31.7,0.8c-1,0-2.1,0-3.3,0c-0.2,0-0.3,0-0.5-0.1l-0.1,0.1
		c-1.8,0.1-3.7,0.2-5.8,0.6c-8.3-1.6-11.2-1.7-23.7-0.8c0,0.1,0.2,0.1,0.3,0.2c-1.5-0.2-3.5-0.4-6.4-0.7c0.2,0,0.4,0.1,0.5,0.1
		c-2.7-0.5-6.2-0.8-11.9-0.7l0.4,0.5l-15.6-0.3c0.1,4.3-18.8-0.8-27.7,0.7c-5-0.1-10.2-0.2-15.3-0.2c-3.1-0.3-6.1-0.5-8.1-0.8
		c0,0.2-0.3,0.4-1.2,0.7c-3.8-1.7-9.8-0.9-15.3-0.2c-0.9,0-1.9-0.1-2.8-0.1l6-0.5c-2.3,0.1-8.5-0.7-13.7-0.5
		c0.4-0.2,0.8-0.4,1.2-0.6c-8.6,2.2-23.6-2.4-26.8-1.5c-6.3,0.2-2.3,2-4.1,3.1c-9.3-0.5,1.6-4.6-11-2.6c1.5,0.2,4.1,0.4,3.1,0.7
		c-2.7,0.2-6.7,2.2-10.4,3.7c-0.6,0.1-1.3,0.1-1.9,0.1l1.5-1.6c-10.9,0.4-18.3,1-25.5,1.4l0.2-0.4c-1.8,0.3-3.3,0.4-4.5,0.6
		c-1.9,0.1-3.8,0.1-5.8,0.2c-1.4-0.2-2.6-0.4-7.4,0c-1.2,0-2.4,0-3.7-0.1l0.7,0.3c-5.9,0.5-9.4,0.3-12.2-0.7h0.4c-0.2,0-0.3,0-0.5,0
		c-0.2-0.1-0.4-0.2-0.6-0.3c-0.2,0.1-0.3,0.2-0.3,0.3c-5.3-0.1-10.7-0.1-16,0.1c-1-0.2-5-0.6-6.2-0.1c-0.4-2.1-19.5-1-23.2-0.9
		c6.6,0.3,3.5,1.2,1.6,2.1c-3.9-1.7-6.6-1.9-12-0.7c-0.8-2.7-1.9-5.5-12.6-5.6c1.7,0.4,4.3,0.6,3.2,1.2c-1.1,0.5-3.6,0-4.4-0.2
		c-1.1,0.5,2.4,1,1.2,1.9c-7.2-2.5-12.5-0.2-23-1.1c3.3,0.8,0.5,1.3-0.7,2.2c-0.8-3-14.3,2.6-10.3-1.3c-20.5,2.3-52.1,0.2-60.1,2.7
		c-2.2,1.1-7.9-0.7-11.4-0.7L679,16c-10-2.4-7.8-0.9-19.5-3.3c4.9,1.6,2.8,2.3-2.1,3.5l-8.1-2.7l-1.6,2c-3.3-0.8-7-0.5-10.7-0.2
		c-3.3-2.2-15.7-2-17.7-3.2c-3.6,2.8-9.7-0.7-12.3,1.9c-1.4-0.4-2.8-0.7-4.4-1c1.7-1.2,2.4-2.6-0.9-2c-0.2,0-0.4,0-0.6,0l1.1-1.2
		c0.5-1.5-4.1,0.4-8.2,1.7c2.1-0.4,4.5-0.5,6.7-0.3l-1.2,1.4c-2.9-0.3-5.9-0.5-8.9-0.6c1.2-0.2,2.3-0.5,3.4-0.8
		c-1.4,0.2-2.7,0.5-4,0.8c-0.4,0-0.8,0-1.2,0c0.2,0.1,0.5,0.1,0.7,0.1c-2.2,0.5-4.8,0.5-7,0c-11.6,2.5-25.8-3.4-38.6,0
		c1.9-0.3,4.6-0.5,5.4,0.1c-10.7-0.2-21.3,2.1-28.1,0.9l0.5-1.5c-6.7-0.7-13.4-1.1-20.2-1.1L501,8.7c-9.2,0.6-28.9-2.1-34.5,1.4
		c-2.2-1.3-12.7,0.4-17.9-0.1l-1.3,1.3c-4.7,0.3-9.4,0.2-14.1-0.3l0.6-0.1c-3.3-0.8-7.1-0.8-10.3,0c2.5-0.1,4.9,0.1,7.4,0.2
		c-4.5,0.8-8.9,1-13.2,1c1.6-0.2,3.6-0.8,5.9-1.2c-3,0.1-6,0.4-8.9,0.9c0.1,0.1,0.3,0.2,0.4,0.2c-7.4-0.2-14.6-1.1-21.5-0.9
		l-0.1,0.4l-12.2-0.9c3.2,1.2-2.4-0.8-6.1-0.5c-4.9-0.5-10.1-0.4-14.8,0.5l-7.8,0.1c8.7,0.9-0.6,1.9-1.1,3.4l-5-1.2
		c-2,0.7,3.2,1.2-0.5,1.5c-3.3-0.8-13.2-0.8-16.3-2.3c0.8-0.5,1.9-0.8,3.2-1c0.2,0,0.3,0.1,0.3,0.1c-0.1,0-0.1,0-0.2,0
		c1.1-0.1,2.2-0.2,3.4-0.4c-1.1,0.1-2.2,0.2-3.2,0.4c0,0-0.1,0-0.2-0.1c0.1,0,0.2-0.1,0.3-0.1c-0.2,0-0.2,0-0.4,0
		c-0.3-0.1-0.6-0.2-0.8-0.3l1.4-0.1c-1-0.1-1.6-0.2-2-0.2l0,0c-6.2,0.3-3.9-0.3-3.7-1c-6.7,2.2-10.7,0.9-15.8,3.2
		c5.2-2.6-16.7,0.2-12.2-2.7c-5.2,2.4-3.6,0.1-7,2.1c7.4-0.6,14.7,1.5,20.7,2.5l-5.8,1.4c3.8,2.7,13.1-1,16.6-0.1
		c-2.3-0.6-7.6,0-7.8,0.6l1.6-2c8.3-0.8,15,0.8,20.9,1.8c-5.6,0.7,6.8,1.2,2.7,2.7l-4.4-0.3c-2,0.7,2.3,1.3,4.7,1.9
		c14-1.5,39.6-0.2,44.6-1.8c-3.6,0.4-7.3,0.2-10.6-0.5l6.6-0.8c-5.3-0.1-9.5,1.7-17.4,1.1c1.3-1.3-4.4-3.1,1.6-4.9
		c15-2,12.4,3.4,30.5,2.9c1.7,0.4-3.8-2.1,5.9-1.4c12.1,1.3,21,4.2,21,7.1c-5.1-0.8-15.3-2.5-16.9-0.4c5.1,0.8,13.9,1.3,14.4,2.6
		c5.3-2.4-9.6-0.7-2.7-2.7c2.4,0.1,4.8,0.5,6.8,1.2c-2.4-1,3.2-1.6,4.3-2.2c11.6,0,18.3-1.1,30.7-1.3c0.7-0.3,2-1.1,1.7-1.7
		c6.1,0.6,14.7,4.2,12.5,5.6c7.1,0.1,7.5-1,13.6-0.4c-9.7,2.1,1.9-0.4,2.9,1.9c6.2,0.3,2.2-1.1,5-1.6c1,0.2,3.5,1,3.7,1.6
		c3.8-1.7-7.4-4.5-2.9-6.5c3.1-1.3,16.4-3.5,17.4-3.7c3,1.9,2.1,9.8-2.3,12.4c0.5,1.3,5.9-1.4,8.6-1.6c7.9-2.1,12,1.7,18.6,0.8
		l-5-1.2c1.1-0.5,10.7,0.2,12.3,0.9c0.2-0.7-5-3.8-2-4.7c11.8-0.4,22.9,3.7,22.2,6L549,24.9c-0.6,1.9,12.8,1.9,12.1,4.1l16.6-0.7
		c-2.1-0.1-8.5-0.6-6-1.6c7.1,0.1,3.7-0.3,8.5-1.2c-10.3-3.3-19.8-7-28.5-11.3l8.6,1.2l2.1-1.1c11.2,1.5,21.3,8.8,24.2,10.7
		c6.4-0.5,4.2-4.5,2.6-5.2c12.6-0.2,12.5,5.6,25.2,5.1l-4.8,0.9c3,0.4,13.9-0.4,12.8,0.3c2.3-1,4.4-3.2,2.6-4l10.7,3.5
		c-1.7-0.4-0.6-3.6-1.3-4.2c4.5-0.1,7.7,3.7,4.9,4.2c8.8-2.3,6.7-1,13.8-3.8c2.6,0.2-0.2,3.4-2.2,3.7c4,0.6,8.2,0.7,12.2,0.1
		c-9.8-1.4-2.7-7.2-4.5-9.6l21,9.5c-1.1-1.3-1.8-2.6-2.3-4c1.8,2.8,25.8,3.2,37.6,2.8H713c-1.9-0.8,3.9-1.4,8.6-1.2
		c7.9-2.1,10.2,4.3,18.1,1.8c-7.3,0.3-8.7-0.9-8.3-2c6,1,19.8-0.1,16.9,3.2c3.8-0.7,7.3-0.3,6.9-2l14.6,2c-1.1-0.3-2-1.3,2.3-1.6
		c-8.2,0.4-16.2-2.7-20.5-0.5c-0.2-2.1,2.9-3.2-1.1-4.9c15.8,1,24.5,4.5,34.5,6.9l13.9-1.5l0.6,0.9l2.4-2.4c1.7,0.5,2.9,1,3.2,0.8
		s-0.1-0.5-0.8-0.9c1.2,0.1,2.4,0.3,3.5,0.6c0.5-1.2-1.9-2.7-4.5-4c-0.2,0.1-0.3,0.1-0.5,0.2l-2.7-0.7l1.9,0.9
		c-0.8,0.3-1.6,0.6-2.5,0.9c-2.7-1.2-4.7-2.4-0.9-3.2c0.5,0.2,1.2,0.3,2,0.5c-1.7-0.9-2.8-1.6-1.5-2l10.7,1.1
		c-1.8,0.5-3.5,1.1-5.1,1.8c4.6,1.1,9.6,2.3,10.4,3.4c-0.7,0.4-1.2,0.9-1.3,1.3c-0.2,0.1-0.5,0.2-0.8,0.2l0.8-0.1
		c-0.1,0.5,0.3,1,1.5,1.5l-3.3-0.2c0.2,0,0.4-0.1,0.5-0.1l-0.7,0.1l-1.2-0.1c0.1,0.1,0.2,0.2,0.3,0.2l-3.8,0.6
		c1.3-0.1,2.6-0.3,3.9-0.6c2.6,1.6,14.6-0.2,17.2,1.9l9.6-1.4c0.8,0.1,1.7,0.2,2.7,0.4c0.2-0.3,0-0.5-0.3-0.8l2.8-0.4
		c-0.5,0.8,2,2-0.4,2.2c3.7,0,6.9,0.2,2.1,1.3c9.4-1.4,19-2.1,28.5-2.4l2.4,0.8c1-0.3,0.1-0.5-0.7-0.8c3.1-0.1,6.2-0.1,9.3-0.1
		c5.9,0.7,10.6,0.9,16.5,0.3c11.8,0.4-5.1,3.4,4.9,3c1.2-1.1,2.3-2.4,6.1-3c1.3,0,2.6,0,3.9,0.1c2.3,0.9,2.5,1.7,7.5,2.4l-0.4-2.1
		c3.8,0.1,7,0.3,8.5-0.2c3.8,0,7.6-0.1,11.3-0.3c0.5,0.1,0.8,0.2,1,0.4c1.9-0.4,3.2-0.5,4.8,0.8c-0.9,0.7-3,0.4-4.8,0.1
		c-1.6,1.4-8.5,3.1-9.7,3.7c7.2-0.6,12.6,0.3,17-2.2l-6.8-0.6c13.2-2.4,13.9,2,18.9-0.5l5.4-1.7c1,0.3,2,0.6,2.9,0.9l0.4,0.5
		c0.8,0,0.5-0.2-0.5-0.6l0,0h1.4c-0.3,0.3-0.5,0.5-0.4,0.7c6.1,0.2,12.2,0,18.1-0.3l2,0.3c-0.5-0.1-0.8-0.2-0.9-0.3
		c3.9-0.2,7.8-0.4,11.6-0.6c3.9,1.2,4.5,3.6,10.7,2c-1.2,0-1.5-0.2-2.7-0.2l4.4-1c0.9,4.5,26,0.5,26.9,5c6.3-1.8,0.4-1.1-7.6-3.2
		l6.7-1.3c-0.6-0.1-1.2-0.1-1.7-0.1c0.1-0.1,0.2-0.1,0.3-0.2c-0.1,0.1-0.2,0.1-0.3,0.2c-2.1-0.1-4,0-6.3-0.3
		c1.8-0.4,3.6-0.6,5.3-0.7c1.3,0.2,1.9,0.4,1.3,0.8c0.7-0.3,1.5-0.6,2.3-0.8c5.2,0.3,9.8,1.6,12.9,2.3c3.3-0.6-2.6-3.4,6.9-2.6
		c13.5,0.9-2.6,3.3,5.5,3.8l5.9-2.3c10.3,1.8,18.1,0.2,26.8-0.1c1.3,0.1,2.4,0.3,3.4,0.7l0.4,0.2c-0.1-0.1-0.1-0.1-0.2-0.2
		c9.3-0.9,19.4,2.3,26.3,1.5c-1.6-0.5,4-1.5,4.8-2l12.6,1.4c-3.4-0.4-4.6-1-5.3-1.8h0.5c2.3,0.2,2.9,0.1,2.9-0.1
		c1-0.1,0.8-0.4,1.2-0.7c0.9,0.2,1.8,0.3,2.8,0.4c-0.9-0.3-1.7-0.5-2.1-0.8c0.5-0.2,1.2-0.3,2.4-0.5c0.2,0,0.3,0,0.4,0l11.3,1.9
		c-1.1,0.2-2.3,0.4-3.6,0.4c3.3,0,10.5,0.9,15.2-0.2c-0.1-0.2-0.4-0.3-0.7-0.5c1.1,0.1,2.2,0,3-0.4c-6.3,0.1-5.5-1.2-3.2-1.8h3.1
		c1.6,0.6,2,1.4,1.1,2.1c0.8-0.1,1.5-0.1,2.2-0.2l-0.5,0.4c4.2,0,8.4-0.1,12.7-0.2c0.8,0.1,1.7,0.3,2.7,0.5l-0.4-0.5
		c7.8-0.2,15.8-0.5,23.8-0.7c1.6,0.5,3.1,0.6,5.1-0.2c0.2,0,0.4,0,0.7,0c4.2,1-9.3,2.2,3.1,2.5c3.4-0.9,7-1.5,10.8-1.8
		c3.8,0.6-2.1,1.7-5,1.7c11.2,0.4,13.1-1.7,16.6-3c2.9,0,5.8,0,8.7,0c-0.1-0.3,0.3-0.5,0.9-0.7c0.7,0.1,1.5,0.1,2.3,0.2
		c-5.9,1.2,4.9,3.1-9.1,3.1c6.7,1,13.2-2.3,20.1-0.6l-4.5-2c2.3,0.1,4.6,0.4,6.7,1l-0.6-1.6c5.3,1.7,10.1,0.8,14.3,0.7
		c6.1,5.8,28.3-0.6,44.3,1.3c-0.7-0.1-1.3-0.4-1.6-0.7c11.4,1.5,24.9-0.4,31.7-0.8c1,0,2.1,0,3.3,0c0.2,0,0.3,0,0.5,0.1l0.1-0.1
		c1.8-0.1,3.7-0.2,5.8-0.6c8.3,1.6,11.2,1.7,23.7,0.8c0-0.1-0.2-0.1-0.3-0.2c1.5,0.2,3.5,0.4,6.4,0.7c-0.2,0-0.4-0.1-0.5-0.1
		c2.7,0.5,6.2,0.8,11.9,0.7L1412,27l15.6,0.3c-0.1-4.3,18.8,0.8,27.7-0.7c5,0.1,10.2,0.2,15.3,0.2c3.1,0.3,6.1,0.5,8.1,0.8
		c0-0.2,0.3-0.4,1.2-0.7c3.8,1.7,9.8,0.9,15.3,0.2c0.9,0,1.9,0.1,2.8,0.1l-6,0.5c2.3-0.1,8.5,0.7,13.7,0.5c-0.4,0.2-0.8,0.4-1.2,0.6
		c8.6-2.2,23.6,2.4,26.8,1.5c6.3-0.2,2.3-2,4.1-3.1c9.3,0.5-1.6,4.6,11,2.6c-1.5-0.2-4.1-0.4-3.1-0.7c2.7-0.2,6.7-2.2,10.4-3.7
		c0.6-0.1,1.3-0.1,1.9-0.1l-1.5,1.6c10.9-0.4,18.3-1,25.5-1.4l-0.2,0.4c1.8-0.3,3.3-0.4,4.5-0.6c1.9-0.1,3.8-0.1,5.8-0.2
		c1.4,0.2,2.6,0.4,7.4,0c1.2,0,2.4,0,3.7,0.1l-0.7-0.3c5.9-0.5,9.4-0.3,12.2,0.7h-0.4c0.2,0,0.3,0,0.5,0c0.2,0.1,0.4,0.2,0.6,0.3
		c0.2-0.1,0.3-0.2,0.3-0.3c5.3,0.1,10.7,0.1,16-0.1c1,0.2,5,0.6,6.2,0.1c0.4,2.1,19.5,1,23.2,0.9c-6.6-0.3-3.5-1.2-1.6-2.1
		c3.9,1.7,6.6,1.9,12,0.7c0.8,2.7,1.9,5.5,12.6,5.6c-1.7-0.4-4.3-0.6-3.2-1.2c1.1-0.5,3.6,0,4.4,0.2c1.1-0.5-2.4-1-1.2-1.9
		c7.2,2.5,12.5,0.2,23,1.1c-3.3-0.8-0.5-1.3,0.7-2.2c0.8,3,14.3-2.6,10.3,1.3c20.5-2.3,52.1-0.2,60.1-2.7c2.2-1.1,7.9,0.7,11.4,0.7
		l-0.5-1.3c10,2.4,7.8,0.9,19.5,3.3c-4.9-1.6-2.8-2.3,2.1-3.5l8.1,2.7l1.6-2c3.3,0.8,7,0.5,10.7,0.2c3.3,2.2,15.7,2,17.7,3.2
		c3.6-2.8,9.7,0.7,12.3-1.9c1.4,0.4,2.8,0.7,4.4,1c-1.7,1.2-2.4,2.6,0.9,2c0.2,0,0.4,0,0.6,0l-1.1,1.2c-0.5,1.5,4.1-0.4,8.2-1.7
		c-2.1,0.4-4.5,0.5-6.7,0.3l1.2-1.4c2.9,0.3,5.9,0.5,8.9,0.6c-1.2,0.2-2.3,0.5-3.4,0.8c1.4-0.2,2.7-0.5,4-0.8c0.4,0,0.8,0,1.2,0
		c-0.2-0.1-0.5-0.1-0.7-0.1c2.2-0.5,4.8-0.5,7,0c11.6-2.5,25.8,3.4,38.6,0c-1.9,0.3-4.6,0.5-5.4-0.1c10.7,0.2,21.3-2.1,28.1-0.9
		l-0.5,1.5c6.7,0.7,13.4,1.1,20.2,1.1l0.3,1.7c9.2-0.6,28.9,2.1,34.5-1.4c2.2,1.3,12.7-0.4,17.9,0.1l1.3-1.3
		c4.7-0.3,9.4-0.2,14.1,0.3l-0.6,0.1c3.3,0.8,7.1,0.8,10.3,0c-2.5,0.1-4.9-0.1-7.4-0.2c4.5-0.8,8.9-1,13.2-1
		c-1.6,0.2-3.6,0.8-5.9,1.2c3-0.1,6-0.4,8.9-0.9c-0.1-0.1-0.3-0.2-0.4-0.2c7.4,0.2,14.6,1.1,21.5,0.9l0.1-0.4l12.2,0.9
		c-3.2-1.2,2.4,0.8,6.1,0.5c4.9,0.5,10.1,0.4,14.8-0.5l7.8-0.1c-8.7-0.9,0.6-1.9,1.1-3.4l5,1.2c2-0.7-3.2-1.2,0.5-1.5
		c3.3,0.8,13.2,0.8,16.3,2.3c-0.8,0.5-1.9,0.8-3.2,1c-0.2,0-0.3-0.1-0.3-0.1c0.1,0,0.1,0,0.2,0c-1.1,0.1-2.2,0.2-3.4,0.4
		c1.1-0.1,2.2-0.2,3.2-0.4c0,0,0.1,0,0.2,0.1c-0.1,0-0.2,0.1-0.3,0.1c0.2,0,0.2,0,0.4,0c0.3,0.1,0.6,0.2,0.8,0.3L2132,30
		c1,0.1,1.6,0.2,2,0.2l0,0c6.2-0.3,3.9,0.3,3.7,1c6.7-2.2,10.7-0.9,15.8-3.2c-5.2,2.6,16.7-0.2,12.2,2.7c5.2-2.4,3.6-0.1,7-2.1
		C2165.6,29.1,2158.3,27,2152.3,26z M366.1,12c-0.1,0-0.1-0.1-0.2-0.1C368.9,11.6,370.5,11.3,366.1,12z M637.5,15.8
		c-0.1-0.2-0.4-0.4-0.6-0.6C638.5,15.2,637.6,15.4,637.5,15.8z M789.4,23.1c2-0.4,4.1-0.5,6.2-0.3C793.1,23.3,790.8,23.6,789.4,23.1
		z M1320.8,13.2c0.7,0.3,1.3,0.6,0.8,0.6c-0.8-0.1-1.5-0.2-2.1-0.3L1320.8,13.2z M1303,14.4c-1.2,0-2.2,0-2.9,0
		c-0.7-0.3-2.1-0.9-3.7-1.2C1299.4,12.5,1301.2,13.5,1303,14.4z M959.7,13.5c-0.5-0.2-0.6-0.4-0.6-0.6c0.3,0,0.6,0,1,0
		C960.1,13.2,959.9,13.3,959.7,13.5z M910.6,15.5c-0.6,0.2-1.2,0.4-1.8,0.6C908.9,15.8,909.6,15.6,910.6,15.5z M852.3,15.1
		c0.5,0.4,2.6,0.8,1.3,1.3c-0.8-0.2-1.6-0.5-2.3-1.1L852.3,15.1z M1144.9,27.3c-0.7-0.3-1.3-0.6-0.8-0.6c0.8,0.1,1.5,0.2,2.1,0.3
		L1144.9,27.3z M1162.7,26.1c1.2,0,2.2,0,2.9,0c0.7,0.3,2.1,0.9,3.7,1.2C1166.3,28,1164.5,26.9,1162.7,26.1z M1506,26.9
		c0.5,0.2,0.6,0.4,0.6,0.6c-0.3,0-0.6,0-1,0C1505.6,27.3,1505.8,27.1,1506,26.9z M1555.1,24.9c0.6-0.2,1.2-0.4,1.8-0.6
		C1556.8,24.6,1556.1,24.8,1555.1,24.9z M1613.4,25.3c-0.5-0.4-2.6-0.8-1.3-1.3c0.8,0.2,1.6,0.5,2.3,1.1L1613.4,25.3z M1670.1,17.7
		c2.5-0.5,4.8-0.8,6.2-0.3C1674.3,17.8,1672.2,17.9,1670.1,17.7z M1828.2,24.7c0.1,0.2,0.4,0.4,0.6,0.6
		C1827.1,25.3,1828.1,25.1,1828.2,24.7z M2099.6,28.5c0.1,0,0.1,0.1,0.2,0.1C2096.8,28.9,2095.2,29.2,2099.6,28.5z"/>
	<path class="st0" d="M1521.9,14c0.7-0.1,1.5-0.3,2.4-0.4c-0.6-0.1-1.5-0.3-2.4-0.5C1521.5,13.4,1521.5,13.7,1521.9,14z"/>
	<path class="st0" d="M973.6,12.7c0.2,0,0.5,0,0.6-0.1L973.6,12.7z"/>
	<polygon class="st0" points="2164.9,20.8 2161.2,21.2 2163.5,22.5 	"/>
	<path class="st0" d="M2141.2,22.2c-1-0.1-1.8-0.3-1.7-0.6l-6.4,0.5C2132.9,22.6,2137.3,22.2,2141.2,22.2z"/>
	<path class="st0" d="M1966.1,15.1c1-0.4,2.3-0.7,3.6-0.8C1966.9,14.4,1966,14.7,1966.1,15.1z"/>
	<path class="st0" d="M2161.6,25.3c4.3,0.6,8.6,1.3,7.4-0.6c0.2,0,0.5,0,0.7,0C2165.7,24.5,2162.1,24,2161.6,25.3z"/>
	<path class="st0" d="M2122.4,30c-1.1,0.6-0.4-1.5-2.3-1.2C2109.7,27.9,2124.5,31.7,2122.4,30z"/>
	<path class="st0" d="M2155.7,29.7c-1.6,0.4-3.4,0.6-5.2,0.5l5.1,0.3C2154.9,30.4,2155.6,30,2155.7,29.7z"/>
	<path class="st0" d="M2156.3,30.6l-0.7-0.1C2155.7,30.6,2156,30.6,2156.3,30.6z"/>
	<path class="st0" d="M2208.8,21c-0.8-0.2-1.8,0-2.6-0.2c-3.7,0.2-1.2,0.8,2.4,0.9L2208.8,21z"/>
	<path class="st0" d="M2170.7,24.7c2.2,0.2,4.1,0.8,3.7,0C2173.2,24.8,2171.9,24.7,2170.7,24.7z"/>
	<path class="st0" d="M1658.2,16.1c0.1-0.3,0.4-0.6,0.8-0.9C1657.5,15.5,1657.5,15.8,1658.2,16.1z"/>
	<path class="st0" d="M2085.2,17.8l-3.3-0.8l0.2,2.1C2083.2,18.5,2083.3,18.2,2085.2,17.8z"/>
	<path class="st0" d="M2141.2,22.2c1.8,0.2,3.5,0.3,5.2,0.3C2144.7,22.2,2143,22.1,2141.2,22.2z"/>
	<polygon class="st0" points="2156,20.4 2149.6,20.8 2154.1,20.7 	"/>
	<path class="st0" d="M1870.9,14.5c-2-0.7,6.1-0.7,4.1-1.5c-7.5,1-1.2-1.9-9.5-1.1C1863.3,14.1,1865.9,13.6,1870.9,14.5z"/>
	<polygon class="st0" points="1960.7,20 1958.9,20 1960.4,23.4 	"/>
	<path class="st0" d="M2064.7,17.3c6.4-0.4-0.6-0.9-1.3-1.5C2054.5,15.7,2064,16.7,2064.7,17.3z"/>
	<path class="st0" d="M2056.9,21.9l7,0.5c1.1-0.5-1.5-0.8-3.2-1.2C2058.1,21,2056.2,21.3,2056.9,21.9z"/>
	<polygon class="st0" points="812.7,29.7 818.1,29 816.2,28.6 	"/>
	<path class="st0" d="M1412.2,8.6c-2.1-0.1-4.5-0.4-6.5-0.3C1405.1,10.6,1407.6,8.7,1412.2,8.6z"/>
	<path class="st0" d="M803.4,26.7l3.2,2l1.3-2.2C807,27,804.6,26.8,803.4,26.7z"/>
	<path class="st0" d="M1870.9,14.5c0.8,0.2,1.7,0.4,2.6,0.5C1872.7,14.8,1871.8,14.6,1870.9,14.5z"/>
	<path class="st0" d="M1539.2,9.2l-4.2,1.2c2.5-0.1,3.8-0.1,4.6-0.7L1539.2,9.2z"/>
	<polygon class="st0" points="1466.6,10.7 1465.5,12.7 1467.8,10.7 	"/>
	<path class="st0" d="M154.4,9.3l5.1,0.8c3-0.9,4.1-1.4-1.2-1.9C160,8.6,155.4,8.7,154.4,9.3z"/>
	<path class="st0" d="M164.3,11.9c-1.4-0.7-2.1-0.6-2.6-0.4L164.3,11.9z"/>
	<path class="st0" d="M47.7,10c0.4,0.3-0.5,1.6,1.9,1.5C49.5,11.9,51.7,10.3,47.7,10z"/>
	<polygon class="st0" points="88.9,14.7 94,15.5 88.2,14.1 	"/>
	<path class="st0" d="M145.4,9.5c-1.3,0.1-2.5,0.1-3.8,0.1c-0.3,0.1-0.5,0.2-0.8,0.2C149.6,10.3,144.2,10.4,145.4,9.5z"/>
	<path class="st0" d="M125.8,14.7c-5.7,0.6-16-0.6-24-0.9l3,1.9l1.1-0.5C112.5,14.4,122.3,17.1,125.8,14.7z"/>
	<path class="st0" d="M152.9,11.1c-9.8-0.3-11.2,1.4-1.4,1.7C146.4,12,150.1,11.7,152.9,11.1z"/>
	<path class="st0" d="M159.1,11.2c1.8,1.4,1.8,0.6,2.6,0.3l-5.6-0.7C158.5,11.3,159.6,12,159.1,11.2z"/>
	<path class="st0" d="M191.3,8.9c-0.3,0.7-3.9,1.1-5.9,1.4l3.8,0.6C189.6,10.3,191.6,9.4,191.3,8.9z"/>
	<path class="st0" d="M120.5,17l3.3,0.8l3.8-0.7C127.8,16.4,122.1,17.4,120.5,17z"/>
	<path class="st0" d="M194.8,11.8l-5.6-0.9C188.9,11.5,189.8,11.9,194.8,11.8z"/>
	<path class="st0" d="M227.2,9c3.4-0.7,7.2-0.9,10.9-0.4c-3.1-0.9-6.6-1.5-10.2-1.8C230.4,7.4,224.8,8.1,227.2,9z"/>
	<polygon class="st0" points="212.8,8.8 215.3,9.4 209.6,7.6 	"/>
	<polygon class="st0" points="165.3,14.5 167,14.5 155.9,12.7 	"/>
	<path class="st0" d="M238.1,8.6c1.6,0.4,3.3,0.8,5,1.1C241.5,9.1,239.8,8.8,238.1,8.6z"/>
	<path class="st0" d="M195.1,13.6l6-0.3l-6.4-1C196.3,12.7,195.3,13.2,195.1,13.6z"/>
	<path class="st0" d="M180.1,13.2c4.9,1.2,1.1,1.9,3.5,2.9C190.3,14.9,183.4,14,180.1,13.2z"/>
	<path class="st0" d="M204.5,11.5h-0.6C204.1,11.7,204.2,11.6,204.5,11.5z"/>
	<path class="st0" d="M208.9,10.1c-1.8,0.1-3.5,0.7-4.4,1.4h2.1h0.1l0,0l4.8-0.1l-4.8,0.1L208.9,10.1z"/>
	<path class="st0" d="M272.4,12l0.5-0.3l-0.6,0.1C272.3,11.9,272.4,12,272.4,12z"/>
	<path class="st0" d="M220.6,11.5c-0.2,0-0.4,0-0.6-0.1C220,11.6,220.3,11.6,220.6,11.5z"/>
	<path class="st0" d="M232.8,11c-3.7-0.1-2.2,0.7-1.7,1.2c3.5,0,6.9-0.1,10.3-0.4C238.5,11.8,235.5,11.6,232.8,11z"/>
	<polygon class="st0" points="201.2,13.3 204.1,13.8 203.4,13.2 	"/>
	<path class="st0" d="M247.4,11.1c1.5-0.2,3-0.5,4.5-0.8C251.4,9.9,248.7,10.6,247.4,11.1z"/>
	<path class="st0" d="M221.1,11c0.1,0,0.3,0,0.4,0.1C221.9,10.8,222,10.7,221.1,11z"/>
	<path class="st0" d="M230.5,12.5c0.8,0,0.8-0.1,0.6-0.3c-2.1,0-4.1-0.1-6.2-0.2C226.5,12.6,228.6,12.7,230.5,12.5z"/>
	<path class="st0" d="M280.6,15.7c-3.8,0.7-2.4,1.8-10.2,1.2c-5-1.2,6.1-2.2,8.1-2.9c-5.9-0.8-5.9-1.3-6.1-1.9c-5,2.4-8.8,6.8-3,7.8
		c5.8-1.4,12.6-0.2,13.1,1.1c1.9-0.5-0.6-1.1-0.5-1.4l6.9,0.9C290.6,18.1,277.4,17.3,280.6,15.7z"/>
	<path class="st0" d="M220.6,11.5c1.4,0.2,2.8,0.4,4.3,0.5c-1.1-0.4-2.2-0.7-3.4-0.9C221.3,11.2,221,11.3,220.6,11.5z"/>
	<path class="st0" d="M260.3,11.9l12-0.2c-0.3-0.4-1.1-0.9-5.2-1.6c-2.6,0.9-5.4,1.5-8.4,1.8l2.4,0.2L260.3,11.9z"/>
	<path class="st0" d="M258.7,12l-11.6-0.8c0,0.1,0.1,0.1,0.1,0.2c1,0.2,3.9,0.2,0.5,0.5c-0.2-0.2-0.4-0.3-0.5-0.5
		c-0.1,0-0.2,0-0.2,0c-0.6,0.1-0.4,0,0.1-0.2h0.1c0.1,0,0.2-0.1,0.3-0.1c-2,0.3-4,0.5-6,0.7c2.1,0,4.2,0.2,6.2,0.4
		c-8.3,0.8,6.5,2-5,1.6c4.3,0.6,2.1,1.7,9.3,1.8c3.6-1.6-2.3-2.2-4.2-3.6C251.4,12.2,255,12.2,258.7,12z"/>
	<path class="st0" d="M190.1,18.8c0,0.1-0.1,0.3-0.4,0.3C191.1,19.1,190.9,19,190.1,18.8z"/>
	<path class="st0" d="M986.7,13.1c0-0.3-0.7-0.6-2.4-0.9C984,12.6,985,12.9,986.7,13.1z"/>
	<path class="st0" d="M1107.5,30.6l-3.3-1.5C1104.6,29.8,1102.3,30.6,1107.5,30.6z"/>
	<path class="st0" d="M199.8,15.1c0.4-0.2,0.5-0.3,0.4-0.3C200.1,14.9,199.9,15,199.8,15.1z"/>
	<path class="st0" d="M189.6,17.1c-5.2,0.7-1.1,1.3,0.6,1.7c0.1-0.5-2.3-0.7,0.1-1.2c1.5-0.1,3.1,0.1,4.3,0.6
		c2.1-0.7,3.9-1.8,5.2-3.1c-1.4,0.6-5.8,1.8-9.4,2.2L189.6,17.1z"/>
	<path class="st0" d="M226.4,16.7l-0.2,0.7l4.9-1.2l-9.6-0.7C222.1,16.1,221,17,226.4,16.7z"/>
	<path class="st0" d="M992.4,27.5c0.9,0.2,1.8,0.4,2.8,0.4L992.4,27.5z"/>
	<polygon class="st0" points="286.6,11.2 289.4,10.7 286.1,9.9 	"/>
	<polygon class="st0" points="278.3,11.6 272.7,9.5 274,11 	"/>
	<path class="st0" d="M1623.1,13.2c1.6,0,3.2,0,4.9,0.1C1626.4,13.1,1624.7,13.1,1623.1,13.2z"/>
	<path class="st0" d="M460.4,19.9h-0.2C459.8,20.1,459.6,20.1,460.4,19.9z"/>
	<path class="st0" d="M339.1,10.6l-2.3-0.1c0.1,0-0.1,0.1-0.6,0.2C337.1,10.7,338.1,10.6,339.1,10.6z"/>
	<path class="st0" d="M721.7,23c1.2,0.1,2.3,0.2,3.2,0.4C724.2,22.9,723.2,23,721.7,23z"/>
	<path class="st0" d="M662.8,26.2l-0.4,0.1c0.1,0,0.2,0,0.3,0.1L662.8,26.2c3.1-0.3,5.4-0.5,9.3,1.3l-6.2-5.4L662.8,26.2z"/>
	<path class="st0" d="M721.7,23L721.7,23c-0.1,0-0.1,0-0.2,0C721.5,23.1,721.6,23,721.7,23z"/>
	<path class="st0" d="M943.8,26.4c-0.7,0.1-1.5,0.3-2.4,0.4c0.6,0.1,1.5,0.3,2.4,0.5C944.2,27,944.2,26.7,943.8,26.4z"/>
	<path class="st0" d="M1492.1,27.7c-0.2,0-0.5,0-0.6,0.1L1492.1,27.7z"/>
	<polygon class="st0" points="300.8,19.7 304.5,19.3 302.2,18 	"/>
	<path class="st0" d="M324.5,18.3c1,0.1,1.8,0.3,1.7,0.6l6.4-0.5C332.8,17.9,328.4,18.3,324.5,18.3z"/>
	<path class="st0" d="M499.6,25.4c-1,0.4-2.3,0.7-3.6,0.8C498.8,26.1,499.7,25.8,499.6,25.4z"/>
	<path class="st0" d="M304.1,15.2c-4.3-0.6-8.6-1.3-7.4,0.6c-0.2,0-0.5,0-0.7,0C300,16,303.6,16.5,304.1,15.2z"/>
	<path class="st0" d="M343.3,10.5c1.1-0.6,0.4,1.5,2.3,1.2C356,12.6,341.2,8.8,343.3,10.5z"/>
	<path class="st0" d="M310,10.8c1.6-0.4,3.4-0.6,5.2-0.5l-5.1-0.3C310.8,10,310.1,10.4,310,10.8z"/>
	<path class="st0" d="M309.4,9.9l0.7,0.1C310,9.9,309.7,9.9,309.4,9.9z"/>
	<path class="st0" d="M256.9,19.5c0.8,0.2,1.8,0,2.6,0.2c3.7-0.2,1.2-0.8-2.4-0.9L256.9,19.5z"/>
	<path class="st0" d="M291.3,15.8c1.2-0.1,2.5,0,3.7,0C292.8,15.6,290.9,15,291.3,15.8z"/>
	<path class="st0" d="M807.5,24.4c-0.1,0.3-0.4,0.6-0.8,0.9C808.2,25,808.2,24.7,807.5,24.4z"/>
	<path class="st0" d="M380.5,22.7l3.3,0.8l-0.2-2.1C382.5,22,382.4,22.3,380.5,22.7z"/>
	<path class="st0" d="M324.5,18.3c-1.8-0.2-3.5-0.3-5.2-0.3C321,18.3,322.7,18.4,324.5,18.3z"/>
	<polygon class="st0" points="309.7,20.1 316.1,19.7 311.6,19.8 	"/>
	<path class="st0" d="M594.8,26c2,0.7-6.1,0.7-4.1,1.5c7.5-1,1.2,1.9,9.5,1.1C602.4,26.4,599.8,26.9,594.8,26z"/>
	<polygon class="st0" points="505,20.5 506.8,20.5 505.3,17.1 	"/>
	<path class="st0" d="M401,23.2c-6.4,0.4,0.6,0.9,1.3,1.5C411.2,24.8,401.7,23.8,401,23.2z"/>
	<path class="st0" d="M408.8,18.6l-7-0.5c-1.1,0.5,1.5,0.8,3.2,1.2C407.6,19.5,409.5,19.2,408.8,18.6z"/>
	<polygon class="st0" points="1653,10.8 1647.6,11.5 1649.5,11.9 	"/>
	<path class="st0" d="M1053.5,31.9c2.1,0.1,4.5,0.4,6.5,0.3C1060.6,29.9,1058.1,31.7,1053.5,31.9z"/>
	<path class="st0" d="M1662.3,13.8l-3.2-2l-1.3,2.2C1658.7,13.5,1661.1,13.7,1662.3,13.8z"/>
	<path class="st0" d="M594.8,26c-0.8-0.2-1.7-0.4-2.6-0.5C593,25.7,593.9,25.9,594.8,26z"/>
	<path class="st0" d="M926.5,31.3l4.2-1.2c-2.5,0.1-3.8,0.1-4.6,0.7L926.5,31.3z"/>
	<polygon class="st0" points="999.1,29.8 1000.2,27.8 997.9,29.8 	"/>
</g>
</svg>
