<svg xmlns="http://www.w3.org/2000/svg" viewBox="0 0 2536 41.7" fill="#47aad5" xmlns:v="https://vecta.io/nano"><path d="M2311.3 31.2l-5.1-.8c-3 .9-4.1 1.4 1.2 1.9-1.7-.4 2.9-.5 3.9-1.1zm-9.9-2.6c1.4.7 2.1.6 2.6.4l-2.6-.4zm114.7.4c.1-.4-2.1 1.2 1.9 1.5-.4-.3.5-1.6-1.9-1.5zm-44.4-4l5.8 1.4-.7-.6z"/><path d="M2320.3 31c1.3-.1 2.5-.1 3.8-.1.3-.1.5-.2.8-.2-8.8-.5-3.4-.6-4.6.3zm39.5-5.7c-6.6.8-16.4-1.9-19.9.5 5.7-.6 16 .6 24 .9l-3-1.9-1.1.5zm-45.6 2.4c5.1.8 1.4 1.1-1.4 1.7 9.8.3 11.2-1.4 1.4-1.7zm-7.6 1.6c-1.8-1.4-1.8-.6-2.6-.3l5.6.7c-2.4-.5-3.5-1.2-3-.4zm-32.2 2.3c.3-.7 3.9-1.1 5.9-1.4l-3.8-.6c-.4.6-2.4 1.5-2.1 2zm70.8-8.1l-3.3-.8-3.8.7c-.2.7 5.5-.3 7.1.1z"/><path d="M2270.9 28.7l5.6.9c.3-.6-.6-1-5.6-.9zm-32.4 2.8c-3.4.7-7.2.9-10.9.4 3.1.9 6.6 1.5 10.2 1.8-2.5-.6 3.1-1.3.7-2.2zm11.9-.4l5.7 1.8-3.2-1.2zm50-5.1h-1.7l11.1 1.8z"/><path d="M2227.6 31.9l-5-1.1c1.6.6 3.3.9 5 1.1zm43-5l-6 .3 6.4 1c-1.6-.4-.6-.9-.4-1.3zm11.5-2.5c-6.7 1.2.2 2.1 3.5 2.9-4.9-1.2-1.1-1.9-3.5-2.9zm-20.9 4.6h.6c-.2-.2-.3-.1-.6 0z"/><path d="M2259 29h0l-4.8.1 4.8-.1-2.2 1.4c1.8-.1 3.5-.7 4.4-1.4h-2.2 0zm-66.2-.2l.6-.1c0-.1-.1-.2-.1-.2l-.5.3zm52.3.2c.2 0 .4 0 .6.1 0-.2-.3-.2-.6-.1zm-12.2.5c3.7.1 2.2-.7 1.7-1.2-3.5 0-6.9.1-10.3.4 2.9 0 5.9.2 8.6.8z"/><path d="M2262.3 27.3l2.2-.1-2.9-.5zm-44 2.1l-4.5.8c.5.4 3.2-.3 4.5-.8zm26.3.1c-.1 0-.3 0-.4-.1-.4.3-.5.4.4.1zm-9.4-1.5c-.8 0-.8.1-.6.3l6.2.2c-1.6-.6-3.7-.7-5.6-.5z"/><path d="M2187.2 26.5c5.9.8 5.9 1.3 6.1 1.9 5-2.4 8.8-6.8 3-7.8-5.8 1.4-12.6.2-13.1-1.1-1.9.5.6 1.1.5 1.4l-6.9-.9c-1.7 2.4 11.5 3.2 8.3 4.8 3.8-.7 2.4-1.8 10.2-1.2 5 1.2-6.1 2.2-8.1 2.9zm57 2.9l.9-.4-4.3-.5c1.1.4 2.2.7 3.4.9z"/><path d="M2205.4 28.6l-12 .2c.3.4 1.1.9 5.2 1.6 2.6-.9 5.4-1.5 8.4-1.8l-2.4-.2.8.2z"/><path d="M2218.5 29.1c-1-.2-3.9-.2-.5-.5.2.2.4.3.5.5h.2c.6-.1.4 0-.1.2h-.1c-.1 0-.2.1-.3.1l6-.7c-2.1 0-4.2-.2-6.2-.4 8.3-.8-6.5-2 5-1.6-4.3-.6-2.1-1.7-9.3-1.8-3.6 1.6 2.3 2.2 4.2 3.6a99.08 99.08 0 0 0-10.9 0l11.6.8c0-.1-.1-.1-.1-.2zm57.1-7.4c0-.1.1-.3.4-.3-1.4 0-1.2.1-.4.3zM1479 27.4c0 .3.7.6 2.4.9.3-.4-.7-.7-2.4-.9zM1358.2 9.9l3.3 1.5c-.4-.7 1.9-1.5-3.3-1.5zm907.7 15.4c-.4.2-.5.3-.4.3s.3-.1.4-.3zm10.2-1.9c5.2-.7 1.1-1.3-.6-1.7-.1.5 2.3.7-.1 1.2-1.5.1-3.1-.1-4.3-.6-2.1.7-3.9 1.8-5.2 3.1 1.4-.6 5.8-1.8 9.4-2.2l.8.2zm-36.8.4l.2-.7-4.9 1.2 9.6.7c-.6-.6.5-1.5-4.9-1.2zm-766-10.8c-.9-.2-1.8-.4-2.8-.4l2.8.4zm703 16.8l3.3.8-.5-1.3zm11.1-.9l5.6 2.1-1.3-1.5zM842.6 27.3c-1.6 0-3.2 0-4.9-.1 1.6.2 3.3.2 4.9.1zm1162.7-6.7h.2c.4-.2.6-.2-.2 0zm121.3 9.2l2.3.1c-.1 0 .1-.1.6-.2l-2.9.1zM1744 17.4l-3.2-.4c.7.6 1.6.4 3.2.4z"/><path d="M1802.8 14.3l.4-.1c-.1 0-.2 0-.3-.1l-.1.2c-3.1.3-5.4.5-9.3-1.3l6.2 5.4 3.1-4.1zm-58.8 3.1h0 .2-.2z"/><path d="M2152.3 26l5.8-1.4c-3.8-2.7-13.1 1-16.6.1 2.3.6 7.6 0 7.8-.6l-1.6 2c-8.3.8-15-.8-20.9-1.8 5.6-.7-6.8-1.2-2.7-2.7l4.4.3c2-.7-2.3-1.3-4.7-1.9-14 1.5-39.6.2-44.6 1.8 3.6-.4 7.3-.2 10.6.5l-6.6.8c5.3.1 9.5-1.7 17.4-1.1-1.3 1.3 4.4 3.1-1.6 4.9-15 2-12.4-3.4-30.5-2.9-1.7-.4 3.8 2.1-5.9 1.4-12.1-1.3-21-4.2-21-7.1 5.1.8 15.3 2.5 16.9.4-5.1-.8-13.9-1.3-14.4-2.6-5.3 2.4 9.6.7 2.7 2.7-2.4-.1-4.8-.5-6.8-1.2 2.4 1-3.2 1.6-4.3 2.2-11.6 0-18.3 1.1-30.7 1.3-.7.3-2 1.1-1.7 1.7-6.1-.6-14.7-4.2-12.5-5.6-7.1-.1-7.5 1-13.6.4 9.7-2.1-1.9.4-2.9-1.9-6.2-.3-2.2 1.1-5 1.6-1-.2-3.5-1-3.7-1.6-3.8 1.7 7.4 4.5 2.9 6.5-3.1 1.3-16.4 3.5-17.4 3.7-3-1.9-2.1-9.8 2.3-12.4-.5-1.3-5.9 1.4-8.6 1.6-7.9 2.1-12-1.7-18.6-.8l5 1.2c-1.1.5-10.7-.2-12.3-.9-.2.7 5 3.8 2 4.7-11.8.4-22.9-3.7-22.2-6l18.1 2.3c.6-1.9-12.8-1.9-12.1-4.1l-16.6.7c2.1.1 8.5.6 6 1.6-7.1-.1-3.7.3-8.5 1.2 10.3 3.3 19.8 7 28.5 11.3l-8.6-1.2-2.1 1.1c-11.2-1.5-21.3-8.8-24.2-10.7-6.4.5-4.2 4.5-2.6 5.2-12.6.2-12.5-5.6-25.2-5.1l4.8-.9c-3-.4-13.9.4-12.8-.3-2.3 1-4.4 3.2-2.6 4l-10.7-3.5c1.7.4.6 3.6 1.3 4.2-4.5.1-7.7-3.7-4.9-4.2-8.8 2.3-6.7 1-13.8 3.8-2.6-.2.2-3.4 2.2-3.7-4-.6-8.2-.7-12.2-.1 9.8 1.4 2.7 7.2 4.5 9.6l-21-9.5a12.54 12.54 0 0 1 2.3 4c-1.8-2.8-25.8-3.2-37.6-2.8h1.8c1.9.8-3.9 1.4-8.6 1.2-7.9 2.1-10.2-4.3-18.1-1.8 7.3-.3 8.7.9 8.3 2-6-1-19.8.1-16.9-3.2-3.8.7-7.3.3-6.9 2l-14.6-2c1.1.3 2 1.3-2.3 1.6 8.2-.4 16.2 2.7 20.5.5.2 2.1-2.9 3.2 1.1 4.9-15.8-1-24.5-4.5-34.5-6.9l-13.9 1.5-.6-.9-2.4 2.4c-1.7-.5-2.9-1-3.2-.8s.1.5.8.9c-1.2-.1-2.4-.3-3.5-.6-.5 1.2 1.9 2.7 4.5 4 .2-.1.3-.1.5-.2l2.7.7-1.9-.9 2.5-.9c2.7 1.2 4.7 2.4.9 3.2-.5-.2-1.2-.3-2-.5 1.7.9 2.8 1.6 1.5 2l-10.7-1.1c1.8-.5 3.5-1.1 5.1-1.8-4.6-1.1-9.6-2.3-10.4-3.4.7-.4 1.2-.9 1.3-1.3.2-.1.5-.2.8-.2l-.8.1c.1-.5-.3-1-1.5-1.5l3.3.2c-.2 0-.4.1-.5.1l.7-.1 1.2.1c-.1-.1-.2-.2-.3-.2l3.8-.6a26.29 26.29 0 0 0-3.9.6c-2.6-1.6-14.6.2-17.2-1.9l-9.6 1.4c-.8-.1-1.7-.2-2.7-.4-.2.3 0 .5.3.8l-2.8.4c.5-.8-2-2 .4-2.2-3.7 0-6.9-.2-2.1-1.3-9.4 1.4-19 2.1-28.5 2.4l-2.4-.8c-1 .3-.1.5.7.8-3.1.1-6.2.1-9.3.1-5.9-.7-10.6-.9-16.5-.3-11.8-.4 5.1-3.4-4.9-3-1.2 1.1-2.3 2.4-6.1 3-1.3 0-2.6 0-3.9-.1-2.3-.9-2.5-1.7-7.5-2.4l.4 2.1c-3.8-.1-7-.3-8.5.2a210.28 210.28 0 0 0-11.3.3c-.5-.1-.8-.2-1-.4-1.9.4-3.2.5-4.8-.8.9-.7 3-.4 4.8-.1 1.6-1.4 8.5-3.1 9.7-3.7-7.2.6-12.6-.3-17 2.2l6.8.6c-13.2 2.4-13.9-2-18.9.5l-5.4 1.7-2.9-.9-.4-.5c-.8 0-.5.2.5.6h0-1.4c.3-.3.5-.5.4-.7-6.1-.2-12.2 0-18.1.3l-2-.3c.5.1.8.2.9.3l-11.6.6c-3.9-1.2-4.5-3.6-10.7-2 1.2 0 1.5.2 2.7.2l-4.4 1c-.9-4.5-26-.5-26.9-5-6.3 1.8-.4 1.1 7.6 3.2l-6.7 1.3c.6.1 1.2.1 1.7.1-.1.1-.2.1-.3.2.1-.1.2-.1.3-.2 2.1.1 4 0 6.3.3-1.8.4-3.6.6-5.3.7-1.3-.2-1.9-.4-1.3-.8-.7.3-1.5.6-2.3.8-5.2-.3-9.8-1.6-12.9-2.3-3.3.6 2.6 3.4-6.9 2.6-13.5-.9 2.6-3.3-5.5-3.8l-5.9 2.3c-10.3-1.8-18.1-.2-26.8.1-1.3-.1-2.4-.3-3.4-.7l-.4-.2.2.2c-9.3.9-19.4-2.3-26.3-1.5 1.6.5-4 1.5-4.8 2l-12.6-1.4c3.4.4 4.6 1 5.3 1.8h-.5c-2.3-.2-2.9-.1-2.9.1-1 .1-.8.4-1.2.7-.9-.2-1.8-.3-2.8-.4.9.3 1.7.5 2.1.8-.5.2-1.2.3-2.4.5h-.4l-11.3-1.9c1.1-.2 2.3-.4 3.6-.4-3.3 0-10.5-.9-15.2.2.1.2.4.3.7.5-1.1-.1-2.2 0-3 .4 6.3-.1 5.5 1.2 3.2 1.8h-3.1c-1.6-.6-2-1.4-1.1-2.1-.8.1-1.5.1-2.2.2l.5-.4c-4.2 0-8.4.1-12.7.2-.8-.1-1.7-.3-2.7-.5l.4.5-23.8.7c-1.6-.5-3.1-.6-5.1.2h-.7c-4.2-1 9.3-2.2-3.1-2.5-3.4.9-7 1.5-10.8 1.8-3.8-.6 2.1-1.7 5-1.7-11.2-.4-13.1 1.7-16.6 3h-8.7c.1.3-.3.5-.9.7-.7-.1-1.5-.1-2.3-.2 5.9-1.2-4.9-3.1 9.1-3.1-6.7-1-13.2 2.3-20.1.6l4.5 2c-2.3-.1-4.6-.4-6.7-1l.6 1.6c-5.3-1.7-10.1-.8-14.3-.7-6.1-5.8-28.3.6-44.3-1.3.7.1 1.3.4 1.6.7-11.4-1.5-24.9.4-31.7.8h-3.3c-.2 0-.3 0-.5-.1l-.1.1c-1.8.1-3.7.2-5.8.6-8.3-1.6-11.2-1.7-23.7-.8 0 .1.2.1.3.2-1.5-.2-3.5-.4-6.4-.7.2 0 .4.1.5.1-2.7-.5-6.2-.8-11.9-.7l.4.5-15.6-.3c.1 4.3-18.8-.8-27.7.7l-15.3-.2c-3.1-.3-6.1-.5-8.1-.8 0 .2-.3.4-1.2.7-3.8-1.7-9.8-.9-15.3-.2-.9 0-1.9-.1-2.8-.1l6-.5c-2.3.1-8.5-.7-13.7-.5l1.2-.6c-8.6 2.2-23.6-2.4-26.8-1.5-6.3.2-2.3 2-4.1 3.1-9.3-.5 1.6-4.6-11-2.6 1.5.2 4.1.4 3.1.7-2.7.2-6.7 2.2-10.4 3.7-.6.1-1.3.1-1.9.1l1.5-1.6c-10.9.4-18.3 1-25.5 1.4l.2-.4c-1.8.3-3.3.4-4.5.6-1.9.1-3.8.1-5.8.2-1.4-.2-2.6-.4-7.4 0-1.2 0-2.4 0-3.7-.1l.7.3c-5.9.5-9.4.3-12.2-.7h.4-.5l-.6-.3c-.2.1-.3.2-.3.3-5.3-.1-10.7-.1-16 .1-1-.2-5-.6-6.2-.1-.4-2.1-19.5-1-23.2-.9 6.6.3 3.5 1.2 1.6 2.1-3.9-1.7-6.6-1.9-12-.7-.8-2.7-1.9-5.5-12.6-5.6 1.7.4 4.3.6 3.2 1.2-1.1.5-3.6 0-4.4-.2-1.1.5 2.4 1 1.2 1.9-7.2-2.5-12.5-.2-23-1.1 3.3.8.5 1.3-.7 2.2-.8-3-14.3 2.6-10.3-1.3-20.5 2.3-52.1.2-60.1 2.7-2.2 1.1-7.9-.7-11.4-.7l.5 1.3c-10-2.4-7.8-.9-19.5-3.3 4.9 1.6 2.8 2.3-2.1 3.5l-8.1-2.7-1.6 2c-3.3-.8-7-.5-10.7-.2-3.3-2.2-15.7-2-17.7-3.2-3.6 2.8-9.7-.7-12.3 1.9-1.4-.4-2.8-.7-4.4-1 1.7-1.2 2.4-2.6-.9-2h-.6l1.1-1.2c.5-1.5-4.1.4-8.2 1.7 2.1-.4 4.5-.5 6.7-.3l-1.2 1.4c-2.9-.3-5.9-.5-8.9-.6 1.2-.2 2.3-.5 3.4-.8-1.4.2-2.7.5-4 .8h-1.2c.2.1.5.1.7.1-2.2.5-4.8.5-7 0-11.6 2.5-25.8-3.4-38.6 0 1.9-.3 4.6-.5 5.4.1-10.7-.2-21.3 2.1-28.1.9l.5-1.5c-6.7-.7-13.4-1.1-20.2-1.1l-.5-1.8c-9.2.6-28.9-2.1-34.5 1.4-2.2-1.3-12.7.4-17.9-.1l-1.3 1.3c-4.7.3-9.4.2-14.1-.3l.6-.1c-3.3-.8-7.1-.8-10.3 0 2.5-.1 4.9.1 7.4.2-4.5.8-8.9 1-13.2 1 1.6-.2 3.6-.8 5.9-1.2-3 .1-6 .4-8.9.9a.76.76 0 0 0 .4.2c-7.4-.2-14.6-1.1-21.5-.9l-.1.4-12.2-.9c3.2 1.2-2.4-.8-6.1-.5-4.9-.5-10.1-.4-14.8.5l-7.8.1c8.7.9-.6 1.9-1.1 3.4l-5-1.2c-2 .7 3.2 1.2-.5 1.5-3.3-.8-13.2-.8-16.3-2.3.8-.5 1.9-.8 3.2-1 .2 0 .3.1.3.1h-.2c1.1-.1 2.2-.2 3.4-.4-1.1.1-2.2.2-3.2.4 0 0-.1 0-.2-.1.1 0 .2-.1.3-.1h-.4c-.3-.1-.6-.2-.8-.3l1.4-.1c-1-.1-1.6-.2-2-.2h0c-6.2.3-3.9-.3-3.7-1-6.7 2.2-10.7.9-15.8 3.2 5.2-2.6-16.7.2-12.2-2.7-5.2 2.4-3.6.1-7 2.1 7.4-.6 14.7 1.5 20.7 2.5l-5.8 1.4c3.8 2.7 13.1-1 16.6-.1-2.3-.6-7.6 0-7.8.6l1.6-2c8.3-.8 15 .8 20.9 1.8-5.6.7 6.8 1.2 2.7 2.7l-4.4-.3c-2 .7 2.3 1.3 4.7 1.9 14-1.5 39.6-.2 44.6-1.8-3.6.4-7.3.2-10.6-.5l6.6-.8c-5.3-.1-9.5 1.7-17.4 1.1 1.3-1.3-4.4-3.1 1.6-4.9 15-2 12.4 3.4 30.5 2.9 1.7.4-3.8-2.1 5.9-1.4 12.1 1.3 21 4.2 21 7.1-5.1-.8-15.3-2.5-16.9-.4 5.1.8 13.9 1.3 14.4 2.6 5.3-2.4-9.6-.7-2.7-2.7 2.4.1 4.8.5 6.8 1.2-2.4-1 3.2-1.6 4.3-2.2 11.6 0 18.3-1.1 30.7-1.3.7-.3 2-1.1 1.7-1.7 6.1.6 14.7 4.2 12.5 5.6 7.1.1 7.5-1 13.6-.4-9.7 2.1 1.9-.4 2.9 1.9 6.2.3 2.2-1.1 5-1.6 1 .2 3.5 1 3.7 1.6 3.8-1.7-7.4-4.5-2.9-6.5 3.1-1.3 16.4-3.5 17.4-3.7 3 1.9 2.1 9.8-2.3 12.4.5 1.3 5.9-1.4 8.6-1.6 7.9-2.1 12 1.7 18.6.8l-5-1.2c1.1-.5 10.7.2 12.3.9.2-.7-5-3.8-2-4.7 11.8-.4 22.9 3.7 22.2 6L549 24.9c-.6 1.9 12.8 1.9 12.1 4.1l16.6-.7c-2.1-.1-8.5-.6-6-1.6 7.1.1 3.7-.3 8.5-1.2-10.3-3.3-19.8-7-28.5-11.3l8.6 1.2 2.1-1.1c11.2 1.5 21.3 8.8 24.2 10.7 6.4-.5 4.2-4.5 2.6-5.2 12.6-.2 12.5 5.6 25.2 5.1l-4.8.9c3 .4 13.9-.4 12.8.3 2.3-1 4.4-3.2 2.6-4l10.7 3.5c-1.7-.4-.6-3.6-1.3-4.2 4.5-.1 7.7 3.7 4.9 4.2 8.8-2.3 6.7-1 13.8-3.8 2.6.2-.2 3.4-2.2 3.7 4 .6 8.2.7 12.2.1-9.8-1.4-2.7-7.2-4.5-9.6l21 9.5a12.54 12.54 0 0 1-2.3-4c1.8 2.8 25.8 3.2 37.6 2.8H713c-1.9-.8 3.9-1.4 8.6-1.2 7.9-2.1 10.2 4.3 18.1 1.8-7.3.3-8.7-.9-8.3-2 6 1 19.8-.1 16.9 3.2 3.8-.7 7.3-.3 6.9-2l14.6 2c-1.1-.3-2-1.3 2.3-1.6-8.2.4-16.2-2.7-20.5-.5-.2-2.1 2.9-3.2-1.1-4.9 15.8 1 24.5 4.5 34.5 6.9l13.9-1.5.6.9 2.4-2.4c1.7.5 2.9 1 3.2.8s-.1-.5-.8-.9c1.2.1 2.4.3 3.5.6.5-1.2-1.9-2.7-4.5-4-.2.1-.3.1-.5.2l-2.7-.7 1.9.9-2.5.9c-2.7-1.2-4.7-2.4-.9-3.2.5.2 1.2.3 2 .5-1.7-.9-2.8-1.6-1.5-2l10.7 1.1c-1.8.5-3.5 1.1-5.1 1.8 4.6 1.1 9.6 2.3 10.4 3.4-.7.4-1.2.9-1.3 1.3-.2.1-.5.2-.8.2l.8-.1c-.1.5.3 1 1.5 1.5l-3.3-.2c.2 0 .4-.1.5-.1l-.7.1-1.2-.1c.1.1.2.2.3.2l-3.8.6a26.29 26.29 0 0 0 3.9-.6c2.6 1.6 14.6-.2 17.2 1.9l9.6-1.4c.8.1 1.7.2 2.7.4.2-.3 0-.5-.3-.8l2.8-.4c-.5.8 2 2-.4 2.2 3.7 0 6.9.2 2.1 1.3 9.4-1.4 19-2.1 28.5-2.4l2.4.8c1-.3.1-.5-.7-.8 3.1-.1 6.2-.1 9.3-.1 5.9.7 10.6.9 16.5.3 11.8.4-5.1 3.4 4.9 3 1.2-1.1 2.3-2.4 6.1-3 1.3 0 2.6 0 3.9.1 2.3.9 2.5 1.7 7.5 2.4l-.4-2.1c3.8.1 7 .3 8.5-.2a210.28 210.28 0 0 0 11.3-.3c.5.1.8.2 1 .4 1.9-.4 3.2-.5 4.8.8-.9.7-3 .4-4.8.1-1.6 1.4-8.5 3.1-9.7 3.7 7.2-.6 12.6.3 17-2.2l-6.8-.6c13.2-2.4 13.9 2 18.9-.5l5.4-1.7 2.9.9.4.5c.8 0 .5-.2-.5-.6h0 1.4c-.3.3-.5.5-.4.7 6.1.2 12.2 0 18.1-.3l2 .3c-.5-.1-.8-.2-.9-.3l11.6-.6c3.9 1.2 4.5 3.6 10.7 2-1.2 0-1.5-.2-2.7-.2l4.4-1c.9 4.5 26 .5 26.9 5 6.3-1.8.4-1.1-7.6-3.2l6.7-1.3c-.6-.1-1.2-.1-1.7-.1.1-.1.2-.1.3-.2-.1.1-.2.1-.3.2-2.1-.1-4 0-6.3-.3 1.8-.4 3.6-.6 5.3-.7 1.3.2 1.9.4 1.3.8.7-.3 1.5-.6 2.3-.8 5.2.3 9.8 1.6 12.9 2.3 3.3-.6-2.6-3.4 6.9-2.6 13.5.9-2.6 3.3 5.5 3.8l5.9-2.3c10.3 1.8 18.1.2 26.8-.1 1.3.1 2.4.3 3.4.7l.4.2-.2-.2c9.3-.9 19.4 2.3 26.3 1.5-1.6-.5 4-1.5 4.8-2l12.6 1.4c-3.4-.4-4.6-1-5.3-1.8h.5c2.3.2 2.9.1 2.9-.1 1-.1.8-.4 1.2-.7.9.2 1.8.3 2.8.4-.9-.3-1.7-.5-2.1-.8.5-.2 1.2-.3 2.4-.5h.4l11.3 1.9c-1.1.2-2.3.4-3.6.4 3.3 0 10.5.9 15.2-.2-.1-.2-.4-.3-.7-.5 1.1.1 2.2 0 3-.4-6.3.1-5.5-1.2-3.2-1.8h3.1c1.6.6 2 1.4 1.1 2.1.8-.1 1.5-.1 2.2-.2l-.5.4c4.2 0 8.4-.1 12.7-.2.8.1 1.7.3 2.7.5l-.4-.5 23.8-.7c1.6.5 3.1.6 5.1-.2h.7c4.2 1-9.3 2.2 3.1 2.5 3.4-.9 7-1.5 10.8-1.8 3.8.6-2.1 1.7-5 1.7 11.2.4 13.1-1.7 16.6-3h8.7c-.1-.3.3-.5.9-.7.7.1 1.5.1 2.3.2-5.9 1.2 4.9 3.1-9.1 3.1 6.7 1 13.2-2.3 20.1-.6l-4.5-2c2.3.1 4.6.4 6.7 1l-.6-1.6c5.3 1.7 10.1.8 14.3.7 6.1 5.8 28.3-.6 44.3 1.3-.7-.1-1.3-.4-1.6-.7 11.4 1.5 24.9-.4 31.7-.8h3.3a.9.9 0 0 1 .5.1l.1-.1c1.8-.1 3.7-.2 5.8-.6 8.3 1.6 11.2 1.7 23.7.8 0-.1-.2-.1-.3-.2 1.5.2 3.5.4 6.4.7-.2 0-.4-.1-.5-.1 2.7.5 6.2.8 11.9.7l-.4-.3 15.6.3c-.1-4.3 18.8.8 27.7-.7l15.3.2c3.1.3 6.1.5 8.1.8 0-.2.3-.4 1.2-.7 3.8 1.7 9.8.9 15.3.2.9 0 1.9.1 2.8.1l-6 .5c2.3-.1 8.5.7 13.7.5l-1.2.6c8.6-2.2 23.6 2.4 26.8 1.5 6.3-.2 2.3-2 4.1-3.1 9.3.5-1.6 4.6 11 2.6-1.5-.2-4.1-.4-3.1-.7 2.7-.2 6.7-2.2 10.4-3.7.6-.1 1.3-.1 1.9-.1l-1.5 1.6c10.9-.4 18.3-1 25.5-1.4l-.2.4c1.8-.3 3.3-.4 4.5-.6 1.9-.1 3.8-.1 5.8-.2 1.4.2 2.6.4 7.4 0 1.2 0 2.4 0 3.7.1l-.7-.3c5.9-.5 9.4-.3 12.2.7h-.4.5l.6.3c.2-.1.3-.2.3-.3 5.3.1 10.7.1 16-.1 1 .2 5 .6 6.2.1.4 2.1 19.5 1 23.2.9-6.6-.3-3.5-1.2-1.6-2.1 3.9 1.7 6.6 1.9 12 .7.8 2.7 1.9 5.5 12.6 5.6-1.7-.4-4.3-.6-3.2-1.2 1.1-.5 3.6 0 4.4.2 1.1-.5-2.4-1-1.2-1.9 7.2 2.5 12.5.2 23 1.1-3.3-.8-.5-1.3.7-2.2.8 3 14.3-2.6 10.3 1.3 20.5-2.3 52.1-.2 60.1-2.7 2.2-1.1 7.9.7 11.4.7l-.5-1.3c10 2.4 7.8.9 19.5 3.3-4.9-1.6-2.8-2.3 2.1-3.5l8.1 2.7 1.6-2c3.3.8 7 .5 10.7.2 3.3 2.2 15.7 2 17.7 3.2 3.6-2.8 9.7.7 12.3-1.9 1.4.4 2.8.7 4.4 1-1.7 1.2-2.4 2.6.9 2h.6l-1.1 1.2c-.5 1.5 4.1-.4 8.2-1.7-2.1.4-4.5.5-6.7.3l1.2-1.4c2.9.3 5.9.5 8.9.6-1.2.2-2.3.5-3.4.8 1.4-.2 2.7-.5 4-.8h1.2c-.2-.1-.5-.1-.7-.1 2.2-.5 4.8-.5 7 0 11.6-2.5 25.8 3.4 38.6 0-1.9.3-4.6.5-5.4-.1 10.7.2 21.3-2.1 28.1-.9l-.5 1.5c6.7.7 13.4 1.1 20.2 1.1l.3 1.7c9.2-.6 28.9 2.1 34.5-1.4 2.2 1.3 12.7-.4 17.9.1l1.3-1.3c4.7-.3 9.4-.2 14.1.3l-.6.1c3.3.8 7.1.8 10.3 0-2.5.1-4.9-.1-7.4-.2 4.5-.8 8.9-1 13.2-1-1.6.2-3.6.8-5.9 1.2 3-.1 6-.4 8.9-.9a.76.76 0 0 0-.4-.2c7.4.2 14.6 1.1 21.5.9l.1-.4 12.2.9c-3.2-1.2 2.4.8 6.1.5 4.9.5 10.1.4 14.8-.5l7.8-.1c-8.7-.9.6-1.9 1.1-3.4l5 1.2c2-.7-3.2-1.2.5-1.5 3.3.8 13.2.8 16.3 2.3-.8.5-1.9.8-3.2 1-.2 0-.3-.1-.3-.1h.2c-1.1.1-2.2.2-3.4.4 1.1-.1 2.2-.2 3.2-.4 0 0 .1 0 .2.1-.1 0-.2.1-.3.1h.4c.3.1.6.2.8.3l-1.4.1c1 .1 1.6.2 2 .2h0c6.2-.3 3.9.3 3.7 1 6.7-2.2 10.7-.9 15.8-3.2-5.2 2.6 16.7-.2 12.2 2.7 5.2-2.4 3.6-.1 7-2.1-7.1.5-14.4-1.6-20.4-2.6zM366.1 12c-.1 0-.1-.1-.2-.1 3-.3 4.6-.6.2.1zm271.4 3.8c-.1-.2-.4-.4-.6-.6 1.6 0 .7.2.6.6zm151.9 7.3c2-.4 4.1-.5 6.2-.3-2.5.5-4.8.8-6.2.3zm531.4-9.9c.7.3 1.3.6.8.6a52.78 52.78 0 0 1-2.1-.3l1.3-.3zm-17.8 1.2h-2.9c-.7-.3-2.1-.9-3.7-1.2 3-.7 4.8.3 6.6 1.2zm-343.3-.9c-.5-.2-.6-.4-.6-.6h1c0 .3-.2.4-.4.6zm-49.1 2l-1.8.6c.1-.3.8-.5 1.8-.6zm-58.3-.4c.5.4 2.6.8 1.3 1.3-.8-.2-1.6-.5-2.3-1.1l1-.2zm292.6 12.2c-.7-.3-1.3-.6-.8-.6a52.78 52.78 0 0 1 2.1.3l-1.3.3zm17.8-1.2h2.9c.7.3 2.1.9 3.7 1.2-3 .7-4.8-.4-6.6-1.2zm343.3.8c.5.2.6.4.6.6h-1c0-.2.2-.4.4-.6zm49.1-2l1.8-.6c-.1.3-.8.5-1.8.6zm58.3.4c-.5-.4-2.6-.8-1.3-1.3.8.2 1.6.5 2.3 1.1l-1 .2zm56.7-7.6c2.5-.5 4.8-.8 6.2-.3-2 .4-4.1.5-6.2.3zm158.1 7c.1.2.4.4.6.6-1.7 0-.7-.2-.6-.6zm271.4 3.8c.1 0 .1.1.2.1-3 .3-4.6.6-.2-.1z"/><path d="M1521.9 14l2.4-.4-2.4-.5c-.4.3-.4.6 0 .9zm-548.3-1.3c.2 0 .5 0 .6-.1l-.6.1zm1191.3 8.1l-3.7.4 2.3 1.3zm-23.7 1.4c-1-.1-1.8-.3-1.7-.6l-6.4.5c-.2.5 4.2.1 8.1.1zm-175.1-7.1c1-.4 2.3-.7 3.6-.8-2.8.1-3.7.4-3.6.8zm195.5 10.2c4.3.6 8.6 1.3 7.4-.6h.7c-4-.2-7.6-.7-8.1.6zm-39.2 4.7c-1.1.6-.4-1.5-2.3-1.2-10.4-.9 4.4 2.9 2.3 1.2zm33.3-.3a17.69 17.69 0 0 1-5.2.5l5.1.3c-.7-.1 0-.5.1-.8z"/><path d="M2156.3 30.6l-.7-.1c.1.1.4.1.7.1zm52.5-9.6c-.8-.2-1.8 0-2.6-.2-3.7.2-1.2.8 2.4.9l.2-.7zm-38.1 3.7c2.2.2 4.1.8 3.7 0-1.2.1-2.5 0-3.7 0zm-512.5-8.6c.1-.3.4-.6.8-.9-1.5.3-1.5.6-.8.9zm427 1.7l-3.3-.8.2 2.1c1.1-.6 1.2-.9 3.1-1.3zm56 4.4c1.8.2 3.5.3 5.2.3-1.7-.3-3.4-.4-5.2-.3zm14.8-1.8l-6.4.4 4.5-.1zm-285.1-5.9c-2-.7 6.1-.7 4.1-1.5-7.5 1-1.2-1.9-9.5-1.1-2.2 2.2.4 1.7 5.4 2.6z"/><path d="M1960.7 20h-1.8l1.5 3.4zm104-2.7c6.4-.4-.6-.9-1.3-1.5-8.9-.1.6.9 1.3 1.5zm-7.8 4.6l7 .5c1.1-.5-1.5-.8-3.2-1.2-2.6-.2-4.5.1-3.8.7zM812.7 29.7l5.4-.7-1.9-.4zm599.5-21.1l-6.5-.3c-.6 2.3 1.9.4 6.5.3zM803.4 26.7l3.2 2 1.3-2.2c-.9.5-3.3.3-4.5.2zm1067.5-12.2c.8.2 1.7.4 2.6.5-.8-.2-1.7-.4-2.6-.5zm-331.7-5.3l-4.2 1.2c2.5-.1 3.8-.1 4.6-.7l-.4-.5zm-72.6 1.5l-1.1 2 2.3-2zM154.4 9.3l5.1.8c3-.9 4.1-1.4-1.2-1.9 1.7.4-2.9.5-3.9 1.1zm9.9 2.6c-1.4-.7-2.1-.6-2.6-.4l2.6.4zM47.7 10c.4.3-.5 1.6 1.9 1.5-.1.4 2.1-1.2-1.9-1.5zm41.2 4.7l5.1.8-5.8-1.4zm56.5-5.2c-1.3.1-2.5.1-3.8.1-.3.1-.5.2-.8.2 8.8.5 3.4.6 4.6-.3zm-19.6 5.2c-5.7.6-16-.6-24-.9l3 1.9 1.1-.5c6.6-.8 16.4 1.9 19.9-.5zm27.1-3.6c-9.8-.3-11.2 1.4-1.4 1.7-5.1-.8-1.4-1.1 1.4-1.7z"/><path d="M159.1 11.2c1.8 1.4 1.8.6 2.6.3l-5.6-.7c2.4.5 3.5 1.2 3 .4zm32.2-2.3c-.3.7-3.9 1.1-5.9 1.4l3.8.6c.4-.6 2.4-1.5 2.1-2z"/><path d="M120.5 17l3.3.8 3.8-.7c.2-.7-5.5.3-7.1-.1zm74.3-5.2l-5.6-.9c-.3.6.6 1 5.6.9zM227.2 9c3.4-.7 7.2-.9 10.9-.4-3.1-.9-6.6-1.5-10.2-1.8 2.5.6-3.1 1.3-.7 2.2zm-14.4-.2l2.5.6-5.7-1.8z"/><path d="M165.3 14.5h1.7l-11.1-1.8zm72.8-5.9l5 1.1c-1.6-.6-3.3-.9-5-1.1zm-43 5l6-.3-6.4-1c1.6.4.6.9.4 1.3zm-15-.4c4.9 1.2 1.1 1.9 3.5 2.9 6.7-1.2-.2-2.1-3.5-2.9zm24.4-1.7h-.6c.2.2.3.1.6 0z"/><path d="M208.9 10.1c-1.8.1-3.5.7-4.4 1.4h2.1.1 0l4.8-.1-4.8.1 2.2-1.4zm63.5 1.9l.5-.3-.6.1c0 .1.1.2.1.2zm-51.8-.5c-.2 0-.4 0-.6-.1 0 .2.3.2.6.1zm12.2-.5c-3.7-.1-2.2.7-1.7 1.2 3.5 0 6.9-.1 10.3-.4-2.9 0-5.9-.2-8.6-.8z"/><path d="M201.2 13.3l2.9.5-.7-.6zm46.2-2.2l4.5-.8c-.5-.4-3.2.3-4.5.8zm-26.3-.1c.1 0 .3 0 .4.1.4-.3.5-.4-.4-.1zm9.4 1.5c.8 0 .8-.1.6-.3-2.1 0-4.1-.1-6.2-.2 1.6.6 3.7.7 5.6.5z"/><path d="M280.6 15.7c-3.8.7-2.4 1.8-10.2 1.2-5-1.2 6.1-2.2 8.1-2.9-5.9-.8-5.9-1.3-6.1-1.9-5 2.4-8.8 6.8-3 7.8 5.8-1.4 12.6-.2 13.1 1.1 1.9-.5-.6-1.1-.5-1.4l6.9.9c1.7-2.4-11.5-3.2-8.3-4.8zm-60-4.2l4.3.5c-1.1-.4-2.2-.7-3.4-.9l-.9.4zm39.7.4l12-.2c-.3-.4-1.1-.9-5.2-1.6-2.6.9-5.4 1.5-8.4 1.8l2.4.2-.8-.2z"/><path d="M258.7 12l-11.6-.8c0 .1.1.1.1.2 1 .2 3.9.2.5.5-.2-.2-.4-.3-.5-.5h-.2c-.6.1-.4 0 .1-.2h.1c.1 0 .2-.1.3-.1l-6 .7c2.1 0 4.2.2 6.2.4-8.3.8 6.5 2-5 1.6 4.3.6 2.1 1.7 9.3 1.8 3.6-1.6-2.3-2.2-4.2-3.6a99.08 99.08 0 0 0 10.9 0zm-68.6 6.8c0 .1-.1.3-.4.3 1.4 0 1.2-.1.4-.3zm796.6-5.7c0-.3-.7-.6-2.4-.9-.3.4.7.7 2.4.9zm120.8 17.5l-3.3-1.5c.4.7-1.9 1.5 3.3 1.5zM199.8 15.1c.4-.2.5-.3.4-.3-.1.1-.3.2-.4.3z"/><path d="M189.6 17.1c-5.2.7-1.1 1.3.6 1.7.1-.5-2.3-.7.1-1.2 1.5-.1 3.1.1 4.3.6 2.1-.7 3.9-1.8 5.2-3.1-1.4.6-5.8 1.8-9.4 2.2l-.8-.2zm36.8-.4l-.2.7 4.9-1.2-9.6-.7c.6.6-.5 1.5 4.9 1.2zm766 10.8c.9.2 1.8.4 2.8.4l-2.8-.4zM286.6 11.2l2.8-.5-3.3-.8zm-8.3.4l-5.6-2.1L274 11zm1344.8 1.6l4.9.1c-1.6-.2-3.3-.2-4.9-.1zM460.4 19.9h-.2c-.4.2-.6.2.2 0zm-121.3-9.3l-2.3-.1c.1 0-.1.1-.6.2l2.9-.1zM721.7 23l3.2.4c-.7-.5-1.7-.4-3.2-.4zm-58.9 3.2l-.4.1c.1 0 .2 0 .3.1l.1-.2c3.1-.3 5.4-.5 9.3 1.3l-6.2-5.4-3.1 4.1z"/><path d="M721.7 23h0-.2c0 .1.1 0 .2 0zm222.1 3.4l-2.4.4 2.4.5c.4-.3.4-.6 0-.9zm548.3 1.3c-.2 0-.5 0-.6.1l.6-.1zm-1191.3-8l3.7-.4-2.3-1.3zm23.7-1.4c1 .1 1.8.3 1.7.6l6.4-.5c.2-.5-4.2-.1-8.1-.1zm175.1 7.1c-1 .4-2.3.7-3.6.8 2.8-.1 3.7-.4 3.6-.8zM304.1 15.2c-4.3-.6-8.6-1.3-7.4.6h-.7c4 .2 7.6.7 8.1-.6zm39.2-4.7c1.1-.6.4 1.5 2.3 1.2 10.4.9-4.4-2.9-2.3-1.2zm-33.3.3a17.69 17.69 0 0 1 5.2-.5l-5.1-.3c.7 0 0 .4-.1.8z"/><path d="M309.4 9.9l.7.1c-.1-.1-.4-.1-.7-.1zm-52.5 9.6c.8.2 1.8 0 2.6.2 3.7-.2 1.2-.8-2.4-.9l-.2.7zm34.4-3.7c1.2-.1 2.5 0 3.7 0-2.2-.2-4.1-.8-3.7 0zm516.2 8.6c-.1.3-.4.6-.8.9 1.5-.3 1.5-.6.8-.9zm-427-1.7l3.3.8-.2-2.1c-1.1.6-1.2.9-3.1 1.3zm-56-4.4c-1.8-.2-3.5-.3-5.2-.3 1.7.3 3.4.4 5.2.3zm-14.8 1.8l6.4-.4-4.5.1zM594.8 26c2 .7-6.1.7-4.1 1.5 7.5-1 1.2 1.9 9.5 1.1 2.2-2.2-.4-1.7-5.4-2.6z"/><path d="M505 20.5h1.8l-1.5-3.4zm-104 2.7c-6.4.4.6.9 1.3 1.5 8.9.1-.6-.9-1.3-1.5zm7.8-4.6l-7-.5c-1.1.5 1.5.8 3.2 1.2 2.6.2 4.5-.1 3.8-.7zM1653 10.8l-5.4.7 1.9.4zm-599.5 21.1l6.5.3c.6-2.3-1.9-.5-6.5-.3zm608.8-18.1l-3.2-2-1.3 2.2c.9-.5 3.3-.3 4.5-.2zM594.8 26c-.8-.2-1.7-.4-2.6-.5.8.2 1.7.4 2.6.5zm331.7 5.3l4.2-1.2c-2.5.1-3.8.1-4.6.7l.4.5zm72.6-1.5l1.1-2-2.3 2z"/></svg>