<?xml version="1.0" encoding="utf-8"?>
<!-- Generator: Adobe Illustrator 25.4.1, SVG Export Plug-In . SVG Version: 6.00 Build 0)  -->
<svg version="1.1" id="Layer_1" xmlns:v="https://vecta.io/nano"
	 xmlns="http://www.w3.org/2000/svg" xmlns:xlink="http://www.w3.org/1999/xlink" x="0px" y="0px" viewBox="0 0 1732.6 25.7"
	 style="enable-background:new 0 0 1732.6 25.7;" xml:space="preserve">
<style type="text/css">
	.st0{fill:#47AAD5;}
</style>
<path class="st0" d="M1614.6,22.5c-0.4-0.3,0.5-1.6-1.9-1.5C1612.8,20.6,1610.6,22.2,1614.6,22.5z M1568.3,17l5.8,1.4l-0.7-0.6
	L1568.3,17z M1560.5,18.7l-3-1.9l-1.1,0.5c-6.6,0.8-16.4-1.9-19.9,0.5C1542.2,17.2,1552.5,18.4,1560.5,18.7z M1520.7,22.9
	c0.3-0.1,0.5-0.2,0.8-0.2c-8.8-0.5-3.4-0.6-4.6,0.3C1518.2,22.9,1519.4,22.9,1520.7,22.9L1520.7,22.9z M1504,24.3
	c-1.7-0.4,2.9-0.5,3.9-1.1l-5.1-0.8C1499.8,23.3,1498.7,23.8,1504,24.3z M1500.6,21l-2.6-0.4C1499.4,21.3,1500.1,21.2,1500.6,21z"/>
<path class="st0" d="M1503.2,21.3c-1.8-1.4-1.8-0.6-2.6-0.3l5.6,0.7C1503.8,21.2,1502.7,20.5,1503.2,21.3z M1510.8,19.7
	c5.1,0.8,1.4,1.1-1.4,1.7C1519.2,21.7,1520.6,20,1510.8,19.7z M1541.8,15.5l-3.3-0.8l-3.8,0.7C1534.5,16.1,1540.2,15.1,1541.8,15.5z
	 M1476.9,22.2l-3.8-0.6c-0.4,0.6-2.4,1.5-2.1,2C1471.3,22.9,1474.9,22.5,1476.9,22.2L1476.9,22.2z"/>
<path class="st0" d="M1467.5,20.7l5.6,0.9C1473.4,21,1472.5,20.6,1467.5,20.7z M1495.3,18l11.1,1.8L1497,18H1495.3z M1447,23.1
	l5.7,1.8l-3.2-1.2L1447,23.1z M1424.2,23.9c3.1,0.9,6.6,1.5,10.2,1.8c-2.5-0.6,3.1-1.3,0.7-2.2C1431.7,24.2,1427.9,24.4,1424.2,23.9
	z"/>
<path class="st0" d="M1424.2,23.9c-1.6-0.4-3.3-0.8-5-1.1C1420.8,23.4,1422.5,23.7,1424.2,23.9z M1455.6,21l-2.2,1.4
	c1.8-0.1,3.5-0.7,4.4-1.4H1455.6z"/>
<path class="st0" d="M1450.8,21.1l4.8-0.1h0.1L1450.8,21.1L1450.8,21.1z M1457.8,21h0.6C1458.2,20.8,1458.1,20.9,1457.8,21z
	 M1478.7,16.4c-6.7,1.2,0.2,2.1,3.5,2.9C1477.3,18.1,1481.1,17.4,1478.7,16.4z M1467.6,20.2c-1.6-0.4-0.6-0.9-0.4-1.3l-6,0.3
	L1467.6,20.2z"/>
<path class="st0" d="M1458.9,19.3l2.2-0.1l-2.9-0.5L1458.9,19.3z M1431.2,20.3c-3.5,0-6.9,0.1-10.3,0.4c2.9,0,5.9,0.2,8.6,0.8
	C1433.2,21.6,1431.7,20.8,1431.2,20.3z M1441.7,21c0.2,0,0.4,0,0.6,0.1C1442.3,20.9,1442,20.9,1441.7,21z M1390,20.7
	c0-0.1-0.1-0.2-0.1-0.2l-0.5,0.3L1390,20.7z"/>
<path class="st0" d="M1431.2,20.3c2.1,0,4.1,0.1,6.2,0.2c-1.6-0.6-3.7-0.7-5.6-0.5C1431,20,1431,20.1,1431.2,20.3z M1414.9,21.4
	c-1.5,0.2-3,0.5-4.5,0.8C1410.9,22.6,1413.6,21.9,1414.9,21.4z M1441.2,21.5c-0.1,0-0.3,0-0.4-0.1
	C1440.4,21.7,1440.3,21.8,1441.2,21.5z"/>
<path class="st0" d="M1441.7,21c-1.4-0.2-2.8-0.4-4.3-0.5c1.1,0.4,2.2,0.7,3.4,0.9C1441,21.3,1441.3,21.2,1441.7,21L1441.7,21z
	 M1380.3,12.9l-6.9-0.9c-1.7,2.4,11.5,3.2,8.3,4.8c3.8-0.7,2.4-1.8,10.2-1.2c5,1.2-6.1,2.2-8.1,2.9c5.9,0.8,5.9,1.3,6.1,1.9
	c5-2.4,8.8-6.8,3-7.8c-5.8,1.4-12.6,0.2-13.1-1.1C1377.9,12,1380.4,12.6,1380.3,12.9L1380.3,12.9z"/>
<path class="st0" d="M1402,20.6l-12,0.2c0.3,0.4,1.1,0.9,5.2,1.6c2.6-0.9,5.4-1.5,8.4-1.8l-2.4-0.2L1402,20.6z"/>
<path class="st0" d="M1403.6,20.5l11.6,0.8l0,0c0-0.1-0.1-0.1-0.1-0.2c-1-0.2-3.9-0.2-0.5-0.5c0.2,0.2,0.4,0.3,0.5,0.5
	c0.1,0,0.2,0,0.2,0c0.6-0.1,0.4,0-0.1,0.2l0,0h-0.1c-0.1,0-0.2,0.1-0.3,0.1c2-0.3,4-0.5,6-0.7c-2.1,0-4.2-0.2-6.2-0.4
	c8.3-0.8-6.5-2,5-1.6c-4.3-0.6-2.1-1.7-9.3-1.8c-3.6,1.6,2.3,2.2,4.2,3.6C1410.9,20.3,1407.3,20.3,1403.6,20.5L1403.6,20.5z
	 M1472.2,13.7c0-0.1,0.1-0.3,0.4-0.3C1471.2,13.4,1471.4,13.5,1472.2,13.7z"/>
<path class="st0" d="M1462.1,17.7c-0.8-0.2,5.2-2,9.8-2.5l0.8,0.2c5.2-0.7,1.1-1.3-0.6-1.7c-0.1,0.5,2.3,0.7-0.1,1.2
	c-1.5,0.1-3.1-0.1-4.3-0.6C1465.4,15.1,1463.5,16.3,1462.1,17.7z M1435.9,15.8l0.2-0.7l-4.9,1.2l9.6,0.7
	C1440.2,16.4,1441.3,15.5,1435.9,15.8z M1384,20.9l5.6,2.1l-1.3-1.5L1384,20.9z M1372.9,21.8l3.3,0.8l-0.5-1.3L1372.9,21.8z
	 M667.1,4.6l2.8,0.4C669,4.8,668.1,4.6,667.1,4.6z M690.9,5.5l-0.5-0.6C689.6,4.9,689.9,5.1,690.9,5.5z M1061.6,21.4l-1.3,1.4
	c-0.5,1.5,4.1-0.4,8.2-1.7C1066.3,21.5,1063.9,21.6,1061.6,21.4z M862.2,13.5l-2.8-1.4l-1.2,0.4L862.2,13.5L862.2,13.5z M849.8,7.5
	l5.4-0.9C853.4,6.7,851.6,7.1,849.8,7.5z M554.8,1.9l3.3,1.5C557.7,2.7,560,1.9,554.8,1.9z M1238.8,21.6c3-0.1,6-0.4,8.9-0.9
	C1246.5,19.6,1243.1,20.8,1238.8,21.6z M675.6,19.4c0,0.3,0.7,0.6,2.4,0.9C678.3,19.9,677.3,19.6,675.6,19.4z"/>
<path class="st0" d="M1238.8,21.6c-2.8,0.1-5.6-0.1-8.4-0.3l-1.9,0.3C1231.8,22.4,1235.6,22.4,1238.8,21.6z M151.6,4.8
	c0.3-0.1,0.6-0.1,0.9-0.2C151.9,4.6,151.5,4.6,151.6,4.8z M39.2,19.3c-1.6,0-3.2,0-4.9-0.1C35.9,19.4,37.6,19.4,39.2,19.3z
	 M1337.3,15.5c0.1,0.3,0.5,0.6,1.1,0.7C1337.8,16.1,1337.4,15.8,1337.3,15.5z M1201.9,12.6h0.2C1202.5,12.4,1202.7,12.4,1201.9,12.6
	z M1326,21.7c1.2-0.1,2.3-0.2,3.4-0.4C1328.3,21.4,1327.2,21.5,1326,21.7z"/>
<path class="st0" d="M1331.2,21.8l-2.3,0.1C1331.3,22.2,1331.6,22.1,1331.2,21.8z M1325.5,21.9c-0.1,0,0.1-0.1,0.6-0.2
	c-1.4,0.1-2.9,0.2-4.3,0.1L1325.5,21.9L1325.5,21.9z M369.3,8.6c0.2-0.1,0.4-0.1,0.6-0.1C367.8,8.1,366.6,8,369.3,8.6z M999.4,6.3
	l0.4-0.1c-0.1,0-0.2,0-0.3-0.1L999.4,6.3z"/>
<path class="st0" d="M996.3,10.4l3.2-4.2c-3.1,0.4-5.4,0.6-9.4-1.2L996.3,10.4z M628.8,4.8c-8.8,1.9-17-0.5-21.8-1.7
	c-3.3,0.6,2.6,3.4-6.9,2.6c-13.5-0.9,2.6-3.3-5.5-3.8l-5.9,2.3c-10.3-1.8-18.1-0.2-26.8,0.1c-1.3-0.1-2.4-0.3-3.4-0.7
	c-9.3,1-19.5-2.3-26.5-1.5c1.6,0.5-4,1.5-4.8,2l-12.6-1.4c5.6,0.6,5.3,2,6.4,3.3c-4-0.1-5.8-0.9-8.5-1.1c1.6,0.5,3.3,1,1.2,1.6
	l-13.3-2.2c1.1-0.2,2.3-0.4,3.6-0.4c-3.3,0-10.5-0.9-15.2,0.2c0.4,0.5,2.1,1,2.5,1.5c4-1.5,6.2-0.2,8.3,0.8
	c-9.2-0.2-2.3,0.3-6.7,1.3c-6.5-0.1-9.1-1.8-7.4-3c-7.3,0.5-9.6,0.9-17.1-0.5l1.4,1.8L463,5.4l5.5,2.2c-13.1,1.2-2.4-3.1-17-2.1v1.6
	c-5.6-0.6-7.5-3.3-11.9-1.4c-5.4-1,9.3-2.3-3.5-2.6c-3.4,0.9-7,1.5-10.8,1.8c-4.1-0.7,3.1-1.9,5.7-1.7c-19.3-0.8-12,5.5-29.2,3.4
	c5.9-1.2-4.9-3.1,9.1-3.1c-6.7-1-13.2,2.3-20.1,0.6l4.5,2c-2.3-0.1-4.6-0.4-6.7-1l0.6,1.6c-8.6-2.8-16,1.3-21.1-2.3
	c3.6,2.9-6.4-0.2-9.8,0.9c7.1,2,20.3-0.1,21.2,2.6C376,9,373,7.7,369.9,8.4c2.3,0.3,4.4,0.9,6.3,1.6c-10.9,1.5-17.1-1.6-23.7-2.3
	l11.7,0.6c-0.9-2.6-5.2-0.4-8.5-2.5c-5.8,1.4-10.4-0.6-15.1,0.2c1.3,0,1.4,0.2,2.6,0.2c-12.7-0.1-16.2,4.2-21.3,4.3
	c-5,0.3-14.4-1.1-11-2.2c-4.1-0.7,16.9,0.8,9.6-2.6c-7.3,4-14.9-1.5-30.7,1.2c6.9,1.4-4.1,2.2,2.1,3.3c-7.5-0.3-7.8-0.9-11.2-2
	l-2.3,1.2c-9.8-2.8-2.3-2.4-17.2-3.9c5,1-6,1.8-2.2,2.7c-3.8,0.1-7.7-0.2-11.2-1l0.5,0.2C233.2,6.8,236,9,222.2,7.6l1.4-0.7
	c-18-2-40.7-0.7-59.4-1.6l6.6-0.6c-2,0.4-12.5-1.2-18.3,0c1.4,0.2,2.8,0.3,4.2,0.3c-0.2,0.8-2.4,2.1-6.9,2.3L148.1,6l-1.8,1
	c-6.8,0,2-1.8-4.8-1.8c-4,3.7-29.4,0.5-35.3,3.7c-4.6-2.6,12.9-0.4,7.8-2.8c-2.3,0.6-4.8,1-7.4,1.1l1.5-1.6
	C87.6,6.4,79.7,7.8,61.3,7.4L62,7.7c-6.5,0.6-10.1,0.3-13-1c-1.4,0.7,3.4,1.1,0.8,1.8c-11.5-4-23,3-30.1,0.1
	c0.9,3.2-14.1,6.2-7.9,8.7L7.2,17c1.6,2.1,14.8,0,17.6,2.2L39.7,17c-0.5,0.8,2,2-0.4,2.2c3.7,0,6.9,0.2,2.1,1.3
	c35.6-5.4,72.2-0.2,107.2-3c2.4,0.2,1,0.9,0.1,1.4c6.5-2,6.2,1.1,9.7,1.3l9.4-2.9c3.8,0.9,0.8,1.8,1.1,2.4
	c17.9,0.6,35.3-2.3,49.8-0.5c4.6-1.1-1.1-2.4,5-2.7c-8.3,3,17.7,1.4,12.5,3.5c5.9-3.2,21.9-0.7,19.2-5.1c7.3-0.3,6,1.9,3.9,2.3
	c8.4-0.2,15.3-0.2,22.2,1.2c4.6-1,38.6,1.1,46.1-2.2c-5.1,2.2,0.4,1.1,5.3,2.1l-4.5,1.9l11.1-0.2c2.3,0.2,2.9,0.1,2.9-0.1
	c1.9-0.1-0.4-1.1,4.3-1.6c7.6-0.1,7.9,0.9,12.1,1.9l-1.2,0.3l5.1,0.2c3.8-0.1-13.4-1.9-1-2.9c0.2,0.5,7.4,3.1,10.7,1.7
	c-6.3,0.1-5.5-1.2-3.2-1.8l8.8-0.1l-2.9,2.4c25.3-0.1,51.7-1.9,78.7-1.7c-0.4-2.1,19.1-0.1,16.7-3.2l-1,0.3
	c-6.6-0.3,1.9-2.5,7.3-2.1c-5.7,1,10.1,3.1-3.6,3.6l10.6,1.5c5.9,6,28.3-0.5,44.4,1.4c-0.7-0.1-1.3-0.4-1.6-0.7
	c14.3,1.9,32.1-1.6,35.4-0.7l1.3-1.6c12.2,2.5,13.7,2.8,28.3,1.7c-0.2-0.3-1.9-0.7,0.4-1.1c3.5,1.2,7,2.4,17,2.1l-0.4-0.5l15.6,0.3
	c-0.1-5.1,26.8,3.1,31.5-2.4c3.1,1.5,14.5,2,19.6,2.7c0-0.2,0.3-0.4,1.2-0.7c6,2.7,17.3-0.9,24-0.5c4.3,0.7,2.5,1.5,0.6,2.4
	c8.6-2.2,23.6,2.4,26.8,1.5c6.3-0.2,2.3-2,4.1-3.1c9.3,0.5-1.6,4.6,11,2.6c-1.5-0.2-4.1-0.4-3.1-0.7c4.8-0.4,13.3-6.3,18.1-5.1
	l-3.1,0.9c8.7,1.3,20.6-4.1,22-0.7l-0.8,1.6c15-2.1,6.4,0.6,21.6-1.2l-0.2-0.3c6.6,0.3,10.2-1.7,13.5,0.9l-2.3,0.3
	c5.8,0.1,11.6,0.1,17.4-0.1c1,0.2,5,0.6,6.2,0.1c0.4,2.1,19.5,1,23.2,0.9c-6.6-0.3-3.5-1.2-1.6-2.1c3.9,1.7,6.6,1.9,12,0.7
	c0.8,2.7,1.9,5.5,12.6,5.6c-1.7-0.4-4.3-0.6-3.2-1.2c1.1-0.5,3.6,0,4.4,0.2c1.1-0.5-2.4-1-1.2-1.9c7.2,2.5,12.5,0.2,23,1.1
	c-3.3-0.8-0.5-1.3,0.7-2.2c0.8,3,14.3-2.6,10.3,1.3c20.5-2.3,52.1-0.2,60.1-2.7c2.2-1.1,7.9,0.7,11.4,0.7l-0.5-1.3
	c10,2.4,7.8,0.9,19.5,3.3c-4.9-1.6-2.8-2.3,2.1-3.5l8.1,2.7l1.6-2c3.3,0.8,7,0.5,10.7,0.2c-1.8,0-0.8-0.2-0.7-0.6
	c1.8,2.8,16.2,2.5,18.4,3.8c3.6-2.8,9.7,0.7,12.3-1.9c1.4,0.4,2.8,0.7,4.4,1c-1.7,1.2-2.4,2.6,0.9,2c0.3,0,0.5,0,0.8,0l1.4-1.6
	c2.9,0.3,5.9,0.5,8.9,0.6c-1.2,0.2-2.3,0.5-3.4,0.8c1.4-0.2,2.7-0.5,4-0.8c0.4,0,0.8,0,1.2,0c-0.2-0.1-0.5-0.1-0.7-0.1
	c2.2-0.5,4.8-0.5,7,0c11.6-2.5,25.8,3.4,38.6,0c-1.9,0.3-4.6,0.5-5.4-0.1c10.7,0.2,21.3-2.1,28.1-0.9l-0.5,1.5
	c6.7,0.7,13.4,1.1,20.2,1.1l0.3,1.7c9.2-0.6,28.9,2.1,34.5-1.4c2.2,1.3,12.7-0.4,17.9,0.1l1.3-1.3c5-0.3,10.1-0.2,15.1,0.4
	c13.8-2.7,26.6,0,38.7-0.2l0.1-0.4l12.2,0.9c-3.2-1.2,2.4,0.8,6.1,0.5c4.9,0.5,10.1,0.4,14.8-0.5l7.8-0.1c-8.7-0.9,0.6-1.9,1.1-3.4
	l5,1.2c2-0.7-3.2-1.2,0.5-1.5c3.3,0.8,13.2,0.8,16.3,2.3c-0.8,0.5-1.9,0.8-3.2,1c-0.4-0.1-0.4-0.1-0.1,0c-0.1,0-0.2,0.1-0.3,0.1
	c0.2,0,0.2,0,0.4,0c0.5,0.2,1,0.4,1.4,0.6c6.2-0.3,3.9,0.3,3.7,1c7-2.3,11-0.8,16.4-3.5c-7.3,3.1,16.2,0,11.6,3
	c5.2-2.4,3.6-0.1,7-2.1c-7.4,0.6-14.7-1.5-20.7-2.5l5.8-1.4c-3.8-2.7-13.1,1-16.6,0.1c2.3,0.6,7.6,0,7.8-0.6l-1.6,2
	c-8.3,0.8-15-0.8-20.9-1.8c5.6-0.7-6.8-1.2-2.7-2.7l4.4,0.3c2-0.7-2.3-1.3-4.7-1.9c-14,1.5-39.6,0.2-44.6,1.8
	c3.6-0.4,7.3-0.2,10.6,0.5l-6.6,0.8c5.3,0.1,9.5-1.7,17.4-1.1c-1.3,1.3,4.4,3.1-1.6,4.9c-15,2-12.4-3.4-30.5-2.9
	c-1.7-0.4,3.8,2.1-5.9,1.4c-12.1-1.3-21-4.2-21-7.1c5.1,0.8,15.3,2.5,16.9,0.4c-5.1-0.8-13.9-1.3-14.4-2.6c-5.3,2.4,9.6,0.7,2.7,2.7
	c-2.4-0.1-4.8-0.5-6.8-1.2c2.4,1-3.2,1.6-4.3,2.2c-11.6,0-18.3,1.1-30.7,1.3c-0.7,0.3-2,1.1-1.7,1.7c-6.1-0.6-14.7-4.2-12.5-5.6
	c-7.1-0.1-7.5,1-13.6,0.4c9.7-2.1-1.9,0.4-2.9-1.9c-6.2-0.3-2.2,1.1-5,1.6c-1-0.2-3.5-1-3.7-1.6c-3.8,1.7,7.4,4.5,2.9,6.5
	c-3.1,1.3-16.4,3.5-17.4,3.7c-3-1.9-2.1-9.8,2.3-12.4c-0.5-1.3-5.9,1.4-8.6,1.6c-7.9,2.1-12-1.7-18.6-0.8l5,1.2
	c-1.1,0.5-10.7-0.2-12.3-0.9c-0.2,0.7,5,3.8,2,4.7c-11.8,0.4-22.9-3.7-22.2-6l18.1,2.3c0.6-1.9-12.8-1.9-12.1-4.1l-16.6,0.7
	c2.1,0.1,8.5,0.6,6,1.6c-7.1-0.1-3.7,0.3-8.5,1.2c10.3,3.3,19.8,7,28.5,11.3l-8.6-1.2l-2.1,1.1c-11.2-1.5-21.3-8.8-24.2-10.7
	c-6.4,0.5-4.2,4.5-2.6,5.2c-12.6,0.2-12.5-5.6-25.2-5.1l4.8-0.9c-3-0.4-13.9,0.4-12.8-0.3c-2.5,1.1-4.8,3.6-2,4.2l-11.3-3.7
	c1.7,0.4,0.6,3.6,1.3,4.2c-4.5,0.1-7.7-3.7-4.9-4.2c-8.8,2.3-6.7,1-13.8,3.8c-2.6-0.2,0.2-3.4,2.2-3.7c-4-0.6-8.2-0.7-12.2-0.1
	c9.8,1.4,2.7,7.2,4.5,9.6l-21-9.5c1.1,1.3,1.8,2.6,2.3,4c-1.8-2.8-25.8-3.2-37.6-2.8h1.8c2.4,1-7.7,1.8-11.9,0.8
	c0.7,0.6,1.7,0.4,3.4,0.4c-7.9,2.1-10.2-4.3-18.2-1.8c7.3-0.3,8.7,0.9,8.3,2c-6-1-19.8,0.1-16.9-3.2c-3.8,0.7-7.3,0.3-6.9,2l-14.6-2
	c1.1,0.3,2,1.3-2.3,1.6c8.2-0.4,16.2,2.7,20.5,0.5c0.2,2.1-2.9,3.2,1.1,4.9c-15.8-1-24.5-4.5-34.5-6.9L863.4,8l-0.6-0.9l-2.4,2.4
	c-1.7-0.5-2.9-1-3.2-0.8s0.1,0.5,0.8,0.9c-1.2-0.1-2.4-0.3-3.5-0.6c-0.5,1.2,1.9,2.7,4.5,4c1.3-0.4,2.5-0.9,3.8-1.3
	c2.7,1.2,4.7,2.4,0.9,3.2c-0.5-0.2-1.2-0.3-2-0.5c1.7,0.9,2.8,1.6,1.5,2l-10.7-1.1c1.8-0.5,3.5-1.1,5.1-1.8c-6.7-1.6-14.3-3.4-8.3-5
	l-8.1,1.4c-9.5-2.4-7.9-1.9-19.5-3.6c-0.6,0.8,2.5,1.5,0.4,2.1c-8.5-2.7-20.7,3.1-22.5,0.8c-6.8-0.6-2.9-2-7.2-2.7
	c0.2,0.3,0.6,0.8-0.6,0.8l-5.2-1.7c-2.1,0.6,4.8,1.2-1.1,1.9c-10-1.3-15.8-2.1-24.1-1.3c-11.8-0.4,5.1-3.4-4.9-3
	c-1.5,1.4-2.8,3-9,3.3c-3.3-1-2.9-2-8.5-2.7l0.4,2.1c-5.2-0.1-9.3-0.5-9.4,1.1c-2.9-0.7-6.3-0.9-9.4-0.4c-7.9-1.1,5.8-4.3,7.6-5.2
	c-7.2,0.6-12.6-0.3-17,2.2l6.8,0.6c-14.6,2.6-13.9-3-20.6,1.5c5-0.2,11,1,8.1,2.1l-7.3-1.1c-0.9,0.6,4.1,0.4,0.8,1
	c-2.8-0.6-5.6-1.4-8.2-2.3l0.1,0.1l-13.1-0.4c2.5-0.1,3.1,0.7,0.6,0.8l-8.6-1.1c2.6,0.5-0.1,1.2-3.9,1.5c-11.1,0.6-8.8-4.8-17.4-2.6
	c1.2,0,1.5,0.2,2.7,0.2l-4.4,1c-0.9-4.5-26-0.5-26.9-5c-6.3,1.8-0.4,1.1,7.6,3.2l-6.7,1.3C623.6,4.7,625.9,4.4,628.8,4.8z
	 M720.9,5.6c-3.3,0.5-5,1.4-7.2-0.4C715.1,4.2,719,5.2,720.9,5.6z M872.9,9.4c-2,0.4-4.1,0.5-6.2,0.3C869.2,9.2,871.5,8.9,872.9,9.4
	z M1296.2,20.5c0.1,0,0.1,0.1,0.2,0.1C1293.4,20.9,1291.8,21.2,1296.2,20.5z M1305.4,19.9c-2.7-0.4-3.8-0.1-4.5,0.3
	c2.3-0.1,4.3-0.1,4.9,0.3C1306.2,20.4,1306.2,20.1,1305.4,19.9L1305.4,19.9z M341.5,19.3c-1.1-0.5-2.2-0.9,1.8-0.4L341.5,19.3
	L341.5,19.3z"/>
<path class="st0" d="M854.8,8.1c0.1-0.3,0.4-0.6,0.8-0.9C854.1,7.5,854.1,7.8,854.8,8.1z M558.1,3.4c0.1,0.1,0.2,0.2,0.3,0.3
	c0.1,0,0.2,0,0.3,0L558.1,3.4z M1162.7,7.1c1-0.4,2.3-0.7,3.6-0.8C1163.5,6.4,1162.6,6.7,1162.7,7.1z M1352.3,21.7
	c-1.6,0.4-3.4,0.6-5.2,0.5l5.8,0.4C1351.1,22.6,1352.2,22.1,1352.3,21.7z M1405.2,13.7l0.2-0.7c-0.8-0.2-1.8,0-2.6-0.2
	C1399.1,13,1401.6,13.6,1405.2,13.7z M1365.6,16.7c0.2,0,0.5,0,0.7,0c-4-0.2-7.6-0.7-8.1,0.6C1362.5,17.9,1366.8,18.6,1365.6,16.7z
	 M1371,16.7c-1.2,0.1-2.5,0-3.7,0C1369.5,16.9,1371.4,17.5,1371,16.7z M1319,22c-1.1,0.6-0.4-1.5-2.3-1.2
	C1306.3,19.9,1321.1,23.7,1319,22z M1357.8,13.2l2.3,1.3l1.4-1.7L1357.8,13.2z M1337.8,14.2c-1-0.1-1.8-0.3-1.7-0.6l-6.4,0.5
	C1329.5,14.6,1333.9,14.2,1337.8,14.2z"/>
<path class="st0" d="M1343,14.5c-1.7-0.3-3.4-0.4-5.2-0.3C1339.6,14.4,1341.3,14.5,1343,14.5z M1346.2,12.8l4.5-0.1l1.9-0.3
	L1346.2,12.8z M1257.3,13.2c-2.6-0.2-4.5,0.1-3.8,0.7l7,0.5C1261.6,13.9,1259,13.6,1257.3,13.2L1257.3,13.2z M1278.5,9l0.2,2.1
	c1.1-0.6,1.2-0.9,3.1-1.3L1278.5,9z M1260,7.8c-8.9-0.1,0.6,0.9,1.3,1.5C1267.7,8.9,1260.7,8.4,1260,7.8z M1157,15.4l0.3-3.4h-1.8
	L1157,15.4z M1067.5,6.5c-2-0.7,6.1-0.7,4.1-1.5c-7.5,1-1.2-1.9-9.5-1.1C1059.9,6.1,1062.5,5.6,1067.5,6.5L1067.5,6.5z"/>
<path class="st0" d="M1070.1,7c-0.8-0.2-1.7-0.4-2.6-0.5C1068.3,6.7,1069.2,6.9,1070.1,7z M12.8,20.6l-3.5,1.1l5.4-0.7L12.8,20.6z
	 M0,18.7l3.2,2l1.3-2.2C3.6,19,1.2,18.8,0,18.7z M731.6,2.4c2.5-0.1,3.8-0.1,4.6-0.7l-0.4-0.5L731.6,2.4z M662.1,4.7l2.3-2h-1.2
	L662.1,4.7z M610.2,0.6c-2.5,0.1-5.4-0.4-7.9-0.3C601.6,2.8,604.7,0.3,610.2,0.6z"/>
</svg>
