<?xml version="1.0" encoding="utf-8"?>
<!-- Generator: Adobe Illustrator 25.4.1, SVG Export Plug-In . SVG Version: 6.00 Build 0)  -->
<svg version="1.1" id="Layer_1" xmlns:v="https://vecta.io/nano"
	 xmlns="http://www.w3.org/2000/svg" xmlns:xlink="http://www.w3.org/1999/xlink" x="0px" y="0px" viewBox="0 0 198 199.7"
	 style="enable-background:new 0 0 198 199.7;" xml:space="preserve">
<style type="text/css">
	.st0{fill:#F8E6C9;}
</style>
<g>
	<g>
		<path class="st0" d="M184.2,67.8c0-0.1,0.1-0.3,0.1-0.4c-0.2-0.5-0.4-0.8-0.5-1.3C183.1,66.8,182.4,65,184.2,67.8z"/>
		<polygon class="st0" points="184.3,86.8 182.4,85.2 183.6,86.7 		"/>
		<path class="st0" d="M188.3,99.9c-0.1,0.8,1.5,0.5,1.8,0.6C189.6,99.2,187.9,100,188.3,99.9z"/>
		<path class="st0" d="M177.9,74.7l-0.4,1.5l1.2,0.8c-0.3-0.2-0.3-0.8-0.3-1.4C178.4,75.1,178.3,74.5,177.9,74.7z"/>
		<path class="st0" d="M169,40.4c1.4,0,0.6-2.1,1.8-1.8c-1.2-0.8-2.5-1.4-4-1.6C167.9,37.8,168.8,39,169,40.4z"/>
		<path class="st0" d="M164.5,36.6c0.7,0.3,1.4,0.4,2.1,0.5C166,36.8,165.2,36.6,164.5,36.6z"/>
		<path class="st0" d="M161.7,34.9c0.1,0.5,0.3,1.2,0.6,1.7C162.4,35.9,162.2,34.7,161.7,34.9z"/>
		<path class="st0" d="M45.7,24.3c0.6-0.6,1.4-1,2.2-1.1c-1.9-0.4-4.6-1.3-3.5,0L45.7,24.3z"/>
		<polygon class="st0" points="152.6,26.5 151.1,26.5 151.6,27.6 		"/>
		<path class="st0" d="M109.4,10.9c-0.9-0.6-1.9-1.1-3.1-1.4C107.8,10.7,108.8,12.2,109.4,10.9z"/>
		<path class="st0" d="M136.6,18l0.8,1C137.2,18.6,136.9,18.3,136.6,18z"/>
		<path class="st0" d="M185.5,112.5c0,0.5,0,1.1-0.1,1.6C185.6,113.6,185.6,113,185.5,112.5z"/>
		<path class="st0" d="M16.5,144c0.6,0.4,1,0.5,1.3,0.3C17.3,143.9,16.8,143.7,16.5,144z"/>
		<path class="st0" d="M136.5,17.7c-0.3-0.1-0.6-0.2-1.3-0.5c0.5,0.2,0.9,0.5,1.3,0.8C136.5,17.8,136.4,17.7,136.5,17.7z"/>
		<path class="st0" d="M145.6,21.8c0-0.1-0.1-0.1-0.2-0.1C145.5,21.7,145.6,21.8,145.6,21.8z"/>
		<path class="st0" d="M137.6,18.9L137.6,18.9C137.5,18.9,137.5,18.9,137.6,18.9z"/>
		<path class="st0" d="M133.1,17.5c0.5,0.6,1.2-1.6,1.3-0.8c0.7-0.7-0.6-0.6-1.6-0.4c-0.5,0.2-0.9,0.4-0.9,0.6
			C131.9,17.3,132.1,17.4,133.1,17.5z"/>
		<path class="st0" d="M189.9,99.6c0-0.3-0.1-0.7-0.1-1.4c0,0.5,0,1-0.2,1.5C189.8,99.6,189.9,99.5,189.9,99.6z"/>
		<path class="st0" d="M188.1,110.3c0.2-1.4,0.4-2.7-1.1-2c0.9-0.4,1.6-1.3,2-2.3c0.4-1.2,1.1-2.2,2-3.1c-0.8,0.1-1.5,0.8-1-1.3
			c-0.2-0.1-0.4-0.3-0.7-0.5c-0.1,0-0.2-0.1-0.1,0c-0.3,0.4-0.7,0.8-1.2,1.1c-0.2-0.1-0.3-0.3-0.4-0.4h0.3c0,0-0.4-0.2-0.6-0.3
			c-0.4-0.6-0.7-1.3-0.8-2c-0.2-1-0.5-1.9-1-2.8c0.3-1.3,0.9,0.5,1.7-0.2l-1.4-1.7c1.7-0.2,2.6-3.6,3.7-0.5l-0.1-2.8
			c0.8-1.7,0.8-3.6,0-5.4c0.2-1.4-2.3-3-0.9-2.1c-0.3-0.7-0.6-1.4-0.9-2l-1-2l0.5-0.1c-0.6-2.1-1.4-4.2-2.5-6.1
			c-1.2-2.2-1.6-4.6-1.2-7c-0.5-0.6-1-1.3-1.3-1.9c-0.5-0.9-1-1.8-1.1-2.8l0.4-0.3l1.6,1.3c0.5-0.5-0.1-2.1,0.6-1.7
			c-0.8-1-1.3-1.1-1.6-0.7c-0.5-0.9-0.9-1.9-1-2.9c-0.4-1.2-0.8-2.4-1.7-2.3c0.6-0.9,0.7-2,0.4-2.9l-0.8-1.7c-0.4-0.5-0.6-1-1-1.5
			c-0.8-1-1.6-2-2.4-2.8c-0.6-0.5-1-1.2-1.4-1.8c0.2,0,0.3,0,0.5,0.1l0,0l-0.5-0.1c-0.1-0.2-0.3-0.4-0.4-0.7l-0.8,0.5l-1.3-0.2
			l1.1,0.3l0,0l-0.7,0.5c-0.6-0.9-1.4-1.8-2.3-2.6c-0.5-0.4-0.9-0.8-1.5-1.1s-1.1-0.8-1.7-1.2l-0.3,0.3c-0.6-0.1-1-0.4-1.5-0.6
			c-0.5-0.3-0.8-0.6-1.3-1c0.5,0.8,1,1.6,1.5,2.3c-1.1-0.7-2-1.8-2.5-3c0-0.1-0.1-0.1-0.1-0.2c0.4,0.3,0.9,0.6,1.3,0.9
			c-0.4-0.6-0.6-1.4-0.9-2v0.2c0,0.3-0.1,0.4-0.1,0.2h-0.1c-0.2,0.1-0.3,0.1-0.5,0.2c-0.1-0.2-0.2-0.4-0.3-0.6
			c0.1-0.1,0.5,0.2,0.7,0.3c0.1,0,0.2-0.1,0.2-0.1c-0.4-0.3-0.8-0.5-1.2-0.8c-0.1-0.2-0.2-0.3-0.3-0.5c-0.5-0.8-1.1-1.5-1.8-2.1
			c0.6-0.3,1.2,0.4,1.4,1.3c-0.1-1.3-0.7-2.4-1.8-3.2c-0.9-0.7-1.8-1.2-2.9-1.5l1-0.7l-1.9,0.4c-0.9-0.3-1.8-0.7-2.8-1.2
			c-1-0.6-1.8-1.4-2.2-2.4c-0.5,0-0.9-0.1-1.2-0.4c-0.1-0.3-0.2-0.7-0.2-1.6c-0.1,0.5-0.2,0.8-0.5,0.9c-0.1-0.1-0.1-0.2-0.1-0.3
			c0.1,0,0.2,0.1,0.2,0.1c-0.1,0-0.2-0.2-0.3-0.3c-0.2-0.5-0.4-1-0.7-1.5c0.1,0.5,0.3,1,0.6,1.4c-1-0.6-2-0.9-3-1.1l0.2-0.9
			c0,0.1,0.1,0.2,0.1,0.2c0.2-0.4,0.2-0.9,0.6-0.8l-0.5-0.2v-0.2l-0.2-0.1c-0.4-0.6-0.7-0.5-0.9-0.1l-0.2-0.1c0.1,0,0.1,0.1,0.2,0.1
			c-0.2,0.4-0.4,1.1-0.5,1.7c-0.1,0-0.2,0-0.3,0c-0.2-0.6-0.5-1.2-1-1.6c-0.9-0.8-1.6-1.9-1.9-3.1c-0.3,0.7,0.1,1.6-1.6,0.4
			c0.1-0.1-0.1-0.3-0.8-0.4c0.2,0.2,0.4,0.3,0.6,0.5c-0.2,0.1-0.4,0.2-0.6,0.3c-0.1,0.1-0.2,0.1,0,0.1c0.1,0.1,0.2,0.3,0.2,0.4
			c-0.7,0-1.7-0.2-2.7-0.4c-0.9-0.2-1.9,0-2.7,0.3c0.1-0.1,0.1-0.3,0.1-0.5l-1.5,0.4c-0.2-0.1-0.4-0.3-0.5-0.4c0-1.5-1.9-3.3,1-3.1
			l-2.6-1.1c-1.2-1.5-3-2.3-4.9-2.3c-1.2-0.7-3.7,0.8-2.3-0.1c-0.7,0-1.5-0.1-2.2-0.1h-2.2l0.1-0.5c-2.2-0.4-4.5-0.5-6.7-0.4
			c-2.4,0.2-4.8-0.5-6.8-1.8c0.9-0.2,1.8-0.2,2.7-0.1c-1-1-2.6-1.1-3.7-0.3c0.1,0.1,0.3,0.2,0.5,0.4c-0.7,0.2-1.4,0.3-2,0.3
			c-1,0.1-2,0.1-3.1-0.2l-0.5-1.5c-1.2,0.1-2.5,0-3.6-0.3c-1.3-0.2-2.5-0.3-2.9,0.5c-0.6-0.9-1.5-1.5-2.5-1.6h-1.9
			c-0.6,0.1-1.2,0.1-1.9,0.3c-1.2,0.3-2.5,0.5-3.6,0.9c-1,0.4-2,0.5-3.1,0.5l0.3,1.7c0,0,0,0.1-0.1,0.1c-1.1,0.2-2.2,0.5-3.3,1
			c-0.6,0.3-1.1,0.5-1.7,0.8c-0.6,0.4-1.2,0.6-1.9,1l0.5,1.3c-0.3,0-0.6,0.1-0.9,0.2c-0.4,0.1-0.8,0.2-1.2,0.3
			c-0.9,0.3-1.7,0.6-2.2,1c-0.8,0.1-1.7,0.1-2.7,0.2c-0.9,0.1-1.9,0.4-2.7,0.7c0-0.6,0.9-0.9,1.8-0.7c-1.2-0.5-2.5-0.4-3.7,0.2
			c-1.1,0.5-2,1.3-2.9,2.2c-0.8,0.8-1.7,1.6-2.7,2.4c-0.9,0.6-2,1-3.2,0.9c-0.4,0.8-1.3,1.3-2.1,1.2c0.1-0.1,0.2-0.1,0.2-0.2
			c-0.1,0.1-0.3,0.1-0.4,0.2c-0.6,0-1.1-0.1-1.7,0c0.5,0.1,1,0.2,1.5,0.1c-0.9,0.6-1.7,1.4-2.3,2.2l-1.5-1.1l-0.2,0.2
			c-1.4,0.1-0.3,1.2,0.9,2c-0.4,0.5-0.6,1.1-0.6,1.7c-1.2-0.9-1.7-0.3-2.2,0.4c-0.6,0.6-1,1.2-2.5,0.4c0.1,0.4-0.1,0.9-0.4,1.4
			c-1.4-0.3-2.6-0.6-3.2-0.4c-0.5,0,0.1-0.8,0.3-1.3c-4.9,1.2,1,2.2-1,4.7c-1.3-0.5-1.6-2.9-3.4-1.6c-0.7,0-1.2,1.9-2,3.8
			c-0.3,0.9-0.7,1.9-1.3,2.7c-0.3,0.3-0.6,0.7-1,1S28.5,40,28,40.1c1.2,0.1,2.3,0.3,1.9,1.9c-0.6,1-2.4,1.5-3.8,2.4
			s-2.6,1.9-1.9,3.6c-0.3,0.1-0.6,0.1-0.9-0.1c-0.1,1-0.8,2.3-1.1,3.7c-0.1,0.4-0.2,0.8-0.3,1.2c-0.5,0.7-1,1.4-1.5,2.2
			c0,0,0,0.1-0.1,0.1c-0.5,0.2-1,0.5-1.3,1c-0.5,0.9-0.8,1.8-1,2.8C16.6,61,15.1,63,13.5,65c0.3,0,0.5,0.1,0.6,0.1l-0.4,1l-0.3,0.8
			c-0.6,0.5-1.1,1.1-0.7,1.7l-0.4-0.3c-0.2,0.3-0.3,0.6-0.4,0.9c-0.5,0-0.8-0.1-1-0.8c-0.3,1.5-0.7,2.9-1.6,4.2
			c-0.7,1.2-0.6,2.7,0.2,3.8c-1.1,0.1-1.2-1.2-1.9-1c0.1,0.3,0.6,1.4-0.2,1.6c-0.7,0.2-0.6-0.7-0.9-1.5c-0.2,0.7-0.2,1.6,0,2.4
			c0.2,0.6,0.6,1.2,1.1,1.6c0.7,0.5,1.5,0.9,2.2,1.2c0.1,0.6,0.3,1.2,0.5,1.8c-0.2,0.3-0.3,0.6-0.3,0.8c0,0.2,0.1,0.4,0.2,0.6H9.1
			c0.2,0.2,0.1,0.5,0,0.9c0-0.1,0-0.3,0-0.4L8.5,86c-0.1,0.2-0.1,0.5-0.2,0.8c-0.2,0.5-0.5,1-0.7,1.5C7.3,88.8,7.1,89.4,7,90
			c-0.2,0.6-0.3,1.2-0.3,1.9c-0.2,1.3-0.1,2.7,0.4,3.9c-0.3,0-0.7-0.3-0.8-0.5c0.9,2.8-0.3,6.1-0.9,9.1c-0.5,3-0.3,5.5,3.1,6.1
			c0.1,0.2,0.2,0.3,0.3,0.5c0,0.1,0,0.1-0.1,0.2h0.2c0.6,0.9,1.2,1.8,1.8,2.7c-0.1-1.9,0.5-2.2,1.2-2c-0.1,0.4-0.3,1-0.5,1.6
			c-0.6,1.5-1.5,3.4-0.5,4.8l0.4-0.5c0,0.4,0.1,0.9,0.1,1.3c-0.3,0.5-0.7,0.9-1.1,1.5c-1.2,1.5-2.7,3-2.7,3.8
			c-0.2,0.5-0.6-0.5-1-0.8c-1,4.9,2.4,0,3.9,2.9c-1,0.9-3.3,0.2-2.9,2.4c-0.3,0.6,1.2,1.9,2.6,3.4c0.7,0.6,1.4,1.5,1.9,2.3
			c0.2,0.4,0.4,0.8,0.5,1.3s0.1,0.9,0,1.4c0.6-0.9,1.2-1.8,2.4-1.1l0.3,1.1l0.3,0.8c0,0.8,0,1.7,0.1,2.6c0.2,1.6,0.6,3,2.3,3.2
			c0,0.1,0.1,0.2,0.1,0.3c-0.1,0.2-0.2,0.4-0.4,0.5c0.4,0.3,0.8,0.6,1.2,1.1c0.1,0.2,0.3,0.5,0.5,0.7c0-0.1,0.1-0.1,0.1-0.2
			c0.3,0.3,0.5,0.5,0.8,0.8c-0.3,0.9,0.5,1.5,1.4,1.7c0.6,0.2,1.2,0.3,1.7,0.3c-0.4,0.5-0.6,1.2-0.5,1.9h-0.1
			c-1-0.2-2.2-0.9-1.8-0.4l1.3,1.3l0.1-0.5c0.3,0.1,0.5,0.2,0.8,0.2c0,0.1,0.1,0.2,0.2,0.3c0.7,1,1.7,1.9,2.8,2.5
			c0.2,0.1,0.4,0.2,0.6,0.3c-0.2,0.5-0.7,0.6-0.5,0.9c-0.2,0.1,0,0.3,0.6,0.8l1.7,2.2c-0.1,0.1-0.1,0.1-0.2,0.2l1.9,1.9l1.9,1.8
			l-0.6,0.3c0.7,1.1,1.9,1.9,3.1,2.3c0.9,0.2,1.9,0.3,2.8,0.1c0.4,0.8-0.5,0.8-0.7,1c0.9,1.6,2.1,2.7,3.6,3.8
			c1.7,0.6,3.3,0.9,5.1,0.7l-0.7,1.7c0.4-0.1,0.8,0.4,1.4,0.9c0.6,0.5,1.3,1.5,2,2.3c0.4,0.5,0.8,0.9,1.3,1.3c0.5,0.4,1,0.8,1.6,1.1
			c1.1,0.7,2.4,1.2,3.7,1.3c-0.2,0.3-0.6,0.5-0.8,0.5c3,0.4,5.5,2.9,8,4.7c2.5,1.7,4.9,2.7,7-0.2c0.4,0,0.8-0.1,1.3-0.1
			c0.3,0.2,0.7,0.3,1,0.5l2.1,0.9c1.4,0.6,3,1,4.5,1.2c0.1-0.4-0.1-0.9,0-1.5c0.8,0.3,1.4,0.7,1.2,1.4c0.5,0.1,1,0.2,1.5,0.3
			c0.3,0.4,0.5,0.8,0.8,1.2c0.4-0.1,0.8-0.4,1.1-0.8c3.4,0.6,6.8,1.3,10.3,1.8l3.4,0.5l3.4,0.3c1.1,0.1,2.2,0.1,3.4,0.1
			c1.1,0,2.2,0,3.3-0.2c-0.5-0.8-0.8-1.7-1.3-2.6c1,0,2-0.1,3.1-0.2c0.8,0.5,1.4,1.9-0.8,2.1c0.6,0.7,1.6,0.3,2.2-0.5
			c0.6-0.5,1-1.2,1.2-1.9c2.2,0.2,1.9,1,1.3,1.8s-1.8,1.6-1.1,1.5l1.8-0.5l-0.5-0.3c0.6-0.6,0.9-1.3,1.4-1.8
			c0.3-0.3,0.6-0.5,0.8-0.6c0.5-0.3,1-0.4,1.5-0.5c1.8,0.2,1.2,1.5,1.9,1.4c0,0.2,0.3,0.2,1-0.2l3.9-0.8c-0.2-0.1-0.3-0.2-0.4-0.3
			c0.1,0,0.1,0,0.2,0c-0.2-0.1-0.3-0.2-0.5-0.2c-0.2-0.2-0.5-0.4-0.8-0.6c-0.3-0.5,0.4-0.8,1.3-1l0,0c-0.3,0-0.4-0.2-0.5-0.5
			c0.8-0.4,1.2-0.6-0.3-1.7l0,0c1.1,0.9,2.9,0.9,4.9,0.4l0.7,0.1c0-0.1,0-0.2,0-0.3c0.9-0.2,1.9-0.6,2.8-0.9c1.6-0.6,3.2-1.5,4.4-2
			c0.8-0.5,1.7-0.8,2.7-0.9c0.4-0.5,0.7-1.1,1.2-1.6c0.4-0.5,0.9-0.9,1.4-1.3c1.1-0.7,2.2-1.5,3.4-2c-0.8-0.1-1.4-0.8-1.3-1.6
			c0.1-0.5,0.5-1.1,1-1.3c1,2.3,2.2,2.2,3.7,1.6c1.5-0.9,3.3-1.2,5-0.7c-1.5-0.4-0.1-1.6,1-2.8s1.9-2.6-0.2-2.9
			c1.9-1,1.3,1.4,3.3,1.2c0.6-1.2,1.5-2.2,2.5-3.1c0.5-0.5,1-0.9,1.6-1.4s1.1-0.9,1.8-1.4c0.6-0.5,1.2-0.9,1.8-1.4l1.8-1.5
			c1.2-1,2.2-2.2,3.1-3.5c-0.5-0.5-1.9-0.3-1.9-1.9c1.6-0.2,3.1-0.5,4.6-0.6c0.2-0.6-0.4-1.4-0.6-2c-0.3-0.6-0.2-1.3,1.3-1.6
			c-0.6,0-1.6-0.1-1.3-0.9c1.1-1,2.2-2.2,3.1-3.4c0.5-0.6,0.9-1.3,1.3-1.9c0.4-0.6,0.7-1.3,1.1-2c0.4-0.7,0.6-1.4,1-2l0.8-2.1
			l0.8-2.1l0.7-2.2c0.6-1.5,0.9-2.9,1.5-4.4s1-2.9,1.6-4.3c0.1-0.4,0.3-0.7,0.4-1c0.8-0.1,1.6-0.3,2.4-0.5c-0.5-0.2-1-0.4-1.3-1.7
			c0.9-1.8,1.9-3.6,3.1-5.2c-1.9,1.6-1.9,0.5-1.7-0.8l0,0c-0.5,0.7-1.6-0.3-2.5-0.3l2.8-4.3c0.3,0.5,0.5,1,0.7,1.6
			c0.6,1.2,0.6,2.6,0.1,3.9c2.5-0.8-0.2-0.6,2.8-2C187.5,113.5,187.9,111.8,188.1,110.3z M187.9,89.4c0,0,0-0.1-0.1,0
			C188.3,87.7,188.1,88.3,187.9,89.4z M154.2,34.2c0.8,0.2,1.6,0.4,2.3,0.7c-0.8,0.3-1.9,0.6-3,0.9C153.7,35.3,154,34.8,154.2,34.2z
			 M171.7,60.5c-0.5,0.2-0.9,0.6-1.2,1.1c-0.4-0.7-0.8-1.5-1.2-2.2C170.1,59.6,171,60,171.7,60.5z M180.2,98.1
			c1.6-1.4,2.3,2.7,3,0.8c0.7,1,1.2,2.1,1.8,3.2c0.2,0.6,0.4,1.2,0.4,1.9c0,0.7-0.1,1.3-0.3,1.9l0,0c0.1-1.3,0.1-2.6-1.1-2.8
			l0.4,1.6c-0.2-0.1-0.3-0.2-0.5-0.3c0-0.2-0.1-0.4-0.2-0.5c0.1,0.1,0.2,0.3,0.1,0.5c-1.2-0.5-2.6,0-4,0.7c0.1-1.8,0.2-3.6,0.2-5.5
			c0.2,0.1,0.5,0.1,0.7-0.1L180.2,98.1z M185.5,86.5c0.4,1,0.4,2.1,0,3c-1.8,2.3-4,0.5-5.4,1.1c-0.4-1-0.4-2.1-0.1-3.1
			c0.3-0.9,0.5-1.8,0.4-2.6l-0.6,2.2c-0.9-0.8-1.4-2.1-1.1-3.2c-0.2,0.3-0.3,0.6-0.4,0.9c-0.7-3.8-1.7-7.7-3-11.4
			c0.7,0.1,1.2,0.2,1.7,0.4c0.9,0.4,1.8,0.9,2.5,1.5c0.2,0.1,0.4,0.3,0.5,0.5c-0.1,0.6,0.2,1.3,0.7,1.9s0.8,1.2,1,1.9
			c-0.1,0.1-0.2,0.1-0.2,0.1c-0.5,0.1-1.2-0.1-0.9,0.2c0.1,1.2,0.6,2.3,1.3,3.2c0.6,0.6,1.2,1.3,2,1.7
			C184.6,85.3,185.2,85.8,185.5,86.5z M181.8,78.1c-0.2-0.3-0.3-0.6-0.4-0.8c0.1,0.1,0.2,0.2,0.2,0.3c0.2,0.3,0.2,0.5,0.3,0.7
			C181.9,78.3,181.9,78.2,181.8,78.1z M164.9,44.3L164.9,44.3c0,0.2,0.3,1.6,0.3,3.1c0.1,1.4,0.1,2.7-0.2,4.1
			c-0.1,0.2-0.3,0.5-0.5,0.7l-1.8-2.4L165,48l-2.5,1.5c-0.6-0.9-1.2-1.7-1.9-2.4c0.4-0.4,0.8-0.7,1.2-1v0.7l0.6-0.5
			c0.9,1.6,1.5,0.6,2.1,0.5c-0.5-0.5-1.1-0.9-1.7-1.3C163.5,44.9,164.2,44.6,164.9,44.3z M152.3,32.6c0.5,1.4,1.5,3.3-0.2,3.3
			c-1.2-0.5-1.6-1-1.7-1.5c0-0.5,0-1.1-0.2-1.7C150.9,32.6,151.6,32.6,152.3,32.6z M150.2,32.7c-0.2,1-1.2,1-2.4,1
			c-0.4,0-0.8,0.1-1.2,0.2c0,0,0,0-0.1,0C147.7,33.3,148.9,32.9,150.2,32.7z M124.4,18.6c-0.4,1-0.8,2.1-1,3.1
			c-0.6-0.2-1.3-0.4-2.1-0.7C122.4,20.2,123.3,19.4,124.4,18.6z M124.9,18.4c-0.5-0.8-0.8-1.4-0.9-1.9c0.5,0.2,1,0.5,1.4,0.9
			c0.1,0.2,0.2,0.4,0.2,0.6L124.9,18.4z M126.2,15.2C124.9,14.1,125.3,14.5,126.2,15.2C126.3,15.2,126.2,15.2,126.2,15.2z
			 M77.8,19.5l0.3-0.7c-0.2,0.3-0.5,0.5-0.6,0.8c-0.3,0-0.5,0.1-0.8,0.1c-0.4-0.4-0.9-0.7-1.4-1c0-0.1,0-0.2,0-0.3
			c0.6-0.4,1.3-0.8,2-1.3c0.3,0.1,0.6,0.2,0.9,0.3c0.1,0,0.2,0.1,0.3,0.1c0,0.4-0.1,0.8-0.3,1.3c0.2-0.3,0.4-0.5,0.5-0.7l0,0
			l0.1,1.2C78.4,19.4,78.1,19.5,77.8,19.5z M78.6,18.1c0.4,0.2,0.7,0.5,0.9,1.1c-0.2,0.1-0.4,0.1-0.6,0.1L78.6,18.1z M60.5,22.1
			c-0.3,0.6-0.8,0.7-1.5,0.8c0.2-0.4,0.5-0.9,0.8-1.3C59.8,21.6,60.2,21.8,60.5,22.1z M20.7,146.9C20.7,147,20.8,147,20.7,146.9
			c0.4,0.4,0.8,0.7,1.2,0.9C21.5,147.9,21.1,147.6,20.7,146.9z M27.1,154.7c0.3,0.2,0.5,0.4,0.7,0.5c-0.1,0.1-0.4,0.1-0.7,0.1V154.7
			z M117.9,187l-0.7-0.4C118.5,185.8,118.2,186.3,117.9,187z"/>
		<path class="st0" d="M189.3,101.1L189.3,101.1C189.3,101,189.3,101,189.3,101.1z"/>
		<path class="st0" d="M190.1,109.4c0.1,0,0-0.1,0-0.2C190.2,109.3,190.1,109.4,190.1,109.4z"/>
	</g>
</g>
</svg>
