<svg xmlns="http://www.w3.org/2000/svg" viewBox="0 0 1184 228.2" fill="#62abd0" xmlns:v="https://vecta.io/nano"><path d="M798.9 10.2h0 0 0 0zM375.8.7h-.1 0 .1z"/><path d="M737.7 170.6h-1.8-1.1c-.9 0-1.7.1-2.5.2h-.2c-.6 0-1.4.1-2.1.2-.5.1-1.1.1-1.6.2l-.4.1-.7.1h-.4c-.2 0-.4 0-.6.1-.2 0-.4.1-.6.1h-.4-.4l-2.1.1-2.5.1-2.9.2c-.8.1-1.5.1-2.2.1l-3.1.3c-.5.1-1 .1-1.5.1h-.3c-.6 0-1.1.1-1.6.1l-1.9.2c-.4.1-.8.1-1.2.2-.2 0-.4.1-.5.1h-.3c-.3 0-.5.1-.5.2l.1.1c.1 0 .1 0 .2.1h0c.3.2.7.2 1.1.3.6.1 1.3.1 2 .1h1.3.4 1.2.7 1.9l2.1-.1c.7 0 1.4-.1 2-.2l1.7-.3.8-.1.7-.1 2.3-.2 3.1-.3 1.2-.1 3-.4.7-.1.7-.1.7-.1.7-.1c.8 0 1.5-.1 2.2-.2h.2.5.3l.8-.1h.3l2.5-.2c.4 0 .7-.1 1-.2.8-.2.6-.3-.4-.5-.9.2-1.7.2-2.6.1h0zm61.2-160.4h0 0 0 0z"/><path d="M558.2-.3h-.2 0 .2zm621.6 33.2h0 0 0 0 0 0c.1-.3.3-.6.1-.9-.1-.2-.3-.4-.4-.5-.3-.2-.6-.3-1-.5s-.9-.4-1.3-.5c0-.1 0-.1-.1-.2-.5-.3-1-.6-1.6-.8l-2.1-.7-.3-.1-.3-.1-.1-.1-.1-.1c-.1-.1-.3-.1-.6-.1-.3-.1-.6-.2-.7-.3s-.3-.2-.3-.3v-.2l.1-.1c.1-.1.3-.1.4-.2.3-.1.6-.2.9-.4.1-.1.3-.1.3-.2.1 0 .1-.1.3-.1.1-.1.4-.2.7-.3h0c.1 0 .1-.1.1-.1.1-.1.3-.1.3-.2.1-.1.1-.3 0-.4 0-.1-.1-.2-.3-.2-.1-.1-.3-.1-.4-.2l-.9-.3-.4-.1-.9-.3-1.5-.5c-.4-.2-.9-.3-1.2-.4-.4-.1-.7-.3-1-.5-.1-.1-.4-.2-.6-.3-.1-.1-.1-.2-.3-.3 0-.1-.1-.2-.1-.3V22c-.1-.2-.1-.3-.1-.5h0v-.2c0-.1 0-.2.1-.2.1-.1.1-.2.3-.3l.4-.3c.1-.1.3-.2.4-.4.1-.1.1-.2.1-.4-.1-.3-.4-.6-.9-.8-.3-.2-.6-.3-.9-.4s-.7-.3-1.2-.4l-.3-.1c-.3-.1-.6-.2-.9-.2l-2.1-.6-.9-.3c-.4-.1-.7-.3-1.2-.4l-2.2-.8-2.5-.7-.6-.2c-.3-.1-.7-.2-1.2-.3-.6-.2-1.3-.3-2.1-.4l-.6-.1c-.7-.2-1.5-.3-2.2-.4l-2.4-.5-.7-.2-.9-.3-.1-.1-1.6-.6c-.4-.2-1-.4-1.6-.5l-2.4-.6c-.6-.1-1.2-.2-1.8-.4-.3-.1-.6-.1-.9-.2l-.4-.1-1.9-.4-2.8-.3h-.1c-.4 0-.9-.1-1.3-.1h-.4c-.6-.1-1.3-.1-1.9-.2-.7-.1-1.5-.1-2.2-.1-.4 0-.9-.1-1.3-.1l-1.5-.1-1.5-.1c-.4 0-.9-.1-1.5-.1s-1-.1-1.6-.1l-3.1-.2-.6-.3c-.7-.1-1.3-.1-2.1-.1-.3 0-.7 0-1-.1h-.6l-1.2-.1h-.6l-3.5-.2c-1 0-2.1-.1-2.9-.1l-4-.2c-.6-.1-1.3-.1-1.9-.2l-1.5-.3c-.3-.1-.4-.1-.6-.2s-.3-.1-.6-.2c-.6-.2-1.2-.3-1.8-.4l-2.4-.4c-.4 0-.7-.1-1.2-.1-.4 0-.9-.1-1.3-.1-.7-.1-1.5-.1-2.4-.1h-2.5-1-1.6c-.9 0-1.8 0-2.6-.1h-1.3c-.6 0-1.2 0-1.9-.1-.7 0-1.5-.1-2.4-.1s-1.6 0-2.5-.1h-2.1l-2.9-.1h-1.6-1.3c-1 0-2.2-.1-3.2-.1h-2.1-1.2c-1.5 0-2.9-.1-4.3-.2l-2.2-.3c-.4-.1-.7-.1-1.2-.2l-4.6-.7-3.7-.3-3.8-.2h-.4c-1.2 0-2.2-.1-3.4-.1h-1.2c-1 0-1.9-.1-2.9-.1-.6 0-1.2-.1-1.6-.1l-1.9-.4h-1.9l-5-.2c-1.2 0-2.4-.1-3.2-.1h-.6c-.9 0-1.9-.1-2.8-.1l-6.5-.3h-.4c-.9 0-1.6-.1-2.5-.1-1.2-.1-2.4-.1-3.5-.1h-1-.9-.7l-2.8.1h-1.3-1.3-.3-2.1c-.6 0-1.2-.1-1.6-.1-.6 0-1.2-.1-1.8-.1l-1.9-.2c-.4-.1-1-.2-1.6-.3-.4-.1-.9-.2-1.3-.2-.4-.1-1-.1-1.6-.1s-1.3-.1-1.9-.1h-.9-.6c-.4 0-.9.1-1.5.2-.3.1-.6.1-.9.2s-.6.1-.9.2h-.4-.4-.1-.4c-.3 0-.6 0-.9-.1-.4 0-.7-.1-1.2-.1s-.5-.5-.8-.5l-.4-.1c-.3-.1-.7-.1-1-.2-.7-.1-1.6-.2-2.4-.2-.7 0-1.5-.1-2.2-.1h-.3-.9-.4-1.2-.7l-2.2.1c-.3 0-.7 0-1 .1h-.7l-2.2.1h-1.6-1.8-3.1-1.5c-.4 0-1 0-1.6-.1-.9 0-1.9-.1-2.8-.1h-.1-.1c-1 0-2.1-.1-3.1-.1H931h-2.1-2.8-3.2-.4l-5.1.1h-.6-4-1.9-2.2-7.7-2.2-.8-2.2-2.1-1.2c-2.5 0-5-.1-7.6-.2-1 0-2.1-.1-2.9-.1h-.3c-1 0-2.2-.1-3.2-.1h-4.4-1.2l-5.4.1-6.2.2h-1-.3-.3-1c-.4 0-.9.1-1.3.1-.3 0-.7 0-1 .1-1 .1-2.1.1-3.1.1l-2.6.1-2.4.1c-.4 0-.9.1-1.2.1-.7.1-1.5.1-2.1.1l-2.8.1h-.6l-3.1.1h0-3.2-.7-2.6-1-1-1.3-1.2-1-1.5-1-1.3-4.3-1-1-2.1l-3.7.1-3.1.1h-.6-.9-.7l-2.4.1-2.9.1c-.4 0-.7 0-1.2.1L795 1h-.9-1c-.6 0-1.3 0-1.9.1l-3.8.1-3.4.1h-1-1-1-.7-.3l-2.5.1H775h-1.3-.9-1.3-.7-1.9-.9-1-1.9-4.6-2.2-.4-1.6l-5 .2-4.4.2-4.9.1-3.5.1h-1.6-1.8-.1-5.7-1.3-1-2.5-.9-2.8-3.4-3.4-3.5-1.3-1.9l-7.1.1-6 .1h-.9-.6l-3.5.1-2.6.1c-.6 0-1.2.1-1.8.1l-2.8.1-2.1.1-4 .1h.1l-2.5.1-2.2.1h-.1 0-1.2-1.3l-5.7.1-3.1.3h-2.1-2.4-1.4-1.8l-2.9.1h-.4-1.5-1.4-2.9-.1-1-.6-1.2-.4-1.8-1.6-3.2-.3-2.1-1-.6-1.8-.9-.5-2.4-2.9-.9 0c-.6 0-1 0-1.5.2h-.9-1-5-.1-2.5-2.6-3.8-6.5-4.8c-1 0-2.1-.1-2.9-.1l-2.5-.3-2.6-.3-2.5-.3c-.4 0-1-.1-1.5-.1-.6 0-1.2-.1-1.8-.2l-4.7-.4-5.4-.3c-.4 0-1 0-1.5-.1h-.7c-.7 0-1.5-.1-2.2-.1h-.3l-3.7-.2c-.3 0-.4 0-.6-.1h.1-.1 0-.2 0 0 0 0c.1-.1.4-.3.7-.4a.76.76 0 0 1 .4-.2c.1-.1.1-.3-.1-.4s-.7-.3-1-.3c-.6-.1-1.2-.2-1.8-.2-.6-.1-1.3-.1-1.9-.2-.3 0-.6 0-.9-.1-.7-.1-1.5-.1-2.4-.2-.7 0-1.3-.1-2.1-.1h-.1-.6-1-.6-3.6l-6.3.1-4.6.1-2.4.1-2.9.1h-2.6-2.4l-4.1.1-2.2.1c-.4 0-1 .1-1.5.1-.4 0-.9 0-1.3.1l-2.2.1c-.6 0-1 .1-1.6.1l-2.1.1h-1.2l-2.6.1h-1l-3.4.1-4.1.1c-.7 0-1.3.1-2.1.2-1.2 0-1.6.1-1.6.3s0 .3.3.4c.1.1.3.1.3.2h0 0l-.1.1h-.3c-.3 0-.6.1-1 .1h-.3c-.6 0-1.2.1-1.8.1-.8.1-1.7.1-2.6.1h-1.8-.6-1.2-.7-5c-1.5 0-2.9 0-4.6-.1h-.4-1.9-2.2-.7l-10.4.1h-2.5-1.9-1.6-.8-2.8 0c-1.2 0-2.4-.1-3.5-.1l-1.3-.1c-.7 0-1.5-.1-2.2-.1-1 0-2.1-.1-3.1-.1h-.6c-1.3 0-2.5-.1-3.8-.1-.9 0-1.8-.1-2.5-.1h-.6c-.6 0-1.2-.1-1.9-.1h-1.8-.4l-2.5.1h-.4c-.4 0-1 0-1.5.1h-.9l-2.1.1h-.7l-5.3.2h-1.8-2.1l-4.1.1c-.6 0-1 0-1.6.1l-1.8.1c-.6 0-1.2 0-1.6.1l-2.2.1c-1.2 0-2.4.1-3.5.2l-3.5.3c-.6.1-1.2.1-1.8.2-.4.1-.9.1-1.3.2l-3.4.3-2.6.2h-.3-.6c-.7.1-1.6.1-2.4.2l-5.4.2h-.4-3.5-.7l-4.5.1h-1.5-2.9-.4-3.2c-.6 0-1.3 0-1.9-.1h-.6-2.8-2.1-4.8-7.6c-2.5 0-5 0-7.5-.1-.7 0-1.3 0-2.1-.1h-1c-.4 0-.9 0-1.3-.1-1.3 0-2.8-.1-4.1-.1h-1.3l-12.9.2h-.1-2.5-.7-2.2-.4c-1.5 0-2.9 0-4.4-.1h-1.6-2.1-.6-2.9l-4.1.1h-1.5l-4.7.1h-1.8-1.9-1.3-9.4-9.3c-2.9 0-5.9 0-8.8-.1-1.5 0-2.9-.1-4.4-.2-.6 0-1.2-.1-1.8-.1h-.4-.7c-.6 0-1.2 0-1.9-.1-1.8 0-3.7-.1-5.6-.1-1.8 0-3.4 0-5.1-.1-1.3 0-2.6-.1-4-.2l-2.8-.2-.6-.1-4.7-.3h-2.5-.4-3.1c-1.3 0-2.5-.1-3.8-.2l-.9-.1c-.7-.1-1.6-.1-2.4-.2l-3.8-.2h-.9-1.2c-.4 0-1-.1-1.5-.1h-.2l-3.7-.2h-1-.6-.6-1.3-3.1-1.5c-2.4 0-4.8 0-7.2-.1-.9 0-1.6-.1-2.5-.1h-.3c-.3 0-.7 0-1-.1s-.7 0-1.2 0h-.3c-.7 0-1.5-.1-2.2-.1-.4 0-.7-.1-1.2-.1s-.9-.1-1.5-.1h-.3-.1c-.3 0-.4-.1-.7-.1-.4-.1-.9-.1-1.5-.1-.7 0-1.5-.1-2.2-.1h-.4c-1 0-2.1-.1-2.9-.1h-1.9-.4-1.6c-.9 0-1.8-.1-2.6-.2l-3.5-.2h-1.9-2.8-.1l-2.5.1c-.7 0-1.3.1-1.9.1-.9.1-1.6.1-2.5.1l-3 .1-5.3.1h-4.1l-3.7.1h-.4-1.8-1.9l-2.8.1c-.9 0-2.1.2-2.8.3l-.6.1c-.4.1-.9.1-1.3.2-.6.1-1.2.1-1.9.2-.3 0-.6 0-.9.1s-.6 0-.9.1h-.6c-.4 0-.9.1-1.2.1H98h-.6l-3.2.3c-.4.1-.7.1-1.2.2l-2.1.3h-.1-.1 0l-2.3.3h-.3c-.1 0-.4.1-.6.1h-.1-.1l-.4.1-.7.1-2.2.3-2.2.3-2.9.5-2.1.3-1.9.3c-.4 0-.7.1-1.2.1-.4.1-.9.1-1.3.2-1.5.2-2.9.5-4.3.8-.7.2-1.6.3-2.5.5l-1.9.4c-.3.1-.6.1-.9.2s-.5.1-.8.2l-1.9.4-2.8.4-.4.1L52 9l-1.6.3-.4.1h-.1l-2.5.4-2.2.4c-.6.1-1.2.3-1.8.4l-.4.1-2.9.6-1.3.3-4 .8-.6.1-1.6.3-1.3.2c-.3 0-.4.1-.7.1-.3.1-.6.1-.9.2-.1 0-.4.1-.6.1l-1.8.3c-.6.1-1.3.2-2.1.2l-2.1.3c-.4.1-1 .1-1.5.2l-2.8.4c-.3 0-.6.1-.9.1l-1.3.3h-.1c-.4.1-.7.3-1 .5-.1.1-.3.3-.3.5v.1c0 .1.1.1.1.2l.1.1.3.2c.1.1.4.3.7.4.3.2.6.4.7.6s.1.5 0 .7v.2.2.7c0 .3 0 .7.1 1 .1.2.3.4.4.5 0 .1.1.1.1.2l.1.1v.1h0c0 .1.1.2.1.3h0c.1.1.4.2.6.3l.1.1h0 0v.2c0 .2.1.4.3.6.1.2.4.3.6.4s.4.2.6.2c.3.1.6.2.9.2l.3.1c.1 0 .1.1.3.1.3.1.6.2.9.2h.5c.4.1.7.2 1.2.2.4.1.7.1 1.2.2h.1v.4l-.1.1c-.1 0-.1 0-.3.1H25c-.1 0-.3 0-.6.1l-2.2.1-1.3.1-3.1.4c-.4.1-.9.2-1.3.4-.1.1-.3.2-.1.4 0 .2.1.3.3.4l.3.2.3.2c0 .6-.1 1.1-.4 1.6-.4.5-.7.7-1 .9l-.4.3-.1.1c-.1.1-.3.1-.4.2l-.1.1c-.3.2-.4.5-.4.8v.1c0 .2-.1.4-.3.6-.1.1-.1.2-.3.3s-.3.2-.3.4 0 .3.1.5h0c.3.3.7.5 1.2.6.3.1.6.2 1 .2.3.1.7.1 1 .1h.1c.6.1 1 .1 1.6.1h1c.6 0 1.3-.1 1.9-.1.5 0 1-.1 1.5-.3h.1-.1c.1 0 .3-.1.4-.1h.3c.1 0 .3 0 .4-.1h.3c.3 0 .7-.1 1-.2h.3.3c.1 0 .3 0 .4-.1h.3.3.4c.3 0 .6-.1.7-.1h.1s.1 0 .3-.1c.1 0 .3-.1.3-.1h.1.1.1c.2 0 .4-.1.6-.2.1 0 .3-.1.4-.1.1-.1.3-.1.6-.2s.3-.1.4-.2.3-.1.4-.2c.2-.1.4-.2.6-.2a.76.76 0 0 0 .4-.2c.1 0 .1-.1.3-.1.1 0 .1-.1.3-.1l.3-.1c.1 0 .1-.1.3-.1h0c.3-.2.7-.3 1-.4.1-.1.4-.1.7-.2.1-.1.3-.1.4-.1s.3-.1.4-.1l1.5-.3c.4-.1 1-.1 1.5-.2.3 0 .7 0 1.2-.1h.4c.1 0 .3 0 .4.1s.3 0 .4.1.3 0 .4.1h0 0c0 .1 0 .2-.1.3h0a.55.55 0 0 1-.3.5l-.4.3c-.3.1-.7.3-1.2.4s-.9.3-1.3.4c-.1 0-.3.1-.3.1s.2-.4.1-.4-.3.1-.4.1l-.1.1c-.3.1-.4.2-.7.3s-.3.2-.3.3v.1c-.1.1-.3.2-.3.4-.3.1-.3.3-.1.5l.1.1 1 .3c.4 0 .9.1 1.3.1h0c.4 0 1 0 1.5-.1h.1c.1 0 .4 0 .6-.1h.3.6.6c.4 0 .7 0 1.2-.1.1 0 .1.1.3.1v.1.1c.1.2.1.3.3.5.1.1.1.2.3.3.3.2.6.3.9.4 0 .1.1.3.1.5v.2.1.4c0 .1-.1.1-.3.2-.1.1-.3.1-.4.1l-.6.1-.4-.1c-.3 0-.4.1-.7.1H43c-.6.1-1.2.1-1.8.2s-1.2.1-1.8.2c-.4 0-.9.1-1.3.2-.3.1-.7.1-1 .2s-.6.1-.9.2c-.1.1-.4.1-.6.2h-.1c-.1.1-.3.2-.3.3v.2h0c.1.3.1.6 0 .9-.1.1-.1.2-.3.3-.1.1-.1.2-.3.2-.1.1-.1.2-.1.4v.3c0 .1-.1.1-.3.2s-.3.1-.6.2h0c-.1 0-.3.1-.4.1h-.3-.1s-.1 0-.1-.1c-.1 0-.1-.1-.3-.1h0c.3-.2.1-.3.1-.3l-.1-.1-.1-.1v-.2-.1c0-.3-.3-.5-.7-.6-.3-.1-.6-.1-.7-.2h-.3-.1c-.1 0-.1-.1-.3-.1-.3-.1-.6-.1-.9-.2-.1 0-.4-.1-.6-.1H28v-.1-.1c0-.2-.1-.3-.3-.4l-.4-.3h-.1c-.1-.1-.3-.1-.4-.2-.2-.1-.4-.1-.7-.1H26c-.3-.1-.7-.3-1.2-.3-.6-.1-1-.1-1.6-.1h-1l-2.4.1c-.3 0-.6.1-.9.1h-.3l-.3.1c-.3 0-.4.1-.7.1-.4.1-.7.1-1 .2-.1 0-.4.1-.6.1s-.1.1-.3.1-.1.1-.3.1c0 0-.1 0-.1.1-.1 0-.3.1-.3.1-.1 0-.3.1-.4.1h0s-.1 0-.1.1c0 0-.1 0-.1.1 0 0-.1 0-.1.1-.1.1-.3.1-.4.2l-.1.1v.1l-.4.4h0c-.3.2-.3.4-.3.6 0 .3.2.5.4.7.1.1.4.3.7.4s.5.2.6.4v.3.5.3c0 .4.1.8.1 1.2l.3 2.4v.6.6.6.7c0 .3.1.6.1.9.1.4.1.9.1 1.3 0 .2 0 .3-.1.5-.3.3-.6.7-1 .9a.78.78 0 0 0-.4.4h-.3c-.1.1-.1.2-.3.4v.1l-.1.2c-.1.1-.1.2-.1.3-.1.2-.1.4 0 .5v.1a.55.55 0 0 0 .3.5c.1.1.1.2.3.3l.1.1.3.2c0 .2.1.3.1.5.1.2.4.3.7.5a.76.76 0 0 1 .4.2l.1.1h0c.1.1.3.2.3.3.1.2.1.3.3.4.1.1.1.2.3.2l.3.2c.1.1.1.3.3.4 0 .1.1.2.3.3.1.1.1.2.1.2v.4.1.7c0 .5-.1 1.1-.1 1.6l-.3 3.3c0 .5-.1 1-.1 1.5 0 .6-.1 1.2-.1 1.8v.7c.1.5 0 .9-.1 1.4 0 .3-.1.4-.1.5s-.5.1-.5.2c-.2.1-.3.2-.3.4 0 .1 0 .1-.1.2-.1.2-.3.4-.6.6a.78.78 0 0 0-.4.4l-.4.3-.1.1c-.1.2-.4.3-.4.5v.1c-.1 0-.1.1-.3.2-.1.1-.1.3-.1.5v.3.5c0 .2 0 .5.1.7s.3.4.4.5l.1.3c0 .1.1.2.1.3v.3h0a1.08 1.08 0 0 1-.3.7c-.1.1-.1.2-.3.3-.1.2-.3.3-.3.5s-.1.3 0 .5v.2c0 .6-.1 1.1-.4 1.6l-.1.2c-.1.1-.3.3-.3.5v.2.1c-.3 0-.3.1-.3.2-.2.3-.4.5-.7.7-.1.1-.1.2-.3.3s-.1.2-.3.3l-.4.3-.4.3c-.3.2-.6.4-.9.5s-.6.3-.9.5c-.3.1-.4.3-.7.5h0c-.1.1-.3.3-.4.5s-.1.3-.1.5v.8a.55.55 0 0 0 .3.5c.2.1.1.2.3.3s.1.1.1.2 0 .1.1.2c0 .1 0 .2.1.3.1.2.3.4.6.6v.4.1.6c0 .2 0 .4-.1.6s-.1.3-.1.5v1.1a1.08 1.08 0 0 0 .3.7c.1.1.1.2.3.3l.1.1v.3.1.4.2.2.9a1.69 1.69 0 0 0 .3 1c.1.2.3.5.6.7.1.1.1.2.3.3.1.1.1.2.3.3.1.3.3.6.6.8.1.1.3.2.3.4.1.1.3.2.3.3 0 .2.1.3.1.5a1.08 1.08 0 0 0 .3.7c.1.4.3.7.3 1.1 0 .2.1.4.1.6s.1.4.1.6c.1.4.1.9-.1 1.3-.1.1-.1.2-.3.4l-.1.2c-.1.1-.1.3-.3.4 0 .1-.1.2-.1.3l-.1.2c-.1.2-.3.4-.3.5h0c0 .3-.1.5-.1.8-.3.3-.4.6-.7.8-.1.2-.3.3-.4.5-.3.2-.6.5-.9.7l-.7.2c-.1.1-.3.2-.3.3l-.1.1v.1c-.1.1-.3.2-.3.4l-.4.1c-.1.2-.3.4-.4.7-.1.2-.1.4-.1.6v.2c-.1.6-.1 1.2-.1 1.8v1.6c0 .3-.1.5-.1.8 0 .2-.1.5-.1.7v.7c0 .3.1.5.4.7l.9.6.1.1c.3.1.4.3.7.4.1.1.3.1.4.2s.3.1.6.2h.1c.3.1.4.1.6.2h.1c.1.1.3.1.4.2l.4.3 1 .6.7.5c.1.1.1.2.3.3v.1l.1.2.1.1c.1.2.1.4.1.6s0 .5.1.7a1.08 1.08 0 0 0 .3.7c.1.1.1.2.3.3.1.1.1.2.3.3.1.3.4.6.7.8l.3.2.3.2c.1.2.3.3.4.5.1.4.3.8.1 1.1v.2c0 .5 0 1-.1 1.5 0 .3-.1.5-.3.8a1.69 1.69 0 0 0-.3 1c0 .6-.1 1.1-.3 1.6-.3.3-.6.6-.9.8-.1.1-.4.2-.6.4l-.6.4c-.4.2-.7.4-1 .7-.3.2-.4.4-.6.7 0 .1 0 .3.1.4h0c.1.1.1.2.3.3.3.3.6.5 1 .7h.1c.4.2.9.5 1.3.6l.3.1c.3.1.7.2 1 .4l.1.1v.4.2c0 .3.1.5.4.7l.4.3.3.2.9.6h0l.1.1c.1.1.1.1.3.1l.1.1c.1.1.3.2.6.3l.6.3c.3.1.3.2.6.3.1.1.4.2.6.3s.3.1.4.2c.1 0 .1.1.3.1l.1.1.4.3c0 .2 0 .3-.1.5 0 .1-.1.2-.1.2-.1.2-.3.4-.4.7a1.93 1.93 0 0 1-.3 1c-.3.3-.6.5-.9.8l-.3.2c-.1.1-.1.2-.3.3-.1.1-.4.3-.7.4h.1l-.1.1h0 0 0 0 0c-.1.1-.4.2-.6.3h-.1c-.1.1-.3.1-.4.2-.1 0-.3.1-.3.1-.1.1-.3.1-.4.2l-.1.1c-.1.1-.3.1-.4.2s-.4.2-.6.3c-.1.2-.3.4-.3.6h0v.6h0c0 .3 0 .7.1 1l.4.6c.1.1.1.2.3.2l.3.2c.1.2.1.5.1.7s0 .5-.1.7-.3.3-.6.5l-.1.1c-.1.1-.1.2-.3.3v.1l-.4.3H15c-.2.1-.4.2-.6.2h0c-.3.1-.4.2-.7.3l-.3.1-.3.1-.9.3c-.3.1-.6.2-.9.2-.3.1-.4.2-.7.3-.1.1-.3.1-.3.2-.1 0-.1.1-.1.2s0 .2-.1.3l-.4.4-.3.2c-.1.1-.3.2-.3.3l-.4.3c-.1 0-.1.1-.3.2v.2.1.2c.1.3.1.6.3.9v1.4.3c0 .4-.1.7 0 1.1a1.08 1.08 0 0 0 .3.7l.4.4c.1.1.3.2.3.3.1.4.1.9.1 1.3v.7c0 .3 0 .5.1.8s.3.5.6.7l.3.2v.7.6.7.1c0 .4.1.8 0 1.2 0 .2 0 .4.1.6l.4.3c.1.1.3.1.3.2 0 .3 0 .6-.1.9 0 .1-.1.2-.1.4s0 .4.1.6c0 .1.1.2.3.3.1.1.4.2.7.3l.3.2.1.1.1.1.3.2v.2.4.2.3c0 .2 0 .4.1.6.1.1.1.2.3.3l.6.3h.1c.1.1.4.2.7.3l1.2.3h.1c.3.1.7.2 1 .2.4.1.9.1 1.5.2.1 0 .4 0 .6.1.3 0 .7.1 1.2.1H22h.3.3l-.4.3c-.1.1-.4.1-.6.2l-2.1.4-.6.1c-.6.1-1.2.1-1.8.2-1.2.2-1.8.5-1.6.8.1.3 0 .7-.1 1 0 .1-.1.1-.1.2-.1 0-.1.1-.3.1l-.4.1-1.3.3-.1.1c-.4.1-.9.2-1.2.4-.4.2-.7.4-.7.6v.2.1.5l-.6.4-.3.2c-.1.1-.3.1-.4.2s-.3.1-.4.2c-.1 0-.1.1-.3.1-.4.1-.9.4-1.2.6-.1.1-.1.2-.1.4v.3.2.3c0 .1 0 .2.1.4.1.4.1.8 0 1.2l-.4.3-1.2.5c-.4.1-.5.2-.5.4v.2c0 .3 0 .6.1.9.1.4.6.7.9 1l.3.2.3.2c.3.1.4.3.7.4l.1.1c.1 0 .1.1.3.1l.1.1c.1.1.4.2.6.3l.6.3.3.2.3.2v.1.1c0 .1.1.1.1.2v.5.1c0 .1-.1.3-.1.4s-.1.1-.1.2c-.3.1-.3.4-.1.6.6.3 1.3.5 2.1.6.1 0 .3.1.4.1.1.1.3.2.3.3v.3.2.4.1.1c0 .1.1.2.1.3h0c.1.1.1.2.3.3l.3.2c0 .3.1.5.4.7s.7.4 1.2.5l.3.1c.1.1.3.1.4.2.1 0 .3.1.4.1s.1.1.3.1c.3.2.6.3 1 .5l.4.3.1.1c.1.1.3.2.3.3s.1.1.1.2c.1.2.4.4.6.6v.1c.3.3.7.7.9 1l.1.1c.3.1.6.2.9.2h0 0c.1.1.1.2.3.3v.1c0 .2.4.4 1 .6h.4l.3.1.3.1c.1.1.4.2.6.3h.1c.3.2.4.3.7.4.4.2.9.3 1.3.4l1.2.3c.1.1.3.1.6.2h0 0l.4.1h.1 0c.3.1.7.2 1 .4l.6.2.3.1.4.1c.4.2.7.3 1.2.6.3.2.4.5.7.8.1.2.3.3.4.5.3.2.4.3.7.4.4.2.7.3 1.2.4s.7.2 1.2.4l2.6.6.4.1c.3.1.6.1.9.2l1.3.3 2.2.6c.3.1.6.2.7.3l.4.2.3.2h0c.3.1.4.2.7.3.1 0 .3.1.3.1l.1.1c.3.1.4.2.7.2l2.6.7 3.2.7 4.1.6 2.6.3h.3c.6.1 1.3.1 1.9.2s1.2.2 1.9.2l1.8.3c.3.1.6.1.9.2l.7.2c.3.1.6.2.9.4l.3.1c.1.1.4.2.6.3.4.2.9.3 1.3.4l1.8.3 1.8.3c.4.1.9.1 1.3.2 1 .2 2.1.3 3.4.5h.3c.4.1 1 .1 1.5.2h.3c.4.1.9.1 1.5.2l1.9.3 2.2.3.4.1.9.1h.7l2.4.3.7.1 1.6.2c.3 0 .6.1.9.1.6.1 1.3.2 2.1.2.4 0 .9.1 1.3.1h.1l1.3.1h.6c.4 0 .9.1 1.3.1h.3l1.6.2c.3 0 .7.1 1 .1h.4c.4.1.9.1 1.3.1s.9.1 1.3.2.9.1 1.3.2l1.2.3c.1 0 .1.1.3.1l.1.1 1 .3 2.1.3c.6.1 1.2.1 1.9.2 1.2.1 2.4.1 3.5.1h.6 2.6 1.8c.6 0 1 0 1.6-.1h1l2.8-.1h.9.3.6.6l2.6-.1h1.9 1.8.4l2.2-.1h.6.4c.6 0 1.2-.1 1.8-.3.3-.1.7-.2 1-.4l.1-.1c.3-.1.4-.3.6-.4s.1-.3.1-.4v-.4c0-.1 0-.2-.1-.3v-.1c0-.1 0-.2-.1-.4v-.1-.2-.1-.2-.5-.2c0-.1 0-.3.1-.4s.1-.3.3-.4l.4-.8c0-.1.1-.3.1-.4 0-.2.1-.3.3-.4 0-.1.1-.1.1-.2s.1-.2.1-.2c0-.1.1-.2.1-.3v-.1c0-.1 0-.1.1-.2 0 0 0-.1.1-.1 0-.1.1-.2.1-.4v-.3c0-.2 0-.3.1-.5 0-.1.1-.2.1-.3.1-.4.4-.8.9-1.1l.1-.1h0 0c.1 0 .4 0 .6.1.3 0 .6.1.9.1.6.1 1.2.3 1.8.4h.1l1.6.5.6.3.4.3c.1.1.3.3.4.5h-.3-.4c-.1 0-.1 0-.1.1.2.1.3.2.3.4s.1.3.3.4l.1.2c.1.2.3.4.4.5h0l.4.6c.1.2.1.5.1.7 0 .1 0 .2-.1.3v.1c0 .1-.1.3-.1.4v.2.1.1.2l.4.8c.3.2.4.5.4.8 0 .1-.1.3-.1.4s-.1.1-.1.2-.1.2-.1.3-.1.3-.1.4c-.1.2-.3.5-.1.8.1.1.3.3.4.3.6.2 1.2.3 1.8.4s1.3.1 2.1.2l3.5.2h3.1.4 1.9 2.5 2.5.4 2.6.6 3.2.6 2.2 1.6.9.9 1.8 1.8 1.8 3.7 1.8 1.6.1 1.9 1.8l5.3-.1h1.5 6 .9 4.7 2.1 6.3.6 2.1 3.2 1.6 3.7 1.9.1 4.6 2.8 1.8 1.2 1.2.9 1.8.4 2.2 5.9 2.6 5.4 3.1 2.1 1 1.5 1.2 1.3 1.8 5.9.4 1.8 2.5 4.4 1.3 2.9 3.8.3 1.8.7 1.9.3 4.4.6-.1 1.5 1.2.7 1.8 1.9 3.2 1.5 1.8 2.8.7 1.8 1.2.7 1.2 1.3.6 3.8 2.1 1.9 1.8 2.2 2.9l3.1.1h1.3 1.5l2.4.1c.6 0 1.2.1 1.8.1l1.2.1c.4 0 .9.1 1.3.1h.1l3.1.2c.3 0 .7.1 1 .1h.6l1.2.1c.4.1.7.1 1.2.2l4.6.6c.7.1 1.5.1 2.2.1h.6.7c.4 0 .9 0 1.2-.1h.3c.6 0 1.2-.1 1.8-.2h.1l.6-.1.6-.1 4.6-.4c.6 0 1.2-.1 1.8-.1l2.2-.1 3.7-.3 3.4-.3h2.5l3.2.1c1 .1 2.1 0 3.2 0h1.3 2.4 5.4.7l3.2.1h1.8 3.1 2.5l4.6.1h.3l4.4.1h1l3.7.1c.7.1 1.6.1 2.4.2h.3l3.5.2c1.3 0 2.6.2 4 .2l1.5.1 2.1.1c1.2.1 2.4.1 3.5.1h.4c1.3 0 2.6-.1 4-.2.6-.1 1.2-.1 1.9-.2.6-.1 1.3-.1 1.9-.2.9-.1 1.6-.3 2.4-.4.3 0 .4-.1.7-.1.4 0 .9-.1 1.3-.1h1.2 1.3.9 2.5 2.9.7 3.1.7 4.7 1.6 2.6l2.8-.1h1.3l3.7-.1h1.3 1.9.9c.4 0 .9.1 1.3.1l.7.1 1 .1c.6 0 1.2.1 1.6.1.9.1 1.8.1 2.6.1h1.8.7c1 0 2.2-.1 3.2-.2.7-.1 1.5-.2 2.1-.4l1.5-.3h.1c.3-.1.7-.2 1.2-.3h.3.3c.4 0 .9.1 1.3.1.9.1 1.6.2 2.2.4l1.2.3c.1 0 .1.1.3.1.1.1.3.1.6.2l1.3.3 1.5.3c.7.1 1.5.2 2.2.2l2.4.1h.4 1c.4 0 .9 0 1.2-.1s.7-.1 1-.1h.1c.4 0 .7-.1 1.2-.1.4 0 .9-.1 1.3-.1l5.3-.4 2.9-.1h1.9 1.5 3.5 1.6 1.8.3l4.3-.1 4.4-.1h2.6 1.2 1.8 1.8l5.1.1h.3l4.8.1h2.2 2.5c1.2 0 2.5.1 3.7.2h.3-.1l3.1.2 2.1.2c.4 0 .9.1 1.3.1l3.7.3c.6 0 1.2.1 1.8.1h1.8.6 1 1.9.9c.6 0 1.2 0 1.8-.1.6 0 1-.1 1.6-.1l2.1-.2 1-.1.9-.1c.7-.1 1.5-.1 2.2-.2l2.5-.1 2.6-.1h-.1l7.3-.2h2.1 1.3 2.9.4.4 3.7 1.2 1.9.9 3.1l6-.1h.7 2.4 1.9.7l3.5.1c1.2.1 2.6 0 4.3.1h-.1l4.7.1h1.5l4.4-.1h.4 2.1 2.2 1.5.4 2.1 1.9 1l6.5.2h.3l2.8.2 3.1.2c.3 0 .6.1.9.1l.7.1c.6 0 1.2.1 1.8.1l3.5.2c1 .1 2.2.1 3.2.1h.9l5-.2h.6l3.2-.2h.3-.3 1c.6 0 1.3-.1 1.9-.1l3.4-.1h2.4 1.6.9 2.4.1 2.1 2.2l3.8-.1 3.5-.1c1 0 1.9-.1 3.2-.2.3 0 .6 0 .7-.1.3 0 .7-.1 1-.1l2.1-.1 10.9-.3h2.2 4.8 4.8 2.9 1.3 2.1 3.4 4 1.5 2.9 2.1 2.1l3.5.1c1.2.1 2.4.1 3.5.1h3.8 2.8 3.8 3.5 2.8 2.2 1.8 2.6 1.5 4.4.4 4.1l4.6-.1 3.7-.1 4.6-.1h.4l3.2-.1 3.8-.1 2.4-.1 3.4-.1 2.8-.1h1.3 1.8 0l2.6.1c.7.1 1.5.1 2.2.2h.3.3c.3 0 .7.1 1 .1.4 0 1 .1 1.6.1.4 0 1 0 1.5.1h.6 1.3l2.1-.1c.4 0 .9-.1 1.3-.1h1.8 2.6 1.3 2.9 1.3.7 3.4.3 3.5.1 3.8 1.2.6.9 1.3c.6 0 1.3 0 1.9-.1l2.5-.1h4 .3l4.4.1c.6 0 1.2 0 1.8.1l2.6.1 4 .1c1.2 0 2.5.1 3.7.2.6 0 1.3.1 1.9.1l.9.1c.6 0 1.2.1 1.8.1.4 0 1 .1 1.5.1.6 0 1.2.1 1.8.1.3 0 .7.1 1.2.1l2.8.2h1.2c.7 0 1.3 0 1.9-.1l3.1-.2h.3l7.9-.6c.6 0 1.2 0 1.9-.1h1.5.7 2.9.6l4 .1 3.7.1 3.2.1 3.2.1c1.2.1 2.2.1 3.4.1l3.4.1h2.9 1.5 1.8 1.8 1-.3.9.9 1.3.9-.1 1 5.1 7.3 3.2.3 3.2l3.1-.1 2.5-.1h.9.9l2.2-.1h.3-.1l5.3-.2h.1l2.5-.1 2.4-.1h.4.3l5.1-.3 2.5-.3h.4c.6-.1 1.3-.2 1.9-.2l2.5-.2c.7-.1 1.5-.1 2.4-.2l4.7-.5 2.1-.3 2.1-.3.4-.1 3.8-.5 4.3-.3h.6c.6 0 1-.1 1.6-.1.3 0 .6-.1.9-.1l3.1-.2c.6 0 1-.1 1.6-.1s1.2-.1 1.8-.2c1-.1 2.1-.3 2.9-.6.2-.1.4-.2.6-.2l.3-.1.9-.3.4-.2c.1-.1.4-.1.6-.2l.9-.3c.7-.2 1.3-.4 2.2-.5.7-.2 1.6-.4 2.5-.5l2.6-.4c1-.2 1.9-.3 2.9-.4l1.6-.2 1.6-.2h.1l2.6-.3 3.2-.2h1.9l2.1-.1c.6 0 1.3-.1 1.9-.1h.6c.4 0 1-.1 1.5-.1l2.2-.2 2.6-.4.4-.1 3.4-.6c.6-.1 1.2-.2 1.8-.4.4-.1.9-.3 1.3-.4l.1-.1.6-.2 2.1-.8c.1-.1.4-.2.6-.3s.4-.1.6-.2c.4-.1.7-.3 1-.5s.7-.4.9-.6c.3-.2.4-.4.7-.5l.9-.6c.3-.1.4-.3.7-.4l.9-.3c.6-.2 1.2-.3 1.8-.4l.7-.1 1.2-.3c.6-.1 1-.3 1.5-.6h0s.1-.1.1-.2l.1-.1c.1-.1.1-.2.3-.2l1.3-.6 1.9-.7 1.8-.6 1.8-.6c.6-.2 1-.4 1.5-.6.3-.1.4-.2.7-.4.1-.1.3-.2.3-.3.1-.2.3-.5.1-.8 0-.2-.1-.3-.3-.4v-.1c-.1-.1-.1-.2-.3-.3l-1.9-1.6h0c0-.1-.1-.1-.1-.2-.1-.2-.3-.4-.3-.7a.55.55 0 0 1 .3-.5c.3-.2.6-.5.9-.6h0l1.3-.7.4-.2.3-.1.3-.1c.1-.1.3-.2.6-.2a12.75 12.75 0 0 0 1.2-.7c.1-.2.4-.5.4-.7.1-.3.3-.5.3-.8 0-.2 0-.5-.1-.7v-.1c0-.1 0-.3-.1-.4v-.3c0-.2-.1-.3-.1-.5l-.1-.2c0-.2-.1-.4-.1-.6v-.4-.2-1.2h0v-.8-.4-.1-.5-.2c0-.1 0-.3-.1-.4-.1-.4-.1-.8-.1-1.2v-.1-1.1-.6-.1-.1-.2-.2-.2-.2-.1-.2-.2c0-.2-.1-.3-.1-.5l-.1-.3c0-.2-.1-.4-.1-.6v-.2-.1c0-.2-.1-.4-.3-.6l-.1-.2c-.3-.4-.4-.9-.6-1.3l-.1-.3c0-.1 0-.2-.1-.4v-.8-.2-.1c0-.1 0-.1-.1-.2v-.2-.1-.1-.2c0-.1-.1-.2-.1-.3v-.1-.1l-.4-.6c.3 0 .4-.1.6-.2a.78.78 0 0 0 .4-.4c.1-.1.1-.3 0-.4l-.6-.3-.1-.1-.1-.1c-.4-.1-.7-.3-1-.4-.1-.1-.4-.2-.6-.4 0 0-.1-.1-.3-.1l-.4-.3h0l.1-.1c.3-.1.4-.2.7-.3.1-.1.4-.1.7-.2.1 0 .4-.1.6-.1l.4-.1c.7-.1 1.5-.4 2.1-.7.1-.1.4-.2.6-.3.1-.1.3-.3.4-.5.1-.3-.1-.7-.4-.9-.1-.1-.1-.1-.1-.2l-.1-.1s-.1-.1-.1-.2-.1-.1-.1-.2c-.3-.3-.7-.5-1.2-.7l-.1-.1c-.3-.1-.4-.2-.7-.3s-.6-.2-.7-.3-.3-.1-.4-.2c-.3-.1-.7-.2-1-.4l-.4-.3c0-.1-.1-.2 0-.3v-.1l.1-.1h0v-.1c.1-.1.1-.2.1-.4s-.3-.4-.7-.5c-.9-.3-1.8-.5-2.6-.6h-.3l-2.6-.5c-.3 0-.6-.1-1-.1h-.3-.3l-.7-.1h-.3-.3c-.1 0-.1-.1-.3-.2 0-.1-.1-.1-.1-.2l-.1-.1-.3-.2c-.1-.1-.3-.2-.3-.3s-.1-.3 0-.4v-.1l1.6-.6c.3-.1.4-.2.7-.3.5-.2 1-.4 1.5-.5l.6-.1 1.2-.3c.6-.2 1.2-.3 1.6-.5.4-.1.7-.3 1-.4s.7-.3.9-.5c.1-.1.1-.3.3-.5v-.1-.5c0-.2-.1-.3-.3-.4-.4-.3-1-.4-1.6-.5-.3-.1-.6-.1-.9-.1h-.1c-.4-.1-.7-.1-1.2-.2-.3 0-.6-.1-.9-.1h-.3c-.3 0-.6-.1-.7-.1h-.3c-.1 0-.4 0-.6-.1h-.3c-.1 0-.3 0-.4-.1h-.1l-.3-.2v-.2c.4-.4.9-.8 1.6-1 .4-.2.7-.4 1-.6.4-.2.7-.5 1.3-.7h0c.2-.1.4-.2.6-.2l.9-.3 1.3-.3c.3-.1.6-.1.9-.2l.7-.1c.4-.1 1-.2 1.5-.4.1-.1.4-.1.6-.2s.4-.1.6-.2c.4-.1.9-.3 1.3-.5s.7-.4 1-.7c.4-.3.7-.6.9-1 0 0 0-.1.1-.1 0-.1.1-.1.1-.2s.1-.1.1-.2.1-.2.1-.2c0-.1 0-.2-.1-.3v-.2c0-.1 0-.2-.1-.3v-.1l-.4-.3-.3-.2v-.1-.2-.2-.1c.1-.2.4-.3.7-.4h0 .1l.1-.1c.1-.1.4-.2.7-.3.6-.2 1.2-.5 1.6-.9.1-.1.1-.2.1-.3 0-.2 0-.3-.1-.4a.76.76 0 0 0-.4-.2l-.1-.1-.1-.1c-.1-.1-.3-.1-.4-.2-.6-.3-1-.6-1.3-1v.1l-.4-.6-.1-.1v-.1c-.1-.1-.1-.3-.3-.4l-.4-.6c-.1-.2-.1-.4 0-.6s.1-.4 0-.6v-.2c0-.1-.1-.2-.1-.4v-.2c0-.2-.1-.4-.1-.6-.1-.2-.1-.3-.1-.5v-.2-.2c-.1-.2-.1-.4-.1-.6 0-.4.1-.8.3-1.2l.1-.3c0-.1.1-.3.1-.4s.1-.2.1-.3c.1-.2.1-.5 0-.7l-.1-.3c-.1-.4-.3-.8-.3-1.2v-.9-.3-.5c0-.3.1-.5.3-.8 0-.1.1-.3.1-.4.1-.1.1-.3.1-.4.1-.2.1-.4.1-.7v-.1c0-.1.1-.3.1-.4s.1-.2.1-.3c0-.3 0-.7-.1-1 0-.1-.1-.3-.1-.4v-.3-.4c0-.1 0-.1-.1-.2 0-.1-.1-.2-.1-.3 0-.2 0-.4.1-.5.1-.2.1-.4.3-.6 0-.1.1-.1.1-.2.1-.1.1-.2.3-.3.1-.2.1-.4 0-.6-.3-.3-.7-.5-1.2-.6-.6-.2-1.2-.3-1.8-.5h-.1l-1-.3c-.1 0-.3-.1-.4-.1-.4-.2-.7-.3-1-.4l-.4-.3v-.4-.1-.2-.3-.1-.1l.1-.1.4-.6v-.3c0-.1 0-.3.1-.4.1-.2.3-.3.4-.4.1 0 .1-.1.3-.1.6-.1 1.2-.3 1.6-.4 1.5-.4 2.4-.8 2.5-1.2h0v-.2c0-.1-.1-.2-.3-.3-.3-.1-.4-.2-.7-.3l-.1-.1c-.6-.2-1.2-.3-1.8-.5-.1-.1-.3-.1-.3-.2-.1-.1-.3-.1-.4-.2h-.1l-.1-.1c0-.1-.1-.2-.1-.2v-.2c.3-.3.6-.5.9-.8l1.3-.7h0c.4-.2.9-.5 1.2-.8s.4-.6.4-.9c.1-.6.1-1.1 0-1.7a1.91 1.91 0 0 1 0-1.8l.4-.6c0-.1.1-.2.1-.3.1-.2.3-.3.4-.5l.1-.2c.4-.4.7-.8.9-1.3v-.2c0-.1 0-.3.1-.4.1-.2.1-.5.3-.7 0-.2 0-.4-.1-.6-.1-.3-.1-.5-.1-.8 0-.1 0-.2.1-.3 0-.2.1-.3.1-.5v-.6-.3c0-.3 0-.5.1-.8v-.9l-.1-.2c0-.2-.1-.4-.1-.5v-.2c0-.2 0-.4-.1-.6 0-.3-.1-.6-.1-.9 0-.2 0-.4-.1-.7 0-.2-.1-.4-.3-.6l-.1-.1c0-.1-.1-.2-.1-.3-.1-.1-.1-.3-.3-.4-.1-.2-.3-.4-.6-.6s-.4-.4-.7-.6l-.1-.1c-.3-.2-.6-.4-.9-.7-.3-.2-.6-.5-.9-.7-.1-.1-.4-.3-.7-.4-.1-.1-.4-.2-.6-.3l-.3-.2c-.1-.1-.1-.1-.3-.1-.1-.1-.4-.2-.6-.3l-.1-.1c-.2-.1-.4-.2-.6-.2h-.1c-.3-.1-.6-.2-.9-.2h-.1l-1.9-.3h-.1c-.1 0-.3-.1-.4-.1s-.3-.1-.3-.1l-.3-.2c-.1-.2-.1-.3-.1-.5v-.2c0-.1-.1-.3-.1-.4s-.1-.3-.1-.4c-.1-.2-.1-.4-.3-.6-.1 0-.3-.1-.4-.1h0c-.3.1-.6.1-.9.1h-.7c-.3.2-.7.2-1 .3h-.7c0 .1-.1.1-.1.2l-.4.6-.3.3c-.1.2-.1.3-.4.4s-.6.2-.9.2h-.9c-.3 0-.7 0-1-.1-.1 0-.3 0-.4-.1h0c-.6.1-1.2.1-1.8.1-.4 0-.7-.1-1.2-.2-.1 0-.3-.1-.3-.2-.1-.1-.3-.1-.4-.2l-.4-.3c-.1-.1-.3-.3-.4-.5-.1-.1-.1-.2-.1-.3-.1 0-.1 0-.3.1l-.4.1c-.4 0-.9.1-1.3 0-.7 0-1.3-.2-1.8-.5a.76.76 0 0 0-.4-.2h-.1c-.1 0-.4 0-.6.1h-1.9c-.3 0-.6 0-.9-.1h-.9c-1-.1-1.5-.3-1.2-.4a4.87 4.87 0 0 1 2.1-.2h.1.6.6.1c.1 0 .1 0 .3-.1.3 0 .6-.1.9-.1.7-.1 1.3-.1 2.1-.1.4 0 .7.1 1.2.2l.1-.1.3-.2c.2-.1.4-.2.6-.2.3-.1.7-.1 1-.1.6 0 1.2 0 1.6.1.6.2.9.3.9.5l.1.2.4-1.2c0-.2.7-.3 1.8-.3s1.8.2 1.8.4v.7.5c.1 0 .3 0 .4-.1.4 0 .9-.1 1.3 0l.3-.2v-.1-.1c0-.1 0-.1.1-.2.3-.1.6-.2.9-.2.4 0 .9-.1 1.3 0a1.76 1.76 0 0 1 .6.1V86v-.2c-.1-.4 0-.7.1-1.1.1-.3.4-.6.6-.9.4-.5.7-1.1 1-1.6.1-.2.3-.5.6-.7l.4-.6.1-.1c.1-.3.4-.5.7-.7.3-.3.7-.5 1.2-.8.4-.2 1-.4 1.6-.6l1.3-.3 1.5-.3c.7-.2 1.3-.4 1.9-.8.1-.1.1-.2.3-.3 0-.1.1-.1.1-.2.1-.1.3-.3.6-.4h0c.4-.3.9-.6 1.2-1s.6-.8.7-1.3c0-.4 0-.8-.1-1.2-.1-.2-.1-.4-.1-.7 0-.2 0-.3-.1-.5 0-.2-.1-.4-.1-.6l-.1-.3c0-.3 0-.7.3-1 .6-.6 1.2-1.1 2.1-1.5.3-.2.6-.4.9-.7.3-.2.4-.5.4-.8 0-.2 0-.5-.1-.7-.1-.3-.4-.6-.7-.8-.1-.2-.4-.3-.6-.5l-.4-.3c-.3-.3-.6-.5-.9-.8 0-.1-.1-.2-.1-.3s-.1-.2-.1-.3c-.1-.2-.1-.4-.3-.7v-.5-.2-.2-.6c0-.4 0-.9-.1-1.3v-.2c0-.4 0-.8.1-1.2V58c.1-.5.1-1 .1-1.5V56v-.1c0-.1 0-.3.1-.4 0-.1.1-.2.1-.3 0-.2.1-.5.1-.7v-.8c0-.2.1-.6.1-.8s.1-.6.1-.8v-.6-.5c0-.2 0-.5.1-.7 0-.2.1-.5.1-.7s0-.3.1-.5v-.3l.4-1.3v-.1c0-.1.1-.2.1-.4 0-.1 0-.2.1-.2l.1-.3c0-.1.1-.3.1-.4 0-.2.1-.3.1-.5.1-.3.1-.5.3-.8.1-.5 0-1-.1-1.4v-.2c0-.2-.1-.3-.1-.5v-.4-.2-.1c0-.4 0-.8.3-1.2.1-.2.3-.3.4-.5l.1-.1c.1-.1.3-.2.3-.3.3-.4.6-.8.6-1.2 0-.2.1-.4.1-.7 0-.2.1-.4.1-.6l.4-1c.1-.2.3-.5.3-.8s0-.6-.3-.9c-1.7-.6-1.7-1.3-1.3-1.8h0zm-161.7 154.3c-1.6.3-3.2.4-5 .4-.7 0-1.3 0-2.1-.1l-2.1-.2-.4-.1h-.3l-.4.1h.3l-1 .3-3.2.8a45.07 45.07 0 0 1-5.3.9c-1.3.2-2.6.3-4 .3-1 0-2.1-.1-2.9-.3-.7-.1-1.2-.3-1.2-.5v-.1c0-.2.3-.3.7-.5l1-.3c.4-.1.7-.1 1.2-.2l.6-.1c.4-.1.9-.1 1.3-.2l.7-.2 2.2-.7 2.6-.8 2.6-.6 1-.2c.1-.1.3-.1.4-.2.3-.2.6-.3.7-.5.3-.2.4-.4.7-.6.6-.4 1.3-.6 2.1-.8.7-.2 1.5-.3 2.4-.4.6-.1 1.2-.1 1.8-.1h1.2c.6 0 1.2.1 1.8.2.3.1.6.1.9.3l.1.1.4.3c.1.1.1.2.3.3l.1.1.4.3c.3.3.4.6.6.9v.3.2l.6.3.1.1c.3.1.4.3.4.5.4.4-.2.7-1.3 1h0zm52.9-21.7c-.6.2-1.3.4-1.9.5-1.5.3-2.9.5-4.7.7-.1 0-.3 0-.4.1l-1.5.2-.4.1c-.3 0-.6.1-.9.1h-.3l-4 .5-1.3.3-1.3.2-1.3.3-1.3.3-5.6 1.3-2.2.4-5.7 1.1-4.3.8-1.3.3-1.5.4-3.2.9a23.76 23.76 0 0 1-3.7.6c-1.3.2-2.6.3-4 .3-1.2.1-2.4.1-3.7.1h-1.3-2.2-.6c-.9 0-1.6 0-2.4-.1l-3.7-.4c-1.2-.2-1.9-.5-2.1-.8v-.1c-.3-.1-.5-.2-.6-.4v-.1-.1c0-.2.3-.4 1-.6l.6-.2c.3-.2.6-.3 1-.5.7-.3 1.5-.5 2.2-.7l3.7-.8c.9-.2 1.9-.3 2.9-.4l.6-.1 2.8-.4 5.7-.8 4.1-.5 5.3-.6 4.7-.5 3.8-.4.7-.1.7-.1 1.2-.3c.3-.1.7-.1 1-.2.3 0 .4-.1.7-.1l1.3-.3.7-.2 2.9-.7 4-.6.4-.1c1.5-.3 3.1-.5 4.7-.6l2.1-.1 3.4.1 4.6.5c1.7.7 2 1.3.6 1.8h0 0z"/></svg>