<?xml version="1.0" encoding="utf-8"?>
<!-- Generator: Adobe Illustrator 25.4.1, SVG Export Plug-In . SVG Version: 6.00 Build 0)  -->
<svg version="1.1" id="Layer_1" xmlns:v="https://vecta.io/nano"
	 xmlns="http://www.w3.org/2000/svg" xmlns:xlink="http://www.w3.org/1999/xlink" x="0px" y="0px" viewBox="0 0 1184 228.2"
	 style="enable-background:new 0 0 1184 228.2;" xml:space="preserve">
<style type="text/css">
	.st0{fill:#62ABD0;}
</style>
<path class="st0" d="M798.9,10.2L798.9,10.2L798.9,10.2L798.9,10.2L798.9,10.2z M375.8,0.7h-0.1l0,0H375.8z"/>
<path class="st0" d="M737.7,170.6h-1.8h-1.1c-0.9,0-1.7,0.1-2.5,0.2h-0.2c-0.6,0-1.4,0.1-2.1,0.2c-0.5,0.1-1.1,0.1-1.6,0.2l-0.4,0.1
	l-0.7,0.1h-0.4c-0.2,0-0.4,0-0.6,0.1c-0.2,0-0.4,0.1-0.6,0.1h-0.4h-0.4l-2.1,0.1l-2.5,0.1l-2.9,0.2c-0.8,0.1-1.5,0.1-2.2,0.1
	l-3.1,0.3c-0.5,0.1-1,0.1-1.5,0.1h-0.3c-0.6,0-1.1,0.1-1.6,0.1l-1.9,0.2c-0.4,0.1-0.8,0.1-1.2,0.2c-0.2,0-0.4,0.1-0.5,0.1h-0.3
	c-0.3,0-0.5,0.1-0.5,0.2l0.1,0.1c0.1,0,0.1,0,0.2,0.1l0,0c0.3,0.2,0.7,0.2,1.1,0.3c0.6,0.1,1.3,0.1,2,0.1h1.3h0.4h1.2h0.7h1.9
	l2.1-0.1c0.7,0,1.4-0.1,2-0.2l1.7-0.3l0.8-0.1l0.7-0.1l2.3-0.2l3.1-0.3l1.2-0.1l3-0.4l0.7-0.1l0.7-0.1l0.7-0.1l0.7-0.1
	c0.8,0,1.5-0.1,2.2-0.2h0.2h0.5h0.3l0.8-0.1h0.3l2.5-0.2c0.4,0,0.7-0.1,1-0.2c0.8-0.2,0.6-0.3-0.4-0.5
	C739.4,170.7,738.6,170.7,737.7,170.6L737.7,170.6z M798.9,10.2L798.9,10.2L798.9,10.2L798.9,10.2L798.9,10.2z"/>
<path class="st0" d="M558.2-0.3H558l0,0H558.2z M1179.8,32.9L1179.8,32.9L1179.8,32.9L1179.8,32.9L1179.8,32.9L1179.8,32.9
	L1179.8,32.9c0.1-0.3,0.3-0.6,0.1-0.9c-0.1-0.2-0.3-0.4-0.4-0.5c-0.3-0.2-0.6-0.3-1-0.5s-0.9-0.4-1.3-0.5c0-0.1,0-0.1-0.1-0.2
	c-0.5-0.3-1-0.6-1.6-0.8c-0.7-0.2-1.3-0.5-2.1-0.7l-0.3-0.1l-0.3-0.1l-0.1-0.1l-0.1-0.1c-0.1-0.1-0.3-0.1-0.6-0.1
	c-0.3-0.1-0.6-0.2-0.7-0.3s-0.3-0.2-0.3-0.3v-0.2l0.1-0.1c0.1-0.1,0.3-0.1,0.4-0.2c0.3-0.1,0.6-0.2,0.9-0.4c0.1-0.1,0.3-0.1,0.3-0.2
	c0.1,0,0.1-0.1,0.3-0.1c0.1-0.1,0.4-0.2,0.7-0.3l0,0c0.1,0,0.1-0.1,0.1-0.1c0.1-0.1,0.3-0.1,0.3-0.2c0.1-0.1,0.1-0.3,0-0.4
	c0-0.1-0.1-0.2-0.3-0.2c-0.1-0.1-0.3-0.1-0.4-0.2l-0.9-0.3l-0.4-0.1l-0.9-0.3l-1.5-0.5c-0.4-0.2-0.9-0.3-1.2-0.4
	c-0.4-0.1-0.7-0.3-1-0.5c-0.1-0.1-0.4-0.2-0.6-0.3c-0.1-0.1-0.1-0.2-0.3-0.3c0-0.1-0.1-0.2-0.1-0.3V22c-0.1-0.2-0.1-0.3-0.1-0.5l0,0
	v-0.2c0-0.1,0-0.2,0.1-0.2c0.1-0.1,0.1-0.2,0.3-0.3l0.4-0.3c0.1-0.1,0.3-0.2,0.4-0.4c0.1-0.1,0.1-0.2,0.1-0.4
	c-0.1-0.3-0.4-0.6-0.9-0.8c-0.3-0.2-0.6-0.3-0.9-0.4s-0.7-0.3-1.2-0.4l-0.3-0.1c-0.3-0.1-0.6-0.2-0.9-0.2l-2.1-0.6l-0.9-0.3
	c-0.4-0.1-0.7-0.3-1.2-0.4l-2.2-0.8l-2.5-0.7l-0.6-0.2c-0.3-0.1-0.7-0.2-1.2-0.3c-0.6-0.2-1.3-0.3-2.1-0.4l-0.6-0.1
	c-0.7-0.2-1.5-0.3-2.2-0.4l-2.4-0.5c-0.3-0.1-0.4-0.1-0.7-0.2l-0.9-0.3l-0.1-0.1l-1.6-0.6c-0.4-0.2-1-0.4-1.6-0.5l-2.4-0.6
	c-0.6-0.1-1.2-0.2-1.8-0.4c-0.3-0.1-0.6-0.1-0.9-0.2l-0.4-0.1c-0.6-0.1-1.2-0.3-1.9-0.4l-2.8-0.3h-0.1c-0.4,0-0.9-0.1-1.3-0.1h-0.4
	c-0.6-0.1-1.3-0.1-1.9-0.2c-0.7-0.1-1.5-0.1-2.2-0.1c-0.4,0-0.9-0.1-1.3-0.1l-1.5-0.1l-1.5-0.1c-0.4,0-0.9-0.1-1.5-0.1
	s-1-0.1-1.6-0.1l-3.1-0.2l-0.6-0.3c-0.7-0.1-1.3-0.1-2.1-0.1c-0.3,0-0.7,0-1-0.1h-0.6l-1.2-0.1h-0.6c-1-0.1-2.2-0.1-3.5-0.2
	c-1,0-2.1-0.1-2.9-0.1l-4-0.2c-0.6-0.1-1.3-0.1-1.9-0.2l-1.5-0.3c-0.3-0.1-0.4-0.1-0.6-0.2s-0.3-0.1-0.6-0.2
	c-0.6-0.2-1.2-0.3-1.8-0.4l-2.4-0.4c-0.4,0-0.7-0.1-1.2-0.1c-0.4,0-0.9-0.1-1.3-0.1c-0.7-0.1-1.5-0.1-2.4-0.1h-2.5h-1h-1.6
	c-0.9,0-1.8,0-2.6-0.1h-1.3c-0.6,0-1.2,0-1.9-0.1c-0.7,0-1.5-0.1-2.4-0.1s-1.6,0-2.5-0.1h-2.1l-2.9-0.1h-1.6h-1.3
	c-1,0-2.2-0.1-3.2-0.1h-2.1h-1.2c-1.5,0-2.9-0.1-4.3-0.2l-2.2-0.3c-0.4-0.1-0.7-0.1-1.2-0.2l-4.6-0.7l-3.7-0.3l-3.8-0.2h-0.4
	c-1.2,0-2.2-0.1-3.4-0.1h-1.2c-1,0-1.9-0.1-2.9-0.1c-0.6,0-1.2-0.1-1.6-0.1l-1.9-0.4h-1.9l-5-0.2c-1.2,0-2.4-0.1-3.2-0.1h-0.6
	c-0.9,0-1.9-0.1-2.8-0.1l-6.5-0.3h-0.4c-0.9,0-1.6-0.1-2.5-0.1c-1.2-0.1-2.4-0.1-3.5-0.1H995h-0.9h-0.7c-0.9,0-1.8,0-2.8,0.1h-1.3
	h-1.3h-0.3h-2.1c-0.6,0-1.2-0.1-1.6-0.1c-0.6,0-1.2-0.1-1.8-0.1l-1.9-0.2c-0.4-0.1-1-0.2-1.6-0.3c-0.4-0.1-0.9-0.2-1.3-0.2
	c-0.4-0.1-1-0.1-1.6-0.1c-0.6,0-1.3-0.1-1.9-0.1H973h-0.6c-0.4,0-0.9,0.1-1.5,0.2c-0.3,0.1-0.6,0.1-0.9,0.2
	c-0.3,0.1-0.6,0.1-0.9,0.2h-0.4h-0.4h-0.1h-0.4c-0.3,0-0.6,0-0.9-0.1c-0.4,0-0.7-0.1-1.2-0.1S965.2,0,964.9,0l-0.4-0.1
	c-0.3-0.1-0.7-0.1-1-0.2c-0.7-0.1-1.6-0.2-2.4-0.2c-0.7,0-1.5-0.1-2.2-0.1h-0.3h-0.9h-0.4h-1.2h-0.7c-0.7,0-1.5,0-2.2,0.1
	c-0.3,0-0.7,0-1,0.1h-0.7c-0.7,0-1.5,0.1-2.2,0.1h-1.6h-1.8h-3.1h-1.5c-0.4,0-1,0-1.6-0.1c-0.9,0-1.9-0.1-2.8-0.1h-0.1h-0.1
	c-1,0-2.1-0.1-3.1-0.1h-2.6h-2.1h-2.8h-3.2h-0.4l-5.1,0.1h-0.6h-4h-1.9h-2.2H901h-2.2H898h-2.2h-2.1h-1.2c-2.5,0-5-0.1-7.6-0.2
	c-1,0-2.1-0.1-2.9-0.1h-0.3c-1,0-2.2-0.1-3.2-0.1h-4.4h-1.2l-5.4,0.1l-6.2,0.2h-1H860h-0.3h-1c-0.4,0-0.9,0.1-1.3,0.1
	c-0.3,0-0.7,0-1,0.1c-1,0.1-2.1,0.1-3.1,0.1c-0.9,0-1.8,0.1-2.6,0.1c-0.7,0-1.6,0.1-2.4,0.1c-0.4,0-0.9,0.1-1.2,0.1
	c-0.7,0.1-1.5,0.1-2.1,0.1c-0.9,0-1.8,0.1-2.8,0.1h-0.6l-3.1,0.1l0,0h-3.2h-0.7h-2.6h-1h-1h-1.3h-1.2h-1h-1.5h-1h-1.3h-4.3h-1h-1
	h-2.1l-3.7,0.1l-3.1,0.1h-0.6H806h-0.7c-0.7,0-1.5,0-2.4,0.1L800,0.7c-0.4,0-0.7,0-1.2,0.1L795,1h-0.9h-1c-0.6,0-1.3,0-1.9,0.1
	l-3.8,0.1L784,1.3h-1h-1h-1h-0.7h-0.3l-2.5,0.1h-2.5h-1.3h-0.9h-1.3h-0.7h-1.9h-0.9h-1h-1.9h-4.6h-2.2h-0.4h-1.6l-5,0.2l-4.4,0.2
	L742,1.9L738.5,2h-1.6h-1.8h-0.1h-5.7H728h-1h-2.5h-0.9h-2.8h-3.4h-3.4h-3.5h-1.3h-1.9l-7.1,0.1l-6,0.1h-0.9h-0.6l-3.5,0.1
	c-0.9,0-1.8,0.1-2.6,0.1c-0.6,0-1.2,0.1-1.8,0.1c-0.9,0-1.9,0.1-2.8,0.1c-0.7,0-1.3,0-2.1,0.1c-1.5,0.1-2.8,0.1-4,0.1h0.1
	c-0.9,0-1.6,0-2.5,0.1c-0.7,0-1.5,0-2.2,0.1h-0.1l0,0H670h-1.3l-5.7,0.1l-3.1,0.3h-2.1h-2.4H654h-1.8l-2.9,0.1h-0.4h-1.5H646h-2.9
	h-0.1h-1h-0.6h-1.2h-0.4H638h-1.6h-3.2h-0.3h-2.1h-1h-0.6h-1.8h-0.9H626h-2.4h-2.9h-0.9l0,0c-0.6,0-1,0-1.5,0.2h-0.9h-1h-5h-0.1
	h-2.5h-2.6h-3.8h-6.5h-4.8c-1,0-2.1-0.1-2.9-0.1l-2.5-0.3L583.1,3l-2.5-0.3c-0.4,0-1-0.1-1.5-0.1c-0.6,0-1.2-0.1-1.8-0.2L572.6,2
	l-5.4-0.3c-0.4,0-1,0-1.5-0.1h-0.7c-0.7,0-1.5-0.1-2.2-0.1h-0.3l-3.7-0.2c-0.3,0-0.4,0-0.6-0.1h0.1h-0.1l0,0H558l0,0l0,0l0,0l0,0
	c0.1-0.1,0.4-0.3,0.7-0.4c0.1-0.1,0.3-0.2,0.4-0.2c0.1-0.1,0.1-0.3-0.1-0.4s-0.7-0.3-1-0.3c-0.6-0.1-1.2-0.2-1.8-0.2
	c-0.6-0.1-1.3-0.1-1.9-0.2c-0.3,0-0.6,0-0.9-0.1c-0.7-0.1-1.5-0.1-2.4-0.2c-0.7,0-1.3-0.1-2.1-0.1h-0.1h-0.6h-1h-0.6H543l-6.3,0.1
	l-4.6,0.1c-0.7,0-1.6,0-2.4,0.1l-2.9,0.1h-2.6h-2.4l-4.1,0.1c-0.7,0-1.5,0.1-2.2,0.1c-0.4,0-1,0.1-1.5,0.1c-0.4,0-0.9,0-1.3,0.1
	c-0.7,0-1.5,0.1-2.2,0.1c-0.6,0-1,0.1-1.6,0.1c-0.7,0-1.5,0.1-2.1,0.1h-1.2c-0.9,0-1.8,0.1-2.6,0.1h-1l-3.4,0.1l-4.1,0.1
	c-0.7,0-1.3,0.1-2.1,0.2c-1.2,0-1.6,0.1-1.6,0.3s0,0.3,0.3,0.4c0.1,0.1,0.3,0.1,0.3,0.2l0,0l0,0l-0.1,0.1H491c-0.3,0-0.6,0.1-1,0.1
	h-0.3c-0.6,0-1.2,0.1-1.8,0.1C487.1,2,486.2,2,485.3,2h-1.8h-0.6h-1.2H481h-5c-1.5,0-2.9,0-4.6-0.1H471h-1.9h-2.2h-0.7L455.8,2h-2.5
	h-1.9h-1.6H449h-2.8l0,0c-1.2,0-2.4-0.1-3.5-0.1l-1.3-0.1c-0.7,0-1.5-0.1-2.2-0.1c-1,0-2.1-0.1-3.1-0.1h-0.6c-1.3,0-2.5-0.1-3.8-0.1
	c-0.9,0-1.8-0.1-2.5-0.1h-0.6c-0.6,0-1.2-0.1-1.9-0.1h-1.8h-0.4c-0.9,0-1.6,0-2.5,0.1h-0.4c-0.4,0-1,0-1.5,0.1h-0.9
	c-0.7,0-1.5,0.1-2.1,0.1h-0.7l-5.3,0.2h-1.8h-2.1l-4.1,0.1c-0.6,0-1,0-1.6,0.1l-1.8,0.1c-0.6,0-1.2,0-1.6,0.1
	c-0.7,0-1.5,0.1-2.2,0.1c-1.2,0-2.4,0.1-3.5,0.2l-3.5,0.3c-0.6,0.1-1.2,0.1-1.8,0.2c-0.4,0.1-0.9,0.1-1.3,0.2l-3.4,0.3
	c-0.9,0.1-1.8,0.1-2.6,0.2h-0.3h-0.6c-0.7,0.1-1.6,0.1-2.4,0.2l-5.4,0.2h-0.4h-3.5h-0.7L362,4.2h-1.5h-2.9h-0.4h-3.2
	c-0.6,0-1.3,0-1.9-0.1h-0.6h-2.8h-2.1h-4.8h-7.6c-2.5,0-5,0-7.5-0.1c-0.7,0-1.3,0-2.1-0.1h-1c-0.4,0-0.9,0-1.3-0.1
	c-1.3,0-2.8-0.1-4.1-0.1h-1.3l-12.9,0.2h-0.1h-2.5h-0.7h-2.2h-0.4c-1.5,0-2.9,0-4.4-0.1h-1.6H290h-0.6h-2.9l-4.1,0.1h-1.5L276.2,4
	h-1.8h-1.9h-1.3h-9.4h-9.3c-2.9,0-5.9,0-8.8-0.1c-1.5,0-2.9-0.1-4.4-0.2c-0.6,0-1.2-0.1-1.8-0.1h-0.4h-0.7c-0.6,0-1.2,0-1.9-0.1
	c-1.8,0-3.7-0.1-5.6-0.1c-1.8,0-3.4,0-5.1-0.1c-1.3,0-2.6-0.1-4-0.2L217,2.9l-0.6-0.1l-4.7-0.3h-2.5h-0.4h-3.1
	c-1.3,0-2.5-0.1-3.8-0.2L201,2.2c-0.7-0.1-1.6-0.1-2.4-0.2l-3.8-0.2h-0.9h-1.2c-0.4,0-1-0.1-1.5-0.1H191l-3.7-0.2h-1h-0.6h-0.6h-1.3
	h-3.1h-1.5c-2.4,0-4.8,0-7.2-0.1c-0.9,0-1.6-0.1-2.5-0.1h-0.3c-0.3,0-0.7,0-1-0.1s-0.7,0-1.2,0h-0.3c-0.7,0-1.5-0.1-2.2-0.1
	c-0.4,0-0.7-0.1-1.2-0.1s-0.9-0.1-1.5-0.1h-0.3h-0.1c-0.3,0-0.4-0.1-0.7-0.1c-0.4-0.1-0.9-0.1-1.5-0.1c-0.7,0-1.5-0.1-2.2-0.1h-0.4
	c-1,0-2.1-0.1-2.9-0.1h-1.9h-0.4h-1.6c-0.9,0-1.8-0.1-2.6-0.2c-1-0.1-2.2-0.2-3.5-0.2h-1.9H139h-0.1c-0.9,0-1.6,0-2.5,0.1
	c-0.7,0-1.3,0.1-1.9,0.1c-0.9,0.1-1.6,0.1-2.5,0.1L129,0.5l-5.3,0.1h-4.1l-3.7,0.1h-0.4h-1.8h-1.9c-1,0-1.9,0.1-2.8,0.1
	s-2.1,0.2-2.8,0.3l-0.6,0.1c-0.4,0.1-0.9,0.1-1.3,0.2c-0.6,0.1-1.2,0.1-1.9,0.2c-0.3,0-0.6,0-0.9,0.1s-0.6,0-0.9,0.1H100
	c-0.4,0-0.9,0.1-1.2,0.1H98h-0.6l-3.2,0.3c-0.4,0.1-0.7,0.1-1.2,0.2l-2.1,0.3h-0.1h-0.1l0,0L88.4,3h-0.3c-0.1,0-0.4,0.1-0.6,0.1
	h-0.1h-0.1l-0.4,0.1l-0.7,0.1L84,3.6l-2.2,0.3l-2.9,0.5l-2.1,0.3L74.9,5c-0.4,0-0.7,0.1-1.2,0.1c-0.4,0.1-0.9,0.1-1.3,0.2
	c-1.5,0.2-2.9,0.5-4.3,0.8c-0.7,0.2-1.6,0.3-2.5,0.5c-0.6,0.1-1.2,0.3-1.9,0.4c-0.3,0.1-0.6,0.1-0.9,0.2S62.3,7.3,62,7.4
	c-0.6,0.1-1.3,0.3-1.9,0.4l-2.8,0.4l-0.4,0.1L52,9l-1.6,0.3l-0.4,0.1h-0.1c-0.9,0.1-1.6,0.3-2.5,0.4c-0.9,0.2-1.6,0.3-2.2,0.4
	c-0.6,0.1-1.2,0.3-1.8,0.4l-0.4,0.1l-2.9,0.6l-1.3,0.3l-4,0.8l-0.6,0.1l-1.6,0.3C32,12.9,31.6,13,31.3,13s-0.4,0.1-0.7,0.1
	c-0.3,0.1-0.6,0.1-0.9,0.2c-0.1,0-0.4,0.1-0.6,0.1l-1.8,0.3c-0.6,0.1-1.3,0.2-2.1,0.2l-2.1,0.3c-0.4,0.1-1,0.1-1.5,0.2l-2.8,0.4
	c-0.3,0-0.6,0.1-0.9,0.1l-1.3,0.3h-0.1c-0.4,0.1-0.7,0.3-1,0.5c-0.1,0.1-0.3,0.3-0.3,0.5v0.1c0,0.1,0.1,0.1,0.1,0.2l0.1,0.1l0.3,0.2
	c0.1,0.1,0.4,0.3,0.7,0.4c0.3,0.2,0.6,0.4,0.7,0.6s0.1,0.5,0,0.7v0.2v0.2v0.7c0,0.3,0,0.7,0.1,1c0.1,0.2,0.3,0.4,0.4,0.5
	c0,0.1,0.1,0.1,0.1,0.2l0.1,0.1v0.1l0,0c0,0.1,0.1,0.2,0.1,0.3l0,0c0.1,0.1,0.4,0.2,0.6,0.3l0.1,0.1l0,0l0,0v0.2
	c0,0.2,0.1,0.4,0.3,0.6c0.1,0.2,0.4,0.3,0.6,0.4c0.2,0.1,0.4,0.2,0.6,0.2c0.3,0.1,0.6,0.2,0.9,0.2l0.3,0.1c0.1,0,0.1,0.1,0.3,0.1
	c0.3,0.1,0.6,0.2,0.9,0.2H23c0.4,0.1,0.7,0.2,1.2,0.2c0.4,0.1,0.7,0.1,1.2,0.2h0.1V25l-0.1,0.1c-0.1,0-0.1,0-0.3,0.1H25
	c-0.1,0-0.3,0-0.6,0.1c-0.7,0-1.5,0.1-2.2,0.1l-1.3,0.1l-3.1,0.4c-0.4,0.1-0.9,0.2-1.3,0.4c-0.1,0.1-0.3,0.2-0.1,0.4
	c0,0.2,0.1,0.3,0.3,0.4l0.3,0.2l0.3,0.2c0,0.6-0.1,1.1-0.4,1.6c-0.4,0.5-0.7,0.7-1,0.9l-0.4,0.3l-0.1,0.1c-0.1,0.1-0.3,0.1-0.4,0.2
	l-0.1,0.1c-0.3,0.2-0.4,0.5-0.4,0.8v0.1c0,0.2-0.1,0.4-0.3,0.6c-0.1,0.1-0.1,0.2-0.3,0.3c-0.2,0.1-0.3,0.2-0.3,0.4
	c0,0.2,0,0.3,0.1,0.5l0,0c0.3,0.3,0.7,0.5,1.2,0.6c0.3,0.1,0.6,0.2,1,0.2c0.3,0.1,0.7,0.1,1,0.1h0.1c0.6,0.1,1,0.1,1.6,0.1h1
	c0.6,0,1.3-0.1,1.9-0.1c0.5,0,1-0.1,1.5-0.3h0.1H23c0.1,0,0.3-0.1,0.4-0.1h0.3c0.1,0,0.3,0,0.4-0.1h0.3c0.3,0,0.7-0.1,1-0.2h0.3h0.3
	c0.1,0,0.3,0,0.4-0.1h0.3H27h0.4c0.3,0,0.6-0.1,0.7-0.1h0.1c0,0,0.1,0,0.3-0.1c0.1,0,0.3-0.1,0.3-0.1h0.1h0.1h0.1
	c0.2,0,0.4-0.1,0.6-0.2c0.1,0,0.3-0.1,0.4-0.1c0.1-0.1,0.3-0.1,0.6-0.2c0.3-0.1,0.3-0.1,0.4-0.2s0.3-0.1,0.4-0.2
	c0.2-0.1,0.4-0.2,0.6-0.2c0.1,0,0.3-0.1,0.4-0.2c0.1,0,0.1-0.1,0.3-0.1c0.1,0,0.1-0.1,0.3-0.1l0.3-0.1c0.1,0,0.1-0.1,0.3-0.1l0,0
	c0.3-0.2,0.7-0.3,1-0.4c0.1-0.1,0.4-0.1,0.7-0.2c0.1-0.1,0.3-0.1,0.4-0.1c0.1,0,0.3-0.1,0.4-0.1l1.5-0.3c0.4-0.1,1-0.1,1.5-0.2
	c0.3,0,0.7,0,1.2-0.1h0.4c0.1,0,0.3,0,0.4,0.1c0.1,0.1,0.3,0,0.4,0.1c0.1,0.1,0.3,0,0.4,0.1l0,0l0,0c0,0.1,0,0.2-0.1,0.3l0,0
	c0,0.2-0.1,0.4-0.3,0.5l-0.4,0.3c-0.3,0.1-0.7,0.3-1.2,0.4s-0.9,0.3-1.3,0.4c-0.1,0-0.3,0.1-0.3,0.1S38.6,32,38.5,32
	c-0.1,0-0.3,0.1-0.4,0.1l-0.1,0.1c-0.3,0.1-0.4,0.2-0.7,0.3C37,32.6,37,32.7,37,32.8v0.1c-0.1,0.1-0.3,0.2-0.3,0.4
	c-0.3,0.1-0.3,0.3-0.1,0.5l0.1,0.1c0.3,0.1,0.7,0.2,1,0.3c0.4,0,0.9,0.1,1.3,0.1l0,0c0.4,0,1,0,1.5-0.1h0.1c0.1,0,0.4,0,0.6-0.1h0.3
	h0.6h0.6c0.4,0,0.7,0,1.2-0.1c0.1,0,0.1,0.1,0.3,0.1v0.1v0.1c0.1,0.2,0.1,0.3,0.3,0.5c0.1,0.1,0.1,0.2,0.3,0.3
	c0.3,0.2,0.6,0.3,0.9,0.4c0,0.1,0.1,0.3,0.1,0.5v0.2v0.1v0.4c0,0.1-0.1,0.1-0.3,0.2C45.4,37,45.2,37,45.1,37l-0.6,0.1L44.1,37
	c-0.3,0-0.4,0.1-0.7,0.1H43c-0.6,0.1-1.2,0.1-1.8,0.2c-0.6,0.1-1.2,0.1-1.8,0.2c-0.4,0-0.9,0.1-1.3,0.2c-0.3,0.1-0.7,0.1-1,0.2
	c-0.3,0.1-0.6,0.1-0.9,0.2c-0.1,0.1-0.4,0.1-0.6,0.2h-0.1c-0.1,0.1-0.3,0.2-0.3,0.3v0.2l0,0c0.1,0.3,0.1,0.6,0,0.9
	c-0.1,0.1-0.1,0.2-0.3,0.3c-0.1,0.1-0.1,0.2-0.3,0.2c-0.1,0.1-0.1,0.2-0.1,0.4v0.3c0,0.1-0.1,0.1-0.3,0.2s-0.3,0.1-0.6,0.2l0,0
	c-0.1,0-0.3,0.1-0.4,0.1h-0.3h-0.1c0,0-0.1,0-0.1-0.1c-0.1,0-0.1-0.1-0.3-0.1l0,0c0.3-0.2,0.1-0.3,0.1-0.3l-0.1-0.1l-0.1-0.1v-0.2
	v-0.1c0-0.3-0.3-0.5-0.7-0.6c-0.3-0.1-0.6-0.1-0.7-0.2h-0.3h-0.1c-0.1,0-0.1-0.1-0.3-0.1c-0.3-0.1-0.6-0.1-0.9-0.2
	c-0.1,0-0.4-0.1-0.6-0.1H28v-0.1V39c0-0.2-0.1-0.3-0.3-0.4l-0.4-0.3h-0.1c-0.1-0.1-0.3-0.1-0.4-0.2C26.6,38,26.4,38,26.1,38H26
	c-0.3-0.1-0.7-0.3-1.2-0.3c-0.6-0.1-1-0.1-1.6-0.1h-1c-0.7,0-1.6,0-2.4,0.1c-0.3,0-0.6,0.1-0.9,0.1h-0.3l-0.3,0.1
	c-0.3,0-0.4,0.1-0.7,0.1c-0.4,0.1-0.7,0.1-1,0.2c-0.1,0-0.4,0.1-0.6,0.1s-0.1,0.1-0.3,0.1s-0.1,0.1-0.3,0.1c0,0-0.1,0-0.1,0.1
	c-0.1,0-0.3,0.1-0.3,0.1c-0.1,0-0.3,0.1-0.4,0.1l0,0c0,0-0.1,0-0.1,0.1c0,0-0.1,0-0.1,0.1c0,0-0.1,0-0.1,0.1
	c-0.1,0.1-0.3,0.1-0.4,0.2l-0.1,0.1v0.1c-0.1,0.1-0.3,0.3-0.4,0.4l0,0c-0.3,0.2-0.3,0.4-0.3,0.6c0,0.3,0.2,0.5,0.4,0.7
	c0.1,0.1,0.4,0.3,0.7,0.4c0.3,0.1,0.5,0.2,0.6,0.4v0.3v0.5v0.3c0,0.4,0.1,0.8,0.1,1.2l0.3,2.4v0.6v0.6v0.6v0.7
	c0,0.3,0.1,0.6,0.1,0.9c0.1,0.4,0.1,0.9,0.1,1.3c0,0.2,0,0.3-0.1,0.5c-0.3,0.3-0.6,0.7-1,0.9c-0.2,0.1-0.3,0.2-0.4,0.4h-0.3
	c-0.1,0.1-0.1,0.2-0.3,0.4v0.1l-0.1,0.2c-0.1,0.1-0.1,0.2-0.1,0.3c-0.1,0.2-0.1,0.4,0,0.5v0.1c0,0.2,0.1,0.4,0.3,0.5
	c0.1,0.1,0.1,0.2,0.3,0.3l0.1,0.1l0.3,0.2c0,0.2,0.1,0.3,0.1,0.5c0.1,0.2,0.4,0.3,0.7,0.5c0.1,0,0.3,0.1,0.4,0.2l0.1,0.1l0,0
	c0.1,0.1,0.3,0.2,0.3,0.3c0.1,0.2,0.1,0.3,0.3,0.4c0.1,0.1,0.1,0.2,0.3,0.2l0.3,0.2c0.1,0.1,0.1,0.3,0.3,0.4c0,0.1,0.1,0.2,0.3,0.3
	c0.1,0.1,0.1,0.2,0.1,0.2v0.4v0.1v0.7c0,0.5-0.1,1.1-0.1,1.6l-0.3,3.3c0,0.5-0.1,1-0.1,1.5c0,0.6-0.1,1.2-0.1,1.8v0.7
	c0.1,0.5,0,0.9-0.1,1.4c0,0.3-0.1,0.4-0.1,0.5S16,71.3,16,71.4c-0.2,0.1-0.3,0.2-0.3,0.4c0,0.1,0,0.1-0.1,0.2
	c-0.1,0.2-0.3,0.4-0.6,0.6c-0.2,0.1-0.3,0.2-0.4,0.4l-0.4,0.3l-0.1,0.1c-0.1,0.2-0.4,0.3-0.4,0.5V74c-0.1,0-0.1,0.1-0.3,0.2
	c-0.1,0.1-0.1,0.3-0.1,0.5V75v0.5c0,0.2,0,0.5,0.1,0.7c0.1,0.2,0.3,0.4,0.4,0.5l0.1,0.3c0,0.1,0.1,0.2,0.1,0.3v0.3l0,0
	c0,0.2-0.1,0.5-0.3,0.7c-0.1,0.1-0.1,0.2-0.3,0.3c-0.1,0.2-0.3,0.3-0.3,0.5s-0.1,0.3,0,0.5v0.2c0,0.6-0.1,1.1-0.4,1.6l-0.1,0.2
	c-0.1,0.1-0.3,0.3-0.3,0.5v0.2v0.1c-0.3,0-0.3,0.1-0.3,0.2c-0.2,0.3-0.4,0.5-0.7,0.7c-0.1,0.1-0.1,0.2-0.3,0.3s-0.1,0.2-0.3,0.3
	l-0.4,0.3l-0.4,0.3c-0.3,0.2-0.6,0.4-0.9,0.5s-0.6,0.3-0.9,0.5c-0.3,0.1-0.4,0.3-0.7,0.5l0,0c-0.1,0.1-0.3,0.3-0.4,0.5
	c-0.1,0.2-0.1,0.3-0.1,0.5v0.8c0,0.2,0.1,0.4,0.3,0.5s0.1,0.2,0.3,0.3s0.1,0.1,0.1,0.2s0,0.1,0.1,0.2c0,0.1,0,0.2,0.1,0.3
	c0.1,0.2,0.3,0.4,0.6,0.6v0.4v0.1V91c0,0.2,0,0.4-0.1,0.6c-0.1,0.2-0.1,0.3-0.1,0.5v1.1c0,0.2,0.1,0.5,0.3,0.7
	c0.1,0.1,0.1,0.2,0.3,0.3l0.1,0.1v0.3v0.1v0.4v0.2v0.2v0.9c0,0.4,0.1,0.7,0.3,1c0.1,0.2,0.3,0.5,0.6,0.7c0.1,0.1,0.1,0.2,0.3,0.3
	c0.1,0.1,0.1,0.2,0.3,0.3c0.1,0.3,0.3,0.6,0.6,0.8c0.1,0.1,0.3,0.2,0.3,0.4c0.1,0.1,0.3,0.2,0.3,0.3c0,0.2,0.1,0.3,0.1,0.5
	s0.1,0.5,0.3,0.7c0.1,0.4,0.3,0.7,0.3,1.1c0,0.2,0.1,0.4,0.1,0.6s0.1,0.4,0.1,0.6c0.1,0.4,0.1,0.9-0.1,1.3c-0.1,0.1-0.1,0.2-0.3,0.4
	l-0.1,0.2c-0.1,0.1-0.1,0.3-0.3,0.4c0,0.1-0.1,0.2-0.1,0.3l-0.1,0.2c-0.1,0.2-0.3,0.4-0.3,0.5l0,0c0,0.3-0.1,0.5-0.1,0.8
	c-0.3,0.3-0.4,0.6-0.7,0.8c-0.1,0.2-0.3,0.3-0.4,0.5c-0.3,0.2-0.6,0.5-0.9,0.7L8.4,110c-0.1,0.1-0.3,0.2-0.3,0.3l-0.1,0.1v0.1
	c-0.1,0.1-0.3,0.2-0.3,0.4L7.3,111c-0.1,0.2-0.3,0.4-0.4,0.7c-0.1,0.2-0.1,0.4-0.1,0.6v0.2c-0.1,0.6-0.1,1.2-0.1,1.8v1.6
	c0,0.3-0.1,0.5-0.1,0.8c0,0.2-0.1,0.5-0.1,0.7v0.7c0,0.3,0.1,0.5,0.4,0.7l0.9,0.6l0.1,0.1c0.3,0.1,0.4,0.3,0.7,0.4
	c0.1,0.1,0.3,0.1,0.4,0.2c0.1,0.1,0.3,0.1,0.6,0.2h0.1c0.3,0.1,0.4,0.1,0.6,0.2h0.1c0.1,0.1,0.3,0.1,0.4,0.2l0.4,0.3
	c0.3,0.2,0.7,0.4,1,0.6l0.7,0.5c0.1,0.1,0.1,0.2,0.3,0.3v0.1l0.1,0.2l0.1,0.1c0.1,0.2,0.1,0.4,0.1,0.6s0,0.5,0.1,0.7
	c0,0.2,0.1,0.5,0.3,0.7c0.1,0.1,0.1,0.2,0.3,0.3c0.1,0.1,0.1,0.2,0.3,0.3c0.1,0.3,0.4,0.6,0.7,0.8l0.3,0.2l0.3,0.2
	c0.1,0.2,0.3,0.3,0.4,0.5c0.1,0.4,0.3,0.8,0.1,1.1v0.2c0,0.5,0,1-0.1,1.5c0,0.3-0.1,0.5-0.3,0.8s-0.3,0.6-0.3,1
	c0,0.6-0.1,1.1-0.3,1.6c-0.3,0.3-0.6,0.6-0.9,0.8c-0.1,0.1-0.4,0.2-0.6,0.4l-0.6,0.4c-0.4,0.2-0.7,0.4-1,0.7
	c-0.3,0.2-0.4,0.4-0.6,0.7c0,0.1,0,0.3,0.1,0.4l0,0c0.1,0.1,0.1,0.2,0.3,0.3c0.3,0.3,0.6,0.5,1,0.7h0.1c0.4,0.2,0.9,0.5,1.3,0.6
	l0.3,0.1c0.3,0.1,0.7,0.2,1,0.4l0.1,0.1v0.4v0.2c0,0.3,0.1,0.5,0.4,0.7l0.4,0.3l0.3,0.2l0.9,0.6l0,0l0.1,0.1
	c0.1,0.1,0.1,0.1,0.3,0.1l0.1,0.1c0.1,0.1,0.3,0.2,0.6,0.3c0.2,0.1,0.4,0.2,0.6,0.3c0.3,0.1,0.3,0.2,0.6,0.3
	c0.1,0.1,0.4,0.2,0.6,0.3s0.3,0.1,0.4,0.2c0.1,0,0.1,0.1,0.3,0.1l0.1,0.1l0.4,0.3c0,0.2,0,0.3-0.1,0.5c0,0.1-0.1,0.2-0.1,0.2
	c-0.1,0.2-0.3,0.4-0.4,0.7c0,0.3-0.1,0.7-0.3,1c-0.3,0.3-0.6,0.5-0.9,0.8l-0.3,0.2c-0.1,0.1-0.1,0.2-0.3,0.3
	c-0.1,0.1-0.4,0.3-0.7,0.4h0.1l-0.1,0.1l0,0l0,0l0,0l0,0l0,0c-0.1,0.1-0.4,0.2-0.6,0.3h-0.1c-0.1,0.1-0.3,0.1-0.4,0.2
	c-0.1,0-0.3,0.1-0.3,0.1c-0.1,0.1-0.3,0.1-0.4,0.2l-0.1,0.1c-0.1,0.1-0.3,0.1-0.4,0.2s-0.4,0.2-0.6,0.3c-0.1,0.2-0.3,0.4-0.3,0.6
	l0,0v0.6l0,0c0,0.3,0,0.7,0.1,1l0.4,0.6c0.1,0.1,0.1,0.2,0.3,0.2l0.3,0.2c0.1,0.2,0.1,0.5,0.1,0.7s0,0.5-0.1,0.7
	c-0.1,0.2-0.3,0.3-0.6,0.5l-0.1,0.1c-0.1,0.1-0.1,0.2-0.3,0.3v0.1l-0.4,0.3h-0.3c-0.2,0.1-0.4,0.2-0.6,0.2l0,0
	c-0.3,0.1-0.4,0.2-0.7,0.3l-0.3,0.1l-0.3,0.1l-0.9,0.3c-0.3,0.1-0.6,0.2-0.9,0.2c-0.3,0.1-0.4,0.2-0.7,0.3c-0.1,0.1-0.3,0.1-0.3,0.2
	c-0.1,0-0.1,0.1-0.1,0.2s0,0.2-0.1,0.3c-0.1,0.1-0.3,0.3-0.4,0.4l-0.3,0.2c-0.1,0.1-0.3,0.2-0.3,0.3l-0.4,0.3
	c-0.1,0-0.1,0.1-0.3,0.2v0.2v0.1v0.2c0.1,0.3,0.1,0.6,0.3,0.9v1.4v0.3c0,0.4-0.1,0.7,0,1.1c0,0.2,0.1,0.5,0.3,0.7
	c0.1,0.1,0.3,0.3,0.4,0.4c0.1,0.1,0.3,0.2,0.3,0.3c0.1,0.4,0.1,0.9,0.1,1.3v0.7c0,0.3,0,0.5,0.1,0.8c0.1,0.3,0.3,0.5,0.6,0.7
	l0.3,0.2v0.7v0.6v0.7v0.1c0,0.4,0.1,0.8,0,1.2c0,0.2,0,0.4,0.1,0.6l0.4,0.3c0.1,0.1,0.3,0.1,0.3,0.2c0,0.3,0,0.6-0.1,0.9
	c0,0.1-0.1,0.2-0.1,0.4s0,0.4,0.1,0.6c0,0.1,0.1,0.2,0.3,0.3c0.1,0.1,0.4,0.2,0.7,0.3l0.3,0.2l0.1,0.1l0.1,0.1l0.3,0.2v0.2v0.4v0.2
	v0.3c0,0.2,0,0.4,0.1,0.6c0.1,0.1,0.1,0.2,0.3,0.3c0.2,0.1,0.4,0.2,0.6,0.3h0.1c0.1,0.1,0.4,0.2,0.7,0.3l1.2,0.3h0.1
	c0.3,0.1,0.7,0.2,1,0.2c0.4,0.1,0.9,0.1,1.5,0.2c0.1,0,0.4,0,0.6,0.1c0.3,0,0.7,0.1,1.2,0.1H22h0.3h0.3l-0.4,0.3
	c-0.1,0.1-0.4,0.1-0.6,0.2l-2.1,0.4l-0.6,0.1c-0.6,0.1-1.2,0.1-1.8,0.2c-1.2,0.2-1.8,0.5-1.6,0.8c0.1,0.3,0,0.7-0.1,1
	c0,0.1-0.1,0.1-0.1,0.2c-0.1,0-0.1,0.1-0.3,0.1l-0.4,0.1l-1.3,0.3l-0.1,0.1c-0.4,0.1-0.9,0.2-1.2,0.4c-0.4,0.2-0.7,0.4-0.7,0.6v0.2
	v0.1v0.5l-0.6,0.4l-0.3,0.2c-0.1,0.1-0.3,0.1-0.4,0.2c-0.1,0.1-0.3,0.1-0.4,0.2c-0.1,0-0.1,0.1-0.3,0.1c-0.4,0.1-0.9,0.4-1.2,0.6
	c-0.1,0.1-0.1,0.2-0.1,0.4v0.3v0.2v0.3c0,0.1,0,0.2,0.1,0.4c0.1,0.4,0.1,0.8,0,1.2l-0.4,0.3l-1.2,0.5C6.1,189.9,6,190,6,190.2v0.2
	c0,0.3,0,0.6,0.1,0.9c0.1,0.4,0.6,0.7,0.9,1l0.3,0.2l0.3,0.2c0.3,0.1,0.4,0.3,0.7,0.4l0.1,0.1c0.1,0,0.1,0.1,0.3,0.1l0.1,0.1
	c0.1,0.1,0.4,0.2,0.6,0.3s0.4,0.2,0.6,0.3l0.3,0.2l0.3,0.2v0.1v0.1c0,0.1,0.1,0.1,0.1,0.2v0.5v0.1c0,0.1-0.1,0.3-0.1,0.4
	s-0.1,0.1-0.1,0.2c-0.3,0.1-0.3,0.4-0.1,0.6c0.6,0.3,1.3,0.5,2.1,0.6c0.1,0,0.3,0.1,0.4,0.1c0.1,0.1,0.3,0.2,0.3,0.3v0.3v0.2v0.4
	v0.1v0.1c0,0.1,0.1,0.2,0.1,0.3l0,0c0.1,0.1,0.1,0.2,0.3,0.3l0.3,0.2c0,0.3,0.1,0.5,0.4,0.7c0.3,0.2,0.7,0.4,1.2,0.5l0.3,0.1
	c0.1,0.1,0.3,0.1,0.4,0.2c0.1,0,0.3,0.1,0.4,0.1s0.1,0.1,0.3,0.1c0.3,0.2,0.6,0.3,1,0.5l0.4,0.3l0.1,0.1c0.1,0.1,0.3,0.2,0.3,0.3
	s0.1,0.1,0.1,0.2c0.1,0.2,0.4,0.4,0.6,0.6v0.1c0.3,0.3,0.7,0.7,0.9,1l0.1,0.1c0.3,0.1,0.6,0.2,0.9,0.2l0,0l0,0
	c0.1,0.1,0.1,0.2,0.3,0.3v0.1c0,0.2,0.4,0.4,1,0.6H23l0.3,0.1l0.3,0.1c0.1,0.1,0.4,0.2,0.6,0.3h0.1c0.3,0.2,0.4,0.3,0.7,0.4
	c0.4,0.2,0.9,0.3,1.3,0.4l1.2,0.3c0.1,0.1,0.3,0.1,0.6,0.2l0,0l0,0l0.4,0.1h0.1l0,0c0.3,0.1,0.7,0.2,1,0.4l0.6,0.2l0.3,0.1l0.4,0.1
	c0.4,0.2,0.7,0.3,1.2,0.6c0.3,0.2,0.4,0.5,0.7,0.8c0.1,0.2,0.3,0.3,0.4,0.5c0.3,0.2,0.4,0.3,0.7,0.4c0.4,0.2,0.7,0.3,1.2,0.4
	s0.7,0.2,1.2,0.4c0.9,0.2,1.7,0.4,2.6,0.6l0.4,0.1c0.3,0.1,0.6,0.1,0.9,0.2l1.3,0.3l2.2,0.6c0.3,0.1,0.6,0.2,0.7,0.3l0.4,0.2
	l0.3,0.2l0,0c0.3,0.1,0.4,0.2,0.7,0.3c0.1,0,0.3,0.1,0.3,0.1l0.1,0.1c0.3,0.1,0.4,0.2,0.7,0.2l2.6,0.7l3.2,0.7l4.1,0.6l2.6,0.3h0.3
	c0.6,0.1,1.3,0.1,1.9,0.2s1.2,0.2,1.9,0.2l1.8,0.3c0.3,0.1,0.6,0.1,0.9,0.2c0.3,0.1,0.4,0.1,0.7,0.2c0.3,0.1,0.6,0.2,0.9,0.4
	l0.3,0.1c0.1,0.1,0.4,0.2,0.6,0.3c0.4,0.2,0.9,0.3,1.3,0.4l1.8,0.3l1.8,0.3c0.4,0.1,0.9,0.1,1.3,0.2c1,0.2,2.1,0.3,3.4,0.5h0.3
	c0.4,0.1,1,0.1,1.5,0.2h0.3c0.4,0.1,0.9,0.1,1.5,0.2l1.9,0.3l2.2,0.3l0.4,0.1l0.9,0.1H88l2.4,0.3l0.7,0.1c0.6,0.1,1.2,0.1,1.6,0.2
	c0.3,0,0.6,0.1,0.9,0.1c0.6,0.1,1.3,0.2,2.1,0.2c0.4,0,0.9,0.1,1.3,0.1h0.1l1.3,0.1H99c0.4,0,0.9,0.1,1.3,0.1h0.3
	c0.6,0.1,1,0.1,1.6,0.2c0.3,0,0.7,0.1,1,0.1h0.4c0.4,0.1,0.9,0.1,1.3,0.1c0.4,0,0.9,0.1,1.3,0.2s0.9,0.1,1.3,0.2l1.2,0.3
	c0.1,0,0.1,0.1,0.3,0.1l0.1,0.1c0.3,0.1,0.7,0.2,1,0.3l2.1,0.3c0.6,0.1,1.2,0.1,1.9,0.2c1.2,0.1,2.4,0.1,3.5,0.1h0.6h2.6h1.8
	c0.6,0,1,0,1.6-0.1h1c0.9,0,1.8-0.1,2.8-0.1h0.9h0.3h0.6h0.6c0.9,0,1.8,0,2.6-0.1h1.9h1.8h0.4c0.7,0,1.5,0,2.2-0.1h0.6h0.4
	c0.6,0,1.2-0.1,1.8-0.3c0.3-0.1,0.7-0.2,1-0.4l0.1-0.1c0.3-0.1,0.4-0.3,0.6-0.4s0.1-0.3,0.1-0.4v-0.4c0-0.1,0-0.2-0.1-0.3v-0.1
	c0-0.1,0-0.2-0.1-0.4v-0.1v-0.2v-0.1v-0.2v-0.5v-0.2c0-0.1,0-0.3,0.1-0.4s0.1-0.3,0.3-0.4l0.4-0.8c0-0.1,0.1-0.3,0.1-0.4
	c0-0.2,0.1-0.3,0.3-0.4c0-0.1,0.1-0.1,0.1-0.2s0.1-0.2,0.1-0.2c0-0.1,0.1-0.2,0.1-0.3v-0.1c0-0.1,0-0.1,0.1-0.2c0,0,0-0.1,0.1-0.1
	c0-0.1,0.1-0.2,0.1-0.4v-0.3c0-0.2,0-0.3,0.1-0.5c0-0.1,0.1-0.2,0.1-0.3c0.1-0.4,0.4-0.8,0.9-1.1l0.1-0.1l0,0l0,0
	c0.1,0,0.4,0,0.6,0.1c0.3,0,0.6,0.1,0.9,0.1c0.6,0.1,1.2,0.3,1.8,0.4h0.1l1.6,0.5c0.2,0.1,0.4,0.2,0.6,0.3l0.4,0.3
	c0.1,0.1,0.3,0.3,0.4,0.5h-0.3h-0.4c-0.1,0-0.1,0-0.1,0.1c0.2,0.1,0.3,0.2,0.3,0.4s0.1,0.3,0.3,0.4l0.1,0.2c0.1,0.2,0.3,0.4,0.4,0.5
	l0,0l0.4,0.6c0.1,0.2,0.1,0.5,0.1,0.7c0,0.1,0,0.2-0.1,0.3v0.1c0,0.1-0.1,0.3-0.1,0.4v0.2v0.1v0.1v0.2l0.4,0.8
	c0.3,0.2,0.4,0.5,0.4,0.8c0,0.1-0.1,0.3-0.1,0.4s-0.1,0.1-0.1,0.2s-0.1,0.2-0.1,0.3s-0.1,0.3-0.1,0.4c-0.1,0.2-0.3,0.5-0.1,0.8
	c0.1,0.1,0.3,0.3,0.4,0.3c0.6,0.2,1.2,0.3,1.8,0.4c0.6,0.1,1.3,0.1,2.1,0.2l3.5,0.2h3.1h0.4h1.9h2.5h2.5h0.4h2.6h0.6h3.2h0.6h2.2
	h1.6h0.9h0.9h1.8h1.8h1.8h3.7h1.8h1.6h0.1h1.9h1.8l5.3-0.1h1.5h6h0.9h4.7h2.1h6.3h0.6h2.1h3.2h1.6h3.7h1.9h0.1h4.6h2.8h1.8h1.2h1.2
	h0.9h1.8h0.4h2.2h5.9h2.6h5.4h3.1h2.1h1h1.5h1.2h1.3h1.8h5.9h0.4h1.8h2.5h4.4h1.3h2.9h3.8h0.3h1.8h0.7h1.9h0.3h4.4h0.6h-0.1h1.5h1.2
	h0.7h1.8h1.9h3.2h1.5h1.8h2.8h0.7h1.8h1.2h0.7h1.2h1.3h0.6h3.8h2.1h1.9h1.8h2.2h2.9l3.1,0.1h1.3h1.5c0.7,0,1.6,0,2.4,0.1
	c0.6,0,1.2,0.1,1.8,0.1l1.2,0.1c0.4,0,0.9,0.1,1.3,0.1h0.1l3.1,0.2c0.3,0,0.7,0.1,1,0.1h0.6l1.2,0.1c0.4,0.1,0.7,0.1,1.2,0.2
	l4.6,0.6c0.7,0.1,1.5,0.1,2.2,0.1h0.6h0.7c0.4,0,0.9,0,1.2-0.1h0.3c0.6,0,1.2-0.1,1.8-0.2h0.1l0.6-0.1l0.6-0.1l4.6-0.4
	c0.6,0,1.2-0.1,1.8-0.1c0.7,0,1.5-0.1,2.2-0.1l3.7-0.3l3.4-0.3h2.5l3.2,0.1c1,0.1,2.1,0,3.2,0h1.3h2.4h5.4h0.7l3.2,0.1h1.8h3.1h2.5
	l4.6,0.1h0.3l4.4,0.1h1l3.7,0.1c0.7,0.1,1.6,0.1,2.4,0.2h0.3c1,0.1,2.2,0.2,3.5,0.2c1.3,0,2.6,0.2,4,0.2l1.5,0.1
	c0.7,0,1.3,0.1,2.1,0.1c1.2,0.1,2.4,0.1,3.5,0.1h0.4c1.3,0,2.6-0.1,4-0.2c0.6-0.1,1.2-0.1,1.9-0.2c0.6-0.1,1.3-0.1,1.9-0.2
	c0.9-0.1,1.6-0.3,2.4-0.4c0.3,0,0.4-0.1,0.7-0.1c0.4,0,0.9-0.1,1.3-0.1h1.2h1.3h0.9h2.5h2.9h0.7h3.1h0.7h4.7h1.6h2.6
	c0.9,0,1.9,0,2.8-0.1h1.3l3.7-0.1h1.3h1.9h0.9c0.4,0,0.9,0.1,1.3,0.1l0.7,0.1l1,0.1c0.6,0,1.2,0.1,1.6,0.1c0.9,0.1,1.8,0.1,2.6,0.1
	h1.8h0.7c1,0,2.2-0.1,3.2-0.2c0.7-0.1,1.5-0.2,2.1-0.4l1.5-0.3h0.1c0.3-0.1,0.7-0.2,1.2-0.3h0.3h0.3c0.4,0,0.9,0.1,1.3,0.1
	c0.9,0.1,1.6,0.2,2.2,0.4l1.2,0.3c0.1,0,0.1,0.1,0.3,0.1c0.1,0.1,0.3,0.1,0.6,0.2l1.3,0.3l1.5,0.3c0.7,0.1,1.5,0.2,2.2,0.2
	c0.7,0,1.6,0.1,2.4,0.1h0.4h1c0.4,0,0.9,0,1.2-0.1c0.3-0.1,0.7-0.1,1-0.1h0.1c0.4,0,0.7-0.1,1.2-0.1c0.4,0,0.9-0.1,1.3-0.1
	c1.6-0.2,3.4-0.3,5.3-0.4c1,0,1.9-0.1,2.9-0.1h1.9h1.5h3.5h1.6h1.8h0.3l4.3-0.1l4.4-0.1h2.6h1.2h1.8h1.8l5.1,0.1h0.3l4.8,0.1h2.2
	h2.5c1.2,0,2.5,0.1,3.7,0.2h0.3h-0.1l3.1,0.2c0.7,0.1,1.3,0.1,2.1,0.2c0.4,0,0.9,0.1,1.3,0.1l3.7,0.3c0.6,0,1.2,0.1,1.8,0.1h1.8h0.6
	h1h1.9h0.9c0.6,0,1.2,0,1.8-0.1c0.6,0,1-0.1,1.6-0.1c0.7-0.1,1.3-0.1,2.1-0.2l1-0.1l0.9-0.1c0.7-0.1,1.5-0.1,2.2-0.2
	c0.9,0,1.6-0.1,2.5-0.1s1.8-0.1,2.6-0.1h-0.1l7.3-0.2h2.1h1.3h2.9h0.4h0.4h3.7h1.2h1.9h0.9h3.1l6-0.1h0.7h2.4h1.9h0.7l3.5,0.1
	c1.2,0.1,2.6,0,4.3,0.1h-0.1l4.7,0.1h1.5l4.4-0.1h0.4h2.1h2.2h1.5h0.4h2.1h1.9h1l6.5,0.2h0.3c0.9,0.1,1.9,0.1,2.8,0.2l3.1,0.2
	c0.3,0,0.6,0.1,0.9,0.1l0.7,0.1c0.6,0,1.2,0.1,1.8,0.1l3.5,0.2c1,0.1,2.2,0.1,3.2,0.1h0.9c1.8,0,3.4,0,5-0.2h0.6
	c1-0.1,2.1-0.1,3.2-0.2h0.3h-0.3h1c0.6,0,1.3-0.1,1.9-0.1l3.4-0.1h2.4h1.6h0.9h2.4h0.1h2.1h2.2l3.8-0.1l3.5-0.1c1,0,1.9-0.1,3.2-0.2
	c0.3,0,0.6,0,0.7-0.1c0.3,0,0.7-0.1,1-0.1c0.7,0,1.3-0.1,2.1-0.1l10.9-0.3h2.2h4.8h4.8h2.9h1.3h2.1h3.4h4h1.5h2.9h2.1h2.1l3.5,0.1
	c1.2,0.1,2.4,0.1,3.5,0.1h3.8h2.8h3.8h3.5h2.8h2.2h1.8h2.6h1.5h4.4h0.4h4.1l4.6-0.1l3.7-0.1l4.6-0.1h0.4l3.2-0.1l3.8-0.1
	c0.7,0,1.5-0.1,2.4-0.1l3.4-0.1c0.9,0,1.9-0.1,2.8-0.1h1.3h1.8l0,0c0.9,0,1.8,0,2.6,0.1c0.7,0.1,1.5,0.1,2.2,0.2h0.3h0.3
	c0.3,0,0.7,0.1,1,0.1c0.4,0,1,0.1,1.6,0.1c0.4,0,1,0,1.5,0.1h0.6h1.3c0.7,0,1.5-0.1,2.1-0.1c0.4,0,0.9-0.1,1.3-0.1h1.8h2.6h1.3h2.9
	h1.3h0.7h3.4h0.3h3.5h0.1h3.8h1.2h0.6h0.9h1.3c0.6,0,1.3,0,1.9-0.1c0.9,0,1.6-0.1,2.5-0.1h4h0.3l4.4,0.1c0.6,0,1.2,0,1.8,0.1
	c0.9,0,1.8,0.1,2.6,0.1l4,0.1c1.2,0,2.5,0.1,3.7,0.2c0.6,0,1.3,0.1,1.9,0.1l0.9,0.1c0.6,0,1.2,0.1,1.8,0.1c0.4,0,1,0.1,1.5,0.1
	c0.6,0,1.2,0.1,1.8,0.1c0.3,0,0.7,0.1,1.2,0.1c0.9,0.1,1.8,0.1,2.8,0.2h1.2c0.7,0,1.3,0,1.9-0.1l3.1-0.2h0.3l7.9-0.6
	c0.6,0,1.2,0,1.9-0.1h1.5h0.7h2.9h0.6l4,0.1l3.7,0.1l3.2,0.1l3.2,0.1c1.2,0.1,2.2,0.1,3.4,0.1l3.4,0.1h2.9h1.5h1.8h1.8h1h-0.3h0.9
	h0.9h1.3h0.9h-0.1h1h5.1h7.3h3.2h0.3h3.2l3.1-0.1c0.9,0,1.8-0.1,2.5-0.1h0.9h0.9c0.7,0,1.5-0.1,2.2-0.1h0.3h-0.1l5.3-0.2h0.1
	c0.9,0,1.6,0,2.5-0.1c0.7,0,1.6-0.1,2.4-0.1h0.4h0.3l5.1-0.3l2.5-0.3h0.4c0.6-0.1,1.3-0.2,1.9-0.2l2.5-0.2c0.7-0.1,1.5-0.1,2.4-0.2
	c1.6-0.1,3.2-0.3,4.7-0.5l2.1-0.3l2.1-0.3l0.4-0.1c1.2-0.2,2.5-0.3,3.8-0.5l4.3-0.3h0.6c0.6,0,1-0.1,1.6-0.1c0.3,0,0.6-0.1,0.9-0.1
	l3.1-0.2c0.6,0,1-0.1,1.6-0.1s1.2-0.1,1.8-0.2c1-0.1,2.1-0.3,2.9-0.6c0.2-0.1,0.4-0.2,0.6-0.2l0.3-0.1l0.9-0.3l0.4-0.2
	c0.1-0.1,0.4-0.1,0.6-0.2l0.9-0.3c0.7-0.2,1.3-0.4,2.2-0.5c0.7-0.2,1.6-0.4,2.5-0.5s1.8-0.3,2.6-0.4c1-0.2,1.9-0.3,2.9-0.4
	c0.6-0.1,1-0.1,1.6-0.2s1-0.1,1.6-0.2h0.1l2.6-0.3c1-0.1,2.1-0.2,3.2-0.2h1.9c0.7,0,1.5-0.1,2.1-0.1s1.3-0.1,1.9-0.1h0.6
	c0.4,0,1-0.1,1.5-0.1l2.2-0.2c0.9-0.1,1.8-0.2,2.6-0.4l0.4-0.1l3.4-0.6c0.6-0.1,1.2-0.2,1.8-0.4c0.4-0.1,0.9-0.3,1.3-0.4l0.1-0.1
	l0.6-0.2c0.7-0.3,1.5-0.5,2.1-0.8c0.1-0.1,0.4-0.2,0.6-0.3s0.4-0.1,0.6-0.2c0.4-0.1,0.7-0.3,1-0.5c0.3-0.2,0.7-0.4,0.9-0.6
	c0.3-0.2,0.4-0.4,0.7-0.5l0.9-0.6c0.3-0.1,0.4-0.3,0.7-0.4l0.9-0.3c0.6-0.2,1.2-0.3,1.8-0.4l0.7-0.1l1.2-0.3c0.6-0.1,1-0.3,1.5-0.6
	l0,0c0,0,0.1-0.1,0.1-0.2l0.1-0.1c0.1-0.1,0.1-0.2,0.3-0.2l1.3-0.6l1.9-0.7l1.8-0.6l1.8-0.6c0.6-0.2,1-0.4,1.5-0.6
	c0.3-0.1,0.4-0.2,0.7-0.4c0.1-0.1,0.3-0.2,0.3-0.3c0.1-0.2,0.3-0.5,0.1-0.8c0-0.2-0.1-0.3-0.3-0.4v-0.1c-0.1-0.1-0.1-0.2-0.3-0.3
	c-0.6-0.5-1.3-1-1.9-1.6l0,0c0-0.1-0.1-0.1-0.1-0.2c-0.1-0.2-0.3-0.4-0.3-0.7c0-0.2,0.1-0.4,0.3-0.5c0.3-0.2,0.6-0.5,0.9-0.6l0,0
	c0.4-0.2,0.9-0.5,1.3-0.7l0.4-0.2l0.3-0.1l0.3-0.1c0.1-0.1,0.3-0.2,0.6-0.2c0.4-0.2,0.9-0.5,1.2-0.7c0.1-0.2,0.4-0.5,0.4-0.7
	c0.1-0.3,0.3-0.5,0.3-0.8c0-0.2,0-0.5-0.1-0.7V195c0-0.1,0-0.3-0.1-0.4v-0.3c0-0.2-0.1-0.3-0.1-0.5l-0.1-0.2c0-0.2-0.1-0.4-0.1-0.6
	v-0.4v-0.2v-1.2l0,0v-0.8V190v-0.1v-0.5v-0.2c0-0.1,0-0.3-0.1-0.4c-0.1-0.4-0.1-0.8-0.1-1.2v-0.1v-1.1v-0.6v-0.1v-0.1v-0.2v-0.2V185
	v-0.2v-0.1v-0.2v-0.2c0-0.2-0.1-0.3-0.1-0.5l-0.1-0.3c0-0.2-0.1-0.4-0.1-0.6v-0.2v-0.1c0-0.2-0.1-0.4-0.3-0.6l-0.1-0.2
	c-0.3-0.4-0.4-0.9-0.6-1.3l-0.1-0.3c0-0.1,0-0.2-0.1-0.4V179v-0.2v-0.1c0-0.1,0-0.1-0.1-0.2v-0.2v-0.1v-0.1v-0.2
	c0-0.1-0.1-0.2-0.1-0.3v-0.1v-0.1l-0.4-0.6c0.3,0,0.4-0.1,0.6-0.2c0.2-0.1,0.3-0.2,0.4-0.4c0.1-0.1,0.1-0.3,0-0.4
	c-0.2-0.1-0.4-0.2-0.6-0.3l-0.1-0.1l-0.1-0.1c-0.4-0.1-0.7-0.3-1-0.4c-0.1-0.1-0.4-0.2-0.6-0.4c0,0-0.1-0.1-0.3-0.1l-0.4-0.3l0,0
	l0.1-0.1c0.3-0.1,0.4-0.2,0.7-0.3c0.1-0.1,0.4-0.1,0.7-0.2c0.1,0,0.4-0.1,0.6-0.1l0.4-0.1c0.7-0.1,1.5-0.4,2.1-0.7
	c0.1-0.1,0.4-0.2,0.6-0.3c0.1-0.1,0.3-0.3,0.4-0.5c0.1-0.3-0.1-0.7-0.4-0.9c-0.1-0.1-0.1-0.1-0.1-0.2l-0.1-0.1c0,0-0.1-0.1-0.1-0.2
	s-0.1-0.1-0.1-0.2c-0.3-0.3-0.7-0.5-1.2-0.7l-0.1-0.1c-0.3-0.1-0.4-0.2-0.7-0.3c-0.3-0.1-0.6-0.2-0.7-0.3c-0.1-0.1-0.3-0.1-0.4-0.2
	c-0.3-0.1-0.7-0.2-1-0.4l-0.4-0.3c0-0.1-0.1-0.2,0-0.3v-0.1l0.1-0.1l0,0v-0.1c0.1-0.1,0.1-0.2,0.1-0.4s-0.3-0.4-0.7-0.5
	c-0.9-0.3-1.8-0.5-2.6-0.6h-0.3c-0.9-0.2-1.8-0.3-2.6-0.5c-0.3,0-0.6-0.1-1-0.1h-0.3h-0.3l-0.7-0.1h-0.3h-0.3
	c-0.1,0-0.1-0.1-0.3-0.2c0-0.1-0.1-0.1-0.1-0.2l-0.1-0.1l-0.3-0.2c-0.1-0.1-0.3-0.2-0.3-0.3s-0.1-0.3,0-0.4v-0.1l1.6-0.6
	c0.3-0.1,0.4-0.2,0.7-0.3c0.5-0.2,1-0.4,1.5-0.5l0.6-0.1l1.2-0.3c0.6-0.2,1.2-0.3,1.6-0.5c0.4-0.1,0.7-0.3,1-0.4
	c0.3-0.1,0.7-0.3,0.9-0.5c0.1-0.1,0.1-0.3,0.3-0.5v-0.1v-0.5c0-0.2-0.1-0.3-0.3-0.4c-0.4-0.3-1-0.4-1.6-0.5
	c-0.3-0.1-0.6-0.1-0.9-0.1h-0.1c-0.4-0.1-0.7-0.1-1.2-0.2c-0.3,0-0.6-0.1-0.9-0.1h-0.3c-0.3,0-0.6-0.1-0.7-0.1h-0.3
	c-0.1,0-0.4,0-0.6-0.1h-0.3c-0.1,0-0.3,0-0.4-0.1h-0.1l-0.3-0.2v-0.2c0.4-0.4,0.9-0.8,1.6-1c0.4-0.2,0.7-0.4,1-0.6
	c0.4-0.2,0.7-0.5,1.3-0.7l0,0c0.2-0.1,0.4-0.2,0.6-0.2l0.9-0.3l1.3-0.3c0.3-0.1,0.6-0.1,0.9-0.2l0.7-0.1c0.4-0.1,1-0.2,1.5-0.4
	c0.1-0.1,0.4-0.1,0.6-0.2s0.4-0.1,0.6-0.2c0.4-0.1,0.9-0.3,1.3-0.5c0.4-0.2,0.7-0.4,1-0.7c0.4-0.3,0.7-0.6,0.9-1c0,0,0-0.1,0.1-0.1
	c0-0.1,0.1-0.1,0.1-0.2s0.1-0.1,0.1-0.2s0.1-0.2,0.1-0.2c0-0.1,0-0.2-0.1-0.3v-0.2c0-0.1,0-0.2-0.1-0.3v-0.1l-0.4-0.3l-0.3-0.2v-0.1
	v-0.2v-0.2v-0.1c0.1-0.2,0.4-0.3,0.7-0.4l0,0h0.1l0.1-0.1c0.1-0.1,0.4-0.2,0.7-0.3c0.6-0.2,1.2-0.5,1.6-0.9c0.1-0.1,0.1-0.2,0.1-0.3
	c0-0.2,0-0.3-0.1-0.4c-0.1-0.1-0.3-0.2-0.4-0.2l-0.1-0.1l-0.1-0.1c-0.1-0.1-0.3-0.1-0.4-0.2c-0.6-0.3-1-0.6-1.3-1v0.1l-0.4-0.6
	l-0.1-0.1v-0.1c-0.1-0.1-0.1-0.3-0.3-0.4l-0.4-0.6c-0.1-0.2-0.1-0.4,0-0.6c0.1-0.2,0.1-0.4,0-0.6v-0.2c0-0.1-0.1-0.2-0.1-0.4v-0.2
	c0-0.2-0.1-0.4-0.1-0.6c-0.1-0.2-0.1-0.3-0.1-0.5v-0.2V139c-0.1-0.2-0.1-0.4-0.1-0.6c0-0.4,0.1-0.8,0.3-1.2l0.1-0.3
	c0-0.1,0.1-0.3,0.1-0.4s0.1-0.2,0.1-0.3c0.1-0.2,0.1-0.5,0-0.7l-0.1-0.3c-0.1-0.4-0.3-0.8-0.3-1.2v-0.9v-0.3v-0.5
	c0-0.3,0.1-0.5,0.3-0.8c0-0.1,0.1-0.3,0.1-0.4c0.1-0.1,0.1-0.3,0.1-0.4c0.1-0.2,0.1-0.4,0.1-0.7v-0.1c0-0.1,0.1-0.3,0.1-0.4
	s0.1-0.2,0.1-0.3c0-0.3,0-0.7-0.1-1c0-0.1-0.1-0.3-0.1-0.4v-0.3v-0.4c0-0.1,0-0.1-0.1-0.2c0-0.1-0.1-0.2-0.1-0.3
	c0-0.2,0-0.4,0.1-0.5c0.1-0.2,0.1-0.4,0.3-0.6c0-0.1,0.1-0.1,0.1-0.2c0.1-0.1,0.1-0.2,0.3-0.3c0.1-0.2,0.1-0.4,0-0.6
	c-0.3-0.3-0.7-0.5-1.2-0.6c-0.6-0.2-1.2-0.3-1.8-0.5h-0.1c-0.3-0.1-0.7-0.2-1-0.3c-0.1,0-0.3-0.1-0.4-0.1c-0.4-0.2-0.7-0.3-1-0.4
	l-0.4-0.3v-0.4v-0.1v-0.2v-0.3v-0.1V121l0.1-0.1l0.4-0.6V120c0-0.1,0-0.3,0.1-0.4c0.1-0.2,0.3-0.3,0.4-0.4c0.1,0,0.1-0.1,0.3-0.1
	c0.6-0.1,1.2-0.3,1.6-0.4c1.5-0.4,2.4-0.8,2.5-1.2l0,0v-0.2c0-0.1-0.1-0.2-0.3-0.3c-0.3-0.1-0.4-0.2-0.7-0.3l-0.1-0.1
	c-0.6-0.2-1.2-0.3-1.8-0.5c-0.1-0.1-0.3-0.1-0.3-0.2c-0.1-0.1-0.3-0.1-0.4-0.2h-0.1l-0.1-0.1c0-0.1-0.1-0.2-0.1-0.2v-0.2
	c0.3-0.3,0.6-0.5,0.9-0.8c0.4-0.2,0.9-0.5,1.3-0.7l0,0c0.4-0.2,0.9-0.5,1.2-0.8c0.3-0.3,0.4-0.6,0.4-0.9c0.1-0.6,0.1-1.1,0-1.7
	c-0.3-0.6-0.3-1.2,0-1.8l0.4-0.6c0-0.1,0.1-0.2,0.1-0.3c0.1-0.2,0.3-0.3,0.4-0.5l0.1-0.2c0.4-0.4,0.7-0.8,0.9-1.3v-0.2
	c0-0.1,0-0.3,0.1-0.4c0.1-0.2,0.1-0.5,0.3-0.7c0-0.2,0-0.4-0.1-0.6c-0.1-0.3-0.1-0.5-0.1-0.8c0-0.1,0-0.2,0.1-0.3
	c0-0.2,0.1-0.3,0.1-0.5v-0.6v-0.3c0-0.3,0-0.5,0.1-0.8v-0.9l-0.1-0.2c0-0.2-0.1-0.4-0.1-0.5v-0.2c0-0.2,0-0.4-0.1-0.6
	c0-0.3-0.1-0.6-0.1-0.9c0-0.2,0-0.4-0.1-0.7c0-0.2-0.1-0.4-0.3-0.6l-0.1-0.1c0-0.1-0.1-0.2-0.1-0.3c-0.1-0.1-0.1-0.3-0.3-0.4
	c-0.1-0.2-0.3-0.4-0.6-0.6c-0.3-0.2-0.4-0.4-0.7-0.6l-0.1-0.1c-0.3-0.2-0.6-0.4-0.9-0.7c-0.3-0.2-0.6-0.5-0.9-0.7
	c-0.1-0.1-0.4-0.3-0.7-0.4c-0.1-0.1-0.4-0.2-0.6-0.3l-0.3-0.2c-0.1-0.1-0.1-0.1-0.3-0.1c-0.1-0.1-0.4-0.2-0.6-0.3l-0.1-0.1
	c-0.2-0.1-0.4-0.2-0.6-0.2h-0.1c-0.3-0.1-0.6-0.2-0.9-0.2h-0.1l-1.9-0.3h-0.1c-0.1,0-0.3-0.1-0.4-0.1c-0.1,0-0.3-0.1-0.3-0.1
	l-0.3-0.2c-0.1-0.2-0.1-0.3-0.1-0.5v-0.2c0-0.1-0.1-0.3-0.1-0.4s-0.1-0.3-0.1-0.4c-0.1-0.2-0.1-0.4-0.3-0.6c-0.1,0-0.3-0.1-0.4-0.1
	l0,0c-0.3,0.1-0.6,0.1-0.9,0.1h-0.7c-0.3,0.2-0.7,0.2-1,0.3h-0.7c0,0.1-0.1,0.1-0.1,0.2l-0.4,0.6l-0.3,0.3c-0.1,0.2-0.1,0.3-0.4,0.4
	c-0.3,0.1-0.6,0.2-0.9,0.2h-0.9c-0.3,0-0.7,0-1-0.1c-0.1,0-0.3,0-0.4-0.1l0,0c-0.6,0.1-1.2,0.1-1.8,0.1c-0.4,0-0.7-0.1-1.2-0.2
	c-0.1,0-0.3-0.1-0.3-0.2c-0.1-0.1-0.3-0.1-0.4-0.2l-0.4-0.3c-0.1-0.1-0.3-0.3-0.4-0.5c-0.1-0.1-0.1-0.2-0.1-0.3
	c-0.1,0-0.1,0-0.3,0.1l-0.4,0.1c-0.4,0-0.9,0.1-1.3,0c-0.7,0-1.3-0.2-1.8-0.5c-0.1-0.1-0.3-0.2-0.4-0.2h-0.1c-0.1,0-0.4,0-0.6,0.1
	h-1.9c-0.3,0-0.6,0-0.9-0.1h-0.9c-1-0.1-1.5-0.3-1.2-0.4c0.6-0.2,1.4-0.3,2.1-0.2h0.1h0.6h0.6h0.1c0.1,0,0.1,0,0.3-0.1
	c0.3,0,0.6-0.1,0.9-0.1c0.7-0.1,1.3-0.1,2.1-0.1c0.4,0,0.7,0.1,1.2,0.2l0.1-0.1l0.3-0.2c0.2-0.1,0.4-0.2,0.6-0.2
	c0.3-0.1,0.7-0.1,1-0.1c0.6,0,1.2,0,1.6,0.1c0.6,0.2,0.9,0.3,0.9,0.5l0.1,0.2l0.4-1.2c0-0.2,0.7-0.3,1.8-0.3s1.8,0.2,1.8,0.4v0.7V87
	c0.1,0,0.3,0,0.4-0.1c0.4,0,0.9-0.1,1.3,0l0.3-0.2v-0.1v-0.1c0-0.1,0-0.1,0.1-0.2c0.3-0.1,0.6-0.2,0.9-0.2c0.4,0,0.9-0.1,1.3,0
	c0.1,0,0.3,0,0.6,0.1V86v-0.2c-0.1-0.4,0-0.7,0.1-1.1c0.1-0.3,0.4-0.6,0.6-0.9c0.4-0.5,0.7-1.1,1-1.6c0.1-0.2,0.3-0.5,0.6-0.7
	l0.4-0.6l0.1-0.1c0.1-0.3,0.4-0.5,0.7-0.7c0.3-0.3,0.7-0.5,1.2-0.8c0.4-0.2,1-0.4,1.6-0.6l1.3-0.3l1.5-0.3c0.7-0.2,1.3-0.4,1.9-0.8
	c0.1-0.1,0.1-0.2,0.3-0.3c0-0.1,0.1-0.1,0.1-0.2c0.1-0.1,0.3-0.3,0.6-0.4l0,0c0.4-0.3,0.9-0.6,1.2-1c0.3-0.4,0.6-0.8,0.7-1.3
	c0-0.4,0-0.8-0.1-1.2c-0.1-0.2-0.1-0.4-0.1-0.7c0-0.2,0-0.3-0.1-0.5c0-0.2-0.1-0.4-0.1-0.6l-0.1-0.3c0-0.3,0-0.7,0.3-1
	c0.6-0.6,1.2-1.1,2.1-1.5c0.3-0.2,0.6-0.4,0.9-0.7c0.3-0.2,0.4-0.5,0.4-0.8c0-0.2,0-0.5-0.1-0.7c-0.1-0.3-0.4-0.6-0.7-0.8
	c-0.1-0.2-0.4-0.3-0.6-0.5l-0.4-0.3c-0.3-0.3-0.6-0.5-0.9-0.8c0-0.1-0.1-0.2-0.1-0.3s-0.1-0.2-0.1-0.3c-0.1-0.2-0.1-0.4-0.3-0.7
	v-0.5v-0.2v-0.2v-0.6c0-0.4,0-0.9-0.1-1.3v-0.2c0-0.4,0-0.8,0.1-1.2V58c0.1-0.5,0.1-1,0.1-1.5V56v-0.1c0-0.1,0-0.3,0.1-0.4
	c0-0.1,0.1-0.2,0.1-0.3c0-0.2,0.1-0.5,0.1-0.7v-0.8c0-0.2,0.1-0.6,0.1-0.8s0.1-0.6,0.1-0.8v-0.6V51c0-0.2,0-0.5,0.1-0.7
	c0-0.2,0.1-0.5,0.1-0.7s0-0.3,0.1-0.5v-0.3l0.4-1.3v-0.1c0-0.1,0.1-0.2,0.1-0.4c0-0.1,0-0.2,0.1-0.2l0.1-0.3c0-0.1,0.1-0.3,0.1-0.4
	c0-0.2,0.1-0.3,0.1-0.5c0.1-0.3,0.1-0.5,0.3-0.8c0.1-0.5,0-1-0.1-1.4v-0.2c0-0.2-0.1-0.3-0.1-0.5v-0.4v-0.2V42c0-0.4,0-0.8,0.3-1.2
	c0.1-0.2,0.3-0.3,0.4-0.5l0.1-0.1c0.1-0.1,0.3-0.2,0.3-0.3c0.3-0.4,0.6-0.8,0.6-1.2c0-0.2,0.1-0.4,0.1-0.7c0-0.2,0.1-0.4,0.1-0.6
	l0.4-1c0.1-0.2,0.3-0.5,0.3-0.8s0-0.6-0.3-0.9C1179.4,34.1,1179.4,33.4,1179.8,32.9L1179.8,32.9z M1018.1,187.2
	c-1.6,0.3-3.2,0.4-5,0.4c-0.7,0-1.3,0-2.1-0.1c-0.7-0.1-1.5-0.1-2.1-0.2l-0.4-0.1h-0.3l-0.4,0.1h0.3l-1,0.3c-1,0.3-2.1,0.6-3.2,0.8
	c-1.7,0.4-3.5,0.7-5.3,0.9c-1.3,0.2-2.6,0.3-4,0.3c-1,0-2.1-0.1-2.9-0.3c-0.7-0.1-1.2-0.3-1.2-0.5v-0.1c0-0.2,0.3-0.3,0.7-0.5
	c0.3-0.1,0.7-0.2,1-0.3c0.4-0.1,0.7-0.1,1.2-0.2l0.6-0.1c0.4-0.1,0.9-0.1,1.3-0.2c0.3-0.1,0.4-0.1,0.7-0.2c0.7-0.2,1.5-0.4,2.2-0.7
	l2.6-0.8l2.6-0.6l1-0.2c0.1-0.1,0.3-0.1,0.4-0.2c0.3-0.2,0.6-0.3,0.7-0.5c0.3-0.2,0.4-0.4,0.7-0.6c0.6-0.4,1.3-0.6,2.1-0.8
	c0.7-0.2,1.5-0.3,2.4-0.4c0.6-0.1,1.2-0.1,1.8-0.1h1.2c0.6,0,1.2,0.1,1.8,0.2c0.3,0.1,0.6,0.1,0.9,0.3l0.1,0.1l0.4,0.3
	c0.1,0.1,0.1,0.2,0.3,0.3l0.1,0.1l0.4,0.3c0.3,0.3,0.4,0.6,0.6,0.9v0.3v0.2c0.2,0.1,0.4,0.2,0.6,0.3l0.1,0.1
	c0.3,0.1,0.4,0.3,0.4,0.5C1019.8,186.6,1019.2,186.9,1018.1,187.2L1018.1,187.2z M1071,165.5c-0.6,0.2-1.3,0.4-1.9,0.5
	c-1.5,0.3-2.9,0.5-4.7,0.7c-0.1,0-0.3,0-0.4,0.1l-1.5,0.2l-0.4,0.1c-0.3,0-0.6,0.1-0.9,0.1h-0.3l-4,0.5l-1.3,0.3l-1.3,0.2l-1.3,0.3
	l-1.3,0.3c-1.8,0.5-3.7,0.9-5.6,1.3l-2.2,0.4l-5.7,1.1c-1.2,0.2-2.6,0.6-4.3,0.8l-1.3,0.3c-0.4,0.1-1,0.3-1.5,0.4l-3.2,0.9
	c-1.2,0.3-2.5,0.5-3.7,0.6c-1.3,0.2-2.6,0.3-4,0.3c-1.2,0.1-2.4,0.1-3.7,0.1h-1.3h-2.2h-0.6c-0.9,0-1.6,0-2.4-0.1l-3.7-0.4
	c-1.2-0.2-1.9-0.5-2.1-0.8v-0.1c-0.3-0.1-0.5-0.2-0.6-0.4v-0.1V173c0-0.2,0.3-0.4,1-0.6l0.6-0.2c0.3-0.2,0.6-0.3,1-0.5
	c0.7-0.3,1.5-0.5,2.2-0.7l3.7-0.8c0.9-0.2,1.9-0.3,2.9-0.4l0.6-0.1l2.8-0.4l5.7-0.8l4.1-0.5l5.3-0.6l4.7-0.5l3.8-0.4l0.7-0.1
	l0.7-0.1l1.2-0.3c0.3-0.1,0.7-0.1,1-0.2c0.3,0,0.4-0.1,0.7-0.1l1.3-0.3l0.7-0.2l2.9-0.7l4-0.6l0.4-0.1c1.5-0.3,3.1-0.5,4.7-0.6
	c0.7,0,1.3-0.1,2.1-0.1l3.4,0.1c1.5,0.1,3.1,0.2,4.6,0.5C1072.1,164.4,1072.4,165,1071,165.5L1071,165.5L1071,165.5z"/>
</svg>
