<svg xmlns="http://www.w3.org/2000/svg" viewBox="0 0 198 199.7" fill="#c5843d" xmlns:v="https://vecta.io/nano"><path d="M184.2 67.8c0-.1.1-.3.1-.4-.2-.5-.4-.8-.5-1.3-.7.7-1.4-1.1.4 1.7zm.1 19l-1.9-1.6 1.2 1.5zm4 13.1c-.1.8 1.5.5 1.8.6-.5-1.3-2.2-.5-1.8-.6zm-10.4-25.2l-.4 1.5 1.2.8c-.3-.2-.3-.8-.3-1.4 0-.5-.1-1.1-.5-.9zM169 40.4c1.4 0 .6-2.1 1.8-1.8-1.2-.8-2.5-1.4-4-1.6 1.1.8 2 2 2.2 3.4zm-4.5-3.8c.7.3 1.4.4 2.1.5a4.99 4.99 0 0 0-2.1-.5zm-2.8-1.7c.1.5.3 1.2.6 1.7.1-.7-.1-1.9-.6-1.7zm-116-10.6c.6-.6 1.4-1 2.2-1.1-1.9-.4-4.6-1.3-3.5 0l1.3 1.1zm106.9 2.2h-1.5l.5 1.1zm-43.2-15.6c-.9-.6-1.9-1.1-3.1-1.4 1.5 1.2 2.5 2.7 3.1 1.4zm27.2 7.1l.8 1c-.2-.4-.5-.7-.8-1zm48.9 94.5c0 .5 0 1.1-.1 1.6.2-.5.2-1.1.1-1.6z"/><path d="M16.5 144c.6.4 1 .5 1.3.3-.5-.4-1-.6-1.3-.3zm120-126.3l-1.3-.5c.5.2.9.5 1.3.8 0-.2-.1-.3 0-.3zm9.1 4.1c0-.1-.1-.1-.2-.1.1 0 .2.1.2.1zm-8-2.9h0c-.1 0-.1 0 0 0z"/><path d="M133.1 17.5c.5.6 1.2-1.6 1.3-.8.7-.7-.6-.6-1.6-.4-.5.2-.9.4-.9.6 0 .4.2.5 1.2.6zm56.8 82.1c0-.3-.1-.7-.1-1.4 0 .5 0 1-.2 1.5.2-.1.3-.2.3-.1zm-1.8 10.7c.2-1.4.4-2.7-1.1-2 .9-.4 1.6-1.3 2-2.3.4-1.2 1.1-2.2 2-3.1-.8.1-1.5.8-1-1.3-.2-.1-.4-.3-.7-.5-.1 0-.2-.1-.1 0-.3.4-.7.8-1.2 1.1-.2-.1-.3-.3-.4-.4h.3l-.6-.3c-.4-.6-.7-1.3-.8-2-.2-1-.5-1.9-1-2.8.3-1.3.9.5 1.7-.2l-1.4-1.7c1.7-.2 2.6-3.6 3.7-.5l-.1-2.8c.8-1.7.8-3.6 0-5.4.2-1.4-2.3-3-.9-2.1l-.9-2-1-2 .5-.1c-.6-2.1-1.4-4.2-2.5-6.1-1.2-2.2-1.6-4.6-1.2-7-.5-.6-1-1.3-1.3-1.9-.5-.9-1-1.8-1.1-2.8l.4-.3 1.6 1.3c.5-.5-.1-2.1.6-1.7-.8-1-1.3-1.1-1.6-.7-.5-.9-.9-1.9-1-2.9-.4-1.2-.8-2.4-1.7-2.3a3.37 3.37 0 0 0 .4-2.9l-.8-1.7c-.4-.5-.6-1-1-1.5l-2.4-2.8c-.6-.5-1-1.2-1.4-1.8a.9.9 0 0 1 .5.1h0l-.5-.1c-.1-.2-.3-.4-.4-.7l-.8.5-1.3-.2 1.1.3h0l-.7.5c-.6-.9-1.4-1.8-2.3-2.6-.5-.4-.9-.8-1.5-1.1s-1.1-.8-1.7-1.2l-.3.3c-.6-.1-1-.4-1.5-.6-.5-.3-.8-.6-1.3-1l1.5 2.3c-1.1-.7-2-1.8-2.5-3 0-.1-.1-.1-.1-.2l1.3.9c-.4-.6-.6-1.4-.9-2v.2c0 .3-.1.4-.1.2h-.1c-.2.1-.3.1-.5.2l-.3-.6c.1-.1.5.2.7.3.1 0 .2-.1.2-.1-.4-.3-.8-.5-1.2-.8-.1-.2-.2-.3-.3-.5-.5-.8-1.1-1.5-1.8-2.1.6-.3 1.2.4 1.4 1.3a4.23 4.23 0 0 0-1.8-3.2c-.9-.7-1.8-1.2-2.9-1.5l1-.7-1.9.4c-.9-.3-1.8-.7-2.8-1.2-1-.6-1.8-1.4-2.2-2.4-.5 0-.9-.1-1.2-.4-.1-.3-.2-.7-.2-1.6-.1.5-.2.8-.5.9-.1-.1-.1-.2-.1-.3.1 0 .2.1.2.1-.1 0-.2-.2-.3-.3-.2-.5-.4-1-.7-1.5.1.5.3 1 .6 1.4-1-.6-2-.9-3-1.1l.2-.9c0 .1.1.2.1.2.2-.4.2-.9.6-.8l-.5-.2v-.2l-.2-.1c-.4-.6-.7-.5-.9-.1l-.2-.1c.1 0 .1.1.2.1-.2.4-.4 1.1-.5 1.7h-.3c-.2-.6-.5-1.2-1-1.6-.9-.8-1.6-1.9-1.9-3.1-.3.7.1 1.6-1.6.4.1-.1-.1-.3-.8-.4.2.2.4.3.6.5l-.6.3c-.1.1-.2.1 0 .1a.76.76 0 0 1 .2.4c-.7 0-1.7-.2-2.7-.4-.9-.2-1.9 0-2.7.3.1-.1.1-.3.1-.5l-1.5.4c-.2-.1-.4-.3-.5-.4 0-1.5-1.9-3.3 1-3.1l-2.6-1.1c-1.2-1.5-3-2.3-4.9-2.3-1.2-.7-3.7.8-2.3-.1-.7 0-1.5-.1-2.2-.1h-2.2l.1-.5c-2.2-.4-4.5-.5-6.7-.4-2.4.2-4.8-.5-6.8-1.8.9-.2 1.8-.2 2.7-.1a2.89 2.89 0 0 0-3.7-.3c.1.1.3.2.5.4a7.47 7.47 0 0 1-2 .3c-1 .1-2 .1-3.1-.2l-.5-1.5c-1.2.1-2.5 0-3.6-.3-1.3-.2-2.5-.3-2.9.5-.6-.9-1.5-1.5-2.5-1.6h-1.9c-.6.1-1.2.1-1.9.3l-3.6.9c-1 .4-2 .5-3.1.5l.3 1.7s0 .1-.1.1c-1.1.2-2.2.5-3.3 1l-1.7.8c-.6.4-1.2.6-1.9 1l.5 1.3c-.3 0-.6.1-.9.2l-1.2.3c-.9.3-1.7.6-2.2 1-.8.1-1.7.1-2.7.2-.9.1-1.9.4-2.7.7 0-.6.9-.9 1.8-.7-1.2-.5-2.5-.4-3.7.2-1.1.5-2 1.3-2.9 2.2-.8.8-1.7 1.6-2.7 2.4-.9.6-2 1-3.2.9-.4.8-1.3 1.3-2.1 1.2.1-.1.2-.1.2-.2-.1.1-.3.1-.4.2-.6 0-1.1-.1-1.7 0 .5.1 1 .2 1.5.1-.9.6-1.7 1.4-2.3 2.2l-1.5-1.1-.2.2c-1.4.1-.3 1.2.9 2-.4.5-.6 1.1-.6 1.7-1.2-.9-1.7-.3-2.2.4-.6.6-1 1.2-2.5.4.1.4-.1.9-.4 1.4-1.4-.3-2.6-.6-3.2-.4-.5 0 .1-.8.3-1.3-4.9 1.2 1 2.2-1 4.7-1.3-.5-1.6-2.9-3.4-1.6-.7 0-1.2 1.9-2 3.8-.3.9-.7 1.9-1.3 2.7-.3.3-.6.7-1 1s-.8.5-1.3.6c1.2.1 2.3.3 1.9 1.9-.6 1-2.4 1.5-3.8 2.4s-2.6 1.9-1.9 3.6c-.3.1-.6.1-.9-.1-.1 1-.8 2.3-1.1 3.7l-.3 1.2-1.5 2.2s0 .1-.1.1c-.5.2-1 .5-1.3 1-.5.9-.8 1.8-1 2.8L13.5 65c.3 0 .5.1.6.1l-.4 1-.3.8c-.6.5-1.1 1.1-.7 1.7l-.4-.3c-.2.3-.3.6-.4.9-.5 0-.8-.1-1-.8-.3 1.5-.7 2.9-1.6 4.2-.7 1.2-.6 2.7.2 3.8-1.1.1-1.2-1.2-1.9-1 .1.3.6 1.4-.2 1.6-.7.2-.6-.7-.9-1.5-.2.7-.2 1.6 0 2.4.2.6.6 1.2 1.1 1.6.7.5 1.5.9 2.2 1.2.1.6.3 1.2.5 1.8-.2.3-.3.6-.3.8s.1.4.2.6H9.1c.2.2.1.5 0 .9v-.4L8.5 86c-.1.2-.1.5-.2.8-.2.5-.5 1-.7 1.5-.3.5-.5 1.1-.6 1.7-.2.6-.3 1.2-.3 1.9-.2 1.3-.1 2.7.4 3.9a1.13 1.13 0 0 1-.8-.5c.9 2.8-.3 6.1-.9 9.1-.5 3-.3 5.5 3.1 6.1.1.2.2.3.3.5 0 .1 0 .1-.1.2h.2l1.8 2.7c-.1-1.9.5-2.2 1.2-2-.1.4-.3 1-.5 1.6-.6 1.5-1.5 3.4-.5 4.8l.4-.5c0 .4.1.9.1 1.3-.3.5-.7.9-1.1 1.5-1.2 1.5-2.7 3-2.7 3.8-.2.5-.6-.5-1-.8-1 4.9 2.4 0 3.9 2.9-1 .9-3.3.2-2.9 2.4-.3.6 1.2 1.9 2.6 3.4.7.6 1.4 1.5 1.9 2.3.2.4.4.8.5 1.3s.1.9 0 1.4c.6-.9 1.2-1.8 2.4-1.1l.3 1.1.3.8.1 2.6c.2 1.6.6 3 2.3 3.2 0 .1.1.2.1.3-.1.2-.2.4-.4.5.4.3.8.6 1.2 1.1a3.04 3.04 0 0 0 .5.7c0-.1.1-.1.1-.2l.8.8c-.3.9.5 1.5 1.4 1.7.6.2 1.2.3 1.7.3-.4.5-.6 1.2-.5 1.9h-.1c-1-.2-2.2-.9-1.8-.4l1.3 1.3.1-.5c.3.1.5.2.8.2 0 .1.1.2.2.3.7 1 1.7 1.9 2.8 2.5l.6.3c-.2.5-.7.6-.5.9-.2.1 0 .3.6.8l1.7 2.2-.2.2 1.9 1.9 1.9 1.8-.6.3c.7 1.1 1.9 1.9 3.1 2.3.9.2 1.9.3 2.8.1.4.8-.5.8-.7 1 .9 1.6 2.1 2.7 3.6 3.8 1.7.6 3.3.9 5.1.7l-.7 1.7c.4-.1.8.4 1.4.9s1.3 1.5 2 2.3c.4.5.8.9 1.3 1.3s1 .8 1.6 1.1c1.1.7 2.4 1.2 3.7 1.3-.2.3-.6.5-.8.5 3 .4 5.5 2.9 8 4.7 2.5 1.7 4.9 2.7 7-.2.4 0 .8-.1 1.3-.1.3.2.7.3 1 .5l2.1.9c1.4.6 3 1 4.5 1.2.1-.4-.1-.9 0-1.5.8.3 1.4.7 1.2 1.4l1.5.3c.3.4.5.8.8 1.2.4-.1.8-.4 1.1-.8 3.4.6 6.8 1.3 10.3 1.8l3.4.5 3.4.3c1.1.1 2.2.1 3.4.1 1.1 0 2.2 0 3.3-.2-.5-.8-.8-1.7-1.3-2.6 1 0 2-.1 3.1-.2.8.5 1.4 1.9-.8 2.1.6.7 1.6.3 2.2-.5.6-.5 1-1.2 1.2-1.9 2.2.2 1.9 1 1.3 1.8s-1.8 1.6-1.1 1.5l1.8-.5-.5-.3c.6-.6.9-1.3 1.4-1.8.3-.3.6-.5.8-.6.5-.3 1-.4 1.5-.5 1.8.2 1.2 1.5 1.9 1.4 0 .2.3.2 1-.2l3.9-.8c-.2-.1-.3-.2-.4-.3h.2c-.2-.1-.3-.2-.5-.2-.2-.2-.5-.4-.8-.6-.3-.5.4-.8 1.3-1h0c-.3 0-.4-.2-.5-.5.8-.4 1.2-.6-.3-1.7h0c1.1.9 2.9.9 4.9.4l.7.1v-.3c.9-.2 1.9-.6 2.8-.9 1.6-.6 3.2-1.5 4.4-2a6.18 6.18 0 0 1 2.7-.9c.4-.5.7-1.1 1.2-1.6.4-.5.9-.9 1.4-1.3 1.1-.7 2.2-1.5 3.4-2-.8-.1-1.4-.8-1.3-1.6.1-.5.5-1.1 1-1.3 1 2.3 2.2 2.2 3.7 1.6 1.5-.9 3.3-1.2 5-.7-1.5-.4-.1-1.6 1-2.8s1.9-2.6-.2-2.9c1.9-1 1.3 1.4 3.3 1.2.6-1.2 1.5-2.2 2.5-3.1.5-.5 1-.9 1.6-1.4s1.1-.9 1.8-1.4c.6-.5 1.2-.9 1.8-1.4l1.8-1.5c1.2-1 2.2-2.2 3.1-3.5-.5-.5-1.9-.3-1.9-1.9 1.6-.2 3.1-.5 4.6-.6.2-.6-.4-1.4-.6-2-.3-.6-.2-1.3 1.3-1.6-.6 0-1.6-.1-1.3-.9a25.03 25.03 0 0 0 3.1-3.4c.5-.6.9-1.3 1.3-1.9s.7-1.3 1.1-2 .6-1.4 1-2l.8-2.1.8-2.1.7-2.2c.6-1.5.9-2.9 1.5-4.4s1-2.9 1.6-4.3c.1-.4.3-.7.4-1 .8-.1 1.6-.3 2.4-.5-.5-.2-1-.4-1.3-1.7.9-1.8 1.9-3.6 3.1-5.2-1.9 1.6-1.9.5-1.7-.8h0c-.5.7-1.6-.3-2.5-.3l2.8-4.3c.3.5.5 1 .7 1.6.6 1.2.6 2.6.1 3.9 2.5-.8-.2-.6 2.8-2-1.6 0-1.2-1.7-1-3.2zm-.2-20.9s0-.1-.1 0c.5-1.7.3-1.1.1 0zm-33.7-55.2c.8.2 1.6.4 2.3.7-.8.3-1.9.6-3 .9.2-.5.5-1 .7-1.6zm17.5 26.3c-.5.2-.9.6-1.2 1.1-.4-.7-.8-1.5-1.2-2.2a7.45 7.45 0 0 1 2.4 1.1zm8.5 37.6c1.6-1.4 2.3 2.7 3 .8.7 1 1.2 2.1 1.8 3.2.2.6.4 1.2.4 1.9s-.1 1.3-.3 1.9h0c.1-1.3.1-2.6-1.1-2.8l.4 1.6c-.2-.1-.3-.2-.5-.3 0-.2-.1-.4-.2-.5.1.1.2.3.1.5-1.2-.5-2.6 0-4 .7.1-1.8.2-3.6.2-5.5.2.1.5.1.7-.1l-.5-1.4zm5.3-11.6c.4 1 .4 2.1 0 3-1.8 2.3-4 .5-5.4 1.1-.4-1-.4-2.1-.1-3.1.3-.9.5-1.8.4-2.6l-.6 2.2c-.9-.8-1.4-2.1-1.1-3.2-.2.3-.3.6-.4.9-.7-3.8-1.7-7.7-3-11.4.7.1 1.2.2 1.7.4.9.4 1.8.9 2.5 1.5.2.1.4.3.5.5-.1.6.2 1.3.7 1.9a4.98 4.98 0 0 1 1 1.9c-.1.1-.2.1-.2.1-.5.1-1.2-.1-.9.2.1 1.2.6 2.3 1.3 3.2.6.6 1.2 1.3 2 1.7.7.5 1.3 1 1.6 1.7zm-3.7-8.4c-.2-.3-.3-.6-.4-.8.1.1.2.2.2.3.2.3.2.5.3.7 0 0 0-.1-.1-.2zm-16.9-33.8h0c0 .2.3 1.6.3 3.1.1 1.4.1 2.7-.2 4.1a3.04 3.04 0 0 1-.5.7l-1.8-2.4L165 48l-2.5 1.5c-.6-.9-1.2-1.7-1.9-2.4.4-.4.8-.7 1.2-1v.7l.6-.5c.9 1.6 1.5.6 2.1.5-.5-.5-1.1-.9-1.7-1.3.7-.6 1.4-.9 2.1-1.2zm-12.6-11.7c.5 1.4 1.5 3.3-.2 3.3-1.2-.5-1.6-1-1.7-1.5 0-.5 0-1.1-.2-1.7.7-.1 1.4-.1 2.1-.1zm-2.1.1c-.2 1-1.2 1-2.4 1-.4 0-.8.1-1.2.2h-.1c1.2-.6 2.4-1 3.7-1.2zm-25.8-14.1c-.4 1-.8 2.1-1 3.1-.6-.2-1.3-.4-2.1-.7 1.1-.8 2-1.6 3.1-2.4zm.5-.2c-.5-.8-.8-1.4-.9-1.9.5.2 1 .5 1.4.9.1.2.2.4.2.6l-.7.4zm1.3-3.2c-1.3-1.1-.9-.7 0 0h0zm-48.4 4.3l.3-.7c-.2.3-.5.5-.6.8-.3 0-.5.1-.8.1-.4-.4-.9-.7-1.4-1v-.3c.6-.4 1.3-.8 2-1.3l.9.3c.1 0 .2.1.3.1 0 .4-.1.8-.3 1.3.2-.3.4-.5.5-.7h0l.1 1.2c-.4.1-.7.2-1 .2zm.8-1.4c.4.2.7.5.9 1.1-.2.1-.4.1-.6.1l-.3-1.2zm-18.1 4c-.3.6-.8.7-1.5.8a9.13 9.13 0 0 1 .8-1.3s.4.2.7.5zM20.7 146.9c0 .1.1.1 0 0 .4.4.8.7 1.2.9-.4.1-.8-.2-1.2-.9zm6.4 7.8c.3.2.5.4.7.5-.1.1-.4.1-.7.1v-.6zm90.8 32.3l-.7-.4c1.3-.8 1-.3.7.4z"/><path d="M189.3 101.1h0c0-.1 0-.1 0 0zm.8 8.3c.1 0 0-.1 0-.2.1.1 0 .2 0 .2z"/></svg>