<svg xmlns="http://www.w3.org/2000/svg" xmlns:xlink="http://www.w3.org/1999/xlink" viewBox="0 0 1660.1 223.7" xmlns:v="https://vecta.io/nano"><image width="7381" height="1234" xlink:href="B677A2CEE795B7C7.png" transform="matrix(.24 0 0 .24 -46.2 -36.3792)" overflow="visible" opacity=".5"/><path d="M1703 45c-.2-.3-4.2-3.6-4.2-3.6-2.8-4-8.6-5.4-14.5-5.4v-1.8c4.9.8 3.4.3 6.2 1.8h2.1c1.1-1.9 1.9-3.3 4.2-4.5-1.6-5.3-3.9-4.1-4.2-7.2l-31.2-.9c1-5.6-4.3-9.7-14.5-12.6 0-6.2 3.7-7 12.5-9-7.7-2.7-37.3-6.7-49.9-8.1l-8.3 3.6c-4-.6-8.4-2.4-12.5-2.7-6.2-.4-6.8 1.5-10.4.9h-2.1V-2c-9.2-.7-24.6-3.2-31.2-2.7-2.3.2-11.2 2.2-14.5 1.8l-2.1-1.8c-14.5-1.8-30.2 3.4-43.6-.9-6 2.1-41.4-.4-45.7-.9-14 1.5-33.1 2.7-45.7.9-15.7-2.3-93.4-13.3-110.1-10.8-1.4-2.3-.6-.5 0-2.7-8.9 0-20.2-1-27 .9h-2.1c5 2.1 4.6 0 4.2 2.7 5.7-.5 5.9-.2 8.3-.9h4.2c-4.2 3.1-11.2 2.1-18.7 1.8v4.5h6.2l-18.7 5.4h-8.3l2.1-.9c-5-3.7-21-2.3-29.1-4.5l-2.1-.9h2.1v-1.8l-43.6.9c-10.7-1.2-23.7-5.5-33.2-6.3-11.6-1-29.6 1.1-45.7-.9-6.1-.7-16.3-3.7-20.8-4.5l-22.9 1.8c-7.8-.7-12.6-4-18.7-3.6-5.5 1.6-2.9.1-2.1 2.7-9.3.2-17.4 1.2-20.8 1.8-10.3-.5-5.5 0-8.3-2.7-26.4 0-45.3-.3-64.4 5.4-1.2-1.1-2.5-2.7-4.2-3.6-4.8 1.3-25.5-1.5-31.2 0h-10.4c1.3 1.6.4.9 2.1 1.8l-39.5 3.6c-2.8-.3-7.5-3.1-14.5-1.8l-2.1 2.7c-3.6.6-24.7-3.1-29.1-2.7 0 0-11 .6-12.5.9v1.8L770-17.3c-1.9.2-14.2 2.8-14.5 2.7-5-.6-12.1-3.6-18.7-2.7-2.5.3-2.5 2.1-4.2 2.7-3.6-1.5-25.3.1-31.2.9-14.2-1.4-24.3 1.3-35.3 1.8-7.7.4-11.3-4.4-20.8-2.7l-6.2 2.7h-4.2c-.7-.2 4.1-2.2 2.1-3.6-2.1-1.5-4.3-.1-6.2-2.7-2.7-.8 1.5-1.7 4.2-2.7-1.7-2.4-.8 0-4.2-1.8h-2.1c2.2-.7 1.9-.6 6.2-.9v-.9c-15.1-2.2-38.4 1-56.1-.9-21.4-2.3-45.2-1.9-70.6-1.8-6.3 0-17.8-1.1-20.8-.9-7.1.4-20.3 4.7-27 5.4-8.2.9-20.1-1.1-27 0-2.1.4-2.8 2.3-4.2 2.7-5.4 1.7-21 2.9-27 3.6-3.5-1-7.4 1.8-14.5.9l-4.2-2.7c-1.8-.3-29.7 2.9-37.4 3.6-13.2 1.3-34.9-1.6-45.7-.9-6.6.4-19 2.2-27 1.8l-97.7-4.5c-11.6-.8-32.2 3.7-49.9 1.8-16.4-1.7-79.1-9.4-99.7-6.3C11-20.5-8-16.2-29.8-14.6c1.8 2.2-1.4 5.5 0 7.2 4 5 26.7 12.7 14.5 20.8C-12.7 16.2-11 16-4.9 17c-2.7 7 .3 15.3 2.1 20.7l-2.1 17.2C.7 60.4 6.3 65.4 1.4 73c-2 2.2 3.1 6.8 10.4 9-4.1 5.8-10.3 10.4-6.3 15.3-2.6.6-4.3 1-6.2 1.8-3.8 1.1.3.4 2.1 1.8-5.4.7-13.9 2.5-16.6 4.5-11.6 4.3-10.9 16.2-8.3 21.7-4.3 1-3.8 1.3-10.4 1.8 2.6 2.5 9.3 4.9 6.2 7.2-.3 5.2-2.4 5.6-10.4 7.2 2.6 2.3 2.2 2 8.3 2.7l-4.2 9.9c.2.4 4.6 1.8 4.2 2.7-3.8 7.6-12.7 15.5-4.2 22.6l-2.1 2.7c.8.7 7.7 2.2 8.3 2.7 2.8 2.5-4.2 5.4-4.2 5.4 1.2 1 7.7 2.2 8.3 2.7 6.2 5.2-5.1 15.9 10.4 19-2.9 5.6-14.2 9.1-4.2 12.6 9.8 2.2 26.7-2.4 37.4-1.8 30.8 1.8 53.8-.2 60.3 0 44 1.3 89.4-.6 146.7-1.4 46.2-.6 113.3-.5 201.2 2.4l106.7 2.4c24.2 1.3 49.4 2.2 75.6 2.4 37.1.3 72.3-.6 105.3-2.4 71.9 2.3 130 2.6 168.8 2.4l197.2-2.4c85.3-.3 114.1.9 137.7 2.4 54.2 3.4 198.5 4.1 205 3.1 8.7-1.3 26.5.9 35.3 1.8 10.4 1 21.6-1.6 29.1-.9 8.7.8 19.3 3.9 33.2 2.7 16.8-1.4 47.5-1.4 70.6-4.5h18.7l8.3-3.6 22.9-2.7c11.6-2.7 21.7-7.1 33.2-9.9 3.2-7.1 10.2-13.9 6.2-19l-2.1-.9c1.4-1.7 7.4-1.9 6.2-5.4-1.7-5-7.7-10-10.4-13.5-6.4-8.5 1.3-18.1 4.2-24.4 3-6.6-6.2-3.9 2.1-10.8-10.1-3.7-33.9-19.5-29.1-24.4 3.1-3.1 11.7-7.2 14.5-10.8 8.5-11 11.7-15.9 27-23.5-.8-6.9-6.7-8.6-10.4-13.5l14.5-2.7c.2-5.8-3.1-12.9-2.1-15.4 1.2-1.5 7.5-5.5 6.7-7zM-27.7 147.9h12.5l2.1 1.8c-6-.8-8.9 0-14.6-1.8zm14.5 26.2c3.6.6 2 .2 4.2.9-3.6-.6-2.1-.2-4.2-.9zm4.2-20.8h-6.2c1.6-.6 4.6-1.2 6.2-1.8 2.2-1.7.7-1 0-3.6l14.5 1.8c-2.7 1.4-3.9 1.9-8.3 2.7-3.6 1.2-3.5.1-6.2.9zm2 8.2h6.2c-3.5.8-2.6.8-6.2 0zm6.3-2.7v.9h-2.1l2.1-2.7c1.3 1.3 2.6.3 0 1.8zm4.1 8.1h6.2c-3.5.8-2.6.8-6.2 0zm31.2-8.1c2.6.6 4.3 1 6.2 1.8-4.9-.8-3.4-.4-6.2-1.8zm8.3 64.1c3.6.6 2 .2 4.2.9-3.6-.6-2.1-.2-4.2-.9zm10.4-67.8c-3.6-.6-2-.2-4.2-.9 3.6.6 2.1.2 4.2.9zm2.1 28.9h-2.1v-1.8h2.1v1.8zm-4.2-22.5l2.1-.9c1.7.9.8.2 2.1 1.8 0 0-8.2-.2-4.2-.9zm2.1-4.6c3.6.6 2 .2 4.2.9-3.6-.5-2.1-.1-4.2-.9zm10.4 44.3l2.1-1.8c0 0 1.5.5-2.1 1.8zm20.8-47h6.2c-3.6.8-2.7.8-6.2 0zm10.4 24.4c3.6.6 2 .2 4.2.9-3.7-.6-2.1-.2-4.2-.9zm4.1-39.7c3.6.6 2 .2 4.2.9-3.6-.6-2.1-.2-4.2-.9zm18.7 63.2c3.6.6 2 .2 4.2.9-3.6-.6-2.1-.2-4.2-.9zm12.5-46.1l2.1-1.8c0 0 1.5.6-2.1 1.8zm16.6 63.3c3.6.6 2 .2 4.2.9-3.6-.6-2.1-.2-4.2-.9zm56.1-50.6c3.6.6 2 .2 4.2.9-3.6-.6-2.1-.2-4.2-.9zm153.7 23.5c3.6.6 2 .2 4.2.9-3.6-.6-2-.2-4.2-.9zm253.5-215c3.6-.6 2-.2 4.2-.9 1.7.9.8.2 2.1 1.8h-6.2v-.9zM593.5 147c3.6.6 2 .2 4.2.9-3.6-.6-2.1-.2-4.2-.9zm8.3-156.2h-4.2V-11h4.2v1.8zm2.1-5.4c3.6.6 2 .2 4.2.9-3.6-.6-2.1-.2-4.2-.9zm4.1-2.7c3.6.6 2 .2 4.2.9-3.6-.6-2-.2-4.2-.9zm2.1-2.8c3.6.6 2 .2 4.2.9-3.6-.5-2.1-.1-4.2-.9zm14.6 6.4c-8.4.7-4.7 2.5-8.3-.9h8.3v.9zm-6.3-10c6.5.5 5.1.2 8.3 1.8-2.6-.5-6.2-1-8.3-1.8zm16.7 17.2s-8.2-.2-4.2-.9l2.1-.9c3.6.6 2 .2 4.2.9-.8.3-1.4.6-2.1.9zm10.3 180.6c3.6.6 2 .2 4.2.9-3.6-.6-2-.2-4.2-.9zM805.4 7l2.1-1.8s1.6.6-2.1 1.8zm58.2-5.4c3.6.6 2 .2 4.2.9-3.6-.6-2.1-.2-4.2-.9zm70.6-19.8c6.9.3 3.5.2 10.4 0v1.8c-6 .1-3 .6-6.2 0h-4.2v-1.8zm-29-2.8c-3.6 1-6.7 1.1-10.4 0h10.4zm-2.1 48.8l-2.1.9s-8.2-.2-4.2-.9l2.1-.9c3.6.6 2.1.2 4.2.9zm-12.5 3.6v-.9c3.6-.6 2-.2 4.2-.9 1.7.9.8.2 2.1 1.8h-6.3zm14.6 0H901v-.9c4.9-.8 3.4-.3 6.2-1.8 3.2.5 3.5.6 8.3.9-2 .7-8.2 1.2-10.3 1.8zm58.1-3.6c-9.6 3.8-33.9-.3-54-.9 3.3-2.5 11.9-2.8 20.8-2.7v-1.8c4.1.2 13-.4 14.5 0l2.1 3.6c5.2 1.6 12.7.4 14.5.9 3.6.6 2 .2 4.2.9h-2.1zm18.7 3.6c3.6.6 2 .2 4.2.9-3.6-.6-2-.2-4.2-.9zm0-43.3c3.6.6 2 .2 4.2.9-3.6-.6-2-.2-4.2-.9zm18.7 39.7s-8.2-.2-4.2-.9l2.1-.9c3.6.6 2 .2 4.2.9l-2.1.9zm10.4-.9h-6.2c3.6-1.5 5.6-1.6 8.3-3.6 4.3.4 4 .2 6.2.9 3.6.6 2 .2 4.2.9-5.6 1-9 .9-12.5 1.8zm14.6-5.4h4.2c-2 1.6-.8 1-4.2 0zm12.4 0v-1.8c3.6.6 2 .2 4.2.9h-2.1l-2.1.9zm4.2 4.5l2.1-.9c1.7.9.8.2 2.1 1.8-.1 0-8.2-.2-4.2-.9zm22.8-5.4h-2.1v-1.8h2.1v1.8zm37.4-10.9c3.6.6 2 .2 4.2.9-3.6-.5-2-.1-4.2-.9zm2.1 16.3h6.2c-3.5.8-2.6.8-6.2 0zm16.6-3.6c3.6.6 2 .2 4.2.9-3.6-.6-2-.2-4.2-.9zm25 168.9h-6.2v-1.8h6.2v1.8zm54-119.2h-2.1v-1.8h2.1v1.8zm49.9-66h-4.2V4.3l4.2.9v.9zm6.2 75l2.1-.9c1.7.9.8.2 2.1 1.8-.1 0-8.2-.2-4.2-.9zm10.4-71.4c-3.6-.6-2-.2-4.2-.9 3.6.6 2.1.2 4.2.9zm0 63.3c3.6.6 2 .2 4.2.9-3.7-.6-2.1-.2-4.2-.9zm10.4 9.9h-2.1v-1.8h2.1v1.8zm33.2 7.2c3.6.6 2 .2 4.2.9-3.6-.6-2.1-.2-4.2-.9zm2.1-4.5c3.6.6 2 .2 4.2.9-3.6-.6-2.1-.2-4.2-.9zm-2.1-68.6h-2.1l4.2-1.8c-7.5-2-15.5-.1-22.9-3.6h-2.1c3.4-1.4 9.8-2.9 14.5-3.6 3.6-1 4-.3 8.3-.9v5.4h6.2c3.6 2.5-2 2.3 8.3 2.7-4.6 3.4-10.8 1-14.4 1.8zm89.4 32.5h6.2c-3.6.8-2.7.8-6.2 0zm35.3-10.9c3.6.6 2 .2 4.2.9-3.7-.5-2.1-.1-4.2-.9zm10.4-25.2c-3.6-.5-13.5-.9-16.6-1.8h-2.1c8.5-3.3 7.4-2.9 10.4-7.2 4.6 1.8 2.1 1.8 4.2 4.5 6.8-.6 4.8-.9 10.4-1.8l2.1.9c-2.8 2.5-2.9 2.3-10.4 2.7.6.9 1.3 1.8 2 2.7zm6.2-12.7c3.6.6 2 .2 4.2.9-3.6-.6-2.1-.2-4.2-.9zm22.9 13.6h-2.1l-2.1-2.7 4.2.9v1.8zm39.4 30.7c3.6.6 2 .2 4.2.9-3.6-.6-2.1-.2-4.2-.9zm14.6-39.8h-2.1V3.4h2.1v1.8zm2 7.3c6.5.5 5.1.2 8.3 1.8-2.6-.5-6.2-1.1-8.3-1.8zm41.6 7.2c3.6.6 2 .2 4.2.9-3.6-.6-2.1-.2-4.2-.9zm8.3-20.8c3.6.6 2 .2 4.2.9-3.6-.6-2.1-.2-4.2-.9zm56.1 107.5c3.6.6 2 .2 4.2.9-3.6-.6-2.1-.2-4.2-.9z" fill-rule="evenodd" fill="#241e1f"/></svg>