<?xml version="1.0" encoding="utf-8"?>
<!-- Generator: Adobe Illustrator 25.4.1, SVG Export Plug-In . SVG Version: 6.00 Build 0)  -->
<svg version="1.1" id="Layer_1" xmlns="http://www.w3.org/2000/svg" xmlns:xlink="http://www.w3.org/1999/xlink" x="0px" y="0px"
	 viewBox="0 0 1660.1 223.7" style="enable-background:new 0 0 1660.1 223.7;" xml:space="preserve">
<style type="text/css">
	.st0{fill-rule:evenodd;clip-rule:evenodd;fill:#241E1F;}
</style>
<g>
	
		<image style="overflow:visible;opacity:0.5;" width="7381" height="1234" xlink:href="B677A2CEE795B7C7.png"  transform="matrix(0.24 0 0 0.24 -46.2 -36.3792)">
	</image>
	<g>
		<g>
			<path class="st0" d="M1703,45c-0.2-0.3-4.2-3.6-4.2-3.6c-2.8-4-8.6-5.4-14.5-5.4v-1.8c4.9,0.8,3.4,0.3,6.2,1.8h2.1
				c1.1-1.9,1.9-3.3,4.2-4.5c-1.6-5.3-3.9-4.1-4.2-7.2c-10.4-0.3-20.8-0.6-31.2-0.9c1-5.6-4.3-9.7-14.5-12.6c0-6.2,3.7-7,12.5-9
				c-7.7-2.7-37.3-6.7-49.9-8.1c-2.8,1.2-5.5,2.4-8.3,3.6c-4-0.6-8.4-2.4-12.5-2.7c-6.2-0.4-6.8,1.5-10.4,0.9h-2.1V-2
				c-9.2-0.7-24.6-3.2-31.2-2.7c-2.3,0.2-11.2,2.2-14.5,1.8c-0.7-0.6-1.4-1.2-2.1-1.8c-14.5-1.8-30.2,3.4-43.6-0.9
				c-6,2.1-41.4-0.4-45.7-0.9c-14,1.5-33.1,2.7-45.7,0.9c-15.7-2.3-93.4-13.3-110.1-10.8c-1.4-2.3-0.6-0.5,0-2.7
				c-8.9,0-20.2-1-27,0.9h-2.1c5,2.1,4.6,0,4.2,2.7c5.7-0.5,5.9-0.2,8.3-0.9h4.2c-4.2,3.1-11.2,2.1-18.7,1.8v4.5h6.2
				c-6.2,1.8-12.5,3.6-18.7,5.4h-8.3c0.7-0.3,1.4-0.6,2.1-0.9c-5-3.7-21-2.3-29.1-4.5c-0.7-0.3-1.4-0.6-2.1-0.9h2.1v-1.8
				c-14.5,0.3-29.1,0.6-43.6,0.9c-10.7-1.2-23.7-5.5-33.2-6.3c-11.6-1-29.6,1.1-45.7-0.9c-6.1-0.7-16.3-3.7-20.8-4.5
				c-7.6,0.6-15.2,1.2-22.9,1.8c-7.8-0.7-12.6-4-18.7-3.6c-5.5,1.6-2.9,0.1-2.1,2.7c-9.3,0.2-17.4,1.2-20.8,1.8
				c-10.3-0.5-5.5,0-8.3-2.7c-26.4,0-45.3-0.3-64.4,5.4c-1.2-1.1-2.5-2.7-4.2-3.6c-4.8,1.3-25.5-1.5-31.2,0h-10.4
				c1.3,1.6,0.4,0.9,2.1,1.8l-39.5,3.6c-2.8-0.3-7.5-3.1-14.5-1.8c-0.7,0.9-1.4,1.8-2.1,2.7c-3.6,0.6-24.7-3.1-29.1-2.7
				c0,0-11,0.6-12.5,0.9v1.8c-4.2-0.6-8.3-1.2-12.5-1.8c-1.9,0.2-14.2,2.8-14.5,2.7c-5-0.6-12.1-3.6-18.7-2.7
				c-2.5,0.3-2.5,2.1-4.2,2.7c-3.6-1.5-25.3,0.1-31.2,0.9c-14.2-1.4-24.3,1.3-35.3,1.8c-7.7,0.4-11.3-4.4-20.8-2.7
				c-2.1,0.9-4.2,1.8-6.2,2.7h-4.2c-0.7-0.2,4.1-2.2,2.1-3.6c-2.1-1.5-4.3-0.1-6.2-2.7c-2.7-0.8,1.5-1.7,4.2-2.7
				c-1.7-2.4-0.8,0-4.2-1.8h-2.1c2.2-0.7,1.9-0.6,6.2-0.9v-0.9c-15.1-2.2-38.4,1-56.1-0.9c-21.4-2.3-45.2-1.9-70.6-1.8
				c-6.3,0-17.8-1.1-20.8-0.9c-7.1,0.4-20.3,4.7-27,5.4c-8.2,0.9-20.1-1.1-27,0c-2.1,0.4-2.8,2.3-4.2,2.7c-5.4,1.7-21,2.9-27,3.6
				c-3.5-1-7.4,1.8-14.5,0.9c-1.4-0.9-2.8-1.8-4.2-2.7c-1.8-0.3-29.7,2.9-37.4,3.6c-13.2,1.3-34.9-1.6-45.7-0.9
				c-6.6,0.4-19,2.2-27,1.8c-28.1-1.2-62.5-2.1-97.7-4.5c-11.6-0.8-32.2,3.7-49.9,1.8c-16.4-1.7-79.1-9.4-99.7-6.3
				C11-20.5-8-16.2-29.8-14.6c1.8,2.2-1.4,5.5,0,7.2c4,5,26.7,12.7,14.5,20.8c2.6,2.8,4.3,2.6,10.4,3.6C-7.6,24-4.6,32.3-2.8,37.7
				c-0.7,5.7-1.4,11.4-2.1,17.2C0.7,60.4,6.3,65.4,1.4,73c-2,2.2,3.1,6.8,10.4,9C7.7,87.8,1.5,92.4,5.5,97.3c-2.6,0.6-4.3,1-6.2,1.8
				c-3.8,1.1,0.3,0.4,2.1,1.8c-5.4,0.7-13.9,2.5-16.6,4.5c-11.6,4.3-10.9,16.2-8.3,21.7c-4.3,1-3.8,1.3-10.4,1.8
				c2.6,2.5,9.3,4.9,6.2,7.2c-0.3,5.2-2.4,5.6-10.4,7.2c2.6,2.3,2.2,2,8.3,2.7c-1.4,3.3-2.8,6.6-4.2,9.9c0.2,0.4,4.6,1.8,4.2,2.7
				c-3.8,7.6-12.7,15.5-4.2,22.6c-0.7,0.9-1.4,1.8-2.1,2.7c0.8,0.7,7.7,2.2,8.3,2.7c2.8,2.5-4.2,5.4-4.2,5.4c1.2,1,7.7,2.2,8.3,2.7
				c6.2,5.2-5.1,15.9,10.4,19c-2.9,5.6-14.2,9.1-4.2,12.6c9.8,2.2,26.7-2.4,37.4-1.8c30.8,1.8,53.8-0.2,60.3,0
				c44,1.3,89.4-0.6,146.7-1.4c46.2-0.6,113.3-0.5,201.2,2.4l106.7,2.4c24.2,1.3,49.4,2.2,75.6,2.4c37.1,0.3,72.3-0.6,105.3-2.4
				c71.9,2.3,130,2.6,168.8,2.4c71.2-0.3,98.5-2.1,197.2-2.4c85.3-0.3,114.1,0.9,137.7,2.4c54.2,3.4,198.5,4.1,205,3.1
				c8.7-1.3,26.5,0.9,35.3,1.8c10.4,1,21.6-1.6,29.1-0.9c8.7,0.8,19.3,3.9,33.2,2.7c16.8-1.4,47.5-1.4,70.6-4.5h18.7
				c2.8-1.2,5.5-2.4,8.3-3.6c7.6-0.9,15.2-1.8,22.9-2.7c11.6-2.7,21.7-7.1,33.2-9.9c3.2-7.1,10.2-13.9,6.2-19
				c-0.7-0.3-1.4-0.6-2.1-0.9c1.4-1.7,7.4-1.9,6.2-5.4c-1.7-5-7.7-10-10.4-13.5c-6.4-8.5,1.3-18.1,4.2-24.4c3-6.6-6.2-3.9,2.1-10.8
				c-10.1-3.7-33.9-19.5-29.1-24.4c3.1-3.1,11.7-7.2,14.5-10.8c8.5-11,11.7-15.9,27-23.5c-0.8-6.9-6.7-8.6-10.4-13.5
				c4.8-0.9,9.7-1.8,14.5-2.7c0.2-5.8-3.1-12.9-2.1-15.4C1697.5,50.5,1703.8,46.5,1703,45z M-27.7,147.9h12.5
				c0.7,0.6,1.4,1.2,2.1,1.8C-19.1,148.9-22,149.7-27.7,147.9z M-13.2,174.1c3.6,0.6,2,0.2,4.2,0.9
				C-12.6,174.4-11.1,174.8-13.2,174.1z M-9,153.3h-6.2c1.6-0.6,4.6-1.2,6.2-1.8c2.2-1.7,0.7-1,0-3.6c4.8,0.6,9.7,1.2,14.5,1.8
				c-2.7,1.4-3.9,1.9-8.3,2.7C-6.4,153.6-6.3,152.5-9,153.3z M-7,161.5h6.2C-4.3,162.3-3.4,162.3-7,161.5z M-0.7,158.8v0.9h-2.1
				c0.7-0.9,1.4-1.8,2.1-2.7C0.6,158.3,1.9,157.3-0.7,158.8z M3.4,166.9h6.2C6.1,167.7,7,167.7,3.4,166.9z M34.6,158.8
				c2.6,0.6,4.3,1,6.2,1.8C35.9,159.8,37.4,160.2,34.6,158.8z M42.9,222.9c3.6,0.6,2,0.2,4.2,0.9C43.5,223.2,45,223.6,42.9,222.9z
				 M53.3,155.1c-3.6-0.6-2-0.2-4.2-0.9C52.7,154.8,51.2,154.4,53.3,155.1z M55.4,184h-2.1v-1.8h2.1V184z M51.2,161.5
				c0.7-0.3,1.4-0.6,2.1-0.9c1.7,0.9,0.8,0.2,2.1,1.8C55.4,162.4,47.2,162.2,51.2,161.5z M53.3,156.9c3.6,0.6,2,0.2,4.2,0.9
				C53.9,157.3,55.4,157.7,53.3,156.9z M63.7,201.2c0.7-0.6,1.4-1.2,2.1-1.8C65.8,199.4,67.3,199.9,63.7,201.2z M84.5,154.2h6.2
				C87.1,155,88,155,84.5,154.2z M94.9,178.6c3.6,0.6,2,0.2,4.2,0.9C95.4,178.9,97,179.3,94.9,178.6z M99,138.9
				c3.6,0.6,2,0.2,4.2,0.9C99.6,139.2,101.1,139.6,99,138.9z M117.7,202.1c3.6,0.6,2,0.2,4.2,0.9
				C118.3,202.4,119.8,202.8,117.7,202.1z M130.2,156c0.7-0.6,1.4-1.2,2.1-1.8C132.3,154.2,133.8,154.8,130.2,156z M146.8,219.3
				c3.6,0.6,2,0.2,4.2,0.9C147.4,219.6,148.9,220,146.8,219.3z M202.9,168.7c3.6,0.6,2,0.2,4.2,0.9C203.5,169,205,169.4,202.9,168.7
				z M356.6,192.2c3.6,0.6,2,0.2,4.2,0.9C357.2,192.5,358.8,192.9,356.6,192.2z M610.1-22.8c3.6-0.6,2-0.2,4.2-0.9
				c1.7,0.9,0.8,0.2,2.1,1.8h-6.2V-22.8z M593.5,147c3.6,0.6,2,0.2,4.2,0.9C594.1,147.3,595.6,147.7,593.5,147z M601.8-9.2h-4.2V-11
				h4.2V-9.2z M603.9-14.6c3.6,0.6,2,0.2,4.2,0.9C604.5-14.3,606-13.9,603.9-14.6z M608-17.3c3.6,0.6,2,0.2,4.2,0.9
				C608.6-17,610.2-16.6,608-17.3z M610.1-20.1c3.6,0.6,2,0.2,4.2,0.9C610.7-19.7,612.2-19.3,610.1-20.1z M624.7-13.7
				c-8.4,0.7-4.7,2.5-8.3-0.9h8.3V-13.7z M618.4-23.7c6.5,0.5,5.1,0.2,8.3,1.8C624.1-22.4,620.5-22.9,618.4-23.7z M635.1-6.5
				c0,0-8.2-0.2-4.2-0.9c0.7-0.3,1.4-0.6,2.1-0.9c3.6,0.6,2,0.2,4.2,0.9C636.4-7.1,635.8-6.8,635.1-6.5z M645.4,174.1
				c3.6,0.6,2,0.2,4.2,0.9C646,174.4,647.6,174.8,645.4,174.1z M805.4,7c0.7-0.6,1.4-1.2,2.1-1.8C807.5,5.2,809.1,5.8,805.4,7z
				 M863.6,1.6c3.6,0.6,2,0.2,4.2,0.9C864.2,1.9,865.7,2.3,863.6,1.6z M934.2-18.2c6.9,0.3,3.5,0.2,10.4,0v1.8c-6,0.1-3,0.6-6.2,0
				h-4.2V-18.2z M905.2-21c-3.6,1-6.7,1.1-10.4,0H905.2z M903.1,27.8c-0.7,0.3-1.4,0.6-2.1,0.9c0,0-8.2-0.2-4.2-0.9
				c0.7-0.3,1.4-0.6,2.1-0.9C902.5,27.5,901,27.1,903.1,27.8z M890.6,31.4v-0.9c3.6-0.6,2-0.2,4.2-0.9c1.7,0.9,0.8,0.2,2.1,1.8
				H890.6z M905.2,31.4H901v-0.9c4.9-0.8,3.4-0.3,6.2-1.8c3.2,0.5,3.5,0.6,8.3,0.9C913.5,30.3,907.3,30.8,905.2,31.4z M963.3,27.8
				c-9.6,3.8-33.9-0.3-54-0.9c3.3-2.5,11.9-2.8,20.8-2.7v-1.8c4.1,0.2,13-0.4,14.5,0c0.7,1.2,1.4,2.4,2.1,3.6
				c5.2,1.6,12.7,0.4,14.5,0.9c3.6,0.6,2,0.2,4.2,0.9H963.3z M982,31.4c3.6,0.6,2,0.2,4.2,0.9C982.6,31.7,984.2,32.1,982,31.4z
				 M982-11.9c3.6,0.6,2,0.2,4.2,0.9C982.6-11.6,984.2-11.2,982-11.9z M1000.7,27.8c0,0-8.2-0.2-4.2-0.9c0.7-0.3,1.4-0.6,2.1-0.9
				c3.6,0.6,2,0.2,4.2,0.9C1002.1,27.2,1001.4,27.5,1000.7,27.8z M1011.1,26.9h-6.2c3.6-1.5,5.6-1.6,8.3-3.6c4.3,0.4,4,0.2,6.2,0.9
				c3.6,0.6,2,0.2,4.2,0.9C1018,26.1,1014.6,26,1011.1,26.9z M1025.7,21.5h4.2C1027.9,23.1,1029.1,22.5,1025.7,21.5z M1038.1,21.5
				v-1.8c3.6,0.6,2,0.2,4.2,0.9h-2.1C1039.5,20.9,1038.8,21.2,1038.1,21.5z M1042.3,26c0.7-0.3,1.4-0.6,2.1-0.9
				c1.7,0.9,0.8,0.2,2.1,1.8C1046.4,26.9,1038.3,26.7,1042.3,26z M1065.1,20.6h-2.1v-1.8h2.1V20.6z M1102.5,9.7
				c3.6,0.6,2,0.2,4.2,0.9C1103.1,10.1,1104.7,10.5,1102.5,9.7z M1104.6,26h6.2C1107.3,26.8,1108.2,26.8,1104.6,26z M1121.2,22.4
				c3.6,0.6,2,0.2,4.2,0.9C1121.8,22.7,1123.4,23.1,1121.2,22.4z M1146.2,191.3h-6.2v-1.8h6.2V191.3z M1200.2,72.1h-2.1v-1.8h2.1
				V72.1z M1250.1,6.1h-4.2V4.3c1.4,0.3,2.8,0.6,4.2,0.9V6.1z M1256.3,81.1c0.7-0.3,1.4-0.6,2.1-0.9c1.7,0.9,0.8,0.2,2.1,1.8
				C1260.4,82,1252.3,81.8,1256.3,81.1z M1266.7,9.7c-3.6-0.6-2-0.2-4.2-0.9C1266.1,9.4,1264.6,9,1266.7,9.7z M1266.7,73
				c3.6,0.6,2,0.2,4.2,0.9C1267.2,73.3,1268.8,73.7,1266.7,73z M1277.1,82.9h-2.1v-1.8h2.1V82.9z M1310.3,90.1
				c3.6,0.6,2,0.2,4.2,0.9C1310.9,90.4,1312.4,90.8,1310.3,90.1z M1312.4,85.6c3.6,0.6,2,0.2,4.2,0.9
				C1313,85.9,1314.5,86.3,1312.4,85.6z M1310.3,17h-2.1c1.4-0.6,2.8-1.2,4.2-1.8c-7.5-2-15.5-0.1-22.9-3.6h-2.1
				c3.4-1.4,9.8-2.9,14.5-3.6c3.6-1,4-0.3,8.3-0.9v5.4h6.2c3.6,2.5-2,2.3,8.3,2.7C1320.1,18.6,1313.9,16.2,1310.3,17z M1399.7,49.5
				h6.2C1402.3,50.3,1403.2,50.3,1399.7,49.5z M1435,38.6c3.6,0.6,2,0.2,4.2,0.9C1435.5,39,1437.1,39.4,1435,38.6z M1445.4,13.4
				c-3.6-0.5-13.5-0.9-16.6-1.8h-2.1c8.5-3.3,7.4-2.9,10.4-7.2c4.6,1.8,2.1,1.8,4.2,4.5c6.8-0.6,4.8-0.9,10.4-1.8
				c0.7,0.3,1.4,0.6,2.1,0.9c-2.8,2.5-2.9,2.3-10.4,2.7C1444,11.6,1444.7,12.5,1445.4,13.4z M1451.6,0.7c3.6,0.6,2,0.2,4.2,0.9
				C1452.2,1,1453.7,1.4,1451.6,0.7z M1474.5,14.3h-2.1c-0.7-0.9-1.4-1.8-2.1-2.7c1.4,0.3,2.8,0.6,4.2,0.9V14.3z M1513.9,45
				c3.6,0.6,2,0.2,4.2,0.9C1514.5,45.3,1516,45.7,1513.9,45z M1528.5,5.2h-2.1V3.4h2.1V5.2z M1530.5,12.5c6.5,0.5,5.1,0.2,8.3,1.8
				C1536.2,13.8,1532.6,13.2,1530.5,12.5z M1572.1,19.7c3.6,0.6,2,0.2,4.2,0.9C1572.7,20,1574.2,20.4,1572.1,19.7z M1580.4-1.1
				c3.6,0.6,2,0.2,4.2,0.9C1581-0.8,1582.5-0.4,1580.4-1.1z M1636.5,106.4c3.6,0.6,2,0.2,4.2,0.9
				C1637.1,106.7,1638.6,107.1,1636.5,106.4z"/>
		</g>
	</g>
</g>
</svg>
