<?xml version="1.0" encoding="utf-8"?>
<!-- Generator: Adobe Illustrator 25.4.1, SVG Export Plug-In . SVG Version: 6.00 Build 0)  -->
<svg version="1.1" id="Layer_1" xmlns="http://www.w3.org/2000/svg" xmlns:xlink="http://www.w3.org/1999/xlink" x="0px" y="0px"
	 viewBox="0 0 198 199.7" style="enable-background:new 0 0 198 199.7;" xml:space="preserve">
<style type="text/css">
	.st0{fill:#241E1F;}
</style>
<g>
	<path class="st0" d="M196.2,101.4c-0.1,0.9,1.6,0.6,1.9,0.7C197.6,100.6,195.7,101.5,196.2,101.4z"/>
	<path class="st0" d="M191.8,87.1l-2-1.8l1.3,1.7L191.8,87.1z"/>
	<path class="st0" d="M188.8,81.4l2.5,0.6c-0.6-1.5-1.3-3-2.1-4.4c-0.7-1.2-1.2-2.5-1.2-3.9c-1.2,1-0.8,2.2,0,3.4
		c0.9,1.1,1.4,2.4,1.4,3.9L188.8,81.4z"/>
	<path class="st0" d="M191.7,66.3c0-0.1,0.1-0.3,0.1-0.4c-0.2-0.5-0.4-0.9-0.5-1.4C190.5,65.3,189.8,63.3,191.7,66.3z"/>
	<path class="st0" d="M190.8,59.1c-1.4-1.7-1.8-1-2.3,0.5l1.7,1.4C190.7,60.4,190.1,58.7,190.8,59.1z"/>
	<path class="st0" d="M185.8,58.9c0.3,0.2,0.6,0.5,0.8,0.7C186.8,59.3,186.8,59,185.8,58.9z"/>
	<path class="st0" d="M187.3,60.4c-0.9,0.2,0.1,0.2,1,0.8l-1.7-1.6C186.3,60.1,185.5,60.5,187.3,60.4z"/>
	<path class="st0" d="M186.8,63.8c0.9,1.6,1.7,2.2,2.2,1.8s0.4-1.5-0.5-3.1C188.3,63.8,188.5,65.2,186.8,63.8z"/>
	<path class="st0" d="M184.9,73.9c-0.1,0.5-0.2,1-0.4,1.6l1.3,0.9c-0.3-0.2-0.3-0.9-0.3-1.5S185.4,73.7,184.9,73.9z"/>
	<path class="st0" d="M183.8,47.9c-0.6,0.2-1,1.4-1.6,2c0.5,0.3,0.9,0.6,1.4,0.9C183.6,49.9,183.1,48.5,183.8,47.9z"/>
	<path class="st0" d="M182.2,49.9l-2.1-1.3C181.1,50.3,181.7,50.3,182.2,49.9z"/>
	<path class="st0" d="M182.4,59.4l0.3,0.6c1.2,0.7,2.3,1.5,3.5,2.2C185,61.2,183.7,60.3,182.4,59.4z"/>
	<path class="st0" d="M180.9,41c-1-0.2-2-0.4-3.1-0.5l1.2,0.3C179.7,40.8,180.3,40.9,180.9,41z"/>
	<path class="st0" d="M175.3,36.5c1.5,0,0.7-2.3,1.9-2c-1.3-0.9-2.7-1.5-4.3-1.7C174.2,33.6,175.1,34.9,175.3,36.5z"/>
	<path class="st0" d="M170.5,32.3c0.8,0.3,1.5,0.4,2.3,0.5C172.1,32.5,171.3,32.3,170.5,32.3z"/>
	<path class="st0" d="M178.7,42.9l-0.9,1.7l0.5,0.7C178.8,44.7,179,43.8,178.7,42.9z"/>
	<path class="st0" d="M177.8,44.7L177.8,44.7l-1-1.6L177.8,44.7z"/>
	<path class="st0" d="M178.4,45.5l-0.1-0.2C178.2,45.5,178.2,45.6,178.4,45.5z"/>
	<path class="st0" d="M181.5,54.3c-1.5-0.6-3.6-2.3-3.7,0.6C179.3,55.1,179.3,53.4,181.5,54.3z"/>
	<path class="st0" d="M179.6,49c-0.8-0.5-1.5-0.9-2.3-1.4c0.3,0.7,0.6,1.4,0.9,2.1C178.5,49.5,178.9,48.7,179.6,49z"/>
	<path class="st0" d="M176.2,47l1.1,0.6l-0.4-0.8L176.2,47z"/>
	<path class="st0" d="M172,36.3c-0.6-0.1-1.1-0.4-1.6-0.7c-0.5-0.3-0.9-0.7-1.4-1.1c0.7,1.2,1.4,2.3,2.3,3.3
		C171.9,37.6,173,37.4,172,36.3z"/>
	<path class="st0" d="M174.8,40.4c-0.1,0-0.1-0.1-0.2-0.1C174.6,40.5,174.6,40.6,174.8,40.4z"/>
	<path class="st0" d="M160.3,26.2c0,0.1,0,0.2-0.1,0.4l0.2-0.2L160.3,26.2z"/>
	<path class="st0" d="M171.3,38.2c0.3,0.8,1.1,1.2,1.9,1.2c-0.6-0.5-1.2-1-1.8-1.6C171.1,37.9,171,38,171.3,38.2z"/>
	<path class="st0" d="M167.5,30.4c0.1,0.6,0.3,1.3,0.6,1.9C168.2,31.5,168,30.2,167.5,30.4z"/>
	<path class="st0" d="M174.8,39.8c0.1,0,0.1,0,0.2,0.1C175,39.3,174.9,39.5,174.8,39.8z"/>
	<path class="st0" d="M174.8,39.8c-0.5-0.2-1.1-0.3-1.6-0.4c0.4,0.4,0.9,0.7,1.5,0.9C174.7,40.1,174.7,39.9,174.8,39.8z"/>
	<path class="st0" d="M163.4,29.5l0.8,0.5c-0.6-1.2-0.9-2.5-1-3.8c-1.7-0.4-2.3-0.2-2.8,0.1c1.1,1.1,2.2,2.1,3.3,3.2L163.4,29.5z"/>
	<path class="st0" d="M167.3,32.9c-1.7,0.7-3.8-0.3-4.2,2c2,1.8,2.3,0.3,4,0.9c-3.3-2.8,1.6,0.2,0.1-2.7c0.7,0.4,1.4,0.9,2,1.4
		c-0.4-0.7-0.7-1.5-1-2.2c0,0,0,0.1,0,0.2l0,0l0,0c0,0.3-0.1,0.4-0.1,0.2c0,0-0.1,0-0.1,0C167.7,32.8,167.5,32.9,167.3,32.9
		c-0.6-1.2,0.2-0.5,0.6-0.3c0.1,0,0.2-0.1,0.2-0.1c0,0,0,0,0,0c-1.2-0.9-2.6-1.6-3.9-2.4C165.1,31.1,166.1,32.1,167.3,32.9z"/>
	<path class="st0" d="M173.5,55c0-0.1,0.1-0.3,0.3-0.3C173.5,54.6,173.3,54.6,173.5,55z"/>
	<path class="st0" d="M175.7,49.3l0.2-0.3C175.9,48.9,175.8,49.1,175.7,49.3z"/>
	<path class="st0" d="M173.5,53c0.4,0.1,1.1,0,1.5,0.9c0,1-0.7,0.4-1.2,0.8c0.7,0.2,2.1,1.1,1.9-0.9l-0.4-0.1
		c-0.2-1.5-0.1-2.9,0.3-4.3C174.8,50.4,174,51.7,173.5,53z"/>
	<path class="st0" d="M167.7,43.3l0.6-0.6c1,1.7,1.6,0.7,2.3,0.5c-0.9-0.8-1.9-1.4-2.9-2.1L167.7,43.3z"/>
	<path class="st0" d="M162.1,24.2c-1.1,0.2-2.2,0.4-3.3,0.7l1.8,0.4L162.1,24.2z"/>
	<path class="st0" d="M157.7,21.3c-0.5,0-1.1,0-1.6,0l0.5,1.2L157.7,21.3z"/>
	<path class="st0" d="M44.8,17.7c-2.1-0.4-5-1.4-3.8,0l1.4,1.2C43,18.2,43.9,17.8,44.8,17.7z"/>
	<path class="st0" d="M111.1,4.3c-1-0.7-2.1-1.2-3.3-1.5C109.4,4,110.5,5.7,111.1,4.3z"/>
	<path class="st0" d="M11,149.5c0.6,0.4,1.1,0.5,1.4,0.3C11.8,149.4,11.3,149.2,11,149.5z"/>
	<path class="st0" d="M107.9,2.8c-1.1-1.1-2.8-1.2-4-0.3c0.2,0.2,0.5,0.3,0.7,0.5C105.7,2.7,106.8,2.7,107.9,2.8z"/>
	<path class="st0" d="M193.1,115.1c0,0.6,0,1.2-0.1,1.8C193.2,116.3,193.3,115.7,193.1,115.1z"/>
	<path class="st0" d="M140.7,20.6c0.2-0.3,0.4-0.5,0.7-0.6C141.2,20.1,140.9,20.4,140.7,20.6z"/>
	<path class="st0" d="M140.4,12c0.3,0.4,0.6,0.7,0.9,1.1C141.1,12.7,140.8,12.3,140.4,12z"/>
	<path class="st0" d="M141.5,12.2c0.3,0.2,0.5,0.4,0.7,0.6C142.5,12.6,142.5,12.4,141.5,12.2z"/>
	<path class="st0" d="M140.3,11.7c-0.3-0.1-0.7-0.2-1.4-0.5c0.5,0.2,1,0.5,1.4,0.9C140.3,11.8,140.2,11.7,140.3,11.7z"/>
	<path class="st0" d="M193,116.9c-0.5,0.8-1.7-0.3-2.7-0.3c1.1-1.7,2.3-3.4,3.3-5.2c-1.3-0.6-1.2-2.1-1.1-3.5s0.1-2.8-1.2-3.1
		l0.4,1.8c-1.5-1.2-3.2-0.5-5,0.4l-0.6,0.3c0.1-1.7,0.1-3.4,0.1-5.1c0-24.6-10.1-48.1-28.1-65c0.1,0,0.1,0,0.2,0l0.6-0.7
		c-0.8-0.7-1.8-0.8-1.6-0.1c-0.7-0.6-1.4-1.3-2.1-1.9c2.2,0.1,4.6-4.5,5-7.9c-0.5,0.5-0.9,0.9-3.2,0.3c0.1,1.1,2.4,4.7,0.1,4.6
		c-1.3-0.6-1.7-1.1-1.8-1.6c0-0.6,0-1.2-0.2-1.9c-0.2,1.2-1.3,1.2-2.6,1.2c-1,0-2,0.3-2.7,0.9c-4.4-3.3-9.2-6.1-14.2-8.5
		c0.2-0.2,0.3-0.5,0.2-0.7l-1.5-0.4c-0.6-2.2,3.7-1,2.2-2.5c1.3-0.2,2.6-0.2,4-0.2c0.7,0.1,1.4,0.2,2,0.5c0.7,0.3,1.3,0.8,1.8,1.3
		l-0.7,2.4c0.3-0.7-1-2.3-2.1-2c0.8-0.2,1.4,1.1,2.1,2.2c0.3,0.5,0.7,0.9,1.2,1.2c0.6,0.3,1.3,0.1,1.8-0.3c-0.3-0.9-0.6-1.8-0.9-2.6
		c1.3,0,2.8-0.1,4.3,0c1.5,0,2.9,0.6,3.9,1.7c0.4-2.8-0.7-0.1-0.7-3.7c-0.3,2-1.8,0.9-3.2,0c-1.3-0.9-2.5-1.6-2.5,0.1
		c0-1.1-0.5-2.2-1.3-3c-1-0.9-1.7-2.1-2.1-3.4c-0.3,0.8,0.1,1.8-1.8,0.4c-0.2,0.2-0.5,0.3-0.8,0.4c0,0-0.1-0.1-0.1-0.1
		c0,0.1,0,0.1,0.1,0.1c-0.1,0.1-0.2,0.1,0,0.1c0.3,0.5,0.5,1.1,0.5,1.7c-1.1,0.5-2.3,0.5-3.5,0.2c-1.1-0.3-2.1-0.4-3.2-0.3
		c-1.1-0.9,0.9-0.6,0.6-1.7c-0.8,0.2-1.5,0.4-2.3,0.6c0.6-1.7-2.4-4.2,1.2-3.9l-2.8-1.2c-1.3-1.6-3.2-2.5-5.3-2.5
		c-1.3-0.8-4,0.9-2.5-0.1c-0.8,0-1.6-0.1-2.4-0.1l-2.4,0l0.1-0.5c-2.4-0.4-4.8-0.6-7.2-0.4c-2.7,0.2-5.3-0.6-7.5-2.1
		c-0.8,0.2-1.7,0.4-2.5,0.4c-1.1,0.1-2.2,0.1-3.3-0.2l-0.5-1.6c-1.3,0.1-2.7,0-3.9-0.3c-1.4-0.2-2.7-0.3-3.1,0.6
		c-0.6-1-1.6-1.6-2.7-1.7C88,0,87.4,0,86.8,0c-0.7,0.1-1.3,0.1-2,0.3c-1.3,0.3-2.7,0.6-3.9,1c-1.1,0.4-2.2,0.6-3.3,0.6l0.3,2
		c-1.2,0.2-2.4,0.5-3.6,1.1c-0.6,0.3-1.2,0.5-1.8,0.9S71.2,6.6,70.5,7l0.7,1.7c-1.3,1-2.9,1.4-4.6,1.3c-0.9,0.1-1.9,0.1-3,0.2
		c-1,0.1-2,0.4-2.9,0.8c0-0.7,1-1,1.9-0.8c-1.3-0.5-2.7-0.4-4,0.2c-1.2,0.6-2.2,1.4-3.1,2.4c-0.9,0.9-1.8,1.8-2.9,2.6
		c-1,0.7-2.2,1.1-3.4,1c-0.4,0.9-1.4,1.4-2.3,1.3c0.1-0.1,0.2-0.1,0.2-0.2c-0.1,0.1-0.3,0.1-0.4,0.2c-0.6,0-1.2-0.1-1.8,0
		c0.5,0.1,1.1,0.2,1.6,0.1c-1,0.7-1.8,1.5-2.5,2.4L42.4,19c-0.1,0.1-0.1,0.1-0.2,0.2c-1.5,0.1-0.3,1.3,1,2.2
		c-0.4,0.6-0.6,1.2-0.7,1.9c-1.3-1-1.8-0.3-2.4,0.4S39,25,37.4,24.1c0.2,0.9-0.9,2.1-1.8,3.5c-0.8,1.1-1.1,2.5-0.9,3.8
		c-1.3,0.6-2.5,1.2-2.7,2.8l-2.1-1.4L30,35l0.2,2.2c-2.3,0.2-3.5,0.2-3.6-2.4c-0.2,0.9-0.4,1.9-0.6,2.8c-0.1,0.5-0.3,1-0.5,1.5
		c-0.5,1.2-0.7,2.5-0.7,3.8l-1.1-1.2c-0.8,1.1-0.4,4-1.9,3.9c-1.3,0.3-2.4,1.1-3.3,2.1c-0.6,0.7-1.2,1.4-1.7,2.1
		c-0.6,0.8-1.1,1.6-1.7,2.5c-2.1,3.9-4.6,7.5-7.4,10.9c2.5,0.3,1.6,0.9,0.6,1.6S6,66.7,7.6,67.5c-1.2,0-2.2,0.8-2.6-0.7
		c-0.3,1.6-0.8,3.2-1.7,4.6c-0.8,1.3-0.7,2.9,0.2,4.2c-1.2,0.1-1.3-1.3-2.1-1.1C1.5,74.8,2,76,1.2,76.2s-0.7-0.8-1-1.6
		c-0.2,0.8-0.2,1.7,0,2.6c0.2,0.7,0.7,1.3,1.2,1.8c1.3,0.9,2.7,1.6,4.2,2c-1,0.8-1.5,1.5-1.5,2.2c0.1,0.9,0.6,1.7,1.4,2.3
		c-1.2,0.5-2.5,1.5-2.4-1l-0.6,1.8c-0.1,0.4-0.3,0.9-0.4,1.4C2,88,1.9,88.5,1.9,89c-0.3,2-0.2,3.8,1.1,4c-0.7,0.4-0.3,1.9-0.1,2.3
		c-0.2,1.5-0.4,2.4-0.4,3.2c-0.1,1.1-0.1,2.1,0,3.2l0.4-0.8c3.1,1.2,0.7,2.5,1.1,4.9l-0.3-0.1c-0.4,0.9-0.6,1.9-0.7,2.8
		c0,0.4,0.1,0.8,0.3,1.2c0.2,0.3,0.3,0.7,0.2,1.1c0,0.4-0.1,0.7-0.2,1.1c-0.1,0.5-0.3,1-0.5,1.8l1.9-0.5c2.1,0,1.6,1.2,0.9,2.9
		c-0.7,1.6-1.6,3.7-0.5,5.2l0.9-1.3c0.8,0.7-0.3,2.1-1.6,3.7s-2.9,3.3-2.9,4.2c-0.2,0.5-0.7-0.5-1.1-0.9c-1.1,5.3,2.6,0,4.2,3.2
		c-1.1,1-3.6,0.2-3.1,2.6c-0.3,0.7,1.3,2.1,2.8,3.7c0.8,0.7,1.5,1.6,2.1,2.5c0.2,0.4,0.4,0.9,0.5,1.4c0.1,0.5,0.1,1,0,1.5
		c0.7-1.1,1.4-2.1,2.8-1c0.7,1,0.4,3,0.6,4.8s0.7,3.4,2.7,3.5c0,0.3-0.2,0.6-0.5,0.8c0.9,0.6,1.9,1.8,3.1,2.8
		c0.9,0.9,2.1,1.6,3.5,1.7c-1,0.9-1.2,2.3-0.5,3.5c0.8,1.1,1.8,2.1,3,2.7c1.1,0.6,2,1.4,2.9,2.3c0.6,0.7,0.6,1.6-0.6,2.6
		c0.7,0.7,1.4,1.4,2.1,2.1l2.1,2l-0.6,0.3c0.8,1.2,2,2.1,3.3,2.5c1,0.2,2,0.3,3,0.1c0.4,0.9-0.5,0.9-0.8,1.1c1,1.7,2.3,3,3.9,4.1
		c1.8,0.7,3.6,1,5.5,0.8l-0.8,1.9c0.4-0.1,0.9,0.4,1.5,1s1.4,1.6,2.2,2.5c0.4,0.5,0.9,1,1.4,1.4c0.5,0.5,1.1,0.9,1.7,1.2
		c1.2,0.8,2.6,1.3,4,1.4c-0.2,0.3-0.6,0.5-0.9,0.5c3.2,0.4,5.9,3.2,8.6,5.1c2.7,1.9,5.3,2.9,7.5-0.2c1.4-0.1,2.9-0.4,4.3-0.6
		c-2.3-1-1.9-1.7-1.1-2.4s1.9-1.4,1.1-2.2c1,0.2,2,0.8,2.5,1.7c0.5,0.8,0.5,1.6-0.7,1.5l-0.3-0.5c-1.9,3.5,5.7,2.8,5.1,5.2
		c5,0.9,9.8,1.9,14.7,2.6l3.7,0.5c1.2,0.1,2.5,0.2,3.7,0.3c1.2,0.1,2.4,0.1,3.7,0.1c1.2,0,2.4,0,3.6-0.2c-0.5-0.9-0.9-1.9-1.4-2.8
		c1.1,0,2.2-0.1,3.3-0.2c0.9,0.6,1.5,2.1-0.9,2.3c0.7,0.8,1.7,0.3,2.4-0.5c0.6-0.6,1.1-1.3,1.3-2.1c2.4,0.2,2.1,1.1,1.4,2
		s-1.9,1.7-1.2,1.6l1.9-0.6l-0.5-0.3c0.7-0.7,1-1.4,1.5-2c0.3-0.3,0.6-0.5,0.9-0.7c0.5-0.3,1.1-0.4,1.6-0.5c1.9,0.2,1.3,1.6,2,1.5
		c0,0.2,0.3,0.2,1.1-0.2c1.4-0.3,2.8-0.6,4.2-0.9c-0.8-0.6-1.5-1.2-2.3-1.8c1.5-1.6,3.8-1,1.2-3c1.9,1.6,5.7,0.7,9.2-0.7
		c1.7-0.7,3.4-1.6,4.7-2.2c0.9-0.5,1.8-0.9,2.9-1c0.4-0.6,0.8-1.2,1.3-1.7c0.4-0.5,0.9-1,1.5-1.4c1.2-0.8,2.4-1.6,3.7-2.2
		c-0.9-0.1-1.5-0.9-1.4-1.8c0.1-0.6,0.5-1.2,1.1-1.4c1.1,2.5,2.4,2.4,4,1.8c1.6-1,3.6-1.3,5.4-0.8c-1.6-0.4-0.1-1.8,1.1-3.1
		s2.1-2.8-0.2-3.2c2-1.1,1.4,1.5,3.6,1.3c0.7-1.3,1.6-2.4,2.7-3.4c0.5-0.5,1.1-1,1.7-1.5s1.2-1,1.9-1.5s1.3-1,1.9-1.5
		s1.3-1.1,1.9-1.6c1.3-1.1,2.4-2.4,3.3-3.8c-0.5-0.5-2-0.3-2-2.1c1.7-0.2,3.3-0.5,5-0.7c0.2-0.7-0.4-1.5-0.7-2.2s-0.2-1.4,1.4-1.7
		c-0.7,0-1.7-0.1-1.4-1c1.2-1.1,2.4-2.4,3.3-3.7c0.5-0.7,1-1.4,1.4-2.1c0.4-0.7,0.8-1.4,1.2-2.2s0.7-1.5,1.1-2.2l0.9-2.3
		c0.3-0.8,0.6-1.6,0.9-2.3l0.8-2.4c0.6-1.6,1-3.2,1.6-4.8c0.6-1.6,1.1-3.2,1.7-4.7c1.3-3.3,2.9-6.4,4.9-9.3
		C192.8,119.5,192.8,118.3,193,116.9z M153.1,32.1c0.5,0.1,0.9,0.4,1.2,0.8c0.3,0.4,0.5,0.9,0.6,1.3c-0.9-0.7-1.8-1.5-2.7-2.2
		C152.6,32,152.8,32.1,153.1,32.1L153.1,32.1z M151.8,31.5C151.8,31.6,151.7,31.6,151.8,31.5l-0.2-0.1L151.8,31.5z M129.3,8.9
		c0,0-0.1,0-0.1,0.1C127.8,7.7,128.3,8.2,129.3,8.9L129.3,8.9z M108.9,12.2c0.8-0.7,1.7-1.3,2.6-1.7c1-0.5,2.1-0.8,3.3-1
		c1.8-0.1,2.1,0.6,2,1.1s-0.6,1.1-0.2,1c1.2,0.5,2.5,0.5,3.8,0.2c0.9-0.3,1.8-0.6,2.6-1.1c0.7-0.5,1.5-0.8,2.4-0.8
		c1.1,0.1,2.2,0.6,2.9,1.4c1.4,2.8-1.3,4.1-1.4,5.8c-1.2-0.1-2.3-0.6-3.1-1.4c-0.7-0.7-1.5-1.3-2.4-1.6l1.9,1.6
		c-1.2,0.5-2.7,0.4-3.7-0.4c0.2,0.3,0.4,0.6,0.7,0.8c-4.1-1.1-8.4-1.9-12.6-2.4C108.1,13.1,108.5,12.6,108.9,12.2L108.9,12.2z
		 M93.4,11.2c0,0.6,0.2,1.2,0.5,1.7c-0.9,0-1.8,0.1-2.7,0.1C91.7,12.3,92.5,11.7,93.4,11.2L93.4,11.2z M74.2,10.3
		c0.2,0.1,1.7,0.5,3.2,1.1c1.4,0.5,2.7,1.2,3.9,2.1c0.2,0.2,0.4,0.5,0.5,0.8c-1.1,0.2-2.2,0.4-3.2,0.6l-0.7-3l0.3,3.1
		C77,15.2,76,15.4,75,15.7C74.4,13.9,74.1,12.1,74.2,10.3L74.2,10.3z M58.8,16.7c0.7-0.9,1.5-1.8,2.3-2.6c-0.2,1.7-0.7,4.3-1.2,7
		c-1.5,0.7-3,1.4-4.4,2.2c-0.1-2.6,0.6-5.2,2.1-7.4L58.8,16.7z M34.8,31.4c0.1,0.2,0.2,0.5,0.3,0.7C34.8,31.8,34.4,31.8,34.8,31.4
		L34.8,31.4z M32.8,40.2c-0.5,0.5-1,1.1-1.6,1.7c-0.4-1.4-0.7-2.7-1-4.1C31,38.7,31.9,39.5,32.8,40.2L32.8,40.2z M6.9,82
		c0.5-0.4,1.3,0.2,2.2,1c-0.2-0.3-0.3-0.6-0.5-0.8c0.4-0.4,0.9-0.5,1.5-0.4c-0.1,0.6-0.3,1.2-0.4,1.8l-0.6-0.6
		c0.2,0.3,0.3,0.7,0.5,1c-0.1,0.3-0.1,0.5-0.2,0.8c-0.7,0.3-1.3,0.7-2,1.1C7.3,84.7,7.1,83.4,6.9,82L6.9,82z M120.3,196.4l-0.8-0.4
		C120.9,195.1,120.6,195.7,120.3,196.4L120.3,196.4z"/>
	<path class="st0" d="M149.9,16c0.1,0,0.2,0.1,0.2,0.1C150.1,16,150,16,149.9,16z"/>
	<path class="st0" d="M149.4,16.9c0.2-0.4,0.2-1,0.6-0.9c-0.6-0.2-1.3-0.4-2-0.6C148.6,15.6,149.1,16.2,149.4,16.9z"/>
	<path class="st0" d="M150.6,23.2c-0.7-0.3-1.4-0.5-2.2-0.5c-0.8,1.5,0.7,1.7,2,2.3c-0.1,0-0.2-0.1-0.2-0.1
		C151.1,24,151,23.5,150.6,23.2z"/>
	<path class="st0" d="M150.7,25.1c0.4,0.2,0.8,0.4,1.1,0.8C152.6,25.2,151.5,25.4,150.7,25.1z"/>
	<path class="st0" d="M136.7,11.5c0.5,0.7,1.3-1.7,1.4-0.9c0.8-0.8-0.6-0.7-1.7-0.4c-0.5,0.2-1,0.4-1,0.7S135.6,11.3,136.7,11.5z"/>
	<path class="st0" d="M146.4,27.8l0.7-2l-1.6,0.9L146.4,27.8z"/>
	<path class="st0" d="M137.5,20.9l1.8,1.5c0.1-0.3,0.5-0.4,0.9-0.3C138.9,21.4,137.8,20.4,137.5,20.9z"/>
	<path class="st0" d="M141.9,22.7c-0.5-0.3-1.1-0.5-1.8-0.6C140.7,22.5,141.3,22.7,141.9,22.7z"/>
	<path class="st0" d="M113.2,13.9c0.7-0.4,1.6-0.5,1.4-1.2l-2.5,0.1C111.6,13.5,112.2,14,113.2,13.9z"/>
	<path class="st0" d="M196.1,107.8c0.4-0.7,0.6-1.3,0.9-2l-1.4,1.3C195.7,107.3,195.9,107.6,196.1,107.8z"/>
	<path class="st0" d="M193.4,102.1c0.1,0.4,0.3,1.3-0.3,1.7l2.6-0.4L193.4,102.1z"/>
</g>
</svg>
