<svg xmlns="http://www.w3.org/2000/svg" width="812.836" height="25.699" fill="#62abd0" xmlns:v="https://vecta.io/nano"><path d="M812.836 22.482c-.18-.252.251-1.647-.949-1.524.049-.358-1.06 1.214.949 1.524zm-23.33-5.523l2.92 1.4-.35-.569zm-3.906 1.767l-1.489-1.913-.544.541c-3.3.846-8.261-1.915-10.014.463 2.826-.665 8.033.606 12.047.909zM765.555 22.9a3.174 3.174 0 0 1 .418-.235c-4.435-.51-1.689-.636-2.3.29a17.131 17.131 0 0 1 1.882-.055zm-8.409 1.365c-.849-.4 1.437-.521 1.975-1.067l-2.571-.826c-1.497.897-2.04 1.439.596 1.893zm-1.698-3.278l-1.332-.35c.744.663 1.1.579 1.332.35z"/><path d="M756.746 21.253c-.889-1.42-.927-.649-1.3-.266l2.824.738c-1.201-.498-1.758-1.176-1.524-.472zm3.846-1.553c2.581.823.718 1.147-.724 1.665 4.917.335 5.646-1.34.724-1.665zm15.608-4.243l-1.667-.8-1.927.7c-.119.743 2.761-.293 3.594.1zm-32.7 6.732l-1.9-.581c-.192.648-1.216 1.5-1.056 2 .128-.754 1.976-1.072 2.956-1.419z"/><path d="M738.758 20.741l2.839.867c.161-.558-.303-.971-2.839-.867zm13.999-2.767l5.564 1.849L753.656 18zm-24.32 5.095l2.868 1.769-1.61-1.171zM717 23.944a14.27 14.27 0 0 0 5.127 1.755c-1.26-.6 1.565-1.269.373-2.238a8.944 8.944 0 0 1-5.5.483z"/><path d="M717 23.944a16.765 16.765 0 0 0-2.523-1.091A8.487 8.487 0 0 0 717 23.944zm15.8-2.932l-1.117 1.422a3.094 3.094 0 0 0 2.234-1.444l-1.117.022z"/><path d="M730.389 21.092l2.413-.08.038-.047-2.451.127zm3.531-.102l.283-.007c-.11-.183-.175-.133-.283.007zm10.509-4.565c-3.366 1.212.114 2.062 1.782 2.862-2.511-1.197-.584-1.887-1.782-2.862zm-5.6 3.775c-.823-.4-.283-.943-.223-1.319l-3.016.326z"/><path d="M734.469 19.325l1.119-.12-1.477-.452zm-13.963.999a32.7 32.7 0 0 0-5.2.428 11.489 11.489 0 0 1 4.339.769c1.855.052 1.106-.751.861-1.197zm5.263.721c.088.034.2.05.288.082.037-.24-.11-.202-.288-.082zm-26-.297c-.025-.083-.04-.163-.058-.246l-.255.258z"/><path d="M720.512 20.325a22.66 22.66 0 0 1 3.1.246 3.5 3.5 0 0 0-2.811-.513c-.416-.068-.401.065-.289.267zm-8.212 1.081a18.2 18.2 0 0 0-2.246.783c.246.37 1.589-.331 2.246-.783zm13.226.094a1.7 1.7 0 0 1-.195-.063c-.178.221-.231.371.195.063z"/><path d="M725.77 21.046a12.634 12.634 0 0 0-2.158-.475 7.762 7.762 0 0 0 1.72.869 1.933 1.933 0 0 1 .438-.394zm-30.887-8.101l-3.462-.851c-.86 2.416 5.795 3.166 4.163 4.809 1.92-.7 1.207-1.843 5.155-1.164 2.515 1.194-3.056 2.158-4.1 2.877 2.982.78 2.982 1.311 3.072 1.887 2.525-2.427 4.425-6.764 1.525-7.753-2.944 1.414-6.354.2-6.582-1.124-.962.343.29.942.229 1.319z"/><path d="M705.809,20.564l-6.041.185c.14.438.565.928,2.606,1.572a12.413,12.413,0,0,1,4.243-1.79l-1.227-.163Z"/><path d="M706.619 20.525l5.818.786a.072.072 0 0 0 .022-.017 1.13 1.13 0 0 0-.07-.213c-.528-.17-1.945-.243-.263-.543a1.474 1.474 0 0 1 .263.543.367.367 0 0 1 .122.028c.281-.1.2 0-.052.185l.005.022h-.027a1.193 1.193 0 0 1-.133.09 28.993 28.993 0 0 1 3-.654 20.815 20.815 0 0 1-3.137-.38c4.2-.813-3.28-1.969 2.529-1.613-2.151-.622-1.072-1.722-4.672-1.822-1.8 1.554 1.143 2.163 2.1 3.6a26.937 26.937 0 0 0-5.505-.012zm34.521-6.853a.378.378 0 0 1 .186-.335c-.704.043-.563.163-.186.335z"/><path d="M736.085 17.68c-.409-.2 2.6-1.988 4.944-2.481l.411.2c2.6-.7.529-1.347-.3-1.727-.057.471 1.135.728-.057 1.159a2.711 2.711 0 0 1-2.151-.626 9.771 9.771 0 0 0-2.847 3.475zm-13.227-1.87l.125-.746-2.469 1.242 4.847.7c-.343-.574.251-1.494-2.503-1.196zm-26.114 5.041l2.8 2.14-.643-1.516zm-5.568.961l1.662.8-.233-1.319zM335.832 4.568l1.424.373a6.5 6.5 0 0 0-1.424-.373zm11.985.932l-.253-.648c-.42.027-.226.29.253.648zm186.63 15.856l-.636 1.444c-.252 1.483 2.066-.427 4.139-1.657a6.92 6.92 0 0 1-3.503.213zm-100.408-7.894l-1.4-1.382-.606.438 2.006.944zm-6.202-5.99l2.732-.932a11.833 11.833 0 0 0-2.732.932zM279.3 1.939l1.662 1.47c-.211-.721.938-1.462-1.662-1.47zm344.346 19.693a17.93 17.93 0 0 0 4.464-.872c-.569-1.2-2.31.04-4.464.872zM340.1 19.4c-.025.321.346.616 1.217.877.183-.36-.327-.635-1.217-.877z"/><path d="M623.645 21.633a16.876 16.876 0 0 1-4.224-.345l-.946.34a5.8 5.8 0 0 0 5.17.005zM76.315 4.779c.135-.073.313-.108.463-.173-.303-.033-.507-.022-.463.173zM19.737 19.3a22.905 22.905 0 0 1-2.443-.11 7.139 7.139 0 0 0 2.443.11zm653.493-3.79a.917.917 0 0 0 .533.7 1.159 1.159 0 0 1-.533-.7zm-68.173-2.87l.117-.005c.213-.223.281-.278-.117.005zm62.513 9.06a10.135 10.135 0 0 0 1.707-.43 10.665 10.665 0 0 0-1.707.43z"/><path d="M670.174 21.81l-1.167.14c1.187.25 1.335.101 1.167-.14zm-2.904.114c-.073-.05.037-.128.3-.228a12.05 12.05 0 0 1-2.163.15l1.863.078zM185.891 8.61a2.719 2.719 0 0 1 .288-.138c-1.042-.367-1.637-.463-.288.138zm317.251-2.349l.2-.05a1.63 1.63 0 0 0-.153-.07z"/><path d="M501.557 10.431l1.589-4.166c-1.552.377-2.709.6-4.752-1.2zM316.566 4.762c-4.42 1.905-8.581-.5-10.974-1.677-1.685.649 1.327 3.4-3.485 2.649-6.794-.884 1.289-3.3-2.794-3.833l-2.957 2.341c-5.208-1.793-9.1-.188-13.5.107a3.2 3.2 0 0 1-1.727-.683c-4.679 1.014-9.808-2.288-13.336-1.52.826.481-2.015 1.473-2.441 2.041l-6.366-1.449c2.816.614 2.693 1.961 3.209 3.268-1.99-.139-2.927-.878-4.281-1.051.827.475 1.661.962.609 1.562l-6.68-2.226a5.24 5.24 0 0 1 1.8-.375c-1.669-.015-5.281-.865-7.669.235.211.518 1.037 1 1.237 1.525 2.006-1.478 3.145-.218 4.186.788-4.609-.227-1.149.346-3.367 1.3-3.251-.05-4.585-1.834-3.731-2.966-3.671.513-4.84.864-8.588-.493l.711 1.828-3.445-.576 2.794 2.228c-6.611 1.248-1.216-3.131-8.557-2.1l-.02 1.607c-2.824-.616-3.793-3.325-5.986-1.4-2.742-.975 4.689-2.272-1.753-2.6a15.586 15.586 0 0 1-5.431 1.76c-2.058-.731 1.567-1.9 2.884-1.68-9.724-.759-6.035 5.49-14.718 3.375 2.977-1.157-2.485-3.1 4.557-3.057-3.363-.951-6.622 2.325-10.122.578l2.283 2.048a9.381 9.381 0 0 1-3.367-.954l.286 1.58c-4.327-2.774-8.058 1.317-10.627-2.316 1.79 2.857-3.23-.167-4.95.947 3.563 2.012 10.218-.053 10.691 2.586-1.66.8-3.144-.5-4.744.281a9.577 9.577 0 0 1 3.175 1.622c-5.478 1.5-8.6-1.589-11.922-2.278l5.866.609c-.473-2.636-2.639-.45-4.286-2.518-2.935 1.416-5.231-.635-7.624.236.635-.015.68.245 1.314.228-6.393-.064-8.173 4.231-10.716 4.308-2.5.343-7.228-1.1-5.515-2.211-2.047-.731 8.495.787 4.84-2.631-3.652 3.951-7.51-1.476-15.467 1.224 3.483 1.4-2.046 2.223 1.064 3.284-3.793-.321-3.935-.909-5.623-2.026l-1.142 1.234C135.205 6.756 139 7.072 131.5 5.6c2.514.964-3.01 1.786-1.094 2.657a12.1 12.1 0 0 1-5.626-1.031l.276.178c-7.594-.638-6.217 1.557-13.134.18l.688-.744c-9.061-2.011-20.51-.716-29.881-1.64l3.3-.608c-1 .382-6.315-1.18-9.236-.018a9.65 9.65 0 0 0 2.138.306c-.085.835-1.221 2.069-3.472 2.279l-.869-1.272-.911.987c-3.433.027 1.009-1.82-2.426-1.8-2 3.652-14.786.49-17.748 3.7-2.334-2.637 6.5-.381 3.938-2.772A9.667 9.667 0 0 1 53.7 7.1l.768-1.577c-10.386.9-14.352 2.244-23.6 1.911l.371.338c-3.291.613-5.068.328-6.54-1.039-.684.741 1.69 1.117.408 1.768-5.8-4.046-11.593 2.966-15.13.14.463 3.19-7.118 6.229-3.958 8.715l-2.381-.376c.783 2.1 7.46.054 8.825 2.254l7.5-2.2c-.236.793.992 1.969-.208 2.24 1.853.043 3.47.154 1.044 1.29 17.916-5.364 36.327-.172 53.97-3.026 1.194.188.508.931.048 1.424 3.251-2.033 3.109 1.061 4.889 1.349l4.754-2.929c1.931.871.424 1.767.564 2.353 9.006.583 17.778-2.267 25.064-.539 2.322-1.051-.552-2.36 2.508-2.721-4.158 3.022 8.921 1.418 6.272 3.548 2.965-3.211 11.024-.685 9.684-5.147 3.668-.263 3.035 1.9 1.978 2.3 4.253-.17 7.686-.193 11.166 1.207 2.333-1.042 19.433 1.11 23.233-2.248-2.586 2.178.2 1.129 2.684 2.078l-2.241 1.923 5.6-.208c1.141.183 1.462.1 1.457-.07.949-.1-.226-1.112 2.188-1.6 3.817-.12 4 .936 6.1 1.93l-.583.285 2.588.183c1.905-.059-6.735-1.913-.521-2.9.089.531 3.743 3.067 5.411 1.687-3.172.107-2.774-1.232-1.607-1.8l4.449-.14-1.469 2.436c12.749-.133 26.018-1.868 39.63-1.713-.19-2.134 9.639-.111 8.41-3.245l-.523.3c-3.343-.308.971-2.474 3.69-2.121-2.846 1 5.1 3.139-1.815 3.607l5.348 1.48c2.967 6.013 14.267-.5 22.367 1.434a1.233 1.233 0 0 1-.791-.741c7.2 1.926 16.148-1.622 17.818-.663l.639-1.65c6.156 2.534 6.887 2.751 14.23 1.725-.1-.266-.944-.741.218-1.087 1.768 1.218 3.543 2.436 8.568 2.1l-.2-.52 7.861.273c-.056-5.088 13.472 3.112 15.835-2.406 1.539 1.486 7.29 1.954 9.846 2.662.014-.216.175-.445.6-.681 3.019 2.741 8.715-.857 12.06-.546 2.181.653 1.237 1.522.288 2.391 4.31-2.165 11.9 2.412 13.48 1.5 3.162-.209 1.179-1.951 2.045-3.08 4.7.486-.787 4.605 5.513 2.579-.732-.22-2.085-.4-1.56-.7 2.408-.429 6.708-6.277 9.108-5.1l-1.585.911c4.389 1.314 10.389-4.148 11.089-.711l-.411 1.6c7.563-2.114 3.207.626 10.873-1.227l-.095-.263c3.342.31 5.152-1.687 6.79.881l-1.151.348a78.211 78.211 0 0 0 8.742-.117c.5.246 2.538.627 3.127.088.189 2.128 9.806.982 11.689.854-3.345-.311-1.762-1.221-.811-2.088 1.97 1.74 3.332 1.918 6.061.661.39 2.656.936 5.485 6.319 5.64-.834-.4-2.153-.621-1.6-1.171s1.8.05 2.223.25c.536-.544-1.191-.969-.591-1.891 3.638 2.537 6.285.182 11.557 1.082-1.672-.8-.232-1.318.368-2.235.41 3.009 7.21-2.612 5.21 1.269 10.328-2.33 26.213-.17 30.236-2.676 1.084-1.089 3.958.676 5.758.728l-.245-1.319c5.032 2.391 3.916.887 9.832 3.3-2.449-1.568-1.427-2.291 1.041-3.533l4.063 2.742.789-2.04c1.668.8 3.526.476 5.388.153-.9-.024-.41-.2-.353-.568.889 2.833 8.154 2.5 9.278 3.845 1.817-2.76 4.864.7 6.194-1.888a9.21 9.21 0 0 0 2.206.967c-.872 1.206-1.194 2.558.443 1.965.141.029.251.025.386.047l.711-1.6a25.282 25.282 0 0 0 4.494.589 7.358 7.358 0 0 0-1.7.8c.721-.244 1.378-.542 2.021-.8a5.465 5.465 0 0 0 .6-.017.911.911 0 0 0-.363-.078 4.645 4.645 0 0 1 3.53-.018c5.841-2.454 12.989 3.372 19.428 0-.967.344-2.334.494-2.7-.077 5.389.153 10.743-2.135 14.151-.909l-.243 1.494a50.635 50.635 0 0 0 10.19 1.061l.175 1.69c4.625-.618 14.556 2.105 17.393-1.377 1.13 1.347 6.4-.4 9.03.053l.668-1.294a21.768 21.768 0 0 1 7.593.415c6.959-2.7 13.4-.035 19.485-.223l.057-.375 6.167.927c-1.615-1.17 1.215.808 3.07.485a13.222 13.222 0 0 0 7.465-.543l3.933-.067c-4.369-.878.31-1.862.558-3.362l2.511 1.2c1.012-.719-1.617-1.17.236-1.49 1.678.8 6.648.755 8.2 2.3a3.522 3.522 0 0 1-1.592 1.026c-.213-.095-.2-.073-.065.027-.063.025-.11.053-.173.08.083-.022.116-.032.211-.05a3.293 3.293 0 0 1 .686.593c3.125-.331 1.978.283 1.868.956 3.549-2.334 5.533-.758 8.249-3.5-3.685 3.084 8.133.025 5.839 2.961 2.641-2.359 1.8-.112 3.5-2.128-3.723.645-7.423-1.523-10.423-2.549l2.944-1.415c-1.918-2.672-6.608 1-8.36.09 1.181.623 3.836.006 3.928-.594l-.789 2.043c-4.2.816-7.548-.779-10.533-1.793 2.818-.672-3.415-1.228-1.37-2.672l2.225.251c1.021-.721-1.135-1.341-2.384-1.941-7.028 1.483-19.912.185-22.428 1.793a8.71 8.71 0 0 1 5.333.528l-3.3.848c2.679.071 4.794-1.744 8.747-1.066-.665 1.292 2.2 3.064-.8 4.854-7.568 2.028-6.219-3.37-15.332-2.879-.846-.4 1.906 2.115-2.946 1.415-6.106-1.3-10.58-4.241-10.567-7.052 2.571.823 7.709 2.469 8.5.433-2.565-.824-7-1.325-7.226-2.644-2.657 2.358 4.846.7 1.359 2.664a6.7 6.7 0 0 1-3.413-1.227c1.2.977-1.618 1.644-2.156 2.193-5.841.019-9.2 1.054-15.467 1.254-.333.345-1.021 1.1-.841 1.672-3.06-.646-7.424-4.171-6.282-5.638-3.59-.1-3.782 1.015-6.837.366 4.877-2.109-.956.352-1.477-1.918-3.123-.277-1.09 1.095-2.529 1.618-.518-.243-1.764-1-1.847-1.608-1.918 1.72 3.72 4.494 1.465 6.494-1.564 1.257-8.271 3.527-8.752 3.7-1.488-1.918-1.05-9.822 1.181-12.376-.237-1.326-2.954 1.415-4.323 1.558-3.968 2.136-6.053-1.674-9.353-.831l2.514 1.2c-.544.546-5.4-.155-6.172-.926-.123.746 2.515 3.841 1.006 4.732-5.929.395-11.552-3.726-11.184-5.959l9.088 2.319c.321-1.865-6.45-1.87-6.079-4.111l-8.367.664c1.057.059 4.285.591 3.015 1.618-3.594-.1-1.863.326-4.263 1.194a86.053 86.053 0 0 1 14.358 11.322l-4.319-1.249-1.079 1.1c-5.63-1.474-10.711-8.782-12.2-10.7-3.232.472-2.1 4.458-1.332 5.232-6.366.2-6.286-5.636-12.7-5.07l2.408-.867c-1.514-.368-7.015.434-6.424-.3-1.272 1.059-2.44 3.559-1.021 4.233l-5.68-3.745c.834.4.287 3.592.643 4.163-2.281.122-3.887-3.693-2.443-4.214-4.453 2.309-3.349 1.049-6.962 3.758-1.316-.223.122-3.394 1.084-3.74a10.5 10.5 0 0 0-6.136-.108c4.918 1.373 1.34 7.167 2.271 9.6l-10.582-9.526a16.571 16.571 0 0 1 1.136 3.988c-.885-2.834-13.008-3.2-18.939-2.809l.891.023c1.2.975-3.9 1.763-5.988.769.352.568.835.4 1.727.425-3.961 2.133-5.142-4.3-9.178-1.785 3.658-.27 4.377.874 4.191 2-3-1.024-9.947.09-8.492-3.245-1.927.7-3.657.275-3.492 1.963l-7.37-1.986c.549.343 1.022 1.327-1.134 1.555 4.132-.442 8.132 2.67 10.308.485.108 2.063-1.445 3.167.533 4.907-7.974-.979-12.345-4.5-17.368-6.888l-7.02 1.485-.3-.942-1.221 2.374c-.877-.543-1.437-1.016-1.62-.791-.16.214.062.528.408.878a4.707 4.707 0 0 1-1.76-.574c-.275 1.248.964 2.675 2.289 3.975.633-.446 1.28-.895 1.933-1.315 1.377 1.191 2.371 2.421.451 3.207-.269-.16-.617-.335-.982-.51.879.889 1.42 1.62.771 1.97l-5.367-1.142a28.17 28.17 0 0 0 2.588-1.772c-3.367-1.554-7.207-3.447-4.2-5.047l-4.091 1.4c-4.8-2.353-3.966-1.875-9.814-3.623-.32.825 1.237 1.53.186 2.13-4.261-2.664-10.4 3.11-11.329.764-3.444-.577-1.435-2.048-3.625-2.707.105.263.31.786-.326.826l-2.6-1.7c-1.052.611 2.393 1.178-.539 1.911-5.011-1.273-7.954-2.144-12.143-1.33-5.961-.4 2.554-3.385-2.483-3.047-.739 1.39-1.394 3.042-4.539 3.252-1.661-.959-1.437-2.045-4.261-2.659l.178 2.13c-2.615-.092-4.695-.486-4.715 1.122a6.483 6.483 0 0 0-4.724-.406c-3.96-1.127 2.914-4.322 3.84-5.158-3.9 1.6-6.587.671-8.808 3.237l3.447.573c-7.354 2.637-6.975-3.016-10.383 1.5 2.52-.168 5.546.969 4.059 2.141l-3.65-1.1c-.428.563 2.086.395.411 1.044a28.109 28.109 0 0 1-4.111-2.279l.048.133-6.59-.36c1.251-.087 1.557.7.3.786l-4.321-1.119c1.322.54-.03 1.194-1.97 1.54-5.564.644-4.454-4.792-8.773-2.626.629-.044.731.222 1.367.177l-2.221.952C325.191.463 312.573 4.522 312.1 0c-3.162 1.825-.22 1.089 3.846 3.225l-3.37 1.3c1.365.175 2.512-.172 3.99.237zm46.35.8c-1.666.531-2.523 1.414-3.633-.428.712-.949 2.657.092 3.633.428zm76.528 3.87a6.427 6.427 0 0 1-3.112.34c1.265-.608 2.388-.873 3.112-.34zm213.085 11.107a.494.494 0 0 0 .1.077c-1.508.301-2.279.549-.1-.077zm4.621-.619c-1.352-.361-1.936-.07-2.259.346 1.156-.114 2.17-.085 2.486.321.192-.225.224-.448-.231-.671zm-485.238-.633c-.549-.466-1.105-.884.881-.425l-.881.421z"/><path d="M430.349 8.106a1.566 1.566 0 0 1 .418-.874c-.809.291-.8.604-.418.874zM280.958 3.408a.683.683 0 0 0 .153.29c.053-.01.1 0 .153-.017zM585.36 7.127a4.083 4.083 0 0 1 1.795-.829c-1.422.102-1.845.436-1.795.829zm95.44 14.578a5.007 5.007 0 0 1-2.607.526l2.9.418c-.907-.025-.354-.569-.293-.944zm26.614-8.029l.117-.748c-.415-.2-.892-.021-1.315-.221-1.866.318-.606.919 1.198.969zm-19.93 2.992a2.164 2.164 0 0 1 .36 0c-2.028-.25-3.843-.707-4.073.643 2.148.622 4.311 1.249 3.713-.643zm2.704.08a9.181 9.181 0 0 1-1.875-.033c1.114.191 2.111.791 1.875.033zm-26.161 5.244c-.549.551-.187-1.525-1.149-1.177-5.261-.904 2.222 2.897 1.149 1.177zm19.521-8.81l1.137 1.345.727-1.668zm-10.037 1.007c-.5-.124-.915-.289-.867-.569l-3.239.463c-.077.495 2.111.162 4.106.106z"/><path d="M676.119 14.466a6.471 6.471 0 0 0-2.608-.276 14.639 14.639 0 0 0 2.608.276zm1.62-1.638l2.288-.122.958-.348zm-44.776.405c-1.318-.228-2.279.121-1.918.694l3.535.478c.541-.553-.77-.774-1.617-1.172zm10.646-4.198l.108 2.07c.54-.551.6-.923 1.559-1.269zm-9.297-1.197c-4.483-.13.3.943.649 1.517 3.25-.473-.291-.955-.649-1.517zm-51.853 7.545l.129-3.392-.9-.026zm-45.031-8.929c-1.008-.692 3.07-.72 2.086-1.52-3.786 1.014-.591-1.892-4.78-1.079-1.163 2.231.166 1.753 2.694 2.599z"/><path d="M538.72 6.97a10.5 10.5 0 0 0-1.292-.515 4.737 4.737 0 0 0 1.292.515zM6.469 20.573l-1.739 1.14 2.694-.707zM0 18.7l1.618 1.956.634-2.161C1.789 18.979.6 18.792 0 18.7zM368.289 2.421c1.264-.093 1.9-.13 2.311-.693l-.2-.521zm-34.975 2.315l1.176-1.954-.629.044zM307.17.6c-1.258.084-2.728-.353-3.98-.271-.333 2.442 1.257-.077 3.98.271z"/></svg>