<?xml version="1.0" encoding="utf-8"?>
<!-- Generator: Adobe Illustrator 25.4.1, SVG Export Plug-In . SVG Version: 6.00 Build 0)  -->
<svg version="1.1" id="Layer_1" xmlns:v="https://vecta.io/nano"
	 xmlns="http://www.w3.org/2000/svg" xmlns:xlink="http://www.w3.org/1999/xlink" x="0px" y="0px" viewBox="0 0 198 199.7"
	 style="enable-background:new 0 0 198 199.7;" xml:space="preserve">
<style type="text/css">
	.st0{fill:#62ABD0;}
</style>
<g>
	<g>
		<path class="st0" d="M188.2,67.8c0-0.1,0.1-0.3,0.1-0.4c-0.2-0.5-0.4-0.8-0.5-1.3C187.1,66.8,186.4,65,188.2,67.8z"/>
		<polygon class="st0" points="188.3,86.8 186.4,85.2 187.6,86.7 		"/>
		<path class="st0" d="M192.3,99.9c-0.1,0.8,1.5,0.5,1.8,0.6C193.6,99.2,191.9,100,192.3,99.9z"/>
		<path class="st0" d="M181.9,74.7l-0.4,1.5l1.2,0.8c-0.3-0.2-0.3-0.8-0.3-1.4C182.4,75.1,182.3,74.5,181.9,74.7z"/>
		<path class="st0" d="M173,40.4c1.4,0,0.6-2.1,1.8-1.8c-1.2-0.8-2.5-1.4-4-1.6C171.9,37.8,172.8,39,173,40.4z"/>
		<path class="st0" d="M168.5,36.6c0.7,0.3,1.4,0.4,2.1,0.5C170,36.8,169.2,36.6,168.5,36.6z"/>
		<path class="st0" d="M165.7,34.9c0.1,0.5,0.3,1.2,0.6,1.7C166.4,35.9,166.2,34.7,165.7,34.9z"/>
		<path class="st0" d="M49.7,24.3c0.6-0.6,1.4-1,2.2-1.1c-1.9-0.4-4.6-1.3-3.5,0L49.7,24.3z"/>
		<polygon class="st0" points="156.6,26.5 155.1,26.5 155.6,27.6 		"/>
		<path class="st0" d="M113.4,10.9c-0.9-0.6-1.9-1.1-3.1-1.4C111.8,10.7,112.8,12.2,113.4,10.9z"/>
		<path class="st0" d="M140.6,18l0.8,1C141.2,18.6,140.9,18.3,140.6,18z"/>
		<path class="st0" d="M189.5,112.5c0,0.5,0,1.1-0.1,1.6C189.6,113.6,189.6,113,189.5,112.5z"/>
		<path class="st0" d="M20.5,144c0.6,0.4,1,0.5,1.3,0.3C21.3,143.9,20.8,143.7,20.5,144z"/>
		<path class="st0" d="M140.5,17.7c-0.3-0.1-0.6-0.2-1.3-0.5c0.5,0.2,0.9,0.5,1.3,0.8C140.5,17.8,140.4,17.7,140.5,17.7z"/>
		<path class="st0" d="M149.6,21.8c0-0.1-0.1-0.1-0.2-0.1C149.5,21.7,149.6,21.8,149.6,21.8z"/>
		<path class="st0" d="M141.6,18.9L141.6,18.9C141.5,18.9,141.5,18.9,141.6,18.9z"/>
		<path class="st0" d="M137.1,17.5c0.5,0.6,1.2-1.6,1.3-0.8c0.7-0.7-0.6-0.6-1.6-0.4c-0.5,0.2-0.9,0.4-0.9,0.6
			C135.9,17.3,136.1,17.4,137.1,17.5z"/>
		<path class="st0" d="M193.9,99.6c0-0.3-0.1-0.7-0.1-1.4c0,0.5,0,1-0.2,1.5C193.8,99.6,193.9,99.5,193.9,99.6z"/>
		<path class="st0" d="M192.1,110.3c0.2-1.4,0.4-2.7-1.1-2c0.9-0.4,1.6-1.3,2-2.3c0.4-1.2,1.1-2.2,2-3.1c-0.8,0.1-1.5,0.8-1-1.3
			c-0.2-0.1-0.4-0.3-0.7-0.5c-0.1,0-0.2-0.1-0.1,0c-0.3,0.4-0.7,0.8-1.2,1.1c-0.2-0.1-0.3-0.3-0.4-0.4l0.3,0c0,0-0.4-0.2-0.6-0.3
			c-0.4-0.6-0.7-1.3-0.8-2c-0.2-1-0.5-1.9-1-2.8c0.3-1.3,0.9,0.5,1.7-0.2l-1.4-1.7c1.7-0.2,2.6-3.6,3.7-0.5l-0.1-2.8
			c0.8-1.7,0.8-3.6,0-5.4c0.2-1.4-2.3-3-0.9-2.1c-0.3-0.7-0.6-1.4-0.9-2l-1-2l0.5-0.1c-0.6-2.1-1.4-4.2-2.5-6.1
			c-1.2-2.2-1.6-4.6-1.2-7c-0.5-0.6-1-1.3-1.3-1.9c-0.5-0.9-1-1.8-1.1-2.8l0.4-0.3l1.6,1.3c0.5-0.5-0.1-2.1,0.6-1.7
			c-0.8-1-1.3-1.1-1.6-0.7c-0.5-0.9-0.9-1.9-1-2.9c-0.4-1.2-0.8-2.4-1.7-2.3c0.6-0.9,0.7-2,0.4-2.9l-0.8-1.7c-0.4-0.5-0.6-1-1-1.5
			c-0.8-1-1.6-2-2.4-2.8c-0.6-0.5-1-1.2-1.4-1.8c0.2,0,0.3,0,0.5,0.1h0l-0.5-0.1c-0.1-0.2-0.3-0.4-0.4-0.7l-0.8,0.5l-1.3-0.2
			l1.1,0.3c0,0,0,0,0,0l-0.7,0.5c-0.6-0.9-1.4-1.8-2.3-2.6c-0.5-0.4-0.9-0.8-1.5-1.1s-1.1-0.8-1.7-1.2l-0.3,0.3
			c-0.6-0.1-1-0.4-1.5-0.6c-0.5-0.3-0.8-0.6-1.3-1c0.5,0.8,1,1.6,1.5,2.3c-1.1-0.7-2-1.8-2.5-3c0-0.1-0.1-0.1-0.1-0.2
			c0.4,0.3,0.9,0.6,1.3,0.9c-0.4-0.6-0.6-1.4-0.9-2v0.2c0,0.3-0.1,0.4-0.1,0.2h-0.1c-0.2,0.1-0.3,0.1-0.5,0.2
			c-0.1-0.2-0.2-0.4-0.3-0.6c0.1-0.1,0.5,0.2,0.7,0.3c0.1,0,0.2-0.1,0.2-0.1c-0.4-0.3-0.8-0.5-1.2-0.8c-0.1-0.2-0.2-0.3-0.3-0.5
			c-0.5-0.8-1.1-1.5-1.8-2.1c0.6-0.3,1.2,0.4,1.4,1.3c-0.1-1.3-0.7-2.4-1.8-3.2c-0.9-0.7-1.8-1.2-2.9-1.5l1-0.7l-1.9,0.4
			c-0.9-0.3-1.8-0.7-2.8-1.2c-1-0.6-1.8-1.4-2.2-2.4c-0.5,0-0.9-0.1-1.2-0.4c-0.1-0.3-0.2-0.7-0.2-1.6c-0.1,0.5-0.2,0.8-0.5,0.9
			c-0.1-0.1-0.1-0.2-0.1-0.3c0.1,0,0.2,0.1,0.2,0.1c-0.1,0-0.2-0.2-0.3-0.3c-0.2-0.5-0.4-1-0.7-1.5c0.1,0.5,0.3,1,0.6,1.4
			c-1-0.6-2-0.9-3-1.1l0.2-0.9c0,0.1,0.1,0.2,0.1,0.2c0.2-0.4,0.2-0.9,0.6-0.8l-0.5-0.2l0-0.2l-0.2-0.1c-0.4-0.6-0.7-0.5-0.9-0.1
			l-0.2-0.1c0.1,0,0.1,0.1,0.2,0.1c-0.2,0.4-0.4,1.1-0.5,1.7c-0.1,0-0.2,0-0.3,0c-0.2-0.6-0.5-1.2-1-1.6c-0.9-0.8-1.6-1.9-1.9-3.1
			c-0.3,0.7,0.1,1.6-1.6,0.4c0.1-0.1-0.1-0.3-0.8-0.4c0.2,0.2,0.4,0.3,0.6,0.5c-0.2,0.1-0.4,0.2-0.6,0.3c-0.1,0.1-0.2,0.1,0,0.1
			c0.1,0.1,0.2,0.3,0.2,0.4c-0.7,0-1.7-0.2-2.7-0.4c-0.9-0.2-1.9,0-2.7,0.3c0.1-0.1,0.1-0.3,0.1-0.5l-1.5,0.4
			c-0.2-0.1-0.4-0.3-0.5-0.4c0-1.5-1.9-3.3,1-3.1l-2.6-1.1c-1.2-1.5-3-2.3-4.9-2.3c-1.2-0.7-3.7,0.8-2.3-0.1c-0.7,0-1.5-0.1-2.2-0.1
			h-2.2l0.1-0.5c-2.2-0.4-4.5-0.5-6.7-0.4c-2.4,0.2-4.8-0.5-6.8-1.8c0.9-0.2,1.8-0.2,2.7-0.1c-1-1-2.6-1.1-3.7-0.3
			c0.1,0.1,0.3,0.2,0.5,0.4c-0.7,0.2-1.4,0.3-2,0.3c-1,0.1-2,0.1-3.1-0.2l-0.5-1.5c-1.2,0.1-2.5,0-3.6-0.3c-1.3-0.2-2.5-0.3-2.9,0.5
			c-0.6-0.9-1.5-1.5-2.5-1.6h-1.9c-0.6,0.1-1.2,0.1-1.9,0.3c-1.2,0.3-2.5,0.5-3.6,0.9c-1,0.4-2,0.5-3.1,0.5l0.3,1.7
			c0,0,0,0.1-0.1,0.1c-1.1,0.2-2.2,0.5-3.3,1c-0.6,0.3-1.1,0.5-1.7,0.8c-0.6,0.4-1.2,0.6-1.9,1l0.5,1.3c-0.3,0-0.6,0.1-0.9,0.2
			c-0.4,0.1-0.8,0.2-1.2,0.3c-0.9,0.3-1.7,0.6-2.2,1c-0.8,0.1-1.7,0.1-2.7,0.2c-0.9,0.1-1.9,0.4-2.7,0.7c0-0.6,0.9-0.9,1.8-0.7
			c-1.2-0.5-2.5-0.4-3.7,0.2c-1.1,0.5-2,1.3-2.9,2.2c-0.8,0.8-1.7,1.6-2.7,2.4c-0.9,0.6-2,1-3.2,0.9c-0.4,0.8-1.3,1.3-2.1,1.2
			c0.1-0.1,0.2-0.1,0.2-0.2c-0.1,0.1-0.3,0.1-0.4,0.2c-0.6,0-1.1-0.1-1.7,0c0.5,0.1,1,0.2,1.5,0.1c-0.9,0.6-1.7,1.4-2.3,2.2
			l-1.5-1.1l-0.2,0.2c-1.4,0.1-0.3,1.2,0.9,2c-0.4,0.5-0.6,1.1-0.6,1.7c-1.2-0.9-1.7-0.3-2.2,0.4c-0.6,0.6-1,1.2-2.5,0.4
			c0.1,0.4-0.1,0.9-0.4,1.4c-1.4-0.3-2.6-0.6-3.2-0.4c-0.5,0,0.1-0.8,0.3-1.3c-4.9,1.2,1,2.2-1,4.7c-1.3-0.5-1.6-2.9-3.4-1.6
			c-0.7,0-1.2,1.9-2,3.8c-0.3,0.9-0.7,1.9-1.3,2.7c-0.3,0.3-0.6,0.7-1,1c-0.4,0.3-0.8,0.5-1.3,0.6c1.2,0.1,2.3,0.3,1.9,1.9
			c-0.6,1-2.4,1.5-3.8,2.4c-1.4,0.9-2.6,1.9-1.9,3.6c-0.3,0.1-0.6,0.1-0.9-0.1c-0.1,1-0.8,2.3-1.1,3.7c-0.1,0.4-0.2,0.8-0.3,1.2
			c-0.5,0.7-1,1.4-1.5,2.2c0,0,0,0.1-0.1,0.1c-0.5,0.2-1,0.5-1.3,1c-0.5,0.9-0.8,1.8-1,2.8c-1.4,2.1-2.9,4.1-4.5,6.1
			c0.3,0,0.5,0.1,0.6,0.1l-0.4,1l-0.3,0.8c-0.6,0.5-1.1,1.1-0.7,1.7l-0.4-0.3c-0.2,0.3-0.3,0.6-0.4,0.9c-0.5,0-0.8-0.1-1-0.8
			c-0.3,1.5-0.7,2.9-1.6,4.2c-0.7,1.2-0.6,2.7,0.2,3.8c-1.1,0.1-1.2-1.2-1.9-1c0.1,0.3,0.6,1.4-0.2,1.6c-0.7,0.2-0.6-0.7-0.9-1.5
			c-0.2,0.7-0.2,1.6,0,2.4c0.2,0.6,0.6,1.2,1.1,1.6c0.7,0.5,1.5,0.9,2.2,1.2c0.1,0.6,0.3,1.2,0.5,1.8c-0.2,0.3-0.3,0.6-0.3,0.8
			c0,0.2,0.1,0.4,0.2,0.6l-1.1,0c0.2,0.2,0.1,0.5,0,0.9c0-0.1,0-0.3,0-0.4l-0.6,1.6c-0.1,0.2-0.1,0.5-0.2,0.8
			c-0.2,0.5-0.5,1-0.7,1.5c-0.3,0.5-0.5,1.1-0.6,1.7c-0.2,0.6-0.3,1.2-0.3,1.9c-0.2,1.3-0.1,2.7,0.4,3.9c-0.3,0-0.7-0.3-0.8-0.5
			c0.9,2.8-0.3,6.1-0.9,9.1c-0.5,3-0.3,5.5,3.1,6.1c0.1,0.2,0.2,0.3,0.3,0.5c0,0.1,0,0.1-0.1,0.2l0.2,0c0.6,0.9,1.2,1.8,1.8,2.7
			c-0.1-1.9,0.5-2.2,1.2-2c-0.1,0.4-0.3,1-0.5,1.6c-0.6,1.5-1.5,3.4-0.5,4.8l0.4-0.5c0,0.4,0.1,0.9,0.1,1.3
			c-0.3,0.5-0.7,0.9-1.1,1.5c-1.2,1.5-2.7,3-2.7,3.8c-0.2,0.5-0.6-0.5-1-0.8c-1,4.9,2.4,0,3.9,2.9c-1,0.9-3.3,0.2-2.9,2.4
			c-0.3,0.6,1.2,1.9,2.6,3.4c0.7,0.6,1.4,1.5,1.9,2.3c0.2,0.4,0.4,0.8,0.5,1.3c0.1,0.5,0.1,0.9,0,1.4c0.6-0.9,1.2-1.8,2.4-1.1
			l0.3,1.1l0.3,0.8c0,0.8,0,1.7,0.1,2.6c0.2,1.6,0.6,3,2.3,3.2c0,0.1,0.1,0.2,0.1,0.3c-0.1,0.2-0.2,0.4-0.4,0.5
			c0.4,0.3,0.8,0.6,1.2,1.1c0.1,0.2,0.3,0.5,0.5,0.7c0-0.1,0.1-0.1,0.1-0.2c0.3,0.3,0.5,0.5,0.8,0.8c-0.3,0.9,0.5,1.5,1.4,1.7
			c0.6,0.2,1.2,0.3,1.7,0.3c-0.4,0.5-0.6,1.2-0.5,1.9c0,0-0.1,0-0.1,0c-1-0.2-2.2-0.9-1.8-0.4l1.3,1.3l0.1-0.5
			c0.3,0.1,0.5,0.2,0.8,0.2c0,0.1,0.1,0.2,0.2,0.3c0.7,1,1.7,1.9,2.8,2.5c0.2,0.1,0.4,0.2,0.6,0.3c-0.2,0.5-0.7,0.6-0.5,0.9
			c-0.2,0.1,0,0.3,0.6,0.8l1.7,2.2c-0.1,0.1-0.1,0.1-0.2,0.2l1.9,1.9l1.9,1.8l-0.6,0.3c0.7,1.1,1.9,1.9,3.1,2.3
			c0.9,0.2,1.9,0.3,2.8,0.1c0.4,0.8-0.5,0.8-0.7,1c0.9,1.6,2.1,2.7,3.6,3.8c1.7,0.6,3.3,0.9,5.1,0.7l-0.7,1.7
			c0.4-0.1,0.8,0.4,1.4,0.9c0.6,0.5,1.3,1.5,2,2.3c0.4,0.5,0.8,0.9,1.3,1.3c0.5,0.4,1,0.8,1.6,1.1c1.1,0.7,2.4,1.2,3.7,1.3
			c-0.2,0.3-0.6,0.5-0.8,0.5c3,0.4,5.5,2.9,8,4.7c2.5,1.7,4.9,2.7,7-0.2c0.4,0,0.8-0.1,1.3-0.1c0.3,0.2,0.7,0.3,1,0.5l2.1,0.9
			c1.4,0.6,3,1,4.5,1.2c0.1-0.4-0.1-0.9,0-1.5c0.8,0.3,1.4,0.7,1.2,1.4c0.5,0.1,1,0.2,1.5,0.3c0.3,0.4,0.5,0.8,0.8,1.2
			c0.4-0.1,0.8-0.4,1.1-0.8c3.4,0.6,6.8,1.3,10.3,1.8l3.4,0.5l3.4,0.3c1.1,0.1,2.2,0.1,3.4,0.1c1.1,0,2.2,0,3.3-0.2
			c-0.5-0.8-0.8-1.7-1.3-2.6c1,0,2-0.1,3.1-0.2c0.8,0.5,1.4,1.9-0.8,2.1c0.6,0.7,1.6,0.3,2.2-0.5c0.6-0.5,1-1.2,1.2-1.9
			c2.2,0.2,1.9,1,1.3,1.8c-0.6,0.8-1.8,1.6-1.1,1.5l1.8-0.5l-0.5-0.3c0.6-0.6,0.9-1.3,1.4-1.8c0.3-0.3,0.6-0.5,0.8-0.6
			c0.5-0.3,1-0.4,1.5-0.5c1.8,0.2,1.2,1.5,1.9,1.4c0,0.2,0.3,0.2,1-0.2l3.9-0.8c-0.2-0.1-0.3-0.2-0.4-0.3c0.1,0,0.1,0,0.2,0
			c-0.2-0.1-0.3-0.2-0.5-0.2c-0.2-0.2-0.5-0.4-0.8-0.6c-0.3-0.5,0.4-0.8,1.3-1h0c-0.3,0-0.4-0.2-0.5-0.5c0.8-0.4,1.2-0.6-0.3-1.7
			c0,0,0,0,0,0c1.1,0.9,2.9,0.9,4.9,0.4l0.7,0.1c0-0.1,0-0.2,0-0.3c0.9-0.2,1.9-0.6,2.8-0.9c1.6-0.6,3.2-1.5,4.4-2
			c0.8-0.5,1.7-0.8,2.7-0.9c0.4-0.5,0.7-1.1,1.2-1.6c0.4-0.5,0.9-0.9,1.4-1.3c1.1-0.7,2.2-1.5,3.4-2c-0.8-0.1-1.4-0.8-1.3-1.6
			c0.1-0.5,0.5-1.1,1-1.3c1,2.3,2.2,2.2,3.7,1.6c1.5-0.9,3.3-1.2,5-0.7c-1.5-0.4-0.1-1.6,1-2.8s1.9-2.6-0.2-2.9
			c1.9-1,1.3,1.4,3.3,1.2c0.6-1.2,1.5-2.2,2.5-3.1c0.5-0.5,1-0.9,1.6-1.4c0.6-0.5,1.1-0.9,1.8-1.4c0.6-0.5,1.2-0.9,1.8-1.4l1.8-1.5
			c1.2-1,2.2-2.2,3.1-3.5c-0.5-0.5-1.9-0.3-1.9-1.9c1.6-0.2,3.1-0.5,4.6-0.6c0.2-0.6-0.4-1.4-0.6-2c-0.3-0.6-0.2-1.3,1.3-1.6
			c-0.6,0-1.6-0.1-1.3-0.9c1.1-1,2.2-2.2,3.1-3.4c0.5-0.6,0.9-1.3,1.3-1.9c0.4-0.6,0.7-1.3,1.1-2c0.4-0.7,0.6-1.4,1-2l0.8-2.1
			l0.8-2.1l0.7-2.2c0.6-1.5,0.9-2.9,1.5-4.4c0.6-1.5,1-2.9,1.6-4.3c0.1-0.4,0.3-0.7,0.4-1c0.8-0.1,1.6-0.3,2.4-0.5
			c-0.5-0.2-1-0.4-1.3-1.7c0.9-1.8,1.9-3.6,3.1-5.2c-1.9,1.6-1.9,0.5-1.7-0.8v0c-0.5,0.7-1.6-0.3-2.5-0.3l2.8-4.3
			c0.3,0.5,0.5,1,0.7,1.6c0.6,1.2,0.6,2.6,0.1,3.9c2.5-0.8-0.2-0.6,2.8-2C191.5,113.5,191.9,111.8,192.1,110.3z M191.9,89.4
			c0,0,0-0.1-0.1,0C192.3,87.7,192.1,88.3,191.9,89.4z M158.2,34.2c0.8,0.2,1.6,0.4,2.3,0.7c-0.8,0.3-1.9,0.6-3,0.9
			C157.7,35.3,158,34.8,158.2,34.2z M175.7,60.5c-0.5,0.2-0.9,0.6-1.2,1.1c-0.4-0.7-0.8-1.5-1.2-2.2C174.1,59.6,175,60,175.7,60.5z
			 M184.2,98.1c1.6-1.4,2.3,2.7,3,0.8c0.7,1,1.2,2.1,1.8,3.2c0.2,0.6,0.4,1.2,0.4,1.9c0,0.7-0.1,1.3-0.3,1.9c0,0,0,0,0,0
			c0.1-1.3,0.1-2.6-1.1-2.8l0.4,1.6c-0.2-0.1-0.3-0.2-0.5-0.3c0-0.2-0.1-0.4-0.2-0.5c0.1,0.1,0.2,0.3,0.1,0.5c-1.2-0.5-2.6,0-4,0.7
			c0.1-1.8,0.2-3.6,0.2-5.5c0.2,0.1,0.5,0.1,0.7-0.1L184.2,98.1z M189.5,86.5c0.4,1,0.4,2.1,0,3c-1.8,2.3-4,0.5-5.4,1.1
			c-0.4-1-0.4-2.1-0.1-3.1c0.3-0.9,0.5-1.8,0.4-2.6l-0.6,2.2c-0.9-0.8-1.4-2.1-1.1-3.2c-0.2,0.3-0.3,0.6-0.4,0.9
			c-0.7-3.8-1.7-7.7-3-11.4c0.7,0.1,1.2,0.2,1.7,0.4c0.9,0.4,1.8,0.9,2.5,1.5c0.2,0.1,0.4,0.3,0.5,0.5c-0.1,0.6,0.2,1.3,0.7,1.9
			c0.5,0.6,0.8,1.2,1,1.9c-0.1,0.1-0.2,0.1-0.2,0.1c-0.5,0.1-1.2-0.1-0.9,0.2c0.1,1.2,0.6,2.3,1.3,3.2c0.6,0.6,1.2,1.3,2,1.7
			C188.6,85.3,189.2,85.8,189.5,86.5z M185.8,78.1c-0.2-0.3-0.3-0.6-0.4-0.8c0.1,0.1,0.2,0.2,0.2,0.3c0.2,0.3,0.2,0.5,0.3,0.7
			C185.9,78.3,185.9,78.2,185.8,78.1z M168.9,44.3C168.9,44.3,168.9,44.3,168.9,44.3c0,0.2,0.3,1.6,0.3,3.1c0.1,1.4,0.1,2.7-0.2,4.1
			c-0.1,0.2-0.3,0.5-0.5,0.7l-1.8-2.4L169,48l-2.5,1.5c-0.6-0.9-1.2-1.7-1.9-2.4c0.4-0.4,0.8-0.7,1.2-1v0.7l0.6-0.5
			c0.9,1.6,1.5,0.6,2.1,0.5c-0.5-0.5-1.1-0.9-1.7-1.3C167.5,44.9,168.2,44.6,168.9,44.3z M156.3,32.6c0.5,1.4,1.5,3.3-0.2,3.3
			c-1.2-0.5-1.6-1-1.7-1.5c0-0.5,0-1.1-0.2-1.7C154.9,32.6,155.6,32.6,156.3,32.6z M154.2,32.7c-0.2,1-1.2,1-2.4,1
			c-0.4,0-0.8,0.1-1.2,0.2c0,0,0,0-0.1,0C151.7,33.3,152.9,32.9,154.2,32.7z M128.4,18.6c-0.4,1-0.8,2.1-1,3.1
			c-0.6-0.2-1.3-0.4-2.1-0.7C126.4,20.2,127.3,19.4,128.4,18.6z M128.9,18.4c-0.5-0.8-0.8-1.4-0.9-1.9c0.5,0.2,1,0.5,1.4,0.9
			c0.1,0.2,0.2,0.4,0.2,0.6L128.9,18.4z M130.2,15.2C128.9,14.1,129.3,14.5,130.2,15.2C130.3,15.2,130.2,15.2,130.2,15.2z
			 M81.8,19.5l0.3-0.7c-0.2,0.3-0.5,0.5-0.6,0.8c-0.3,0-0.5,0.1-0.8,0.1c-0.4-0.4-0.9-0.7-1.4-1c0-0.1,0-0.2,0-0.3
			c0.6-0.4,1.3-0.8,2-1.3c0.3,0.1,0.6,0.2,0.9,0.3c0.1,0,0.2,0.1,0.3,0.1c0,0.4-0.1,0.8-0.3,1.3c0.2-0.3,0.4-0.5,0.5-0.7
			c0,0,0,0,0,0l0.1,1.2C82.4,19.4,82.1,19.5,81.8,19.5z M82.6,18.1c0.4,0.2,0.7,0.5,0.9,1.1c-0.2,0.1-0.4,0.1-0.6,0.1L82.6,18.1z
			 M64.5,22.1c-0.3,0.6-0.8,0.7-1.5,0.8c0.2-0.4,0.5-0.9,0.8-1.3C63.8,21.6,64.2,21.8,64.5,22.1z M24.7,146.9
			C24.7,147,24.8,147,24.7,146.9c0.4,0.4,0.8,0.7,1.2,0.9C25.5,147.9,25.1,147.6,24.7,146.9z M31.1,154.7c0.3,0.2,0.5,0.4,0.7,0.5
			c-0.1,0.1-0.4,0.1-0.7,0.1L31.1,154.7z M121.9,187l-0.7-0.4C122.5,185.8,122.2,186.3,121.9,187z"/>
		<path class="st0" d="M193.3,101.1l0-0.1C193.3,101,193.3,101,193.3,101.1z"/>
		<path class="st0" d="M194.1,109.4c0.1,0,0-0.1,0-0.2C194.2,109.3,194.1,109.4,194.1,109.4z"/>
	</g>
</g>
</svg>
