<svg xmlns="http://www.w3.org/2000/svg" width="198.021" height="199.672" viewBox="0 0 198.021 199.672">
  <defs>
    <style>
      .a {
        fill: #62abd0;
      }
    </style>
  </defs>
  <g>
    <path class="a" d="M196.152,101.419c-.127.916,1.561.588,1.869.726C197.609,100.585,195.71,101.465,196.152,101.419Z"/>
    <path class="a" d="M191.823,87.081l-2.049-1.829,1.32,1.684Z"/>
    <path class="a" d="M188.814,81.438l2.516.572a42.672,42.672,0,0,0-2.08-4.433A8.083,8.083,0,0,1,188,73.648c-1.187,1.048-.757,2.173-.044,3.394a6.157,6.157,0,0,1,1.4,3.857Z"/>
    <path class="a" d="M191.691,66.288a2.648,2.648,0,0,1,.147-.405,8.78,8.78,0,0,1-.479-1.4C190.485,65.35,189.842,63.29,191.691,66.288Z"/>
    <path class="a" d="M190.775,59.115c-1.369-1.684-1.776-.986-2.282.539l1.743,1.42C190.672,60.422,190.058,58.7,190.775,59.115Z"/>
    <path class="a" d="M185.79,58.862c.284.237.563.482.827.733C186.8,59.313,186.774,59.011,185.79,58.862Z"/>
    <path class="a" d="M187.322,60.361c-.85.2.07.237,1.008.836l-1.713-1.6C186.314,60.055,185.475,60.473,187.322,60.361Z"/>
    <path class="a" d="M186.8,63.805c.9,1.629,1.73,2.16,2.16,1.84s.44-1.5-.526-3.145C188.33,63.763,188.466,65.221,186.8,63.805Z"/>
    <path class="a" d="M184.94,73.908c-.121.522-.24,1.037-.394,1.556l1.253.863c-.313-.22-.3-.909-.328-1.51S185.354,73.73,184.94,73.908Z"/>
    <path class="a" d="M183.809,47.905c-.588.22-1.024,1.439-1.616,1.981.471.284.914.59,1.361.9C183.556,49.886,183.091,48.479,183.809,47.905Z"/>
    <path class="a" d="M182.193,49.879l-2.069-1.274C181.064,50.3,181.681,50.337,182.193,49.879Z"/>
    <path class="a" d="M182.424,59.39l.328.579c1.209.684,2.307,1.45,3.482,2.212C184.973,61.21,183.741,60.262,182.424,59.39Z"/>
    <path class="a" d="M180.93,40.974q-1.523-.313-3.081-.535l1.19.341C179.671,40.835,180.294,40.906,180.93,40.974Z"/>
    <path class="a" d="M175.3,36.495c1.526-.038.672-2.274,1.884-1.981a8.63,8.63,0,0,0-4.305-1.686A4.713,4.713,0,0,1,175.3,36.495Z"/>
    <path class="a" d="M170.53,32.293a12.254,12.254,0,0,0,2.34.537A5.741,5.741,0,0,0,170.53,32.293Z"/>
    <path class="a" d="M178.742,42.939l-.9,1.713.475.713A2.721,2.721,0,0,0,178.742,42.939Z"/>
    <path class="a" d="M177.811,44.709l.029-.057-1-1.563Z"/>
    <path class="a" d="M178.432,45.545l-.119-.18C178.22,45.53,178.2,45.6,178.432,45.545Z"/>
    <path class="a" d="M181.537,54.343c-1.474-.625-3.622-2.274-3.669.6C179.33,55.109,179.341,53.443,181.537,54.343Z"/>
    <path class="a" d="M179.6,49.008c-.786-.467-1.541-.945-2.342-1.378.325.689.6,1.409.9,2.106C178.524,49.452,178.859,48.741,179.6,49.008Z"/>
    <path class="a" d="M176.169,47.042l1.1.588-.366-.766Z"/>
    <path class="a" d="M172.049,36.347a4.013,4.013,0,0,1-1.563-.719,16.4,16.4,0,0,1-1.369-1.112,21.468,21.468,0,0,0,2.267,3.3C171.914,37.586,173.03,37.384,172.049,36.347Z"/>
    <path class="a" d="M174.842,40.437c-.073-.029-.143-.086-.22-.113C174.6,40.523,174.626,40.637,174.842,40.437Z"/>
    <path class="a" d="M160.335,26.2c0,.117-.042.247-.055.368l.22-.2Z"/>
    <path class="a" d="M171.287,38.187A1.931,1.931,0,0,0,173.16,39.4a11.218,11.218,0,0,1-1.761-1.591C171.149,37.9,171.016,38,171.287,38.187Z"/>
    <path class="a" d="M167.545,30.4a17.2,17.2,0,0,0,.557,1.9C168.155,31.536,168,30.2,167.545,30.4Z"/>
    <path class="a" d="M174.791,39.761a.931.931,0,0,1,.154.07C175.031,39.339,174.915,39.486,174.791,39.761Z"/>
    <path class="a" d="M174.793,39.761a5.28,5.28,0,0,0-1.635-.365,6.826,6.826,0,0,0,1.47.928A2.13,2.13,0,0,1,174.793,39.761Z"/>
    <path class="a" d="M163.427,29.528l.81.5a9.456,9.456,0,0,1-.97-3.8c-1.713-.44-2.336-.2-2.761.139,1.1,1.069,2.243,2.1,3.315,3.2Z"/>
    <path class="a" d="M167.255,32.938c-1.737.66-3.848-.262-4.2,2,1.952,1.761,2.319.288,3.983.909-3.3-2.837,1.57.238.1-2.74a9.933,9.933,0,0,1,1.981,1.411A16.282,16.282,0,0,1,168.1,32.3a1.251,1.251,0,0,1,0,.15l.018.011-.022.015c-.022.291-.073.44-.132.185a.239.239,0,0,1-.09-.042,2.333,2.333,0,0,1-.608.317c-.632-1.18.181-.466.608-.317a1.839,1.839,0,0,0,.22-.143.113.113,0,0,0,0-.026c-1.248-.865-2.584-1.622-3.859-2.421A14.306,14.306,0,0,0,167.255,32.938Z"/>
    <path class="a" d="M173.528,54.988a.6.6,0,0,1,.275-.324C173.486,54.557,173.3,54.552,173.528,54.988Z"/>
    <path class="a" d="M175.691,49.287l.249-.317C175.865,48.939,175.78,49.069,175.691,49.287Z"/>
    <path class="a" d="M173.517,53.011c.365.119,1.087-.046,1.461.881,0,.986-.713.44-1.177.777.706.233,2.15,1.089,1.9-.924l-.358-.122a9.53,9.53,0,0,1,.349-4.331A13.887,13.887,0,0,0,173.517,53.011Z"/>
    <path class="a" d="M167.7,43.322l.638-.649c.986,1.743,1.56.729,2.267.48-.931-.762-1.935-1.448-2.912-2.146Z"/>
    <path class="a" d="M162.122,24.162c-1.1.176-2.236.425-3.332.661l1.776.44Z"/>
    <path class="a" d="M157.724,21.259c-.534,0-1.085,0-1.622.02l.52,1.153Z"/>
    <path class="a" d="M44.831,17.7c-2.12-.423-4.957-1.356-3.791.037l1.385,1.2A3.458,3.458,0,0,1,44.831,17.7Z"/>
    <path class="a" d="M111.148,4.318a9.24,9.24,0,0,0-3.271-1.484C109.429,4.045,110.512,5.709,111.148,4.318Z"/>
    <path class="a" d="M11.018,149.538c.608.421,1.059.487,1.391.277C11.813,149.38,11.326,149.206,11.018,149.538Z"/>
    <path class="a" d="M107.88,2.843a3,3,0,0,0-3.976-.328,8,8,0,0,0,.7.467A7.605,7.605,0,0,1,107.88,2.843Z"/>
    <path class="a" d="M193.133,115.054a10.735,10.735,0,0,1-.1,1.836A3.364,3.364,0,0,0,193.133,115.054Z"/>
    <path class="a" d="M140.734,20.634a1.552,1.552,0,0,1,.747-.577A1.234,1.234,0,0,0,140.734,20.634Z"/>
    <path class="a" d="M140.4,12.015a6.288,6.288,0,0,0,.944,1.065A5.531,5.531,0,0,0,140.4,12.015Z"/>
    <path class="a" d="M141.527,12.239c.284.234.513.4.728.564C142.506,12.6,142.484,12.382,141.527,12.239Z"/>
    <path class="a" d="M140.305,11.667c-.288-.1-.693-.247-1.353-.511a5.884,5.884,0,0,1,1.446.857C140.266,11.821,140.23,11.7,140.305,11.667Z"/>
    <path class="a" d="M193.034,116.888c-.483.838-1.735-.289-2.719-.26,1.116-1.67,2.267-3.394,3.335-5.175-1.294-.638-1.226-2.115-1.149-3.546s.05-2.813-1.2-3.129l.416,1.76c-1.484-1.219-3.17-.455-5,.441l-.55.268c.095-1.688.148-3.387.148-5.1a88.975,88.975,0,0,0-28.079-64.973.445.445,0,0,0,.163.048l.563-.715c-.821-.711-1.761-.847-1.578-.125q-1.047-.963-2.126-1.891c2.227.055,4.622-4.5,5.025-7.924-.506.5-.9.947-3.247.321.119,1.136,2.421,4.7.086,4.6-1.321-.621-1.695-1.072-1.789-1.592a6.915,6.915,0,0,0-.2-1.857c-.152,1.151-1.32,1.158-2.584,1.239a4.182,4.182,0,0,0-2.74.88,89.137,89.137,0,0,0-14.168-8.5.675.675,0,0,0,.22-.713l-1.541-.361c-.594-2.2,3.72-.982,2.25-2.547a20.825,20.825,0,0,1,3.977-.174,6.9,6.9,0,0,1,2.018.469,5.52,5.52,0,0,1,1.792,1.321l-.746,2.434c.315-.66-.986-2.276-2.095-2.031.816-.174,1.424,1.149,2.143,2.22a3.351,3.351,0,0,0,1.235,1.233,1.648,1.648,0,0,0,1.761-.3c-.293-.863-.583-1.761-.922-2.593,1.276,0,2.813-.114,4.329,0a5.144,5.144,0,0,1,3.863,1.68c.352-2.752-.66-.144-.726-3.678-.258,1.958-1.761.935-3.181.015-1.3-.881-2.538-1.583-2.54.139a4.158,4.158,0,0,0-1.31-2.967,7.32,7.32,0,0,1-2.086-3.357c-.3.764.139,1.829-1.827.37a3.417,3.417,0,0,1-.8.4,1.558,1.558,0,0,1-.116-.128c.028.051.044.1.075.147-.148.062-.168.082.028.053a2.944,2.944,0,0,1,.518,1.664,5.214,5.214,0,0,1-3.494.187,10.276,10.276,0,0,0-3.239-.308c-1.1-.92.9-.623.563-1.734-.764.18-1.525.378-2.289.609.55-1.739-2.357-4.182,1.158-3.935l-2.8-1.187A6.539,6.539,0,0,0,126.6,6.111c-1.288-.779-4.039.945-2.455-.088-.816-.033-1.624-.077-2.434-.092l-2.434.013.059-.453a28.076,28.076,0,0,0-7.241-.383,11.756,11.756,0,0,1-7.5-2.116,18.887,18.887,0,0,1-2.545.441,9.649,9.649,0,0,1-3.288-.2l-.493-1.584a12.65,12.65,0,0,1-3.949-.337c-1.4-.22-2.661-.317-3.05.555A3.742,3.742,0,0,0,88.59.12,8.269,8.269,0,0,0,86.778.01,14.7,14.7,0,0,0,84.819.3c-1.321.284-2.692.63-3.935.991a11.881,11.881,0,0,1-3.319.609l.257,2.041a13.007,13.007,0,0,0-3.57,1.076c-.6.258-1.2.548-1.827.867S71.166,6.6,70.5,7.005l.66,1.7a6.889,6.889,0,0,1-4.565,1.321c-.944.061-1.95.1-2.963.22a11.306,11.306,0,0,0-2.936.818c0-.746,1.043-.961,1.875-.838a5.312,5.312,0,0,0-3.99.167,12.441,12.441,0,0,0-3.141,2.382A32.129,32.129,0,0,1,52.589,15.4,5.061,5.061,0,0,1,49.2,16.432a2.34,2.34,0,0,1-2.334,1.32.49.49,0,0,0,.19-.22,2.423,2.423,0,0,0-.4.209,13.175,13.175,0,0,0-1.821-.019,5.9,5.9,0,0,0,1.612.147,11.221,11.221,0,0,0-2.5,2.421l-1.523-1.338c-.075.077-.148.119-.221.207-1.463.088-.327,1.307,1.039,2.172a5.3,5.3,0,0,0-.7,1.9c-1.3-1.008-1.827-.308-2.391.388s-1.164,1.391-2.718.491c.161.913-.891,2.132-1.761,3.5a4.818,4.818,0,0,0-.865,3.808c-1.287.568-2.52,1.248-2.729,2.776l-2.139-1.385.083,2.225.165,2.236c-2.309.234-3.521.221-3.625-2.421a23.7,23.7,0,0,1-.647,2.8A11.811,11.811,0,0,1,25.4,39.1a9.008,9.008,0,0,0-.66,3.832L23.617,41.77c-.784,1.1-.372,4.046-1.908,3.859a6.022,6.022,0,0,0-3.254,2.148,16.9,16.9,0,0,0-1.688,2.113c-.561.79-1.138,1.649-1.728,2.54a70.474,70.474,0,0,1-7.362,10.9c2.474.267,1.607.854.563,1.627s-2.262,1.761-.612,2.566c-1.2,0-2.2.81-2.641-.719a12.128,12.128,0,0,1-1.719,4.564,3.648,3.648,0,0,0,.2,4.158c-1.2.137-1.338-1.276-2.086-1.067.141.383.583,1.5-.174,1.727S.462,75.365.174,74.606a4.858,4.858,0,0,0,0,2.577A3.963,3.963,0,0,0,1.4,78.944a12.676,12.676,0,0,0,4.229,1.981c-.967.794-1.46,1.463-1.484,2.152a3.544,3.544,0,0,0,1.385,2.3c-1.158.477-2.457,1.459-2.393-1.046l-.6,1.842c-.132.419-.268.881-.4,1.352a13.156,13.156,0,0,0-.277,1.463c-.293,1.962-.234,3.8,1.078,3.993-.687.368-.339,1.906-.068,2.287-.2,1.541-.352,2.364-.4,3.2a21.31,21.31,0,0,0,0,3.176l.44-.834c3.064,1.213.691,2.478,1.127,4.9l-.321-.057a8.1,8.1,0,0,0-.676,2.844,2.29,2.29,0,0,0,.284,1.151,1.947,1.947,0,0,1,.22,1.138,6.645,6.645,0,0,1-.2,1.1c-.1.464-.26,1.038-.494,1.76l1.891-.526c2.107.011,1.642,1.235.907,2.89-.685,1.636-1.578,3.742-.508,5.157l.88-1.34c.83.713-.282,2.142-1.627,3.722s-2.927,3.3-2.9,4.246c-.238.48-.748-.458-1.138-.945-1.076,5.336,2.624-.035,4.151,3.2-1.118,1.031-3.607.181-3.118,2.6-.331.748,1.292,2.11,2.821,3.691a11.566,11.566,0,0,1,2.076,2.516,4.311,4.311,0,0,1,.508,1.388A3.2,3.2,0,0,1,6.75,141.7c.66-1.1,1.358-2.126,2.751-.973.7,1.039.416,3.007.645,4.763s.705,3.4,2.747,3.546a1.187,1.187,0,0,1-.5.8c.867.612,1.9,1.8,3.094,2.769a6.07,6.07,0,0,0,3.458,1.737,2.686,2.686,0,0,0-.526,3.466,9.26,9.26,0,0,0,2.965,2.736,13.649,13.649,0,0,1,2.91,2.276c.587.742.583,1.554-.595,2.558.689.7,1.354,1.422,2.065,2.1l2.146,2.012-.561.33a6.365,6.365,0,0,0,3.334,2.49,7.25,7.25,0,0,0,3,.088c.361.88-.493.895-.764,1.087a11.72,11.72,0,0,0,3.921,4.065,12.7,12.7,0,0,0,5.524.835l-.786,1.9c.423-.057.916.355,1.517,1.033s1.356,1.554,2.232,2.5c.44.471.915.958,1.428,1.42a15.859,15.859,0,0,0,1.688,1.242,8.261,8.261,0,0,0,4.006,1.406,1.377,1.377,0,0,1-.946.526c3.233.377,5.879,3.172,8.584,5.082,2.67,1.944,5.309,2.943,7.468-.18,1.429-.121,2.875-.392,4.277-.6-2.344-.962-1.917-1.664-1.145-2.353s1.891-1.362,1.1-2.214a3.627,3.627,0,0,1,2.5,1.737c.519.792.508,1.582-.694,1.457l-.264-.456c-1.853,3.522,5.69,2.769,5.05,5.221,4.956.905,9.838,1.891,14.747,2.641l3.684.484c1.228.122,2.456.2,3.682.28a35.854,35.854,0,0,0,3.665.077c1.215-.033,2.432-.026,3.63-.172-.476-.937-.938-1.864-1.394-2.826,1.088-.046,2.173-.149,3.26-.22.94.575,1.479,2.148-.909,2.327.724.755,1.688.277,2.437-.467a4.335,4.335,0,0,0,1.263-2.117c2.351.191,2.085,1.116,1.356,1.981s-1.9,1.662-1.182,1.569l1.906-.563-.5-.262c.68-.735.986-1.424,1.477-1.981a2.986,2.986,0,0,1,.939-.711,5.4,5.4,0,0,1,1.612-.509c1.877.176,1.32,1.572,2.036,1.521.044.205.305.247,1.1-.167,1.389-.273,2.769-.6,4.158-.9q-1.153-.88-2.272-1.785c1.455-1.6,3.758-.964,1.178-2.961,1.893,1.554,5.723.7,9.176-.713,1.737-.68,3.35-1.565,4.695-2.157a6.926,6.926,0,0,1,2.861-1.01,9.216,9.216,0,0,1,1.261-1.745,10.018,10.018,0,0,1,1.473-1.387,32.445,32.445,0,0,1,3.671-2.221,1.6,1.6,0,0,1-.31-3.119c1.063,2.52,2.439,2.4,4,1.781a6.823,6.823,0,0,1,5.406-.766c-1.569-.414-.123-1.75,1.1-3.082s2.141-2.784-.185-3.18c1.97-1.125,1.413,1.464,3.555,1.3a13.709,13.709,0,0,1,2.685-3.392c.537-.506,1.133-.975,1.734-1.457s1.213-.973,1.853-1.455,1.306-.959,1.94-1.479,1.263-1.065,1.877-1.628a17.681,17.681,0,0,0,3.264-3.848c-.5-.51-2.047-.308-2.009-2.073,1.679-.178,3.3-.458,4.963-.749.249-.66-.414-1.492-.715-2.236s-.242-1.382,1.437-1.728c-.687-.037-1.71-.116-1.428-.977a22.307,22.307,0,0,0,3.327-3.706q.729-1.01,1.394-2.063c.44-.7.814-1.448,1.2-2.188s.743-1.492,1.1-2.249l.938-2.329c.3-.783.618-1.556.88-2.348l.8-2.386c.566-1.576,1.023-3.187,1.569-4.768.579-1.571,1.055-3.171,1.708-4.728a44.951,44.951,0,0,1,4.913-9.328C192.761,119.5,192.844,118.261,193.034,116.888ZM153.1,32.148a2.611,2.611,0,0,1,1.234.757,3.076,3.076,0,0,1,.643,1.347q-1.32-1.123-2.674-2.2a2.661,2.661,0,0,1,.794.1Zm-1.321-.619a.437.437,0,0,1-.068.068l-.17-.13Zm-22.5-22.646a.494.494,0,0,0-.106.063c-1.325-1.254-.863-.781.11-.063ZM108.921,12.25a10.771,10.771,0,0,1,2.641-1.732,13.347,13.347,0,0,1,3.273-.966c1.829-.119,2.082.563,1.981,1.135s-.575,1.141-.22.969a6.4,6.4,0,0,0,3.768.22,10.078,10.078,0,0,0,2.621-1.138,5.409,5.409,0,0,1,2.393-.837,4.261,4.261,0,0,1,2.918,1.4c1.374,2.762-1.338,4.118-1.386,5.76a4.585,4.585,0,0,1-3.1-1.428,6.136,6.136,0,0,0-2.377-1.636l1.945,1.625a3.739,3.739,0,0,1-3.741-.4,2.317,2.317,0,0,0,.726.78,88.73,88.73,0,0,0-12.627-2.437,9.017,9.017,0,0,1,1.186-1.314ZM93.359,11.244a3.186,3.186,0,0,0,.5,1.741q-1.344.05-2.681.137a5.619,5.619,0,0,1,2.184-1.878Zm-19.138-.966c.2.062,1.657.484,3.2,1.061A12.762,12.762,0,0,1,81.273,13.4a2.276,2.276,0,0,1,.493.841q-1.624.279-3.227.62l-.7-2.995.26,3.081c-1.056.22-2.106.471-3.147.737a15.483,15.483,0,0,1-.722-5.4ZM58.814,16.685c.744-.88,1.494-1.8,2.3-2.641-.234,1.66-.7,4.281-1.184,6.958q-2.254,1.032-4.438,2.187A12.108,12.108,0,0,1,57.546,15.8ZM34.8,31.421a3.069,3.069,0,0,0,.291.661c-.3-.309-.7-.247-.275-.663Zm-1.961,8.8q-.791.819-1.558,1.656c-.374-1.363-.726-2.734-1.039-4.121a12.979,12.979,0,0,0,2.611,2.463ZM6.931,82.045c.519-.358,1.3.22,2.218,1.041-.151-.292-.3-.574-.453-.8a1.593,1.593,0,0,1,1.47-.42c-.138.592-.266,1.188-.394,1.787l-.625-.563c.172.317.344.66.529,1.014-.055.269-.1.542-.157.813a15.338,15.338,0,0,0-1.981,1.131c-.213-1.325-.453-2.664-.594-4.006ZM120.318,196.379l-.762-.35c1.321-.887,1.041-.3.775.341Z"/>
    <path class="a" d="M149.933,15.977c.077.028.156.05.233.079A.543.543,0,0,0,149.933,15.977Z"/>
    <path class="a" d="M149.374,16.914c.169-.352.182-.975.556-.937-.647-.234-1.32-.441-1.967-.641A2.6,2.6,0,0,1,149.374,16.914Z"/>
    <path class="a" d="M150.593,23.161a5.78,5.78,0,0,0-2.2-.524c-.762,1.49.676,1.666,2.034,2.293a.845.845,0,0,1-.22-.149C151.057,23.96,151.033,23.478,150.593,23.161Z"/>
    <path class="a" d="M150.749,25.082a4.005,4.005,0,0,1,1.134.755C152.561,25.19,151.539,25.357,150.749,25.082Z"/>
    <path class="a" d="M136.665,11.5c.5.689,1.272-1.73,1.384-.945.812-.781-.594-.721-1.653-.367-.526.172-.979.44-1.034.68S135.641,11.335,136.665,11.5Z"/>
    <path class="a" d="M146.418,27.792l.691-1.966-1.561.942Z"/>
    <path class="a" d="M137.53,20.938l1.761,1.541c.127-.317.477-.361.867-.335C138.943,21.44,137.75,20.377,137.53,20.938Z"/>
    <path class="a" d="M141.914,22.747a5.561,5.561,0,0,0-1.761-.61A2.9,2.9,0,0,0,141.914,22.747Z"/>
    <path class="a" d="M113.177,13.923c.661-.374,1.62-.475,1.376-1.2l-2.546.137C111.646,13.5,112.231,14.035,113.177,13.923Z"/>
    <path class="a" d="M196.056,107.824c.352-.66.629-1.347.942-2.029l-1.42,1.274C195.747,107.32,195.9,107.564,196.056,107.824Z"/>
    <path class="a" d="M193.419,102.145c.1.441.312,1.336-.291,1.671l2.641-.44Z"/>
  </g>
</svg>
