<?xml version="1.0" encoding="utf-8"?>
<!-- Generator: Adobe Illustrator 25.4.1, SVG Export Plug-In . SVG Version: 6.00 Build 0)  -->
<svg version="1.1" id="Layer_1" xmlns="http://www.w3.org/2000/svg" xmlns:xlink="http://www.w3.org/1999/xlink" x="0px" y="0px"
	 viewBox="0 0 198 199.7" style="enable-background:new 0 0 198 199.7;" xml:space="preserve">
<style type="text/css">
	.st0{fill:none;}
	.st1{fill:#62ABD0;}
</style>
<path class="st0" d="M119.6,196l0.8,0.3l0,0C120.6,195.7,120.9,195.1,119.6,196z"/>
<path class="st0" d="M8.7,82.3c0.2,0.2,0.3,0.5,0.5,0.8c-0.9-0.8-1.7-1.4-2.2-1l0,0c0.1,1.3,0.4,2.7,0.6,4c0.6-0.4,1.3-0.8,2-1.1
	c0.1-0.3,0.1-0.5,0.2-0.8c-0.2-0.4-0.4-0.7-0.5-1l0.6,0.6c0.1-0.6,0.3-1.2,0.4-1.8C9.6,81.7,9.1,81.9,8.7,82.3z"/>
<path class="st1" d="M11,149.5c0.6,0.4,1.1,0.5,1.4,0.3C11.8,149.4,11.3,149.2,11,149.5z"/>
<path class="st1" d="M187,118.1C187,118.1,187,118.1,187,118.1C187,118.1,187,118.1,187,118.1C187,118.1,187,118.1,187,118.1
	c-0.5,0.8-1.6-0.3-2.5-0.2c1-1.6,2.1-3.2,3.1-4.8c-1.2-0.6-1.1-2-1.1-3.3c0.1-1.3,0-2.6-1.1-2.9l0.4,1.6c-1.4-1.1-3-0.4-4.7,0.4
	l-0.5,0.2c0.1-1.6,0.1-3.2,0.1-4.7c0-22.9-9.4-44.8-26.1-60.5c0,0,0.1,0,0.2,0l0.5-0.7c-0.8-0.7-1.6-0.8-1.5-0.1
	c-0.7-0.6-1.3-1.2-2-1.8c2.1,0.1,4.3-4.2,4.7-7.4c-0.5,0.5-0.8,0.9-3,0.3c0.1,1.1,2.3,4.4,0.1,4.3c-1.2-0.6-1.6-1-1.7-1.5
	c0-0.6,0-1.2-0.2-1.7c-0.1,1.1-1.2,1.1-2.4,1.2c-0.9,0-1.8,0.3-2.6,0.8c-1-0.8-2.1-1.5-3.2-2.2l0,0l0,0c-3.2-2.1-6.6-4-10-5.7
	c0.2-0.2,0.3-0.4,0.2-0.7l-1.4-0.3c-0.6-2,3.5-0.9,2.1-2.4c1.2-0.2,2.5-0.2,3.7-0.2c0.6,0.1,1.3,0.2,1.9,0.4
	c0.6,0.3,1.2,0.7,1.7,1.2l-0.7,2.3c0.3-0.6-0.9-2.1-2-1.9c0.8-0.2,1.3,1.1,2,2.1c0.3,0.5,0.7,0.9,1.2,1.1c0.6,0.2,1.2,0.1,1.6-0.3
	c-0.3-0.8-0.5-1.6-0.9-2.4c1.2,0,2.6-0.1,4,0c1.4,0,2.7,0.6,3.6,1.6c0.3-2.6-0.6-0.1-0.7-3.4c-0.2,1.8-1.6,0.9-3,0
	c-1.2-0.8-2.4-1.5-2.4,0.1c0-1-0.5-2-1.2-2.8c-0.9-0.8-1.6-1.9-1.9-3.1c-0.3,0.7,0.1,1.7-1.7,0.3c-0.2,0.2-0.5,0.3-0.7,0.4
	c0,0-0.1-0.1-0.1-0.1c0,0,0,0.1,0.1,0.1c-0.1,0.1-0.2,0.1,0,0c0.3,0.5,0.5,1,0.5,1.5c-1,0.4-2.2,0.5-3.3,0.2c-1-0.3-2-0.4-3-0.3
	c-1-0.9,0.8-0.6,0.5-1.6c-0.7,0.2-1.4,0.4-2.1,0.6c0.5-1.6-2.2-3.9,1.1-3.7l-2.6-1.1c-1.2-1.5-3-2.3-4.9-2.3
	c-1.2-0.7-3.8,0.9-2.3-0.1c-0.8,0-1.5-0.1-2.3-0.1l-2.3,0l0.1-0.4c-2.2-0.4-4.5-0.5-6.7-0.4c-2.5,0.2-4.9-0.5-7-2
	c-0.8,0.2-1.6,0.3-2.4,0.4c-1,0.1-2.1,0.1-3.1-0.2l-0.5-1.5c-1.2,0.1-2.5,0-3.7-0.3c-1.3-0.2-2.5-0.3-2.8,0.5
	c-0.5-0.9-1.5-1.5-2.5-1.6c-0.6-0.1-1.1-0.1-1.7-0.1c-0.6,0-1.2,0.1-1.8,0.3c-1.2,0.3-2.5,0.6-3.7,0.9c-1,0.3-2,0.5-3.1,0.6l0.2,1.9
	c-1.2,0.2-2.3,0.5-3.3,1c-0.6,0.2-1.1,0.5-1.7,0.8c-0.6,0.3-1.2,0.7-1.8,1l0.6,1.6c-1.2,0.9-2.7,1.3-4.3,1.2
	c-0.9,0.1-1.8,0.1-2.8,0.2c-0.9,0.1-1.9,0.4-2.7,0.8c0-0.7,1-0.9,1.7-0.8c-1.2-0.4-2.5-0.4-3.7,0.2c-1.1,0.6-2.1,1.3-2.9,2.2
	c-0.8,0.9-1.7,1.7-2.7,2.4c-0.9,0.7-2,1-3.2,1c-0.4,0.8-1.3,1.3-2.2,1.2c0.1,0,0.1-0.1,0.2-0.2c-0.1,0.1-0.3,0.1-0.4,0.2
	c-0.6,0-1.1-0.1-1.7,0c0.5,0.1,1,0.2,1.5,0.1c-0.9,0.6-1.7,1.4-2.3,2.3l-1.4-1.2c-0.1,0.1-0.1,0.1-0.2,0.2c-1.4,0.1-0.3,1.2,1,2
	c-0.3,0.5-0.6,1.1-0.7,1.8c-1.2-0.9-1.7-0.3-2.2,0.4c-0.5,0.6-1.1,1.3-2.5,0.5c0.1,0.9-0.8,2-1.6,3.3c-0.8,1-1,2.3-0.8,3.5
	c0,0,0,0,0,0l0,0c0,0,0,0,0,0c0.1,0.2,0.2,0.4,0.3,0.6c-0.3-0.3-0.6-0.2-0.3-0.6c0,0,0,0,0,0c-1.2,0.5-2.3,1.2-2.5,2.6l-2-1.3
	l0.1,2.1l0.2,2.1c-2.2,0.2-3.3,0.2-3.4-2.3c-0.1,0.9-0.3,1.8-0.6,2.6c-0.1,0.5-0.3,0.9-0.5,1.4c-0.5,1.1-0.7,2.3-0.6,3.6l-1-1.1
	c-0.7,1-0.3,3.8-1.8,3.6c-1.2,0.3-2.3,1-3,2c-0.6,0.6-1.1,1.3-1.6,2c-0.5,0.7-1.1,1.5-1.6,2.4c-2,3.6-4.3,7-6.9,10.2
	c2.3,0.2,1.5,0.8,0.5,1.5c-1,0.7-2.1,1.6-0.6,2.4c-1.1,0-2,0.8-2.5-0.7c-0.2,1.5-0.8,3-1.6,4.3c-0.8,1.2-0.7,2.7,0.2,3.9
	c-1.1,0.1-1.2-1.2-1.9-1C8.6,78.9,9,80,8.3,80.2s-0.7-0.8-1-1.5c-0.2,0.8-0.2,1.6,0,2.4c0.2,0.6,0.6,1.2,1.1,1.6
	c1.2,0.9,2.5,1.5,3.9,1.8c-0.9,0.7-1.4,1.4-1.4,2c0.1,0.9,0.6,1.6,1.3,2.1c-1.1,0.4-2.3,1.4-2.2-1l-0.6,1.7
	c-0.1,0.4-0.2,0.8-0.4,1.3c-0.1,0.4-0.2,0.9-0.3,1.4c-0.3,1.8-0.2,3.5,1,3.7c-0.6,0.3-0.3,1.8-0.1,2.1c-0.2,1.4-0.3,2.2-0.4,3
	c-0.1,1-0.1,2,0,3l0.4-0.8c2.9,1.1,0.6,2.3,1,4.6l-0.3-0.1c-0.4,0.8-0.6,1.7-0.6,2.6c0,0.4,0.1,0.7,0.3,1.1c0.2,0.3,0.2,0.7,0.2,1.1
	c0,0.3-0.1,0.7-0.2,1c-0.1,0.4-0.2,1-0.5,1.6l1.8-0.5c2,0,1.5,1.2,0.8,2.7c-0.6,1.5-1.5,3.5-0.5,4.8l0.8-1.2c0.8,0.7-0.3,2-1.5,3.5
	c-1.3,1.5-2.7,3.1-2.7,4c-0.2,0.4-0.7-0.4-1.1-0.9c-1,5,2.4,0,3.9,3c-1,1-3.4,0.2-2.9,2.4c-0.3,0.7,1.2,2,2.6,3.4
	c0.8,0.7,1.4,1.5,1.9,2.3c0.2,0.4,0.4,0.8,0.5,1.3c0.1,0.4,0.1,0.9,0,1.4c0.6-1,1.3-2,2.6-0.9c0.7,1,0.4,2.8,0.6,4.4
	s0.7,3.2,2.6,3.3c0,0.3-0.2,0.6-0.5,0.7c0.8,0.6,1.8,1.7,2.9,2.6c0.9,0.9,2,1.4,3.2,1.6c-0.9,0.8-1.1,2.2-0.5,3.2
	c0.7,1,1.7,1.9,2.8,2.5c1,0.6,1.9,1.3,2.7,2.1c0.5,0.7,0.5,1.4-0.6,2.4c0.6,0.7,1.3,1.3,1.9,2l2,1.9l-0.5,0.3
	c0.7,1.1,1.8,1.9,3.1,2.3c0.9,0.2,1.9,0.2,2.8,0.1c0.3,0.8-0.5,0.8-0.7,1c0.9,1.5,2.1,2.8,3.7,3.8c1.6,0.6,3.4,0.9,5.1,0.8l-0.7,1.8
	c0.4-0.1,0.9,0.3,1.4,1c0.6,0.6,1.3,1.4,2.1,2.3c0.4,0.4,0.9,0.9,1.3,1.3c0.5,0.4,1,0.8,1.6,1.2c1.1,0.8,2.4,1.2,3.7,1.3
	c-0.2,0.3-0.5,0.5-0.9,0.5c3,0.4,5.5,3,8,4.7c2.5,1.8,4.9,2.7,7-0.2c1.3-0.1,2.7-0.4,4-0.6c-2.2-0.9-1.8-1.5-1.1-2.2
	c0.7-0.6,1.8-1.3,1-2.1c1,0.2,1.8,0.8,2.3,1.6c0.5,0.7,0.5,1.5-0.6,1.4l-0.2-0.4c-1.7,3.3,5.3,2.6,4.7,4.9c4.6,0.8,9.2,1.8,13.7,2.5
	l3.4,0.5c1.1,0.1,2.3,0.2,3.4,0.3c1.1,0.1,2.3,0.1,3.4,0.1c1.1,0,2.3,0,3.4-0.2c-0.4-0.9-0.9-1.7-1.3-2.6c1,0,2-0.1,3-0.2
	c0.9,0.5,1.4,2-0.8,2.2c0.7,0.7,1.6,0.3,2.3-0.4c0.6-0.5,1-1.2,1.2-2c2.2,0.2,1.9,1,1.3,1.8c-0.7,0.8-1.8,1.5-1.1,1.5l1.8-0.5
	l-0.5-0.2c0.6-0.7,0.9-1.3,1.4-1.8c0.2-0.3,0.5-0.5,0.9-0.7c0.5-0.2,1-0.4,1.5-0.5c1.7,0.2,1.2,1.5,1.9,1.4c0,0.2,0.3,0.2,1-0.2
	c1.3-0.3,2.6-0.6,3.9-0.8c-0.7-0.5-1.4-1.1-2.1-1.7c1.4-1.5,3.5-0.9,1.1-2.8c1.8,1.4,5.3,0.7,8.5-0.7c1.6-0.6,3.1-1.5,4.4-2
	c0.8-0.5,1.7-0.8,2.7-0.9c0.3-0.6,0.7-1.1,1.2-1.6c0.4-0.5,0.9-0.9,1.4-1.3c1.1-0.8,2.2-1.5,3.4-2.1c-0.8-0.1-1.4-0.8-1.3-1.6
	c0.1-0.6,0.5-1.1,1-1.3c1,2.3,2.3,2.2,3.7,1.7c1.5-0.9,3.3-1.2,5-0.7c-1.5-0.4-0.1-1.6,1-2.9c1.1-1.2,2-2.6-0.2-3
	c1.8-1,1.3,1.4,3.3,1.2c0.7-1.2,1.5-2.2,2.5-3.2c0.5-0.5,1.1-0.9,1.6-1.4s1.1-0.9,1.7-1.4c0.6-0.4,1.2-0.9,1.8-1.4
	c0.6-0.5,1.2-1,1.7-1.5c1.2-1,2.2-2.2,3-3.6c-0.5-0.5-1.9-0.3-1.9-1.9c1.6-0.2,3.1-0.4,4.6-0.7c0.2-0.6-0.4-1.4-0.7-2.1
	c-0.3-0.7-0.2-1.3,1.3-1.6c-0.6,0-1.6-0.1-1.3-0.9c1.2-1,2.2-2.2,3.1-3.5c0.5-0.6,0.9-1.3,1.3-1.9c0.4-0.7,0.8-1.3,1.1-2
	c0.4-0.7,0.7-1.4,1-2.1l0.9-2.2c0.3-0.7,0.6-1.4,0.8-2.2l0.7-2.2c0.5-1.5,1-3,1.5-4.4c0.5-1.5,1-3,1.6-4.4c1.2-3.1,2.7-6,4.6-8.7
	C186.7,120.5,186.8,119.4,187,118.1z M16.3,87.1l-0.6-0.5c0.2,0.3,0.3,0.6,0.5,0.9c-0.1,0.3-0.1,0.5-0.1,0.8
	c-0.6,0.3-1.3,0.7-1.8,1.1c-0.2-1.2-0.4-2.5-0.6-3.7l0,0c0.5-0.3,1.2,0.2,2.1,1c-0.1-0.3-0.3-0.5-0.4-0.7c0.4-0.4,0.9-0.5,1.4-0.4
	C16.6,86,16.4,86.6,16.3,87.1z M37.8,46.7c-0.5,0.5-1,1-1.5,1.5c-0.3-1.3-0.7-2.5-1-3.8C36.1,45.3,36.9,46,37.8,46.7L37.8,46.7z
	 M63,28.8c-1.4,0.6-2.8,1.3-4.1,2c-0.1-2.4,0.5-4.9,1.9-6.9l1.2,0.8c0.7-0.8,1.4-1.7,2.1-2.5C63.9,23.9,63.5,26.3,63,28.8z
	 M127.6,17.5L127.6,17.5c0,0-0.1,0-0.1,0.1C126.3,16.4,126.7,16.8,127.6,17.5z M108.7,20.6c0.7-0.7,1.6-1.2,2.5-1.6
	c1-0.4,2-0.7,3-0.9c1.7-0.1,1.9,0.5,1.8,1.1c-0.1,0.5-0.5,1.1-0.2,0.9c1.1,0.4,2.3,0.5,3.5,0.2c0.9-0.2,1.7-0.6,2.4-1.1
	c0.7-0.4,1.4-0.7,2.2-0.8c1,0.1,2,0.5,2.7,1.3c1.3,2.6-1.2,3.8-1.3,5.4c-1.1-0.1-2.1-0.5-2.9-1.3c-0.6-0.7-1.4-1.2-2.2-1.5l1.8,1.5
	c-1.1,0.5-2.5,0.4-3.5-0.4c0.2,0.3,0.4,0.5,0.7,0.7c-3.9-1-7.8-1.8-11.8-2.3C107.9,21.4,108.2,21,108.7,20.6L108.7,20.6z M94.2,19.7
	C94.2,19.7,94.2,19.7,94.2,19.7L94.2,19.7C94.2,19.7,94.2,19.7,94.2,19.7c0,0.6,0.2,1.1,0.5,1.6c-0.8,0-1.7,0.1-2.5,0.1
	C92.6,20.7,93.3,20.1,94.2,19.7z M79.3,19.8c1.3,0.4,2.5,1.1,3.6,1.9c0.2,0.2,0.4,0.5,0.5,0.8c-1,0.2-2,0.4-3,0.6l-0.7-2.8l0.2,2.9
	c-1,0.2-2,0.4-2.9,0.7c-0.5-1.6-0.7-3.3-0.7-5l0,0C76.5,18.9,77.9,19.3,79.3,19.8z M119.3,192.1L119.3,192.1l-0.7-0.3
	C119.8,191,119.5,191.5,119.3,192.1z M130.1,144h-8.2c-0.7,0-1.3-0.4-1.6-0.9l-14-23.7c-2.6-4.5-5.1-9.2-5.1-9.2h-0.2
	c0,0-2.2,4.8-4.8,9.2l-14,23.7c-0.3,0.6-1,0.9-1.6,0.9h-8.1c-1.5,0-2.4-1.6-1.6-2.9l22.9-37.4c0.4-0.6,0.4-1.4,0-2L72.4,66.9
	C71.6,65.6,72.5,64,74,64h8.5c0.7,0,1.3,0.4,1.6,0.9l12,20.7c2.5,4.3,5.1,9.5,5.1,9.5h0.2c0,0,2.3-5.1,4.9-9.5l12-20.7
	c0.3-0.6,1-0.9,1.6-0.9h8.5c1.5,0,2.4,1.6,1.6,2.9l-21.3,34.9c-0.4,0.6-0.4,1.4,0,2l22.9,37.4C132.4,142.4,131.5,144,130.1,144z
	 M148.5,38.7l-0.2-0.1L148.5,38.7C148.5,38.6,148.5,38.6,148.5,38.7z M149.1,39.1c0.2,0,0.5,0,0.7,0.1l0,0c0.4,0.1,0.8,0.4,1.1,0.7
	c0.3,0.4,0.5,0.8,0.6,1.3C150.7,40.4,149.9,39.8,149.1,39.1z"/>
</svg>
