<svg xmlns="http://www.w3.org/2000/svg" width="180.781" height="186.3" xmlns:v="https://vecta.io/nano"><path d="M4.081 140.6c.6.4 1.1.5 1.4.3-.6-.4-1.1-.6-1.4-.3zm176-31.4c-.5.8-1.6-.3-2.5-.2l3.1-4.8c-1.2-.6-1.1-2-1.1-3.3.1-1.3 0-2.6-1.1-2.9l.4 1.6c-1.4-1.1-3-.4-4.7.4l-.5.2.1-4.7a82.985 82.985 0 0 0-26.1-60.5h.2l.5-.7c-.8-.7-1.6-.8-1.5-.1l-2-1.8c2.1.1 4.3-4.2 4.7-7.4-.5.5-.8.9-3 .3.1 1.1 2.3 4.4.1 4.3-1.2-.6-1.6-1-1.7-1.5a4.678 4.678 0 0 0-.2-1.7c-.1 1.1-1.2 1.1-2.4 1.2a4.957 4.957 0 0 0-2.6.8 36.173 36.173 0 0 0-3.2-2.2h0a98.982 98.982 0 0 0-10-5.7.618.618 0 0 0 .2-.7l-1.4-.3c-.6-2 3.5-.9 2.1-2.4a22.954 22.954 0 0 1 3.7-.2 12.86 12.86 0 0 1 1.9.4 6.552 6.552 0 0 1 1.7 1.2l-.7 2.3c.3-.6-.9-2.1-2-1.9.8-.2 1.3 1.1 2 2.1a2.545 2.545 0 0 0 1.2 1.1 1.525 1.525 0 0 0 1.6-.3 23.4 23.4 0 0 0-.9-2.4h4a4.839 4.839 0 0 1 3.6 1.6c.3-2.6-.6-.1-.7-3.4-.2 1.8-1.6.9-3 0-1.2-.8-2.4-1.5-2.4.1a4.417 4.417 0 0 0-1.2-2.8 6.25 6.25 0 0 1-1.9-3.1c-.3.7.1 1.7-1.7.3a2.506 2.506 0 0 1-.7.4l-.1-.1a.1.1 0 0 0 .1.1c-.1.1-.2.1 0 0a2.976 2.976 0 0 1 .5 1.5 5.3 5.3 0 0 1-3.3.2 7.687 7.687 0 0 0-3-.3c-1-.9.8-.6.5-1.6l-2.1.6c.5-1.6-2.2-3.9 1.1-3.7l-2.6-1.1a6.211 6.211 0 0 0-4.9-2.3c-1.2-.7-3.8.9-2.3-.1-.8 0-1.5-.1-2.3-.1h-2.3l.1-.4a30.18 30.18 0 0 0-6.7-.4 10.454 10.454 0 0 1-7-2 20.024 20.024 0 0 1-2.4.4 8.133 8.133 0 0 1-3.1-.2l-.5-1.5a11.6 11.6 0 0 1-3.7-.3c-1.3-.2-2.5-.3-2.8.5a3.29 3.29 0 0 0-2.5-1.6 9.7 9.7 0 0 0-1.7-.1 5.663 5.663 0 0 0-1.8.3l-3.7.9a15.5 15.5 0 0 1-3.1.6l.2 1.9a11.543 11.543 0 0 0-3.3 1 13.018 13.018 0 0 0-1.7.8l-1.8 1 .6 1.6a6.4 6.4 0 0 1-4.3 1.2l-2.8.2a8.423 8.423 0 0 0-2.7.8c0-.7 1-.9 1.7-.8a4.77 4.77 0 0 0-3.7.2 10.585 10.585 0 0 0-2.9 2.2 15.446 15.446 0 0 1-2.7 2.4 5.086 5.086 0 0 1-3.2 1 2.226 2.226 0 0 1-2.2 1.2c.1 0 .1-.1.2-.2-.1.1-.3.1-.4.2a9.652 9.652 0 0 0-1.7 0 3.812 3.812 0 0 0 1.5.1 8.392 8.392 0 0 0-2.3 2.3l-1.4-1.2-.2.2c-1.4.1-.3 1.2 1 2a4.842 4.842 0 0 0-.7 1.8c-1.2-.9-1.7-.3-2.2.4a1.66 1.66 0 0 1-2.5.5c.1.9-.8 2-1.6 3.3a4.406 4.406 0 0 0-.8 3.5h0l.3.6c-.3-.3-.6-.2-.3-.6-1.2.5-2.3 1.2-2.5 2.6l-2-1.3.1 2.1.2 2.1c-2.2.2-3.3.2-3.4-2.3a10.957 10.957 0 0 1-.6 2.6 7.838 7.838 0 0 1-.5 1.4 7.222 7.222 0 0 0-.6 3.6l-1-1.1c-.7 1-.3 3.8-1.8 3.6a5.2 5.2 0 0 0-3 2 15.583 15.583 0 0 0-1.6 2 24.973 24.973 0 0 0-1.6 2.4 70.237 70.237 0 0 1-6.9 10.2c2.3.2 1.5.8.5 1.5s-2.1 1.6-.6 2.4c-1.1 0-2 .8-2.5-.7a11.219 11.219 0 0 1-1.6 4.3 3.312 3.312 0 0 0 .2 3.9c-1.1.1-1.2-1.2-1.9-1 .3.3.7 1.4 0 1.6s-.7-.8-1-1.5a4.875 4.875 0 0 0 0 2.4 3.553 3.553 0 0 0 1.1 1.6 9.9 9.9 0 0 0 3.9 1.8c-.9.7-1.4 1.4-1.4 2a2.956 2.956 0 0 0 1.3 2.1c-1.1.4-2.3 1.4-2.2-1l-.6 1.7a9.288 9.288 0 0 1-.4 1.3l-.3 1.4c-.3 1.8-.2 3.5 1 3.7-.6.3-.3 1.8-.1 2.1l-.4 3a15.038 15.038 0 0 0 0 3l.4-.8c2.9 1.1.6 2.3 1 4.6l-.3-.1a5.834 5.834 0 0 0-.6 2.6 2.279 2.279 0 0 0 .3 1.1 1.978 1.978 0 0 1 .2 1.1 3.553 3.553 0 0 1-.2 1 7.073 7.073 0 0 1-.5 1.6l1.8-.5c2 0 1.5 1.2.8 2.7-.6 1.5-1.5 3.5-.5 4.8l.8-1.2c.8.7-.3 2-1.5 3.5-1.3 1.5-2.7 3.1-2.7 4-.2.4-.7-.4-1.1-.9-1 5 2.4 0 3.9 3-1 1-3.4.2-2.9 2.4-.3.7 1.2 2 2.6 3.4a10.1 10.1 0 0 1 1.9 2.3 5.023 5.023 0 0 1 .5 1.3 3.3 3.3 0 0 1 0 1.4c.6-1 1.3-2 2.6-.9.7 1 .4 2.8.6 4.4s.7 3.2 2.6 3.3a.752.752 0 0 1-.5.7c.8.6 1.8 1.7 2.9 2.6a5.754 5.754 0 0 0 3.2 1.6 2.6 2.6 0 0 0-.5 3.2 8.421 8.421 0 0 0 2.8 2.5 13.948 13.948 0 0 1 2.7 2.1c.5.7.5 1.4-.6 2.4.6.7 1.3 1.3 1.9 2l2 1.9-.5.3a5.572 5.572 0 0 0 3.1 2.3 8.784 8.784 0 0 0 2.8.1c.3.8-.5.8-.7 1a11.183 11.183 0 0 0 3.7 3.8 12.7 12.7 0 0 0 5.1.8l-.7 1.8c.4-.1.9.3 1.4 1l2.1 2.3 1.3 1.3 1.6 1.2a7.19 7.19 0 0 0 3.7 1.3 1.05 1.05 0 0 1-.9.5c3 .4 5.5 3 8 4.7 2.5 1.8 4.9 2.7 7-.2 1.3-.1 2.7-.4 4-.6-2.2-.9-1.8-1.5-1.1-2.2.7-.6 1.8-1.3 1-2.1a3.508 3.508 0 0 1 2.3 1.6c.5.7.5 1.5-.6 1.4l-.2-.4c-1.7 3.3 5.3 2.6 4.7 4.9l13.7 2.5 3.4.5 3.4.3c1.1.1 2.3.1 3.4.1a19.4 19.4 0 0 0 3.4-.2l-1.3-2.6c1 0 2-.1 3-.2.9.5 1.4 2-.8 2.2.7.7 1.6.3 2.3-.4a3.738 3.738 0 0 0 1.2-2c2.2.2 1.9 1 1.3 1.8-.7.8-1.8 1.5-1.1 1.5l1.8-.5-.5-.2c.6-.7.9-1.3 1.4-1.8a2.178 2.178 0 0 1 .9-.7 8.8 8.8 0 0 1 1.5-.5c1.7.2 1.2 1.5 1.9 1.4 0 .2.3.2 1-.2l3.9-.8c-.7-.5-1.4-1.1-2.1-1.7 1.4-1.5 3.5-.9 1.1-2.8 1.8 1.4 5.3.7 8.5-.7 1.6-.6 3.1-1.5 4.4-2a6.182 6.182 0 0 1 2.7-.9 6.1 6.1 0 0 1 1.2-1.6 8.635 8.635 0 0 1 1.4-1.3 23.944 23.944 0 0 1 3.4-2.1 1.456 1.456 0 0 1-1.3-1.6 1.7 1.7 0 0 1 1-1.3c1 2.3 2.3 2.2 3.7 1.7a6.273 6.273 0 0 1 5-.7c-1.5-.4-.1-1.6 1-2.9 1.1-1.2 2-2.6-.2-3 1.8-1 1.3 1.4 3.3 1.2a15.355 15.355 0 0 1 2.5-3.2c.5-.5 1.1-.9 1.6-1.4s1.1-.9 1.7-1.4a21.965 21.965 0 0 0 1.8-1.4l1.7-1.5a13.1 13.1 0 0 0 3-3.6c-.5-.5-1.9-.3-1.9-1.9l4.6-.7c.2-.6-.4-1.4-.7-2.1s-.2-1.3 1.3-1.6c-.6 0-1.6-.1-1.3-.9a17.285 17.285 0 0 0 3.1-3.5 21.414 21.414 0 0 0 1.3-1.9 39.446 39.446 0 0 0 2.1-4.1l.9-2.2a14.273 14.273 0 0 0 .8-2.2l.7-2.2 1.5-4.4 1.6-4.4a40.215 40.215 0 0 1 4.6-8.7c-1 1.6-.9.5-.7-.8zm-170.7-31l-.6-.5c.2.3.3.6.5.9a2.2 2.2 0 0 0-.1.8 10.814 10.814 0 0 0-1.8 1.1l-.6-3.7h0c.5-.3 1.2.2 2.1 1a4.348 4.348 0 0 0-.4-.7 1.485 1.485 0 0 1 1.4-.4 6.606 6.606 0 0 0-.5 1.5zm21.5-40.4l-1.5 1.5-1-3.8a17.937 17.937 0 0 0 2.5 2.3zm25.2-17.9l-4.1 2a11.289 11.289 0 0 1 1.9-6.9l1.2.8 2.1-2.5-1.1 6.6zm64.6-11.3h0a.1.1 0 0 0-.1.1c-1.2-1.2-.8-.8.1-.1zm-18.9 3.1a8.214 8.214 0 0 1 2.5-1.6 17.1 17.1 0 0 1 3-.9c1.7-.1 1.9.5 1.8 1.1-.1.5-.5 1.1-.2.9a5.946 5.946 0 0 0 3.5.2 6.59 6.59 0 0 0 2.4-1.1 5.838 5.838 0 0 1 2.2-.8 4.077 4.077 0 0 1 2.7 1.3c1.3 2.6-1.2 3.8-1.3 5.4a4.564 4.564 0 0 1-2.9-1.3 5.415 5.415 0 0 0-2.2-1.5l1.8 1.5a3.419 3.419 0 0 1-3.5-.4 2.336 2.336 0 0 0 .7.7 94.579 94.579 0 0 0-11.8-2.3c.5-.4.8-.8 1.3-1.2zm-14.5-.9h0a3.022 3.022 0 0 0 .5 1.6l-2.5.1a4.25 4.25 0 0 1 2-1.7zm-14.9.1a12.437 12.437 0 0 1 3.6 1.9 2.177 2.177 0 0 1 .5.8l-3 .6-.7-2.8.2 2.9a24.6 24.6 0 0 0-2.9.7 16.787 16.787 0 0 1-.7-5h0a22.078 22.078 0 0 1 3 .9zm40 172.3h0l-.7-.3c1.2-.8.9-.3.7.3zm10.8-48.1h-8.2a1.893 1.893 0 0 1-1.6-.9l-14-23.7c-2.6-4.5-5.1-9.2-5.1-9.2h-.2s-2.2 4.8-4.8 9.2l-14 23.7a1.8 1.8 0 0 1-1.6.9h-8.1a1.879 1.879 0 0 1-1.6-2.9l22.9-37.4a1.817 1.817 0 0 0 0-2L65.481 58a1.879 1.879 0 0 1 1.6-2.9h8.5a1.893 1.893 0 0 1 1.6.9l12 20.7c2.5 4.3 5.1 9.5 5.1 9.5h.2s2.3-5.1 4.9-9.5l12-20.7a1.8 1.8 0 0 1 1.6-.9h8.5a1.879 1.879 0 0 1 1.6 2.9l-21.3 34.9a1.817 1.817 0 0 0 0 2l22.9 37.4a1.812 1.812 0 0 1-1.5 2.8zm18.4-105.3l-.2-.1.2.1zm.6.4a1.7 1.7 0 0 1 .7.1h0a2.589 2.589 0 0 1 1.1.7 3.1 3.1 0 0 1 .6 1.3c-.8-.8-1.6-1.4-2.4-2.1z" fill="#62abd0"/></svg>