<svg xmlns="http://www.w3.org/2000/svg" viewBox="0 0 198 199.7" fill="#62abd0" xmlns:v="https://vecta.io/nano"><path d="M11 149.5c.6.4 1.1.5 1.4.3-.6-.4-1.1-.6-1.4-.3zm176-31.4c-.5.8-1.6-.3-2.5-.2l3.1-4.8c-1.2-.6-1.1-2-1.1-3.3.1-1.3 0-2.6-1.1-2.9l.4 1.6c-1.4-1.1-3-.4-4.7.4l-.5.2.1-4.7c0-22.9-9.4-44.8-26.1-60.5h.2l.5-.7c-.8-.7-1.6-.8-1.5-.1-.7-.6-1.3-1.2-2-1.8 2.1.1 4.3-4.2 4.7-7.4-.5.5-.8.9-3 .3.1 1.1 2.3 4.4.1 4.3-1.2-.6-1.6-1-1.7-1.5 0-.6 0-1.2-.2-1.7-.1 1.1-1.2 1.1-2.4 1.2-.9 0-1.8.3-2.6.8-1-.8-2.1-1.5-3.2-2.2h0 0c-3.2-2.1-6.6-4-10-5.7.2-.2.3-.4.2-.7l-1.4-.3c-.6-2 3.5-.9 2.1-2.4 1.2-.2 2.5-.2 3.7-.2.6.1 1.3.2 1.9.4a6.57 6.57 0 0 1 1.7 1.2l-.7 2.3c.3-.6-.9-2.1-2-1.9.8-.2 1.3 1.1 2 2.1.3.5.7.9 1.2 1.1.6.2 1.2.1 1.6-.3-.3-.8-.5-1.6-.9-2.4 1.2 0 2.6-.1 4 0a4.84 4.84 0 0 1 3.6 1.6c.3-2.6-.6-.1-.7-3.4-.2 1.8-1.6.9-3 0-1.2-.8-2.4-1.5-2.4.1 0-1-.5-2-1.2-2.8-.9-.8-1.6-1.9-1.9-3.1-.3.7.1 1.7-1.7.3-.2.2-.5.3-.7.4l-.1-.1s0 .1.1.1c-.1.1-.2.1 0 0 .3.5.5 1 .5 1.5-1 .4-2.2.5-3.3.2-1-.3-2-.4-3-.3-1-.9.8-.6.5-1.6l-2.1.6c.5-1.6-2.2-3.9 1.1-3.7L130 17c-1.2-1.5-3-2.3-4.9-2.3-1.2-.7-3.8.9-2.3-.1-.8 0-1.5-.1-2.3-.1h-2.3l.1-.4c-2.2-.4-4.5-.5-6.7-.4-2.5.2-4.9-.5-7-2-.8.2-1.6.3-2.4.4-1 .1-2.1.1-3.1-.2l-.5-1.5c-1.2.1-2.5 0-3.7-.3-1.3-.2-2.5-.3-2.8.5-.5-.9-1.5-1.5-2.5-1.6-.6-.1-1.1-.1-1.7-.1s-1.2.1-1.8.3l-3.7.9a15.47 15.47 0 0 1-3.1.6l.2 1.9c-1.2.2-2.3.5-3.3 1-.6.2-1.1.5-1.7.8s-1.2.7-1.8 1l.6 1.6c-1.2.9-2.7 1.3-4.3 1.2-.9.1-1.8.1-2.8.2-.9.1-1.9.4-2.7.8 0-.7 1-.9 1.7-.8-1.2-.4-2.5-.4-3.7.2-1.1.6-2.1 1.3-2.9 2.2a15.46 15.46 0 0 1-2.7 2.4c-.9.7-2 1-3.2 1-.4.8-1.3 1.3-2.2 1.2.1 0 .1-.1.2-.2-.1.1-.3.1-.4.2-.6 0-1.1-.1-1.7 0 .5.1 1 .2 1.5.1a8.39 8.39 0 0 0-2.3 2.3l-1.4-1.2-.2.2c-1.4.1-.3 1.2 1 2-.3.5-.6 1.1-.7 1.8-1.2-.9-1.7-.3-2.2.4-.5.6-1.1 1.3-2.5.5.1.9-.8 2-1.6 3.3-.8 1-1 2.3-.8 3.5h0l.3.6c-.3-.3-.6-.2-.3-.6-1.2.5-2.3 1.2-2.5 2.6l-2-1.3.1 2.1.2 2.1c-2.2.2-3.3.2-3.4-2.3-.1.9-.3 1.8-.6 2.6-.1.5-.3.9-.5 1.4-.5 1.1-.7 2.3-.6 3.6l-1-1.1c-.7 1-.3 3.8-1.8 3.6-1.2.3-2.3 1-3 2-.6.6-1.1 1.3-1.6 2s-1.1 1.5-1.6 2.4c-2 3.6-4.3 7-6.9 10.2 2.3.2 1.5.8.5 1.5s-2.1 1.6-.6 2.4c-1.1 0-2 .8-2.5-.7-.2 1.5-.8 3-1.6 4.3-.8 1.2-.7 2.7.2 3.9-1.1.1-1.2-1.2-1.9-1 .3.3.7 1.4 0 1.6s-.7-.8-1-1.5c-.2.8-.2 1.6 0 2.4.2.6.6 1.2 1.1 1.6a9.9 9.9 0 0 0 3.9 1.8c-.9.7-1.4 1.4-1.4 2 .1.9.6 1.6 1.3 2.1-1.1.4-2.3 1.4-2.2-1l-.6 1.7c-.1.4-.2.8-.4 1.3-.1.4-.2.9-.3 1.4-.3 1.8-.2 3.5 1 3.7-.6.3-.3 1.8-.1 2.1l-.4 3c-.1 1-.1 2 0 3l.4-.8c2.9 1.1.6 2.3 1 4.6l-.3-.1c-.4.8-.6 1.7-.6 2.6 0 .4.1.7.3 1.1.2.3.2.7.2 1.1 0 .3-.1.7-.2 1-.1.4-.2 1-.5 1.6l1.8-.5c2 0 1.5 1.2.8 2.7-.6 1.5-1.5 3.5-.5 4.8l.8-1.2c.8.7-.3 2-1.5 3.5-1.3 1.5-2.7 3.1-2.7 4-.2.4-.7-.4-1.1-.9-1 5 2.4 0 3.9 3-1 1-3.4.2-2.9 2.4-.3.7 1.2 2 2.6 3.4.8.7 1.4 1.5 1.9 2.3.2.4.4.8.5 1.3.1.4.1.9 0 1.4.6-1 1.3-2 2.6-.9.7 1 .4 2.8.6 4.4s.7 3.2 2.6 3.3c0 .3-.2.6-.5.7.8.6 1.8 1.7 2.9 2.6.9.9 2 1.4 3.2 1.6-.9.8-1.1 2.2-.5 3.2.7 1 1.7 1.9 2.8 2.5 1 .6 1.9 1.3 2.7 2.1.5.7.5 1.4-.6 2.4.6.7 1.3 1.3 1.9 2l2 1.9-.5.3c.7 1.1 1.8 1.9 3.1 2.3.9.2 1.9.2 2.8.1.3.8-.5.8-.7 1 .9 1.5 2.1 2.8 3.7 3.8 1.6.6 3.4.9 5.1.8l-.7 1.8c.4-.1.9.3 1.4 1 .6.6 1.3 1.4 2.1 2.3l1.3 1.3c.5.4 1 .8 1.6 1.2 1.1.8 2.4 1.2 3.7 1.3-.2.3-.5.5-.9.5 3 .4 5.5 3 8 4.7 2.5 1.8 4.9 2.7 7-.2 1.3-.1 2.7-.4 4-.6-2.2-.9-1.8-1.5-1.1-2.2.7-.6 1.8-1.3 1-2.1 1 .2 1.8.8 2.3 1.6.5.7.5 1.5-.6 1.4l-.2-.4c-1.7 3.3 5.3 2.6 4.7 4.9l13.7 2.5 3.4.5 3.4.3c1.1.1 2.3.1 3.4.1s2.3 0 3.4-.2c-.4-.9-.9-1.7-1.3-2.6 1 0 2-.1 3-.2.9.5 1.4 2-.8 2.2.7.7 1.6.3 2.3-.4.6-.5 1-1.2 1.2-2 2.2.2 1.9 1 1.3 1.8-.7.8-1.8 1.5-1.1 1.5l1.8-.5-.5-.2c.6-.7.9-1.3 1.4-1.8.2-.3.5-.5.9-.7.5-.2 1-.4 1.5-.5 1.7.2 1.2 1.5 1.9 1.4 0 .2.3.2 1-.2 1.3-.3 2.6-.6 3.9-.8-.7-.5-1.4-1.1-2.1-1.7 1.4-1.5 3.5-.9 1.1-2.8 1.8 1.4 5.3.7 8.5-.7 1.6-.6 3.1-1.5 4.4-2a6.18 6.18 0 0 1 2.7-.9c.3-.6.7-1.1 1.2-1.6.4-.5.9-.9 1.4-1.3 1.1-.8 2.2-1.5 3.4-2.1-.8-.1-1.4-.8-1.3-1.6.1-.6.5-1.1 1-1.3 1 2.3 2.3 2.2 3.7 1.7 1.5-.9 3.3-1.2 5-.7-1.5-.4-.1-1.6 1-2.9 1.1-1.2 2-2.6-.2-3 1.8-1 1.3 1.4 3.3 1.2.7-1.2 1.5-2.2 2.5-3.2.5-.5 1.1-.9 1.6-1.4s1.1-.9 1.7-1.4c.6-.4 1.2-.9 1.8-1.4s1.2-1 1.7-1.5c1.2-1 2.2-2.2 3-3.6-.5-.5-1.9-.3-1.9-1.9 1.6-.2 3.1-.4 4.6-.7.2-.6-.4-1.4-.7-2.1s-.2-1.3 1.3-1.6c-.6 0-1.6-.1-1.3-.9 1.2-1 2.2-2.2 3.1-3.5.5-.6.9-1.3 1.3-1.9.4-.7.8-1.3 1.1-2 .4-.7.7-1.4 1-2.1l.9-2.2c.3-.7.6-1.4.8-2.2l.7-2.2 1.5-4.4c.5-1.5 1-3 1.6-4.4 1.2-3.1 2.7-6 4.6-8.7-1 1.6-.9.5-.7-.8zm-170.7-31l-.6-.5c.2.3.3.6.5.9-.1.3-.1.5-.1.8-.6.3-1.3.7-1.8 1.1l-.6-3.7h0c.5-.3 1.2.2 2.1 1-.1-.3-.3-.5-.4-.7.4-.4.9-.5 1.4-.4-.2.4-.4 1-.5 1.5zm21.5-40.4l-1.5 1.5c-.3-1.3-.7-2.5-1-3.8.8.9 1.6 1.6 2.5 2.3h0zM63 28.8c-1.4.6-2.8 1.3-4.1 2-.1-2.4.5-4.9 1.9-6.9l1.2.8c.7-.8 1.4-1.7 2.1-2.5-.2 1.7-.6 4.1-1.1 6.6zm64.6-11.3h0s-.1 0-.1.1c-1.2-1.2-.8-.8.1-.1zm-18.9 3.1c.7-.7 1.6-1.2 2.5-1.6 1-.4 2-.7 3-.9 1.7-.1 1.9.5 1.8 1.1-.1.5-.5 1.1-.2.9 1.1.4 2.3.5 3.5.2.9-.2 1.7-.6 2.4-1.1.7-.4 1.4-.7 2.2-.8 1 .1 2 .5 2.7 1.3 1.3 2.6-1.2 3.8-1.3 5.4-1.1-.1-2.1-.5-2.9-1.3-.6-.7-1.4-1.2-2.2-1.5l1.8 1.5c-1.1.5-2.5.4-3.5-.4.2.3.4.5.7.7-3.9-1-7.8-1.8-11.8-2.3.5-.4.8-.8 1.3-1.2h0zm-14.5-.9h0c0 .6.2 1.1.5 1.6-.8 0-1.7.1-2.5.1.4-.7 1.1-1.3 2-1.7zm-14.9.1c1.3.4 2.5 1.1 3.6 1.9.2.2.4.5.5.8l-3 .6-.7-2.8.2 2.9c-1 .2-2 .4-2.9.7-.5-1.6-.7-3.3-.7-5h0c.2 0 1.6.4 3 .9zm40 172.3h0l-.7-.3c1.2-.8.9-.3.7.3zm10.8-48.1h-8.2c-.7 0-1.3-.4-1.6-.9l-14-23.7c-2.6-4.5-5.1-9.2-5.1-9.2h-.2s-2.2 4.8-4.8 9.2l-14 23.7c-.3.6-1 .9-1.6.9h-8.1c-1.5 0-2.4-1.6-1.6-2.9l22.9-37.4c.4-.6.4-1.4 0-2L72.4 66.9c-.8-1.3.1-2.9 1.6-2.9h8.5c.7 0 1.3.4 1.6.9l12 20.7c2.5 4.3 5.1 9.5 5.1 9.5h.2s2.3-5.1 4.9-9.5l12-20.7c.3-.6 1-.9 1.6-.9h8.5c1.5 0 2.4 1.6 1.6 2.9l-21.3 34.9c-.4.6-.4 1.4 0 2l22.9 37.4c.8 1.2-.1 2.8-1.5 2.8zm18.4-105.3l-.2-.1.2.1c0-.1 0-.1 0 0zm.6.4c.2 0 .5 0 .7.1h0c.4.1.8.4 1.1.7.3.4.5.8.6 1.3-.8-.8-1.6-1.4-2.4-2.1z"/></svg>