<svg xmlns="http://www.w3.org/2000/svg" width="1203.518" height="1223.432" viewBox="0 0 1203.518 1223.432">
  <defs>
    <style>
      .a {
        fill: #2c2c2c;
      }

      .b {
        fill: #fefefe;
      }

      .c {
        fill: #61abd0;
      }
    </style>
  </defs>
  <g>
    <g>
      <path class="a" d="M1203.509,503.117c0-2.922-.027-5.82-.133-8.738q-.123-3.357-.242-6.715c-.035-.961-.039-1.93-.109-2.891q-.417-5.906-.825-11.808c-.175-2.512-.453-5.012-.707-7.516-.347-3.406-.613-6.828-1.113-10.215l-1.723-11.754c-.414-2.824-.945-5.625-1.445-8.437-1.176-6.6-2.41-13.191-3.648-19.781-.571-3.055-1.254-6.09-1.883-9.133-.606-2.93-1.274-5.832-1.969-8.742-.656-2.75-1.281-5.5-2.039-8.227q-.879-3.123-1.75-6.246c-.316-1.129-.605-2.269-.973-3.387q-1.658-5.038-3.32-10.078c-1.078-3.277-2.336-6.5-3.5-9.75-1-2.793-2.234-5.515-3.363-8.258-1.324-3.226-2.8-6.371-4.27-9.535-2.535-5.445-5.289-10.793-7.89-16.211-2.657-5.535-5.356-11.062-7.879-16.66-1.281-2.832-2.613-5.648-3.832-8.5q-2.115-4.946-4.227-9.894-3.784-8.855-7.609-17.7a179.8,179.8,0,0,0-7.973-16.227c-1.535-2.75-3.094-5.477-4.66-8.207-.695-1.207-1.5-2.363-2.242-3.535-.789-1.235-1.57-2.449-2.43-3.633-1.836-2.531-3.656-5.07-5.551-7.555q-3.176-4.166-6.371-8.316c-3.777-4.883-7.547-9.766-11.363-14.613-3.918-4.981-7.816-10-12-14.758-2.023-2.3-3.988-4.668-6.121-6.864-2.234-2.3-4.414-4.668-6.75-6.867-2.273-2.144-4.5-4.359-6.836-6.433q-3.984-3.54-7.973-7.075c-2.507-2.226-5.1-4.363-7.652-6.543s-5.16-4.332-7.738-6.5c-9.832-8.25-19.2-17.035-28.52-25.855-4.687-4.437-9.457-8.781-14.242-13.113-4.738-4.289-9.773-8.235-14.8-12.172-2.6-2.039-5.242-4.035-7.871-6.035-1.094-.832-2.258-1.582-3.383-2.364-.984-.683-1.957-1.382-2.968-2.019q-7.929-4.974-15.993-9.715c-10.691-6.266-21.308-12.668-31.671-19.457-5.094-3.336-10.25-6.574-15.426-9.777-1.207-.746-2.43-1.469-3.649-2.2-1.2-.722-2.437-1.363-3.672-2.023-2.761-1.477-5.562-2.871-8.39-4.219-5.711-2.722-11.641-4.961-17.5-7.351-5.07-2.067-10.153-4.094-15.211-6.2q-4.916-2.133-9.844-4.235c-3.793-1.609-7.64-3.035-11.515-4.441-3.5-1.266-7.083-2.293-10.645-3.352a92.27,92.27,0,0,0-10.371-2.289c-15.387-2.711-30.953-4.281-46.453-6.2q-9.47-1.3-18.9-2.828c-3.066-.5-6.144-.957-9.215-1.434-3.66-.566-7.367-.918-11.043-1.363-2.839-.344-5.691-.574-8.535-.863-3.164-.321-6.328-.672-9.5-.981-6.191-.6-12.387-1.133-18.578-1.711q-5.068-.48-10.144-.9c-2.84-.238-5.668-.543-8.5-.785C670.689,1.4,664.525.9,658.341.641,652.236.387,646.122.105,640.009.066,637.853.055,635.7,0,633.54,0c-.828,0-1.66.008-2.488.027-3.356.09-6.711.157-10.063.274q-9.954.339-19.906.637c-3.277.1-6.555.207-9.832.308-3.258.1-6.515.32-9.769.484-12.3.625-24.59,1.157-36.9,1.426-12.719.278-25.453.242-38.152,1.078-3.195.211-6.36.586-9.543.95-3.027.347-6.043.921-9.051,1.437-6.4,1.094-12.8,2.2-19.18,3.391-12.2,2.269-24.543,3.6-36.789,5.57-2.855.461-5.726.867-8.566,1.4q-5.3,1-10.574,2.071c-6.094,1.242-12.129,2.761-18.172,4.226-6.231,1.512-12.418,3.2-18.68,4.571q-4.764,1.043-9.539,2.035c-3.18.668-6.336,1.449-9.5,2.187-2.848.668-5.68,1.41-8.516,2.117-1.328.329-2.644.719-3.964,1.082-1.532.418-3.071.809-4.579,1.293q-2.6.832-5.2,1.668c-1.308.418-2.582.981-3.859,1.477-1.356.523-2.727,1.016-4.047,1.621q-3.065,1.4-6.121,2.793c-5.352,2.441-10.594,5.137-15.813,7.844q-.861.445-1.722.9c-2.45,1.524-4.93,2.985-7.473,4.34-4.133,2.207-8.137,4.648-12.16,7.047-3.895,2.32-7.762,4.691-11.645,7.035-1.8,1.086-3.589,2.2-5.371,3.324-1.812,1.145-3.679,2.188-5.476,3.348-.641.434-1.282.863-1.926,1.3.3-.2.594-.4.887-.594-1.688,1.148-3.34,2.356-5,3.543-2.246,1.6-4.59,3.043-6.949,4.465-1.9,1.148-3.758,2.351-5.637,3.531s-3.824,2.27-5.695,3.469c-.915.625-1.813,1.262-2.7,1.926-1.226.918-2.519,1.75-3.8,2.59q-.681.456-1.36.906c-.918.636-1.8,1.316-2.715,1.968-.855.614-1.73,1.208-2.609,1.793-1.4.95-2.746,1.989-4.125,2.977-1.406,1.016-2.836,2.008-4.234,3.035-1.493,1.1-2.953,2.25-4.465,3.321-1.93,1.363-3.9,2.675-5.867,3.988.429-.285.855-.571,1.285-.856-2.2,1.5-4.36,3.047-6.582,4.508-1.25.879-2.442,1.828-3.68,2.723-1.57,1.137-3.18,2.226-4.836,3.23-1.547.934-3.281,1.653-4.91,2.43l-.07.035q-4.7,3.7-9.254,7.57c-2.086,1.782-4.219,3.539-6.192,5.446q-1.8,1.752-3.613,3.5c-1.285,1.242-2.492,2.574-3.73,3.859-4.192,4.336-8.317,8.715-12.368,13.18s-8.086,8.965-12.222,13.363a315.57,315.57,0,0,0-24.149,28.5c-1.945,2.633-3.867,5.266-5.75,7.941-1.863,2.649-3.652,5.348-5.453,8.043-3.523,5.285-6.957,10.633-10.4,15.973-3.313,5.137-6.586,10.289-9.879,15.437-3.621,5.661-7.309,11.278-10.953,16.922-3.168,4.9-6.407,9.762-9.414,14.762q-5.344,8.895-10.391,17.945-4.441,7.94-8.145,16.262c-2.515,5.637-4.21,11.59-6.054,17.473-1.774,5.668-3.36,11.394-5.074,17.082-1.942,6.445-3.8,12.918-5.727,19.371C23.579,382.809,19.6,394.6,16.126,406.555c-.762,2.613-1.371,5.285-2.039,7.925-.812,3.227-1.512,6.473-2.133,9.743-1.16,6.078-2.187,12.168-3.179,18.273-.411,2.527-.758,5.066-1.106,7.606-.461,3.336-.957,6.671-1.367,10.015-.809,6.61-1.621,13.219-2.363,19.836-.684,6.094-1.469,12.176-2.075,18.277C1.259,504.352.786,510.5.536,516.648c-.121,3.043-.261,6.09-.351,9.137-.11,3.57-.164,7.133-.184,10.707-.023,5.633.3,11.266.754,16.875q.4,5.034.8,10.063c.226,2.879.558,5.754.848,8.629.648,6.418,1.429,12.816,2.261,19.211q1.2,9.222,2.571,18.421c.421,2.813,1,5.614,1.535,8.407q.849,4.43,1.8,8.847,2.057,9.463,4.671,18.778c1.657,5.882,3.875,11.617,6.079,17.316q6.89,17.806,13.777,35.609,3.557,9.159,7.18,18.29c1.175,2.953,2.386,5.882,3.6,8.816,1.383,3.34,2.91,6.605,4.418,9.887.551,1.191,1.2,2.347,1.8,3.515s1.164,2.36,1.809,3.5c1.621,2.871,3.222,5.746,4.937,8.563,3.43,5.648,7.031,11.183,10.645,16.715,3.257,4.992,6.312,10.125,9.472,15.179,1.606,2.563,3.145,5.184,4.836,7.692,1.84,2.734,3.66,5.48,5.543,8.183q2.9,4.155,5.817,8.293c1.91,2.707,4,5.281,6.047,7.891,1,1.277,2.156,2.461,3.222,3.683.742.852,1.469,1.711,2.254,2.524,2.352,2.437,4.695,4.887,7.082,7.289,9.164,9.23,17.981,18.816,26.567,28.59,4.1,4.664,8.132,9.394,12.144,14.14,4.246,5.032,8.6,9.965,12.965,14.891,1.8,2.031,3.754,3.945,5.641,5.9,1.015,1.055,2.152,2.012,3.222,3.012,1.113,1.039,2.192,2.152,3.363,3.125,2.395,2,4.743,4.074,7.2,5.988,2.785,2.164,5.55,4.356,8.363,6.481q2.268,1.716,4.535,3.43c1.121.843,2.3,1.617,3.453,2.421,2.621,1.836,5.285,3.61,7.942,5.395,5.253,3.523,10.687,6.789,16.113,10.043,1.172.7,2.394,1.332,3.59,2s2.375,1.356,3.586,1.984c2.781,1.442,5.535,2.93,8.355,4.293,5.914,2.86,11.848,5.653,17.859,8.293,2.938,1.293,5.872,2.555,8.852,3.743q4.81,1.909,9.641,3.765c6.254,2.391,12.476,4.856,18.7,7.336q4.159,1.659,8.316,3.336c2.77,1.113,5.586,2.106,8.379,3.156,5.813,2.184,11.7,4.18,17.6,6.114,5.992,1.964,12.058,3.71,18.133,5.414,6.1,1.711,12.23,3.375,18.242,5.379q9.181,3.064,18.226,6.476c5.914,2.219,11.825,4.445,17.77,6.582,1.351.485,2.726.9,4.09,1.348,1.152.375,2.3.769,3.461,1.1,3.129.891,6.246,1.809,9.394,2.606,6.172,1.551,12.348,3.031,18.613,4.156,12.622,2.27,25.329,4.039,37.934,6.406q2.385.445,4.762.895c1.449.269,2.883.664,4.32.992l4.316,1c1.907.442,3.793,1.012,5.688,1.52,3.035.808,6.078,1.589,9.125,2.363,3.309.844,6.625,1.559,9.965,2.273,3.019.649,6.058,1.176,9.1,1.727,3.3.6,6.637,1.012,9.969,1.465,1.211.164,2.449.39,3.672.488,1.731.141,3.465.277,5.2.418s3.465.281,5.2.418c.949.078,1.918.074,2.879.07q.674-.006,1.347,0c2.887.039,5.781.153,8.668.063,3.438-.11,6.879-.192,10.317-.328q10.242-.423,20.5-.785c6.308-.223,12.625-.356,18.937-.543,3.278-.1,6.555-.321,9.828-.481q4.847-.234,9.684-.473c7.859-.382,15.726-.586,23.594-.75,3.789-.078,7.574-.132,11.359-.191,2.086-.035,4.172-.012,6.254-.105q3.323-.153,6.644-.3c15.9-.719,31.692-2.856,47.45-4.977q9.422-1.147,18.832-2.254c5.937-.7,11.886-1.285,17.824-1.992,12.574-1.492,25.144-3.16,37.617-5.336q9.433-1.645,18.854-3.377a6.878,6.878,0,0,0,2.127,4.139,245.734,245.734,0,0,0,21.5,17.992c3.637,2.641,7.333,5.195,11,7.8,2.992,2.129,5.914,4.348,8.82,6.586,8.453,6.605,16.992,13.117,24.851,20.441,4.008,3.735,8.063,7.41,12.114,11.094,4,3.629,8.156,7.082,12.218,10.637,3.954,3.461,7.942,6.894,12.1,10.105l-1.168-.9c6.684,5.191,13.352,10.391,20.3,15.223,6.453,4.484,12.945,8.9,19.289,13.543,8.094,6.4,15.98,13.042,23.566,20.042,3.778,3.485,7.633,6.907,11.688,10.063,4.769,3.711,9.633,7.3,14.469,10.918,8.355,6.258,16.671,12.574,25.308,18.437,4.512,3.063,9.012,6.137,13.535,9.18,4.43,2.981,8.836,5.988,13.4,8.762,8.73,5.305,17.242,10.988,26.343,15.656a78.324,78.324,0,0,0,8.973,3.945,41.9,41.9,0,0,0,9.141,1.922,71.715,71.715,0,0,0,7.988.485c1.289.019,2.586-.11,3.871-.207a36.884,36.884,0,0,0,6-1,32.289,32.289,0,0,0,7.156-2.977,43.348,43.348,0,0,0,7.473-5.344,29.266,29.266,0,0,0,5.27-5.98,23.58,23.58,0,0,0,2.425-5.645,31.3,31.3,0,0,0,1.2-4.8,141.065,141.065,0,0,0,2.007-18.063,92.841,92.841,0,0,0-1.328-17.566c-.746-5.032-2.136-9.973-3.32-14.914q-1.851-7.742-3.859-15.45c-1.368-5.218-3.02-10.332-4.723-15.449-1.641-4.926-3.445-9.793-5.055-14.726q-2.443-7.489-4.765-15.02c-3.145-10.144-6.469-20.23-9.813-30.312s-6.418-20.262-9.531-30.43q-2.321-7.577-4.93-15.059c-1.781-5.105-3.621-10.191-5.269-15.34-1.532-4.785-2.973-9.6-4.539-14.375-1.59-4.859-3.395-9.644-5.227-14.418-1.9-4.96-3.738-9.929-5.418-14.972-.8-2.383-1.453-4.813-2.191-7.211-.809-2.621-1.692-5.219-2.559-7.82-1.531-4.575-3.41-9.016-5.082-13.54-1.773-4.8-3.715-9.531-5.359-14.378-.883-2.61-1.684-5.243-2.559-7.852-.922-2.75-1.941-5.461-2.98-8.168-1.11-2.9-2.246-5.777-3.3-8.695-.461-1.278-.832-2.582-1.262-3.867-.551-1.637-1.148-3.254-1.7-4.891a10.252,10.252,0,0,0-.584-1.385c.046-.037.093-.071.138-.107,2.231-1.758,4.512-3.481,6.665-5.332,1.136-.973,2.277-1.938,3.375-2.957,1.386-1.282,2.722-2.594,4.062-3.93,1.027-1.023,1.973-2.109,2.938-3.2.875-.981,1.761-1.95,2.6-2.957,2.305-2.782,4.6-5.563,6.871-8.371q2.854-3.534,5.684-7.094c1.906-2.391,3.683-4.9,5.469-7.383,3.961-5.512,7.886-11.047,11.718-16.656q4.865-7.113,9.555-14.344c6.922-10.668,14.012-21.23,20.789-32,5.625-8.934,10.695-18.332,13.977-28.4,1.738-5.332,3.195-10.753,4.9-16.1.883-2.77,1.836-5.512,2.789-8.262.039-.113.078-.226.117-.336,4.6-9.972,9.188-19.949,13.618-30q2.419-5.478,4.836-10.961c1.191-2.707,2.25-5.473,3.347-8.215q1.847-4.629,3.695-9.258c.411-1.027.708-2.113,1.059-3.16l2.461-7.34q.674-2.009,1.348-4.011c.273-.824.465-1.684.691-2.524q1.571-5.777,3.145-11.562c.242-.9.425-1.821.632-2.727l1.524-6.586q.522-2.267,1.047-4.535c.265-1.156.4-2.351.6-3.519l1.829-10.871c.144-.86.242-1.735.359-2.6q.522-3.786,1.035-7.563c.926-6.765,1.7-13.546,2.492-20.328.313-2.676.446-5.379.66-8.066.231-2.867.516-5.735.657-8.61q.3-6.081.6-12.164c.145-2.937.2-5.886.289-8.828.2-6.894.305-13.789.414-20.683C1203.54,509.078,1203.505,506.1,1203.509,503.117Zm-15.813,15.43c-.066,4.383-.168,11-.328,17.355l-.023.754-.008.219c-.113,4.242-.25,9.52-.668,14.434-.5,5.734-1.066,11.539-1.687,17.25-.5,4.464-1.094,8.984-1.758,14q-.909,5.829-1.867,11.652c-.821,4.98-1.614,9.863-2.36,14.879-1.363,9.078-2.465,17.961-3.7,28.5-.344,2.519-.7,5.043-1.086,7.578l-.051.156q-.667,2.04-1.347,4.074l-.375,1.145-1.293,3.9c-.211.656-.481,1.328-.817,2.133-.14.336-.277.668-.41,1l-1.058,2.7-.039.106q-1.776,4.511-3.555,9.023c-4.375,10.09-9.473,21.793-14.563,33.012l-.375.828c-1.89,4.191-5.054,11.211-8.121,17.695l-.152.328-2.738,5.8c-.5,1.547-1.016,3.086-1.539,4.625l-.157.473c-.445,1.316-.89,2.633-1.32,3.957-.473,1.465-.98,2.922-1.488,4.375l-.176.5q-.451,1.272-.895,2.555c-.742,2.156-1.617,4.664-2.628,7.086-1.934,4.664-4.223,9.058-6.8,13.9-.75,1.426-1.465,2.891-2.188,4.375l-.789,1.609c-.34.7-.691,1.4-1.043,2.1l-.273.539-.293.578q-.651,1.284-1.3,2.574c-1.942,3.926-4.067,8.129-6.426,12.285-1.672,2.957-3.312,5.934-4.969,8.946q-1.265,2.3-2.543,4.6c-.812,1.461-1.773,2.86-2.617,4.094-.281.41-.562.82-.84,1.235-1.289,1.933-2.523,3.882-3.675,5.793-1.11,1.859-2.45,3.714-3.524,5.207l-.734,1.035c-1.395,1.957-2.731,3.945-3.981,5.91l-.277.449-.164.262c-.516.828-1.028,1.629-1.578,2.383-.453.625-.926,1.23-1.41,1.82q-1.647,2.262-3.317,4.5-3.409,4.248-6.851,8.48c-.844,1.04-1.7,2.067-2.559,3.094l-.285.348-.656.793-.36.433-.078.094c-.629.77-1.406,1.723-2.195,2.6l-.856.949a94.775,94.775,0,0,1-6.718,6.992c-2.356,2.129-4.907,4.27-8.036,6.735-1.472,1.121-2.949,2.23-4.449,3.355l-1.242.934-.27.355-.105.145-.211.285a33.142,33.142,0,0,0-2.812,4.73,18.728,18.728,0,0,0-.641,1.973c-.015.058-.03.116-.045.172l-.021.107h0l.03-.063-.141.742-.023.129-.157.812c-.062.672-.062,1.36-.062,2.024l0,.461,0,.445,0,.176c0,.077,0,.154,0,.238,0,.028,0,.062,0,.091,0,.058,0,.113,0,.182h0v.037a5.107,5.107,0,0,1-.012.558c.5,1.336.981,2.676,1.465,4.024.922,2.535,2,5.051,3.055,7.48l.062.149.063.144.105.246c1.629,4.157,3.141,8.571,4.9,14.3.855,2.738,1.625,5.086,2.347,7.18.364,1.031.743,2.05,1.125,3.074l.192.516c.449,1.191.9,2.382,1.316,3.586.539,1.539,1.09,3.078,1.672,4.7.961,2.675,2.16,6,3.168,9.2,1.559,4.894,3.031,10.176,4.211,14.414l.219.742c1.6,5.723,3.785,11.41,5.9,16.914l.055.141c1.367,3.531,2.914,7.539,4.222,11.484,1.332,3.961,2.582,8.227,3.586,11.656q.516,1.758,1.036,3.508c1.394,4.656,3.019,9.317,4.589,13.828l.032.1.082.234.257.735.375,1.074c1.426,4.066,3.2,9.129,4.723,14.02q2.315,7.429,4.574,14.878c2.215,7.262,4.7,14.914,6.692,21.059l.066.215q1.524,4.688,3.028,9.371c1.554,4.828,3.078,9.766,4.55,14.539l.145.469.082.265.14.457c1.309,4.239,2.934,9.508,4.532,14.536,1.254,3.921,2.625,7.886,3.957,11.722l.082.242c1.945,5.594,4.148,11.934,5.9,18.121,1.625,5.731,3.024,11.571,4.371,17.219l.25,1.055.368,1.5.023.1c1.191,4.964,2.422,10.1,3.258,15.281a73.887,73.887,0,0,1,.543,11.261c-.16,3.575-.473,7.235-.989,11.52a51.787,51.787,0,0,1-2.035,8.531c-.211.391-.437.77-.683,1.153a39.387,39.387,0,0,1-3.282,3.058,35.015,35.015,0,0,1-5.007,2.988,26.723,26.723,0,0,1-3.875,1.063c-1.348.117-2.735.18-4.129.18a62.977,62.977,0,0,1-6.664-.383,52.186,52.186,0,0,1-7.125-1.965c-4.325-1.965-8.395-4.309-12.328-6.578-4-2.3-8.145-4.887-11.469-6.969l-.172-.109-1.469-.918-2.637-1.637-.46-.285-.266-.164-.176-.11c-3.2-2-6.516-4.062-9.7-6.191-4.359-2.9-8.77-5.879-13.113-8.844-8.032-5.476-14.629-10.117-20.766-14.6-2.059-1.508-4.086-3.039-6.23-4.664-1.325-1-2.649-2.008-3.985-3-.976-.739-1.961-1.469-2.945-2.2l-.242-.18-.918-.68-.672-.5-.93-.691q-2.08-1.546-4.148-3.1c-3.9-3.07-7.465-6.07-10.9-9.168l-1.281-1.164-.3-.277-.113-.1c-3.277-2.972-6.668-6.043-10.133-8.972-5.176-4.391-9.207-7.7-13.07-10.727-3.934-3.09-8.332-6.289-13.844-10.059l-2.574-1.754-.129-.085-.129-.086c-3.453-2.352-7.363-5.016-11.07-7.715-4.461-3.25-8.864-6.625-12.989-9.805-4.074-3.344-8.277-6.894-12.5-10.559-1.148-1-2.3-2-3.492-3.015l-.082-.07-.226-.192-.2-.172-.222-.195c-2.52-2.168-5.129-4.406-7.641-6.664-4.863-4.387-8.742-7.918-12.2-11.113-3.715-3.442-7.711-6.606-11.574-9.668l-.082-.063-.082-.062-.817-.645c-1.738-1.379-3.492-2.73-5.254-4.082l-1.207-.93-1.847-1.437-.106-.086c-4.488-3.492-9.133-7.106-13.914-10.477l-1.9-1.328c-4.469-3.136-9.086-6.379-13.594-9.789-2.988-2.453-5.887-4.941-8.852-7.609-.3-.267-.594-.536-.893-.812-.223-.2-.443-.4-.665-.6h.008c-.008,0-.012-.012-.02-.016l.017,0-.021-.02.414-.082.442-.086a6.3,6.3,0,0,1,.793-.117l.049,0,.05-.01c-3.633-2.457-7.33-5.085-11.3-8.036q-1.037.192-2.074.39c-7.527,1.414-15.594,2.918-23.574,4.317-4.223.738-8.649,1.484-13.156,2.218-1.25.207-2.508.375-3.77.543l-.344.043c-.7.09-1.386.18-2.082.282-2.191.312-4.386.621-6.617.929l-.207.028c-.355.043-.715.089-1.074.14l-.191.031-.481.075c-.484.074-.977.152-1.465.226l-.156.024c-1.09.156-2.152.254-3.137.336-5.383.668-9.734,1.183-13.7,1.609-.325.036-.65.072-.976.106l-1.77.2c.039-.012.078-.02.117-.032-.043,0-.082.012-.125.016l.117-.03-.125.01.457-.117c.688-.172,1.379-.344,2.075-.488l.221-.042.238-.06c-1.239.1-2.475.2-3.717.321-.649.058-1.3.121-2.016.2l-.179.02-.172.015-.215.02c-1.426.136-2.9.281-4.36.367q-.761.04-1.523.094l-.621.089c-4.137.6-8.363.887-12.508,1.172l-2.351.164c-2.418.168-4.836.4-7.176.629l-.379.039c-2.1.207-4.2.411-6.313.578-2.949.227-5.965.383-8.879.532l-.539.031-.578.031-.359.016c-1.524.074-3.043.152-4.567.238-2.085.117-4.273.172-6.031.219l-.176.008-.511.011-.176,0c-2.453.059-5.5.137-8.387.356-4.976.367-10.133.605-15.32.711-3.172.051-6.543.226-9,.355-1.777.09-3.551.176-5.332.246-2.574.094-5.25.121-7.91.153-2.313.027-4.571.054-6.813.121-1.523.043-3.043.066-4.644.066-.856,0-1.711-.008-2.567-.015l-4.515.339-4.52.344c-1.859.137-3.746.223-5.347.289-.868.039-1.735.078-2.6.125l-4.348.219-4.351.223c-.692.035-1.391.035-2.086.035-.364,0-.727,0-1.184.011q-3.222.048-6.441.086c-.508.008-1.016.016-1.543.032l-.547.011c-1,.028-2,.055-3,.055-.563,0-1.121-.008-1.68-.027l-.426-.02-3.84-.144q-3.837-.147-7.671-.289c-4.215-.168-8.5-.52-12.641-.856l-.176-.016q-2.2-.182-4.39-.347c-1.524-.125-3.122-.309-4.5-.473l-.122-.015q-1.013-.123-2.027-.235-4.2-.456-8.39-.926l-.594-.062-.344-.039-3.223-.438-.238-.031c-4.207-.566-8.559-1.152-12.824-1.93q-10.635-1.939-21.262-3.925c-4.609-.868-9.289-1.8-13.812-2.711l-.172-.032-.465-.093-.887-.18-3.5-.7c-1.769-.356-3.539-.742-5.308-1.137l-.145-.031-.89-.2c-.575-.125-1.149-.25-1.723-.368l-2.07-.441-.383-.078-.172-.039c-1.731-.356-3.883-.8-5.926-1.328l-4.871-1.243-4.5-1.148-1.848-.473-.418-.105c-2.433-.613-4.949-1.34-7.23-2l-.484-.141-2.372-.668-.5-.144-.219-.059c-1.477-.414-3.707-1.035-5.719-1.664l-5.93-1.832-5.7-1.762c-4.187-1.289-8.461-2.765-12.234-4.07l-.551-.191q-2.339-.808-4.676-1.614c-.812-.277-1.625-.566-2.418-.851l-4.371-.684-4.371-.679c-2.305-.364-4.637-.829-7.133-1.418-1.449-.336-2.918-.75-4.336-1.153l-.129-.039-.257-.074-.164-.047c-.649-.187-1.3-.371-1.95-.555-4.55-1.257-9.461-2.1-13.8-2.839l-.312-.051c-1.617-.281-3.274-.688-4.816-1.067l-.153-.039c-.566-.136-1.137-.277-1.707-.414-2.3-.531-4.668-1.015-7.445-1.515-.387-.071-.77-.137-1.2-.211-.778-.129-1.742-.289-2.657-.524-.472-.113-.945-.234-1.418-.355l-.468-.121-.512-.133c-.375-.1-.754-.2-1.133-.289-2-.5-4.172-1.188-5.336-1.559l-1.383-.433c-.527-.145-1.054-.282-1.585-.418l-.524-.137-.1-.024-.175-.042c-.86-.223-1.727-.45-2.586-.7-1.7-.476-3.383-.89-4.965-1.277-2.676-.637-5.348-1.484-7.934-2.3l-.25-.078-.441-.141-2.039-.64-.481-.129-.57-.152-.262-.071-.484-.129-.141-.035c-.613-.16-1.222-.32-1.828-.492-1.117-.316-2.226-.66-3.336-1l-1.23-.379c-3.125-.91-6.422-1.961-10.68-3.406-1.121-.379-2.242-.766-3.359-1.152l-.133-.047-.336-.114c-1.77-.617-3.773-1.308-5.715-1.921l-.254-.075c-.914-.261-1.808-.527-2.683-.824l-.147-.054-.228-.068c1.781.788,3.666,1.516,5.336,2.165.628.242,1.253.484,1.875.731l5.738,2.261,6.387,2.52c1.261.492,2.585.957,3.867,1.406l.39.137.133.047.281.1.266.09,1.121.395,12,4.242c3.957,1.394,7.906,2.82,11.856,4.246l5.308,1.914.782.313.156.066c.211.077.421.155.633.23-.071-.023-.145-.043-.215-.066l.207.082-.152-.045.144.061c-3.613-1.078-7.219-2.184-10.82-3.293-1.532-.469-3.032-.992-4.692-1.578l-.105-.04-.192-.066-1.746-.613c-1.644-.567-3.285-1.156-4.922-1.746l-2.382-.856c-4.7-1.668-9.6-3.6-13.176-5.011l-1.223-.481c-3.394-1.324-6.894-2.809-9.453-3.894q-1.915-.814-3.836-1.618c-1.75-.73-3.5-1.457-5.3-2.2a83.827,83.827,0,0,1-8.48-3.09l-1.649-.711-.863-.371c-1.7-.734-3.4-1.468-5.094-2.218l-.246-.106c-2.043-.9-4.156-1.832-6.347-2.574a152.722,152.722,0,0,1-14.629-5.793c-1.778-.8-3.524-1.7-5.067-2.492l-.98-.5c-.988-.5-1.981-.992-3-1.489l-.559-.277c-.879-.433-1.754-.867-2.621-1.316l-.617-.317-.621-.316-.844-.434c-3.5-1.8-7.113-3.66-10.637-5.539a108.722,108.722,0,0,1-13.539-8.5c-1.984-1.472-3.957-2.965-5.941-4.469l-.875-.66q-2.5-1.9-5.012-3.781a140.287,140.287,0,0,1-11.781-9.668q-3.937-3.667-7.906-7.3l-3.079-2.836c-4.664-4.308-8.113-7.66-11.191-10.863l-.434-.453-.109-.113c-1.7-1.778-3.633-3.793-5.383-5.883q-2.637-3.17-5.254-6.359c-1.664-2.036-3.144-3.942-4.523-5.825l-.527-.714c-.629-.864-1.157-1.579-1.743-2.29a9.785,9.785,0,0,1-.73-.984l-.207-.32-.07-.11a5.915,5.915,0,0,1-.829-1.554c-.07-.239-.132-.473-.183-.688-2.227-2.539-4.574-5.152-6.6-7.4l-1.73-1.918c-4.489-4.992-8.18-9.008-11.617-12.641-2.4-2.551-4.969-5.179-7.036-7.289q-2.73-2.794-5.445-5.613c-1.773-1.863-3.48-3.832-4.988-5.57l-.106-.122-.511-.589c-1.414-1.633-2.762-3.383-3.84-4.793l-.113-.149-.075-.1q-3.445-4.933-6.871-9.871c-.844-1.215-1.668-2.442-2.492-3.672l-.312-.465-.739-1.09-.324-.477c-.66-.953-1.422-2.07-2.125-3.207l-4.184-6.714q-4.565-7.342-9.144-14.672c-1.02-1.621-2.063-3.2-3.168-4.879-.789-1.188-1.574-2.375-2.344-3.578-2.219-3.453-4.476-7.075-6.9-11.063-.555-.906-1.067-1.816-1.762-3.082l-.738-1.32c-.84-1.469-1.664-2.992-2.516-4.66l-.371-.715-.344-.664-.074-.141c-.551-1.051-1.187-2.277-1.738-3.484l-.864-1.883-1.847-4.031c-4.289-10.465-8.434-21.2-12.313-31.285-.851-2.2-1.7-4.407-2.57-6.7l-.449-1.175-.9-2.352-1.687-4.41c-.922-2.4-1.856-4.785-2.785-7.168l-.422-1.09-.383-.984-.5-1.27q-1.107-2.824-2.211-5.656c-1.152-2.942-2.113-5.457-3.019-7.922-.926-2.488-1.891-5.277-2.95-8.523-1.539-4.661-2.707-9.411-3.836-14l-.468-1.95c-.469-1.882-.875-3.816-1.321-5.964l-.343-1.641c-.61-2.906-1.172-5.805-1.719-8.613-.887-4.61-1.578-9.414-2.192-13.653l-.019-.136-.223-1.536c-1.562-11.9-3.051-23.539-4.058-35.117-.118-1.422-.246-2.844-.379-4.277l-.012-.129c-.391-4.395-.836-9.379-1.082-14.23-.129-2.891-.211-5.543-.254-8.114-.035-3.633.02-7.269.078-10.687.11-5.871.379-11.938.8-18.031.445-6.309,1.133-12.606,1.8-18.512.348-3.055.687-6.114,1.035-9.266.941-8.515,2.012-18.172,3.277-27.734l.668-5.024.266-1.777.035-.219c1.418-9.468,2.883-19.261,5.234-28.707.622-2.48,1.368-5.418,2.208-8.355.656-2.3,1.351-4.6,2.132-7.051q1.693-5.4,3.375-10.793l2-6.387c2.407-7.711,4.747-15.746,6.629-22.2l.114-.379q1-3.428,2-6.855l.363-1.258.847-2.93.247-.851.054-.2.055-.179c1.012-3.532,2.008-6.989,3.066-10.4l.723-2.359.047-.16c.519-1.7,1.039-3.4,1.59-5.09l.683-2.121.684-2.121c.262-.832.6-1.684.9-2.418l.067-.16.339-.84c1.9-4.34,4.122-8.957,6.813-14.117.848-1.629,1.746-3.266,2.617-4.852l.051-.09,1.113-2.023c1.469-2.7,2.758-4.977,3.934-6.953,2.765-4.676,5.722-9.645,8.832-14.481l2.437-3.808.352-.547L80,274.4l.6-.941c1.883-2.937,3.765-5.879,5.676-8.8,2.57-3.965,5.152-8.019,7.66-11.961l.2-.308.277-.43.473-.746c3.211-5.051,6.242-9.82,9.336-14.547l2.422-3.726.468-.719.114-.18c2.054-3.16,4.179-6.426,6.32-9.625,2.711-4.074,5.774-8.4,9.934-14.031l3.621-4.649c.91-1.16,1.89-2.328,2.754-3.355l.082-.1.105-.129c.481-.566.957-1.132,1.43-1.707,3.008-3.629,5.961-6.91,8.707-9.918s5.6-6.019,8.125-8.679l.1-.106.089-.1.563-.594c2.078-2.2,4.094-4.453,6.039-6.641l.734-.82,1.555-1.738c3.426-3.8,6.133-6.774,8.777-9.637.793-.852,1.6-1.695,2.414-2.555l.3-.312,1.442-1.516,1.25-1.324c.922-.977,2.066-2.2,3.2-3.317,2.062-2.031,3.68-3.57,5.246-4.992,1.371-1.234,2.789-2.461,4.223-3.7l.16-.141.2-.171.438-.379c2.57-2.219,5.312-4.4,7.964-6.5l.129-.106,1.739-1.383c2.328-1.769,4.429-3.359,6.574-4.878,1.832-1.309,3.66-2.614,5.5-3.915l2.781-1.98c5.563-3.957,10.16-7.148,14.469-10.035l4.1-2.754,4.1-2.754,1.141-.766.375-.254c.707-.468,1.414-.941,2.1-1.425l.379-.27.941-.668.219-.16c1.188-.844,2.047-1.437,2.883-1.984,3.965-2.606,9.949-6.5,16.117-10.231q2.585-1.571,5.153-3.16l.867-.531.484-.3c3.352-2.07,6.914-4.258,10.387-6.277l3.484-2.039,1.246-.731,1.063-.625.617-.363q2.707-1.583,5.422-3.153l.519-.183.512-.176q1.605-.562,3.195-1.168l.52-.289.832-.453c2.269-1.25,4.7-2.344,6.84-3.309,1.918-.863,3.789-1.718,5.621-2.656,1.6-.828,3.254-1.746,4.789-2.594l.258-.144c2.14-1.192,4.57-2.543,6.988-3.695a51.379,51.379,0,0,1,6.352-2.637l1.078-.356.257-.086c1.836-.605,3.629-1.2,5.372-1.816l.929-.332a62.132,62.132,0,0,1,6.227-2.008c1.812-.441,3.941-.976,6.023-1.586,1.082-.32,2.16-.652,3.239-.984l.636-.2c2.907-.9,5.91-1.836,8.926-2.52,1.805-.414,3.633-.68,5.426-.941.551-.078,1.1-.157,1.648-.242.68-.1,1.367-.215,2.071-.336l.519-.09.285-.047.129-.02c1.035-.175,2.106-.359,3.164-.5q2.514-.327,5.024-.675c2.73-.371,5.465-.743,8.2-1.086l2.605-.328,2.578-.321c2.383-.824,4.887-1.644,7.051-2.347l1.551-.5q7.248-2.373,14.508-4.723c2.379-.777,5.187-1.664,7.965-2.328,1.218-.289,2.429-.6,3.648-.91l.238-.059c1.5-.371,3.024-.629,4.535-.89l1.18-.231.281-.055c.582-.113,1.164-.226,1.75-.308l.231-.036c.042-.009.084-.017.129-.023l-.09,0,.054-.01-.054-.013c.812-.152,1.621-.32,2.43-.492l.312-.067.43-.086c.6-.129,1.2-.257,1.812-.375,1.274-.242,2.559-.468,3.9-.707l.156-.027.312-.055.477-.086.961-.191c1.094-.219,2.16-.43,3.215-.574l.379-.047c.7-.09,1.425-.184,2.144-.289q1.171-.206,2.344-.4l1.523-.257c1.192-.227,2.344-.481,3.52-.778,1.578-.394,3.207-.754,4.984-1.1.766-.144,1.524-.316,2.293-.492l1.586-.363c.4-.082.8-.156,1.192-.23l.4-.079.387-.074q.667-.123,1.336-.258c.441-.086.894-.179,1.343-.277l.258-.055c1.125-.238,2.285-.488,3.461-.652l1.063-.141c.574-.074,1.152-.152,1.715-.23.656-.152,1.308-.313,2.05-.5.856-.215,1.739-.437,2.645-.617,1.789-.336,3.523-.692,5.019-1.031a56.105,56.105,0,0,1,5.782-.891c1.089-.121,2.511-.289,3.832-.508,1.019-.183,1.906-.308,2.789-.4.738-.063,1.488-.16,2.289-.3l.129-.023.144-.024c3.9-.68,7.922-1.2,11.946-1.531l4.273-.656.633-.1,1.59-.047q1.16-.035,2.32-.059c.852-.082,1.707-.16,2.559-.226,2.023-.164,4.105-.426,5.781-.641l.215-.027c1.824-.227,3.55-.441,5.285-.594.8-.066,1.6-.148,2.414-.23.961-.1,1.926-.2,2.89-.274,1.34-.1,2.774-.156,3.926-.2l.219-.012.254-.008c.605-.023,1.211-.046,1.82-.078,2.719-.121,5.567-.367,7.653-.546l.156-.012.191-.016c2.824-.234,5.746-.48,8.653-.574,2.375-.066,5.16-.176,7.824-.473.867-.093,1.738-.2,2.6-.3,1.68-.2,3.36-.394,5.039-.55,2.2-.2,4.493-.227,6.653-.243l.121-.011c.582-.008,1.164-.016,1.746-.028l.7-.011c.934-.02,1.867-.039,2.8-.051.422,0,.844,0,1.269,0l.524,0c.73,0,1.508,0,2.3-.074l1.1-.094c1.09-.094,2.074-.176,3.074-.219.481-.015.958-.023,1.438-.023.6,0,1.195.011,1.816.023l.426,0c2.778.047,5.086.133,7.254.273l.457.043.149.012.144.008.145.012.289.039.293.039.1-.016c1.2.067,2.406.1,3.641.137l.265.008c1.114.031,2.223.062,3.332.109.8.039,1.594.051,2.387.051l1.321,0,.2,0,.191,0h.379c.461,0,.926-.008,1.391-.008.4,0,.8,0,1.2.008,3.984.086,8.336.145,14.1.184,7.008.062,14.032.785,20.824,1.48l.1.008.16.016.9.093.2.024c2.007.2,4.011.406,6.015.586,3.8.316,7.516.687,11.039,1.1l.161.02c2.738.332,6.488.781,10,1.109,1.812.141,3.718.223,5.4.3l.519.02.262.007.246.016c2.574.113,5.238.231,7.844.469l5.477.519.21.02.2.019c2.461.239,4.925.477,7.39.7.9.07,1.793.136,2.7.2l.867.062c3.32.235,6.75.477,10.09.914,5.152.684,9.472,1.309,13.6,1.965,1.738.281,3.477.547,5.215.809l.336.051c2.414.371,5.418.828,8.215,1.316,2.613.465,5.273.977,7.773,1.465q2.4.329,4.793.644l2.391.317c5,.664,10.281,1.258,14.137,1.691l.2.02c3.164.359,6.4.769,9.547,1.168l.82.1,2.437.309c4.321.6,8.661,1.234,12.9,1.883,1.41.218,2.836.476,4.226.73l.379.067.235.043,1.558.281c1.828.328,3.719.785,5.235,1.152l.121.027,1.1.262c1.422.34,2.848.774,4.426,1.266l1.492.457c2.137.64,4.063,1.23,5.981,1.929,4.773,1.727,8.718,3.243,12.054,4.626,6.965,2.964,13.243,5.624,19.532,8.171,2.168.875,4.336,1.746,6.523,2.621l.652.262c3.536,1.418,7.067,2.836,10.59,4.289,3.531,1.68,7.7,3.7,11.832,5.914,3.141,1.68,6.16,3.575,9.082,5.407l.086.054,2.106,1.317c3.91,2.422,7.781,4.957,10.715,6.9,4.609,3.024,9,5.813,13.031,8.293l1.84,1.125.718.438q4.237,2.595,8.473,5.164c1.715,1.031,3.43,2.043,5.188,3.086,1.929,1.14,3.855,2.281,5.769,3.441,4.332,2.625,8.637,5.3,12.789,7.945,1.137.715,2.238,1.508,3.309,2.278l.175.125.258.191c.571.418,1.141.832,1.723,1.238,1.258.891,2.508,1.879,3.762,2.867l.183.145.481.387q1.119.885,2.25,1.758c1.687,1.312,3.207,2.5,4.679,3.726l2.047,1.719,2.047,1.715c.356.3.715.593,1.113.922.743.605,1.582,1.293,2.364,2l2.2,1.992.269.246.547.5c3.641,3.3,7.407,6.707,11.082,10.156l1.743,1.641.871.82.918.867,2.086,1.965c1.523,1.164,2.765,2.133,3.9,3.051.723.586,1.453,1.164,2.184,1.742l.324.258c1.078.856,2.152,1.711,3.215,2.59l2.527,2.105c2.75,2.3,5.711,4.758,8.726,7.141,2.043,1.621,3.735,3,5.34,4.465,1.176,1.078,2.34,2.168,3.5,3.262l.418.39,1.379,1.293.832.778.207.2c1.473,1.375,2.91,2.722,4.3,4.1,1.3,1.3,2.637,2.711,3.73,3.868l.207.218.547.579c3.285,2.855,6.942,6.183,11.516,10.476l3,2.82c.68.649,1.352,1.352,1.98,2.02.336.359.672.715,1.012,1.062l3.656,3.762c.7.731,1.371,1.5,2.106,2.36l.074.085c.34.4.68.793,1.024,1.184q1.774,2.016,3.511,4.063c1.367,1.281,2.489,2.382,3.528,3.472,3.152,3.336,6.336,7.008,10.32,11.914,2.887,3.563,5.926,7.4,8.605,11.356,1.5,2.2,3.082,4.426,4.563,6.5l.242.34c1.316,1.859,2.668,3.765,3.969,5.664,2.59,3.769,5.344,7.808,8.047,12.078,1.129,1.773,2.25,3.637,3.289,5.363l.218.367c1.219,2.035,2.524,4.2,3.864,6.293l.383.594c.988,1.524,2.109,3.254,3.144,5.082,1.293,2.289,2.547,4.43,3.836,6.547l.688,1.121c.882,1.422,2.085,3.371,3.113,5.328.765,1.442,1.5,3,2.113,4.3l.152.313.149.3c.289.614.578,1.223.875,1.832.906,1.832,1.883,3.684,2.887,5.574l.14.274.145.273c1.258,2.348,2.379,4.465,3.4,6.59,2.863,5.891,5.317,12.047,7.688,18l.089.215.168.414c1.141,2.864,2.563,6.426,3.977,9.746.852,1.985,1.676,4.176,2.512,6.707.695,2.078,1.195,4.3,1.6,6.078l.278,1.219.519,2.188.027.152.6,2.531.524,2.235.074.285c.234,1.023.472,2.043.742,3.055.074.281.156.558.254.886.508,1.8,1.039,3.653.156,5.434,1.078,3.574,2.043,6.965,3.391,11.73,2.476,8.742,4.344,17.621,6.195,26.707,1.473,7.27,2.856,14.633,4.2,21.754l.141.742.605,3.215c.45,2.414.883,4.985,1.286,7.407l.148.886c.211,1.258.422,2.512.648,3.77l.477,2.746c.605,3.437,1.207,6.871,1.777,10.32.582,4.86,1.1,9.863,1.535,14.875.364,4.278.579,8.516.786,12.617l.121,2.313c.25,5,.508,10.93.508,16.926C1187.814,507.508,1187.771,512.7,1187.7,518.547Z"/>
      <path class="b" d="M597.591,9.763c-.481,0-.957.008-1.438.024-1,.041-1.984.123-3.075.219l-1.1.093c-.792.069-1.571.075-2.3.075l-.524,0c-.425,0-.847,0-1.269,0-.93.011-1.863.031-2.8.05l-.7.012c-.582.012-1.164.02-1.746.027l-.122.012c-2.158.015-4.449.047-6.653.242-1.679.157-3.359.352-5.039.551-.867.1-1.738.2-2.605.3-2.665.3-5.45.406-7.824.473-2.906.091-5.826.336-8.65.573l-.194.016-.156.012c-2.084.18-4.934.426-7.652.547-.609.031-1.214.054-1.819.077l-.255.009-.217.008c-1.152.045-2.586.1-3.928.2-.965.078-1.93.176-2.891.273-.806.083-1.61.165-2.414.231-1.733.151-3.459.366-5.285.594l-.215.027c-1.675.212-3.759.476-5.781.641-.852.066-1.707.144-2.559.226q-1.159.024-2.32.059l-1.589.047-.634.1-4.274.657c-4.022.335-8.042.85-11.945,1.531l-.145.023-.129.024c-.8.139-1.548.238-2.288.3-.884.089-1.77.215-2.79.4-1.317.217-2.74.385-3.831.508a55.86,55.86,0,0,0-5.779.891c-1.5.336-3.234.692-5.023,1.031-.9.177-1.788.4-2.643.615-.74.19-1.393.354-2.049.5-.565.082-1.143.16-1.717.234l-1.063.141c-1.176.161-2.336.411-3.458.652l-.261.055c-.446.1-.9.191-1.344.277s-.891.176-1.336.258l-.387.074-.394.078c-.4.075-.793.149-1.192.231-.531.117-1.059.238-1.586.359-.769.18-1.531.352-2.3.5-1.777.344-3.406.7-4.981,1.094-1.177.3-2.329.554-3.522.781l-1.524.258q-1.171.194-2.343.4c-.719.105-1.441.2-2.145.289l-.378.046c-1.054.141-2.121.353-3.212.575l-.961.191-.48.086-.313.055-.154.027c-1.343.236-2.629.463-3.905.707-.609.117-1.211.246-1.808.375l-.43.086-.313.066c-.808.172-1.62.34-2.433.493l.11.025-.378.058c-.584.083-1.167.2-1.748.311l-.285.055-1.176.23c-1.513.259-3.04.519-4.535.887l-.238.063c-1.221.31-2.433.618-3.649.91-2.78.663-5.586,1.547-7.965,2.324q-7.26,2.357-14.508,4.723l-1.551.5c-2.163.7-4.67,1.524-7.051,2.348l-2.58.323-2.6.329c-2.739.343-5.473.714-8.2,1.085q-2.513.346-5.023.676c-1.057.143-2.126.325-3.163.5l-.13.022-.286.046-.519.09c-.7.122-1.391.239-2.07.336-.551.086-1.1.164-1.648.243-1.793.26-3.622.525-5.423.937-3.019.685-6.023,1.618-8.928,2.52l-.635.2c-1.079.332-2.157.664-3.239.984-2.082.612-4.213,1.145-6.022,1.586a62.856,62.856,0,0,0-6.228,2.008L328.4,55c-1.742.618-3.535,1.211-5.371,1.817l-.258.086-1.077.355a52.314,52.314,0,0,0-6.353,2.637c-2.417,1.153-4.846,2.5-6.989,3.7l-.258.144c-1.535.851-3.185,1.765-4.789,2.594-1.832.94-3.7,1.793-5.62,2.656-2.142.966-4.569,2.061-6.841,3.309l-.832.453-.52.289q-1.592.6-3.193,1.168l-.512.175-.52.184q-2.721,1.569-5.423,3.155l-.617.361-1.063.625-1.246.731-3.484,2.039c-3.471,2.019-7.034,4.208-10.387,6.277l-.485.3-.867.531q-2.572,1.588-5.152,3.16c-6.167,3.735-12.152,7.628-16.118,10.231-.834.547-1.7,1.14-2.879,1.985l-.219.16-.941.668-.379.269c-.691.485-1.4.957-2.105,1.426l-.375.254-1.141.766-4.1,2.753-4.1,2.754c-4.305,2.889-8.9,6.078-14.469,10.036l-2.777,1.98q-2.76,1.952-5.5,3.914c-2.145,1.52-4.247,3.109-6.575,4.879l-1.738,1.383-.132.1c-2.652,2.106-5.395,4.283-7.962,6.5l-.438.379-.2.172-.162.14c-1.433,1.241-2.851,2.469-4.221,3.7-1.568,1.42-3.186,2.959-5.246,4.992-1.135,1.119-2.28,2.337-3.2,3.317l-1.25,1.324-1.441,1.516-.3.313c-.816.857-1.619,1.7-2.413,2.554-2.646,2.862-5.353,5.834-8.778,9.637l-1.554,1.738-.735.82c-1.947,2.186-3.96,4.445-6.039,6.641l-.562.593-.09.1-.1.106c-2.521,2.66-5.378,5.676-8.125,8.679s-5.7,6.288-8.707,9.919c-.473.574-.949,1.14-1.43,1.707l-.105.129-.081.1c-.865,1.028-1.846,2.194-2.755,3.357l-3.621,4.648c-4.161,5.63-7.225,9.956-9.934,14.028-2.139,3.2-4.265,6.468-6.321,9.625l-.113.18-.469.719-2.422,3.727c-3.092,4.729-6.125,9.5-9.336,14.546l-.472.747-.278.429-.2.312c-2.508,3.941-5.088,8-7.661,11.958q-2.864,4.383-5.674,8.8l-.6.941-.364.57-.351.547-2.438,3.809c-3.108,4.837-6.067,9.806-8.832,14.48-1.177,1.978-2.463,4.252-3.934,6.954l-1.113,2.023-.051.09c-.871,1.586-1.769,3.223-2.617,4.852-2.69,5.162-4.919,9.78-6.813,14.118l-.34.84-.066.16c-.3.734-.637,1.587-.9,2.419L51.5,327.38l-.684,2.121c-.551,1.691-1.07,3.391-1.59,5.09l-.047.16-.722,2.359c-1.059,3.415-2.055,6.87-3.067,10.4l-.051.18-.058.195-.246.851-.846,2.928-.365,1.26q-1.008,3.427-2,6.855l-.113.379c-1.881,6.457-4.221,14.492-6.629,22.2l-2,6.387q-1.683,5.4-3.375,10.793c-.779,2.447-1.477,4.753-2.133,7.051-.84,2.937-1.585,5.872-2.2,8.356-2.355,9.445-3.819,19.236-5.234,28.7l-.035.218-.266,1.778-.668,5.023c-1.268,9.566-2.336,19.219-3.278,27.736-.347,3.151-.687,6.21-1.034,9.265-.666,5.907-1.354,12.2-1.8,18.512-.422,6.1-.692,12.161-.8,18.032-.059,3.416-.113,7.056-.078,10.687.039,2.57.122,5.224.254,8.114.244,4.853.689,9.835,1.082,14.231l.011.129c.133,1.433.262,2.855.379,4.277,1.006,11.579,2.494,23.219,4.059,35.118l.223,1.535.019.135c.611,4.239,1.3,9.043,2.192,13.654.544,2.806,1.107,5.707,1.718,8.614l.344,1.641c.443,2.147.848,4.078,1.317,5.961l.472,1.949c1.129,4.6,2.295,9.346,3.833,14,1.059,3.248,2.024,6.037,2.949,8.524.909,2.464,1.869,4.981,3.019,7.922q1.1,2.829,2.211,5.656l.5,1.269.382.985.425,1.09q1.4,3.574,2.782,7.167l1.688,4.411.9,2.351.45,1.178c.876,2.292,1.718,4.5,2.57,6.7,3.879,10.091,8.024,20.819,12.312,31.286l1.848,4.031.863,1.883c.554,1.208,1.188,2.432,1.739,3.485l.074.14.344.665.371.714c.854,1.666,1.677,3.19,2.516,4.661l.738,1.32c.7,1.266,1.207,2.176,1.762,3.082,2.423,3.989,4.679,7.608,6.9,11.063.77,1.2,1.555,2.391,2.344,3.578,1.106,1.675,2.149,3.255,3.168,4.879q4.588,7.323,9.145,14.669l4.183,6.718c.7,1.136,1.466,2.251,2.126,3.207l.324.477.738,1.089.313.465c.824,1.231,1.648,2.457,2.492,3.672q3.427,4.94,6.871,9.871l.074.1.113.148c1.081,1.407,2.425,3.16,3.841,4.79l.512.59.1.121c1.507,1.738,3.214,3.708,4.989,5.571q2.706,2.824,5.445,5.613c2.065,2.112,4.635,4.741,7.035,7.289,3.437,3.633,7.128,7.65,11.617,12.641l1.731,1.918c2.023,2.246,4.371,4.859,6.6,7.4.049.215.111.449.182.688a6.085,6.085,0,0,0,.829,1.557l.07.109.207.321a9.855,9.855,0,0,0,.732.981c.585.714,1.112,1.429,1.741,2.289l.528.718c1.379,1.882,2.859,3.786,4.524,5.821,1.738,2.129,3.5,4.246,5.253,6.36,1.751,2.092,3.681,4.106,5.384,5.883l.109.113.434.453c3.076,3.205,6.527,6.556,11.192,10.864l3.078,2.836q3.96,3.645,7.906,7.3a140.32,140.32,0,0,0,11.782,9.668q2.514,1.881,5.012,3.782l.872.66c1.985,1.5,3.957,3,5.944,4.468a108.9,108.9,0,0,0,13.537,8.5c3.525,1.877,7.14,3.738,10.636,5.538l.844.435.621.316.617.317c.868.449,1.743.883,2.622,1.316l.558.277c1.016.5,2.008.985,3,1.489l.981.5c1.541.795,3.289,1.695,5.066,2.492a153.538,153.538,0,0,0,14.63,5.794c2.191.74,4.3,1.672,6.347,2.573l.246.106c1.7.75,3.395,1.484,5.094,2.219l.863.371,1.649.711a84.318,84.318,0,0,0,8.481,3.09c1.792.742,3.546,1.468,5.3,2.2q1.922.8,3.836,1.617c2.558,1.084,6.06,2.568,9.454,3.9l1.222.48c3.578,1.41,8.479,3.341,13.176,5.012l2.383.855c1.637.59,3.278,1.18,4.922,1.746l1.746.614.192.066.1.039c1.659.586,3.158,1.109,4.692,1.578q5.4,1.665,10.82,3.293l-.775-.331-.781-.312-5.309-1.915c-3.949-1.425-7.9-2.851-11.855-4.246l-12-4.242-1.119-.391-.268-.093-.282-.1-.132-.047-.391-.137c-1.281-.448-2.606-.912-3.867-1.406l-6.386-2.519-5.739-2.262q-.931-.369-1.875-.73c-1.7-.658-3.621-1.4-5.429-2.207l-.1-.044.565.21c.875.3,1.771.56,2.685.825l.254.074c1.94.61,3.945,1.305,5.713,1.918l.338.117.132.047c1.118.387,2.239.774,3.36,1.153,4.259,1.444,7.552,2.494,10.68,3.406l1.23.379c1.11.344,2.219.687,3.336,1,.6.171,1.216.331,1.827.491l.143.036.484.129.261.071.568.151.483.13,2.039.64.441.141.25.078c2.584.816,5.256,1.661,7.935,2.3,1.578.383,3.262.8,4.964,1.277.859.25,1.727.477,2.586.7l.176.043.1.024.523.137c.531.136,1.058.273,1.586.417l1.382.434c1.164.37,3.33,1.059,5.337,1.559.379.093.758.191,1.132.289l.512.133.469.121c.473.121.945.242,1.418.355.914.232,1.878.391,2.653.52.434.074.817.14,1.2.211,2.781.5,5.148.984,7.449,1.519q.852.2,1.706.414l.153.039c1.542.378,3.2.783,4.813,1.063l.313.051c4.338.742,9.247,1.582,13.8,2.843.652.184,1.3.367,1.949.555l.164.047.258.074.129.037c1.418.4,2.884.817,4.336,1.154,2.494.589,4.827,1.052,7.129,1.415l4.372.679,4.371.684c.8.289,1.608.578,2.42.855q2.339.8,4.676,1.613l.551.192c3.771,1.3,8.046,2.78,12.234,4.07l5.7,1.762,5.93,1.832c2.01.625,4.241,1.249,5.718,1.661l.22.062.5.144,2.371.668.484.141c2.28.658,4.8,1.384,7.231,2l.418.105,1.847.473,4.5,1.147,4.873,1.244c2.041.525,4.194.97,5.924,1.327l.174.036.383.078,2.07.441c.574.121,1.148.246,1.722.37l.891.193.144.035c1.77.391,3.536.778,5.305,1.133l3.508.7.883.18.469.094.168.033c4.526.907,9.2,1.845,13.812,2.709q10.623,1.992,21.262,3.926c4.267.779,8.617,1.364,12.825,1.929l.238.032,3.223.437.344.039.594.063q4.194.468,8.39.925,1.014.113,2.027.235l.121.015c1.379.165,2.977.351,4.5.473q2.192.164,4.39.348l.176.015c4.143.34,8.427.691,12.641.856q3.838.141,7.672.289l3.84.144.426.02c.558.02,1.117.027,1.68.027,1,0,2-.027,3-.054l.547-.012c.528-.012,1.035-.024,1.543-.031q3.222-.042,6.441-.086c.457-.012.821-.012,1.184-.012.7,0,1.4,0,2.086-.035l4.352-.223,4.347-.219c.864-.046,1.731-.085,2.6-.125,1.6-.065,3.489-.151,5.348-.289l4.519-.343,4.516-.34c.855.008,1.71.015,2.566.015,1.6,0,3.12-.021,4.645-.066,2.242-.066,4.5-.094,6.812-.121,2.661-.028,5.334-.056,7.91-.152,1.782-.071,3.555-.157,5.332-.247,2.462-.127,5.833-.3,9-.355,5.189-.1,10.344-.341,15.321-.711,2.881-.218,5.934-.294,8.388-.355l.174,0,.512-.012.176-.008c1.757-.045,3.945-.1,6.031-.219q2.283-.126,4.565-.237l.361-.016.578-.032.537-.028c2.917-.15,5.933-.306,8.881-.534,2.11-.168,4.211-.371,6.313-.578l.379-.039c2.339-.227,4.757-.461,7.175-.629l2.352-.164c4.143-.282,8.37-.569,12.508-1.172l.621-.09q.762-.052,1.523-.094c1.458-.085,2.932-.228,4.358-.366l.217-.021.171-.015.18-.02c.719-.074,1.367-.136,2.016-.2,1.287-.122,2.57-.226,3.856-.329l-.6.11c-.693.147-1.383.318-2.071.488l-.457.118c.93-.071,1.846-.171,2.761-.271,3.967-.429,8.321-.941,13.7-1.612.983-.082,2.044-.178,3.136-.336l.154-.024c.489-.074.98-.149,1.468-.226l.48-.075.192-.031c.359-.051.718-.1,1.073-.14l.208-.028c2.23-.308,4.425-.617,6.617-.929.7-.1,1.387-.192,2.082-.282l.343-.043c1.262-.168,2.52-.336,3.77-.542,4.5-.734,8.932-1.481,13.157-2.219,7.979-1.4,16.046-2.9,23.574-4.317.691-.133,1.383-.261,2.074-.39,3.975,2.957,7.679,5.592,11.319,8.054l-.12-.008a5.932,5.932,0,0,0-.8.117l-.438.086-.418.083c.53.51,1.056.984,1.576,1.45,2.966,2.668,5.862,5.158,8.854,7.61,4.5,3.409,9.124,6.653,13.59,9.789l1.9,1.329c4.784,3.372,9.428,6.984,13.918,10.476l.105.086,1.848,1.437,1.207.93c1.762,1.352,3.516,2.7,5.254,4.082l.816.645.083.062.079.063c3.864,3.061,7.86,6.226,11.576,9.667,3.462,3.2,7.339,6.728,12.2,11.114,2.512,2.257,5.119,4.5,7.641,6.663l.223.2.2.172.227.191.082.071c1.186,1.018,2.342,2.011,3.492,3.015,4.217,3.664,8.421,7.217,12.5,10.559,4.125,3.18,8.525,6.555,12.985,9.805,3.711,2.7,7.621,5.364,11.07,7.715l.129.086.129.086,2.574,1.754c5.513,3.77,9.913,6.966,13.847,10.058,3.861,3.029,7.892,6.337,13.071,10.726,3.463,2.931,6.853,6,10.132,8.971l.113.1.3.278,1.281,1.164c3.428,3.1,6.992,6.1,10.895,9.168q2.069,1.553,4.149,3.1l.93.691.672.5.918.68.242.18q1.476,1.1,2.945,2.2c1.336,1,2.66,2,3.984,3,2.144,1.623,4.169,3.157,6.231,4.664,6.136,4.485,12.734,9.125,20.762,14.6,4.344,2.965,8.756,5.94,13.113,8.844,3.188,2.129,6.5,4.194,9.7,6.191l.176.11.265.164.461.285,2.637,1.636,1.469.918.174.11c3.325,2.08,7.462,4.669,11.467,6.969,3.935,2.267,8,4.611,12.329,6.578a52.114,52.114,0,0,0,7.127,1.962,61.879,61.879,0,0,0,6.662.383c1.393,0,2.782-.061,4.13-.18a26.56,26.56,0,0,0,3.873-1.059,34.991,34.991,0,0,0,5.007-2.989,38.321,38.321,0,0,0,3.282-3.06c.247-.381.474-.76.685-1.151a51.842,51.842,0,0,0,2.033-8.53c.517-4.285.831-7.946.988-11.521a73.917,73.917,0,0,0-.543-11.263c-.833-5.182-2.064-10.315-3.254-15.279l-.027-.1-.364-1.5-.25-1.055c-1.351-5.648-2.749-11.489-4.371-17.219-1.751-6.189-3.955-12.528-5.9-18.122l-.084-.245c-1.33-3.834-2.7-7.8-3.955-11.72-1.6-5.026-3.224-10.3-4.531-14.535l-.14-.457-.082-.265-.145-.469c-1.473-4.775-3-9.713-4.551-14.539q-1.5-4.687-3.027-9.371l-.067-.215c-1.994-6.147-4.477-13.8-6.691-21.059q-2.262-7.446-4.574-14.879c-1.526-4.891-3.3-9.953-4.723-14.019l-.375-1.075-.258-.734-.082-.234-.034-.1c-1.57-4.511-3.195-9.174-4.587-13.828q-.521-1.752-1.035-3.507c-1.005-3.43-2.257-7.7-3.586-11.657-1.31-3.948-2.858-7.952-4.223-11.485l-.054-.141c-2.118-5.5-4.308-11.192-5.906-16.913l-.215-.742c-1.183-4.241-2.655-9.52-4.211-14.414-1.011-3.2-2.207-6.53-3.168-9.2-.582-1.621-1.133-3.16-1.672-4.7-.418-1.2-.867-2.395-1.317-3.586l-.191-.516c-.383-1.023-.762-2.043-1.125-3.074-.726-2.095-1.494-4.443-2.347-7.179-1.76-5.736-3.271-10.147-4.9-14.306l-.106-.246-.062-.144-.064-.148c-1.049-2.432-2.134-4.946-3.053-7.481-.485-1.347-.969-2.687-1.465-4.023.012-.176.012-.368.008-.559,0-.227-.007-.389-.007-.547l0-.176,0-.445,0-.461c0-.664,0-1.351.063-2.023l.156-.811.023-.129.141-.742-.069.147a3.077,3.077,0,0,0,.105-.362,18.782,18.782,0,0,1,.643-1.975,33.265,33.265,0,0,1,2.812-4.732l.21-.285.106-.145.269-.355,1.24-.932c1.5-1.125,2.977-2.234,4.45-3.355,3.129-2.465,5.683-4.6,8.036-6.735a93.976,93.976,0,0,0,6.719-6.993l.855-.949c.788-.874,1.569-1.829,2.2-2.6l.078-.095.36-.434.656-.793.285-.347c.859-1.028,1.715-2.055,2.559-3.094q3.439-4.23,6.851-8.48,1.671-2.24,3.317-4.493c.484-.594.957-1.2,1.41-1.821.551-.755,1.061-1.558,1.579-2.383l.164-.261.277-.45c1.248-1.966,2.587-3.956,3.98-5.913l.735-1.032c1.075-1.492,2.413-3.35,3.523-5.207,1.151-1.912,2.388-3.861,3.676-5.793.277-.414.558-.824.84-1.234.845-1.234,1.8-2.634,2.617-4.094q1.278-2.3,2.543-4.6c1.657-3.012,3.3-5.989,4.969-8.946,2.36-4.157,4.483-8.361,6.426-12.285q.645-1.288,1.3-2.574l.293-.578.273-.539c.352-.7.7-1.4,1.043-2.1l.789-1.61c.723-1.483,1.438-2.948,2.188-4.374,2.573-4.847,4.861-9.238,6.8-13.9,1.009-2.421,1.886-4.927,2.629-7.086q.446-1.284.895-2.555l.175-.5c.508-1.453,1.016-2.91,1.489-4.375.43-1.324.875-2.641,1.32-3.957l.156-.473c.524-1.539,1.043-3.078,1.539-4.625l2.738-5.8.152-.329c3.065-6.485,6.23-13.5,8.122-17.695l.375-.828c5.087-11.22,10.184-22.923,14.562-33.012q1.785-4.512,3.553-9.024l.041-.105,1.059-2.7c.132-.336.269-.668.41-1,.333-.806.6-1.475.816-2.134l1.293-3.9.375-1.145q.681-2.038,1.348-4.074l.051-.156c.387-2.533.739-5.056,1.082-7.576,1.239-10.544,2.343-19.427,3.7-28.5.747-5.017,1.543-9.9,2.36-14.878q.95-5.824,1.867-11.653c.666-5.018,1.258-9.536,1.758-14,.621-5.711,1.189-11.515,1.688-17.251.419-4.913.557-10.192.667-14.434l.008-.218.024-.754c.163-6.353.262-12.974.328-17.356.076-5.842.117-11.04.121-15.449,0-6-.257-11.921-.508-16.927l-.121-2.312c-.206-4.1-.419-8.339-.785-12.618-.436-5.011-.952-10.016-1.535-14.875-.571-3.45-1.173-6.883-1.778-10.321l-.476-2.746c-.225-1.255-.436-2.512-.648-3.767l-.149-.889c-.4-2.42-.833-4.992-1.285-7.407l-.606-3.214-.141-.743c-1.34-7.121-2.725-14.484-4.2-21.75-1.851-9.087-3.717-17.968-6.191-26.707-1.349-4.767-2.314-8.159-3.391-11.731.88-1.781.351-3.638-.16-5.433-.1-.331-.179-.607-.25-.887-.27-1.012-.508-2.031-.746-3.055l-.071-.285-.526-2.235-.6-2.53-.031-.152-.515-2.188-.282-1.219c-.4-1.783-.906-4-1.6-6.079-.839-2.531-1.661-4.725-2.513-6.708-1.416-3.321-2.837-6.883-3.979-9.746l-.165-.414-.09-.215c-2.372-5.95-4.825-12.1-7.688-18-1.023-2.126-2.146-4.243-3.4-6.59l-.145-.274-.14-.273c-1-1.891-1.981-3.74-2.887-5.574-.3-.61-.586-1.219-.875-1.832l-.148-.305-.153-.312c-.61-1.293-1.347-2.855-2.113-4.3-1.028-1.958-2.233-3.907-3.114-5.329l-.687-1.121c-1.29-2.115-2.545-4.257-3.836-6.547-1.036-1.828-2.156-3.557-3.145-5.082l-.383-.594c-1.34-2.1-2.643-4.258-3.863-6.293l-.219-.367c-1.038-1.726-2.159-3.588-3.289-5.364-2.7-4.267-5.457-8.306-8.047-12.078-1.3-1.9-2.652-3.805-3.969-5.66l-.242-.34c-1.482-2.073-3.06-4.3-4.562-6.5-2.679-3.954-5.719-7.793-8.606-11.352-3.984-4.906-7.168-8.581-10.321-11.915-1.038-1.09-2.159-2.194-3.528-3.473q-1.739-2.049-3.511-4.062-.514-.585-1.023-1.183l-.074-.086c-.736-.859-1.4-1.63-2.106-2.36l-3.656-3.762c-.34-.347-.676-.7-1.012-1.062-.629-.668-1.3-1.374-1.981-2.02l-3-2.82c-4.572-4.293-8.231-7.622-11.516-10.477l-.546-.578-.207-.218c-1.093-1.156-2.43-2.571-3.731-3.868-1.391-1.375-2.828-2.723-4.3-4.1l-.207-.2-.832-.777-1.379-1.293-.418-.391c-1.164-1.094-2.328-2.184-3.5-3.262-1.605-1.466-3.3-2.845-5.34-4.465-3.015-2.384-5.976-4.841-8.726-7.141l-2.528-2.105c-1.062-.879-2.137-1.734-3.215-2.59l-.324-.258c-.73-.578-1.461-1.156-2.184-1.742-1.136-.918-2.378-1.887-3.9-3.051l-2.085-1.964-.918-.867-.871-.821-1.742-1.64c-3.675-3.448-7.44-6.858-11.08-10.155l-.549-.5-.27-.246-2.2-1.992c-.779-.7-1.62-1.389-2.362-2-.4-.329-.76-.625-1.115-.922L984.66,119.8l-2.047-1.719c-1.47-1.229-2.989-2.415-4.68-3.726q-1.131-.873-2.25-1.758l-.48-.387-.184-.145c-1.253-.988-2.5-1.975-3.762-2.867-.578-.406-1.148-.82-1.719-1.238l-.261-.192-.175-.125c-1.068-.768-2.173-1.562-3.306-2.277-4.155-2.648-8.458-5.321-12.79-7.946-1.914-1.16-3.84-2.3-5.769-3.441-1.76-1.041-3.476-2.056-5.188-3.086q-4.242-2.56-8.472-5.164l-.719-.438-1.84-1.125c-4.038-2.479-8.422-5.269-13.031-8.292-2.936-1.939-6.807-4.476-10.715-6.9l-2.105-1.316-.086-.055c-2.923-1.832-5.945-3.726-9.083-5.407-4.134-2.215-8.3-4.233-11.832-5.914-3.524-1.453-7.056-2.871-10.591-4.289l-.652-.262c-2.188-.875-4.356-1.746-6.523-2.621-6.289-2.544-12.566-5.206-19.532-8.172-3.336-1.383-7.279-2.9-12.055-4.625-1.919-.7-3.844-1.287-5.981-1.93l-1.492-.457c-1.578-.49-3-.924-4.426-1.266l-1.1-.258-.119-.028c-1.517-.367-3.4-.824-5.233-1.151l-1.558-.282-.235-.043-.379-.066c-1.391-.254-2.816-.512-4.227-.731-4.242-.65-8.582-1.284-12.9-1.882l-2.438-.309-.822-.1c-3.146-.4-6.38-.806-9.545-1.166l-.205-.023c-3.855-.432-9.134-1.024-14.135-1.687l-2.39-.317q-2.4-.317-4.793-.644c-2.5-.489-5.16-1-7.773-1.465-2.8-.489-5.8-.948-8.218-1.317l-.333-.05c-1.739-.262-3.477-.528-5.215-.809-4.131-.658-8.453-1.282-13.6-1.965-3.342-.44-6.772-.682-10.089-.916l-.869-.06c-.9-.067-1.8-.133-2.695-.2-2.465-.218-4.929-.457-7.39-.7l-.2-.019-.212-.02-5.476-.52c-2.607-.238-5.27-.355-7.844-.468l-.246-.016-.262-.008-.519-.023c-1.684-.074-3.592-.159-5.4-.3-3.514-.33-7.262-.781-10-1.109l-.16-.02c-3.524-.415-7.238-.786-11.04-1.1-2-.182-4.007-.385-6.017-.589l-.2-.021-.9-.094-.16-.015-.1-.011c-6.792-.7-13.816-1.415-20.823-1.478-5.768-.041-10.117-.1-14.1-.183-.4-.008-.8-.008-1.2-.008-.465,0-.93,0-1.391.008h-.379l-.191,0h-.2l-1.321.007c-.793,0-1.589-.012-2.386-.051-1.11-.047-2.219-.078-3.332-.109l-.264-.008c-1.238-.036-2.439-.071-3.642-.137l-.1.016-.29-.04-.289-.038-.145-.012-.145-.008-.148-.012-.457-.043c-2.171-.143-4.476-.23-7.255-.273l-.425,0c-.622-.012-1.219-.024-1.817-.024Z"/>
    </g>
    <g>
      <path class="c" d="M894.225,404.131a13.291,13.291,0,0,0-2.238.793,26.518,26.518,0,0,0-4.055,1.992,42.459,42.459,0,0,0-4.793,3.777q-1.583,1.361-3.2,2.663a26.4,26.4,0,0,1-3.4,2.029,21.45,21.45,0,0,1-2.4.653,47.061,47.061,0,0,1-7.7-.22,94.688,94.688,0,0,1-15.623-3.723c-2.844-.96-5.629-2.1-8.433-3.179q-4.032-1.546-8.11-2.957a37.375,37.375,0,0,0-5.789-1.434,57.584,57.584,0,0,0-7.766-.894,26.729,26.729,0,0,0-6.726.793,32.31,32.31,0,0,0-5.926,2.14,53.794,53.794,0,0,0-9.574,5.746c-2.434,1.735-4.793,3.571-7.234,5.3a46.482,46.482,0,0,1-6.953,4.069,27.464,27.464,0,0,1-3.786,1.063,28.733,28.733,0,0,1-4.139,0,39.82,39.82,0,0,1-6.475-1.963,79.97,79.97,0,0,1-9.425-5.035q-2.567-1.641-5.14-3.281a44.688,44.688,0,0,0-5.934-3.285c-1.16-.508-2.32-.989-3.508-1.418a24.515,24.515,0,0,0-5.5-1.063,14.912,14.912,0,0,0-4.039.352,17.685,17.685,0,0,0-3.621,1.05,31.828,31.828,0,0,0-5.492,2.856,53.4,53.4,0,0,0-5.649,4.293c-2.884,2.482-5.54,5.208-8.372,7.747a32.087,32.087,0,0,1-4.113,2.651c-.832.256-1.667.467-2.517.644a17.307,17.307,0,0,1-1.933-.013,43.83,43.83,0,0,1-6.941-2.134c-1.7-.772-3.377-1.568-5-2.5a58.215,58.215,0,0,1-5.957-3.964c-1.894-1.434-3.754-2.918-5.7-4.282a50.816,50.816,0,0,0-5.129-3.273,22.9,22.9,0,0,0-12.012-2.555,31.941,31.941,0,0,0-16.871,6.4c-2.348,1.718-4.629,3.507-6.84,5.4-3.891,3.338-7.638,6.865-11.612,10.105a27.029,27.029,0,0,1-3.4,2.035c-.351.116-.7.223-1.054.32q-.126-.038-.249-.078a23.732,23.732,0,0,1-2.617-1.564,61.746,61.746,0,0,1-8.3-9.013q-1.518-1.968-3.049-3.926c-.469-.6-.969-1.176-1.457-1.762a24.061,24.061,0,0,0-4.231-3.953,14.061,14.061,0,0,0-2.363-1.461,12.284,12.284,0,0,0-11.59.25,28.1,28.1,0,0,0-6.675,5.012c-5.292,5.081-9.523,11.282-15.2,15.963a24.3,24.3,0,0,1-2.218,1.431c-.491.141-.986.249-1.488.342a16.578,16.578,0,0,1-1.8.019c-.733-.21-1.446-.454-2.155-.722-1.194-.573-2.361-1.171-3.528-1.81a30.986,30.986,0,0,1-3.344-2.223c-.687-.564-1.362-1.136-2.016-1.746-.968-.914-1.875-1.875-2.789-2.844-1.777-1.875-3.4-3.918-5.066-5.891-.4-.468-.793-.925-1.2-1.382a22.564,22.564,0,0,0-4.231-3.516,12.722,12.722,0,0,0-2.566-1.172,11.479,11.479,0,0,0-3.449-.75,10.525,10.525,0,0,0-4.637.527,16.387,16.387,0,0,0-5.293,3.223,23.427,23.427,0,0,0-3.441,4.035l-1.671,2.2a79.051,79.051,0,0,1-9.892,10.975,32.378,32.378,0,0,1-3.953,2.367c-.284.091-.566.173-.853.245-.683.02-1.355.008-2.031-.037a24.243,24.243,0,0,1-2.744-.818,85.622,85.622,0,0,1-10.825-6.5q-2.573-1.728-5.153-3.437-1.5-.991-3-1.977c-1.168-.773-2.375-1.492-3.609-2.164a45.567,45.567,0,0,0-4.5-1.965,41.472,41.472,0,0,0-8.563-2.676,18.759,18.759,0,0,0-5.429-.265,22.011,22.011,0,0,0-3.172.508,20.591,20.591,0,0,0-2.715,1.074,25.182,25.182,0,0,0-7.273,5.07,28.32,28.32,0,0,0-2.661,3.356l-1.1,1.511c-1.188,1.621-2.242,3.348-3.32,5.043-.981,1.537-2,3.041-3.05,4.529a54.567,54.567,0,0,1-6.279,6.487,30.947,30.947,0,0,1-4.22,2.5,32.464,32.464,0,0,1-4.594,1.2c-.566.035-1.122.051-1.687.044-.629-.158-1.244-.353-1.855-.572a28.125,28.125,0,0,1-3.507-2.106,56,56,0,0,1-7.5-8.219q-1.683-2.2-3.383-4.39a33.616,33.616,0,0,0-2.816-3.149,24.192,24.192,0,0,0-3.344-2.7,16.365,16.365,0,0,0-1.941-1.211c-.949-.426-1.906-.84-2.871-1.23a28.063,28.063,0,0,0-4.07-.692c-.325.02-.649.039-.973.055q-1.512.159-3,.449a18.635,18.635,0,0,0-3.816,1.375,34.025,34.025,0,0,0-4.067,2.106c-1.594.949-3.121,2.047-4.637,3.113-2.836,1.992-5.66,4.008-8.546,5.922a72,72,0,0,1-9.038,5.352,25.412,25.412,0,0,1-3.264.959c-.5.01-1,0-1.5-.027-.611-.13-1.209-.282-1.811-.463a28.052,28.052,0,0,1-3.6-2.235c-2.947-2.568-5.5-5.554-8.349-8.227a55.209,55.209,0,0,0-5.578-4.492,29.41,29.41,0,0,0-4.281-2.672,19.259,19.259,0,0,0-3.364-1.285,13.58,13.58,0,0,0-5.007-.144,16.009,16.009,0,0,0-8.157,3.031,44.7,44.7,0,0,0-4.191,3.574c-1.215,1.18-2.336,2.469-3.481,3.715a103.548,103.548,0,0,1-9.513,9.294,18,18,0,0,1-2.247,1.317,27.62,27.62,0,0,1-4.226,1.116,22.861,22.861,0,0,1-2.906.093c-.276-.06-.549-.128-.821-.208-.082-.048-.164-.1-.245-.148a21.5,21.5,0,0,1-1.8-1.9,53.868,53.868,0,0,1-5.248-9.669,52.59,52.59,0,0,1-2.537-8.331c-.213-2.4-.312-4.816-.415-7.224a6.887,6.887,0,1,0-13.773,0,77.877,77.877,0,0,0,1.082,11.937,47.512,47.512,0,0,0,2.074,6.57c.414,1.153.887,2.278,1.36,3.407,1.035,2.484,2.2,4.882,3.472,7.254a36.683,36.683,0,0,0,4.18,6.23,21.129,21.129,0,0,0,2.285,2.406,15.164,15.164,0,0,0,5.52,3.215,28.517,28.517,0,0,0,5.421.883,25.188,25.188,0,0,0,5.493-.449,31.972,31.972,0,0,0,3.925-.778,34.161,34.161,0,0,0,5.059-1.984,20.07,20.07,0,0,0,3.93-2.711c1.187-.937,2.328-1.922,3.418-2.973.933-.9,1.867-1.789,2.773-2.711,1.567-1.6,3.074-3.238,4.539-4.933a60.7,60.7,0,0,1,5.542-5.893c.051-.031.1-.061.155-.091.163-.05.328-.094.493-.134.256-.018.509-.031.765-.036a32.115,32.115,0,0,1,3.722,2.488c3.164,2.77,5.934,5.894,8.819,8.943a42.459,42.459,0,0,0,6.524,5.379,22.265,22.265,0,0,0,19.344,2.469,45.363,45.363,0,0,0,5.675-2.422,84.316,84.316,0,0,0,10.68-6.637c4.086-2.755,8.053-5.835,12.453-8.077.418-.145.837-.273,1.263-.387.321.182.635.374.95.576a28.817,28.817,0,0,1,3.08,3.2c2.548,3.358,5.068,6.742,7.852,9.914a33.623,33.623,0,0,0,10.886,8.394,37.611,37.611,0,0,0,4.274,1.664,19.763,19.763,0,0,0,4.851.731,27.765,27.765,0,0,0,5.5-.567,27.368,27.368,0,0,0,5.5-1.5c8.258-3,14.547-9.468,19.586-16.441,2.318-3.2,4.329-6.608,6.625-9.828a20.418,20.418,0,0,1,1.655-1.725c.65-.416,1.316-.794,2-1.144l.115-.031c.4-.016.786-.017,1.183,0a43.973,43.973,0,0,1,7,2.273,65.649,65.649,0,0,1,8.18,4.969q2.659,1.762,5.3,3.554a71.294,71.294,0,0,0,13.094,7.4,25.587,25.587,0,0,0,9.878,1.851,18.719,18.719,0,0,0,5.2-.8,27.933,27.933,0,0,0,4.547-1.993c4.6-2.343,8.261-6.035,11.664-9.832,2.779-3.1,5.321-6.4,7.846-9.716,1.371,1.49,2.619,3.125,3.912,4.642a66.373,66.373,0,0,0,5.171,5.473,47.22,47.22,0,0,0,17.168,10.078,13.043,13.043,0,0,0,3.129.547,12.514,12.514,0,0,0,2.446.2,14.426,14.426,0,0,0,1.75-.148c1.394-.157,2.773-.375,4.152-.61a16.866,16.866,0,0,0,4.629-1.839,30.566,30.566,0,0,0,4.7-3.356,61.944,61.944,0,0,0,7.809-7.809c3.039-3.421,5.853-6.971,9.279-10a51.192,51.192,0,0,1,3.316,3.971,110.852,110.852,0,0,0,7.577,9.2,41.576,41.576,0,0,0,5.64,4.938,25.806,25.806,0,0,0,6.262,3.351,14.888,14.888,0,0,0,4.238.922,18.677,18.677,0,0,0,4.992-.461,19.529,19.529,0,0,0,4.059-1.527,27.724,27.724,0,0,0,4.035-2.207,56.62,56.62,0,0,0,5.406-4.293q2.351-2.01,4.649-4.062,3.843-3.426,7.806-6.7a45.769,45.769,0,0,1,6.123-3.864,28.163,28.163,0,0,1,3.923-1.087,18.565,18.565,0,0,1,2.149-.014c.555.128,1.1.271,1.639.439a54.7,54.7,0,0,1,7.266,4.829c2.02,1.5,4,3.043,6.039,4.512a47.934,47.934,0,0,0,6.445,3.719,61.035,61.035,0,0,0,7.7,3.257c3.937,1.332,8.074,2.34,12.258,1.918a26.834,26.834,0,0,0,10.679-3.34,38.634,38.634,0,0,0,4.352-3.082,76.549,76.549,0,0,0,6.691-5.992c1.435-1.382,2.919-2.688,4.455-3.952a36.925,36.925,0,0,1,4.33-2.732c.457-.151.916-.281,1.385-.394q.231,0,.462,0c.776.206,1.532.444,2.285.717a84.283,84.283,0,0,1,8.767,5.257,78.543,78.543,0,0,0,6.879,4.007c2.859,1.446,5.765,2.727,8.73,3.938a32.43,32.43,0,0,0,12.82,2.2,30.662,30.662,0,0,0,11.77-2.8,34.725,34.725,0,0,0,3.863-1.922c2.239-1.34,4.383-2.774,6.512-4.282,4.463-3.159,8.623-6.632,13.576-8.994a27.835,27.835,0,0,1,4.062-1.155,30.746,30.746,0,0,1,4.037.154,41.167,41.167,0,0,1,7.126,1.71c1.164.406,2.344.785,3.5,1.223q3.41,1.282,6.808,2.594a94.113,94.113,0,0,0,14.43,4.6,85.571,85.571,0,0,0,16.8,2.211,31.359,31.359,0,0,0,5.48-.5,25.629,25.629,0,0,0,5.95-1.883,32.108,32.108,0,0,0,7.171-4.539c1.713-1.337,3.336-2.772,5-4.161a19.427,19.427,0,0,1,1.944-1.19c.511-.17,1.025-.313,1.553-.432a27.574,27.574,0,0,1,3.971.108q2.418.4,4.812.914a8.315,8.315,0,0,0,6.164-.805,8.056,8.056,0,0,0,3.676-4.777c1.109-4.036-1.329-8.907-5.586-9.84a75.731,75.731,0,0,0-8.2-1.407,33.044,33.044,0,0,0-3.494-.192,27.473,27.473,0,0,0-6.163.685ZM533.432,426.615l-.083.011,0,0,.079-.007Zm-1.215.3h0l-.019.007h0l.019-.007Zm-215.984,8.348h0Zm-.024.011h0l-.126.053.126-.053Zm.757.225a7.43,7.43,0,0,1,.8.339c-.266-.114-.532-.226-.8-.339Zm-2.238.4-.175.074.175-.074Zm.038.188-.248.191c.082-.066.164-.129.248-.191Zm68.83.757a7.271,7.271,0,0,1,.982.134c-.327-.044-.654-.088-.982-.134Z"/>
      <path class="c" d="M907.587,484.32a13.831,13.831,0,0,0-3.145.543,19.343,19.343,0,0,0-2.539,1c-1.668.691-3.355,1.305-5.062,1.883a49.789,49.789,0,0,1-8.2,1.875c-2.879.24-5.719.314-8.614.277-3.059-.039-6.109-.328-9.172-.347a48.9,48.9,0,0,0-10.492,1.214c-3.991.851-7.554,3.043-11.232,4.769a67.982,67.982,0,0,1-11.224,3c-1.669.182-3.333.305-5.021.366a37.357,37.357,0,0,1-5.633-.3,84.1,84.1,0,0,1-9.288-2.372c-1.614-.512-3.2-1.082-4.8-1.652-1.168-.422-2.336-.84-3.516-1.227a17.845,17.845,0,0,0-3.9-.738,16.952,16.952,0,0,0-4.3.266c-3.152.476-6.055,2.058-8.774,3.656a44.71,44.71,0,0,0-4.035,2.781,66.122,66.122,0,0,1-10.279,6.868,37.874,37.874,0,0,1-5.531,1.422c-.7.053-1.4.074-2.11.059a24.189,24.189,0,0,1-3.15-.974c-2.16-1.03-4.24-2.214-6.4-3.238-1.735-.821-3.5-1.571-5.27-2.305a24.569,24.569,0,0,0-11.707-1.828c-4.98.5-9.566,2.711-13.828,5.234-2.264,1.342-4.442,2.876-6.8,4.055a32.868,32.868,0,0,1-4.87,1.2,56.066,56.066,0,0,1-11.18.2,54.768,54.768,0,0,1-8.188-2.249c-2.395-1.093-4.727-2.283-7.051-3.537-.926-.5-1.848-1-2.774-1.488a17.42,17.42,0,0,0-7.527-2.145,18.733,18.733,0,0,0-3.562.434,9.2,9.2,0,0,0-2.188.723,37.824,37.824,0,0,0-4.859,2.437c-2.715,1.621-5.324,3.41-8.039,5.031a104.572,104.572,0,0,1-9.851,5.381,40.3,40.3,0,0,1-6.846,1.773,36.13,36.13,0,0,1-6.643-.077,38.451,38.451,0,0,1-6.069-1.812c-2.541-1.138-5.046-2.351-7.568-3.53s-5.105-2.3-7.715-3.285a29.017,29.017,0,0,0-6.863-1.493,27.146,27.146,0,0,0-6.863-.16,22.982,22.982,0,0,0-4.446.953,36.934,36.934,0,0,0-4.2,1.715c-.758.364-1.511.723-2.265,1.086-1.407.672-2.758,1.473-4.1,2.262-3.213,1.884-6.21,4.156-9.532,5.852a18.231,18.231,0,0,1-2.189.592,20.91,20.91,0,0,1-2.81-.015,31,31,0,0,1-4.837-1.272,75.826,75.826,0,0,1-9.042-5.38c-1.535-1.023-3.043-2.1-4.57-3.136a28.534,28.534,0,0,0-9.219-4.184,17.993,17.993,0,0,0-9.266.562,23.417,23.417,0,0,0-7.621,4.5c-1.492,1.23-2.918,2.515-4.32,3.851-2.545,2.424-5.106,4.789-7.81,7.034a44.386,44.386,0,0,1-5.047,3.281c-.329.094-.657.178-.99.253l-.061-.017c-.294-.161-.579-.329-.862-.508-1.452-1.312-2.77-2.772-4.113-4.191a62.82,62.82,0,0,0-4.938-4.7,43.262,43.262,0,0,0-3.476-2.6,24.821,24.821,0,0,0-4.66-2.277,28.683,28.683,0,0,0-7.375-1.711,33.8,33.8,0,0,0-15.793,1.656c-5.414,1.992-9.86,5.719-14.309,9.277-2.43,1.945-4.8,3.959-7.234,5.9A61.746,61.746,0,0,1,441.714,530a15.914,15.914,0,0,1-1.533.439c-.425,0-.844-.007-1.265-.03a30.673,30.673,0,0,1-4.538-1.386,79.832,79.832,0,0,1-7.991-4.325c-3.707-2.309-7.308-4.867-11.191-6.871a26.809,26.809,0,0,0-7-2.516,25.844,25.844,0,0,0-4.086-.441,18.838,18.838,0,0,0-4.937.726,22.17,22.17,0,0,0-3.743,1.457,24.454,24.454,0,0,0-2.64,1.442,47.227,47.227,0,0,0-4.5,3.441c-2.645,2.133-5.073,4.521-7.673,6.71a46.81,46.81,0,0,1-6.779,3.865,24.6,24.6,0,0,1-2.356.733c-.166,0-.331,0-.5,0a23.556,23.556,0,0,1-2.378-.721,55.792,55.792,0,0,1-8.194-5.064c-1.981-1.6-3.922-3.25-5.854-4.916a74.442,74.442,0,0,0-8.575-6.582,30.2,30.2,0,0,0-6.367-3.023,19.63,19.63,0,0,0-4.1-.637,15.269,15.269,0,0,0-4.356.387c-6.418,1.309-11.371,5.75-16.219,9.859-2.417,2.05-4.792,4.147-7.256,6.138a27.956,27.956,0,0,1-3.809,2.207c-.141.047-.282.09-.424.131-.1,0-.2,0-.3,0q-.348-.094-.687-.2c-.423-.237-.83-.485-1.231-.751a55.362,55.362,0,0,1-6.7-7.36q-6.944-9.418-14.088-18.664c-1.215-1.575-3.769-2.344-5.656-2.344a8,8,0,0,0-8,8c.094.707.191,1.418.285,2.125a8.033,8.033,0,0,0,2.059,3.531l1.375,1.776c2.605,3.382,5.19,6.778,7.7,10.232a124.611,124.611,0,0,0,9.281,11.691,38.621,38.621,0,0,0,5.735,4.9,21.756,21.756,0,0,0,4.539,2.168,17.048,17.048,0,0,0,5.832.933c3.379.129,6.715-1.453,9.621-3a38.416,38.416,0,0,0,6.605-4.734c3.54-2.969,6.939-6.121,10.526-9.034a27.2,27.2,0,0,1,3.546-2.085c.164-.051.329-.1.5-.142.284-.011.565-.013.847-.007.209.062.416.127.621.2a38.972,38.972,0,0,1,4.748,3.013c3.269,2.677,6.4,5.517,9.7,8.159a50.039,50.039,0,0,0,15.515,8.817c5.824,1.91,11.817.152,17.059-2.563a51.161,51.161,0,0,0,6.5-3.89c2.375-1.715,4.488-3.758,6.691-5.684q1.895-1.665,3.84-3.255a23.371,23.371,0,0,1,2.656-1.639c.475-.157.948-.3,1.432-.411.247,0,.492,0,.738.013a22.341,22.341,0,0,1,2.205.656,76.306,76.306,0,0,1,7.453,4.464c1.934,1.25,3.887,2.473,5.875,3.645a51.126,51.126,0,0,0,14.481,6.238,22.831,22.831,0,0,0,10.5-.168,15.537,15.537,0,0,0,1.9-.723q1.442-.562,2.828-1.242a24.811,24.811,0,0,0,3.168-1.848c2.332-1.554,4.606-3.148,6.825-4.863,3.381-2.61,6.632-5.376,9.961-8.051a41.146,41.146,0,0,1,6.409-4.166,27.235,27.235,0,0,1,3.759-.982,34.691,34.691,0,0,1,5.739.01,24.954,24.954,0,0,1,3.376.881,23.314,23.314,0,0,1,2.684,1.619c2.809,2.458,5.285,5.248,7.911,7.892a20.42,20.42,0,0,0,5.536,3.985,23.177,23.177,0,0,0,3.527,1.371c.3.039.594.082.891.121a13.179,13.179,0,0,0,3.027.3,21.1,21.1,0,0,0,4.031-.539,15.988,15.988,0,0,0,3.758-1.34,29.383,29.383,0,0,0,4.879-2.9,95.815,95.815,0,0,0,9.394-7.672c2.168-2.023,4.276-4.1,6.529-6.022a20.176,20.176,0,0,1,2.041-1.252c.077-.023.155-.044.233-.064.282-.013.562-.02.844-.019q.236.066.47.143c3.685,1.8,6.853,4.384,10.321,6.562,4.535,2.848,9.269,5.754,14.6,6.793,1.742.336,3.48.586,5.242.8a25.617,25.617,0,0,0,7.551-.574,15.3,15.3,0,0,0,3.16-1.028,38.68,38.68,0,0,0,4.925-2.441c.79-.469,1.559-.985,2.333-1.481,1.929-1.25,3.859-2.484,5.839-3.644,1.583-.931,3.223-1.737,4.874-2.532.871-.331,1.749-.626,2.654-.871a27.4,27.4,0,0,1,4.028.149,28.41,28.41,0,0,1,5.134,1.545c3.513,1.554,6.934,3.3,10.459,4.83a44.67,44.67,0,0,0,10.3,3.434,41.33,41.33,0,0,0,9.981.574,47.014,47.014,0,0,0,9.234-1.668,55.031,55.031,0,0,0,11.133-5.024c1.578-.859,3.133-1.765,4.676-2.687,3.411-2.042,6.67-4.451,10.209-6.275l.119-.037c1.713.879,3.378,1.85,5.09,2.73,1.926.984,3.871,1.9,5.855,2.762a58.283,58.283,0,0,0,7.692,2.613,49.49,49.49,0,0,0,14.562,1.316,52.654,52.654,0,0,0,7.473-.808c1.066-.184,2.117-.371,3.172-.621a29.411,29.411,0,0,0,6.558-2.528c1.829-.93,3.551-2.129,5.289-3.215a53.571,53.571,0,0,1,5.181-2.859,26.6,26.6,0,0,1,2.842-.878,19.157,19.157,0,0,1,1.991.033,29.317,29.317,0,0,1,4.3,1.357c2.427,1.167,4.795,2.444,7.215,3.629a54.99,54.99,0,0,0,5.2,2.183,23.571,23.571,0,0,0,6.742,1.254,17.477,17.477,0,0,0,3.125-.2c1.453-.176,2.867-.406,4.3-.692a31.055,31.055,0,0,0,5.219-1.527,37.6,37.6,0,0,0,6.168-3.086c.679-.418,1.328-.887,1.992-1.328,1.277-.855,2.492-1.816,3.715-2.742a51.178,51.178,0,0,1,8.087-5.281c.321-.105.641-.2.966-.28h.115c2.571.666,5.077,1.714,7.57,2.608a65.718,65.718,0,0,0,6.461,1.914,55.043,55.043,0,0,0,14.883,1.8,64.842,64.842,0,0,0,14.762-2.243,57.815,57.815,0,0,0,7.82-2.777c2-.869,3.911-1.888,5.861-2.846a30.107,30.107,0,0,1,4.921-1.242,68.263,68.263,0,0,1,9.069-.064,74.585,74.585,0,0,0,10.559.113,82.857,82.857,0,0,0,12.313-1.973,41.849,41.849,0,0,0,4.648-1.5c1.869-.7,3.691-1.566,5.6-2.131l1.037.139a7.924,7.924,0,0,0,4.039-1.094A8,8,0,0,0,917,488.316a7.7,7.7,0,0,0-4.781-3.676,28.938,28.938,0,0,0-3.707-.437l-.926.117Zm.83,15.887-.83.113a5.592,5.592,0,0,1,.83-.113ZM269.653,516.031l.6.779-.6-.779Zm412.55.791.142.06-.142-.06Zm-168.46,7.064-.183.025.183-.025Z"/>
      <path class="c" d="M897.655,583.9q-.745.139-1.49.254a82.547,82.547,0,0,0-10.7,1.629,56.609,56.609,0,0,0-9.217,3.337,29.569,29.569,0,0,1-4.737,1.431,84.262,84.262,0,0,1-10.335-.065c-3.961-.172-7.922-.34-11.887-.476-1.855-.067-3.718-.082-5.578-.032a43.938,43.938,0,0,0-7.984.989,25.141,25.141,0,0,0-5.043,1.937,30.54,30.54,0,0,0-2.9,1.5c-3.15,1.893-6.173,4.033-9.487,5.626a34.933,34.933,0,0,1-5.3,1.426,31.488,31.488,0,0,1-5.345-.035,58.721,58.721,0,0,1-9.467-2.517c-2.043-.711-4.031-1.547-6.121-2.129a17.876,17.876,0,0,0-7.824-.183,24.113,24.113,0,0,0-6.118,2.133,60.344,60.344,0,0,0-8.449,5.293,52.391,52.391,0,0,1-7.033,3.965,40.055,40.055,0,0,1-7.258,1.92,22.559,22.559,0,0,1-2.918.1,26.451,26.451,0,0,1-3.74-1.092,42.268,42.268,0,0,1-6.888-3.9c-3.509-2.876-6.92-5.834-10.7-8.372a22.847,22.847,0,0,0-7.059-3.278,22.486,22.486,0,0,0-8.863-.031,24.488,24.488,0,0,0-6.391,2.289,38.324,38.324,0,0,0-3.585,2.016c-3.122,1.847-6.028,4.1-9,6.172a79.62,79.62,0,0,1-11.516,7.074,43.294,43.294,0,0,1-8.441,2.138,62.209,62.209,0,0,1-12.218.59,50,50,0,0,1-6.371-1.9c-1.383-.615-2.746-1.264-4.072-2.008-1.945-1.094-3.851-2.25-5.773-3.379-4.629-2.726-9.727-5-15.2-4.9a30.4,30.4,0,0,0-4.957.551,21.058,21.058,0,0,0-5.442,1.82,34.757,34.757,0,0,0-6.008,4.07c-7.022,5.582-12.705,12.64-19.66,18.311a36.382,36.382,0,0,1-5.191,3.245,24.581,24.581,0,0,1-3.383,1.028,22.864,22.864,0,0,1-2.927.026,23.626,23.626,0,0,1-3.3-.957,40.335,40.335,0,0,1-5.691-3.226,65.021,65.021,0,0,1-5.894-5.938c-1.6-1.758-3.137-3.567-4.707-5.348-1.047-1.18-2.09-2.348-3.2-3.477a33.4,33.4,0,0,0-8.418-6.09,17.7,17.7,0,0,0-6.961-1.988,13.811,13.811,0,0,0-5.355.766,28.14,28.14,0,0,0-7.016,3.605c-7.925,5.556-14.723,12.487-22.231,18.556-1.366.943-2.739,1.857-4.148,2.741A34.381,34.381,0,0,1,504.1,631.2a28.028,28.028,0,0,1-4.708,1.342,25.262,25.262,0,0,1-3.313.026,44.116,44.116,0,0,1-8.129-2.645c-2.317-1.071-4.59-2.182-6.855-3.362-2.445-1.277-4.793-2.746-7.207-4.082a110.473,110.473,0,0,0-11.691-5.773,26.852,26.852,0,0,0-4.364-1.453,23.736,23.736,0,0,0-6.218-.535c-4.235.191-8.047,1.672-11.813,3.492a54.274,54.274,0,0,0-6.488,3.894c-2.289,1.539-4.535,3.137-6.8,4.707-2.394,1.664-4.785,3.329-7.23,4.922a88.115,88.115,0,0,1-8.921,5.409,24.207,24.207,0,0,1-2.795.767,24.652,24.652,0,0,1-3.785.006,20.519,20.519,0,0,1-2.4-.642,15.1,15.1,0,0,1-1.471-.887c-2.87-2.351-5.609-4.861-8.41-7.293-1.8-1.563-3.664-3.067-5.551-4.528a75.284,75.284,0,0,0-7.734-5.261,53.9,53.9,0,0,0-8.242-3.9,21.482,21.482,0,0,0-5.086-1.015,29.71,29.71,0,0,0-4-.246A25.264,25.264,0,0,0,352,615.914a26.773,26.773,0,0,0-4.273,2.07,44.266,44.266,0,0,0-3.676,2.735,40.472,40.472,0,0,0-4.105,3.668c-2.695,2.749-5.31,5.608-8.248,8.107l-.16.109c-.657-.793-1.291-1.61-1.927-2.42q-1.906-2.493-3.787-5.007a52.167,52.167,0,0,1-4.745-7c-.1-.322-.187-.643-.265-.971-.022-.36-.035-.719-.039-1.083a35.832,35.832,0,0,1,1.124-3.568,7.812,7.812,0,0,0-.809-6.164,8,8,0,0,0-10.945-2.872,8.434,8.434,0,0,0-3.676,4.782,37.044,37.044,0,0,0-1.254,3.972,18.61,18.61,0,0,0-.391,5.34,23.405,23.405,0,0,0,.8,4.813,22.871,22.871,0,0,0,1.895,4.351,48.632,48.632,0,0,0,4.094,5.938q3.873,5.266,7.96,10.375c.747.933,1.5,1.863,2.336,2.718a12.685,12.685,0,0,0,4.782,2.879,13.982,13.982,0,0,0,4.347.684c.961-.113,1.926-.238,2.887-.379a7.884,7.884,0,0,0,1.648-.531,20.19,20.19,0,0,0,4.336-2.227,42.621,42.621,0,0,0,5.227-4.383c1.352-1.277,2.605-2.668,3.871-4.035a64.412,64.412,0,0,1,6.012-5.949,20.211,20.211,0,0,1,2.326-1.44,22.1,22.1,0,0,1,2.677-.733,24.273,24.273,0,0,1,3.547.03,20.617,20.617,0,0,1,2.644.75,57.068,57.068,0,0,1,9.639,5.763c2.226,1.772,4.385,3.623,6.526,5.5,1.735,1.516,3.406,3.11,5.176,4.59a39.085,39.085,0,0,0,5.816,4.4,26.443,26.443,0,0,0,11.739,2.95,27.1,27.1,0,0,0,5.976-.52,23.815,23.815,0,0,0,4.371-1.223,44.3,44.3,0,0,0,7.422-3.89c4.449-2.766,8.781-5.688,13.082-8.676a101.882,101.882,0,0,1,12.671-7.92,23.541,23.541,0,0,1,3-.878,19.044,19.044,0,0,1,2.083,0,23.23,23.23,0,0,1,3.333,1.043c6.053,2.754,11.642,6.362,17.531,9.439,3.348,1.754,6.817,3.218,10.3,4.683a43.849,43.849,0,0,0,4.91,1.7,34.392,34.392,0,0,0,6.3,1.051,30.775,30.775,0,0,0,6.985-.5,32.825,32.825,0,0,0,9.25-3.137,37.113,37.113,0,0,0,4.207-2.2,76.221,76.221,0,0,0,8.6-6.246c4.883-4.121,9.574-8.457,14.469-12.566.492-.415.994-.815,1.5-1.211a42.288,42.288,0,0,1,4.954-3.117l.146-.049.248.076a34.336,34.336,0,0,1,3.145,1.961,63.632,63.632,0,0,1,6.2,6.6c1.719,1.989,3.442,3.969,5.278,5.844a49.079,49.079,0,0,0,4.691,4.418,44.957,44.957,0,0,0,4.531,3.18,43.159,43.159,0,0,0,4.285,2.16,34.792,34.792,0,0,0,5.657,2.066,28.041,28.041,0,0,0,5.675.731,25.712,25.712,0,0,0,5.637-.508,26.278,26.278,0,0,0,5.485-1.726,35.9,35.9,0,0,0,5.429-2.766,55.694,55.694,0,0,0,4.907-3.613c1.347-1.075,2.621-2.207,3.9-3.356,1.773-1.582,3.465-3.238,5.152-4.914,3.443-3.424,6.819-6.895,10.559-9.985a27.992,27.992,0,0,1,2.616-1.657c.583-.187,1.169-.343,1.774-.475.753-.064,1.5-.1,2.262-.087a19.7,19.7,0,0,1,2.326.694c2.689,1.281,5.211,2.836,7.768,4.369a57.226,57.226,0,0,0,7.008,3.52,42.355,42.355,0,0,0,12.125,3.492c4.754.508,9.511-.094,14.238-.586a45.5,45.5,0,0,0,19.578-6.312c2.215-1.383,4.438-2.75,6.578-4.242,4.379-3.05,8.693-6.488,13.509-8.845a18.537,18.537,0,0,1,2.171-.626c.4-.014.8-.014,1.195,0,.149.038.3.079.447.122a44.708,44.708,0,0,1,4.934,3.152c3.6,3,7.12,6.157,11.154,8.557a45.767,45.767,0,0,0,5.149,2.535,30.122,30.122,0,0,0,7.738,2.426,28.111,28.111,0,0,0,4.027.371,34.089,34.089,0,0,0,4.813-.52,47.09,47.09,0,0,0,6.73-1.464,38.709,38.709,0,0,0,5.141-2.043c.766-.352,1.563-.664,2.3-1.071,1.527-.84,3.07-1.672,4.515-2.652a80.236,80.236,0,0,1,9-5.673c.427-.142.854-.265,1.29-.371.158,0,.316-.007.474-.007a53.946,53.946,0,0,1,5.618,1.926c1.461.547,2.942,1,4.442,1.426,1.6.457,3.234.84,4.871,1.156a37.583,37.583,0,0,0,13.523.305,39.166,39.166,0,0,0,13.227-4.9c2.888-1.667,5.57-3.615,8.558-5.105a21.908,21.908,0,0,1,3.189-.9,91.206,91.206,0,0,1,11.226-.027c3.121.109,6.242.266,9.363.395a83.877,83.877,0,0,0,9.9.031,28.667,28.667,0,0,0,8.516-1.9c1.384-.555,2.75-1.146,4.117-1.736a48.2,48.2,0,0,1,9.741-2.526c2.6-.3,5.2-.579,7.778-1.054a7.762,7.762,0,0,0,4.782-3.676,8,8,0,0,0-2.871-10.945,7.514,7.514,0,0,0-3.914-1.036,12.44,12.44,0,0,0-2.25.227ZM545.744,619.338l.016,0-.625.083a4.728,4.728,0,0,1,.609-.088Zm.814.011c.118.012.236.028.354.049l-.356-.048ZM331.675,633.295l.006,0h-.006l-.006,0Z"/>
    </g>
  </g>
</svg>
