<svg xmlns="http://www.w3.org/2000/svg" viewBox="0 0 416.2 258.6" xmlns:v="https://vecta.io/nano"><path d="M0-157.5h415.5V258H0z" opacity="0" fill="#fff" stroke="#000" stroke-miterlimit="10"/><path d="M412.5 130.6H11.7c3.1-7.1 7.7-17.3 13.8-29.3C44.1 65 53.3 46.8 67.2 36.8 83 25.4 96 29.5 167.1 31.5l162.3 2.7c13.5-2.1 37.4-6.7 54.6 4.7 4.9 3.3 10.8 8.8 17.7 26.6 8 20.7 11.6 42.9 10.8 65.1z" fill="#383838"/><path d="M31.9 177.8c0-6-30.8-2.2-30.8-3.1l-1.1 17h31.9v-13.9z"/><path d="M391.8.4h-4.4L126.9.1 82.3 0C74.9 0 67 7.4 67.2 13.6c.1 3.8 3.2 7.1 11.3 7.8h3.7l309.6.4c.3-.5 1.5-2.3 2.7-4.6 3.3-6.4 7.2-16.8-2.7-16.8zm20.8 80c-1.9-14.7-4.4-30-10.1-43.7-3.7-8.6-7.8-13.5-12.2-13.5l.1-.2H77c1.2.1 2.5.2 3.8.2-41.2 0-75.6 86.9-77.7 121.3l-1.5 22.2h23.8c6.7 0 14.6 3.4 14.6 11.1v21.8H.2s4.6 10.9 5.3 11.9c4 5.4 11.4 8.4 18 8.4h27 13.7c0-24.2 19.4-43.7 43.1-43.7 23.9 0 43.1 20.2 43.1 43.7h134.1c0-24.2 19.4-43.7 43.1-43.7 23.9 0 43.1 20 43.1 43.7 6.5 0 30.9 1.5 36.2-2.1 6.3-4.2 8.3-12.6 9-42.2.2-10.6.3-24.5-.3-40.7 1.5 0-2.5-50.1-3-54.5zm-291.4 36.5H34.5c1.8-6 3.9-11.9 6.5-17.6 8.2-19.2 19.8-36.7 34.3-51.7h45.9v69.3zm119.4 0h-78.5V47.6h78.5v69.3zm108.6 0H264V47.6h55.5c8.8 0 17 7.4 20.8 14.7 10.5 20.3 8.9 54.6 8.9 54.6zm2.4-59.8a7.17 7.17 0 0 1 7.2-7.2H387a7.17 7.17 0 0 1 7.2 7.2 7.17 7.17 0 0 1-7.2 7.2h-28.2c-3.9.1-7.1-3-7.2-6.9v-.3zm5.5 22.7c0-4 3.2-7.2 7.1-7.2h.1 29.8c5.4 0 7.2 4.2 7.2 7.2a7.17 7.17 0 0 1-7.2 7.2h-29.8c-3.2 0-7.2-4-7.2-7.2zm42.1 29.8H367c-5.4 0-7.2-4-7.2-7.2 0-4 3.2-7.2 7.1-7.2h.1 32.2c3.9.1 7.1 3.3 7.2 7.2-.1 4-3.3 7.2-7.2 7.2zm-291.8 97.1c-7.2.1-12.9 5.9-12.9 13.1v.1c-.1 7.1 5.5 12.9 12.6 13.1 7.1.1 12.9-5.5 13.1-12.6v-.5-.1c.1-7.1-5.6-13-12.8-13.1z" fill="#f9e6c8"/><path d="M116.3 182.3h0c-2.9-.8-5.9-1.1-8.9-1.1-21 0-38.1 17.4-38.1 38.8 0 21 17.5 38.7 38.1 38.7 20.9 0 38-17.4 38.1-38.7.1-17.2-12.5-33.4-29.2-37.7zm8.9 37.6c0 10-8.2 18.1-18.2 18.1s-18.1-8.2-18.1-18.2 8.2-18.1 18.2-18.1 18.1 8.1 18.1 18.2h0z"/><path d="M327.7 206.7c-7.2.2-13 6.2-12.8 13.4a13.16 13.16 0 0 0 12.8 12.8c7.1 0 12.8-6.1 12.9-13.1.1-7.2-5.7-13-12.9-13.1z" fill="#f9e6c8"/><path d="M338.7 182.9h0c-3.5-1.2-7.2-1.8-11-1.8-21 0-38.1 17.4-38.1 38.8 0 21 17.5 38.7 38.1 38.7 20.9 0 38-17.4 38.1-38.7.1-16.2-11.3-31.8-27.1-37zm6.9 37c0 10-8.2 18.1-18.2 18.1s-18.1-8.2-18.1-18.2 8.2-18.1 18.2-18.1 18.1 8.1 18.1 18.2h0z"/></svg>