<?xml version="1.0" encoding="utf-8"?>
<!-- Generator: Adobe Illustrator 25.4.1, SVG Export Plug-In . SVG Version: 6.00 Build 0)  -->
<svg version="1.1" id="Layer_1" xmlns="http://www.w3.org/2000/svg" xmlns:xlink="http://www.w3.org/1999/xlink" x="0px" y="0px"
	 viewBox="0 0 416.2 376.4" style="enable-background:new 0 0 416.2 376.4;" xml:space="preserve">
<style type="text/css">
	.st0{fill:#383838;}
	.st1{fill:#EEBF70;}
	.st2{fill:none;}
	.st3{fill:#F9E6C8;}
	.st4{opacity:0;fill:#FFFFFF;stroke:#000000;stroke-miterlimit:10;}
</style>
<g>
	
		<rect x="352.1" y="161.4" transform="matrix(0.9913 -0.132 0.132 0.9913 -23.5708 51.9269)" class="st0" width="55.7" height="84.8"/>
	<path class="st1" d="M358.2,248.4H11.7c2.7-7.1,6.7-17.3,12-29.3c16-36.4,24-54.6,36.1-64.6c13.7-11.4,24.8-7.3,86.3-5.2
		c87.3,2.9,130.9,4.4,140.3,2.7c11.7-2.1,32.3-6.7,47.2,4.7c4.3,3.3,9.3,8.8,15.3,26.6C355.8,204.2,359,226.3,358.2,248.4z"/>
	<rect x="162.1" y="165.4" class="st2" width="78.5" height="69.3"/>
	<path class="st2" d="M41,217.1c-2.5,5.7-4.7,11.6-6.5,17.6h86.7v-69.3H75.3C60.8,180.4,49.1,197.9,41,217.1z"/>
	<path class="st2" d="M319.5,165.4H264v69.3h85.3c0,0,1.6-34.2-9-54.5C336.4,172.8,328.3,165.4,319.5,165.4z"/>
	<path class="st2" d="M327.7,319.5c-10-0.1-18.2,7.9-18.4,17.9c-0.1,10,7.9,18.2,17.9,18.4c10,0.1,18.2-7.9,18.4-17.9
		c0-0.1,0-0.1,0-0.2v-0.1C345.7,327.7,337.7,319.6,327.7,319.5z M327.7,350.7c-7.2,0.1-13.2-5.6-13.3-12.9
		c-0.1-7.2,5.6-13.2,12.9-13.3c7.2-0.1,13.2,5.6,13.3,12.9c0,0.1,0,0.2,0,0.2C340.5,344.6,334.8,350.7,327.7,350.7L327.7,350.7z"/>
	<path class="st2" d="M394.1,204.8c4,0,7.2-3.2,7.2-7.2c0-3-1.8-7.2-7.2-7.2h-29.8c-4,0-7.2,3.2-7.2,7.1c0,0,0,0,0,0.1
		c0,3.3,4,7.2,7.2,7.2H394.1z"/>
	<path class="st2" d="M387,182c4,0,7.2-3.2,7.2-7.2c0-4-3.2-7.2-7.2-7.2h-28.2c-4,0-7.2,3.2-7.2,7.2c-0.1,3.9,3,7.1,6.9,7.2
		c0.1,0,0.2,0,0.3,0H387z"/>
	<path class="st2" d="M399.2,213h-32.2c-4,0-7.2,3.2-7.2,7.1c0,0,0,0,0,0.1c0,3.2,1.8,7.2,7.2,7.2h32.2c4,0,7.2-3.2,7.2-7.2
		C406.2,216.3,403.1,213.1,399.2,213z"/>
	<path class="st2" d="M107.4,319.5c-10-0.2-18.3,7.8-18.4,17.8s7.8,18.3,17.8,18.4s18.3-7.8,18.4-17.8c0-0.1,0-0.2,0-0.3v-0.1
		C125.3,327.7,117.3,319.6,107.4,319.5z M120.2,337.7c0.1,7.1-5.5,12.9-12.6,13.1c-7.1,0.1-12.9-5.5-13.1-12.6c0-0.2,0-0.3,0-0.5
		v-0.1c-0.2-7.1,5.5-13,12.6-13.1c7.1-0.2,13,5.5,13.1,12.6C120.2,337.2,120.2,337.4,120.2,337.7L120.2,337.7z"/>
	<path d="M31.9,295.6c0-6-30.8-2.2-30.8-3.1c-0.6,8.6-1,14.1-1.1,17h31.9V295.6z"/>
	<path class="st1" d="M93.1,12.1v135.4h289.3v-11c-2,1.8-3.7,3-4.2,3.4L93.1,12.1z"/>
	<path class="st3" d="M389.8,121.8l-4-1.7L145.9,18.4L104.8,1c-6.8-2.9-17,0.9-19.2,6.6c-1.4,3.5,0.2,7.7,7.4,11.6l3.4,1.5
		l285.1,120.9c0.5-0.4,2.2-1.6,4.2-3.2C391.3,133.8,398.9,125.7,389.8,121.8z"/>
	<path class="st3" d="M412.6,198.2c-1.9-14.7-4.4-30-10.1-43.7c-3.7-8.6-7.8-13.5-12.2-13.5l0.1-0.2H77c1.2,0.1,2.5,0.2,3.8,0.2
		c-41.2,0-75.6,86.9-77.7,121.3c-0.6,8.7-1,16.1-1.5,22.2h23.8c6.7,0,14.6,3.4,14.6,11.1v21.8H0.2c0,0,4.6,10.9,5.3,11.9
		c4,5.4,11.4,8.4,18,8.4h27l13.7,0c0-24.2,19.4-43.7,43.1-43.7c23.9,0,43.1,20.2,43.1,43.7h134.1c0-24.2,19.4-43.7,43.1-43.7
		c23.9,0,43.1,20,43.1,43.7c6.5,0,30.9,1.5,36.2-2.1c6.3-4.2,8.3-12.6,9-42.2c0.2-10.6,0.3-24.5-0.3-40.7
		C417.1,252.7,413.1,202.6,412.6,198.2z M121.2,234.7H34.5c1.8-6,3.9-11.9,6.5-17.6c8.2-19.2,19.8-36.7,34.3-51.7h45.9L121.2,234.7z
		 M240.6,234.7h-78.5v-69.3h78.5V234.7z M349.2,234.7H264v-69.3h55.5c8.8,0,17,7.4,20.8,14.7C350.8,200.4,349.2,234.7,349.2,234.7z
		 M351.6,174.8c0-4,3.2-7.2,7.2-7.2H387c4,0,7.2,3.2,7.2,7.2c0,4-3.2,7.2-7.2,7.2h-28.2c-3.9,0.1-7.1-3-7.2-6.9
		C351.6,175.1,351.6,175,351.6,174.8L351.6,174.8z M357.1,197.6c0-4,3.2-7.2,7.1-7.2c0,0,0,0,0.1,0h29.8c5.4,0,7.2,4.2,7.2,7.2
		c0,4-3.2,7.2-7.2,7.2h-29.8C361.1,204.8,357.1,200.8,357.1,197.6z M399.2,227.4h-32.2c-5.4,0-7.2-4-7.2-7.2c0-4,3.2-7.2,7.1-7.2
		c0,0,0,0,0.1,0h32.2c3.9,0.1,7.1,3.3,7.2,7.2C406.3,224.2,403.1,227.4,399.2,227.4L399.2,227.4z"/>
	<path class="st3" d="M107.4,324.5c-7.2,0.1-12.9,5.9-12.9,13.1v0.1c-0.1,7.1,5.5,12.9,12.6,13.1c7.1,0.1,12.9-5.5,13.1-12.6
		c0-0.2,0-0.3,0-0.5v-0.1C120.3,330.5,114.5,324.6,107.4,324.5z"/>
	<path d="M116.3,300.1L116.3,300.1c-2.9-0.8-5.9-1.1-8.9-1.1c-21,0-38.1,17.4-38.1,38.8c0,21,17.5,38.7,38.1,38.7
		c20.9,0,38-17.4,38.1-38.7C145.6,320.6,133,304.4,116.3,300.1z M125.2,337.7c0,10-8.2,18.1-18.2,18.1c-10,0-18.1-8.2-18.1-18.2
		c0-10,8.2-18.1,18.2-18.1C117.1,319.5,125.2,327.6,125.2,337.7L125.2,337.7z"/>
	<path class="st3" d="M327.7,324.5c-7.2,0.2-13,6.2-12.8,13.4c0.2,7,5.8,12.6,12.8,12.8c7.1,0,12.8-6.1,12.9-13.1
		C340.7,330.4,334.9,324.6,327.7,324.5z"/>
	<path d="M338.7,300.7L338.7,300.7c-3.5-1.2-7.2-1.8-11-1.8c-21,0-38.1,17.4-38.1,38.8c0,21,17.5,38.7,38.1,38.7
		c20.9,0,38-17.4,38.1-38.7C365.9,321.4,354.5,305.9,338.7,300.7z M345.6,337.7c0,10-8.2,18.1-18.2,18.1s-18.1-8.2-18.1-18.2
		c0-10,8.2-18.1,18.2-18.1C337.5,319.5,345.6,327.6,345.6,337.7L345.6,337.7z"/>
</g>
<rect x="0.8" y="-38.7" class="st4" width="415.5" height="415.5"/>
</svg>
