<?xml version="1.0" encoding="utf-8"?>
<!-- Generator: Adobe Illustrator 25.4.1, SVG Export Plug-In . SVG Version: 6.00 Build 0)  -->
<svg version="1.1" id="Layer_1" xmlns="http://www.w3.org/2000/svg" xmlns:xlink="http://www.w3.org/1999/xlink" x="0px" y="0px"
	 viewBox="0 0 416.2 258.6" style="enable-background:new 0 0 416.2 258.6;" xml:space="preserve">
<style type="text/css">
	.st0{opacity:0;fill:#FFFFFF;stroke:#000000;stroke-miterlimit:10;}
	.st1{fill:#383838;}
	.st2{fill:none;}
	.st3{fill:#F9E6C8;}
</style>
<rect y="-157.5" class="st0" width="415.5" height="415.5"/>
<g>
	<path class="st1" d="M412.5,130.6H11.7c3.1-7.1,7.7-17.3,13.8-29.3C44.1,65,53.3,46.8,67.2,36.8C83,25.4,96,29.5,167.1,31.5
		c100.9,2.9,151.4,4.4,162.3,2.7c13.5-2.1,37.4-6.7,54.6,4.7c4.9,3.3,10.8,8.8,17.7,26.6C409.7,86.2,413.3,108.4,412.5,130.6z"/>
	<rect x="162.1" y="47.6" class="st2" width="78.5" height="69.3"/>
	<path class="st2" d="M41,99.3c-2.5,5.7-4.7,11.6-6.5,17.6h86.7V47.6H75.3C60.8,62.6,49.1,80.1,41,99.3z"/>
	<path class="st2" d="M319.5,47.6H264v69.3h85.3c0,0,1.6-34.2-9-54.5C336.4,55.1,328.3,47.6,319.5,47.6z"/>
	<path class="st2" d="M327.7,201.7c-10-0.1-18.2,7.9-18.4,17.9c-0.1,10,7.9,18.2,17.9,18.4c10,0.1,18.2-7.9,18.4-17.9
		c0-0.1,0-0.1,0-0.2v-0.1C345.7,209.9,337.7,201.8,327.7,201.7z M327.7,232.9c-7.2,0.1-13.2-5.6-13.3-12.9
		c-0.1-7.2,5.6-13.2,12.9-13.3c7.2-0.1,13.2,5.6,13.3,12.9c0,0.1,0,0.2,0,0.2C340.5,226.8,334.8,232.9,327.7,232.9L327.7,232.9z"/>
	<path class="st2" d="M394.1,87c4,0,7.2-3.2,7.2-7.2c0-3-1.8-7.2-7.2-7.2h-29.8c-4,0-7.2,3.2-7.2,7.1c0,0,0,0,0,0.1
		c0,3.3,4,7.2,7.2,7.2H394.1z"/>
	<path class="st2" d="M387,64.3c4,0,7.2-3.2,7.2-7.2s-3.2-7.2-7.2-7.2h-28.2c-4,0-7.2,3.2-7.2,7.2c-0.1,3.9,3,7.1,6.9,7.2
		c0.1,0,0.2,0,0.3,0H387z"/>
	<path class="st2" d="M399.2,95.2h-32.2c-4,0-7.2,3.2-7.2,7.1c0,0,0,0,0,0.1c0,3.2,1.8,7.2,7.2,7.2h32.2c4,0,7.2-3.2,7.2-7.2
		C406.2,98.5,403.1,95.3,399.2,95.2z"/>
	<path class="st2" d="M107.4,201.7c-10-0.2-18.3,7.8-18.4,17.8c-0.2,10,7.8,18.3,17.8,18.4s18.3-7.8,18.4-17.8c0-0.1,0-0.2,0-0.3
		v-0.1C125.3,209.9,117.3,201.8,107.4,201.7z M120.2,219.9c0.1,7.1-5.5,12.9-12.6,13.1c-7.1,0.1-12.9-5.5-13.1-12.6
		c0-0.2,0-0.3,0-0.5v-0.1c-0.2-7.1,5.5-13,12.6-13.1c7.1-0.2,13,5.5,13.1,12.6C120.2,219.4,120.2,219.6,120.2,219.9L120.2,219.9z"/>
	<path d="M31.9,177.8c0-6-30.8-2.2-30.8-3.1c-0.6,8.6-1,14.1-1.1,17h31.9V177.8z"/>
	<path class="st3" d="M391.8,0.4l-4.4,0L126.9,0.1L82.3,0C74.9,0,67,7.4,67.2,13.6c0.1,3.8,3.2,7.1,11.3,7.8h3.7l309.6,0.4
		c0.3-0.5,1.5-2.3,2.7-4.6C397.8,10.8,401.7,0.4,391.8,0.4z"/>
	<path class="st3" d="M412.6,80.4c-1.9-14.7-4.4-30-10.1-43.7c-3.7-8.6-7.8-13.5-12.2-13.5l0.1-0.2H77c1.2,0.1,2.5,0.2,3.8,0.2
		c-41.2,0-75.6,86.9-77.7,121.3c-0.6,8.7-1,16.1-1.5,22.2h23.8c6.7,0,14.6,3.4,14.6,11.1v21.8H0.2c0,0,4.6,10.9,5.3,11.9
		c4,5.4,11.4,8.4,18,8.4h27l13.7,0c0-24.2,19.4-43.7,43.1-43.7c23.9,0,43.1,20.2,43.1,43.7h134.1c0-24.2,19.4-43.7,43.1-43.7
		c23.9,0,43.1,20,43.1,43.7c6.5,0,30.9,1.5,36.2-2.1c6.3-4.2,8.3-12.6,9-42.2c0.2-10.6,0.3-24.5-0.3-40.7
		C417.1,134.9,413.1,84.8,412.6,80.4z M121.2,116.9H34.5c1.8-6,3.9-11.9,6.5-17.6c8.2-19.2,19.8-36.7,34.3-51.7h45.9L121.2,116.9z
		 M240.6,116.9h-78.5V47.6h78.5V116.9z M349.2,116.9H264V47.6h55.5c8.8,0,17,7.4,20.8,14.7C350.8,82.6,349.2,116.9,349.2,116.9z
		 M351.6,57.1c0-4,3.2-7.2,7.2-7.2H387c4,0,7.2,3.2,7.2,7.2c0,4-3.2,7.2-7.2,7.2h-28.2c-3.9,0.1-7.1-3-7.2-6.9
		C351.6,57.3,351.6,57.2,351.6,57.1z M357.1,79.8c0-4,3.2-7.2,7.1-7.2c0,0,0,0,0.1,0h29.8c5.4,0,7.2,4.2,7.2,7.2
		c0,4-3.2,7.2-7.2,7.2h-29.8C361.1,87,357.1,83,357.1,79.8z M399.2,109.6h-32.2c-5.4,0-7.2-4-7.2-7.2c0-4,3.2-7.2,7.1-7.2
		c0,0,0,0,0.1,0h32.2c3.9,0.1,7.1,3.3,7.2,7.2C406.3,106.4,403.1,109.6,399.2,109.6z"/>
	<path class="st3" d="M107.4,206.7c-7.2,0.1-12.9,5.9-12.9,13.1v0.1c-0.1,7.1,5.5,12.9,12.6,13.1c7.1,0.1,12.9-5.5,13.1-12.6
		c0-0.2,0-0.3,0-0.5v-0.1C120.3,212.7,114.6,206.8,107.4,206.7z"/>
	<path d="M116.3,182.3L116.3,182.3c-2.9-0.8-5.9-1.1-8.9-1.1c-21,0-38.1,17.4-38.1,38.8c0,21,17.5,38.7,38.1,38.7
		c20.9,0,38-17.4,38.1-38.7C145.6,202.8,133,186.6,116.3,182.3z M125.2,219.9c0,10-8.2,18.1-18.2,18.1c-10,0-18.1-8.2-18.1-18.2
		s8.2-18.1,18.2-18.1C117.1,201.7,125.2,209.8,125.2,219.9L125.2,219.9z"/>
	<path class="st3" d="M327.7,206.7c-7.2,0.2-13,6.2-12.8,13.4c0.2,7,5.8,12.6,12.8,12.8c7.1,0,12.8-6.1,12.9-13.1
		C340.7,212.6,334.9,206.8,327.7,206.7z"/>
	<path d="M338.7,182.9L338.7,182.9c-3.5-1.2-7.2-1.8-11-1.8c-21,0-38.1,17.4-38.1,38.8c0,21,17.5,38.7,38.1,38.7
		c20.9,0,38-17.4,38.1-38.7C365.9,203.7,354.5,188.1,338.7,182.9z M345.6,219.9c0,10-8.2,18.1-18.2,18.1c-10,0-18.1-8.2-18.1-18.2
		s8.2-18.1,18.2-18.1C337.5,201.7,345.6,209.8,345.6,219.9L345.6,219.9z"/>
</g>
</svg>
