<svg xmlns="http://www.w3.org/2000/svg" width="325.833" height="328.551" viewBox="0 0 325.833 328.551">
  <defs>
    <style>
      .a {
        fill: #c5843d;
      }
    </style>
  </defs>
  <g>
    <g>
      <path class="a" d="M322.759,166.88c-.211,1.506,2.567.967,3.074,1.195C325.156,165.507,322.031,166.956,322.759,166.88Z"/>
      <path class="a" d="M315.635,143.288l-3.372-3.01,2.173,2.771Z"/>
      <path class="a" d="M310.684,134l4.139.941a70.053,70.053,0,0,0-3.422-7.294,13.3,13.3,0,0,1-2.057-6.465c-1.952,1.724-1.246,3.575-.073,5.585a10.117,10.117,0,0,1,2.3,6.345Z"/>
      <path class="a" d="M315.417,109.074a4.357,4.357,0,0,1,.243-.667,14.67,14.67,0,0,1-.79-2.307C313.433,107.531,312.375,104.141,315.417,109.074Z"/>
      <path class="a" d="M313.911,97.27c-2.253-2.77-2.923-1.622-3.756.888l2.868,2.336C313.741,99.422,312.73,96.589,313.911,97.27Z"/>
      <path class="a" d="M305.708,96.854c.467.391.927.793,1.361,1.206C307.363,97.6,307.326,97.1,305.708,96.854Z"/>
      <path class="a" d="M308.228,99.32c-1.4.33.116.391,1.659,1.377l-2.818-2.641C306.569,98.817,305.19,99.505,308.228,99.32Z"/>
      <path class="a" d="M307.374,104.988c1.477,2.68,2.846,3.553,3.552,3.028s.725-2.463-.865-5.175C309.887,104.919,310.112,107.317,307.374,104.988Z"/>
      <path class="a" d="M304.31,121.612c-.2.858-.395,1.706-.649,2.56l2.061,1.42c-.514-.362-.5-1.5-.54-2.484S304.99,121.318,304.31,121.612Z"/>
      <path class="a" d="M302.448,78.825c-.967.362-1.684,2.369-2.658,3.26.775.467,1.5.97,2.238,1.474C302.032,82.085,301.267,79.77,302.448,78.825Z"/>
      <path class="a" d="M299.79,82.074l-3.405-2.1C297.932,82.766,298.946,82.827,299.79,82.074Z"/>
      <path class="a" d="M300.17,97.723l.54.953c1.988,1.126,3.8,2.386,5.729,3.639C304.364,100.718,302.336,99.157,300.17,97.723Z"/>
      <path class="a" d="M297.711,67.42q-2.506-.515-5.071-.88l1.96.562C295.639,67.192,296.664,67.308,297.711,67.42Z"/>
      <path class="a" d="M288.439,60.05c2.51-.062,1.1-3.741,3.1-3.259a14.206,14.206,0,0,0-7.084-2.775A7.757,7.757,0,0,1,288.439,60.05Z"/>
      <path class="a" d="M280.6,53.136a20.013,20.013,0,0,0,3.85.884A9.435,9.435,0,0,0,280.6,53.136Z"/>
      <path class="a" d="M294.111,70.655l-1.489,2.817.783,1.174A4.479,4.479,0,0,0,294.111,70.655Z"/>
      <path class="a" d="M292.579,73.567l.047-.095L290.989,70.9Z"/>
      <path class="a" d="M293.6,74.943l-.2-.3C293.252,74.917,293.223,75.037,293.6,74.943Z"/>
      <path class="a" d="M298.71,89.419c-2.426-1.029-5.961-3.742-6.037.985C295.078,90.679,295.1,87.937,298.71,89.419Z"/>
      <path class="a" d="M295.523,80.64c-1.293-.768-2.535-1.554-3.853-2.268.536,1.134.992,2.318,1.488,3.466C293.752,81.371,294.3,80.2,295.523,80.64Z"/>
      <path class="a" d="M289.877,77.405l1.811.967-.6-1.26Z"/>
      <path class="a" d="M283.1,59.808a6.581,6.581,0,0,1-2.571-1.185,27.049,27.049,0,0,1-2.253-1.829A35.46,35.46,0,0,0,282,62.227C282.876,61.847,284.713,61.513,283.1,59.808Z"/>
      <path class="a" d="M287.693,66.537c-.119-.047-.235-.142-.362-.185C287.291,66.678,287.338,66.866,287.693,66.537Z"/>
      <path class="a" d="M263.823,43.108a6.026,6.026,0,0,1-.091.605l.362-.33Z"/>
      <path class="a" d="M281.844,62.835a3.176,3.176,0,0,0,3.082,2,18.418,18.418,0,0,1-2.9-2.619C281.616,62.368,281.4,62.524,281.844,62.835Z"/>
      <path class="a" d="M275.687,50.014a27.627,27.627,0,0,0,.917,3.126C276.69,51.89,276.437,49.692,275.687,50.014Z"/>
      <path class="a" d="M287.61,65.425a1.448,1.448,0,0,1,.253.116C288.005,64.73,287.813,64.972,287.61,65.425Z"/>
      <path class="a" d="M287.614,65.425a8.651,8.651,0,0,0-2.691-.6,11.248,11.248,0,0,0,2.419,1.528A3.443,3.443,0,0,1,287.614,65.425Z"/>
      <path class="a" d="M268.911,48.588l1.333.818a15.568,15.568,0,0,1-1.6-6.251c-2.818-.724-3.843-.326-4.542.228,1.811,1.76,3.691,3.462,5.454,5.273Z"/>
      <path class="a" d="M275.209,54.2c-2.857,1.087-6.331-.431-6.906,3.285,3.212,2.9,3.817.475,6.555,1.5-5.433-4.668,2.582.391.159-4.509a16.425,16.425,0,0,1,3.26,2.322A26.5,26.5,0,0,1,276.6,53.14q.006.123,0,.246l.029.018-.037.026c-.036.478-.119.724-.217.3a.392.392,0,0,1-.148-.069,3.939,3.939,0,0,1-1,.522c-1.04-1.942.3-.768,1-.522a3.07,3.07,0,0,0,.362-.235.109.109,0,0,0,0-.044c-2.054-1.423-4.252-2.669-6.349-3.984A23.494,23.494,0,0,0,275.209,54.2Z"/>
      <path class="a" d="M285.531,90.48a.984.984,0,0,1,.453-.532C285.462,89.77,285.162,89.763,285.531,90.48Z"/>
      <path class="a" d="M289.091,81.1l.409-.522C289.377,80.527,289.236,80.741,289.091,81.1Z"/>
      <path class="a" d="M285.513,87.227c.6.2,1.789-.076,2.405,1.449,0,1.623-1.174.725-1.938,1.279,1.163.384,3.539,1.793,3.126-1.521l-.591-.2a15.7,15.7,0,0,1,.576-7.128A22.833,22.833,0,0,0,285.513,87.227Z"/>
      <path class="a" d="M275.941,71.285l1.05-1.069c1.623,2.869,2.568,1.2,3.73.79-1.532-1.253-3.183-2.383-4.791-3.531Z"/>
      <path class="a" d="M266.763,39.758c-1.811.29-3.679.7-5.483,1.086l2.923.725Z"/>
      <path class="a" d="M259.527,34.981c-.88,0-1.785,0-2.669.032l.855,1.9Z"/>
      <path class="a" d="M73.766,29.124c-3.487-.7-8.156-2.231-6.236.062l2.278,1.97A5.689,5.689,0,0,1,73.766,29.124Z"/>
      <path class="a" d="M182.888,7.105a15.2,15.2,0,0,0-5.381-2.441C180.06,6.655,181.842,9.394,182.888,7.105Z"/>
      <path class="a" d="M18.13,246.057c1,.692,1.742.8,2.289.456C19.437,245.8,18.637,245.51,18.13,246.057Z"/>
      <path class="a" d="M177.51,4.678a4.94,4.94,0,0,0-6.541-.54,12.749,12.749,0,0,0,1.148.768A12.524,12.524,0,0,1,177.51,4.678Z"/>
      <path class="a" d="M317.789,189.316a17.729,17.729,0,0,1-.162,3.02A5.532,5.532,0,0,0,317.789,189.316Z"/>
      <path class="a" d="M231.571,33.952A2.552,2.552,0,0,1,232.8,33,2.026,2.026,0,0,0,231.571,33.952Z"/>
      <path class="a" d="M231.017,19.77a10.36,10.36,0,0,0,1.554,1.753A9.007,9.007,0,0,0,231.017,19.77Z"/>
      <path class="a" d="M232.875,20.139c.467.384.844.659,1.2.927C234.487,20.733,234.451,20.374,232.875,20.139Z"/>
      <path class="a" d="M230.865,19.2c-.474-.166-1.141-.4-2.227-.84a9.667,9.667,0,0,1,2.379,1.409C230.8,19.451,230.742,19.248,230.865,19.2Z"/>
      <path class="a" d="M317.627,192.333c-.794,1.38-2.854-.475-4.473-.428,1.836-2.748,3.73-5.584,5.487-8.514-2.13-1.05-2.018-3.481-1.891-5.835s.083-4.629-1.981-5.15l.685,2.9c-2.442-2.006-5.216-.749-8.225.725l-.906.442c.156-2.778.243-5.574.243-8.388a146.4,146.4,0,0,0-46.2-106.909.735.735,0,0,0,.268.079l.927-1.177c-1.351-1.169-2.9-1.394-2.6-.206q-1.724-1.582-3.5-3.111c3.665.09,7.605-7.407,8.268-13.038-.833.829-1.481,1.557-5.342.529.2,1.868,3.984,7.725.141,7.572-2.173-1.021-2.789-1.763-2.944-2.618a11.367,11.367,0,0,0-.33-3.057c-.25,1.894-2.173,1.905-4.252,2.039a6.883,6.883,0,0,0-4.509,1.449,146.692,146.692,0,0,0-23.313-13.991,1.108,1.108,0,0,0,.363-1.173l-2.536-.594c-.977-3.622,6.121-1.615,3.7-4.19a34.181,34.181,0,0,1,6.544-.286,11.258,11.258,0,0,1,3.321.771,9.1,9.1,0,0,1,2.948,2.173L236.3,36.35c.518-1.087-1.623-3.745-3.448-3.343,1.343-.286,2.343,1.891,3.527,3.654a5.516,5.516,0,0,0,2.032,2.029,2.715,2.715,0,0,0,2.9-.489c-.482-1.42-.96-2.9-1.518-4.267,2.1,0,4.629-.188,7.124,0a8.471,8.471,0,0,1,6.356,2.764c.579-4.528-1.087-.236-1.195-6.052-.424,3.223-2.9,1.539-5.234.025-2.136-1.449-4.175-2.6-4.179.228a6.849,6.849,0,0,0-2.155-4.882,12.032,12.032,0,0,1-3.433-5.523c-.5,1.257.228,3.01-3.006.608a5.551,5.551,0,0,1-1.308.663,2.39,2.39,0,0,1-.192-.21c.047.083.073.163.123.243-.242.1-.275.134.048.087a4.846,4.846,0,0,1,.851,2.738,8.585,8.585,0,0,1-5.748.308,16.922,16.922,0,0,0-5.331-.507c-1.811-1.514,1.481-1.025.927-2.854-1.257.3-2.51.622-3.767,1,.906-2.861-3.878-6.882,1.905-6.476l-4.6-1.952a10.752,10.752,0,0,0-8.66-4.089c-2.118-1.282-6.646,1.554-4.038-.145-1.344-.054-2.673-.127-4-.152l-4.006.022.1-.746A46.253,46.253,0,0,0,184.449,8.4a19.34,19.34,0,0,1-12.335-3.48,31.272,31.272,0,0,1-4.187.724,15.888,15.888,0,0,1-5.411-.329l-.811-2.608a20.743,20.743,0,0,1-6.5-.554c-2.3-.362-4.379-.521-5.02.913A6.158,6.158,0,0,0,145.769.2a13.519,13.519,0,0,0-2.98-.181,24.016,24.016,0,0,0-3.224.47c-2.173.468-4.429,1.036-6.475,1.63a19.5,19.5,0,0,1-5.462,1l.424,3.358a21.376,21.376,0,0,0-5.874,1.771c-.982.424-1.978.9-3.006,1.427S117.1,10.867,116,11.526l1.087,2.793a11.328,11.328,0,0,1-7.512,2.173c-1.553.1-3.208.17-4.874.362A18.572,18.572,0,0,0,99.864,18.2c0-1.228,1.717-1.583,3.086-1.38a8.742,8.742,0,0,0-6.566.275,20.492,20.492,0,0,0-5.168,3.919,53.021,53.021,0,0,1-4.683,4.321,8.337,8.337,0,0,1-5.578,1.7,3.85,3.85,0,0,1-3.839,2.173.813.813,0,0,0,.312-.362,3.964,3.964,0,0,0-.667.343,21.851,21.851,0,0,0-2.995-.032,9.731,9.731,0,0,0,2.651.243,18.478,18.478,0,0,0-4.107,3.983l-2.506-2.2c-.123.126-.242.2-.362.34-2.409.145-.54,2.151,1.709,3.575a8.694,8.694,0,0,0-1.144,3.132c-2.137-1.658-3.006-.507-3.933.638s-1.916,2.289-4.473.808c.264,1.5-1.467,3.509-2.9,5.758A7.919,7.919,0,0,0,57.28,51.7c-2.118.934-4.147,2.053-4.491,4.567l-3.52-2.279.138,3.662.271,3.68c-3.8.384-5.794.362-5.965-3.984a39.143,39.143,0,0,1-1.064,4.6,19.3,19.3,0,0,1-.848,2.384,14.82,14.82,0,0,0-1.086,6.3L38.86,68.731c-1.289,1.811-.612,6.657-3.14,6.349a9.9,9.9,0,0,0-5.353,3.535,27.668,27.668,0,0,0-2.777,3.477c-.924,1.3-1.873,2.712-2.843,4.179A116.14,116.14,0,0,1,12.632,104.2c4.071.439,2.644,1.406.927,2.677s-3.723,2.9-1.007,4.223c-1.977,0-3.621,1.333-4.346-1.184a19.984,19.984,0,0,1-2.828,7.511,5.994,5.994,0,0,0,.326,6.841c-1.981.225-2.2-2.1-3.434-1.756.232.63.96,2.466-.286,2.843s-1.224-1.344-1.7-2.594a8.035,8.035,0,0,0,0,4.242A6.533,6.533,0,0,0,2.3,129.9a20.847,20.847,0,0,0,6.957,3.26c-1.59,1.307-2.4,2.408-2.441,3.542A5.834,5.834,0,0,0,9.1,140.484c-1.9.786-4.042,2.4-3.937-1.72l-.989,3.031c-.217.688-.441,1.449-.651,2.224a22.05,22.05,0,0,0-.457,2.408c-.481,3.227-.384,6.255,1.775,6.57-1.13.6-.558,3.137-.112,3.763-.334,2.535-.58,3.89-.667,5.259a35.063,35.063,0,0,0,0,5.226l.725-1.373c5.041,2,1.137,4.078,1.854,8.062l-.529-.094A13.315,13.315,0,0,0,5,178.519a3.777,3.777,0,0,0,.467,1.895,3.2,3.2,0,0,1,.363,1.872,10.915,10.915,0,0,1-.334,1.811c-.166.764-.427,1.709-.811,2.9l3.111-.865c3.466.018,2.7,2.031,1.492,4.755-1.126,2.691-2.6,6.157-.836,8.486L9.9,197.164c1.366,1.173-.463,3.524-2.676,6.124s-4.817,5.433-4.777,6.987c-.391.789-1.232-.754-1.873-1.554C-1.2,217.5,4.888,208.663,7.4,213.98c-1.84,1.7-5.936.3-5.132,4.273-.543,1.232,2.126,3.473,4.643,6.074a19.1,19.1,0,0,1,3.415,4.139,7.141,7.141,0,0,1,.837,2.286,5.257,5.257,0,0,1-.058,2.412c1.086-1.811,2.235-3.5,4.527-1.6,1.148,1.709.685,4.947,1.061,7.837s1.159,5.589,4.52,5.835a1.954,1.954,0,0,1-.818,1.311c1.427,1.007,3.132,2.97,5.092,4.556a9.981,9.981,0,0,0,5.689,2.858,4.419,4.419,0,0,0-.865,5.7,15.234,15.234,0,0,0,4.878,4.5,22.464,22.464,0,0,1,4.788,3.744c.967,1.221.96,2.557-.978,4.209,1.134,1.151,2.227,2.339,3.4,3.451l3.531,3.31-.923.544a10.472,10.472,0,0,0,5.487,4.1,11.924,11.924,0,0,0,4.933.145c.594,1.448-.812,1.474-1.257,1.789a19.292,19.292,0,0,0,6.45,6.689,20.879,20.879,0,0,0,9.091,1.373l-1.293,3.133c.695-.1,1.506.583,2.5,1.7s2.231,2.557,3.673,4.122c.724.775,1.506,1.575,2.35,2.336a25.692,25.692,0,0,0,2.778,2.042,13.588,13.588,0,0,0,6.591,2.315,2.274,2.274,0,0,1-1.557.865c5.32.62,9.674,5.219,14.125,8.363,4.393,3.2,8.735,4.842,12.288-.3,2.351-.2,4.73-.645,7.037-.989-3.857-1.583-3.154-2.738-1.883-3.871s3.111-2.242,1.811-3.644a5.971,5.971,0,0,1,4.107,2.858c.854,1.3.836,2.6-1.141,2.4l-.435-.749c-3.049,5.794,9.362,4.556,8.308,8.59,8.157,1.489,16.19,3.112,24.266,4.347l6.063.8c2.021.2,4.042.326,6.059.46a59.171,59.171,0,0,0,6.03.127c2-.054,4-.044,5.972-.283-.782-1.543-1.543-3.067-2.292-4.65,1.789-.076,3.574-.246,5.363-.362,1.547.945,2.434,3.535-1.5,3.828,1.191,1.243,2.777.456,4.009-.767a7.151,7.151,0,0,0,2.079-3.484c3.868.315,3.429,1.836,2.231,3.259s-3.13,2.735-1.945,2.582l3.136-.927-.818-.431c1.119-1.209,1.622-2.343,2.43-3.259a4.9,4.9,0,0,1,1.546-1.17,8.9,8.9,0,0,1,2.651-.837c3.09.29,2.173,2.586,3.35,2.5.073.337.5.405,1.811-.275,2.286-.45,4.556-.982,6.842-1.482q-1.9-1.449-3.738-2.937c2.394-2.629,6.182-1.586,1.938-4.871,3.114,2.557,9.416,1.159,15.1-1.173,2.857-1.119,5.512-2.575,7.725-3.549a11.382,11.382,0,0,1,4.708-1.663,15.145,15.145,0,0,1,2.075-2.872,16.51,16.51,0,0,1,2.423-2.282,53.5,53.5,0,0,1,6.041-3.654,2.629,2.629,0,0,1-.511-5.132c1.75,4.147,4.013,3.955,6.585,2.93a11.23,11.23,0,0,1,8.9-1.26c-2.583-.681-.2-2.879,1.81-5.071s3.524-4.581-.3-5.233c3.242-1.851,2.325,2.408,5.849,2.133a22.567,22.567,0,0,1,4.419-5.581c.883-.833,1.865-1.6,2.854-2.4s2-1.6,3.049-2.394,2.148-1.579,3.191-2.434,2.079-1.753,3.089-2.68a29.115,29.115,0,0,0,5.371-6.331c-.826-.84-3.368-.507-3.307-3.412,2.764-.293,5.433-.753,8.167-1.231.41-1.087-.68-2.455-1.177-3.68s-.4-2.274,2.365-2.843c-1.13-.061-2.814-.191-2.35-1.608a36.679,36.679,0,0,0,5.476-6.1q1.2-1.658,2.292-3.393c.725-1.159,1.34-2.383,1.978-3.6s1.224-2.456,1.811-3.7l1.542-3.832c.493-1.29,1.018-2.561,1.449-3.865l1.311-3.925c.931-2.594,1.684-5.245,2.582-7.845.953-2.586,1.735-5.219,2.811-7.78a73.921,73.921,0,0,1,8.084-15.348C317.177,196.628,317.315,194.593,317.627,192.333ZM251.911,52.9a4.324,4.324,0,0,1,2.032,1.246A5.072,5.072,0,0,1,255,56.359q-2.174-1.846-4.4-3.621a4.47,4.47,0,0,1,1.307.159Zm-2.173-1.018a.755.755,0,0,1-.113.113l-.278-.214ZM212.717,14.616a.754.754,0,0,0-.174.105c-2.18-2.064-1.42-1.286.181-.105Zm-33.494,5.541a17.728,17.728,0,0,1,4.346-2.85,22.005,22.005,0,0,1,5.386-1.59c3.009-.2,3.426.927,3.259,1.869s-.945,1.876-.362,1.593a10.519,10.519,0,0,0,6.2.362,16.61,16.61,0,0,0,4.314-1.872,8.9,8.9,0,0,1,3.937-1.377,7.008,7.008,0,0,1,4.8,2.3c2.26,4.546-2.2,6.777-2.282,9.478a7.545,7.545,0,0,1-5.095-2.35,10.1,10.1,0,0,0-3.912-2.691l3.2,2.673a6.159,6.159,0,0,1-6.157-.652,3.829,3.829,0,0,0,1.2,1.282,146.3,146.3,0,0,0-20.778-4.009,14.945,14.945,0,0,1,1.952-2.162ZM153.618,18.5a5.223,5.223,0,0,0,.829,2.865q-2.212.079-4.411.224a9.223,9.223,0,0,1,3.593-3.089Zm-31.491-1.59c.322.1,2.727.8,5.269,1.746a21.015,21.015,0,0,1,6.335,3.382,3.781,3.781,0,0,1,.811,1.384q-2.673.461-5.309,1.021l-1.156-4.929.428,5.07c-1.739.363-3.466.775-5.179,1.214a25.5,25.5,0,0,1-1.188-8.892ZM96.775,27.455c1.224-1.449,2.459-2.966,3.781-4.346-.384,2.731-1.152,7.044-1.948,11.448q-3.709,1.7-7.3,3.6a19.922,19.922,0,0,1,3.383-12.165ZM57.262,51.7a5.017,5.017,0,0,0,.478,1.087c-.5-.507-1.148-.406-.452-1.091ZM54.035,66.189q-1.3,1.347-2.564,2.724c-.616-2.242-1.195-4.5-1.709-6.78a21.356,21.356,0,0,0,4.3,4.052ZM11.4,135c.855-.59,2.137.362,3.651,1.713-.25-.481-.5-.945-.746-1.321a2.621,2.621,0,0,1,2.419-.692c-.228.974-.438,1.956-.648,2.941l-1.029-.927c.283.521.565,1.086.87,1.669-.091.442-.171.891-.258,1.337a25.421,25.421,0,0,0-3.259,1.861c-.351-2.18-.746-4.382-.978-6.592Zm186.572,188.13-1.253-.576c2.173-1.46,1.713-.493,1.275.561Z"/>
      <path class="a" d="M246.706,26.289c.127.047.258.083.384.13A.918.918,0,0,0,246.706,26.289Z"/>
      <path class="a" d="M245.786,27.832c.279-.58.3-1.605.917-1.543-1.065-.384-2.173-.725-3.238-1.054A4.276,4.276,0,0,1,245.786,27.832Z"/>
      <path class="a" d="M247.793,38.11a9.5,9.5,0,0,0-3.622-.862c-1.253,2.452,1.112,2.742,3.347,3.774a1.471,1.471,0,0,1-.363-.246C248.557,39.425,248.517,38.631,247.793,38.11Z"/>
      <path class="a" d="M248.05,41.272a6.565,6.565,0,0,1,1.865,1.242C251.031,41.449,249.35,41.724,248.05,41.272Z"/>
      <path class="a" d="M224.875,18.922c.818,1.134,2.093-2.846,2.278-1.554,1.336-1.285-.978-1.187-2.72-.6-.866.282-1.612.724-1.7,1.119S223.191,18.651,224.875,18.922Z"/>
      <path class="a" d="M240.923,45.73,242.06,42.5l-2.568,1.55Z"/>
      <path class="a" d="M226.3,34.452l2.9,2.535c.21-.521.786-.594,1.427-.55C228.623,35.278,226.66,33.529,226.3,34.452Z"/>
      <path class="a" d="M233.512,37.429a9.145,9.145,0,0,0-2.9-1A4.769,4.769,0,0,0,233.512,37.429Z"/>
      <path class="a" d="M186.228,22.91c1.086-.616,2.665-.783,2.263-1.978l-4.19.225C183.707,22.207,184.67,23.094,186.228,22.91Z"/>
      <path class="a" d="M322.6,177.419c.58-1.087,1.036-2.217,1.55-3.339l-2.336,2.1C322.092,176.589,322.338,176.991,322.6,177.419Z"/>
      <path class="a" d="M318.26,168.075c.174.724.515,2.2-.478,2.749l4.346-.725Z"/>
    </g>
    <g>
      <path d="M165.642,45.452a8.4,8.4,0,0,1,.9-2.993,7.4,7.4,0,0,1,1.828-2.274,7.068,7.068,0,0,1,2.563-1.346,7.746,7.746,0,0,1,3.091-.235,9.254,9.254,0,0,1,1.87.4,8.518,8.518,0,0,1,1.439.614,7.174,7.174,0,0,1,1.017.669,7.453,7.453,0,0,1,.626.554.365.365,0,0,1-.017.523l-.123.117a.344.344,0,0,1-.523-.016q-.218-.2-.6-.5a7.442,7.442,0,0,0-.927-.6,7.881,7.881,0,0,0-1.261-.551,7.472,7.472,0,0,0-1.58-.346,6.619,6.619,0,0,0-2.706.215,6.28,6.28,0,0,0-2.228,1.192,6.575,6.575,0,0,0-1.6,2.011,7.547,7.547,0,0,0-.8,2.674,7.979,7.979,0,0,0,.157,2.818,6.743,6.743,0,0,0,1.091,2.4,6.42,6.42,0,0,0,1.922,1.747,6.489,6.489,0,0,0,2.626.863,6.951,6.951,0,0,0,1.762-.005,8.635,8.635,0,0,0,1.46-.324,6.23,6.23,0,0,0,1.117-.473c.312-.176.554-.319.728-.431a.336.336,0,0,1,.516.082l.074.118a.336.336,0,0,1-.082.516q-.263.188-.777.479a7.121,7.121,0,0,1-1.233.531,9.033,9.033,0,0,1-1.64.369,8,8,0,0,1-2.025,0,7.52,7.52,0,0,1-3.028-.984,7.368,7.368,0,0,1-2.191-1.971,7.7,7.7,0,0,1-1.254-2.695A8.669,8.669,0,0,1,165.642,45.452Z"/>
      <path d="M187.729,41.623a.39.39,0,0,1,.473-.2l.381.092a.389.389,0,0,1,.331.392l1.912,15.35q.047.459-.4.352l-.232-.056a.384.384,0,0,1-.336-.371L189.2,51.9,182.921,50.4l-2.953,4.391a.388.388,0,0,1-.472.2l-.233-.056c-.3-.071-.361-.235-.194-.494Zm1.358,9.359-.8-6.543a3.732,3.732,0,0,1-.061-.584c-.007-.218-.017-.426-.03-.622q-.008-.337-.033-.7l-.042-.01q-.187.313-.347.61c-.1.17-.207.35-.32.539s-.215.354-.308.5l-3.7,5.463Z"/>
      <path d="M192.484,56.865a.335.335,0,0,1,.153-.5l.2-.114a.319.319,0,0,1,.5.152,6.026,6.026,0,0,0,.382.584,6.3,6.3,0,0,0,.621.725,5.628,5.628,0,0,0,.869.709,5.135,5.135,0,0,0,1.16.569,4.465,4.465,0,0,0,1.372.262,3.151,3.151,0,0,0,1.234-.2,2.776,2.776,0,0,0,.99-.655,2.9,2.9,0,0,0,.661-1.093,2.588,2.588,0,0,0,.033-1.832,5.3,5.3,0,0,0-.979-1.577,15.97,15.97,0,0,0-1.469-1.461,13.185,13.185,0,0,1-1.458-1.491,5.133,5.133,0,0,1-.943-1.68,3.068,3.068,0,0,1,.094-2.006,3.614,3.614,0,0,1,.876-1.41A3.7,3.7,0,0,1,198.114,45a4.413,4.413,0,0,1,1.635-.256,5.787,5.787,0,0,1,1.782.338,5.644,5.644,0,0,1,1.137.538,6.769,6.769,0,0,1,.87.639,5.035,5.035,0,0,1,.609.629q.239.3.373.512a.327.327,0,0,1-.084.5l-.188.142a.32.32,0,0,1-.514-.112q-.141-.187-.357-.459a4.665,4.665,0,0,0-.531-.556,5.371,5.371,0,0,0-.73-.544,4.785,4.785,0,0,0-2.265-.7,3.458,3.458,0,0,0-1.268.166,2.9,2.9,0,0,0-1.045.612,2.571,2.571,0,0,0-.688,1.072,2.356,2.356,0,0,0,0,1.751,5.212,5.212,0,0,0,1,1.5,20.084,20.084,0,0,0,1.48,1.431,12.437,12.437,0,0,1,1.454,1.5,5.052,5.052,0,0,1,.929,1.72,3.328,3.328,0,0,1-.127,2.1,4.142,4.142,0,0,1-.813,1.4,3.665,3.665,0,0,1-1.256.918,4.059,4.059,0,0,1-1.6.336,5.4,5.4,0,0,1-1.865-.333,5.985,5.985,0,0,1-1.4-.686,7.356,7.356,0,0,1-1.032-.835,6.551,6.551,0,0,1-1.136-1.459Z"/>
      <path d="M209.41,48.8a.327.327,0,0,1,.491-.179l6.879,3.206a.327.327,0,0,1,.179.491l-.055.118a.326.326,0,0,1-.491.179l-6.367-2.966L207.411,55.3l5.164,2.407a.327.327,0,0,1,.179.491l-.055.118a.327.327,0,0,1-.492.179l-5.164-2.406-2.69,5.775,6.74,3.141a.326.326,0,0,1,.179.491l-.055.118a.326.326,0,0,1-.491.179l-7.253-3.379a.326.326,0,0,1-.179-.491Z"/>
      <path d="M218.058,68.342a.336.336,0,0,1,.268-.449l.222-.062A.319.319,0,0,1,219,68.1a6.376,6.376,0,0,0,.661,1.512,5.569,5.569,0,0,0,.674.9,5.154,5.154,0,0,0,.99.83,4.473,4.473,0,0,0,1.268.583,3.142,3.142,0,0,0,1.247.1,2.793,2.793,0,0,0,1.118-.4,2.9,2.9,0,0,0,.9-.9,2.588,2.588,0,0,0,.471-1.772,5.32,5.32,0,0,0-.573-1.765,16.261,16.261,0,0,0-1.076-1.77,13.313,13.313,0,0,1-1.059-1.8,5.107,5.107,0,0,1-.513-1.857,3.063,3.063,0,0,1,.572-1.925,3.6,3.6,0,0,1,1.187-1.159,3.69,3.69,0,0,1,1.5-.5,4.41,4.41,0,0,1,1.647.142,5.794,5.794,0,0,1,1.65.756,5.626,5.626,0,0,1,.975.794,6.735,6.735,0,0,1,.692.829,4.906,4.906,0,0,1,.44.756q.161.352.24.586a.327.327,0,0,1-.2.466l-.216.093a.321.321,0,0,1-.473-.232q-.092-.216-.236-.531a4.712,4.712,0,0,0-.383-.667,5.4,5.4,0,0,0-.579-.7,4.55,4.55,0,0,0-.795-.651,4.671,4.671,0,0,0-1.235-.575,3.472,3.472,0,0,0-1.271-.143,2.916,2.916,0,0,0-1.161.345,2.562,2.562,0,0,0-.925.876,2.355,2.355,0,0,0-.423,1.7,5.206,5.206,0,0,0,.615,1.7,20.4,20.4,0,0,0,1.094,1.743,12.45,12.45,0,0,1,1.052,1.806,5.047,5.047,0,0,1,.49,1.893,3.33,3.33,0,0,1-.626,2.008,4.111,4.111,0,0,1-1.124,1.161,3.668,3.668,0,0,1-1.439.591,4.055,4.055,0,0,1-1.638-.059,5.383,5.383,0,0,1-1.731-.769,6.014,6.014,0,0,1-1.191-1,7.362,7.362,0,0,1-.8-1.058,6.545,6.545,0,0,1-.5-.964A6.411,6.411,0,0,1,218.058,68.342Z"/>
      <path d="M238.869,67.164l-4.128-3.333a.327.327,0,0,1-.055-.52l.082-.1a.327.327,0,0,1,.52-.056l8.983,7.254a.327.327,0,0,1,.056.52l-.082.1a.327.327,0,0,1-.52.055L239.6,67.752,230.813,78.63a.327.327,0,0,1-.52.055l-.152-.123a.326.326,0,0,1-.055-.519Z"/>
      <path d="M246.913,73.316a.327.327,0,0,1,.523.006l.137.14a.327.327,0,0,1-.007.523L240.7,80.7a5.206,5.206,0,0,0-1.15,1.595,4.188,4.188,0,0,0-.375,1.7,4.073,4.073,0,0,0,.38,1.712,6.185,6.185,0,0,0,2.729,2.791,4.18,4.18,0,0,0,1.718.433,4.068,4.068,0,0,0,1.735-.343,5.405,5.405,0,0,0,1.637-1.13l6.836-6.683a.327.327,0,0,1,.523,0l.137.14a.327.327,0,0,1-.006.523l-6.888,6.734a5.972,5.972,0,0,1-1.913,1.294,4.944,4.944,0,0,1-2.05.376,5.059,5.059,0,0,1-2.039-.515,7.166,7.166,0,0,1-3.223-3.3,4.972,4.972,0,0,1-.054-4.1,5.832,5.832,0,0,1,1.328-1.892Z"/>
      <path d="M258.656,85.874a.327.327,0,0,1,.518.075l2.645,3.533a8.993,8.993,0,0,1,1.449,2.787,6.534,6.534,0,0,1,.241,2.807,6.815,6.815,0,0,1-.99,2.67,8.741,8.741,0,0,1-2.243,2.373,8.835,8.835,0,0,1-2.926,1.5,6.707,6.707,0,0,1-2.832.191,6.6,6.6,0,0,1-2.617-1.029,9,9,0,0,1-2.266-2.174l-2.646-3.533a.327.327,0,0,1,.075-.518ZM250.24,97.962a8.294,8.294,0,0,0,2,1.95,5.659,5.659,0,0,0,4.838.765,8.8,8.8,0,0,0,4.63-3.467,5.726,5.726,0,0,0,.861-2.369,5.982,5.982,0,0,0-.242-2.481,8.1,8.1,0,0,0-1.3-2.478l-2.216-2.959L248.024,95Z"/>
      <path d="M262.811,106.37,267.378,98a.3.3,0,0,1,.24-.191c.1-.007.186.058.267.2l.132.225a.523.523,0,0,1,.014.5l-3.222,5.9q-.156.292-.336.587c-.121.2-.227.373-.321.529q-.186.285-.352.559l.022.038c.213-.008.434-.02.66-.035.182,0,.387-.012.618-.021s.455-.011.677-.007l6.719.068a.521.521,0,0,1,.427.254l.132.225c.08.138.094.247.041.329a.3.3,0,0,1-.285.116l-9.527-.084-5.384,3.156a.327.327,0,0,1-.506-.131l-.1-.169a.327.327,0,0,1,.132-.506Z"/>
      <path d="M277.51,139.136a8.392,8.392,0,0,1,3.126-.021,7.394,7.394,0,0,1,2.712,1.075,7.068,7.068,0,0,1,2.043,2.051,7.763,7.763,0,0,1,1.137,2.884,9.27,9.27,0,0,1,.172,1.9,8.567,8.567,0,0,1-.162,1.557,7.1,7.1,0,0,1-.339,1.169,7.381,7.381,0,0,1-.344.761.366.366,0,0,1-.5.139l-.148-.083a.345.345,0,0,1-.139-.5q.126-.267.3-.719a7.566,7.566,0,0,0,.3-1.062,7.847,7.847,0,0,0,.153-1.368,7.455,7.455,0,0,0-.135-1.611,6.639,6.639,0,0,0-1-2.522,6.293,6.293,0,0,0-1.8-1.777,6.572,6.572,0,0,0-2.394-.935,7.566,7.566,0,0,0-2.792.025,7.974,7.974,0,0,0-2.646.981,6.751,6.751,0,0,0-1.969,1.751,6.423,6.423,0,0,0-1.151,5.115,6.923,6.923,0,0,0,.525,1.683,8.6,8.6,0,0,0,.74,1.3,6.085,6.085,0,0,0,.782.927q.39.369.626.569a.335.335,0,0,1,.075.517l-.091.1a.335.335,0,0,1-.517.075,8.976,8.976,0,0,1-.688-.6,7.168,7.168,0,0,1-.871-1.02,9.258,9.258,0,0,1-.837-1.458,8.07,8.07,0,0,1-.6-1.935,7.522,7.522,0,0,1,.046-3.183,7.344,7.344,0,0,1,1.236-2.675,7.69,7.69,0,0,1,2.2-1.994A8.659,8.659,0,0,1,277.51,139.136Z"/>
      <path d="M287.688,159.091a.39.39,0,0,1,.331.393l.025.39a.388.388,0,0,1-.276.432l-14.1,6.368c-.283.12-.434.029-.453-.275l-.016-.239a.386.386,0,0,1,.255-.431l4.847-2.19-.42-6.444-5.068-1.522a.39.39,0,0,1-.331-.392l-.015-.239q-.03-.456.414-.332Zm-8.538,4.066,6.012-2.7a3.706,3.706,0,0,1,.541-.232q.309-.107.585-.212c.214-.072.433-.152.66-.24l0-.043c-.236-.057-.464-.108-.685-.151l-.609-.146c-.214-.051-.4-.1-.565-.148l-6.314-1.92Z"/>
      <path d="M274.538,168.154a.336.336,0,0,1,.523,0l.168.158a.318.318,0,0,1,0,.522,6.453,6.453,0,0,0-.95,1.348,5.591,5.591,0,0,0-.417,1.041,5.055,5.055,0,0,0-.2,1.277,4.478,4.478,0,0,0,.157,1.387,3.151,3.151,0,0,0,.559,1.118,2.793,2.793,0,0,0,.921.751,2.905,2.905,0,0,0,1.24.305,2.587,2.587,0,0,0,1.759-.515,5.3,5.3,0,0,0,1.213-1.4,15.935,15.935,0,0,0,.957-1.838,13.14,13.14,0,0,1,.989-1.836,5.111,5.111,0,0,1,1.322-1.4,3.076,3.076,0,0,1,1.944-.508,3.6,3.6,0,0,1,1.606.416,3.723,3.723,0,0,1,1.205,1.021,4.42,4.42,0,0,1,.731,1.484,5.768,5.768,0,0,1,.208,1.8,5.7,5.7,0,0,1-.174,1.245,6.747,6.747,0,0,1-.352,1.021,4.977,4.977,0,0,1-.418.769q-.219.318-.377.509a.328.328,0,0,1-.5.069l-.191-.137a.32.32,0,0,1-.047-.524c.091-.127.2-.287.332-.478a4.627,4.627,0,0,0,.372-.672,5.367,5.367,0,0,0,.3-.86,4.6,4.6,0,0,0,.145-1.018,4.68,4.68,0,0,0-.148-1.354,3.458,3.458,0,0,0-.536-1.161,2.909,2.909,0,0,0-.9-.815,2.578,2.578,0,0,0-1.228-.337,2.353,2.353,0,0,0-1.672.518,5.218,5.218,0,0,0-1.138,1.407,20.333,20.333,0,0,0-.924,1.839,12.543,12.543,0,0,1-1,1.836,5.074,5.074,0,0,1-1.366,1.4,3.328,3.328,0,0,1-2.041.5,4.137,4.137,0,0,1-1.576-.36,3.67,3.67,0,0,1-1.251-.925,4.049,4.049,0,0,1-.8-1.432,5.377,5.377,0,0,1-.238-1.879,5.959,5.959,0,0,1,.239-1.537,7.333,7.333,0,0,1,.489-1.233,6.567,6.567,0,0,1,1.054-1.519Z"/>
      <path d="M287.291,181.889a.327.327,0,0,1,.318.415l-1,7.523a.327.327,0,0,1-.415.318l-.13-.017a.327.327,0,0,1-.317-.416l.925-6.962-6.186-.822-.751,5.647a.327.327,0,0,1-.415.318l-.13-.017a.326.326,0,0,1-.317-.415l.75-5.648-6.315-.839-.98,7.372a.326.326,0,0,1-.415.317l-.13-.017a.326.326,0,0,1-.317-.415l1.054-7.932a.327.327,0,0,1,.415-.318Z"/>
      <path d="M271.228,196a.335.335,0,0,1,.508.122l.126.193a.318.318,0,0,1-.121.508A6.474,6.474,0,0,0,270.5,197.9a5.6,5.6,0,0,0-.654.911,5.132,5.132,0,0,0-.5,1.193,4.483,4.483,0,0,0-.178,1.384,3.151,3.151,0,0,0,.276,1.22,2.8,2.8,0,0,0,.714.948,2.892,2.892,0,0,0,1.132.592,2.583,2.583,0,0,0,1.831-.08A5.284,5.284,0,0,0,274.634,203,15.9,15.9,0,0,0,276,201.439a13.322,13.322,0,0,1,1.4-1.547,5.12,5.12,0,0,1,1.619-1.044,3.066,3.066,0,0,1,2.008-.029,3.62,3.62,0,0,1,1.461.786,3.722,3.722,0,0,1,.925,1.28,4.4,4.4,0,0,1,.356,1.615,6.044,6.044,0,0,1-.694,2.968,6.745,6.745,0,0,1-.585.907,4.915,4.915,0,0,1-.59.647q-.288.257-.488.4a.328.328,0,0,1-.5-.053l-.152-.179a.32.32,0,0,1,.079-.52c.12-.1.265-.23.437-.384a4.7,4.7,0,0,0,.522-.564,5.382,5.382,0,0,0,.5-.763,4.592,4.592,0,0,0,.384-.954,4.676,4.676,0,0,0,.179-1.35,3.463,3.463,0,0,0-.243-1.256,2.9,2.9,0,0,0-.676-1,2.561,2.561,0,0,0-1.112-.62,2.353,2.353,0,0,0-1.747.1,5.222,5.222,0,0,0-1.44,1.095,20.345,20.345,0,0,0-1.337,1.565,12.606,12.606,0,0,1-1.409,1.544,5.067,5.067,0,0,1-1.66,1.033,3.324,3.324,0,0,1-2.1,0,4.126,4.126,0,0,1-1.444-.725,3.655,3.655,0,0,1-.994-1.2,4.037,4.037,0,0,1-.434-1.58,5.374,5.374,0,0,1,.217-1.882,5.993,5.993,0,0,1,.6-1.435,7.386,7.386,0,0,1,.77-1.082,6.567,6.567,0,0,1,.771-.765A6.443,6.443,0,0,1,271.228,196Z"/>
      <path d="M278.561,215.51l1.952-4.934a.327.327,0,0,1,.48-.207l.122.048a.326.326,0,0,1,.207.48l-4.25,10.736a.327.327,0,0,1-.48.207l-.121-.048a.328.328,0,0,1-.208-.48l1.953-4.933-13-5.146a.328.328,0,0,1-.208-.48l.073-.182a.326.326,0,0,1,.479-.208Z"/>
      <path d="M275.077,225.025a.327.327,0,0,1,.15.5l-.093.172a.328.328,0,0,1-.5.15l-8.449-4.566a5.209,5.209,0,0,0-1.865-.625,4.165,4.165,0,0,0-1.739.148,4.072,4.072,0,0,0-1.522.87,6.2,6.2,0,0,0-1.856,3.434,4.156,4.156,0,0,0,.1,1.769,4.083,4.083,0,0,0,.843,1.556,5.383,5.383,0,0,0,1.564,1.228l8.41,4.545a.327.327,0,0,1,.15.5l-.093.172a.327.327,0,0,1-.5.149l-8.474-4.58a5.955,5.955,0,0,1-1.8-1.443,4.95,4.95,0,0,1-.968-1.846,5.066,5.066,0,0,1-.113-2.1,7.161,7.161,0,0,1,2.192-4.055,4.968,4.968,0,0,1,3.9-1.268,5.846,5.846,0,0,1,2.2.707Z"/>
      <path d="M266.557,239.977a.326.326,0,0,1,.082.516l-2.592,3.573a9.015,9.015,0,0,1-2.233,2.208,6.543,6.543,0,0,1-2.611,1.062,6.824,6.824,0,0,1-2.842-.155,9.676,9.676,0,0,1-5.228-3.793,6.7,6.7,0,0,1-1.021-2.648,6.618,6.618,0,0,1,.208-2.8,8.982,8.982,0,0,1,1.406-2.808l2.592-3.573a.327.327,0,0,1,.517-.082Zm-14.037-4.462a8.283,8.283,0,0,0-1.27,2.491,5.655,5.655,0,0,0,.7,4.847,8.79,8.79,0,0,0,4.682,3.4,5.724,5.724,0,0,0,2.518.121,6.009,6.009,0,0,0,2.3-.965,8.149,8.149,0,0,0,1.982-1.974l2.171-2.992-10.913-7.917Z"/>
      <path d="M248.214,250.007l9.353,1.88a.3.3,0,0,1,.254.173c.035.091,0,.195-.109.313l-.176.193a.522.522,0,0,1-.469.16l-6.588-1.33q-.326-.061-.661-.146t-.6-.15q-.327-.093-.639-.171l-.029.033q.107.3.228.62.089.258.2.583t.207.645l1.926,6.438a.522.522,0,0,1-.116.483l-.176.192c-.107.118-.208.164-.3.137a.3.3,0,0,1-.2-.237l-2.743-9.125-4.61-4.206a.327.327,0,0,1-.024-.522l.132-.145a.327.327,0,0,1,.522-.024Z"/>
      <path d="M226.074,270.773a8.423,8.423,0,0,1,1.091,2.93,7.407,7.407,0,0,1-.081,2.916,7.085,7.085,0,0,1-1.227,2.622,7.742,7.742,0,0,1-2.32,2.056,9.306,9.306,0,0,1-1.729.815,8.586,8.586,0,0,1-1.518.381,7.176,7.176,0,0,1-1.215.082,7.416,7.416,0,0,1-.833-.062.366.366,0,0,1-.3-.427l.027-.168a.345.345,0,0,1,.427-.3q.294.027.777.032a7.5,7.5,0,0,0,1.1-.083,7.959,7.959,0,0,0,1.337-.324,7.448,7.448,0,0,0,1.467-.68,6.619,6.619,0,0,0,2.025-1.808,6.262,6.262,0,0,0,1.054-2.3,6.582,6.582,0,0,0,.058-2.569,7.572,7.572,0,0,0-.98-2.614,7.968,7.968,0,0,0-1.829-2.149,6.737,6.737,0,0,0-2.32-1.25,6.414,6.414,0,0,0-2.587-.23,6.492,6.492,0,0,0-2.613.9,6.961,6.961,0,0,0-1.4,1.07,8.613,8.613,0,0,0-.966,1.141,6.082,6.082,0,0,0-.6,1.052c-.143.328-.249.59-.32.783a.335.335,0,0,1-.46.247l-.13-.049a.335.335,0,0,1-.247-.46,8.907,8.907,0,0,1,.329-.852,7.058,7.058,0,0,1,.66-1.168,9.144,9.144,0,0,1,1.083-1.286,8.05,8.05,0,0,1,1.612-1.226,7.524,7.524,0,0,1,3.006-1.048,7.343,7.343,0,0,1,2.937.245,7.691,7.691,0,0,1,2.629,1.387A8.673,8.673,0,0,1,226.074,270.773Z"/>
      <path d="M210.805,287.177a.388.388,0,0,1-.255.445l-.359.158a.388.388,0,0,1-.5-.113L198.883,276.6q-.314-.338.1-.521l.219-.1a.385.385,0,0,1,.492.092l3.717,3.805,5.911-2.6-.3-5.282a.388.388,0,0,1,.255-.445l.22-.1c.278-.122.429-.031.453.276Zm-6.742-6.632,4.6,4.725a3.778,3.778,0,0,1,.4.429q.207.253.4.477.212.264.451.538l.04-.017q-.041-.363-.093-.7-.033-.294-.071-.622t-.054-.582l-.357-6.589Z"/>
      <path d="M197.792,277.918a.335.335,0,0,1,.18.49l-.091.213a.318.318,0,0,1-.49.18,6.253,6.253,0,0,0-.658-.233,6.109,6.109,0,0,0-.933-.2,5.6,5.6,0,0,0-1.121-.039,5.1,5.1,0,0,0-1.268.249,4.44,4.44,0,0,0-1.25.62,3.129,3.129,0,0,0-.862.906,2.8,2.8,0,0,0-.393,1.12,2.912,2.912,0,0,0,.135,1.271,2.587,2.587,0,0,0,1.082,1.478,5.275,5.275,0,0,0,1.733.664,15.934,15.934,0,0,0,2.054.275,13.252,13.252,0,0,1,2.063.306,5.1,5.1,0,0,1,1.766.767,3.068,3.068,0,0,1,1.139,1.655,3.617,3.617,0,0,1,.156,1.652,3.715,3.715,0,0,1-.552,1.48,4.383,4.383,0,0,1-1.146,1.192,5.809,5.809,0,0,1-1.624.809,5.652,5.652,0,0,1-1.23.259,6.705,6.705,0,0,1-1.08.017,4.95,4.95,0,0,1-.865-.132c-.249-.065-.452-.125-.607-.182a.327.327,0,0,1-.236-.449l.064-.226a.321.321,0,0,1,.477-.223q.226.065.562.15a4.71,4.71,0,0,0,.759.122,5.369,5.369,0,0,0,.911-.009,4.8,4.8,0,0,0,2.229-.809,3.477,3.477,0,0,0,.91-.9,2.909,2.909,0,0,0,.462-1.12,2.568,2.568,0,0,0-.1-1.269,2.356,2.356,0,0,0-1.055-1.4,5.237,5.237,0,0,0-1.71-.591,20.442,20.442,0,0,0-2.044-.244,12.565,12.565,0,0,1-2.066-.316,5.057,5.057,0,0,1-1.78-.809,3.32,3.32,0,0,1-1.169-1.748,4.135,4.135,0,0,1-.2-1.6,3.643,3.643,0,0,1,.445-1.491,4.049,4.049,0,0,1,1.074-1.238,5.393,5.393,0,0,1,1.687-.863,6.031,6.031,0,0,1,1.526-.3,7.413,7.413,0,0,1,1.327.041,6.5,6.5,0,0,1,1.064.217A6.312,6.312,0,0,1,197.792,277.918Z"/>
      <path d="M189.2,294.58a.326.326,0,0,1-.283.439l-7.417,1.608a.326.326,0,0,1-.439-.283l-.028-.127a.327.327,0,0,1,.283-.44l6.864-1.488-1.322-6.1-5.568,1.207a.326.326,0,0,1-.439-.283l-.028-.128a.326.326,0,0,1,.283-.439l5.568-1.207-1.35-6.227-7.268,1.576a.327.327,0,0,1-.44-.283l-.027-.128a.326.326,0,0,1,.283-.439l7.82-1.695a.326.326,0,0,1,.44.282Z"/>
      <path d="M170.488,284.244a.335.335,0,0,1,.058.519l-.139.184a.318.318,0,0,1-.519.058,6.581,6.581,0,0,0-.583-.384,6.241,6.241,0,0,0-.858-.419,5.6,5.6,0,0,0-1.079-.306,5.113,5.113,0,0,0-1.29-.062,4.509,4.509,0,0,0-1.363.3,3.158,3.158,0,0,0-1.054.673,2.814,2.814,0,0,0-.649.994,2.905,2.905,0,0,0-.173,1.266,2.591,2.591,0,0,0,.7,1.695,5.306,5.306,0,0,0,1.524,1.059,15.918,15.918,0,0,0,1.928.758,13.277,13.277,0,0,1,1.93.791,5.127,5.127,0,0,1,1.532,1.168,3.07,3.07,0,0,1,.709,1.879,3.618,3.618,0,0,1-.244,1.641,3.727,3.727,0,0,1-.889,1.305,4.407,4.407,0,0,1-1.4.883,5.779,5.779,0,0,1-1.77.4,5.625,5.625,0,0,1-1.257-.043,6.562,6.562,0,0,1-1.052-.242,4.878,4.878,0,0,1-.809-.335q-.339-.185-.545-.322a.327.327,0,0,1-.122-.492l.116-.2a.32.32,0,0,1,.516-.1c.137.077.307.171.51.28a4.64,4.64,0,0,0,.708.3,5.37,5.37,0,0,0,.887.21,4.783,4.783,0,0,0,2.358-.253,3.448,3.448,0,0,0,1.1-.655,2.921,2.921,0,0,0,.716-.976,2.574,2.574,0,0,0,.206-1.257,2.352,2.352,0,0,0-.691-1.608,5.2,5.2,0,0,0-1.519-.984,20.094,20.094,0,0,0-1.925-.725,12.579,12.579,0,0,1-1.931-.8,5.051,5.051,0,0,1-1.535-1.211,3.333,3.333,0,0,1-.716-1.977,4.12,4.12,0,0,1,.192-1.605,3.651,3.651,0,0,1,.789-1.341,4.054,4.054,0,0,1,1.339-.945,5.371,5.371,0,0,1,1.845-.434,6.014,6.014,0,0,1,1.553.076,7.333,7.333,0,0,1,1.278.357,6.553,6.553,0,0,1,.981.465A6.368,6.368,0,0,1,170.488,284.244Z"/>
      <path d="M154.638,297.777l5.3.151a.327.327,0,0,1,.359.38l0,.13a.326.326,0,0,1-.38.359l-11.542-.327a.327.327,0,0,1-.359-.38l0-.131a.327.327,0,0,1,.38-.359l5.3.151.4-13.977a.327.327,0,0,1,.38-.359l.195.006a.326.326,0,0,1,.359.38Z"/>
      <path d="M144.516,297.759a.327.327,0,0,1-.42.312l-.193-.028a.327.327,0,0,1-.312-.42l1.394-9.5a5.23,5.23,0,0,0-.052-1.966,4.179,4.179,0,0,0-.735-1.583,4.08,4.08,0,0,0-1.34-1.132,6.2,6.2,0,0,0-3.861-.567,4.166,4.166,0,0,0-1.63.7,4.06,4.06,0,0,0-1.172,1.324,5.379,5.379,0,0,0-.618,1.891l-1.388,9.459a.327.327,0,0,1-.42.312l-.193-.028a.327.327,0,0,1-.312-.42l1.4-9.53a5.95,5.95,0,0,1,.739-2.189,4.937,4.937,0,0,1,1.4-1.541,5.051,5.051,0,0,1,1.934-.826,7.17,7.17,0,0,1,4.561.669,4.975,4.975,0,0,1,2.526,3.228,5.818,5.818,0,0,1,.09,2.309Z"/>
      <path d="M127.548,294.878a.327.327,0,0,1-.457.254l-4.244-1.214a9.009,9.009,0,0,1-2.839-1.343,6.543,6.543,0,0,1-1.89-2.09,6.824,6.824,0,0,1-.827-2.724,9.684,9.684,0,0,1,1.776-6.21,6.7,6.7,0,0,1,2.139-1.864,6.6,6.6,0,0,1,2.707-.764,9,9,0,0,1,3.119.36l4.244,1.214a.327.327,0,0,1,.254.457Zm-.608-14.716a8.319,8.319,0,0,0-2.775-.342,5.652,5.652,0,0,0-4.315,2.317,8.791,8.791,0,0,0-1.591,5.561,5.723,5.723,0,0,0,.748,2.408,5.987,5.987,0,0,0,1.693,1.83,8.142,8.142,0,0,0,2.532,1.188l3.554,1.016,3.708-12.962Z"/>
      <path d="M111.844,281.061l1.418,9.433a.3.3,0,0,1-.076.3c-.073.064-.183.066-.331.005l-.241-.1a.522.522,0,0,1-.311-.387l-.994-6.646q-.052-.328-.087-.672c-.023-.229-.044-.433-.064-.614-.016-.227-.035-.446-.057-.659l-.04-.016c-.166.135-.334.277-.506.426q-.212.171-.479.39t-.535.414l-5.4,4a.521.521,0,0,1-.493.055l-.241-.1c-.147-.061-.225-.14-.232-.237a.3.3,0,0,1,.157-.264l7.644-5.688,2.384-5.768a.327.327,0,0,1,.483-.2l.181.075a.327.327,0,0,1,.2.483Z"/>
      <path d="M89.385,270.531a8.438,8.438,0,0,1-2.292,2.127,7.41,7.41,0,0,1-2.725,1.039,7.069,7.069,0,0,1-2.892-.133,7.745,7.745,0,0,1-2.787-1.359,9.321,9.321,0,0,1-1.413-1.287,8.525,8.525,0,0,1-.931-1.257,7.172,7.172,0,0,1-.541-1.092,7.348,7.348,0,0,1-.26-.793.367.367,0,0,1,.279-.444l.165-.039a.345.345,0,0,1,.443.279q.087.282.267.731a7.588,7.588,0,0,0,.5.985,7.909,7.909,0,0,0,.811,1.112,7.487,7.487,0,0,0,1.188,1.1,6.631,6.631,0,0,0,2.445,1.181,6.266,6.266,0,0,0,2.524.1,6.569,6.569,0,0,0,2.4-.927,7.552,7.552,0,0,0,2.042-1.9,7.97,7.97,0,0,0,1.288-2.511,6.747,6.747,0,0,0,.269-2.621,6.4,6.4,0,0,0-.776-2.479,6.468,6.468,0,0,0-1.83-2.071,6.934,6.934,0,0,0-1.524-.886,8.688,8.688,0,0,0-1.423-.458,6.18,6.18,0,0,0-1.2-.155q-.537-.009-.846,0a.336.336,0,0,1-.4-.331l0-.139a.336.336,0,0,1,.331-.4,9.032,9.032,0,0,1,.913-.021,7.216,7.216,0,0,1,1.332.164,9.189,9.189,0,0,1,1.6.51,8.027,8.027,0,0,1,1.748,1.022,7.532,7.532,0,0,1,2.117,2.378,7.357,7.357,0,0,1,.9,2.808,7.678,7.678,0,0,1-.278,2.959A8.686,8.686,0,0,1,89.385,270.531Z"/>
      <path d="M68.4,262.7a.39.39,0,0,1-.509-.066l-.282-.271a.387.387,0,0,1-.088-.5l6.087-14.221q.19-.418.521-.1l.172.165a.385.385,0,0,1,.1.49l-2.092,4.89,4.665,4.466,4.764-2.3a.388.388,0,0,1,.509.065l.172.166q.33.315-.08.524Zm3.546-8.767-2.6,6.055a3.736,3.736,0,0,1-.242.536c-.1.192-.2.376-.288.552-.109.2-.217.405-.325.622l.032.03q.32-.176.607-.351l.547-.3q.289-.16.517-.273l5.951-2.852Z"/>
      <path d="M71.969,247.131a.335.335,0,0,1-.383.355l-.231,0q-.371,0-.355-.383a6.435,6.435,0,0,0-.037-.7,6.355,6.355,0,0,0-.172-.939,5.646,5.646,0,0,0-.395-1.05,5.1,5.1,0,0,0-.716-1.075,4.49,4.49,0,0,0-1.053-.917,3.141,3.141,0,0,0-1.168-.447,2.8,2.8,0,0,0-1.185.067,2.911,2.911,0,0,0-1.121.613,2.584,2.584,0,0,0-.95,1.567,5.28,5.28,0,0,0,.053,1.855,16,16,0,0,0,.534,2,13.118,13.118,0,0,1,.51,2.023,5.1,5.1,0,0,1-.03,1.926,3.07,3.07,0,0,1-1.09,1.687,3.64,3.64,0,0,1-1.466.778,3.738,3.738,0,0,1-1.578.059,4.416,4.416,0,0,1-1.541-.6,5.764,5.764,0,0,1-1.371-1.189,5.67,5.67,0,0,1-.711-1.036,6.783,6.783,0,0,1-.431-.99,5.061,5.061,0,0,1-.21-.85c-.036-.255-.057-.465-.065-.63a.328.328,0,0,1,.324-.391l.234-.027q.373-.033.388.354.027.234.077.577a4.665,4.665,0,0,0,.18.747,5.472,5.472,0,0,0,.357.839,4.809,4.809,0,0,0,1.6,1.747,3.48,3.48,0,0,0,1.179.5,2.929,2.929,0,0,0,1.212,0,2.567,2.567,0,0,0,1.133-.581,2.353,2.353,0,0,0,.884-1.51,5.2,5.2,0,0,0-.111-1.806,20.325,20.325,0,0,0-.559-1.98,12.582,12.582,0,0,1-.5-2.03,5.059,5.059,0,0,1,.063-1.954,3.329,3.329,0,0,1,1.165-1.75,4.145,4.145,0,0,1,1.406-.8,3.668,3.668,0,0,1,1.548-.162,4.066,4.066,0,0,1,1.555.518,5.387,5.387,0,0,1,1.445,1.225,6.09,6.09,0,0,1,.861,1.295,7.472,7.472,0,0,1,.472,1.241,6.528,6.528,0,0,1,.247,1.832Z"/>
      <path d="M53.286,245.6a.327.327,0,0,1-.515-.092l-4.339-6.226a.326.326,0,0,1,.092-.514l.107-.075a.327.327,0,0,1,.515.092l4.016,5.762,5.12-3.568-3.258-4.674a.327.327,0,0,1,.092-.515l.107-.074a.327.327,0,0,1,.515.091L59,240.482l5.227-3.643-4.252-6.1a.326.326,0,0,1,.092-.514l.107-.075a.326.326,0,0,1,.514.092l4.576,6.565a.326.326,0,0,1-.092.514Z"/>
      <path d="M55.619,224.357a.336.336,0,0,1-.457.254l-.224-.058a.319.319,0,0,1-.253-.457,6.328,6.328,0,0,0,.13-.686,6.143,6.143,0,0,0,.057-.953,5.61,5.61,0,0,0-.133-1.113,5.128,5.128,0,0,0-.44-1.215,4.474,4.474,0,0,0-.8-1.141,3.135,3.135,0,0,0-1.027-.713,2.794,2.794,0,0,0-1.168-.217,2.885,2.885,0,0,0-1.234.328,2.578,2.578,0,0,0-1.3,1.3,5.286,5.286,0,0,0-.391,1.814,16.11,16.11,0,0,0,.042,2.072,13.116,13.116,0,0,1,.013,2.086,5.1,5.1,0,0,1-.488,1.863,3.065,3.065,0,0,1-1.461,1.378,3.608,3.608,0,0,1-1.609.406,3.725,3.725,0,0,1-1.547-.318,4.416,4.416,0,0,1-1.353-.951,5.8,5.8,0,0,1-1.048-1.481,5.73,5.73,0,0,1-.444-1.176,6.83,6.83,0,0,1-.182-1.065,5,5,0,0,1,0-.875q.039-.384.086-.627a.327.327,0,0,1,.408-.3l.234.028a.321.321,0,0,1,.292.438q-.028.233-.062.578a4.76,4.76,0,0,0,0,.768,5.4,5.4,0,0,0,.148.9,4.782,4.782,0,0,0,1.141,2.079,3.469,3.469,0,0,0,1.027.762,2.936,2.936,0,0,0,1.177.285,2.575,2.575,0,0,0,1.24-.294,2.354,2.354,0,0,0,1.218-1.257,5.206,5.206,0,0,0,.323-1.78,20.218,20.218,0,0,0-.072-2.056,12.589,12.589,0,0,1,0-2.091,5.06,5.06,0,0,1,.527-1.883,3.327,3.327,0,0,1,1.549-1.422,4.126,4.126,0,0,1,1.555-.44,3.665,3.665,0,0,1,1.542.211,4.074,4.074,0,0,1,1.387.873,5.4,5.4,0,0,1,1.111,1.535,6,6,0,0,1,.527,1.462,7.276,7.276,0,0,1,.163,1.318,6.59,6.59,0,0,1-.052,1.084A6.311,6.311,0,0,1,55.619,224.357Z"/>
      <path d="M37.029,214.917l1.893,4.957a.326.326,0,0,1-.214.477l-.122.047a.326.326,0,0,1-.477-.214L33.99,209.4a.327.327,0,0,1,.214-.477l.122-.046a.326.326,0,0,1,.477.213l1.893,4.957,13.062-4.988a.327.327,0,0,1,.477.214l.07.183a.326.326,0,0,1-.214.477Z"/>
      <path d="M33.168,205.542a.327.327,0,0,1-.449-.268l-.048-.19a.327.327,0,0,1,.27-.449l9.314-2.337a5.221,5.221,0,0,0,1.8-.8,4.194,4.194,0,0,0,1.183-1.283,4.09,4.09,0,0,0,.535-1.67,6.189,6.189,0,0,0-.95-3.786,4.178,4.178,0,0,0-1.266-1.241,4.088,4.088,0,0,0-1.672-.578,5.423,5.423,0,0,0-1.983.15l-9.272,2.327a.327.327,0,0,1-.45-.268l-.047-.19a.326.326,0,0,1,.268-.448l9.343-2.345a5.956,5.956,0,0,1,2.3-.152,4.959,4.959,0,0,1,1.96.707,5.073,5.073,0,0,1,1.5,1.473,7.172,7.172,0,0,1,1.122,4.471,4.98,4.98,0,0,1-2.019,3.567,5.84,5.84,0,0,1-2.1.965Z"/>
      <path d="M29.358,188.76a.326.326,0,0,1-.409-.325l-.5-4.386a8.986,8.986,0,0,1,.158-3.137,6.534,6.534,0,0,1,1.209-2.545,6.823,6.823,0,0,1,2.2-1.8,9.675,9.675,0,0,1,6.417-.73,6.718,6.718,0,0,1,2.541,1.265,6.607,6.607,0,0,1,1.739,2.21,9,9,0,0,1,.858,3.021l.5,4.386a.327.327,0,0,1-.326.409Zm13.369-6.182a8.314,8.314,0,0,0-.744-2.694,5.655,5.655,0,0,0-3.789-3.1,8.794,8.794,0,0,0-5.747.654,5.717,5.717,0,0,0-1.94,1.61,5.991,5.991,0,0,0-1.045,2.263,8.159,8.159,0,0,0-.131,2.8l.418,3.673,13.4-1.524Z"/>
      <path d="M36.128,169.064l-8.095,5.046a.3.3,0,0,1-.3.049c-.088-.042-.133-.143-.136-.3l0-.26a.521.521,0,0,1,.232-.439l5.706-3.551c.187-.118.38-.234.581-.346s.381-.213.539-.3q.3-.157.582-.314V168.6c-.19-.1-.388-.2-.592-.295q-.242-.126-.549-.284c-.2-.106-.4-.215-.592-.328l-5.818-3.363a.522.522,0,0,1-.246-.431l0-.261c0-.16.039-.262.125-.307a.3.3,0,0,1,.3.039l8.255,4.759,6.24-.1a.326.326,0,0,1,.375.364l0,.195a.327.327,0,0,1-.363.376Z"/>
      <path d="M37.192,144.2a8.426,8.426,0,0,1-2.845-1.3,7.428,7.428,0,0,1-2.008-2.116,7.075,7.075,0,0,1-.99-2.721,7.776,7.776,0,0,1,.182-3.095,9.308,9.308,0,0,1,.645-1.8,8.563,8.563,0,0,1,.8-1.344,7.229,7.229,0,0,1,.8-.918,7.314,7.314,0,0,1,.633-.546.366.366,0,0,1,.517.087l.1.137a.346.346,0,0,1-.087.517c-.151.126-.342.3-.571.527a7.527,7.527,0,0,0-.719.838,7.878,7.878,0,0,0-.714,1.176,7.465,7.465,0,0,0-.555,1.519,6.614,6.614,0,0,0-.15,2.711,6.282,6.282,0,0,0,.882,2.367,6.579,6.579,0,0,0,1.779,1.856,7.559,7.559,0,0,0,2.542,1.152,8,8,0,0,0,2.814.223,6.763,6.763,0,0,0,2.523-.76,6.422,6.422,0,0,0,3.2-4.157,6.908,6.908,0,0,0,.232-1.747,8.663,8.663,0,0,0-.125-1.49,6.183,6.183,0,0,0-.319-1.17c-.132-.333-.242-.592-.329-.779a.336.336,0,0,1,.15-.5l.126-.057a.336.336,0,0,1,.5.15,8.98,8.98,0,0,1,.371.835,7.144,7.144,0,0,1,.361,1.292,9.179,9.179,0,0,1,.146,1.675,8.023,8.023,0,0,1-.271,2.007,7.512,7.512,0,0,1-1.381,2.868,7.346,7.346,0,0,1-2.247,1.908,7.692,7.692,0,0,1-2.838.881A8.659,8.659,0,0,1,37.192,144.2Z"/>
      <path d="M36.366,121.8a.388.388,0,0,1-.134-.495l.141-.365a.39.39,0,0,1,.434-.275l15.468.171q.461.016.3.442l-.087.223a.384.384,0,0,1-.413.282l-5.319-.058-2.336,6.021,3.953,3.517a.388.388,0,0,1,.135.5l-.087.223q-.165.426-.516.127Zm9.457-.085-6.592-.086a3.743,3.743,0,0,1-.587-.018q-.325-.033-.621-.054c-.223-.024-.456-.045-.7-.061l-.016.04q.285.228.558.426l.491.389q.258.206.45.373l4.915,4.4Z"/>
      <path d="M52.111,119.137a.336.336,0,0,1-.475-.219l-.085-.214a.319.319,0,0,1,.218-.475,5.9,5.9,0,0,0,.63-.3,6.12,6.12,0,0,0,.8-.518,5.55,5.55,0,0,0,.819-.765,5.138,5.138,0,0,0,.72-1.073,4.486,4.486,0,0,0,.444-1.324,3.162,3.162,0,0,0-.032-1.25,2.8,2.8,0,0,0-.516-1.069,2.9,2.9,0,0,0-.994-.8,2.59,2.59,0,0,0-1.812-.279,5.322,5.322,0,0,0-1.694.758,16.046,16.046,0,0,0-1.645,1.26,13.129,13.129,0,0,1-1.674,1.244,5.136,5.136,0,0,1-1.791.709,3.075,3.075,0,0,1-1.976-.363,3.627,3.627,0,0,1-1.279-1.057,3.72,3.72,0,0,1-.658-1.436,4.415,4.415,0,0,1-.034-1.653,5.771,5.771,0,0,1,.575-1.721,5.636,5.636,0,0,1,.685-1.054,6.742,6.742,0,0,1,.751-.776,4.883,4.883,0,0,1,.7-.519c.222-.131.407-.232.557-.3a.328.328,0,0,1,.485.151l.115.2a.319.319,0,0,1-.18.494c-.137.077-.3.174-.5.292a4.713,4.713,0,0,0-.622.452,5.415,5.415,0,0,0-.638.651,4.778,4.778,0,0,0-1,2.15A3.457,3.457,0,0,0,42,111.611a2.914,2.914,0,0,0,.467,1.118,2.572,2.572,0,0,0,.97.826,2.352,2.352,0,0,0,1.733.239A5.218,5.218,0,0,0,46.8,113a20.089,20.089,0,0,0,1.616-1.274,12.5,12.5,0,0,1,1.684-1.239,5.045,5.045,0,0,1,1.829-.689,3.329,3.329,0,0,1,2.063.407,4.139,4.139,0,0,1,1.275.994,3.651,3.651,0,0,1,.741,1.368,4.057,4.057,0,0,1,.117,1.635,5.38,5.38,0,0,1-.58,1.8,6.036,6.036,0,0,1-.867,1.29,7.363,7.363,0,0,1-.967.911,6.611,6.611,0,0,1-1.6.929Z"/>
      <path d="M46.384,101.288a.326.326,0,0,1-.111-.51l4.1-6.388a.326.326,0,0,1,.51-.112l.11.071a.326.326,0,0,1,.112.51l-3.792,5.912,5.253,3.37,3.076-4.8a.327.327,0,0,1,.511-.111l.109.07a.327.327,0,0,1,.112.511l-3.076,4.8,5.363,3.44,4.015-6.26a.328.328,0,0,1,.511-.112l.11.071a.327.327,0,0,1,.111.511L59.085,109a.327.327,0,0,1-.511.112Z"/>
      <path d="M66.914,95.325A.336.336,0,0,1,66.505,95l-.031-.229c-.039-.244.07-.38.325-.409a6.2,6.2,0,0,0,.683-.142,6.112,6.112,0,0,0,.9-.312,5.645,5.645,0,0,0,.978-.548,5.126,5.126,0,0,0,.955-.871,4.511,4.511,0,0,0,.747-1.179,3.164,3.164,0,0,0,.266-1.222,2.8,2.8,0,0,0-.246-1.162,2.91,2.91,0,0,0-.775-1.015,2.578,2.578,0,0,0-1.692-.7,5.274,5.274,0,0,0-1.826.332,16.064,16.064,0,0,0-1.9.831,13.211,13.211,0,0,1-1.922.81,5.114,5.114,0,0,1-1.908.261,3.066,3.066,0,0,1-1.833-.823,3.629,3.629,0,0,1-.99-1.331,3.725,3.725,0,0,1-.3-1.551,4.411,4.411,0,0,1,.362-1.614,5.761,5.761,0,0,1,.968-1.535,5.668,5.668,0,0,1,.916-.86,6.669,6.669,0,0,1,.915-.575,4.992,4.992,0,0,1,.808-.336c.246-.074.451-.127.613-.16a.328.328,0,0,1,.435.262l.062.226a.32.32,0,0,1-.292.438c-.151.041-.337.1-.558.163a4.688,4.688,0,0,0-.711.291,5.223,5.223,0,0,0-.775.48,4.593,4.593,0,0,0-.751.7,4.66,4.66,0,0,0-.734,1.147,3.463,3.463,0,0,0-.311,1.241,2.9,2.9,0,0,0,.187,1.2,2.562,2.562,0,0,0,.745,1.033,2.355,2.355,0,0,0,1.627.646,5.221,5.221,0,0,0,1.768-.383,20.309,20.309,0,0,0,1.873-.852,12.576,12.576,0,0,1,1.931-.8,5.043,5.043,0,0,1,1.941-.232,3.322,3.322,0,0,1,1.906.887,4.108,4.108,0,0,1,1,1.269,3.663,3.663,0,0,1,.4,1.5,4.075,4.075,0,0,1-.277,1.616,5.389,5.389,0,0,1-.993,1.613,6.02,6.02,0,0,1-1.15,1.047,7.467,7.467,0,0,1-1.155.654,6.534,6.534,0,0,1-1.022.366A6.244,6.244,0,0,1,66.914,95.325Z"/>
      <path d="M68.512,74.547,64.66,78.2a.327.327,0,0,1-.523-.015l-.09-.094a.327.327,0,0,1,.015-.523l8.383-7.94a.326.326,0,0,1,.522.015l.09.094a.327.327,0,0,1-.014.523L69.191,73.9l9.615,10.152a.326.326,0,0,1-.015.522l-.142.135a.326.326,0,0,1-.522-.014Z"/>
      <path d="M75.68,67.391a.327.327,0,0,1,.075-.518l.157-.117a.328.328,0,0,1,.518.076l5.741,7.7A5.221,5.221,0,0,0,83.6,75.883a4.2,4.2,0,0,0,1.64.6,4.087,4.087,0,0,0,1.747-.149A6.2,6.2,0,0,0,90.116,74a4.171,4.171,0,0,0,.658-1.645,4.076,4.076,0,0,0-.11-1.766,5.389,5.389,0,0,0-.9-1.772l-5.716-7.664a.327.327,0,0,1,.075-.518l.157-.117a.326.326,0,0,1,.517.076l5.759,7.722a5.967,5.967,0,0,1,1.028,2.068,4.967,4.967,0,0,1,.1,2.081,5.073,5.073,0,0,1-.782,1.953,7.171,7.171,0,0,1-3.7,2.756,4.979,4.979,0,0,1-4.07-.491,5.843,5.843,0,0,1-1.7-1.568Z"/>
      <path d="M89.692,57.42a.327.327,0,0,1,.143-.5l3.855-2.151A9.021,9.021,0,0,1,96.645,53.7a6.535,6.535,0,0,1,2.815.136,6.794,6.794,0,0,1,2.513,1.337,9.675,9.675,0,0,1,3.146,5.64,6.681,6.681,0,0,1-.188,2.831,6.6,6.6,0,0,1-1.369,2.457,8.98,8.98,0,0,1-2.457,1.956L97.25,70.21a.327.327,0,0,1-.5-.143Zm10.856,9.954a8.284,8.284,0,0,0,2.2-1.725,5.654,5.654,0,0,0,1.4-4.692,8.786,8.786,0,0,0-2.817-5.051,5.706,5.706,0,0,0-2.234-1.17,5.991,5.991,0,0,0-2.491-.092,8.125,8.125,0,0,0-2.629.956l-3.228,1.8L97.32,69.175Z"/>
      <path d="M110.561,56.042l-7.687-5.649a.3.3,0,0,1-.157-.264c.006-.1.083-.176.23-.238l.241-.1a.523.523,0,0,1,.494.053l5.412,3.984c.179.129.358.267.537.412l.48.388c.172.149.341.29.508.425l.04-.017q.032-.319.054-.659.029-.271.062-.615t.084-.672l.968-6.65a.523.523,0,0,1,.309-.388l.241-.1c.147-.061.258-.06.331,0a.3.3,0,0,1,.078.3l-1.362,9.43,2.406,5.758a.327.327,0,0,1-.2.484l-.181.076a.326.326,0,0,1-.483-.2Z"/>
    </g>
  </g>
</svg>
