<?xml version="1.0" encoding="utf-8"?>
<!-- Generator: Adobe Illustrator 25.4.1, SVG Export Plug-In . SVG Version: 6.00 Build 0)  -->
<svg version="1.1" id="Layer_1" xmlns:svg="http://www.w3.org/2000/svg"
	 xmlns="http://www.w3.org/2000/svg" xmlns:xlink="http://www.w3.org/1999/xlink" x="0px" y="0px" viewBox="0 0 510 510"
	 style="enable-background:new 0 0 510 510;" xml:space="preserve">
<style type="text/css">
	.st0{fill:#FFFFFF;}
</style>
<g>
	<path class="st0" d="M216.7,42.2c-0.3-2.3-0.2-4.4,0.4-6.4c0.5-2,1.4-3.8,2.6-5.4c1.2-1.6,2.7-2.9,4.6-4c1.8-1,3.9-1.7,6.2-2
		c1.3-0.2,2.5-0.2,3.7-0.1c1.1,0.1,2.1,0.3,3,0.5c0.9,0.2,1.7,0.5,2.3,0.8c0.7,0.3,1.2,0.6,1.6,0.8c0.7,0.4,0.9,1.1,0.5,2l-0.5,0.9
		c-0.4,0.8-1.1,1-2,0.6c-0.3-0.2-0.8-0.4-1.3-0.6c-0.5-0.2-1.1-0.4-1.8-0.6c-0.7-0.2-1.4-0.3-2.3-0.4c-0.8-0.1-1.7-0.1-2.6,0.1
		c-1.8,0.2-3.4,0.7-4.7,1.5c-1.3,0.8-2.4,1.8-3.3,3c-0.9,1.2-1.5,2.5-1.8,4c-0.3,1.5-0.4,3.1-0.2,4.7c0.2,1.6,0.7,3.2,1.4,4.6
		c0.7,1.4,1.6,2.6,2.8,3.6c1.1,1,2.4,1.7,3.9,2.2c1.5,0.5,3.1,0.6,4.9,0.4c1-0.1,2-0.4,2.8-0.7c0.9-0.3,1.6-0.7,2.3-1.1
		c0.7-0.4,1.3-0.8,1.7-1.2c0.5-0.4,0.9-0.8,1.2-1.1c0.7-0.7,1.4-0.7,2-0.1l0.8,0.8c0.6,0.7,0.7,1.3,0,2c-0.4,0.4-0.9,0.8-1.5,1.4
		c-0.6,0.5-1.3,1.1-2.2,1.6c-0.9,0.5-1.9,1-3,1.4c-1.1,0.4-2.4,0.7-3.8,0.9c-2.4,0.3-4.6,0.1-6.7-0.4c-2-0.6-3.9-1.5-5.4-2.8
		c-1.6-1.3-2.9-2.9-3.8-4.7C217.6,46.6,217,44.5,216.7,42.2z"/>
	<path class="st0" d="M258.2,24.6c0.3-0.8,0.8-1.2,1.7-1.2l2.1,0c0.8,0,1.4,0.4,1.6,1.2l9.8,28.5c0.2,0.5,0.1,0.9-0.1,1.2
		c-0.2,0.3-0.6,0.5-1.1,0.4l-1.5,0c-0.8,0-1.4-0.4-1.6-1.2l-2.7-7.8l-11.8-0.2l-2.9,7.7c-0.2,0.8-0.8,1.2-1.6,1.2l-1.5,0
		c-0.6,0-0.9-0.2-1.1-0.5c-0.2-0.3-0.2-0.7,0-1.2L258.2,24.6z M265.3,42.1l-3.3-10c-0.1-0.4-0.3-0.9-0.4-1.4c-0.1-0.5-0.2-1-0.4-1.4
		c-0.1-0.5-0.2-1.1-0.4-1.6l-0.1,0c-0.2,0.6-0.3,1.1-0.5,1.6c-0.2,0.5-0.3,0.9-0.4,1.4c-0.1,0.5-0.3,0.9-0.4,1.3l-3.7,9.8
		L265.3,42.1z"/>
	<path class="st0" d="M276.2,52.6c-0.3-0.3-0.4-0.6-0.4-1c0-0.3,0.1-0.7,0.5-1.1l0.9-1c0.6-0.6,1.3-0.6,2,0c0.2,0.2,0.6,0.5,1,0.9
		c0.4,0.3,0.9,0.7,1.4,1c0.5,0.3,1.1,0.7,1.8,0.9c0.7,0.3,1.4,0.5,2.2,0.6c1.7,0.2,3,0,4.1-0.7c1.1-0.7,1.7-1.7,1.9-3
		c0.2-1.1-0.1-2.1-0.7-3c-0.6-0.8-1.5-1.6-2.5-2.3c-1-0.7-2.2-1.4-3.4-2.2c-1.2-0.7-2.3-1.5-3.3-2.4c-1-0.9-1.8-1.9-2.4-3
		c-0.6-1.2-0.8-2.5-0.6-4.1c0.2-1.3,0.6-2.5,1.2-3.4c0.7-1,1.5-1.8,2.5-2.4c1-0.6,2.2-1.1,3.4-1.3c1.3-0.2,2.6-0.3,4-0.1
		c0.9,0.1,1.8,0.3,2.6,0.6c0.8,0.3,1.5,0.6,2.2,0.9c0.6,0.3,1.2,0.7,1.6,1c0.5,0.3,0.8,0.7,1.1,0.9c0.6,0.6,0.7,1.3,0.2,2l-0.8,1
		c-0.3,0.4-0.7,0.6-1,0.6c-0.3,0-0.7-0.2-1-0.5c-0.5-0.4-1.3-0.9-2.1-1.5c-0.9-0.6-2-0.9-3.3-1.1c-1.6-0.2-3,0-4.1,0.6
		c-1.2,0.6-1.8,1.6-2,3c-0.2,1.1,0.1,2.1,0.7,2.9c0.6,0.8,1.5,1.5,2.5,2.2c1,0.7,2.2,1.4,3.4,2.1c1.2,0.7,2.3,1.5,3.3,2.3
		c1,0.9,1.8,1.9,2.4,3.1c0.6,1.2,0.8,2.6,0.5,4.2c-0.2,1.2-0.5,2.3-1.1,3.4c-0.6,1-1.4,1.8-2.3,2.5c-1,0.7-2.1,1.2-3.3,1.5
		c-1.3,0.3-2.7,0.3-4.2,0.1c-1.1-0.2-2.1-0.4-3.1-0.8c-1-0.4-1.8-0.7-2.5-1.2c-0.7-0.4-1.4-0.9-1.9-1.3
		C276.9,53.3,276.5,52.9,276.2,52.6z"/>
	<path class="st0" d="M307.2,30.1c0.2-0.9,0.8-1.3,1.8-1.1l14.7,3.8c0.9,0.2,1.3,0.8,1.1,1.8l-0.2,0.9c-0.2,0.9-0.8,1.3-1.8,1.1
		l-12-3l-2.4,9.5l9.5,2.4c0.9,0.2,1.3,0.8,1.1,1.8l-0.2,0.9c-0.2,0.9-0.8,1.3-1.8,1.1l-9.5-2.4l-2.5,9.7l12.7,3.2
		c0.9,0.2,1.3,0.8,1.1,1.8l-0.2,0.9c-0.2,0.9-0.8,1.3-1.8,1.1l-15.5-3.9c-0.9-0.2-1.3-0.8-1.1-1.8L307.2,30.1z"/>
	<path class="st0" d="M332.5,65.8c-0.2-0.4-0.2-0.7-0.1-1c0.1-0.3,0.3-0.6,0.8-0.9l1.1-0.7c0.8-0.4,1.4-0.2,1.9,0.6
		c0.2,0.3,0.4,0.7,0.7,1.1c0.3,0.4,0.6,0.9,1.1,1.4s0.9,0.9,1.5,1.4c0.6,0.5,1.2,0.9,2,1.2c1.5,0.7,2.9,0.9,4.2,0.5
		c1.2-0.3,2.1-1.1,2.7-2.4c0.5-1.1,0.5-2.1,0.1-3c-0.4-1-1-1.9-1.7-2.9c-0.8-1-1.7-2-2.6-3c-1-1-1.8-2.1-2.5-3.2
		c-0.7-1.1-1.2-2.3-1.5-3.6c-0.2-1.3,0-2.6,0.6-4.1c0.5-1.2,1.3-2.2,2.2-3c0.9-0.8,1.9-1.3,3.1-1.6c1.1-0.3,2.4-0.4,3.7-0.3
		c1.3,0.1,2.6,0.5,3.9,1c0.8,0.4,1.6,0.8,2.3,1.3c0.7,0.5,1.3,1,1.8,1.5c0.5,0.5,1,1,1.3,1.4c0.3,0.5,0.6,0.9,0.8,1.2
		c0.4,0.7,0.3,1.4-0.4,2l-1,0.8c-0.4,0.3-0.8,0.4-1.1,0.3c-0.3-0.1-0.6-0.4-0.9-0.7c-0.4-0.6-0.9-1.2-1.6-2c-0.7-0.8-1.7-1.4-2.9-2
		c-1.5-0.7-2.9-0.8-4.2-0.6c-1.3,0.3-2.2,1-2.8,2.3c-0.5,1-0.5,2-0.1,3s1,1.9,1.8,2.8c0.8,1,1.7,1.9,2.7,2.9c1,1,1.8,2.1,2.6,3.2
		c0.7,1.1,1.2,2.3,1.4,3.6c0.2,1.3,0,2.7-0.7,4.2c-0.5,1.1-1.2,2.1-2,2.9c-0.8,0.8-1.8,1.4-2.9,1.8c-1.1,0.4-2.3,0.5-3.6,0.5
		c-1.3-0.1-2.7-0.4-4.1-1c-1-0.5-1.9-1-2.8-1.6c-0.8-0.6-1.5-1.2-2.1-1.9c-0.6-0.6-1.1-1.2-1.5-1.8C333,66.7,332.7,66.2,332.5,65.8z
		"/>
	<path class="st0" d="M373.5,58.4l-8-4.7c-0.8-0.5-1-1.2-0.5-2l0.5-0.8c0.5-0.8,1.2-1,2-0.5l19.7,11.7c0.8,0.5,1,1.1,0.5,2l-0.5,0.8
		c-0.5,0.8-1.2,1-2,0.5l-8-4.7L364,83c-0.5,0.8-1.2,1-2,0.5l-1.3-0.7c-0.8-0.5-1-1.1-0.5-2L373.5,58.4z"/>
	<path class="st0" d="M393.3,68.1c0.6-0.8,1.3-0.8,2.1-0.2l1.1,0.9c0.7,0.6,0.8,1.3,0.2,2L385,85.4c-1.5,1.9-2.1,3.8-1.8,5.7
		c0.3,1.9,1.4,3.7,3.2,5.2c1.9,1.5,3.8,2.2,5.7,2c2-0.1,3.7-1.2,5.2-3.1l11.6-14.6c0.6-0.8,1.3-0.8,2.1-0.2l1.1,0.9
		c0.8,0.6,0.8,1.3,0.2,2.1L400.8,98c-1.1,1.4-2.3,2.4-3.6,3.1c-1.3,0.7-2.8,1.2-4.2,1.3c-1.5,0.1-3-0.1-4.5-0.6
		c-1.5-0.5-3-1.3-4.4-2.5c-1.4-1.1-2.6-2.4-3.4-3.8c-0.8-1.4-1.4-2.8-1.6-4.3c-0.2-1.5-0.1-2.9,0.3-4.4c0.4-1.5,1.2-2.9,2.3-4.3
		L393.3,68.1z"/>
	<path class="st0" d="M420.5,90.8c0.7-0.7,1.4-0.6,2.1,0.1l6,6.5c1.6,1.8,2.8,3.6,3.7,5.5c0.8,1.9,1.2,3.8,1.2,5.7
		c0,1.9-0.5,3.8-1.4,5.7c-0.9,1.9-2.3,3.6-4.1,5.3c-1.8,1.7-3.7,2.9-5.6,3.7c-1.9,0.8-3.9,1.1-5.8,1c-1.9-0.1-3.8-0.6-5.6-1.6
		c-1.8-0.9-3.6-2.3-5.2-4l-6-6.5c-0.7-0.7-0.6-1.4,0.1-2.1L420.5,90.8z M408.3,115.8c1.2,1.3,2.5,2.3,3.8,3c1.3,0.7,2.7,1.1,4.2,1.1
		c1.4,0.1,2.9-0.2,4.3-0.8c1.5-0.6,2.9-1.6,4.3-2.9c1.4-1.3,2.5-2.7,3.1-4.1c0.7-1.4,1.1-2.8,1.1-4.2c0-1.4-0.2-2.8-0.8-4.2
		c-0.6-1.4-1.5-2.7-2.7-4l-3.9-4.2l-17.3,16L408.3,115.8z"/>
	<path class="st0" d="M433.2,131.2l7.8-17.1c0.2-0.5,0.5-0.8,0.9-0.8c0.4,0,0.7,0.2,1.1,0.7l1,1.4c0.4,0.6,0.5,1.3,0.1,2l-4.5,9.6
		c-0.2,0.4-0.5,0.9-0.7,1.4c-0.3,0.5-0.5,0.9-0.7,1.2c-0.2,0.4-0.5,0.8-0.7,1.2l0.1,0.1c0.4-0.1,0.9-0.2,1.4-0.3
		c0.4-0.1,0.9-0.2,1.4-0.2c0.5-0.1,1-0.2,1.5-0.2l10.6-1.1c0.7-0.1,1.3,0.1,1.8,0.8l1,1.4c0.3,0.5,0.4,0.9,0.3,1.2
		c-0.2,0.3-0.5,0.5-1.1,0.6l-18.7,1.7l-9.6,6.8c-0.8,0.6-1.5,0.4-2-0.3l-0.8-1.2c-0.6-0.8-0.4-1.5,0.3-2L433.2,131.2z"/>
	<path class="st0" d="M473.8,219.4c2.3-0.3,4.4-0.1,6.4,0.4c2,0.6,3.8,1.4,5.4,2.7c1.6,1.2,2.9,2.8,3.9,4.6c1,1.8,1.7,3.9,1.9,6.2
		c0.2,1.3,0.2,2.5,0.1,3.7c-0.1,1.1-0.3,2.1-0.5,3c-0.2,0.9-0.5,1.7-0.8,2.3c-0.3,0.7-0.6,1.2-0.8,1.6c-0.4,0.7-1.1,0.9-2,0.5
		l-0.9-0.5c-0.8-0.4-1-1.1-0.6-2c0.2-0.3,0.4-0.8,0.6-1.3c0.2-0.5,0.4-1.1,0.6-1.8c0.2-0.7,0.3-1.4,0.4-2.3c0.1-0.8,0.1-1.7,0-2.6
		c-0.2-1.8-0.7-3.4-1.5-4.7c-0.8-1.3-1.8-2.4-2.9-3.3c-1.2-0.9-2.5-1.5-4-1.8c-1.5-0.3-3.1-0.4-4.7-0.2c-1.6,0.2-3.2,0.6-4.6,1.3
		c-1.4,0.7-2.6,1.6-3.6,2.7c-1,1.1-1.7,2.4-2.2,3.9c-0.5,1.5-0.6,3.1-0.4,4.9c0.1,1,0.3,2,0.7,2.8c0.3,0.9,0.7,1.6,1.1,2.3
		c0.4,0.7,0.8,1.3,1.2,1.8c0.4,0.5,0.8,0.9,1.1,1.2c0.7,0.7,0.7,1.4,0.1,2l-0.8,0.8c-0.7,0.6-1.4,0.6-2,0c-0.4-0.4-0.8-0.9-1.3-1.5
		s-1.1-1.3-1.6-2.2c-0.5-0.9-1-1.9-1.4-3c-0.4-1.2-0.7-2.4-0.9-3.8c-0.3-2.4-0.1-4.6,0.5-6.7c0.6-2,1.6-3.8,2.9-5.4
		c1.3-1.6,2.9-2.8,4.8-3.8C469.5,220.3,471.6,219.7,473.8,219.4z"/>
	<path class="st0" d="M491.1,261c0.8,0.3,1.2,0.8,1.2,1.7l0,2.1c0,0.8-0.4,1.4-1.2,1.6l-28.6,9.6c-0.5,0.2-0.9,0.1-1.2-0.1
		c-0.3-0.2-0.5-0.6-0.4-1.1l0-1.5c0-0.8,0.4-1.4,1.2-1.6l7.8-2.6l0.3-11.8l-7.7-2.9c-0.8-0.3-1.2-0.8-1.2-1.6l0-1.5
		c0-0.6,0.2-0.9,0.5-1.1c0.3-0.2,0.7-0.2,1.2,0L491.1,261z M473.5,268l10-3.2c0.4-0.1,0.9-0.3,1.4-0.4c0.5-0.1,1-0.2,1.4-0.3
		c0.5-0.1,1.1-0.2,1.6-0.4l0-0.1c-0.6-0.2-1.1-0.3-1.6-0.5c-0.5-0.2-0.9-0.3-1.4-0.4c-0.5-0.1-0.9-0.3-1.3-0.4l-9.8-3.7L473.5,268z"
		/>
	<path class="st0" d="M463,278.8c0.3-0.3,0.6-0.4,1-0.4c0.3,0,0.7,0.2,1.1,0.5l0.9,0.9c0.6,0.6,0.6,1.3,0,2
		c-0.2,0.2-0.5,0.5-0.9,0.9c-0.3,0.4-0.7,0.9-1,1.4c-0.3,0.5-0.7,1.1-1,1.8c-0.3,0.7-0.5,1.4-0.6,2.2c-0.2,1.7,0,3,0.6,4.1
		c0.7,1.1,1.7,1.7,3,1.9c1.1,0.2,2.1-0.1,3-0.7c0.8-0.6,1.6-1.5,2.3-2.5c0.7-1,1.5-2.1,2.2-3.3c0.7-1.2,1.5-2.3,2.4-3.3
		c0.9-1,1.9-1.8,3-2.4c1.2-0.6,2.5-0.8,4.1-0.5c1.3,0.2,2.5,0.6,3.4,1.3c1,0.7,1.8,1.5,2.4,2.5c0.6,1,1,2.2,1.3,3.4
		c0.2,1.3,0.2,2.6,0,4c-0.1,0.9-0.3,1.8-0.6,2.5c-0.3,0.8-0.6,1.5-0.9,2.1c-0.3,0.6-0.7,1.2-1,1.6s-0.7,0.8-0.9,1.1
		c-0.6,0.6-1.3,0.7-2,0.2l-1-0.8c-0.4-0.3-0.6-0.7-0.6-1c0-0.3,0.2-0.7,0.5-1c0.4-0.5,0.9-1.2,1.5-2.1c0.6-0.9,0.9-2,1.1-3.3
		c0.2-1.6,0-3-0.6-4.2c-0.6-1.2-1.6-1.8-2.9-2c-1.1-0.2-2.1,0.1-2.9,0.7c-0.8,0.6-1.6,1.5-2.3,2.5c-0.7,1-1.4,2.2-2.1,3.4
		c-0.7,1.2-1.5,2.3-2.4,3.3c-0.9,1-1.9,1.8-3.1,2.4c-1.2,0.6-2.6,0.7-4.3,0.5c-1.2-0.2-2.3-0.6-3.3-1.2c-1-0.6-1.8-1.4-2.5-2.3
		c-0.7-1-1.1-2.1-1.4-3.4c-0.3-1.3-0.3-2.7-0.1-4.2c0.2-1.1,0.4-2.1,0.8-3.1c0.4-0.9,0.8-1.8,1.2-2.5c0.4-0.7,0.9-1.4,1.4-1.9
		C462.2,279.5,462.6,279.1,463,278.8z"/>
	<path class="st0" d="M485.2,310c0.9,0.2,1.3,0.8,1,1.8l-3.9,14.7c-0.2,0.9-0.8,1.3-1.8,1l-0.9-0.2c-0.9-0.2-1.3-0.8-1-1.8l3.1-11.9
		l-9.4-2.5l-2.5,9.4c-0.2,0.9-0.8,1.3-1.8,1l-0.9-0.2c-0.9-0.2-1.3-0.8-1-1.8l2.5-9.4l-9.7-2.6l-3.3,12.7c-0.2,0.9-0.8,1.3-1.8,1
		L453,321c-0.9-0.2-1.3-0.8-1-1.8l4.1-15.4c0.2-0.9,0.8-1.3,1.8-1L485.2,310z"/>
	<path class="st0" d="M449.3,334.9c0.4-0.2,0.7-0.2,1-0.1c0.3,0.1,0.6,0.3,0.9,0.8l0.7,1.1c0.4,0.8,0.2,1.4-0.6,1.9
		c-0.3,0.2-0.7,0.4-1.1,0.7c-0.4,0.3-0.9,0.6-1.4,1.1c-0.5,0.4-1,0.9-1.4,1.5c-0.5,0.6-0.9,1.2-1.2,2c-0.7,1.5-0.9,2.9-0.5,4.1
		c0.3,1.2,1.1,2.1,2.3,2.7c1,0.5,2.1,0.5,3,0.2c1-0.4,2-0.9,2.9-1.7c1-0.8,2-1.7,3-2.6c1-1,2.1-1.8,3.2-2.5c1.1-0.7,2.3-1.2,3.6-1.4
		c1.3-0.2,2.6,0,4.1,0.7c1.2,0.5,2.2,1.3,2.9,2.2c0.8,0.9,1.3,1.9,1.6,3.1c0.3,1.1,0.4,2.4,0.3,3.7s-0.5,2.6-1.1,3.9
		c-0.4,0.8-0.8,1.6-1.3,2.3c-0.5,0.7-1,1.3-1.5,1.8c-0.5,0.5-1,1-1.4,1.3c-0.5,0.3-0.9,0.6-1.2,0.8c-0.7,0.4-1.4,0.3-2-0.4l-0.8-1
		c-0.3-0.4-0.4-0.8-0.3-1.1c0.1-0.3,0.4-0.6,0.8-0.8c0.6-0.4,1.2-0.9,2-1.6c0.8-0.7,1.5-1.6,2-2.9c0.7-1.5,0.9-2.9,0.6-4.1
		c-0.3-1.3-1-2.2-2.3-2.8c-1-0.5-2-0.5-3-0.1c-0.9,0.4-1.9,1-2.9,1.8c-1,0.8-1.9,1.7-2.9,2.6c-1,1-2.1,1.8-3.2,2.5
		c-1.1,0.7-2.3,1.2-3.6,1.4c-1.3,0.2-2.7,0-4.2-0.7c-1.1-0.5-2.1-1.2-2.9-2c-0.8-0.8-1.4-1.8-1.8-2.9c-0.4-1.1-0.5-2.3-0.4-3.6
		c0.1-1.3,0.4-2.7,1.1-4.1c0.5-1,1-1.9,1.6-2.7c0.6-0.8,1.2-1.5,1.9-2.1c0.6-0.6,1.2-1.1,1.8-1.5
		C448.4,335.4,448.9,335.1,449.3,334.9z"/>
	<path class="st0" d="M456.3,376l4.8-7.9c0.5-0.8,1.2-1,2-0.5l0.8,0.5c0.8,0.5,1,1.2,0.5,2l-11.9,19.6c-0.5,0.8-1.1,1-2,0.5
		l-0.8-0.5c-0.8-0.5-1-1.2-0.5-2l4.8-7.9l-22.2-13.5c-0.8-0.5-1-1.2-0.5-2l0.8-1.2c0.5-0.8,1.1-1,2-0.5L456.3,376z"/>
	<path class="st0" d="M446.5,395.7c0.8,0.6,0.8,1.3,0.2,2.1l-0.9,1.1c-0.6,0.7-1.3,0.8-2,0.2l-14.5-11.8c-1.9-1.5-3.8-2.1-5.7-1.8
		c-2,0.3-3.7,1.3-5.2,3.2c-1.5,1.9-2.2,3.8-2.1,5.7c0.1,2,1.1,3.7,3,5.2l14.5,11.7c0.8,0.6,0.8,1.3,0.2,2.1l-0.9,1.1
		c-0.6,0.8-1.3,0.8-2.1,0.2L416.5,403c-1.4-1.1-2.4-2.3-3.1-3.7c-0.7-1.3-1.1-2.8-1.3-4.2c-0.1-1.5,0.1-3,0.6-4.5
		c0.5-1.5,1.3-3,2.5-4.4c1.2-1.4,2.4-2.5,3.8-3.4c1.4-0.8,2.8-1.3,4.3-1.5c1.5-0.2,2.9-0.1,4.4,0.4s2.9,1.2,4.2,2.3L446.5,395.7z"/>
	<path class="st0" d="M423.5,422.7c0.7,0.7,0.6,1.4-0.1,2.1l-6.6,6c-1.8,1.6-3.6,2.8-5.5,3.6s-3.8,1.2-5.7,1.1
		c-1.9,0-3.8-0.5-5.7-1.5c-1.9-0.9-3.6-2.3-5.3-4.1c-1.7-1.8-2.9-3.7-3.6-5.7c-0.8-1.9-1.1-3.9-0.9-5.8c0.1-1.9,0.7-3.8,1.6-5.6
		c1-1.8,2.3-3.6,4.1-5.2l6.6-6c0.7-0.7,1.4-0.6,2.1,0.1L423.5,422.7z M398.6,410.3c-1.3,1.2-2.3,2.5-3,3.8c-0.7,1.3-1.1,2.7-1.2,4.2
		c-0.1,1.4,0.2,2.9,0.8,4.3c0.6,1.5,1.5,2.9,2.8,4.3c1.3,1.4,2.6,2.5,4,3.2c1.4,0.7,2.8,1.1,4.2,1.1c1.4,0.1,2.8-0.2,4.2-0.8
		c1.4-0.6,2.7-1.5,4-2.6l4.2-3.8l-15.9-17.5L398.6,410.3z"/>
	<path class="st0" d="M383,435.1l17.1,8c0.5,0.2,0.8,0.6,0.8,0.9c0,0.4-0.2,0.7-0.7,1.1l-1.5,1c-0.6,0.4-1.3,0.5-2,0.1l-9.6-4.6
		c-0.4-0.2-0.9-0.5-1.3-0.7c-0.5-0.3-0.9-0.5-1.2-0.7c-0.4-0.2-0.8-0.5-1.2-0.7l-0.1,0.1c0.1,0.4,0.2,0.9,0.3,1.4
		c0.1,0.4,0.1,0.9,0.2,1.4c0.1,0.5,0.1,1,0.2,1.5l1,10.6c0.1,0.7-0.1,1.3-0.8,1.8l-1.5,1c-0.5,0.3-0.9,0.4-1.2,0.3
		c-0.3-0.2-0.5-0.5-0.6-1.1l-1.5-18.8l-6.7-9.7c-0.6-0.8-0.4-1.5,0.4-2l1.2-0.8c0.8-0.6,1.5-0.4,2,0.4L383,435.1z"/>
	<path class="st0" d="M294.4,475c0.2,2.3,0.1,4.4-0.5,6.4c-0.6,2-1.5,3.8-2.7,5.4c-1.2,1.6-2.8,2.9-4.6,3.9c-1.8,1-3.9,1.6-6.2,1.9
		c-1.3,0.1-2.5,0.2-3.7,0s-2.1-0.3-3-0.5c-0.9-0.2-1.7-0.5-2.3-0.8c-0.7-0.3-1.2-0.6-1.6-0.8c-0.7-0.5-0.9-1.1-0.5-2l0.5-0.9
		c0.4-0.8,1.1-1,2-0.6c0.3,0.2,0.8,0.4,1.3,0.6c0.5,0.2,1.1,0.4,1.8,0.6c0.7,0.2,1.4,0.3,2.3,0.4c0.8,0.1,1.7,0.1,2.6,0
		c1.8-0.2,3.4-0.7,4.7-1.4c1.3-0.8,2.5-1.7,3.3-2.9c0.9-1.2,1.5-2.5,1.9-4c0.4-1.5,0.5-3.1,0.3-4.7c-0.2-1.6-0.6-3.2-1.3-4.6
		c-0.7-1.4-1.6-2.7-2.7-3.7c-1.1-1-2.4-1.8-3.9-2.3c-1.5-0.5-3.1-0.7-4.9-0.5c-1,0.1-2,0.3-2.8,0.6c-0.9,0.3-1.6,0.7-2.3,1
		c-0.7,0.4-1.3,0.8-1.8,1.2c-0.5,0.4-0.9,0.8-1.2,1.1c-0.7,0.7-1.4,0.7-2,0l-0.8-0.8c-0.6-0.7-0.6-1.4,0-2c0.4-0.4,0.9-0.8,1.5-1.3
		s1.4-1,2.2-1.5c0.9-0.5,1.9-1,3.1-1.4c1.2-0.4,2.4-0.7,3.8-0.9c2.4-0.3,4.6-0.1,6.7,0.6c2,0.6,3.8,1.6,5.4,2.9
		c1.5,1.3,2.8,2.9,3.8,4.8S294.2,472.7,294.4,475z"/>
	<path class="st0" d="M252.7,491.9c-0.3,0.8-0.8,1.2-1.7,1.1l-2.1-0.1c-0.8,0-1.4-0.4-1.6-1.2L238,463c-0.2-0.5-0.1-0.9,0.1-1.2
		c0.2-0.3,0.6-0.4,1.1-0.4l1.5,0c0.8,0,1.4,0.4,1.6,1.2l2.5,7.9l11.8,0.4l3-7.7c0.3-0.8,0.8-1.2,1.6-1.1l1.5,0
		c0.6,0,0.9,0.2,1.1,0.5c0.2,0.3,0.2,0.7,0,1.2L252.7,491.9z M245.9,474.2l3.1,10c0.1,0.4,0.3,0.9,0.4,1.4c0.1,0.5,0.2,1,0.3,1.4
		c0.1,0.5,0.2,1.1,0.3,1.6l0.1,0c0.2-0.6,0.4-1.1,0.5-1.6c0.2-0.5,0.3-0.9,0.4-1.4c0.1-0.5,0.3-0.9,0.4-1.3l3.8-9.8L245.9,474.2z"/>
	<path class="st0" d="M235.2,463.6c0.3,0.3,0.4,0.6,0.4,1c0,0.3-0.2,0.7-0.5,1.1l-0.9,0.9c-0.6,0.6-1.3,0.6-2,0
		c-0.2-0.2-0.5-0.5-0.9-0.9c-0.4-0.3-0.9-0.7-1.4-1c-0.5-0.3-1.1-0.7-1.8-1c-0.7-0.3-1.4-0.5-2.2-0.6c-1.7-0.3-3-0.1-4.1,0.6
		c-1.1,0.7-1.8,1.6-2,3c-0.2,1.1,0,2.1,0.7,3c0.6,0.8,1.4,1.6,2.5,2.4c1,0.7,2.1,1.5,3.3,2.2c1.2,0.7,2.3,1.5,3.3,2.4
		c1,0.9,1.8,1.9,2.3,3.1c0.6,1.2,0.7,2.5,0.5,4.1c-0.2,1.3-0.6,2.5-1.3,3.4c-0.7,1-1.5,1.8-2.5,2.4c-1,0.6-2.2,1-3.5,1.2
		c-1.3,0.2-2.6,0.2-4,0c-0.9-0.1-1.8-0.4-2.5-0.6c-0.8-0.3-1.5-0.6-2.1-0.9c-0.6-0.3-1.2-0.7-1.6-1c-0.5-0.4-0.8-0.7-1.1-0.9
		c-0.6-0.6-0.7-1.3-0.1-2l0.8-1c0.3-0.4,0.7-0.6,1-0.6c0.3,0,0.7,0.2,1,0.5c0.5,0.4,1.2,0.9,2.1,1.5c0.9,0.6,2,1,3.3,1.2
		c1.6,0.2,3,0.1,4.2-0.5c1.2-0.6,1.9-1.6,2.1-2.9c0.2-1.1-0.1-2.1-0.7-2.9c-0.6-0.8-1.4-1.6-2.5-2.3c-1-0.7-2.1-1.4-3.3-2.1
		c-1.2-0.7-2.3-1.5-3.3-2.4c-1-0.9-1.8-1.9-2.3-3.1c-0.6-1.2-0.7-2.6-0.5-4.3c0.2-1.2,0.6-2.3,1.2-3.3c0.6-1,1.4-1.8,2.3-2.5
		c1-0.7,2.1-1.1,3.4-1.4c1.3-0.3,2.7-0.3,4.2-0.1c1.1,0.2,2.1,0.4,3.1,0.8c0.9,0.4,1.8,0.8,2.5,1.2c0.7,0.5,1.4,0.9,1.9,1.4
		C234.5,462.8,234.9,463.2,235.2,463.6z"/>
	<path class="st0" d="M203.8,485.6c-0.3,0.9-0.9,1.3-1.8,1l-14.7-4c-0.9-0.3-1.3-0.9-1-1.8l0.2-0.9c0.3-0.9,0.9-1.3,1.8-1l11.9,3.3
		l2.6-9.4l-9.4-2.6c-0.9-0.3-1.3-0.9-1-1.8l0.2-0.9c0.3-0.9,0.9-1.3,1.8-1l9.4,2.6l2.6-9.7l-12.6-3.5c-0.9-0.3-1.3-0.9-1-1.8
		l0.2-0.9c0.3-0.9,0.9-1.3,1.8-1l15.4,4.2c0.9,0.3,1.3,0.9,1,1.8L203.8,485.6z"/>
	<path class="st0" d="M179.1,449.4c0.2,0.4,0.2,0.7,0.1,1c-0.1,0.3-0.3,0.6-0.8,0.9l-1.1,0.6c-0.8,0.4-1.4,0.2-1.9-0.6
		c-0.2-0.3-0.4-0.7-0.7-1.1c-0.3-0.4-0.6-0.9-1-1.4c-0.4-0.5-0.9-1-1.5-1.4c-0.6-0.5-1.2-0.9-2-1.2c-1.5-0.7-2.9-0.9-4.1-0.6
		c-1.2,0.3-2.1,1.1-2.7,2.3c-0.5,1-0.5,2.1-0.2,3c0.4,1,0.9,2,1.7,3c0.8,1,1.6,2,2.6,3.1c0.9,1,1.8,2.1,2.5,3.3
		c0.7,1.1,1.2,2.3,1.4,3.6c0.2,1.3,0,2.6-0.7,4.1c-0.6,1.2-1.3,2.2-2.2,2.9c-0.9,0.7-1.9,1.3-3.1,1.6c-1.1,0.3-2.4,0.4-3.7,0.2
		c-1.3-0.1-2.6-0.5-3.9-1.1c-0.8-0.4-1.6-0.8-2.3-1.3c-0.7-0.5-1.3-1-1.8-1.5c-0.5-0.5-0.9-1-1.3-1.4c-0.3-0.5-0.6-0.9-0.8-1.2
		c-0.4-0.8-0.3-1.4,0.4-2l1-0.7c0.4-0.3,0.8-0.4,1.1-0.3c0.3,0.1,0.6,0.4,0.8,0.8c0.4,0.6,0.9,1.2,1.6,2c0.7,0.8,1.6,1.5,2.8,2
		c1.5,0.7,2.9,0.9,4.1,0.6c1.3-0.3,2.2-1,2.8-2.2c0.5-1,0.5-2,0.2-3c-0.4-1-0.9-1.9-1.7-2.9c-0.8-1-1.7-2-2.6-3
		c-1-1-1.8-2.1-2.5-3.2c-0.7-1.1-1.2-2.4-1.4-3.6c-0.2-1.3,0-2.7,0.7-4.2c0.5-1.1,1.2-2.1,2.1-2.9c0.9-0.8,1.8-1.4,2.9-1.7
		c1.1-0.4,2.3-0.5,3.6-0.4c1.3,0.1,2.7,0.5,4.1,1.1c1,0.5,1.9,1,2.7,1.6c0.8,0.6,1.5,1.2,2.1,1.9c0.6,0.6,1.1,1.3,1.5,1.8
		C178.6,448.5,178.9,449,179.1,449.4z"/>
	<path class="st0" d="M138,456l7.9,4.9c0.8,0.5,1,1.2,0.5,2l-0.5,0.8c-0.5,0.8-1.2,1-2,0.5l-19.5-12c-0.8-0.5-0.9-1.2-0.4-2l0.5-0.8
		c0.5-0.8,1.2-1,2-0.5l7.9,4.9l13.6-22.1c0.5-0.8,1.2-1,2-0.5l1.2,0.8c0.8,0.5,0.9,1.2,0.4,2L138,456z"/>
	<path class="st0" d="M118.4,446.1c-0.6,0.8-1.3,0.8-2.1,0.2l-1.1-0.9c-0.7-0.6-0.8-1.3-0.2-2l11.9-14.4c1.5-1.8,2.2-3.7,1.9-5.7
		c-0.3-2-1.3-3.7-3.2-5.2c-1.8-1.5-3.7-2.2-5.7-2.1c-2,0.1-3.7,1.1-5.3,3l-11.9,14.4c-0.6,0.8-1.3,0.8-2.1,0.2l-1.1-0.9
		c-0.7-0.6-0.8-1.3-0.2-2.1l11.9-14.4c1.1-1.3,2.3-2.4,3.7-3.1c1.4-0.7,2.8-1.1,4.3-1.2c1.5-0.1,3,0.1,4.5,0.6
		c1.5,0.5,3,1.4,4.4,2.5c1.4,1.2,2.5,2.4,3.3,3.8c0.8,1.4,1.3,2.8,1.5,4.3c0.2,1.5,0,2.9-0.4,4.4c-0.4,1.5-1.2,2.9-2.3,4.2
		L118.4,446.1z"/>
	<path class="st0" d="M91.6,422.8c-0.7,0.6-1.4,0.6-2.1-0.1l-5.9-6.6c-1.6-1.8-2.8-3.6-3.6-5.5c-0.8-1.9-1.1-3.8-1.1-5.7
		c0.1-1.9,0.6-3.8,1.5-5.6c0.9-1.8,2.3-3.6,4.2-5.2c1.8-1.7,3.7-2.8,5.7-3.6c2-0.7,3.9-1,5.8-0.9c1.9,0.1,3.8,0.7,5.6,1.7
		c1.8,1,3.5,2.4,5.1,4.1l5.9,6.6c0.6,0.7,0.6,1.4-0.1,2.1L91.6,422.8z M104.2,398c-1.2-1.3-2.4-2.3-3.8-3.1
		c-1.3-0.7-2.7-1.1-4.1-1.2c-1.4-0.1-2.9,0.2-4.3,0.7c-1.5,0.6-2.9,1.5-4.3,2.8c-1.4,1.3-2.5,2.6-3.2,4c-0.7,1.4-1.1,2.8-1.2,4.2
		c-0.1,1.4,0.2,2.8,0.8,4.2c0.6,1.4,1.4,2.7,2.6,4l3.8,4.3l17.6-15.7L104.2,398z"/>
	<path class="st0" d="M79.5,382.2l-8.1,17c-0.2,0.5-0.6,0.8-0.9,0.8c-0.4,0-0.7-0.2-1.1-0.7l-1-1.5c-0.4-0.6-0.5-1.3-0.1-2l4.7-9.6
		c0.2-0.4,0.5-0.9,0.7-1.3c0.3-0.4,0.5-0.9,0.7-1.2c0.2-0.4,0.5-0.8,0.7-1.2l0-0.1c-0.4,0.1-0.9,0.2-1.4,0.2
		c-0.4,0.1-0.9,0.1-1.4,0.2c-0.5,0.1-1,0.1-1.5,0.2L60.2,384c-0.7,0.1-1.3-0.2-1.8-0.8l-1-1.5c-0.3-0.5-0.4-0.9-0.3-1.2
		c0.2-0.3,0.5-0.5,1.1-0.6l18.8-1.4l9.7-6.6c0.8-0.5,1.5-0.4,2,0.4l0.8,1.2c0.5,0.8,0.4,1.5-0.4,2L79.5,382.2z"/>
	<path class="st0" d="M40.4,293.4c-2.3,0.2-4.4,0-6.4-0.6c-2-0.6-3.8-1.5-5.4-2.8c-1.6-1.3-2.8-2.8-3.8-4.7c-1-1.9-1.6-3.9-1.8-6.3
		c-0.1-1.3-0.1-2.5,0-3.7c0.1-1.1,0.3-2.1,0.6-3c0.2-0.9,0.5-1.7,0.8-2.3c0.3-0.7,0.6-1.2,0.8-1.6c0.5-0.7,1.1-0.9,2-0.5l0.9,0.5
		c0.8,0.4,1,1.1,0.5,2c-0.2,0.3-0.4,0.8-0.6,1.3c-0.2,0.5-0.5,1.1-0.6,1.8c-0.2,0.7-0.3,1.4-0.4,2.3c-0.1,0.8-0.1,1.7,0,2.6
		c0.2,1.8,0.6,3.4,1.4,4.8c0.8,1.3,1.7,2.5,2.9,3.4c1.2,0.9,2.5,1.5,4,1.9c1.5,0.4,3.1,0.5,4.7,0.3c1.6-0.2,3.2-0.6,4.6-1.3
		c1.4-0.7,2.7-1.6,3.7-2.7c1-1.1,1.8-2.4,2.3-3.9c0.5-1.5,0.7-3.1,0.5-4.9c-0.1-1-0.3-2-0.6-2.8c-0.3-0.9-0.6-1.6-1-2.3
		s-0.8-1.3-1.2-1.8c-0.4-0.5-0.8-0.9-1.1-1.2c-0.7-0.7-0.7-1.4,0-2l0.8-0.7c0.7-0.6,1.4-0.6,2,0c0.4,0.4,0.8,0.9,1.3,1.5
		c0.5,0.6,1,1.4,1.5,2.2c0.5,0.9,1,1.9,1.4,3.1c0.4,1.2,0.7,2.4,0.8,3.9c0.2,2.4,0,4.6-0.6,6.7c-0.6,2-1.6,3.8-3,5.4
		c-1.3,1.5-2.9,2.8-4.8,3.7C44.8,292.6,42.7,293.1,40.4,293.4z"/>
	<path class="st0" d="M23.9,251.5c-0.8-0.3-1.2-0.9-1.1-1.7l0.1-2.1c0-0.8,0.5-1.4,1.3-1.6l28.7-9.1c0.5-0.2,0.9-0.1,1.2,0.1
		c0.3,0.2,0.4,0.6,0.4,1.1l-0.1,1.5c0,0.8-0.5,1.4-1.3,1.6l-7.9,2.5l-0.5,11.8l7.7,3c0.8,0.3,1.2,0.8,1.1,1.6l-0.1,1.5
		c0,0.6-0.2,0.9-0.5,1.1c-0.3,0.2-0.7,0.2-1.2,0L23.9,251.5z M41.6,244.8l-10,3.1c-0.4,0.1-0.9,0.3-1.4,0.4c-0.5,0.1-1,0.2-1.5,0.3
		c-0.5,0.1-1.1,0.2-1.7,0.3l0,0.1c0.6,0.2,1.1,0.4,1.6,0.5c0.5,0.2,0.9,0.3,1.4,0.5c0.5,0.1,0.9,0.3,1.3,0.5l9.8,3.9L41.6,244.8z"/>
	<path class="st0" d="M52.3,234.2c-0.3,0.2-0.6,0.4-1,0.4c-0.3,0-0.7-0.2-1.1-0.6l-0.9-0.9c-0.6-0.6-0.6-1.3,0.1-2
		c0.2-0.2,0.5-0.5,0.9-0.9c0.3-0.4,0.7-0.9,1.1-1.4c0.4-0.5,0.7-1.1,1-1.8c0.3-0.7,0.5-1.4,0.7-2.2c0.3-1.7,0.1-3-0.6-4.1
		c-0.6-1.1-1.6-1.8-3-2c-1.1-0.2-2.1,0-3,0.6c-0.8,0.6-1.6,1.4-2.4,2.4c-0.7,1-1.5,2.1-2.2,3.3c-0.7,1.2-1.6,2.3-2.5,3.3
		c-0.9,1-1.9,1.8-3.1,2.3c-1.2,0.6-2.5,0.7-4.1,0.4c-1.3-0.2-2.4-0.7-3.4-1.3c-1-0.7-1.7-1.5-2.3-2.6c-0.6-1-1-2.2-1.2-3.5
		c-0.2-1.3-0.2-2.6,0-4c0.1-0.9,0.4-1.7,0.7-2.5c0.3-0.8,0.6-1.5,1-2.1c0.3-0.6,0.7-1.2,1-1.6c0.4-0.4,0.7-0.8,1-1.1
		c0.6-0.6,1.3-0.7,2-0.1l1,0.8c0.4,0.3,0.6,0.7,0.6,1c0,0.3-0.2,0.7-0.5,1c-0.4,0.5-1,1.2-1.5,2.1c-0.6,0.9-1,2-1.2,3.3
		c-0.3,1.6-0.1,3,0.5,4.2c0.6,1.2,1.6,1.9,2.9,2.1c1.1,0.2,2.1,0,2.9-0.7c0.8-0.6,1.6-1.4,2.3-2.4c0.7-1,1.4-2.1,2.2-3.3
		c0.7-1.2,1.5-2.3,2.4-3.3c0.9-1,2-1.8,3.1-2.3c1.2-0.6,2.6-0.7,4.3-0.4c1.2,0.2,2.3,0.6,3.3,1.2c1,0.6,1.8,1.4,2.5,2.4
		c0.6,1,1.1,2.1,1.4,3.4c0.3,1.3,0.3,2.7,0,4.2c-0.2,1.1-0.5,2.1-0.8,3.1c-0.4,0.9-0.8,1.8-1.3,2.5c-0.5,0.7-0.9,1.4-1.4,1.9
		C53.1,233.5,52.7,233.9,52.3,234.2z"/>
	<path class="st0" d="M30.6,202.6c-0.9-0.3-1.3-0.9-1-1.8l4.1-14.6c0.3-0.9,0.9-1.3,1.8-1l0.9,0.2c0.9,0.3,1.3,0.9,1,1.8l-3.4,11.9
		l9.4,2.7l2.7-9.4c0.3-0.9,0.9-1.3,1.8-1l0.9,0.2c0.9,0.3,1.3,0.9,1,1.8l-2.7,9.4l9.7,2.7l3.6-12.6c0.3-0.9,0.9-1.3,1.8-1l0.9,0.2
		c0.9,0.3,1.3,0.9,1,1.8l-4.3,15.4c-0.3,0.9-0.9,1.3-1.8,1L30.6,202.6z"/>
	<path class="st0" d="M67,178.3c-0.4,0.2-0.7,0.2-1,0.1c-0.3-0.1-0.6-0.3-0.9-0.8l-0.6-1.1c-0.4-0.8-0.2-1.4,0.6-1.9
		c0.3-0.2,0.7-0.4,1.1-0.6c0.4-0.3,0.9-0.6,1.4-1c0.5-0.4,1-0.9,1.4-1.4c0.5-0.6,0.9-1.2,1.2-2c0.7-1.5,0.9-2.9,0.6-4.1
		c-0.3-1.2-1.1-2.2-2.3-2.7c-1-0.5-2-0.6-3-0.2c-1,0.3-2,0.9-3,1.7c-1,0.8-2,1.6-3.1,2.6c-1,0.9-2.1,1.8-3.3,2.5
		c-1.1,0.7-2.3,1.2-3.6,1.4c-1.3,0.2-2.6,0-4.1-0.7c-1.2-0.6-2.2-1.3-2.9-2.2c-0.7-0.9-1.2-2-1.5-3.1c-0.3-1.1-0.4-2.4-0.2-3.7
		c0.2-1.3,0.5-2.6,1.1-3.9c0.4-0.8,0.8-1.6,1.3-2.3c0.5-0.7,1-1.3,1.5-1.8c0.5-0.5,1-0.9,1.5-1.3c0.5-0.3,0.9-0.6,1.2-0.7
		c0.8-0.4,1.4-0.3,2,0.5l0.7,1c0.3,0.4,0.4,0.8,0.3,1.1c-0.1,0.3-0.4,0.6-0.8,0.8c-0.6,0.4-1.3,0.9-2.1,1.6c-0.8,0.7-1.5,1.6-2,2.8
		c-0.7,1.5-0.9,2.8-0.7,4.1c0.3,1.3,1,2.2,2.2,2.8c1,0.5,2,0.5,3,0.2c1-0.4,1.9-0.9,2.9-1.7c1-0.8,2-1.6,3-2.6c1-1,2.1-1.8,3.3-2.5
		c1.1-0.7,2.4-1.1,3.7-1.3c1.3-0.2,2.7,0.1,4.2,0.8c1.1,0.5,2.1,1.2,2.9,2.1c0.8,0.9,1.3,1.8,1.7,3c0.4,1.1,0.5,2.3,0.4,3.6
		c-0.1,1.3-0.5,2.7-1.2,4.1c-0.5,1-1,1.9-1.7,2.7c-0.6,0.8-1.3,1.5-1.9,2.1c-0.6,0.6-1.3,1.1-1.9,1.4
		C67.9,177.8,67.4,178.1,67,178.3z"/>
	<path class="st0" d="M60.7,137.1l-5,7.9c-0.5,0.8-1.2,1-2,0.5l-0.7-0.5c-0.8-0.5-1-1.2-0.5-2l12.2-19.4c0.5-0.8,1.2-0.9,2-0.4
		l0.7,0.5c0.8,0.5,1,1.2,0.5,2l-5,7.9l22,13.8c0.8,0.5,1,1.2,0.5,2l-0.8,1.2c-0.5,0.8-1.2,0.9-2,0.4L60.7,137.1z"/>
	<path class="st0" d="M70.9,117.5c-0.7-0.6-0.8-1.3-0.2-2.1l0.9-1.1c0.6-0.7,1.3-0.8,2-0.1l14.3,12c1.8,1.5,3.7,2.2,5.7,1.9
		c2-0.2,3.7-1.3,5.2-3.1c1.5-1.8,2.3-3.7,2.2-5.7c-0.1-2-1.1-3.7-2.9-5.3l-14.2-12c-0.7-0.6-0.8-1.3-0.2-2.1l0.9-1.1
		c0.6-0.7,1.3-0.8,2.1-0.2l14.3,12c1.3,1.1,2.3,2.4,3.1,3.7c0.7,1.4,1.1,2.8,1.2,4.3c0.1,1.5-0.1,3-0.7,4.5c-0.5,1.5-1.4,3-2.6,4.4
		c-1.2,1.4-2.5,2.5-3.9,3.3c-1.4,0.8-2.8,1.3-4.3,1.5c-1.5,0.2-2.9,0-4.4-0.4c-1.5-0.5-2.9-1.2-4.2-2.4L70.9,117.5z"/>
	<path class="st0" d="M94.3,90.9c-0.6-0.7-0.6-1.4,0.1-2.1l6.7-5.9c1.8-1.6,3.7-2.7,5.6-3.5c1.9-0.8,3.8-1.1,5.8-1
		c1.9,0.1,3.8,0.6,5.6,1.6c1.8,1,3.6,2.4,5.2,4.2c1.6,1.9,2.8,3.8,3.5,5.7c0.7,2,1,3.9,0.8,5.8c-0.2,1.9-0.7,3.8-1.7,5.6
		c-1,1.8-2.4,3.5-4.2,5.1l-6.7,5.9c-0.7,0.6-1.4,0.6-2.1-0.1L94.3,90.9z M119,103.8c1.3-1.2,2.4-2.4,3.1-3.7
		c0.7-1.3,1.2-2.7,1.3-4.1c0.1-1.4-0.1-2.9-0.7-4.3c-0.6-1.5-1.5-2.9-2.7-4.4c-1.3-1.4-2.6-2.5-4-3.2c-1.4-0.7-2.8-1.1-4.2-1.2
		c-1.4-0.1-2.8,0.2-4.2,0.7c-1.4,0.6-2.8,1.4-4.1,2.6l-4.3,3.8l15.6,17.7L119,103.8z"/>
	<path class="st0" d="M135,79.3L118.1,71c-0.5-0.3-0.8-0.6-0.8-0.9c0-0.4,0.2-0.7,0.7-1.1l1.5-1c0.6-0.4,1.3-0.5,2-0.1l9.5,4.7
		c0.4,0.2,0.9,0.5,1.3,0.8c0.4,0.3,0.9,0.5,1.2,0.7c0.4,0.3,0.8,0.5,1.2,0.7l0.1,0c-0.1-0.4-0.2-0.9-0.2-1.4
		c-0.1-0.4-0.1-0.9-0.2-1.4c-0.1-0.5-0.1-1-0.2-1.5l-0.8-10.6c-0.1-0.7,0.2-1.3,0.8-1.8l1.5-1c0.5-0.3,0.9-0.4,1.2-0.2
		c0.3,0.2,0.5,0.5,0.6,1.1l1.2,18.8l6.6,9.8c0.5,0.8,0.4,1.5-0.4,2l-1.2,0.8c-0.8,0.5-1.5,0.4-2-0.4L135,79.3z"/>
		    <animateTransform attributeName="transform" type="rotate" from="0 255 255" to="360 255 255" dur="4s" repeatCount="indefinite"></animateTransform>
</g>
</svg>
