<?xml version="1.0" encoding="utf-8"?>
<!-- Generator: Adobe Illustrator 25.4.1, SVG Export Plug-In . SVG Version: 6.00 Build 0)  -->
<svg version="1.1" id="Layer_1" xmlns="http://www.w3.org/2000/svg" xmlns:xlink="http://www.w3.org/1999/xlink" x="0px" y="0px"
	 viewBox="0 0 638.7 622.4" style="enable-background:new 0 0 638.7 622.4;" xml:space="preserve">
<style type="text/css">
	.st0{opacity:0.75;}
	.st1{fill:#F8E6C9;}
	.st2{filter:url(#Adobe_OpacityMaskFilter);}
	.st3{opacity:0.75;mask:url(#SVGID_1_);}
	.st4{fill:#383838;}
</style>
<g class="st0">
	<g>
		<path class="st1" d="M551.7,131.9c-0.1-0.3,0-1-0.1-1.3c-1.1-1.3-2-2-2.8-3.4C547.4,130,543.4,125.4,551.7,131.9z"/>
		<polygon class="st1" points="571.5,189 564.2,186.1 569.3,189.4 		"/>
		<path class="st1" d="M597,224.3c0.5,2.5,5,0,6,0C600.2,220.8,595.9,225,597,224.3z"/>
		<path class="st1" d="M539.9,159.1l0.3,4.9l4.4,1.2c-1.1-0.3-1.7-2.1-2.3-3.9C541.8,159.8,540.9,158.1,539.9,159.1z"/>
		<path class="st1" d="M477.9,65.1c4.2-1.4-0.4-6.9,3.6-7.3c-4.4-1.2-9-1.6-13.7-0.7C471.9,58.4,475.8,61.1,477.9,65.1z"/>
		<path class="st1" d="M460.4,58.3c2.4,0.2,4.6-0.2,6.8-0.7C465.2,57.4,462.6,57.6,460.4,58.3z"/>
		<path class="st1" d="M450.3,56.1c0.8,1.4,2.1,3.3,3.5,4.5C453.4,58.4,451.6,55,450.3,56.1z"/>
		<path class="st1" d="M90.6,143.3c1.2-2.4,3.2-4.4,5.5-5.6c-6.1,0.7-15.2,0.8-10.5,3.6L90.6,143.3z"/>
		<polygon class="st1" points="414.3,40.2 409.8,41.7 412.4,44.5 		"/>
		<path class="st1" d="M268.4,37.6c-3.3-0.9-6.8-1.4-10.8-1C263.3,38.6,267.9,42.1,268.4,37.6z"/>
		<path class="st1" d="M357.4,31l3.4,2.2C359.9,32.2,358.7,31.6,357.4,31z"/>
		<path class="st1" d="M601.5,265c0.5,1.5,1.1,3.3,1.3,4.9C603,268.2,602.3,266.4,601.5,265z"/>
		<path class="st1" d="M125.6,533.2c2.2,0.6,3.5,0.5,4.2-0.4C127.9,532.1,126.2,532,125.6,533.2z"/>
		<path class="st1" d="M356.8,30.2c-1,0-2,0-4.4-0.2c1.7,0.1,3.2,0.6,4.7,1.1C356.9,30.5,356.5,30.3,356.8,30.2z"/>
		<path class="st1" d="M388.4,33.2c-0.1-0.3-0.4-0.2-0.7-0.1C388,33,388.4,33.2,388.4,33.2z"/>
		<path class="st1" d="M361.4,32.7L361.4,32.7C361.1,32.8,361.1,32.8,361.4,32.7z"/>
		<path class="st1" d="M346.4,33.1c2.1,1.3,2-6,3.1-3.7c1.4-2.8-2.4-1.2-5.2,0.4c-1.3,1.1-2.3,2.1-2.1,2.7
			C342.6,33.7,343.3,33.8,346.4,33.1z"/>
		<path class="st1" d="M601.5,221.7c-0.3-0.9-1-2-1.7-4.1c0.5,1.5,1,3,0.9,4.7C601.2,221.8,601.4,221.4,601.5,221.7z"/>
		<path class="st1" d="M607.1,255.7c-0.8-4.4-1.6-8.5-5.4-4.9c2.3-2.1,3.5-5.6,3.7-9c0-4,1-7.7,2.8-11.4c-2.3,1.1-3.7,3.9-4.3-2.9
			c-0.7-0.1-1.5-0.5-2.6-0.8c-0.3,0.1-0.7-0.1-0.3,0.1c-0.5,1.5-1.3,3.1-2.5,4.5c-0.7-0.1-1.2-0.6-1.6-0.8l0.9-0.3
			c0,0-1.4-0.2-2.1-0.3c-1.8-1.4-3.4-3.2-4.5-5.2c-1.6-2.8-3.5-5.2-5.9-7.4c-0.4-4.2,3.2,0.6,4.9-2.3l-6-3.7
			c4.9-2.3,4.1-13.5,10.6-5.3l-3.2-8.3c0.7-5.9-1.3-11.6-5.5-16.2c-0.8-4.4-10-6.7-4.9-5.4c-1.6-1.8-3.2-3.6-4.8-5.1l-5.1-5l1.4-0.8
			c-4-5.7-8.5-11.2-13.8-15.8c-5.9-5.4-9.5-12.2-10.8-19.8c-2.1-1.3-4.3-2.9-5.9-4.4c-2.4-2.2-4.9-4.4-6.2-7.3l0.9-1.3l6.1,2.3
			c1-2-2.5-6.2,0.1-5.7c-3.4-2.2-5-2-5.5-0.5c-2.4-2.2-4.7-4.8-6-7.7c-2.4-3.2-4.9-6.4-7.5-5.2c0.9-3.3,0.1-6.7-1.8-9.1l-4.2-4.3
			c-1.7-1.1-2.8-2.4-4.5-3.5c-3.4-2.2-6.9-4.4-10.1-6c-2.3-0.9-4.2-2.6-6.1-4c0.6-0.2,0.9-0.3,1.6-0.2l0,0l-1.6,0.2
			c-0.5-0.5-1.3-0.9-1.9-1.7l-1.9,2.3l-4.1,0.7l3.6-0.2l0,0l-1.6,2.2c-2.7-2.1-6.1-4-9.6-5.5c-1.9-0.7-3.5-1.5-5.6-1.8
			c-2.1-0.3-4.1-1.3-6.3-1.9l-0.6,1.2c-1.9,0.3-3.4-0.2-5.1-0.3c-1.8-0.4-3-1-4.9-1.7c2.3,1.9,4.6,3.8,6.9,5.4
			c-4-1-7.9-3.4-10.6-6.5c-0.1-0.3-0.4-0.2-0.5-0.5c1.5,0.5,3.3,0.9,4.8,1.4c-1.8-1.4-3.2-3.6-4.8-5.1l0.2,0.6
			c0.3,0.9,0.1,1.3-0.1,0.7l-0.3,0.1c-0.5,0.5-0.8,0.6-1.3,1.1c-0.5-0.5-1-1-1.5-1.5c0.2-0.4,1.7,0.1,2.4,0.2
			c0.3-0.1,0.5-0.5,0.5-0.5c-1.5-0.5-2.9-0.7-4.4-1.2c-0.5-0.5-0.9-0.7-1.4-1.2c-2.3-1.9-4.8-3.4-7.6-4.5c1.5-1.5,4,0,5.5,2.5
			c-1.6-3.8-4.6-6.5-8.7-7.8c-3.4-1.2-6.6-1.8-10.3-1.5l2.3-3.1l-5.3,3.2c-3,0-6.1-0.3-9.7-0.7c-3.6-0.8-6.9-2.4-9.1-5
			c-1.5,0.5-2.8,0.6-4,0c-0.6-0.8-1.3-1.9-2.2-4.6c0.2,1.6,0.2,2.6-0.6,3.2c-0.4-0.2-0.5-0.5-0.6-0.8c0.3-0.1,0.7,0.1,0.7,0.1
			c-0.3,0.1-0.8-0.4-1.2-0.6c-1.1-1.3-2.2-2.6-3.6-3.8c0.8,1.4,1.9,2.7,3.2,3.6c-3.6-0.8-6.9-0.7-10.2-0.2l-0.3-2.9
			c0.1,0.3,0.5,0.5,0.5,0.5c0.2-1.4-0.3-2.9,1-3l-1.7-0.1l-0.2-0.6l-0.7-0.1c-1.8-1.4-2.6-0.8-2.8,0.6l-0.7-0.1
			c0.3-0.1,0.4,0.2,0.7,0.1c-0.2,1.4-0.1,3.7,0.2,5.6c-0.3,0.1-0.6,0.2-0.9,0.3c-1.2-1.6-2.7-3.1-4.6-3.8c-3.5-1.5-6.8-4.1-8.9-7.4
			c-0.2,2.4,1.9,4.7-4.4,2.8c0.2-0.4-0.6-0.8-2.8-0.4c0.8,0.4,1.5,0.5,2.3,0.9c-0.5,0.5-1,1-1.5,1.5c-0.2,0.4-0.5,0.5,0.1,0.3
			c0.4,0.2,0.9,0.7,1,1c-2.1,0.7-5.3,1.1-8.5,1.6c-2.9,0.3-5.7,2-7.8,3.7c0.2-0.4,0-1-0.2-1.6l-4.1,2.7c-0.7-0.1-1.5-0.5-1.9-0.7
			c-1.5-4.5-9.1-8-0.2-10.3l-8.9-0.6c-5.1-3.3-11.4-3.8-17.1-1.9c-4.3-0.9-10.3,6.2-7,2.1c-2.1,0.7-4.6,1.2-6.7,2l-6.6,2.3l-0.2-1.6
			c-7,1.1-14,3.1-20.6,5.7c-7,3.1-14.9,3.4-22.3,1.6c2.5-1.5,5.2-2.4,8-3.1c-4-2-8.9-0.6-11.4,2.9c0.4,0.2,1.1,0.3,1.9,0.7
			c-1.9,1.3-3.9,2.3-5.7,3c-2.9,1.3-5.9,2.4-9.5,2.6l-3-4c-3.5,1.5-7.5,2.6-11.1,2.8c-4.1,0.7-7.8,1.7-8.2,4.5
			c-2.7-2.1-6.1-3-9.2-2.2l-5.7,2c-1.7,0.9-3.5,1.5-5.4,2.9c-3.3,2.1-7,4.1-9.9,6.4c-2.6,2.2-5.5,3.6-8.8,4.7l2.6,4.8
			c0,0,0.1,0.3-0.2,0.4c-3.1,1.7-6.1,3.8-8.9,6.4c-1.5,1.5-2.8,2.6-4.3,4.2c-1.4,1.8-3,3-4.7,5l2.8,3.4c-0.9,0.3-1.7,0.9-2.5,1.5
			c-1.1,0.7-2.2,1.4-3.3,2.1c-2.4,1.8-4.5,3.5-5.6,5.3c-2.3,1.1-5,2-7.9,3.4c-2.6,1.2-5.3,3.2-7.4,4.9c-0.6-1.8,1.8-3.6,4.7-4
			c-4.1-0.3-7.9,1.4-10.9,4.4c-2.8,2.6-4.7,6-6.5,9.6c-1.6,3.2-3.5,6.6-5.7,10c-2.1,2.7-5,5.1-8.7,6c-0.4,2.8-2.6,5.2-5.1,5.8
			c0.2-0.4,0.5-0.5,0.4-0.8c-0.2,0.4-0.8,0.6-1,1c-1.8,0.6-3.4,0.8-5.1,1.7c1.6-0.2,3.2-0.4,4.6-1.2c-2.1,2.7-3.7,6-4.7,9l-5.6-1.8
			l-0.4,0.8c-4.1,1.7,0.3,3.9,4.8,5.1c-0.7,1.9-0.7,3.9-0.1,5.7c-4.5-1.5-5.4,0.8-6.2,3.5c-1.2,2.4-1.8,4.6-7.1,3.8
			c0.7,1.1,0.6,2.8,0.2,4.6c-4.5,0.5-8.4,0.9-10,2.1c-1.5,0.5-0.5-2.5-0.4-4.2c-13.5,8.6,5.3,5.6,1.8,15.2
			c-4.4-0.2-7.8-7.1-11.9-1.3c-2.1,0.7-1.7,6.9-2.1,13.5c0,3-0.2,6.4-1.1,9.5c-0.6,1.2-1.1,2.7-2,4c-0.9,1.3-1.9,2.3-3.3,3.1
			c3.7-0.9,7.2-1.5,7.7,3.8c-0.8,3.6-5.7,7-9,11.1c-3.3,4.1-5.9,8.4-2,12.8c-0.8,0.6-1.7,0.9-2.8,0.6c0.7,3.1,0,7.7,0.5,12.3
			c0.1,1.3,0.2,2.6,0.3,3.9c-0.8,2.6-1.6,5.2-2.3,8.2c0,0,0.1,0.3-0.2,0.4c-1.3,1.1-2.5,2.5-2.9,4.3c-0.6,3.2-0.6,6.2-0.1,9.4
			c-2.1,7.8-4.5,15.3-7.3,23c0.9-0.3,1.6-0.2,1.9-0.3l-0.2,3.4l-0.1,2.7c-1.3,2.1-2.2,4.4-0.4,5.8l-1.5-0.5C35,311,35,312,35,313
			c-1.5,0.5-2.5,0.5-3.8-1.4c0.6,4.8,0.9,9.4-0.5,14.3c-0.9,4.3,1,8.7,4.5,11.2c-3.2,1.4-4.8-2.4-6.7-1.1c0.6,0.8,3.2,3.6,1,5
			c-1.9,1.3-2.5-1.5-4.2-3.6c0.1,2.3,1,5,2.5,7.2c1.2,1.6,3,3,5,3.7c2.6,0.8,5.4,1.2,7.8,1.4c0.9,1.7,2.1,3.3,3.4,4.9
			c-0.3,1.1-0.3,2.1-0.1,2.7c0.2,0.6,0.7,1.1,1.2,1.6l-3.3,1.1c0.8,0.4,0.8,1.4,0.9,2.7c-0.1-0.3-0.3-0.9-0.4-1.2L42,367
			c-0.1,0.7,0.2,1.6,0.2,2.6c-0.1,1.7-0.5,3.5-0.6,5.2c-0.4,1.8-0.4,3.8-0.1,5.7c0,2,0.3,3.9,1,6c0.7,4.1,2.5,8.2,5.2,11.3
			c-0.9,0.3-2.4-0.2-2.9-0.7c5.6,7.5,5.4,18.7,6.6,28.3c1.6,9.5,4.7,16.8,15.6,15.2c0.5,0.5,0.9,0.7,1.4,1.2
			c0.1,0.3,0.1,0.3-0.1,0.7l0.6-0.2c2.7,2.1,5.5,4.2,8.2,6.3c-2.3-5.6-0.8-7.1,1.6-7.2c0.1,1.3,0.1,3.3,0.1,5.3
			c-0.3,5.1-1,11.8,3.4,14.9l0.7-1.9c0.4,1.2,1.2,2.6,1.6,3.8c-0.4,1.8-1.2,3.4-1.8,5.6c-2.1,5.7-5,11.8-4.2,14.2
			c-0.1,1.7-2.3-0.9-3.8-1.4c2,15.8,7.2-2.5,14.7,4.7c-2.1,3.7-9.7,4-6.3,10.2c-0.3,2.1,5.6,4.5,11.3,7.6c2.7,1.1,5.8,3.1,8.1,5
			c1,1,2,2,2.8,3.4s1.2,2.6,1.4,4.2c0.9-3.3,1.8-6.6,6.1-5.8l2,3l1.7,2.1c0.8,2.4,1.7,5.1,3,7.7c2.2,4.6,4.9,8.4,10.2,7.3
			c0.1,0.3,0.5,0.5,0.6,0.8c-0.1,0.7-0.2,1.4-0.7,1.9c1.5,0.5,3,1,4.7,2.1c0.5,0.5,1.4,1.2,2.2,1.6c-0.1-0.3,0.2-0.4,0.1-0.7
			c1.2,0.6,2,1,3.2,1.6c0,3,3,4,6,3.7c2,0,3.9-0.3,5.4-0.8c-0.7,1.9-0.6,4.2,0.4,6.2l-0.3,0.1c-3.2,0.4-7.5-0.4-5.8,0.6l5.2,2.6
			l-0.2-1.6c1,0,1.7,0.1,2.6-0.2c0.1,0.3,0.5,0.5,0.9,0.7c3.1,2.3,7.1,4,11,4.6c0.7,0.1,1.4,0.2,2.1,0.3c-0.1,1.7-1.5,2.5-0.6,3.2
			c-0.5,0.5,0.3,0.9,2.6,1.8l7.4,4.9c-0.2,0.4-0.2,0.4-0.4,0.8l7.7,3.8l7.6,3.5l-1.5,1.5c3.2,2.6,7.7,3.8,11.7,3.7
			c2.9-0.3,6-1,8.5-2.6c2,2-0.7,2.9-1.1,3.7c4.3,3.9,9.1,6,14.7,7.7c5.7,0.1,10.8-0.7,16.1-3.1l-0.4,5.8c1.1-0.7,2.8,0.4,5.1,1.3
			s5.4,3.2,8.4,4.9c1.7,1.1,3.3,1.9,5.2,2.6s3.8,1.4,5.9,1.7c4,1,8.4,1.1,12.5,0.1c-0.3,1.1-1.3,2.1-1.9,2.3
			c9.4-1.9,19.5,3.1,28.9,5.9c9.3,2.5,17.5,3.1,20.8-7.8c1.2-0.4,2.3-1.1,3.8-1.6c1.1,0.3,2.4,0.2,3.5,0.5l7.2,0.6
			c4.8,0.4,10-0.1,14.8-1c-0.1-1.3-1.2-2.6-1.5-4.5c2.7,0.1,4.9,0.7,5,3c1.6-0.2,3.2-0.4,4.8-0.6c1.3,0.9,2.3,1.9,3.6,2.8
			c1.1-0.7,2-2,2.5-3.5c10.8-1.7,21.8-3.1,32.8-5.2l10.7-2l10.5-2.6c3.4-0.8,6.7-2,10.3-3.2c3.3-1.1,6.6-2.3,9.7-4
			c-2.3-1.9-4.2-4.3-6.6-6.5c3-1,5.9-2.4,9.1-3.8c2.9,0.7,6.2,4.3-0.2,7.1c2.5,1.5,5.1-0.7,6.1-3.8c1.3-2.1,1.8-4.6,1.7-6.9
			c6.8-1.7,6.7,1.1,5.8,4.1c-1,3-3.8,6.7-1.8,5.6l4.9-3.4l-1.8-0.4c1.2-2.4,1.4-4.8,2.4-6.9c0.6-1.2,1.3-2.1,1.8-2.6
			c1.2-1.4,2.6-2.2,4-3c5.6-1.2,5.1,3.3,7.2,2.3c0.2,0.6,1.1,0.3,2.8-1.6l10.9-6.4c-0.7-0.1-1.1-0.3-1.5-0.5
			c0.3-0.1,0.3-0.1,0.6-0.2c-0.7-0.1-1.1-0.3-1.7-0.1c-0.8-0.4-1.9-0.7-3-1c-1.4-1.2,0.4-2.8,2.9-4.3l0,0c-0.9,0.3-1.4-0.2-2-1
			c2-2,3-3-2.6-4.8l0,0c4.2,1.6,9.6-0.3,15.1-3.8l2.2-0.4c-0.1-0.3-0.2-0.6-0.3-0.9c2.5-1.5,5.1-3.8,7.5-5.6
			c4.2-3.4,8.1-7.8,11.2-10.5c1.9-2.3,4.3-4.2,7.2-5.5c0.7-1.9,1-4,2-6c0.7-1.9,1.8-3.6,2.9-5.3c2.6-3.2,5.1-6.8,8.2-9.5
			c-2.5,0.5-5-1-5.6-3.5c-0.2-1.6,0.4-3.8,1.7-4.9c5.4,5.9,8.9,4.4,12.8,1c3.6-4.2,8.7-7,14.3-7.2c-4.9,0.3-1.9-4.7,0.1-9.4
			c2.1-4.7,3-9.8-3.6-8.5c4.7-5,5.3,2.9,11.2,0.2c0.6-4.2,2.3-8.2,4.3-11.9c1-2,2.1-3.7,3.4-5.9c1.3-2.1,2.4-3.8,4-6.1
			c1.3-2.1,2.7-3.9,4-6.1l3.9-6.4c2.6-4.2,4.4-8.9,5.7-13.7c-2-1-6,1-7.7-3.8c4.6-2.2,8.8-4.7,13.2-6.5c0-2-2.6-3.8-3.9-5.4
			c-1.5-1.5-1.9-3.7,2.3-6.1c-1.8,0.6-4.9,1.3-4.8-1.4c2.3-4.1,4.4-8.9,5.8-13.4c0.9-2.3,1.4-4.8,2-7c0.6-2.2,0.8-4.6,1.3-7.1
			c0.5-2.5,0.4-4.8,1-7l0.2-7.1l0.2-7.1l-0.2-7.3c0.3-5.1-0.3-9.6,0-14.8c0.3-5.1,0-9.7,0.4-14.6c-0.1-1.3,0.2-2.4,0.2-3.4
			c2.3-1.1,4.5-2.5,6.7-4c-1.7-0.1-3.4-0.2-5.7-3.8c0.9-6.3,2-12.8,4-18.8c-4.1,6.8-5.2,3.5-5.9-0.7l0,0c-0.8,2.6-5.1,0.7-7.8,1.7
			l4-15.8c1.4,1.2,2.5,2.5,3.7,4.1c3,3,4.5,7.2,4.3,11.6c6.7-5-1.2-1.6,6.4-8.9C608.6,266,608,260.4,607.1,255.7z M585,193.1
			c0,0-0.1-0.3-0.3,0.1C584.5,187.6,584.5,189.6,585,193.1z M427,61.7c2.6-0.2,5.2-0.4,7.6-0.3c-2.1,1.7-5.1,3.8-8.1,5.8
			C426.6,65.5,427,63.7,427,61.7z M506.6,122.8c-1.3,1.1-2.1,2.7-2.5,4.5c-1.9-1.7-3.9-3.7-5.9-5.4C500.9,121.7,504,122,506.6,122.8
			z M570.8,227.2c3.4-5.9,9.7,5.8,9.8-0.7c3.1,2.3,5.8,5.1,8.7,7.8c1.2,1.6,2.4,3.2,3.2,5.3c0.7,2.1,1,4,1,6l0,0
			c-1-4-2.4-7.9-6.2-7.3l2.8,4.4c-0.7-0.1-1.1-0.3-1.8-0.4c-0.2-0.6-0.7-1.1-1.1-1.3c0.4,0.2,0.9,0.7,0.8,1.4
			c-4.1-0.3-7.8,2.7-11.3,6.2c-1.5-5.5-3.1-11-5-16.7c0.7,0.1,1.6-0.2,2-1L570.8,227.2z M574.8,186.8c2.2,2.6,3.4,5.9,3.1,9
			c-3.1,8.8-11.5,5.6-15.1,8.9c-2.2-2.6-3.4-5.9-3.5-9.2c0-3-0.3-5.9-1.5-8.2l0.5,7.2c-3.5-1.5-6.4-4.9-6.6-8.5
			c-0.3,1.1-0.3,2.1-0.3,3.1c-6-10.7-13-21.4-20.7-31.2c2.2-0.4,3.8-0.6,5.5-0.5c3.1,0.3,6.3,0.9,9.1,1.9c0.7,0.1,1.5,0.5,2,1
			c0.3,1.9,1.9,3.7,4.1,5s3.6,2.8,5,4.7c-0.2,0.4-0.5,0.5-0.5,0.5c-1.4,0.8-3.7,0.9-2.5,1.5c1.5,3.5,4.2,6.3,7.2,8.3
			c2.4,1.2,4.9,2.7,7.8,3.1C570.9,184.1,573.2,185,574.8,186.8z M555.1,165.4c-0.9-0.7-1.5-1.5-2-2c0.4,0.2,0.8,0.4,0.9,0.7
			c0.9,0.7,1.1,1.3,1.6,1.8C555.6,165.9,555.5,165.6,555.1,165.4z M469.6,81.1L469.6,81.1c0.2,0.6,2.5,4.5,4.1,9
			c1.7,4.1,3.1,8,3.6,12.5c-0.1,0.7-0.4,1.8-0.8,2.6l-7.9-5.4l5.1-7.8l-6,7.1c-2.7-2.1-5.4-3.9-8.2-5.3c0.8-1.6,1.7-2.9,2.6-4.2
			l0.7,2.1l1.3-2.1c4.3,3.9,5.1,0.3,6.8-0.7c-2-1-4.2-1.6-6.4-2.2C466,84.3,467.8,82.7,469.6,81.1z M419.7,58.8
			c2.9,3.7,7.9,8.4,2.8,10.1c-4.1-0.3-5.8-1.4-6.7-2.8c-0.5-1.5-1.1-3.3-2.3-4.9C415.4,60.3,417.5,59.5,419.7,58.8z M413.4,61.3
			c0.4,3.2-2.6,4.2-6.2,5.5c-1.2,0.4-2.3,1.1-3.4,1.8c0,0,0,0-0.3,0.1C406.5,65.6,409.7,63.2,413.4,61.3z M321.4,45.4
			c-0.2,3.4-0.2,7.1,0.2,10.3c-2,0-4.3,0.1-7,0.1C317,52.2,318.9,48.9,321.4,45.4z M322.7,44.2c-2.3-1.9-3.8-3.4-4.7-4.8
			c1.7,0.1,3.5,0.5,5.1,1.3c0.5,0.5,1,1,1.2,1.6L322.7,44.2z M323.3,33.3C318.3,31.3,319.9,32.1,323.3,33.3
			C323.6,33.2,323.3,33.3,323.3,33.3z M182.2,95.9l0.2-2.4c-0.3,1.1-1,2-1,3c-0.9,0.3-1.4,0.8-2.3,1.1c-1.6-0.8-3.4-1.2-5.2-1.6
			c-0.1-0.3-0.2-0.6-0.3-0.9c1.4-1.8,3.1-3.7,4.7-6c1,0,2,0,3,0c0.3-0.1,0.7,0.1,1,0c0.4,1.2,0.5,2.5,0.4,4.2
			c0.3-1.1,0.7-1.9,0.8-2.6l0,0l1.5,3.5C183.9,95,183.1,95.6,182.2,95.9z M183.1,90.9c1.4,0.2,2.6,0.8,3.8,2.4
			c-0.5,0.5-1.1,0.7-1.7,0.9L183.1,90.9z M132.8,121.5c-0.3,2.1-1.7,2.9-3.7,3.9c0.2-1.4,0.6-3.2,1.1-4.7
			C130.2,120.7,131.6,120.9,132.8,121.5z M141.2,537.7C141.3,538,141.6,537.9,141.2,537.7c1.6,0.8,3.1,1.3,4.5,1.5
			C144.7,539.8,143.2,539.4,141.2,537.7z M168.5,554.5c1.1,0.3,1.9,0.7,2.6,0.8c-0.2,0.4-1.1,0.7-2,1L168.5,554.5z M474.7,558.5
			l-2.5-0.5C475.3,554.2,474.9,556,474.7,558.5z"/>
		<path class="st1" d="M601.2,226.8L601.2,226.8C601.1,226.5,601.1,226.5,601.2,226.8z"/>
		<path class="st1" d="M612.2,251c0.3-0.1-0.1-0.3-0.2-0.6C612.4,250.6,612.2,251,612.2,251z"/>
	</g>
</g>
<g>
	<g>
		<circle class="st1" cx="324.4" cy="320.9" r="232.9"/>
	</g>
	<defs>
		<filter id="Adobe_OpacityMaskFilter" filterUnits="userSpaceOnUse" x="91.5" y="88" width="465.8" height="465.8">
			
				<feColorMatrix  type="matrix" values="-1 0 0 0 1  0 -1 0 0 1  0 0 -1 0 1  0 0 0 1 0" color-interpolation-filters="sRGB" result="source"/>
		</filter>
	</defs>
	<mask maskUnits="userSpaceOnUse" x="91.5" y="88" width="465.8" height="465.8" id="SVGID_1_">
		<g class="st2">
			
				<image style="overflow:visible;" width="1958" height="1958" xlink:href="B1DE795E85CEB069.jpg"  transform="matrix(0.24 0 0 0.24 89.48 85.979)">
			</image>
		</g>
	</mask>
	<g class="st3">
		<circle cx="324.4" cy="320.9" r="232.9"/>
	</g>
</g>
<g>
	<path class="st4" d="M151.1,410.8l-0.2-0.5c0.4-1.5,0.7-2.8,0.2-4L139.4,372l-3.4,1.2c-1,0.4-2.1,1.2-3.5,2.9l-0.6,0.8l-0.3,0.1
		l-3.1-9l24.6-8.4l3.1,9l-0.3,0.1l-1-0.3c-2.1-0.4-3.5-0.5-4.5-0.1l-3.4,1.2l11.7,34.4c0.4,1.2,1.4,2.1,2.6,3l0.2,0.5L151.1,410.8z"
		/>
	<path class="st4" d="M183.9,349l0.2,0.5c-0.2,1.3-0.4,2.4,0,3.6l13,38.1c0.4,1.1,1.2,2.1,2.2,2.8l0.2,0.5l-9.9,3.4l-0.2-0.5
		c0.2-1.4,0.4-2.7,0-3.9l-5.8-17.1l-8,2.7l5.8,17.1c0.4,1.2,1.3,2.1,2.4,3.1l0.2,0.5l-10.3,3.5l-0.2-0.5c0.3-1.4,0.4-2.7,0-3.9
		l-12.8-37.5c-0.4-1.2-1.3-2.2-2.4-3.1l-0.2-0.5l10.3-3.5l0.2,0.5c-0.3,1.4-0.4,2.7,0,3.9l4.6,13.4l8-2.7l-4.6-13.4
		c-0.4-1.2-1.3-2.2-2.4-3.1l-0.2-0.5L183.9,349z"/>
	<path class="st4" d="M206.9,348.4l-6.2,2.1l3.8,11.1l3-1c1.2-0.4,2.3-1.3,3.4-2.4l0.5-0.2l2.8,8.3l-0.5,0.2
		c-1.6-0.2-3.1-0.2-4.2,0.2l-3,1l5.2,15.2l7.3-2.5c1.3-0.4,2.3-1.5,3.9-3.3l0.3-0.1l2.8,8.2l-20.9,7.1l-0.2-0.5
		c0.3-1.3,0.3-2.6-0.1-3.9l-12.8-37.5c-0.5-1.2-1.3-2.3-2.3-3.1l-0.2-0.5l19.8-6.8l2.7,8l-0.3,0.1C209.3,348,207.9,348,206.9,348.4z
		"/>
	<path class="st4" d="M216.4,225l27.7-9.5l0.5,1.5c-1.6,3.7-2.9,9.9-1.3,14.7l61.8,181.1c36.5-6.4,83.8,4.2,112-5.4
		c11.9-4.1,16.5-12.4,17.4-17l1.4-0.7c8,1.4,13.1,5.7,15.3,12.2c3.5,10.2-3.5,24.4-25.1,31.8c-40.2,13.7-94.9-1.9-136.2,12.2
		l-15.8,5.4l-0.5-1.5c2.1-4.6,7.9-14.3,4.1-25.6l-58.3-170.7c-20.8,9.3-24.5,23.8-21.7,31.8c1.8,5.4,7.7,8.5,11.8,7.1l0.7,2.2
		c-1.2,7.2-4.1,12.8-14.1,16.2c-9.5,3.2-19.6-1.5-24.7-16.5C163.5,271,179,237.7,216.4,225z"/>
	<path class="st4" d="M331.8,227.4l80.2,130.1c2.6,4.2,5.5,7,8.6,8.9l0.4,1.3l-33.8,11.5l-0.5-1.5c1.1-4,0.9-8-1.5-11.6l-12.7-19.6
		l-21.2,7.2l1.6,24.6c0.2,4.3,2.2,6.5,5.1,9.1l0.5,1.5l-31.6,10.8l-0.4-1.1c0.9-3,1.7-5.7,1.5-9.2l-12-144.2
		c-0.5-4.2-3.9-7.9-6.6-8.6l-0.5-1.5L331.8,227.4z M348.3,331.9l13.4-4.6l-17.6-30.2L348.3,331.9z"/>
	<path class="st4" d="M422.1,198.2c21.4-7.3,39.1,4.1,47,27.4c3.9,11.5,1.9,23.3-3,32.9c16.9,2.9,28.7,13.9,34.6,31.2
		c9.3,27.3-1.6,51.3-27.1,60l-38.9,13.3l-0.5-1.5c0.8-4.6,1.1-8.8-0.3-12.9l-42.7-125.1c-1.4-4.1-4.1-7.1-7.7-10.4l-0.5-1.5
		L422.1,198.2z M446.4,233.4c-3.4-10-10.5-15.3-17-13l-9.7,3.3l13.1,38.3C446.1,257.4,450.2,244.7,446.4,233.4L446.4,233.4z
		 M474.2,299.3c-5.2-15.4-13.7-23.8-23.6-20.4l-10.8,3.7l17.2,50.4l9.7-3.3C476.2,326.4,479.3,314.2,474.2,299.3L474.2,299.3z"/>
</g>
</svg>
