<?xml version="1.0" encoding="utf-8"?>
<!-- Generator: Adobe Illustrator 25.4.1, SVG Export Plug-In . SVG Version: 6.00 Build 0)  -->
<svg version="1.1" id="Layer_1" xmlns="http://www.w3.org/2000/svg" xmlns:xlink="http://www.w3.org/1999/xlink" x="0px" y="0px"
	 viewBox="0 0 885.7 622.4" style="enable-background:new 0 0 885.7 622.4;" xml:space="preserve">
<style type="text/css">
	.st0{fill:#FFFFFF;}
</style>
<g>
	<path class="st0" d="M17.5,363.2v-1.1c2.1-3.1,3.5-5.6,3.5-8.7v-85.3h-8.5c-2.6,0-5.6,1.1-10,3.7l-1.9,1.3H0v-22.3h61.1v22.3h-0.6
		l-1.9-1.3c-4.3-2.6-7.4-3.7-10-3.7H40v85.3c0,3.1,1.4,5.6,3.5,8.7v1.1L17.5,363.2z"/>
	<path class="st0" d="M137.2,250.7v1.1c-1.4,2.7-2.7,5.1-2.7,7.9v94.5c0.1,2.8,1,5.6,2.7,7.9v1.1h-24.6v-1.1
		c1.6-2.9,2.9-5.8,2.9-8.7V311H95.8v42.4c0,3.1,1.3,5.6,2.9,8.7v1.1H73.1v-1.1c1.6-2.9,2.9-5.8,2.9-8.7v-92.9c0-2.9-1.3-5.8-2.9-8.7
		v-1.1h25.5v1.1c-1.6,2.9-2.9,5.6-2.9,8.7v33.3h19.8v-33.3c0-2.9-1.3-5.8-2.9-8.7v-1.1H137.2z"/>
	<path class="st0" d="M188.8,266.8h-15.4v27.6h7.4c2.9,0,6.1-1.1,9.5-2.7h1.3v20.6h-1.3c-3.4-1.6-6.7-2.7-9.5-2.7h-7.4v37.6h18.2
		c3.2,0,6.3-1.6,11.2-4.3h0.6v20.4h-51.7v-1.1c1.6-2.6,2.6-5.6,2.7-8.7v-92.9c-0.2-3.1-1.1-6.1-2.7-8.7v-1.1h49.2v19.9h-0.6
		C194.4,267.8,191.4,266.8,188.8,266.8z"/>
	<path class="st0" d="M303.6,0h68.7v3.8c-6.4,7-14,19.9-14,31.7v449.1c85.8,13.4,183,73,252.7,73c29.5,0,46.1-15,51.5-24.7l3.8-0.5
		c16.6,9.1,24.7,22.5,24.7,38.6c0,25.2-26.3,51.5-79.9,51.5c-99.8,0-209.2-76.2-311.7-76.2h-39.2v-3.8c8-8.6,28.4-25.8,28.4-53.7
		V65.5c-53.1,4.8-72.4,34.3-72.4,54.2c0,13.4,10.7,24.7,20.9,24.7v5.4c-8,15-18.8,25.2-43.5,25.2c-23.6,0-42.4-18.2-42.4-55.3
		C151.2,62.2,210.7,0,303.6,0z"/>
	<path class="st0" d="M557.9,92.8l79.4,349.8c2.7,11.3,7,19.9,12.3,26.3v3.2h-83.7v-3.8c5.4-8,8-17.2,5.4-26.8l-13.4-53.1h-52.6
		l-15,55.8c-2.7,9.7,0,16.1,4.3,24.1v3.8h-78.3v-2.7c4.3-5.9,8-11.3,10.2-19.3l82.6-329.4c2.1-9.7-2.7-20.4-8-24.1v-3.8H557.9z
		 M515.5,337.5h33.3L532.7,257L515.5,337.5z"/>
	<path class="st0" d="M780.6,96.6c53.1,0,83.7,38.6,83.7,96.6c0,28.4-13.4,53.1-31.7,70.8c35.4,19.3,53.1,52.6,53.1,95.5
		c0,67.6-42.4,112.7-105.7,112.7h-96.6v-3.8c5.4-9.7,9.1-18.8,9.1-29V129.3c0-10.2-3.8-18.8-9.1-29v-3.8H780.6z M807.9,193.1
		c0-24.7-11.8-41.8-27.9-41.8h-24.1v95C789.1,246.3,807.9,221.1,807.9,193.1L807.9,193.1z M819.7,360.5c0-38.1-12.3-63.3-37-63.3
		h-26.8v125H780C803.6,422.3,819.7,397.6,819.7,360.5L819.7,360.5z"/>
</g>
</svg>
