<svg xmlns="http://www.w3.org/2000/svg" width="885.714" height="622.379" viewBox="0 0 885.714 622.379">
  <defs>
    <style>
      .a {
        fill: #fff;
      }
    </style>
  </defs>
  <g>
    <path class="a" d="M17.514,363.229V362.1c2.089-3.053,3.535-5.623,3.535-8.676V268.1H12.533c-2.571,0-5.624,1.125-9.962,3.7L.642,273.084H0V250.749H61.06v22.335h-.642L58.489,271.8c-4.339-2.572-7.392-3.7-9.962-3.7H40.01v85.325c0,3.053,1.446,5.623,3.536,8.676v1.125Z"/>
    <path class="a" d="M137.225,250.749v1.125c-1.447,2.732-2.732,5.142-2.732,7.874v94.483a13.741,13.741,0,0,0,2.732,7.873v1.125H112.64V362.1c1.607-2.892,2.893-5.784,2.893-8.676V311.006H95.768v42.422c0,3.053,1.285,5.623,2.893,8.676v1.125H73.111V362.1C74.718,359.212,76,356.32,76,353.428V260.551c0-2.892-1.286-5.785-2.893-8.677v-1.125h25.55v1.125c-1.608,2.892-2.893,5.624-2.893,8.677v33.262h19.765V260.551c0-2.892-1.286-5.785-2.893-8.677v-1.125Z"/>
    <path class="a" d="M188.806,266.818H173.38v27.637h7.392c2.892,0,6.107-1.124,9.48-2.731h1.286v20.568h-1.286c-3.373-1.607-6.748-2.732-9.48-2.732H173.38v37.6h18.158c3.214,0,6.267-1.607,11.248-4.339h.643v20.407H151.688V362.1a18.252,18.252,0,0,0,2.732-8.676V260.551a18.256,18.256,0,0,0-2.732-8.677v-1.125h49.17v19.925h-.643C194.431,267.782,191.378,266.818,188.806,266.818Z"/>
    <path class="a" d="M303.565,0h68.677V3.754c-6.44,6.976-13.951,19.852-13.951,31.656V484.49C444.137,497.9,541.251,557.459,611,557.459c29.509,0,46.143-15.022,51.507-24.68l3.757-.539c16.634,9.122,24.681,22.537,24.681,38.631,0,25.219-26.291,51.508-79.945,51.508-99.794,0-209.248-76.188-311.727-76.188H260.105v-3.754c8.05-8.587,28.438-25.756,28.438-53.654V65.455c-53.118,4.829-72.434,34.338-72.434,54.19,0,13.415,10.733,24.68,20.926,24.68v5.368c-8.047,15.023-18.779,25.217-43.46,25.217-23.606,0-42.385-18.244-42.385-55.265C151.19,62.237,210.744,0,303.565,0Z"/>
    <path class="a" d="M557.89,92.818,637.3,442.64c2.682,11.269,6.975,19.852,12.34,26.291v3.218h-83.7v-3.757c5.365-8.047,8.047-17.169,5.365-26.824L557.89,388.45H505.308l-15.023,55.8c-2.682,9.658,0,16.094,4.293,24.141v3.757H416.244v-2.682c4.293-5.9,8.047-11.268,10.194-19.316L509.065,120.72c2.146-9.658-2.682-20.391-8.047-24.145V92.818ZM515.5,337.479h33.267L532.671,257Z"/>
    <path class="a" d="M780.553,96.575c53.118,0,83.7,38.631,83.7,96.575,0,28.438-13.415,53.118-31.656,70.823,35.41,19.316,53.115,52.583,53.115,95.5,0,67.605-42.386,112.672-105.7,112.672H683.442v-3.757c5.364-9.655,9.121-18.776,9.121-28.97V129.3c0-10.194-3.757-18.777-9.121-28.974V96.575Zm27.365,96.575c0-24.68-11.8-41.849-27.9-41.849H755.872v94.967C789.139,246.268,807.918,221.052,807.918,193.15Zm11.8,167.4c0-38.093-12.34-63.309-37.021-63.309H755.872V422.253h24.145C803.625,422.253,819.72,397.572,819.72,360.549Z"/>
  </g>
</svg>
