<svg xmlns="http://www.w3.org/2000/svg" xmlns:xlink="http://www.w3.org/1999/xlink" viewBox="0 0 702.2 510.3" xmlns:v="https://vecta.io/nano"><path d="M697.1 462.1c-8.5-35-15.3-70.3-20.2-105.8l-21.8-145.5-3.7-21.7-147.3-70.2-152.1 55-145.8-56.3-141.8 70.2L5.2 470.6 189 404.9 354.8 473l173.9-76.1 165.7 77.8c1.5-1.1 3.1-2 4.9-2.6l-.6-3.4-1.6-6.6z" fill="#f8e6c9"/><path d="M499.1 143.8l30.2 252.5L695.4 466l-53.5-285.6zm-148.5 29.8l1.4 298.1-168-66.1c-.7-50.3.3-103.6 3.8-159.5 2.7-43.3 6.7-84.9 11.5-124.5l151.3 52z" opacity=".5" enable-background="new" fill="#eda547" stroke="#eda547" stroke-miterlimit="10"/><path d="M655.1 210.6l-.1-2.7c-1.8-11.1-4.3-19.8-9.1-23.5-3.9-3-9-6.2-9-6.2-4.6-2.9-7.7-4.6-9.6-5.7-3.4-2-18.8-10.7-25.6-24.9-1.7-3.6-2.2-6-5.2-8.5-2.7-2.3-5.5-3.1-13.4-5.6l-12.2-4c-9-3.1-8.7-6-21.8-14.4-15.5-9.9-24.8-11.2-30.3-11.8-1-.1-2-.1-3.1-.1-12.2.5-21.5 6.9-26.9 10.7-13.2 9.2-11 15.1-24.3 24.3-4.1 2.8-12.7 8.7-25 10.7-17.7 3-21.7-7.4-36.5-3.4-17.4 4.7-26.1 18.7-39.1 15.8-.4-.1-.4-.1-10.9-5.7-12.7-6.7-19.1-10.1-21.1-10.7-9.8-3.2-12.5-1.1-20.5-5.1-6-3-5.1-4.6-10.3-7.4-10-5.4-17.3-1.8-32-4.5-10.3-1.9-11.6-4.5-15.5-5.9a32.9 32.9 0 0 0-4.3-.9c-6.2-.5-12.8 5.9-14.1 7.1-12.3 11.6-33.7 20.2-44.9 20.7-4.5.1-9 .6-13.4 1.3-2.4.4-4.7.9-7.1 1.5-10 2.6-10.8 4.8-17.3 5.1-9.2.5-10.6-3.7-21.8-4-6.1-.2-10.7 1-16 2.3L94.2 163c-5.7 2-12.1 5.2-15.7 11-3.1 5-1.4 7.5-4.8 13.6-3.9 7.2-8.2 7.1-13.5 13.9-3.6 4.6-3.5 6.9-7.7 20.6-6.1 20-8.9 21.3-7 23.8 7 9.4 49.6-4.7 62.8-9.1 12.3-4.1 24.3-8.8 35.9-14.1 51.2-23.6 106.1 47.7 199.3 53.7 64.2 4.2 139.6-22.6 171.3-9.8 24 9.7 35.9 14.6 40.8 20.6 1.4 1.8 5.7 7.6 12.2 7.9 3.8.2 5.6-1.7 9-2.8 11-3.7 18.5 7.6 36.5 9.6 6.6.7 12.7-.5 25-2.8 13.6-2.6 20.4-4 24.3-7.6 1.9-1.8 3.1-4.1 3.4-6.6-2-9-10.8-64.6-10.9-74.3z" fill="#62abd0"/><g fill="#1b1718"><path d="M492.8 194.4l-130.7 39.3c25.8-6.1 17.4 6.4 41.2-3.2 39.1-14.6 88.1-23.3 89.5-36.1zm38 51.7c-1.5-6.2-11.6-7.5-14.9-13.1-2.1-6.2-22.5-21.7-21.8-12.3-1.5 5.2 10.2 4.4 12.2 10.1 2.5 6.3 20.2 24.9 24.5 15.3z"/><path d="M615.3 265.3c-12.5-6.9-28.7-4.5-38.1-16.5-14-11.9-22.6-29.2-40.2-37.3-14.1-2.7-56.2-29.4-46-9.6 63.9 20.4 47.2 26.3 90.4 61.1 15.6 3.6 32 4.1 42.3 17.6 11.2 10.6 26.2 13.5 2.5 17.3-28.4 3.6-25.5-15.3-62.3-6.4-17.4-17.2-12.5 6.6 3.1 7.3 24.8-10.7 28.7 4.2 49.9 7 11.4-1.2 21.9-6.2 33.8-5.2 4.1 1 13.5 4.8 12.1-2.3-16.6-9.6-33.1-19.9-47.5-33zm-461.1-50.9c-14.1 2.3-28.5 13.5-42.7 18.7-7 2.2-43.2 11-30.4 2.7 48.8-16.3 25.7-18.9 55.2-43.2 4.3-3.7 24.5 5.8 15.3-2.4-23.1-16.7-33.8 16.3-45 28.3-6.5 6-17.1 4.7-24.5 9.3-10.5 6.4-19.8 15.3-33.5 15.4-17.5 15 52.6-1.3 59.1-1.9 11.4-4.9 53.9-18.7 46.5-26.9zM649 185.3c-10.7-9.1-21.8-18-33.2-27.4.2.2.4.4.5.6-8-9-17.1-17.2-25.9-25.5-13.7-3.4-25.6-9.5-37.9-16.4-38.7-33.6-71.2-6.1-98.1 23.1-17.7 21.7-43.7-11.2-63.9 8.7-37.1 22.3-47.4-4-83.5-8.9-8.7-9-20.6-9.9-32.9-10.9-10.7-5.7-20.8-15.7-33.9-7.3-19.8 15.8-41.9 25.6-68.3 26.4-11.2-.2-21.8 9.1-33.1 5.9-37.6-9-53 7-68.3 34.2-2.2 4.4-13.9 9.2-8.5 13.9-1.8 1.7-8.2 4.4-4.4 6.3 22-8.2 23.5-32.7 39.8-45.5 9.4 23.5 1.4 14.8-4.8 34.8-2.5 3.5-22 24.1-14 23.7 6.3.4 8.6-6.5 11.2-11.5 9.2-4.7 9.3-11.6 12.4-19.5 23.6-21.4-28.1-34.5 34.8-30.6 11.1 3.6 23.3-3.8 34.6-5.3 17.5-1.8 34.3-3.5 48.4-11.8 43.7-35 36-5.7 6.9 3.2-9.7 7.6-21.3 9.7-32.7 14.1-7.3 4.5.3 10.4 5.2 4.1 6.1-3 14-1.3 19.8-5.1 5.3-6.2 12.1-7.1 19.8-9.4 3.9-4.3 8.5-6.8 13.3-10.1 3.3-3.2 1.8-11.9 7.9-11.5 20 17 68.9 3.3 8.8 24-41.1 20.2-40.7 28.5 4.9 10.9 48.1-34.9 84.9 10.7 130.5 29.6 19.5-5.3-55.6-28.8-35.7-29.2 14.6.7 23.7-10.8 35.8-14.5 26.7 0 47.3 25.6 73.2 30.6l-.8-.3c4.8 3.3 7.4.7 11.3-.8-2.2-5.2-16.4-5.6-22.2-9.9-9.5-7.6-31.3-12.9-12-20.8h0c17.9-11.7 30.2-31.5 51.1-39.2-4.2 5.2 1.4 11.1 5.6 15.3 3.1 7.2-12.3 11.2-3.5 19.2 17.6 20.6 42.4 35.9 60 56.4 3.4 3 .6 5.8.9 9.2 2.7 4.7 24.4 24.8 21.9 11.3-7.8-6.5-15.8-10.2-14.8-19.8-16.1-24.5-47.7-39.1-63.9-63.3 6.2-4.1 9.3-10.7 4.5-16.9-14.8-13.4 9.6-13.8 17.9-5 16 9.7 31.1 21.8 50.5 23.2l-.1-.1c17.3 13.5 28.8 32.4 49.6 42.5 1.1 1 16.7 9.5 15.3 5.3zm-363.4-33.5c-2.3.9-4.7 1.6-7.1 2.2-.7.1 10.3-3.6 7.1-2.2z"/><path d="M574.8 207h0zm-6.7-75c.1 0 .1 0 .2.1l-.2-.1zm-435 56.1l122.8 53.3c-22.9-11.7-7-15.3-31.3-23.3-39.1-13.9-80.4-38.2-91.5-30z"/></g><path d="M659 428.8c7.4 3.2 14.9 6 22.1 9.4v-.1c2.5 1.9 3.4 1.9 3.8 1.7.7-.4.2-2.3-.7-6-.1-.5-.6-2.3-1.5-5.7a70.53 70.53 0 0 1-.9-2.9c-2.4.1-6.3 0-10.6-1.3-3.3-1-5.8-2.3-7.5-3.4l-4.1-2c-12.7-15.9-11.5-45.7-18.3-66.8 0 .1 0 .3.1.4-1.3-2.8-5-14.2-5.3-20.3-3.9.5-7.8.9-11.7 1.3.2.2.4.3.6.5 5.1 21 10.6 42 14.3 63.2 6.7 17-.7 12.3-14.5 6.1-34.1-14.8-69.4-27.2-103.8-41.4-18-6.5-39.8 7.9-58.8 10.5-37.3 11-73.9 23.6-109.9 37.8-12.8 6-26.5-7.3-39.4-10.3l-68.7-25.7c-21-8.2-43-14.1-64.7-20.6-10.1.1-21.4 7.3-31.7 10.1l.8-.3c-11.8 4.6-23.5 9.6-34.9 15.1-6.8 3.4-19.7 9.7-12.9-1-2.5-10.8.8-21.8 1.3-32.8 2-4-.1-39.6 3.5-50.2-1.5.1-3 .2-4.4.2-1.2 0-2.3-.2-3.4-.7l-7.2 66c-3.9 9.6 4.4 26.9-6.9 31-20.1 7.8-39.3 17.2-58.8 26.3-2.4.6-5 2.7-7.7 4.4 1 1.9 1.6 3.9 1.7 6.1.1 1.6-.2 3.1-.7 4.5 21.8-11.4 48.5-19.1 68-30.7 2.9.4 2.4 23.9-1.5 34.8h.3c1.2 0 2.3-.1 3.5-.1h.7c.1 0 .2-.1.6-.1 1.9-.3 3.8-.7 5.7-1.1 1.7-.4 3.3-.8 4.9-1.3-8.8-6.1 0-23.7-1.9-32.4 3.3-8.8 22.6-8.5 31.3-14.7l-.2.1c64.8-32.5 55.8-23.8 124.8.7 26.4 9.9 53 19.1 78.9 29.9-.8 4.5-22 12.2-29.8 17.7-6.3 3-11.7 7.2-17.5 7.8 2 .7 4 1.3 6.1 2l7.8 2.7c7.4-6.2 39.4-22.2 45.9-25.4 22.6 6.4 45 13.3 66.1 22.8a100.6 100.6 0 0 1 10.8-4.2c-.5-1.2-1.4-2.4-3.4-2.2-14.9-5.4-29.2-12.2-44.5-16.6-20.2-4.7-14.8-6.3 1.7-12 30.8-9.1 131.9-51.9 150.3-37.8 31.5 14.2 65 24.8 96 39.8 20.1 10.5 24 7.1 27.6 31 1 1.6 1.6 3.4 1.7 5.3.6.2 1.1.4 1.6.7 1.3.7 2.6 1.4 4 2 .2.1.3.1.4.2.1 0 .2 0 .2.1.6.2 1.2.4 1.9.6.8.3 1.5.5 2.3.7-.5-5.1-.2-10.9-1.5-13.5.8-3.4-1.6-6.7-2-9.9z" fill="#eda547" stroke="#eda547" stroke-miterlimit="10"/><g fill="#1b1718"><path d="M626.3 349.9v-.2h0v.2zm7.2 31.2h0 0 0zM304 434.5c7.8-5.5 29-13.3 29.8-17.7-25.9-10.9-52.6-20-78.9-29.9-68.9-24.4-60-33.2-124.8-.7l.2-.1c-8.8 6.2-28 6-31.3 14.7 1.9 9-7.5 27.5 2.9 33 6-2.2.6-10.5 2.6-15.1-2.5-19.8 10.5-19.7 27.7-26.9 19.4-5.1 39-26.5 59.2-17.8l116.7 38.3c4.6 2.2 21.1 5.1 11.2 8.3-7.4 2.4-14.3 5.4-21.3 8.2-7.3 3.4-14.7 6.2-21.9 10.1 10.3 7.9 17.9.4 27.9-4.4zm-20.6-32.1c-2-.7.1 0 1 .3-.3-.1-.7-.2-1-.3zm130.2 42.5c-21.5-9.8-44.3-16.8-67.3-23.3-9.4 4.6-72.9 36.4-36 25.7l40.8-19.3c14.2 4.6 28.2 10.3 41.8 15.5 5.1 2.2 9.1 3.8 14.1 5.7 2.3-1.4 12.2-3.2 6.6-4.3zm-29.4-8.6c-.4-.1-.8-.3-1.3-.4.4 0 2.6.8 1.3.4h0zm6.3 2.4l-1.7-.7c.6.2 1.3.5 1.9.8l-.2-.1zm3.5 1.3c.3.1.8.1 1 .4-.3-.2-.7-.3-1-.4h0z"/><path d="M86.9 401c-23 13.7-55.9 21.9-79 37.2-.4 2-.8 4-1.4 5.9 11-.6 36.5-19.1 45.3-20.9 36.9-14.5 30-16.3 27.1 17.1 9.3 8.4 12.1-38.6 8-39.3zm27.4-23c11.3-5.5 23-10.5 34.9-15.1-.3.1-.5.2-.8.3 10.3-2.9 21.6-10 31.7-10.1 21.7 6.5 43.7 12.4 64.7 20.6 22.6 9.3 45.8 17.1 68.7 25.8 12.9 3 26.5 16.3 39.4 10.3 35.9-14.2 72.5-26.8 109.9-37.8 19-2.6 40.8-17 58.8-10.5 34.3 14.3 69.7 26.7 103.8 41.4 13.8 6.3 21.2 10.9 14.5-6.1-3.6-21.2-9.2-42.2-14.3-63.2-21.4-18.9 22.5 81.2 1.9 63.6l-89.6-35.4c-16.4-7.1-19.9-11.1-37.7-4.3-25.2 8.2-50.5 15.1-76.1 22.4-23.1 7.1-44.9 16.6-68.2 23-3.4 1.1-6.5 3.2-9.9 1.3-7.6-3-15.6-5.5-23.3-8.6-25.5-10.4-51.6-19.4-78.4-26.8-17-5.5-33.4-12.6-49.9-18.9-18.8-9.5-36.6 5.2-56.3 11.1-15.5 4.5-37.8 24.2-30-2.4 2.3-21.5 3.2-43.1 4.3-64.6-11.6-16.9-6.9 44.9-9.6 50.3-.5 11.1-3.8 22.1-1.3 32.8-7 10.6 5.9 4.3 12.8.9zm545.2 50.7c.4 3.2 2.8 6.5 2 9.7 2.6 5.7-1.4 25.6 9 22.4 2.2-6.1-2.1-13.5-1.9-20-2.7-6.8 24 13.8 16.1-1.1-8.2-4.2-16.7-7.3-25.2-11zM98.6 292c-9.8-24.4-15.4 86.8-15.4 92.4-16.9 9.1-66.2 23.7-74.3 37.5v1.2c5 3.3 11.5-5 16.7-6.3 19.4-9 38.7-18.4 58.8-26.3 11.2-4 3-21.3 6.9-31l7.3-67.5zm552.2 150.3c-3.6-23.9-7.5-20.5-27.6-31-31-15-64.5-25.6-96-39.8-18.4-14.1-119.6 28.7-150.3 37.8-16.5 5.7-21.9 7.3-1.7 12 15.4 4.4 29.7 11.2 44.5 16.6 4.6-.5 3 6 6 4.2 8.5-3.5 23.1-4.5 6.8-8.2l-52.8-18.2c27-10.7 55.1-19.3 82.9-28.5 11.1-3 22.8-7.5 34-9.2 5.6-1 15.3-7.5 19.3-4.7 40.8 18.1 84.4 32.5 124.4 52.7 2 8 2.2 17.7 7.6 24.5 6.6 1.9 4.8-5 2.9-8.2zm11.2-31.7c-7-26.2-11.4-52.7-19-78.7-12.6-14.6-3.3 15.4-1.2 20.1 0-.1 0-.3-.1-.4 6.8 21.1 5.6 51 18.3 66.8 1.4.6 2.7 1.3 4.1 2 5 1.1 18 11.4 18.5 2.5-4.4-6.1-18.4-5.2-20.6-12.3z"/></g><path d="M217.1 206.2l.8 139.2L358.2 392l96.3-28.8-6.5-127.9-70.5-25.9-66.2-25.1-94.2 21.9z" fill="#a96642"/><path d="M249.6 233.4l-1.9 18.9-9.8 21.3 9.1 3.5 2-2 19.1 6.9 2.4-41.2zm34.1 11.3l-5.4 40.2 22.4 8 4.1-40.2zm33.7 15.8c0 .7-2.6 36.9-2.6 36.9l26.9 9.1.9-37.4-26.7-8.9 1.5.3zm46.1 14.6l-1.3 33.9 23.6-3.1 2.9-34.1zm33.9-2.1l-2 32.1 25.2-3.2 1.5-33.2zm31-6.4l-.9 31.5 18.7-2.6.5-32.6zm-30.2 61.3l1.1 49.7-42.1 10.5-41.3-12.2 2.2-53.2 38.6 12.1zm-119.5-16.5l-3 42.1 13.9-9.5 2-29.2z" opacity=".5" enable-background="new" fill="#f8e6c9"/><g fill="#1b1718"><path d="M458.6 352.4c-.2-.6-.3-1.2-.5-1.9-.1-.6-.3-1.1-.4-1.7-.7-2.2-1-4.6-.9-6.9v-.1-.1l-.3-5-.4-9.7-1.5-45.6v-.3-.1l-.9-.1h.8c-.7-13.1-.3-27.2.2-40.4v-.3l-.2-.3c-.7-1.1 0-2.8.8-4.6.9-2 1.7-4 .8-5.8l-.2-.4-.5-.1c-8.4-1.5-16.7-3.5-24.9-5.9l-4.9-1.5h-.1c-14.8-3.6-29.4-9.3-39-13.3l-.3-.1c-1.4-.4-2.9-.8-4.3-1.3-8.1-2.6-16.1-5.7-23.8-9.3l-11.4-4.8-.2-.1c-1.5-.2-3-.6-4.4-1.2h-.1c-1.6-.4-3.1-.7-4.5-1.1-5-1.4-10-3.1-14.7-5.2-1.2-.5-2.4-1.1-3.6-1.7-5.3-3.8-11.5-3-17.2-1.3l.2-.2-3.6 1c-8.8 2.3-17.8 4-26.8 5h-.1c-1.6.3-3 .6-4.4.8-1.5.3-2.9.5-4.3.7h-.1a54.32 54.32 0 0 1-4.7 1.1c-6.2 1.5-12.6 2.4-19 2.7h-.1c-1.4.2-2.7.6-4 1-1.5.5-3 1.2-4.5 1.8-4.7 2-9.6 4-14.1 2.4-1.9-.9-3.1.8-3.7 1.8-.3.5-.6.9-1.1 1.3l-.5.2-.1.5c-.2 1.5.3 3 1.3 4.2a54.44 54.44 0 0 1 1.5 12.7l-.7-.3.2 1.8.3 4 .1 2 .2-.1c.5 14.9.1 30-.2 44.7-.3 14-.7 28.4-.3 42.6v.3h1l-.9.2c.5 1.8.3 6.1.2 10.6-.3 7.4-.3 13.3.6 16.8l-.5-.2.6.6c.2.9.7 1.7 1.4 2.4.5.5 1.2.8 1.9.8 12.1 5.1 24.7 9.4 37 13.5 10.6 3.6 21.5 7.3 32.1 11.5 6.5 3.9 14 5.9 21.1 7.9 3.6 1 7.3 2 10.8 3.2h.1c5.1 1.4 10.3 3.3 15.3 5l8.5 2.9a81.48 81.48 0 0 0 4.7 1.5c2.6.9 5.3 1.4 8.1 1.4 6.1 0 12.1-2.1 17.9-4.2 4.3-1.7 8.7-3 13.3-3.8h.1a60.64 60.64 0 0 1 4.4-1.2c4.8-1.3 9.2-2.3 13.4-3.1h.1c1.4-.4 2.8-.9 4.2-1.3l.2-.1c1.5-.5 3-.9 4.5-1.4l.3-.1c1.3-.5 2.6-1 4-1.4 3.5-1.2 8.2-2.8 13.1-4 1.1-.3 2.2-.5 3.3-.8l1.5-.3h0l2-.6c8.6-2.5 20.4-5.9 20.8-17.2v-.1-.3zm-39.7 10.2v-3.3-2.5c0-1.4-.1-2.8-.1-4.2-.1-4.9-.1-8.7 0-12.3h0c.1-3.1.1-6.2.1-9.1h0v-.9-.7h-.2.2c-.2-2-.2-3.4.4-4 .8-.6 1.8-1 2.8-.9v-.8l.2.7 12.3-2.8 15.3-3.5.3 5.7c.1 2.3.3 4.7.3 7.1-.1 1.1-.1 2.3-.2 3.4s-.1 2.3-.1 3.5a59.35 59.35 0 0 0 .6 10.3l.6 3.1c0 1.3.3 2.6.8 3.8 0 .1.1.2.1.3-.5 4.5-5.8 6.5-10.9 8.4-2 .7-3.9 1.5-5.7 2.4-1.4.4-2.8.9-4.4 1.3-3.1.9-6.4 1.7-9.6 2.5-1 .2-2 .5-3 .7 0-.8 0-1.6.2-2.4v-.2-5.6h0zm-3.5-33.4h0 0v3.6 1.3c-.2 6.7-.2 13.3-.1 19.5 0 1.3 0 2.6.1 3.8v2.2 2.2 3.5.1.1c.2 1.2.2 2.5 0 3.7-.1.4-.1.8-.2 1.2l-2.7-1.5c-1.5-.8-3-1.6-4.4-2.5-1-.6-1.9-1.2-2.8-1.8-1.1-.6-2.1-1.2-3-1.7-.9-.4-1.7-.8-2.5-1.1-.2-3.3-.1-6.6-.1-9.9a101.43 101.43 0 0 0 0-7.8h0c-.1-2.1-.1-4.4-.2-6.3 0-1.4 0-2.9.2-4.3.2-2.1.7-3.2 1.6-4 1-.7 2.4-1.1 5-1.6.4-.1.8-.2 1.3-.2 2.1-.4 4.6-.9 7.6-1.6v1.1c.2.8.3 1.4.2 2h0 0zM400.1 366c.4.2.8.5 1.2.7.9.5 1.8 1.1 2.7 1.6l.1.1c1.4.6 2.7 1.4 4 2.4.3.2.6.4 1 .7.9.6 1.8 1.1 2.8 1.6-.4.1-.8.3-1.2.4l-5.8 1.7-4.6 1.3v-.1c0-1.2-.1-2.5-.1-3.5v-5c-.1-.8-.1-1.4-.1-1.9h0zm-3.5 7.7c-2.4 2-5.1 3.6-8 4.8-1.5.6-3.1 1.2-4.7 1.6-2.6.7-5.3 1.2-7.9 1.7.3-.5.5-1 .7-1.6l.2-.5-.4-.4c0-.1-.1-.1-.1-.2l.9-.2h-1.1l-.5-.5.1-.2-.5-.1c-.4-.3-.7-.6-1.1-.8 1.7-.4 3.2-1 4.7-1.9 1.4-.5 2.7-1 4.1-1.4s2.8-.8 4.2-1.1h.1l3.1-.9c1-.2 2-.5 3-.8l.8-.2c.8-.2 1.6-.5 2.5-.6-.1 1-.1 2.2-.1 3.3zM288 349.1c-.2 3.8-.3 7.6-.4 11.4 0 1.1-.1 2.2-.1 3.3l-.6-.3c-.6-.3-1.2-.6-1.8-.8h0c-2.2-1-4.4-1.8-6.7-2.5L275 359l8.7-6.6 4.3-3.3zm-24.1-8.4l-.5-.3-.5.3c-.3.2-.7.4-.7 3-.4-.1-.8-.3-1.2-.5-1.7-.7-3.2-1.3-4.5-.8l-1.6.7 1.4 1c1.6 1.1 3.9 1.6 6.5 2.1 4.5.9 7.3 1.7 6.9 4.1h0 0c0 .3-.1.7-.1 1.1-.9-.3-1.8-.5-2.8-.9-.4-.2-.8-.3-1.3-.4-.6-.2-1.2-.4-1.7-.6-3.5-1.3-7.2-2.6-10.3-2.8l-3.8-.4 3.2 2.1c1.9 1.3 4.9 1.9 7.8 2.5 1.5.3 3 .6 4.3 1 .5.2.9.3 1.4.5 1.1.3 2 1 2.7 1.9.4.8.5 1.8.2 2.7-6.6-1.9-13.1-4.2-19.5-6.8-4.9-1.9-10-3.9-15.2-5.6-1.7-1.2-4.2-1.8-6.9-2.4-4.5-1.1-7.4-1.9-7.9-4.1l4.9 1.6c3.2 1.2 6.5 2.3 9.4 2.5l3.9.3-3.3-2.1c-2.2-1.1-4.5-1.9-7-2.3-3.2-.7-6.4-1.4-7.6-3.2-.4-.7-.6-1.5-.5-2.3l12.5 4c6.6 2.2 13.5 4.4 20.1 6.1l.7-1.8c-5.1-2.1-10.4-3.9-15.7-5.2-6.1-1.7-12.3-3.4-17.3-6 0-1.5 0-3-.1-4.5 0-1.8-.1-3.7-.1-5.6 3.3 1 6.8 2.2 10.2 3.3 5.5 2 11.2 3.7 17 5l.5-1.9c-4.9-1.7-9.9-3.3-14.8-4.8-3.3-1-6.7-2.1-10-3.2h-.1-.1c-2.7-.2-2.8-1.3-2.7-4.3v-.8c.5.2 1.1.4 1.7.6 1.8.7 3.5 1.4 4.9 1l3.2-1-3.7-1c-4.5-1.3-6.8-1.9-6.3-6 2.9.8 6.1 1.9 9.2 3 5.2 1.8 10.5 3.7 14.8 4.2l.4-1.9-24.2-7.7c-.4-.3-.2-1.5-.2-2.5 0-.4.1-.9.1-1.3 2.3.6 4.8 1.5 7.2 2.4 4.4 1.6 8.9 3.2 12.4 3.4l6.5.4 3.6 2.8c1.8 1.4 4.6 2.1 7.3 2.8.8.2 1.6.4 2.4.7-2.1.9-4.7 2.4-4.7 4.2.1.9.6 1.7 1.5 2-.2 1-.2 2-.2 3-1.2-.3-2.4-.8-3.7-1.3-2.6-1-5.3-1.9-7.5-1.9l-4.1.1 3.7 1.8c1.7.7 3.4 1.3 5.2 1.7 2.7.7 5.2 1.3 6.1 2.9.5.9.4 2.2-.2 4-.5.9-.3 1.9.3 2.6 1.6 1.5 5.5-.1 11-2.4.8-.3 1.6-.7 2.3-.9l.5.1c2.9.5 2.4 5 1.4 11.2-.4 2.1-.6 4.2-.7 6.3-1.7-.6-3.5-1.1-5.2-1.7h-.1c.1-3.3-.4-3.6-.7-3.8zm166.4-111.1l.2.1c1 .4 1.9.8 2.8 1.2.3.2.7.3 1 .5-20.7 1.7-41.3 4.9-61.6 9.7l-5 1.2c-.7.2-1.4.3-2.1.5-2.6.5-5.2 1.2-7.8 2.1-.5.1-.9.2-1.4.4-1 .4-1.6.5-2.3.1l-.2-.1c-1.7-.5-3.5-1-5.3-1.6-18.2-5.5-36.3-12.3-53.9-18.8-20.8-7.7-42.3-15.7-64.1-21.7 2-.7 4-1.3 6.1-2 1.5-.5 3-.9 4.5-1.4 6-.9 12.2-2.2 19.1-3.8 1.5-.4 3.1-.7 4.6-1.1 1.5-.1 3-.4 4.6-.6 1.4-.2 2.8-.5 4.6-.9 4.9-.7 9.7-1.6 14.4-3 8.8-2.2 17.9-4.5 26.6-2.3 1.1.4 2.3.9 3.9 1.5l4.1 1.7c5.1 2.1 10.4 4.3 15.8 6l4.9 1.5c1.4.5 2.8.9 4.2 1.4 9.6 4.2 19.4 7.9 29.5 11l4.9 1.5 12.5 4.6c8.5 3.4 17.2 6.3 26 8.8 1.6.6 3.2 1.1 4.8 1.7 1.4.7 3 1.3 4.6 1.8h0zm18.1 28.7l.3 5.7c-.2-.9-.8-1.8-1.6-2.3-1.7-1.2-4.4-.9-8.7 1l-.6.1c-10.4 2.3-11.3 2.4-11 8 .2 3.6 0 7.3-.6 10.9v.1.1c.1 3.5-.3 4.5-3.4 4.6l-1.4.1.5 1.3c.6 1.4 2.3.9 3.5.5.1 0 .3-.1.4-.1a30.34 30.34 0 0 1-.6 4.2c-.6 3.7-1.3 7.6.8 9.2 1.2 1 3 .9 5.6-.2l-.2-.4.2.4c1.7-.8 3.6-1.3 5.5-1.4 1.7-.2 3.3-.5 4.9-1.1l-.1-.3.1.2a3.08 3.08 0 0 1 1.3-.3c1 0 2-.4 2.8-1.1.2 0 .4-.1.6-.2.6-.4.9-1.1.9-1.8v-.5c.1-3 .1-6 .3-9 .2.1.5.1.8 0h.1c.4 7.4.6 11.6-.2 13.6-.7 1.8-2.2 2.1-6.6 2.7-5.5.6-10.8 1.8-16.1 3.5-6.3 1.7-13.1 3.1-21.9 4.7l-1.9.3c-.9.2-1.7.3-2.6.5l-1.5.4-23.9 5.2c-1.4.3-2.8.5-4.2.8l-.4.1c.2-.6.3-1.2.3-1.7h.1l-.1-2.3-2 .1v.1.5l-2.4.4c-.9 0-1.8.2-2.7.4l-4.5.7c.2-2.9.2-5.8-.1-8.6v-.1c-.1-.4-.1-.8-.2-1.3l-.3-2.1c-.4-3-.6-6 1.1-8.3l1.1-1.6h-1.9c-.3 0-.7-.1-1-.2 0-2.3.2-4.6.4-6.9.4-4.9.8-9.9-.8-14.4-.3-1.7-.5-3.4-.6-5-.2-4.2.6-5.5 1.4-5.9s1.6-.7 2.4-1.1l1.2.3-.9-.5c1.6-.7 3.2-1.2 4.9-1.7 9.8-1.3 19.6-2.9 29.6-4.6 3-.3 6-.7 8.9-1.2l44.9-7.5v.7c-.6 2.5-.2 7.3.1 12.3h0zm.8 54.7c-.7.9-2.4 1.2-5.6 1.1h-.1-.1c-2.8.5-5.7 1.2-8.4 1.9l-6.5 1.5-16 3.8c-1.8.4-3.6.9-5.4 1.3-5.7 1.6-11.4 3-17 4.4l-2.4.6-4.8 1.2c-1.6.4-3.3.8-4.9 1.3l-5.5 1.3h0c-1 .2-2.1.5-3.2.8l-1 .3c-.7.1-1.4.3-2.1.5-2.5.6-4.9 1.3-7.3.1-.7-.8-1.1-1.9-1.1-2.9.2-2.6 5.9-3.7 10.9-4.6 2.7-.4 5.4-1 8-1.9 1.5-.3 2.9-.6 4.4-1 6.8-1.5 13.5-2.8 20.6-4.2l1.9-.4c1.8-.4 3.5-.7 5.3-1l7.7-1.5 33.3-6.8c.1 2.2 0 3.5-.7 4.2h0zm-52.8 21.8c0 .6.1 1.2.1 1.8 0 1.1-.1 2.2-.1 3.3v2.3c-1.6.1-3.4.3-5.3.5-.9.1-1.9.3-3 .5-1.5 0-2.9.3-4.2 1-.2.1-.4.2-.7.3-1.4.6-2.5.8-3.5.2-1.4-1.1-1.8-2.6-1.9-4.5v-1.6c0-1.1-.1-2.3-.2-3.4 2.2-.2 4.4-.6 6.6-1.1 1.2-.3 2.3-.5 3.5-.8l8-2.2.7-.2c-.2 1.2-.2 2.6 0 3.9h0zm-28.7 46.3c1.2.1 2.5-.1 3.6-.6.3-.1.6-.2.8-.3-.2.2-.5.4-.8.6-1.6.9-3.6 1-5.7 1.1h-.6c.9-.3 1.8-.6 2.7-.8h0zm-123-75.3l-5.2-1.6-20-6.3h-.2c0-1.1 0-2.2.1-3.3 0-.3.1-.7.1-1l48.5 16.1c-5.4 2.3-10.5.5-16.3-1.5-.5-.2-1-.4-1.6-.5l-5.7-1.9h.3zm26.8 21h0 0 0zm-2-9.5c-.7 7.2-.8 7.8-9.9 10.5.7-10.5.9-11 10.4-14.5-.2 1.5-.4 2.8-.5 4zM386 369.2h-.1-.1c-1 .4-2.1.7-3.2.8h-.3-.1c-3 .9-6 1.9-8.9 2.9-4.6 1.6-9.4 3.1-14.2 4.2-.1-2.6-.5-5.1-1-7.7-.8-4.7-1.7-9.1.2-12.1 4.2-6.6 12.2-7.3 20.7-8 2.9-.2 6-.5 8.8-1l4.9-.9c1.3-.3 2.6-.5 3.7-.7v1.1h0v8.4c.1 5.5.1 8.6-.6 10-.6 1.1-1.8 1.4-5.2 2l-1.9.3c-.9.3-1.8.5-2.7.7h0zm-68-4.1c-1-1.2-.8-3.4-.5-6v-.1c.1-.9.1-1.8.2-2.6l2.9.4-2.9-1c.2-4.2.2-8.3.2-12.2.8.2 1.5.4 2.3.7l10.8 3.2a141.21 141.21 0 0 1 4.8 1.5h.1c1.2.2 2.3.6 3.4.9h0c2.9 1 5.6 2.3 8.2 3.9l1 .6c1.2.6 2.3 1.3 3.4 1.9.1.5.1 1 .1 1.6-.1 3.9.2 7.7.8 11.5.3 2.3.6 4.6.7 7-2.6-1.1-5.3-2-7.9-2.9-1.1-.4-2.2-.7-3.2-1.1-1.4-.5-2.8-.9-4.2-1.4-6.1-2-11.6-3.5-16.9-4.8h-.1l-.1.4v-.4c-1 .2-2.2-.2-3.1-1.1zM288.8 335h0c1.3 8.8-2.8 11.6-8.6 15.5-1.6 1.1-3.3 2.2-4.9 3.5h0 0l1.3-16.6.3-2.5c0-.5.1-1 .1-1.5h0c0-.3.1-.7.1-1 .2-1.1.3-2.2.4-3.3l.3-3c.1-.7.1-1.4.2-2.1.1-.8.2-1.4.3-2.1.2-1.4.4-2.9.5-4.3 0-.6.1-1.1.1-1.7l.1-.6.1-.3c.1-.6.2-1.2.2-1.8 11.3 2.9 11.1 4.3 10.2 10.4-.7 3.8-.9 7.6-.7 11.4zm76.8-18.6c.9 0 1.7.5 1.9 1.3-2.6.3-5 .7-7.5 1.1l-2 .3c.3-.6.8-1.4 1.1-1.4a15.47 15.47 0 0 0 3.1-.6c.3-.1.6-.2.9-.2l2.5-.5zm8.9 27.2c.1.7.2 1.5.2 2.2-2.9.9-5.9 1.6-9 2-2.8.5-5.6 1.1-8.3 1.8.1-1 .1-2 .1-2.9 0-3.8 0-7.5 3.7-9.1 2.2-1.1 4.5-1.7 7-1.7 2 0 4 .5 5.7 1.7 1.1 1.1 1 2.3.8 4.3-.1.5-.1 1.1-.1 1.6l-.1.1h0zm-56.4-6.8v-.2c0-2.2.3-4.6.6-6.8.1-1.1.2-2.2.4-3.3 2.6.9 4.8 1.5 6.6 2 6.8 1.9 7.7 2.1 5.7 13.2l-3.1-.9c-3.4-1.1-6.8-2-10.2-2.7-.1-.4-.1-.8 0-1.3h0zm33.9 9.5c-.4 1.4-.5 2.8-.2 4.2l-5.5-2.7-7.8-3.8h-.1l-2.7-.9 1.3-10.7c.6.2 1.3.4 2 .6 1.3.9 2.8 1.6 4.4 1.9l2.2.6c.9.2 1.7.4 2.5.7 1.1.3 4.7 1.6 4.2 4.9 0 .4-.1.8-.1 1.2-.1 1.4-.2 2.7-.2 4h0zm1.1-26c0 .1-.1.1-.2.1-.7-.1-1.4-.4-2.1-.7-.6-.3-1.2-.6-1.9-.8l-5-1.7h0l.5-.3c.4-.3.6-.7.7-1.1l2.1.6.3.1c1 .2 1.9.5 2.9.9.9.5 1.7 1.2 2.3 2 .3.2.4.5.4.9h0zm-133.2-35.7v-.1-.1-1.5l66.3 22.1 59.3 19.8h.1c3 .3 5.4 1.4 6.5 3.3.8 1.4 1 3.1.5 4.7-1.2-.5-2.5-1-3.8-1.4-1.6-.6-3.2-1.1-4.8-1.8h-.1l-5-1.8-44-14.7-26.8-8.9c-3.2-1.8-10.2-3.8-18.4-6.1-12.2-3.4-27.5-7.6-29.8-11.9-.1-.6-.2-1.1 0-1.6zm155.9 35.8c-1.7.4-3.5.8-5.2 1.1-3.7.8-7.4 1.6-11.1 2.2 2.6-2.1 5.7-3.4 9.1-3.6l.1.1v-.1c.9-.1 1.8-.1 2.7-.1h0 0c1-.1 2.1-.1 3.2-.1h1.2c1.1 0 2.1-.1 3.1-.2-1 .3-2 .5-3.1.7h0zm-64-14.3c.5-.2.7-.5.9-1.6 3.8 1.5 7.6 2.7 11.5 3.8 7.5 2.2 17.7 5.2 18.8 8.1l.2.6-32.1-10.7.7-.2zm52.7-49.7c-1.8.3-3.7.5-5.5.7a4.53 4.53 0 0 1 1.6-.3h.2a134.37 134.37 0 0 1 8.7-1.8c-1.6.4-3.3.9-5 1.4h0zm-65.8-18.5l-18.4-6-27.5-9.5 19.9 6.5 18.4 6 27.5 9.5-19.9-6.5zm14.9 7.6l19.7 6.8 5 1.7c1.6.6 3.3 1.1 4.9 1.7l2.9.9c2.7.8 5.2 1.6 6 3.2.5 1.3.5 2.6-.1 3.9v.1.1c-.1 2.2-.1 4.4 0 6a23.08 23.08 0 0 0 .3 3.7l.1.4c.1.9.2 1.8.2 2.7-.5-.2-1-.4-1.5-.7-.5-.2-.9-.4-1.4-.6-1.4-.7-3-1-4.6-1l-.1 1.9c1.3.2 2.5.6 3.6 1.2l.2.1c2.1.7 3.8 2.4 4.4 4.6.2.7-.2 1.5-.8 1.9a1.1 1.1 0 0 1-.8 0c-.6-.5-1.3-.8-2-1-1.1-.6-2.4-.7-3.5-.3l-4.7 2 5.1-.2c.8 0 1.6 0 2.4.2l.6.3c.3.2.7.4 1.1.6l.2.2c1.9 1.9 1.9 5.6 1.8 9.2 0 1.4 0 2.8.1 4-.5-.2-1-.4-1.5-.7l-.6-.3c-.9-.6-2-1-3.1-1.2-2.1-.8-3.8-1.3-5-1l-4.3 1 4.3.9 3.3.8h.1.1c.3 0 .6 0 .9.1.2.1.4.2.6.2h.1c.6.2 1.3.4 1.9.7 1.1.7 2.1 1.8 2.6 3 .6 1.2.9 2.5 1 3.8 0 1.3-.2 2.5-.3 3.7-.2 1.7-.3 3.3-.2 5l-.3-.1c-.5-.1-1.1-.2-1.5-.4l-.1-.1-.5-.1c-1-.2-1.9-.5-2.8-.9-1.7-.7-2.4-1.5-1.4-3.8l.3-.8-.8-.4c-.2-.1-.4-.1-.6-.1s-.4.1-.6.2c-.8.4-.9 1.5-1 3v.4c-3.8-1.5-8-2.8-12-4.1-6.3-2-12.8-4-17.9-6.8.4-1.2.4-1.8 0-2.2-.3-.3-.7-.4-1.1-.2-.9.3-1.4 2-1.5 3.2-.2.7-.6 2.9.1 3.6l.5.4-3.8-1.3-43.3-14.4c-3.2-1.9-9.6-3.6-16.9-5.5-11.1-3-24.8-6.6-27.4-11.5-.3-.5-.4-1.1-.4-1.7 1.4.4 3.1 1.1 4.7 1.7 3.2 1.3 6.2 2.5 8.4 2.3l5.4-.4-5.2-1.5c-7-2-10.7-3.1-12.2-5.1-1.5-1.9-1.2-4.9-.7-10.9.1-.8.1-1.6.2-2.5 2 .6 4.1 1.4 6.1 2.2 3.7 1.4 7.5 2.9 10.9 3.3l7.2 1-6.7-2.9c-3.1-1.3-6.2-2.4-9.5-3.2-7.1-2-8.9-2.6-7.9-15.2 1.5.5 3 1.1 4.5 1.7 3 1.2 6 2.4 8.6 2.6l4.9.3-4.4-2.2c-1.9-.9-3.8-1.5-5.8-2-5.6-1.6-8.9-2.8-8.1-7.8 1.6.6 3.3 1.1 5 1.7 3.7 1.2 7.5 2.3 9.3 3.9l1.6 1.4v-2.1c0-.2-.2-2.8-1.1-3.3l-.6-.3-.5.3c-.2.1-.3.3-.4.4-2.4-.9-4.4-1.5-6.1-2-6.8-2-7.6-2.2-7.4-13.1a483.56 483.56 0 0 1 15.6 5.5c8.3 3 16.9 6.1 24.9 8.2l.6-1.9-16.3-5.8c-3.6-1.2-7.3-2.5-10.8-3.8-1.9-.8-3.8-1.4-5.8-1.9-5.7-1.6-9.3-2.8-8.9-7.8l32.8 11.3 27.8 9.6 33.9 12.3zm-15 84.2c-2.6-.6-5-1.2-5.8-2.7-.4-.8-.5-1.7-.3-2.5 2.2.8 4.4 1.4 6.7 2 4 1 8.1 2.1 10.6 4.1l.8.6.6-.8c.4-.7.6-1.6.5-2.4 0-.4 0-.8.1-1.2v-.2c.1-1.1.1-1.8-.5-2.1l-.5-.3-.5.3c-.5.3-.8 1.7-.9 2.8l-6.3-2c-3.3-1.1-6.8-2.2-10.2-3.2.1-1.5.2-2.9.2-4.1l21.3 7.1c-.1 2.1-.2 4.1-.2 6.2 0 1.1-.1 2.3-.1 3.4-.5-.2-1.1-.4-1.7-.6a18.35 18.35 0 0 0-4.6-1.2l-1.4-.1-2.7-1.4c-1.6-.8-3.4-1.4-5.1-1.7zM409 313.2l-.3.1-4.9.9c-4.7.9-9.5 2-14.2 3.1 4.7-1.4 9.4-2.4 14.2-3.3l1.7-.3c1-.2 2-.4 3-.5l9.1-1.8h0l15.2-3.5 9.6-2.2c1.1-.2 2.2-.5 3.3-.7 1.3-.3 2.6-.5 3.9-.8v.8l-40.6 8.2h0zm35.2-19.5h0v.7.1c-1.3.2-2.5.5-3.7.9-.7.2-1.3.4-2 .5.1-1.9.1-3.8 0-5.7-.1-3.1-.3-5.8 1.1-7.3.9-.9 2.3-1.5 4.5-1.6.2 2.9.2 5.9.1 8.8v3.6h0zm-5.3-17.3c.1-3.2.2-6.4.1-9.7.5-.1.9-.2 1.4-.4.8-.3 2.9-.9 3.4-.6.2.2.4.8.3 3.1h0v3.7c.1 4.6.2 5.6-5.2 6.5-.1-.8 0-1.7 0-2.6h0zm-3.5 7.3c0 .7-.1 1.5-.1 2.2-.2 3.4-.3 7-.4 10.5-1.2.2-2.4.6-3.5 1-1 .5-2.1.8-3.2.9.3-2.1.5-4.3.4-6.5.1-4.8.1-7.4 6.8-8.1h0zm0-7.3c0 1.2-.1 2.4-.1 3.6-1.2.3-2.5.6-3.6.8-.7.2-1.4.3-2.1.5l.3-3.2c.4-3.1.5-6.2.5-9.2.2-.7 1.5-.9 3.3-1.1.6-.1 1.3-.1 1.9-.2 0 2.9-.1 5.9-.2 8.8h0zm12.9 3.4c0-.6.1-1.2.2-1.8v.1c.1.4.1.9.1 1.4l-.3.3zm-40-30.5l-5.2.9c-3 .6-5.9 1.1-8.9 1.6h-.2c2.3-.4 4.7-.8 7-1.4l14.5-2.4 32.9-5.5v.1l-40.1 6.7zm1.4-2.8l-6.7 1.1-44.7 7.2c3.5-6.5 13-7.7 22.2-8.8 5.4-.7 10.5-1.3 14.5-2.9l5.3-.9c10.7-1.6 21.8-2.8 32.4-3.9l15.4-1.7c.1 1.1.1 2.2.2 3.5l-38.6 6.4h0zm-68.4 1.4c1.1.6 2.4 1 3.6 1.3 1 .4 2.1.7 3.1.8 1.5.3 2.8.5 3.7 1.5h0c.6.6.8 1.4.6 2.2-1.2-.4-2.3-.7-3.4-1-1.8-.4-3.5-1-5.1-1.7l-5.1-1.8-18.9-6.5c-9.2-3.4-18.7-6.6-28.2-9.7l-27.4-9.4c-4.6-2.4-11.5-4.3-18.7-6.4-9.5-2.7-20-5.6-25.3-9.9l19.9 6.6 77.7 26.6h.1c2.9.9 5.9 1.9 8.8 2.9 4.7 1.6 9.6 3.4 14.6 4.5h0zm-67 87.7c.5-7.6 1.1-15.5 2-23.3l.7.2h0 0c0 .3-.1.7-.1 1v.3c0 .2-.1.4-.1.6 0 .3-.1.5-.1.8h.4-.4c-.2 2.6-.4 5-.8 7.4-.2 1.1-.3 2.3-.4 3.4-.1.7-.1 1.4-.2 2.1-.1.8-.2 1.6-.2 2.4v.2a49.54 49.54 0 0 0-.6 5.4c-.5 4.4-.8 8.8-1.1 13.1-.1 1.6-.2 3.2-.4 4.8-.1.4-.1.7-.1 1a3.08 3.08 0 0 1-.3 1.3c.7-6.9 1.2-13.9 1.7-20.7h0zm16.7 26.6c.1-.6.2-1.2.2-1.8.8.3 1.8.6 2.6.9 2.2.8 4.4 1.7 6.2 1.5l5-.5-6.1-1.8c-4.3-1.2-6.5-1.8-7.3-3.2-.8-1.2-.7-3.5-.2-7.8 2.4.7 4.8 1.5 7.3 2.4 4.2 1.5 8.6 3 12.5 3.5l1.6.2c-.2 1.2-.2 2.4-.2 3.6-1.2-.4-2.5-.8-3.7-1.3-2.7-1-5.6-2-7.9-2h-3.7l3.2 1.9c1.8.9 3.8 1.5 5.8 1.9 2.8.6 5.4 1.2 6.3 2.8.4.7.5 1.6.3 2.4-.5-.2-1.1-.4-1.6-.6-1.7-.7-3.3-1.3-4.6-.8l-3.1 1.1 3.2.7c5.9 1.3 6.2 1.9 6.1 7.6-1.9-.6-3.8-1.1-5.6-1.6-5.2-1.4-10.6-2.9-15.4-5.5l-.2-.1c-1-.1-1-1.2-.7-3.5h0zm21.9-8.1l-1.4-.5c-4.1-1.4-8.3-2.8-12.4-4l-7.6-2.4a147 147 0 0 0 .7-10.4l6 1.9c5.9 1.8 6 1.7 6.5 1.3l.4-.4-.1-.6c-.1-.6-.1-.7-3.5-1.9.4-2.9 0-3.2-.3-3.4l-.5-.4-.5.3c-.3.2-.8.4-1 2.8-.6-.2-1.2-.3-1.7-.5-2-.5-3.7-1-4.6-1.9-.5-.5-1.1-1.5-.6-4 1.2.3 2.5.8 3.7 1.3 2.5.9 5.1 1.9 7.3 1.8l1.8-.1 2.1 1.4c1.1.7 2.4 1.2 3.7 1.5 1.4.4 2.7.7 3.1 1.5.3.8.2 1.6-.2 2.4v.1.1c0 .3-.1.6-.1.9-.1 0-.2-.1-.3-.1-1.3-.5-2.3-.9-3.1-.4-.4.3-.6.7-.5 1.1v.9l.9.1c.9 0 1.7.4 2.2 1 1.4 1.7.8 5.5.3 9.2-.1.6-.2 1-.3 1.4h0zm4.1 14.8c3.8 1.3 7.8 2.3 11.6 3.4 3.7 1 7.6 2.1 11.3 3.3l3.8 1.3c1.2.5 2.5 1 3.7 1.4 1.9.6 3.8 1.4 5.6 2.3.7.7 1.5 1.8.9 4.5-.1.3-.1.7-.1 1.1-.8-.2-1.7-.5-2.7-.8-1.3-.4-2.7-.8-4.1-1.3-3.1-1-6.2-2.1-9.3-3.2l-7.1-2.5c-1.7-.6-3.4-1.1-5.2-1.5-3.5-.9-6.9-1.7-8.1-3.9-.6-1.2-.7-2.7-.3-4.1h0z"/><path d="M362.7 252.4l.5 1.2v-.2.1-1.5-.1-.1-.1l-.1-.1h0c0-.1-.1-.1-.1-.2h0l-.7.3.4.7zM221.8 321l-.2-.2.5.6.1-.1-.5-.5zm26.3-42.3c.1-.2.1-.4.2-.5l.1-.2v-.1l15.3 5.1 4.2 1.4.5.2v-1.1a.76.76 0 0 0 .2-.4c.1-.2.1-.4 0-.6v-.4-.2-1-.4-1-.2c0-.4 0-.8.1-1.1v-.9-.4c0-.4 0-.8.1-1.2v-.2l.2-2.6v-.2l.1-2.4c.1-.7.1-1.4.1-2v-.8c0-.6.1-1.1.1-1.7 0-.3.1-.7.1-1s0-.7.1-1v-.3c0-.4.1-.7.1-1.1l.1-.5c0-.3.1-.6.1-1v-.7-.6c0-.4.1-.7.1-1.1 0-.2 0-.4.1-.7l6 2.1c.1.1.3.1.5 0l.3-.3v-.4c0-.2-.1-.3-.3-.4l-2.7-.9v-.7-.5-.2-.6-.2c0-.2 0-.5.1-.7v-.1c.1-.3-.2-.6-.5-.7h-.1c-.3 0-.5.3-.5.5v.2c0 .2 0 .4-.1.6 0 .3 0 .5-.1.8v1.1l-2.6-.9h0l.1-2.6c0-.3 0-.6.1-.8l.1-.6c0-.5.1-1 .1-1.5s.1-1 .1-1.5c0-.4 0-.8.1-1.3l.1-.9c0-.6.1-1.3.1-1.9v-1.1-1.4-.4l-.2-.1c.2-1-.3-2-1.1-2.6-.3-.1-.5-.2-.7-.3-.1-.1-.2-.1-.4-.2l-1.1-.5-.8-.3c-.2-.1-.4-.1-.5-.2l-1.1-.5c-.3-.1-.7-.3-1.1-.4-.2-.1-.4-.2-.6-.2l-.7-.3c-.4-.2-.8-.4-1.3-.5h0l-.2-.1h0l-.8-.3c-.4-.1-.7-.3-1-.4l-.4-.2c-.2-.1-.5-.2-.7-.3s-.4-.1-.6-.2c-.1 0-.2-.1-.4-.1-.8-.3-1.5-.5-2.2-.7l-1.2-.3c-.2-.1-.4-.1-.6-.2l-.8-.3c-.3-.1-.6-.1-1-.2-.3 0-.5-.1-.7-.1l-.6-.3c-.3-.2-.6-.2-.9-.2-.9 0-1.6.6-1.9 1.4l-.4-.1v.5c0 .4-.1.8-.1 1.1 0 .4-.1.8-.1 1.2l-.2 2.4-.1 1.1-.2 2-.1.7c-.1.6-.2 1.3-.2 2 0 1.1-.1 2.2-.2 3.3l-3.7-1.3v-.9c0-.5.1-1 .1-1.5 0-.3-.2-.6-.5-.7h-.1c-.3 0-.5.3-.5.6-.1.5-.1 1-.1 1.6l-.1 2.9v1.6c0 .1 0 .3.1.4s.2.2.4.2.3-.1.4-.2a.76.76 0 0 0 .2-.4v-2.3l3.7 1.3v.1.7c-.1.8-.1 1.7-.1 2.8v1.4 1.4h0l-.3.8-1.1 2.5c-.3.5-.5 1.1-.8 1.6l-.4.8c-.1.2-.2.5-.3.7l-.2.5c-.1.3-.3.6-.5.9l-.1.2-.6 1.3-.2.5-.3.6-.4 1-7.8-2.7h-.2-.2l-.1.1-.3.3v.4c0 .2.2.3.3.4l7.7 2.7c0 .1-.1.2-.1.3l-.6 1.2c-.1.2-.2.3-.2.5-.1.2-.2.4-.3.7-.3.7-.7 1.3-1 1.9a11.94 11.94 0 0 0-.8 1.6c0 .1-.1.2-.1.2-.2.3-.3.7-.4 1-.2.6.1 1.3.7 1.6h0c.1 0 .2.1.2.1l.6.2c.4.2.7.3 1.1.4.3.1.6.2.9.4.4.2.8.3 1.2.4l.9.3c.4.2.9.3 1.4.5.2.1.5.2.7.2.5.2 1 .3 1.6.5l.3.1.9.3.5.2a.78.78 0 0 0 .8-.1c.3-.2.6-.5.6-.9-.3-.8-.3-1.1-.4-1.3zm-1.6-2.5h0l-.3 1-.1.2-.2-.1-.9-.3-1-.3-.6-.2c-.5-.2-1-.3-1.5-.5l-.9-.3c-.4-.1-.7-.2-1.1-.4l-.8-.3c-.2-.1-.4-.1-.6-.2l1-1.8.6-1.2c.1-.2.2-.5.3-.7l.2-.4c.2-.3.3-.7.5-1l.6-1.2c0-.1.1-.1.1-.2l.1-.2v-.1l.4-.8.3-.6c.1-.2.2-.4.3-.5.2-.5.4-.9.7-1.4a4.67 4.67 0 0 0 .5-1c.1-.2.2-.5.3-.7l.2-.5.3-.6c.1-.2.2-.3.2-.5l.9-1.5c.1-.1.1-.2.2-.3l.1-.1c.1-.1.1-.2.2-.3l.6-1c.1-.1.1-.2.2-.4l.2-.3c.1-.1.1-.3.2-.4.2-.3.3-.6.5-.8l.3-.5c.1-.1.2-.2.2-.4l.1-.3v-.2-1.1-.5-.1h.1c.2.1.5.2.7.3s.3.1.5.2h.1c.3.1.6.2.9.4.4.2.8.4 1.3.5h.2c.3.1.7.2 1.1.3.3.1.7.2 1.1.3.1 0 .2.1.3.1 0 .1-.1.2-.1.3l-.1.2c0 .1-.1.2-.1.3l-.6 1.5c-.2.5-.4.9-.6 1.3-.1.2-.2.5-.4.7-.1.3-.3.6-.4.9l-.2.4c-.2.4-.4.8-.5 1.2l-.1.3c-.2.3-.3.7-.4 1.1l-.2.5c-.1.2-.2.4-.2.7l-.4.8h0l-.6 1.4c-.1.3-.3.7-.4 1.1l-.2.4c-.1.3-.3.7-.4 1-.2.6-.5 1.1-.7 1.7l-.2.5c-.1.3-.3.6-.4 1-.1.2-.2.5-.3.7s-.2.4-.2.7l-.3.6v-.3l-.6 1.9zm2.7-33.2c0-.5 0-1 .1-1.5 0-.4.1-.8.1-1.2 0-.5.1-1.1.1-1.6 0-.4.1-.8.1-1.1.2.1.5.1.7.1.8.1 1.6.3 2.4.7.5.2 1 .3 1.4.4l1 .3c.2.1.4.1.7.2l.7.3c.2 0 .3.1.4.1l.4.2v.7.8.3l-.3 3.5c0 .3-.1.7-.1 1-.1.6-.2 1.1-.2 1.7-.1.4-.1.9-.1 1.3l-.1 1.1-.4 2.7c-.1 0-.3-.1-.4-.1l-1-.3-1.2-.3-1.1-.3c-.1-.1-.3-.1-.4-.2l-.6-.3c-.2-.1-.4-.1-.5-.2-.2-.1-.4-.1-.5-.2a.76.76 0 0 0-.4-.2c-.2-.1-.3-.2-.5-.3s-.3-.2-.5-.3v-.2c0-.5 0-1 .1-1.5v-.9c0-.5.1-1 .1-1.5 0-.3.1-.6.1-.9v-.2c0-.3 0-.7.1-1-.2-.4-.2-.7-.2-1.1zm16 0l.2.1c.3.1.7.3 1 .4.1.1.2.1.3.2s.3.1.4.2l.8.3.3.1v.2l-.1.7-.2 2.1c0 .4-.1.9-.1 1.3s-.1.9-.1 1.3v.9.5c0 .5 0 .9-.1 1.4 0 .2 0 .4-.1.6 0 .2-.1.5-.1.7v.8.6c0 .3-.1.6-.1.9l-.1.5c0 .3-.1.7-.1 1l-.1-.1c-.2-.2-.4-.3-.7-.4l-.3-.3-.6-.3c-.4-.2-.8-.5-1.3-.7-.2-.1-.3-.1-.5-.2s-.3-.1-.5-.2c-.3-.1-.6-.3-.9-.4h0c-.5-.3-1-.5-1.6-.7l-.9-.3c-.3-.1-.6-.1-.9-.2s-.5-.1-.8-.2c.1-.5.1-1 .2-1.5l.3-2.2v-.2c0-.4.1-.8.1-1.2 0-.3.1-.6.1-.9 0-.4.1-.7.2-1.1 0-.3.1-.6.1-.9.1-.5.1-1 .2-1.5l.1-.8.2-2.1v-.6h.1 0l1.1.4c.2.1.5.2.7.3.4.2.7.3 1.1.4l.6.2c.8.4 1.4.6 2.1.9zm1.6 20.7c0 1-.1 1.9-.2 2.9v.7l-.1 2.1v.7.7 1.4 2.8.6c0 .7.1 1.4 0 2.2l-.1 1.6c0 .4-.1.8 0 1.1v.5l-2.3-.7-7.8-2.6v-.3-.2-.4-1l.2-1.6c.1-.5.1-.9.1-1.4v-.7-.7l.3-2.9c.1-.5.1-1.1.1-1.6v-1.1-.4c0-.3.1-.5.1-.8.1-.5.2-1 .2-1.6s0-1.2.1-1.8v-.5-1.4-1-.3c0-.6 0-1.1.1-1.6.1 0 .1 0 .2.1.4.1.7.2 1.1.2.2 0 .3.1.5.1.2.1.5.2.7.3.3.1.6.3.9.4l.1.1h0 0 0l.1.1h0l1.2.6c.1.1.3.1.4.2l.2.1c.2.1.3.1.5.2s.4.3.7.4l.7.4.8.5c.2.1.4.2.6.4.2.1.3.2.5.3v.3c0 .5 0 1-.1 1.6.2.1.2.6.2 1zM254 276.9l-4.6-1.5v-.1l.3-.9.1-.4c.3-.7.5-1.5.8-2.2h0l.6-1.4c.3-.6.5-1.2.7-1.8l.5-1.1.5-1.1h0l.1-.3c.1-.3.3-.6.4-.9l.2-.4c.1-.2.2-.5.2-.7l.5-1.3c.1-.3.2-.6.4-.8l.2-.4.3-.6v.6c0 .5 0 1.1-.1 1.6h0c-.1.4-.1.9-.2 1.3v.2c-.1.4-.1.9-.1 1.4v.6.8c0 .4-.1.8-.1 1.2v.2l-.3 2.8v.5c0 .3 0 .6-.1.9 0 .5-.1 1-.2 1.5 0 .4-.1.8-.1 1.3v1zm7.4-19.8h0 0 0zm-26.2 36.2h0l-.7-.2h.1-.1z"/><path d="M385.7 264.5v.6.5.3.4l.8-.1v.3c.1.4.3.7.6.9a.9.9 0 0 0 .5.1h.3l.3-.1.8-.3c.3-.1.7-.2 1-.2h.2l2.3-.5 1.6-.4.7-.2c.8-.2 1.5-.3 2.3-.4.9-.1 1.9-.4 2.7-.6l1.2-.3h.2c.4-.1.8-.2 1.2-.2s.8-.1 1.2-.1c.2 0 .4-.1.7-.1l.5-.1 1.5-.3c.3-.1.6-.1 1-.2l1.4-.3c.3-.1.6-.1.9-.2l.3-.1 2.1-.4c.8-.1 1.5-.3 2.3-.3l2.4-.4 3.9-1 2.3-.6c.1 0 .3-.1.4-.1.3 0 .5-.1.7-.3.3-.2.5-.6.6-.9 0-.2.1-.3.1-.5v-.4-.4-.5c0-.5 0-1 .1-1.4v-.4-.8c0-.4.1-.8.1-1.2s0-.7-.2-1v-.2c0-.5-.1-1.1-.5-1.5-.3-.3-.6-.4-.9-.4-.6 0-1.1.1-1.7.2-.5.1-1 .1-1.6.3l-2.4.5-.9.2-3.4.6c-.4.1-.7.1-1.1.2l-2.3.3a23.76 23.76 0 0 0-3.7.6l-3.1.5c-1 .1-2 .3-2.9.5l-.4.1-3 .7-.4.1c-.8.2-1.6.3-2.3.4-.2 0-.4.1-.5.1-.2 0-.3.1-.5.1l-.4.1c-.2 0-.5.1-.7.1-.4.1-.8.2-1.2.2-.3.1-.7.2-1 .2-.1 0-.2 0-.4.1-.2 0-.5.1-.7.1-.4.1-.8.2-1.2.4-.2.1-.4.2-.5.3a1.74 1.74 0 0 0-1.1 1.5l-.1 1.2c0 .7-.1 1.4-.1 2v.1c0 .4 0 .8-.1 1.2v1.5l.1-.1zm3-1.2c0-.6 0-1.3.1-1.9v-.3c0-.5.1-1 .1-1.6.3-.1.5-.1.8-.2.4-.1 1-.2 1.6-.3.7-.2 1.5-.3 2.2-.4.3 0 .6-.1.9-.1h.3c.5-.1.9-.1 1.4-.2l1.3-.3.7-.2 1.4-.3c.4-.1.8-.2 1.2-.2l.6-.1 1.9-.3c.5-.1.9-.1 1.4-.2l3.5-.6.4-.1c.4-.1.8-.2 1.3-.2.5-.1 1.1-.1 1.6-.2l2.2-.3c.4-.1.9-.1 1.3-.2l2.3-.4c.4-.1.7-.2 1.1-.2l1.3-.3c.3-.1.6-.1.9-.2l1.2-.3c.2 0 .4-.1.7-.1v.4.9.4c0 .5 0 1-.1 1.5v.1l-.1.1c-.1.2-.2.4-.2.7l-.4.1-2.2.6-4.6 1-.5.1-1.9.3-1.4.3c-.3.1-.6.1-.9.2-.4.1-.8.2-1.2.2-.4.1-.8.2-1.2.2l-.9.2-1.5.3-1.8.3c-.4 0-.8.1-1.2.1-.4.1-.8.1-1.2.2l-.2.1-2.1.5-1.5.3c-.2 0-.5.1-.7.1-.9.1-1.7.4-2.4.5-1 .3-2 .5-3 .7-.2.1-.5.1-.7.1-.3.1-.6.1-.9.2-.1 0-.2.1-.3.1v-1l-.6-.1zm-23.8 7v.5l.4-.1c.2.1.4.2.6.2.8 0 1.6-.1 2.4-.3.6-.1 1.2-.3 1.8-.4l.4-.1 2.2-.6 1-.3.2-.1c.2-.1.3-.1.5-.2s.3-.1.5-.2.4-.2.7-.3c.1 0 .2-.1.2-.2h.2v-.3c.1-.1.1-.2.1-.3.1-.3.1-.7-.1-1 0-.4 0-.8-.1-1.2v-.7c0-.3 0-.6.1-1 0-.2.1-.4.1-.6s.1-.3.1-.5c.1-.5.1-1 0-1.5 0-.4-.1-.8-.2-1.1v-.2c0-.4-.2-.8-.4-1.1-.3-.5-.8-.7-1.4-.8-.3 0-.5 0-.8.1-.6.2-1.3.3-1.9.5a8.3 8.3 0 0 0-2.1.6l-1.9.7c-.1 0-.1-.1-.2-.1a1.06 1.06 0 0 0-1.2.1 1.59 1.59 0 0 0-.8 1l-.3 1.8v1.2.3 2.4 1.3.4.1c-.2.2-.3.5-.3.8 0 .7 0 1 .2 1.2zm8-3.5h0l-2 .6-.3.1c-.6.1-1.1.3-1.7.4-.3.1-.6.2-1 .2v-.2-4.3c.1 0 .3-.1.4-.1.4-.2.7-.3 1.2-.5.3-.1.7-.2 1.1-.4.3-.1.7-.2 1-.2l.6-.1c.3-.1.6-.1.9-.2 0 .3 0 .5-.1.8-.1.4-.1.8-.2 1.3l.1 2.6zm58.6-10.5c-.1.5 0 .9.3 1.3.2.3.5.5.9.5.2 0 .3 0 .5-.1.7-.2 1.3-.4 2-.5l6-1.6 1-.3c.6-.4 1-1.1 1-1.8v-.8-.1-.1-.1c.1-.4.2-.8.2-1.3h0v-1-.1-.3c.1-.3.1-.6.1-.9s-.2-.7-.4-1c-.3-.4-.7-.6-1.1-.7h-.5-.6c-.3 0-.6.1-.9.2-.1 0-.3.1-.4.1l-1.4.3c-.6.1-1.2.3-1.8.4l-.8.2c-1 .2-2.1.5-3.1.9-.7.5-1 1.4-.7 2.2l-.3 3.7-.1.7.3-.1c-.2.2-.2.3-.2.3zm8.5-3h0c0 .1-.1.2-.1.3v.1l-3.9 1c-.6.1-1.1.3-1.7.4 0-.3.1-.5.1-.8.1-.6.1-1.3.1-1.9l2-.5c.3-.1.7-.2 1-.2.6-.2 1.3-.3 1.9-.4.2 0 .4-.1.6-.1h.2v.3c-.1.5-.2 1.1-.2 1.6v.2zm-99.8 55c.1.1.3.1.4.1.2 0 .3 0 .5-.1s.3-.3.4-.5a1.3 1.3 0 0 0 .8-1.2c0-.4 0-.9.1-1.3v-1.4-.1l4.8 1.7c.1.1.3.1.5 0l.3-.3v-.4c0-.2-.2-.3-.3-.4l-5.2-1.8v-1.3-1c0-.6.1-1.2.1-1.8v-1-1.8-.6-.8-1-.4-2l9.7 3.4h.1c.1.1.3.1.5 0l.3-.3v-.4c0-.2-.2-.3-.3-.4l-10.2-3.5.1-2.5v-1-.3-1.5c0-.6.1-1.2.1-1.8 0-.4 0-.8.1-1.1 0-.4 0-.9.1-1.3 0-.5 0-1 .1-1.6 0-.3 0-.6.1-.9v-.5c0-.5.1-1 .1-1.5 0-1 .1-1.9.2-2.8.1-.5.1-1 .2-1.4 0-.4 0-.9.1-1.3v-.2c.1-.2.2-.5.3-.8.1-.6 0-1.2-.3-1.8a1.96 1.96 0 0 0-.9-.9h0c-.2-.1-.3-.1-.5-.2l-.6-.3-1.1-.4c-.2-.1-.5-.2-.7-.3l-.8-.3-.4-.2h0c-.2-.1-.5-.2-.7-.3l-.6-.2-1.9-.9-2.7-1.2-.4-.1-1.8-.7c-.4-.1-.8-.3-1.2-.3-.4-.1-.8-.2-1.2-.4-.5-.2-1.1-.5-1.6-.6-.2-.1-.5-.1-.7-.2-.3-.1-.6-.1-.9-.2h0c-.7-.3-1.4-.5-2.1-.7l-.9-.3c-.5-.2-1.1-.3-1.7-.5l-1.1-.3-.3-.1c-.3-.1-.6-.2-1-.2-.2 0-.4 0-.6.1-.4.2-.7.5-1 .8l-.6-.3-.1 1.3c-.1.6-.1 1.2-.1 1.8l-.2 2.4-.1.4c-.1.5-.1.9-.2 1.4 0 .6-.1 1.2-.1 1.7-.1.7-.2 1.5-.2 2.2l-.1 1c0 .4-.1.9-.1 1.3 0 .5-.1 1.1-.1 1.6l-.1.8c-.1.7-.1 1.5-.2 2.2v.2l-.3 3-5-1.7h-.2-.2l-.1.1-.3.3v.4c0 .2.2.3.3.4l5.3 1.8c0 .4-.1.9-.1 1.3v.8.6c0 .5 0 1-.1 1.4v1.8 1.1c0 .8-.1 1.8-.2 2.8v.4c0 .3-.1.7-.1 1v1.2.2 1.4.5.8.9.4.6c0 .3 0 .7.1 1 0 .2.1.4.3.6.1.1.2.2.3.2.1.1.2.1.4.2.1 0 .1 0 .2.1l.1-.4v.4c.3.1.5.1.8.2l.4.1h.3l23.6 7.8.4.1zm-21.9-42.6h0v-.2c.1-.4.1-.7.2-1.1 0-.2 0-.4.1-.7l.1-1.2.3.1c.5.1 1 .2 1.5.4l.8.3c.2.1.4.1.6.2l.5.2c.4.1.9.3 1.3.5.2.1.3.1.5.2.3.1.5.1.8.2l1 .3 1.5.6.3.1v.3c0 .8-.1 1.7-.2 2.8 0 .4-.1.8-.2 1.3s-.1 1-.2 1.4v.2c0 .4-.1.8-.1 1.2 0 .2-.1.5-.1.7s-.1.5-.1.7l-.2 1.7v.1c-.1 0-.1 0-.2-.1l-1.1-.4c-.1-.1-.3-.1-.4-.2-.2-.1-.4-.2-.6-.2l-.6-.2c-.4-.1-.8-.3-1.2-.4-.3-.1-.6-.3-.9-.4s-.6-.3-.8-.4l-.3-.1c-.2-.1-.3-.1-.5-.2l-.2-.1-.6-.3c-.1-.1-.3-.1-.4-.1s-.2 0-.2-.1c-.2-.1-.3-.1-.5-.2l-.3-.1c-.1 0-.1 0-.2-.1h0c0-.5.1-1.1.1-1.6 0-.3.1-.6.1-.9.1-.6.1-1.1.1-1.7V267c.2-.6.2-1 .3-1.3h0zm21.7 23.8c0 .1.1.3.3.4v.2c-.1.9-.1 1.8 0 2.8v2.2.7 1.1.7.9c0 .5 0 1-.1 1.6v1.2 2.6 1.2.2l-12.9-4.3v-.1c0-.6 0-1.2.1-1.7 0-.3 0-.5.1-.8l.1-1.4c0-.3 0-.5.1-.8 0-.2 0-.4.1-.6l.3-3.2.2-2.4c0-.3.1-.7.1-1v-.4c.1-.5.1-.9.1-1.4 0-.4.1-.8.1-1.2 0-.5.1-1 .1-1.5s.1-.9.1-1.4.1-.9.1-1.4c0-.4.1-.8.1-1.2v-.2c0-.4.1-.8.1-1.2v-.1c.2.1.4.2.6.2l.4.1c.2.1.4.1.5.2l.3.1.8.3.2.1c.2.1.5.1.7.2s.4.2.6.2c.1.1.3.1.4.2.6.3 1.2.5 1.8.7l.3.1c.2 0 .4.1.5.2h.1l.9.3h.2c.6.1 1.2.3 1.7.5s1 .3 1.6.4v.3c0 .4-.1.8-.1 1.2v2 1 1.5l-.1.1-.3.3c-.2.1-.2.2-.2.3zm-1.1-9.7l-1.1-.3-1-.3c-.2-.1-.4-.1-.7-.2-.1 0-.2-.1-.4-.1l-1-.3-.3-.1c-.2-.1-.5-.2-.7-.3-.3-.2-.7-.3-1-.4l-.4-.1c-.2-.1-.4-.1-.6-.2l-.3-.1c-.2-.1-.4-.2-.7-.2l-1-.3-.4-.2c-.1 0-.2-.1-.3-.1l.1-.7c.1-.7.1-1.5.2-2.2.1-.6.1-1.2.2-1.8 0-.4.1-.7.1-1.1 0-.2.1-.5.1-.7s.1-.4.1-.6c.1-.5.1-.9.1-1.4 0-.4.1-.8.1-1.1v-.2-.5l.3.1.9.3.4.2 1.2.6c.3.2.6.3.9.4.2.1.4.2.5.2l.1.1c.5.2 1 .5 1.5.7.2.1.4.2.6.2.2.1.5.2.7.3h0 0c.2.1.5.2.7.3l.5.2c.6.3 1.2.5 1.9.8l.3.1.6.3v.5c0 .3-.1.5-.1.7s-.1.5-.1.7c-.1.5-.1 1-.1 1.5v1.2.3c0 .6-.1 1.2-.1 1.8 0 .3-.1.7-.1 1 0 .6-.1 1.1-.1 1.7-.2 0-.4-.1-.7-.2-.2-.1-.3-.1-.5-.2 0-.2-.2-.3-.4-.3zm-20.4-4.6c.2.1.3.1.5.2l.3.1c.2.1.5.2.7.3.3.1.6.2 1 .4l2.2.9 1.4.5.8.3 1.4.5-.1 1.2h0c0 .5-.1 1-.1 1.5s-.1.9-.1 1.4l-.1.9c-.1.6-.1 1.3-.2 1.9l-.2 2.7c0 .3-.1.5-.1.8l-.1.5c-.1.5-.1 1-.1 1.5s-.1.9-.1 1.4c0 .3 0 .6-.1.9v.6c0 .2 0 .4-.1.6 0 .3-.1.5-.1.8 0 .5-.1.9-.1 1.4-.1.6-.1 1.2-.1 1.8l-.1 1c0 .3 0 .5-.1.8v.2.4l-9-3v-.1c0-.5 0-1 .1-1.5 0-.5.1-.9.1-1.4l.1-2.8.2-2.8c.1-.5.1-1 .2-1.5 0-.2 0-.4.1-.5 0-.3.1-.6.1-.9 0-.5.1-.9.1-1.4l.2-2.6c.1-.5.1-.9.2-1.4 0-.3 0-.6.1-.9v-.6c0-.4.1-.7.1-1.1.1-.6.1-1.1.1-1.7v-.1-1.3-.1c.2.1.4.1.6.2h.1.2zm103.4 48.1v.7h.1zm-62 14.3h0 .1-.1.1l-.2-.7h-.1l.2.8zm56.8-29.3h-.1l.3.8zm-26.8 8l-.2-.8-.1.1.2.7zm26.1 14.6h.8v.2h-.8zm-142.6-17.3h0 0l.7.1v-.1l-.7-.1zm67.7 16.2l.2-.7-.1-.1-.2.4h0 0l-.1.4h.1 0zm4.5 1.6h0l.2-.7h-.2l-.2.7h.2zM325 345h2.9l-2.8-.7-.1.3v-.1-.2h-1.5l.1-.4-.2-.1-.1.4h-1.9l3.5.8h0 0 0 .1zm0-.5h0 0v-.1.1zm0 .1h0 0zm-3.7 22.4l-.2.7h0l.2-.7-.1.2.1-.2v.1-.1zm53.8 8.1l.1.2-.1-.2h0 0l.3.7h0l-.2-.8zm-42.7-1.5c-.3-.5-.8-.7-1.3-.8-.2-.1-.4-.1-.6-.1s-.4-.1-.5-.1h-.2c-.5-.1-1-.3-1.5-.4l-1.8-.6a23.02 23.02 0 0 0-1.9-.7l-.5-.2c-.4-.2-.9-.3-1.3-.5-.6-.2-1.2-.4-1.8-.5-.1 0-.1 0-.2-.1-.1 0-.2-.1-.3-.1-.4-.1-.7-.1-1.1-.1-.1 0-.2.1-.3.1-.4-.1-.9.1-1.1.5-.1 0-.1.1-.1.1-.1.1-.2.2-.2.4v.3c-.1.4-.2.8-.2 1.2 0 .3-.1.6-.1.9v.3c-.2.6-.1 1.3.2 2 .3.4.7.6 1.1.7h.2.2l.6.2c.3.1.6.2.8.2l1.4.3.5.1c.3.1.5.2.8.2l1.2.3 1.1.3c.4.1.8.1 1.2.2.4 0 .7.1 1.1.1.2 0 .4.1.7.1l1.4.3c.2.1.5.1.7.1s.4 0 .6-.1c.7-.3 1.1-.9 1.2-1.6v-.1c0-.2.1-.4.2-.6l.1-.2c.1-.2.1-.3.1-.5.1-.2.1-.4.1-.7v-.4c-.3 0-.4-.3-.5-.5zm-2.2 1.7c0 .1-.1.2-.1.3s0 .1-.1.2l-.4-.1c-.2 0-.4-.1-.6-.1s-.4-.1-.6-.1c-.4-.1-.8-.2-1.2-.2l-1.9-.3c-.6-.1-1.1-.3-1.7-.4l-.2-.1c-.4-.1-.9-.3-1.3-.4l-.3-.1c-.3-.1-.6-.1-.9-.2l-.4-.1c-.2-.1-.4-.1-.6-.2h-.2c-.1 0-.2 0-.2-.1l.1-.6c0-.2.1-.5.1-.7v-.1h.2l.2.1c.2.1.5.1.7.2l.3.1c.2 0 .3.1.4.1l.6.3c.2.1.5.2.7.3l.3.1c.5.2 1 .3 1.5.5.2.1.5.2.7.3.3.1.6.2.9.4.6.2 1.1.4 1.8.5l.5.1 1 .3c.2-.1.4 0 .7 0z"/><path d="M352.6 379.9c-.2-.1-.3-.2-.5-.2l-.2-.1-.6-.3c-.4-.1-.8-.3-1.2-.4l-2.3-.8c-.7-.2-1.5-.5-2.2-.9-.2-.1-.4-.2-.5-.3l-1.3-.6h-.1l-.9-.3h-.1c-.1 0-.2-.1-.2-.1h-.1c-.2-.1-.4-.1-.5-.1l-.7-.2-1.3-.3c-.2-.1-.4-.1-.6-.2l-.4-.1c-.2-.1-.4-.1-.6-.2-.7-.2-1.4-.3-2.1-.4h-.1c-.2 0-.3 0-.4.1-.3-.1-.6-.1-.9 0s-.5.4-.6.6v.1l-.3 1.4c0 .2-.1.4-.1.6-.1.3-.1.6-.2.8 0 .2 0 .3-.1.4-.1.7.3 1.4.9 1.8.2.1.5.2.7.3s.4.1.5.2c.4.1.7.3 1.1.4l2.2.7c.2.1.3.2.5.2.2.1.3.2.5.2.3.2.7.3 1.1.5l1.3.5c1 .3 1.9.7 2.9 1.1.6.3 1.3.4 1.9.6l.4.1c.1 0 .2.1.3.1h.1l.1-.4h0v.4l.7.2c.3.1.5.2.9.2.3.1.5.1.8.2h.4.4.2.2.8c.1 0 .2-.1.4-.2s.4-.3.5-.5c.2-.2.3-.5.3-.8v-.4-.2c0-.1.1-.2.1-.3v-.1c.1-.3.2-.5.2-.8.1-.4.1-.8 0-1.1a2.91 2.91 0 0 0-1.3-1.4zm-4.4 2.7c-.1 0-.1 0-.2-.1-.2-.1-.4-.1-.6-.2-.8-.2-1.5-.5-2.2-.8l-1.4-.5-.9-.3-.4-.2a12.2 12.2 0 0 1-1.7-.7c-.2-.1-.3-.2-.5-.3-.3-.1-.5-.3-.8-.4-.4-.2-.9-.3-1.4-.5-.5-.1-.9-.3-1.4-.4l-.1-.1c-.2-.1-.4-.1-.6-.2l-.3-.1v-.1c0-.2.1-.3.1-.5s.1-.4.1-.5h.1c.4.1.9.1 1.3.2.2.1.4.1.6.2l.3.1c.4.1.8.2 1.2.4l1.4.3.8.2h.2c.1 0 .1 0 .2.1h.2c.2.1.4.1.6.2.3.1.7.3 1 .4.2.1.4.2.5.3.2.1.3.2.5.3.4.2.7.3 1.2.5s1 .4 1.5.5l.8.3.4.2c.4.1.8.3 1.3.5l.9.3c.3.1.5.2.7.3h0c0 .2-.1.4-.2.6 0 .1-.1.3-.1.4h-.4c-.2 0-.5-.1-.7-.1l-.8-.2-.9-.3c-.1 0-.1 0-.2-.1h0l-.1.3zm0 .4h0 0 0 0 0zm49.4-7.5c0-.3-.1-.6-.1-.9v-.6c0-.2-.1-.4-.1-.6l-.1-.6c-.1-.4-.2-.7-.4-1.1-.2-.3-.4-.5-.6-.6s-.4-.2-.6-.2h-.2c-.2 0-.4.1-.6.2-.5.1-.9.3-1.4.4-.3.1-.6.1-.8.2l-1.1.3-1.1.3-1.9.6-.6.2-1 .3c-.2 0-.3.1-.5.1-.2.1-.5.1-.7.2-.7.2-1.3.5-1.9.7-.2.1-.4.1-.6.2l-.9.3c-.3.1-.6.2-.9.4-.2.1-.5.2-.7.3s-.5.2-.8.2c-.4.1-.7.1-1.1.2-.6.2-1 .8-.9 1.5 0 .2.1.3.2.5 0 .1 0 .3.1.4.1.3.1.5.2.8s.1.7.1 1v.6c0 .1.1.3.1.4.1.3.3.6.7.8a.9.9 0 0 0 .5.1c.2 0 .5-.1.6-.2.1 0 .2-.1.3-.1.7-.2 1.4-.4 2.2-.5l.8-.2 1.5-.3c.4-.1.8-.2 1.1-.2.3-.1.5-.1.8-.2l.4-.1c.2-.1.5-.1.7-.2.5-.1 1.1-.2 1.6-.4l1.3-.3c.5-.1.9-.3 1.3-.4.5-.2 1-.3 1.4-.4.2-.1.5-.1.7-.1s.4-.1.6-.1c.5-.1 1-.2 1.4-.4.3-.1.5-.3.7-.5.3-.4.5-.9.4-1.4 0-.3 0-.5-.1-.6zm-2.3-.1l-1.5.3h-.3 0c-.7.1-1.3.3-2 .6-.4.1-.8.2-1.2.4l-.9.3c-.6.2-1.2.3-1.8.4l-.6.1c-.2 0-.4.1-.6.2-.2 0-.3.1-.5.1-.4.1-.7.2-1.1.2l-1.4.3-.9.2-1.5.3c-.1 0-.3.1-.4.1v-.3c0-.2-.1-.3-.1-.5.2 0 .4-.1.6-.2.4-.1.8-.3 1.2-.5l.8-.3.4-.1.9-.3.8-.3c.1-.1.3-.1.4-.2.4-.1.8-.3 1.2-.4.3-.1.6-.2.9-.2l1.1-.3c.4-.1.8-.2 1.2-.4l2.1-.5.7-.2c.2-.1.5-.1.7-.2l.4-.1c.2-.1.5-.1.7-.2.2 0 .3-.1.5-.1.1.4.1.7.2 1.1v.7zm48.7-80.8l.8-.1v-.2l-.8.1zm0-.8l.3-.1h0 0 0l.4-.1h-.1.1 0 0 0-.8zm-173.2 47.1l-17.2-5.5v-.1-.8l.2-4.1c0-.3-.2-.6-.5-.7h-.1-.1c-.3 0-.5.3-.5.6l-.1 2.9v.8.3.8l-3.6-1.1h-.2-.2l-.1.1-.3.3v.4c0 .2.2.3.4.4l21.9 6.9h.2c.1 0 .2 0 .3-.1l.3-.3v-.4l-.4-.4zm-28.6-9h0l-16.9-5.4h-.2-.2l-.1.1-.3.3v.4c0 .2.2.3.4.4l16.9 5.3h.2c.1 0 .2 0 .3-.1l.3-.3v-.4c-.1-.1-.2-.3-.4-.3zm69.4 14.9l-11.7-3.7h-.2-.2-.1l-.3.3v.4c.1.1.2.3.3.4l11.4 3.6.3.1h.2c.1 0 .2 0 .3-.1l.3-.3v-.4l-.3-.3zm-18.4-51.1l-38.1-13.2h-.2-.2-.1l-.3.3v.4c0 .2.1.3.3.4l37.9 13.2h.1c.1 0 .2.1.2.1.1 0 .2 0 .3-.1l.3-.3v-.4c.1-.2 0-.3-.2-.4z"/><path d="M309.2 285.9c.2 0 .3-.1.4-.2s.2-.2.2-.4c0-.1 0-.3-.1-.4-.1-.2-.2-.3-.4-.3s-.3 0-.4.2h0c-.1.1-.2.2-.2.4 0 .1 0 .3.1.4 0 .2.2.3.4.3zm-.1-.6h0zm.3 0zm-.3-.1h0 0zm-75.3-10.7c.1 0 .2 0 .3-.1s.2-.2.3-.4v-.4c-.1-.1-.2-.3-.3-.3l-10.5-2.4h-.2-.2-.1c-.1.1-.2.2-.3.4v.4a1.38 1.38 0 0 0 .4.3l10.5 2.4c0 .1.1.1.1.1zm41.3-22.7l4.5 1.6-.1 2.2c0 .4-.1.8-.1 1.2 0 .5-.1 1-.1 1.6v.6l-.2 2.3c0 .2 0 .5-.1.7v.3c-.1.4-.1.8-.2 1.1-.1.5-.1 1-.2 1.5l-.1 1.3v.2c0 .1 0 .3-.1.4-.2 1-.3 2-.4 3l-.1 1.2c0 .6-.1 1.2-.2 1.8v.4c0 .1 0 .3-.1.4l-4.9-1.7h-.2-.2-.1l-.3.3v.4c0 .1.1.3.3.4l5 1.7c0 .3-.1.5-.1.8 0 .4-.1.9-.2 1.4l-.3 1.3-.1.6c0 .2-.1.5-.1.7l-3.3-1.1h-.2-.2-.1c-.1.1-.3.2-.3.3v.4c0 .2.1.3.3.4l3.5 1.2v.4.4c0 .4-.1.8-.1 1.2v.5c-.1.7-.1 1.5-.2 2.2-.1.3-.1.6 0 .9a1.38 1.38 0 0 0 .3.4l-.1.3 25.3 8.4v-.5c0-.2 0-.3.1-.5v-.1c0-.3.1-.7.1-1.1v-.1-.1c0-.2 0-.5.1-.8v-.1l-.1-.1v-.2-2.2l8 2.8c.1.1.3.1.5 0l.3-.3v-.4c0-.2-.1-.3-.3-.4l-8.5-2.9.2-2.5c.1-.4.1-.9.2-1.3l.1-1 1.9.6c.1.1.3.1.5 0 .1-.1.2-.2.2-.3v.3c0 .2.1.3.3.4l1.8.6h.2c.1 0 .2 0 .3-.1l.3-.3v-.4c0-.1-.1-.3-.3-.4h-.1c-.5-.2-1-.3-1.5-.5l-.3-.1h-.2-.2l-.1.1-.2.2v-.3c0-.1-.1-.3-.3-.4l-2.2-.8.1-.6c0-.3 0-.5.1-.8 0-.3.1-.7.1-1 .1-.5.1-1 .2-1.6 0-.2 0-.5.1-.7v-.6c0-.4.1-.8.1-1.1 0-.2.1-.4.1-.7.1-.5.2-1 .2-1.5h0c.1-.1.2-.2.2-.3.1-.3.2-.6.1-1a.76.76 0 0 0-.2-.4l.1-.6c.1-.7.2-1.4.2-2.2v-.1c.1.1.1.3.3.3l6 2.1h.2c.1 0 .2 0 .3-.1l.3-.3v-.4c0-.2-.1-.3-.3-.4h-.1a9.83 9.83 0 0 0-1.6-.5c0-.1.1-.2.1-.3v-1.2-1.4c0-.1 0-.3-.1-.4s-.2-.2-.5-.2c-.2 0-.3.1-.4.2a.76.76 0 0 0-.2.4v1.3 1.1l-3.4-1.2h-.2-.2l-.1.1c-.1 0-.1.1-.2.2 0-.4.1-.8.1-1.2l.1-.6.3-1.6c0-.3.1-.6.1-.8v-.3c0-.3.1-.6.1-.9s.1-.5.1-.8c.1-.3.1-.6.2-1 .1-.3.1-.7.1-1.1 0-.2 0-.5.1-.7l.3-1.3c.1-.3.1-.6.2-1v-.6-.2c0-.6.1-1.2.1-2v-.3l-.2-.1c-.1 0-.2-.1-.3-.1.1-.8-.2-1.6-.7-2.2h.6l-1.2-.5c-.1-.1-.2-.1-.3-.1l-.4-.2h0c-.2-.1-.4-.2-.7-.3-.2-.1-.3-.1-.5-.2s-.3-.1-.5-.2c-.6-.3-1.3-.5-1.9-.8l-.2-.1c-.3-.1-.7-.3-1.1-.4-.2-.1-.4-.1-.6-.2s-.4-.1-.6-.2l-.2-.1c-.4-.2-.8-.3-1.1-.5-.2-.1-.4-.1-.6-.2s-.5-.2-.7-.2h-.1 0l-.9-.3-.9-.3c-.4-.2-.8-.3-1.2-.5-.3-.1-.5-.2-.8-.2-.2-.1-.5-.1-.7-.2-.5-.2-1.1-.3-1.6-.5l-1-.3c-.4-.1-.8-.3-1.3-.4l-.9-.3c-.2-.1-.5-.1-.7-.2l-.3-.1-1-.3-.3-.1c-.1 0-.3-.1-.5-.1-1.1.1-1.9 1-2 2v.3l-.1.9c0 .3-.1.6-.1.9-.1.5-.2 1-.2 1.5h0l-.3 1.6c0 .2-.1.5-.1.8l-.7-.2c0-.1.1-.2.1-.3 0-.4.1-.9.1-1.3 0-.2.1-.3.1-.5v-.1c0-.2.1-.4.1-.7 0-.4.1-.8.1-1.2v-.1c0-.4.1-.7.1-1.1v-.4c0-.3-.2-.6-.5-.7h-.1c-.3 0-.5.3-.5.6l-.1.5c0 .3-.1.6-.1.9v.5c0 .3-.1.6-.1.9 0 .4-.1.9-.2 1.3l-.1.6c0 .3-.1.5-.1.8l-2.4-.8h-.2-.2l-.1.1-.3.3v.4c.9.5 1 .7 1.2.8zm7.7 4.2v-.9-.8h.1l.3-.3v-.4c0-.1-.1-.3-.3-.4 0-.2 0-.5.1-.7v-.1c.1-.5.1-1.1.1-1.6l.1-.4h0c.1-.3.1-.7.2-1l.9.2 1.1.3.9.3.7.2c.6.2 1.2.3 1.8.5l.8.3c.5.2 1 .3 1.5.5.2.1.5.2.8.3l-.3 1.5c-.1.5-.2.9-.2 1.4-.1.5-.1 1-.2 1.5l-.6 3.7-.4 2.1c-.1.5-.1 1-.2 1.4s-.1.9-.2 1.3c-.1.3-.1.6-.2 1a.76.76 0 0 0-.4-.2c-.3-.2-.6-.4-.9-.5l-.3-.2-1.6-.9c-.4-.2-.8-.4-1.2-.5-.2-.1-.5-.2-.6-.3l-1.8-1.3c-.1-.1-.2-.1-.3-.2v-.9c0-1 .1-1.9.2-2.9.1-.7.1-1.3.1-2zm11.2-3.2c.1 0 .1 0 .2.1l1 .3c.4.2.8.4 1.3.5l.3.1.9.3 2 .8c.3.1.6.3.9.4.2.1.4.2.7.2.2.1.3.1.5.2l.2.1h0c.1 0 .2.1.2.1l.2.1h0 0 0 .1c.3.2.7.3 1.1.3v.4.7c0 .3-.1.6-.2.8-.1.3-.1.6-.2.9-.1.4-.1.9-.2 1.3 0 .2 0 .4-.1.6l-.2.8c-.1.4-.1.8-.2 1.2s-.1.8-.1 1.1v.1c0 .3 0 .6-.1.9 0 .3-.1.6-.1.9-.1.4-.1.8-.2 1.3-.1.7-.2 1.5-.2 2.2 0 .4-.1.8-.1 1.2-.1 0-.2-.1-.3-.1-.4-.1-.7-.3-1.1-.4s-.7-.3-1.1-.4l-2-.6-.4-.1c-.2-.1-.4-.1-.6-.2l-1-.3-1.4-.6-.4-.2c-.3-.1-.6-.3-.9-.4-.2-.1-.5-.2-.7-.3l.1-.3c.2-.8.3-1.6.4-2.4l.1-.5c.1-.9.3-1.9.5-2.9l.9-5.7c-.2-.8 0-1.7.2-2.5zm6.7 25.1c0 .3-.1.7-.1 1v.2c-.1.5-.1 1-.2 1.5 0 .3-.1.6-.1.9v.5.5c0 .3-.1.5-.1.8v.4c0 .3 0 .6-.1.9v.4c-.1.6-.2 1.2-.2 1.8 0 .5-.1 1-.1 1.4v.2c0 .5 0 .9-.1 1.3v.3 1.7.3l-10.9-3.6c.1-.6.1-1.2.2-1.8l.3-1.9.1-.4.3-1.7.3-2.4.2-2.1.3-2.1c0-.3.1-.5.1-.8v-.3-.3-.1h0v-.1c0-.1 0-.3.1-.5 0-.2 0-.4.1-.6l.1-1c.1-1 .3-1.9.5-2.7v-.1c.2.1.4.2.6.2.3.1.7.3 1 .4l.4.2c.2.1.5.2.7.3.7.3 1.4.6 2.1.7.2.1.5.1.7.2l1.2.3 1.8.7.5.2.8.3.2.1h.1l-.3 1.5c-.1.5-.2 1-.2 1.6-.2.8-.3 1.2-.3 1.7zm-16-11.8l.8.3 1.4.8.5.3 1.5.9.2.1-.5 2.5-.3 2.5v.5.2h0v.2h0v.1h0c-.1.5-.1 1-.2 1.5-.1.6-.2 1.2-.2 1.9l-.4 3.8c-.1.5-.1 1-.2 1.5-.1.3-.1.6-.2.9l-.1.7c-.2 1-.3 2-.4 2.9l-7.2-2.4v-.2l.4-2.3c.1-.4.2-.8.2-1.2.1-.3.2-.7.2-1.1l.4-2.3c.1-.4.2-.9.2-1.3l.1-.9.4-2.8c.1-.3.1-.7.2-1 .1-.5.2-.9.2-1.4.1-.6.1-1.3.2-1.9v-.6c0-.5.1-1 .1-1.4 0-.3.1-.6.1-.9v-.3c0-.4.1-.8.1-1.2l.3.3c.3.2.6.5 1 .7l1.2.6zm-52.9-11.9c.1 0 .2 0 .3-.1a1.38 1.38 0 0 0 .3-.4v-.4c-.1-.1-.2-.3-.3-.3l-15.8-3.6h-.2-.2-.1a1.38 1.38 0 0 0-.3.4v.4c.1.1.2.3.4.3l15.8 3.6.1.1zm56.3-10.9l26.7 9.3 26.1 9.1.3.1h.2c.1 0 .2 0 .3-.1l.3-.3v-.4c0-.2-.1-.3-.3-.4h-.1c-.1 0-.2-.1-.3-.1l-11.8-4.1v-.1-1.4c0-.5.1-1 .1-1.4 0-.3-.2-.6-.5-.7h-.1c-.3 0-.5.3-.5.6 0 .5-.1 1-.1 1.5v1.1l-39.9-13.8h-.2-.2-.1l-.3.3v.4a.78.78 0 0 0 .4.4zm116.5 63l-17.6 3.6v-.7a.76.76 0 0 0-.2-.4c-.1-.1-.2-.1-.3-.1h-.1-.1c-.2 0-.3.2-.3.3-.1.1-.1.3-.1.4v.3.5.4c0 .2-.1.4-.1.6-.1.4-.1.9-.1 1.3 0 .3.2.6.6.6a.65.65 0 0 0 .6-.6c0-.4.1-.9.1-1.3v-.1l17.7-3.7c.2 0 .3-.1.4-.2s.1-.3.1-.4c0-.2-.1-.3-.2-.4-.2-.1-.3-.1-.4-.1zm43.1-9h0l-14.2 2.9c-.2 0-.3.1-.4.2a.61.61 0 0 0 0 .8c.1.1.2.2.4.2h.1l14.1-2.9c.2 0 .3-.1.4-.2a.61.61 0 0 0 0-.8c-.1-.1-.2-.2-.4-.2zm-170.8 24.4h.8-.8z"/><path d="M349.2 275.2h0c.3 0 .6-.2.6-.6.1-.5.1-.9.1-1.4 0-.3.1-.6.1-.9l.1-.6c0-.3-.2-.6-.5-.7h-.1c-.3 0-.5.3-.5.6v.5c0 .3-.1.7-.1 1 0 .5-.1.9-.1 1.4-.1.3.1.6.4.7zm-111.9 50.6c.3 0 .6-.3.5-.6l-.2-1.9a.76.76 0 0 0-.2-.4c-.1-.1-.3-.2-.5-.2-.3 0-.5.3-.5.6l.2 1.9a.76.76 0 0 0 .2.4c.2.1.3.2.5.2zm-.7 8.4c0-.3 0-.7-.1-1 0-.2 0-.3-.2-.4-.1-.1-.3-.2-.5-.2-.3 0-.5.3-.5.6v.1c0 .3 0 .6.1.9v.7l.1 2.3c0 .3.2.6.6.6.3 0 .6-.3.5-.6l-.1-2.2c.2-.3.1-.6.1-.8zm2.7 2v-.5-2.2c0-.3-.2-.6-.6-.6-.3 0-.5.3-.5.6v1 1.5.9c0 .3.3.5.6.5h.1c.2 0 .3-.2.4-.3s.1-.3.1-.4c-.1-.2-.1-.3-.1-.5h0zm69 18.2h-.2.2c0-.3-.2-.5-.6-.6-.2 0-.3.1-.4.2a.76.76 0 0 0-.2.4v.6l.4.1h-.4.4-.4v.2.9.8.9c0 .3.2.6.6.7a.65.65 0 0 0 .6-.6l.1-1.7v-1-.4c-.1-.2-.1-.3-.1-.5zm-.7 0h0 0zm81.8-61.3v-.4c0-.1-.2-.3-.3-.4h-.2-.2l-.1.1a1.38 1.38 0 0 0-.3.4c-.1.4-.2.8-.2 1.2 0 .3 0 .5-.1.8v.4c0 .2 0 .3-.1.5v.1c0 .2 0 .4-.1.6v.3c0 .3-.1.7-.1 1s.2.6.5.7c.3 0 .5-.2.6-.6 0-.3.1-.5.1-.8l.1-.6c0-.2.1-.5.1-.7v-.5l3.6-.8c.2 0 .3-.1.4-.2s.1-.3.1-.4c0-.2-.1-.3-.2-.4a.76.76 0 0 0-.4-.2v.4h0l-.1-.4-3.4.7v-.2c.2-.1.2-.4.3-.6zm37.5-11.2c.1-.1.1-.2.1-.3v-.1c0-.5.1-1 .1-1.5v-.2c.1-.6.1-1.2.2-1.8 0-.3-.2-.6-.5-.7h-.1c-.3 0-.5.3-.5.6 0 .5-.1.9-.1 1.4l-3.8.8c0-.2.1-.5.1-.7v-.1c.2-1.2.2-2.5.2-3.7 0-.3 0-.6.1-.8l.1-.7h-.4 0 .4c0-.6.1-1.2.1-1.7l-.1-3.7c0-.5-.3-.9-.7-1.1 0 0 0-.1-.1-.1-.2-.3-.5-.5-.8-.5h-.2c-.4 0-.8 0-1.2.1s-.7.2-1.1.2c-.4.1-.7.2-1.1.2-.4.1-.8.1-1.1.1-.8 0-1.6.1-2.4.3l-2.3.4-2.5.5-.7.2h-.2c-.8 0-1.6.1-2.4.2l-1.2.3c-.2 0-.4.1-.6.1l-1.1.2h-.5c-.3 0-.6.1-.8.1-.5.1-1.1.1-1.6.2-.3 0-.6 0-.8.1l5.2-1.1h.2c.2 0 .3-.1.4-.2s.1-.3.1-.4a.76.76 0 0 0-.2-.4c-.1-.1-.2-.2-.4-.2h-.2l.1.4-.2-.3-14.8 3.1c-.2 0-.3.1-.4.2s-.1.3-.1.4.1.3.1.4c-.1-.1-.2-.1-.3-.1h-.3c-.2 0-.4 0-.6.1h-.5-.1c-.4 0-.9.1-1.3.1l-2.3.1c-.4 0-.7.1-1.1.2s-.8.1-1.2.2l-1.7.2-2.8.4-2.1.2c-.4 0-.8 0-1.2.1-.3.1-.6.1-.9.2h-.2c-.7.1-1.5.2-2.2.2-.4 0-.7 0-1.1.1-.2 0-.4.1-.6.1-.1 0-.3 0-.4.1-.2 0-.5.1-.7.1-.5.1-1.1.1-1.6.2l-.4.1c-.2.1-.4.1-.7.2-.2 0-.4.1-.6.1s-.4.1-.6.1c-.4.1-.7.4-.8.8-.3.2-.5.4-.5.7-.2.5-.3 1-.4 1.6 0 .5-.1 1-.1 1.4v2.1.8l-.1 2.3v.4c0 .4 0 .8-.1 1.2 0 .5-.1 1.1-.1 1.6 0 .7-.1 1.3-.1 2v.7c0 .8-.1 1.7-.2 2.8 0 .5-.1 1-.1 1.5v1.1.6c0 .2 0 .5-.1.7v.5.8c0 .4-.1.9-.1 1.3 0 .3 0 .5-.1.8v.5c0 .5-.1.9-.1 1.4v1.6.3l-.1 2.5c0 .4-.1.7-.1 1.1l-.1.7c0 .3-.1.6-.1.9s0 .6.2.9v.2c0 .3.1.6.4.8.2.2.5.3.9.3h.1.1c.3 0 .5-.1.8-.1h.4.7c.3 0 .7 0 1-.1l2.1-.3 2.2-.4 1.9-.3h.8 1.6c.8 0 1.6-.2 2.3-.3.8-.2 1.5-.3 2.3-.4.3 0 .6 0 .9-.1.5 0 .9-.1 1.4-.1l1.8-.3.6-.1c.2 0 .3 0 .5-.1.2 0 .4-.1.6-.1.3-.1.6-.1.9-.2.2.2.6.3 1 .3.6-.2 1-.8.9-1.4v-.2l.1-2.7c0-.2 0-.5.1-.7v-.5-1.3c0-.6.1-1.2.1-1.9 0-.3 0-.6.1-.9v-.7-.6c0-.4.1-.8.1-1.2v-.1l1.2-10.9.1-.7.6-4.7.2-1.7.1-1c.1-.5.1-.9.2-1.4v-.3c0-.3.1-.7.1-.9l.3-1c.2-.5.1-1-.3-1.4 0-.4-.2-.7-.5-1h.2.1l6.1-1.3c-.1.1-.1.3-.1.4 0 .2 0 .4.1.6-.1.1-.1.3-.1.4-.1.4-.2.9-.2 1.3v.9.4c0 .5 0 1-.1 1.6 0 .4-.1.7-.1 1.1v1c0 .6 0 1.1-.1 1.7v.2c-.1.8-.1 1.7-.3 2.5 0 .3-.1.6-.1.9l-.1.5c-.1.5-.1.9-.2 1.4l-.1.5-5.2 1.1a.76.76 0 0 0-.4.2c-.1.1-.1.3-.1.4a.76.76 0 0 0 .2.4c.1.1.3.2.5.2l4.9-1v.5.4c0 .5-.1 1.1-.1 1.6 0 .4-.1.8-.1 1.2 0 .3 0 .6-.1.9l-.1 1c0 .3 0 .6-.1.9v.8l-.1 2.1-.2 2.6-.1.8c0 .3-.1.7-.1 1v1.4h.2-.4v.1h0 .4 0-.4v.9.9 1.4c0 .5.3.9.8 1.1.1.3.3.5.5.7.2.1.3.2.5.2h.3c.2-.1.4-.1.6-.2h.5l2.5-.1c.3 0 .6-.1.9-.2l.3-.1 1.2-.3c.7-.2 1.5-.3 2.2-.4.8-.1 1.6-.3 2.5-.6l1-.4.9-.3c.4-.1.8-.1 1.2-.1.8-.1 1.6-.3 2.3-.5.3-.1.7-.2 1-.2.2 0 .4 0 .6-.1.2 0 .4 0 .7-.1.3 0 .6-.1.9-.2l.3-.1c.1 0 .3-.1.4-.1.2 0 .4-.1.6-.1.2.1.5.2.8.2l.8-.3s.4-.1.6-.2l.3-.1c.4-.1.8-.2 1.2-.4.1-.1.2-.1.3-.2h.2c.7 0 1.2-.5 1.2-1.2v-1c0-.6 0-1.1.1-1.7 0-.3.1-.7.1-1 .1-.6.1-1.2.1-1.8 0-.5.1-1 .1-1.5 0-.4.1-.8.1-1.3v-.4c0-.3 0-.6.1-.9l.1-.7c0-.3.1-.5.1-.8l.2-2.9c0-.4 0-.8.1-1.2 0-.5 0-1.1.1-1.6 0-.4.1-.7.1-1.1.1-.6.1-1.2.1-1.9v-.5-.1h.1l3.6-.8v.1.4.3.4c0 .2.1.3.2.4s.2.1.3.1h.1c-.1-.1 0-.2.1-.4zm-55.5 11.2c-.1 1-.1 2.1-.1 3 0 .7 0 1.3-.1 2v.8l-.1 4.2v.9.4 1.4.7 1.1h-.6 0l-2.4.4-1.7.3-.5.1-2.2.3h-.3-.3-.3v-.4l.1-.6c0-.6.1-1.1.1-1.7 0-.5 0-.9.1-1.4v-.3-1.2-.6c0-.3 0-.6.1-.9v-.3c0-.5.1-.9.1-1.4 0-.3 0-.6.1-1v-.4c0-.4.1-.9.1-1.3s0-.7.1-1.1c0-.5.1-1.1.1-1.6v-.5h.5c.6 0 1.2 0 1.8-.1.8-.1 1.5-.3 2.2-.6.4-.1.7-.1 1.1-.2.4 0 .8-.1 1.1-.2l1.2-.3.2-.1c-.4.4-.4.5-.4.6zm-7.5-12.3v-1.1-1.4h.1c.8-.2 1.5-.3 2.1-.3.4-.1.9-.1 1.3-.2.3-.1.6-.1.9-.1s.5-.1.8-.1h.3c.3 0 .6-.1 1-.2h.2l1.5-.3.7-.1h.1c0 .6 0 1.3-.1 1.9l-.2 2.6v.4l-.3 2.9-.1.7c-.1.7-.2 1.5-.2 2.2l-.2 2.6c-.5.1-1 .3-1.5.4h-.1c-.3.1-.7.2-1.1.2l-.4.1c-.3 0-.5.1-.8.1l-1 .3-.2.1-1.2.3c-.6.1-1.3.1-1.9.2l.1-2.3v-.2l.1-2.4.2-3.6v-.8c-.1-.8-.1-1.3-.1-1.9zm9.4 25.7v-1.1-1.2-1h0l.1-2.8v-1.1c0-.5 0-1.1.1-1.6 0-.5 0-1.1.1-1.6v-1.3c0-.8.1-1.6.2-2.6.3 0 .5-.1.8-.1l1.5-.3.8-.1c.4-.1.7-.1 1.1-.2.3 0 .6-.1 1-.1h.2a8.33 8.33 0 0 0 2.2-.3l.8-.1c.5-.1 1.1-.2 1.6-.2.2 0 .4-.1.6-.1s.4 0 .5-.1v.7.5c0 .6-.1 1.1-.1 1.7 0 .3 0 .5-.1.8v.6.8.5c0 .3 0 .5-.1.8 0 .9-.1 1.8-.2 2.7 0 .3-.1.7-.1 1v.3c0 .5-.1.9-.1 1.4 0 .3 0 .6-.1 1v.8c0 .5-.1.9-.1 1.4v.4.2c-.2.1-.4.1-.5.1-.2 0-.4.1-.6.1s-.3 0-.5.1c-.3 0-.5.1-.8.1-.5.1-1 .2-1.5.2-.5.1-1 .1-1.5.1h-.7l-2.4.4-1.4.3c-.3 0-.5.1-.8.1v-.6-.6zm12-26.7l-.1 2.2c0 .4 0 .8-.1 1.2v1.6c0 .5 0 1.1-.1 1.6 0 .5-.1 1-.1 1.5-.3.1-.6.1-.9.1l-.5.1c-.5.1-1.1.2-1.6.2l-.8.1-2 .3h-.5-.6c-.4 0-.8.1-1.2.2-.5.1-.9.2-1.4.2l-1 .2c-.2 0-.4.1-.6.1v-.6l.1-.7.2-2.3.2-1.5.4-4.2.2-4h.2c.7-.1 1.3-.3 2-.4l1.1-.3s.8-.2 1.1-.2h.3c.3 0 .6-.1.9-.1.3-.1.6-.1 1-.2h.2c.4-.1.8-.2 1.2-.2.4-.1.7-.1 1.1-.1l.9-.1c.3 0 .6 0 .8-.1-.1.4-.1.8-.2 1.1l-.2 2c0 .2-.1.5-.1.7l-.1.3c.3.5.2.9.2 1.3zm33.9-1v.5 1.3 1.3c0 .6 0 1.1-.1 1.7-.2-.1-.4-.2-.6-.2h-.2-.4c-.1 0-.2 0-.3.1h-.2c-.4.1-.8.1-1.1.2-.4.1-.8.1-1.2.2s-.8.1-1.3.1c-.4 0-.8 0-1.2.1s-.7.1-1.1.2l-.3.1c-.6.1-1.3.2-1.9.4l.2-4.3c0-.6.1-1.2.1-1.8l.2-2.9c0-.9.1-1.7.2-2.6.1-.7.1-1.4.1-2.1h.1c.4-.1.8-.1 1.2-.2.2 0 .5 0 .7-.1h.4c.4 0 .8-.1 1.1-.2l.4-.1c.2 0 .4-.1.6-.1l.4-.1c.2 0 .4-.1.6-.1s.4-.1.5-.1h.2a1.38 1.38 0 0 0 .4.3c.3.1.6.1.9 0l.8-.3c.1 0 .2-.1.3-.1s.2-.1.3-.1c.2 0 .3-.1.5-.1h.2c0 .3-.1.7-.1 1l-.3 2.9c0 .5-.1 1-.1 1.5 0 .4-.1.9-.1 1.3 0 .5-.1 1-.1 1.6.2.2.2.4.2.7zm-13.2 24c-.3.1-.5.2-.7.3l-.4.2c-.6.2-1.3.3-1.9.4l-2 .4-.6.1-1.5.3c-1 .2-2.1.1-3.1.2-.2 0-.3 0-.5.1v-.6-1.2h-.3.3-.4.4v-1.2c0-.6.1-1.2.2-1.9l.1-.9.2-2.4c0-.5.1-.9.1-1.4v-.9-.6c0-.3 0-.6.1-.8l.1-1c0-.3 0-.6.1-.9 0-.5.1-.9.1-1.4h0 .7.6c.4 0 .8-.1 1.2-.1.4-.1.9-.2 1.3-.4l1-.3s.7-.1 1.1-.1.8-.1 1.2-.1c.8-.1 1.5-.3 2.3-.5l1.4-.3v.2c0 .5-.1 1-.1 1.4s-.1.9-.1 1.3c0 .5-.1 1-.1 1.5 0 .4-.1.9-.1 1.3v1.1 1 .7c0 .5-.1 1.1-.1 1.6 0 .4-.1.9-.1 1.3 0 .3-.1.6-.1.9v.6.5l-.1 1.2c-.3.2-.3.3-.3.4zm-8.6-29.2c0-.3 0-.6.1-.9h1.3c.4 0 .8-.1 1.2-.1l1.5-.3c.3-.1.5-.1.8-.2.2 0 .4-.1.6-.1l.6-.1 2.3-.4c.5-.1 1-.1 1.5-.2h.4c0 .8-.1 1.6-.2 2.4-.1.6-.1 1.1-.1 1.7 0 .4 0 .8-.1 1.2l-.2 2.6v.3c-.1.8-.1 1.8-.2 3v1.4 1.4h0c-.8.1-1.6.3-2.4.5l-1.6.3c-.4.1-.8.1-1.2.1h-.5c-.7.1-1.3.3-1.9.5s-1.2.4-1.8.5h-.2-1v-.1c0-.5.1-.9.2-1.4s.1-1 .2-1.5c.1-.4.1-.8.2-1.2l.2-2.3v-.4c.1-.6.1-1.3.1-1.9v-1.2c0-.2 0-.5.1-.7 0-.3 0-.5.1-.8.1-.8.1-1.4 0-2.1zm11 27.8v-.4c0-.3 0-.6.1-.9 0-.5.1-.9.1-1.4v-.7-.7-.7c0-.2 0-.5.1-.7v-1.3-.1c0-.6.1-1.2.1-1.8 0-.3.1-.6.1-1v-.5c0-.3 0-.6.1-.8 0-.5.1-1 .1-1.5s.1-1 .1-1.5c.1 0 .2 0 .3-.1.6-.1 1.2-.3 1.8-.4l.3-.1 1.8-.3h.7c.3 0 .6-.1.8-.1l1.4-.2c.2 0 .3-.1.5-.1s.5-.1.7-.1c.1 0 .3 0 .4-.1h.2c.2 0 .3 0 .5-.1.1 0 .2-.1.2-.1v.5c0 .4 0 .8-.1 1.2l-.1.8c-.1.7-.1 1.3-.1 2v.3l-.1 2.4-.3 2.6v.1c-.1.5-.1 1.1-.1 1.6 0 .3 0 .6-.1.9v.5c0 .3-.1.5-.1.8v.5.1.2h-.1c-.1 0-.3.1-.4.1l-.2.1c-.2 0-.3.1-.5.1-.2-.1-.4-.2-.6-.2h-.3l-1 .3s-.7.1-1 .2c-.4.1-.7.2-1.1.2s-.8.1-1.2.2l-1.1.3-1 .3c-.3.1-.6.1-.9.1-.1.1-.1-.2 0-.5zm30.8-39.6c-.1.3 0 .6.4.8.3.1.6-.1.7-.4.1-.2.1-.5.2-.7s.1-.4.2-.7c.1-.2.1-.5.1-.7v-.6-.1c0-.3-.2-.6-.5-.7h-.1-.1c-.3 0-.5.3-.5.6v.1.3.3l-16.2 3.4c-.2 0-.3.1-.4.2s-.1.3-.1.4.1.3.1.4c.1.1.2.2.4.2h.1l15.6-3.2c0 .1 0 .1-.1.2l.2.2z"/><path d="M325.6 307.1h0c.4 0 .6-.3.6-.6v-.6-.5h0c0-.2.1-.4.1-.6l.1-.3c.1-.3 0-.6-.3-.7l-.2-.1h-.1c-.3 0-.5.2-.5.4l-.1.2c-.1.3-.1.5-.2.8 0 .2 0 .4-.1.6v.4c.2.6.4.9.7 1h0zm-13.8-5.1l-.1-.1.3.1h-.3.7.1l-.8-.1zm21.9 62.3c.1 0 .1 0 .2-.1l.4-.2c.3-.1.5-.3.8-.4l1-.6.3-.2c.1-.1.2-.1.4-.2l.7-.3c.1 0 .2-.1.3-.1l.6-.2 1.1-.4h.2c.1 0 .2-.1.3-.1l.4-.1h.2s0 .1-.1.1c-.1.1-.1.2-.2.2l-.3.4c-.1.1-.2.2-.2.3-.1.1-.2.3-.3.5-.1.3-.1.6.1.8a.61.61 0 0 0 .8 0l.1-.1c0-.1.1-.1.2-.2l.5-.7c.2-.2.4-.5.5-.8l-.3-.3.4.1.2-.4v-.2-.1-.1c0-.1 0-.1-.1-.2l-.4-.4c-.1-.1-.3-.1-.4-.1h-.4c-.1 0-.3 0-.4.1-.1 0-.3 0-.4.1h-.1c-.1 0-.1 0-.2.1-.1 0-.2.1-.4.1-.1 0-.3.1-.4.1l-.3.1c-.1 0-.2.1-.3.1-.2.1-.4.2-.6.2h-.1c-.1 0-.2.1-.3.1l-.8.4c-.1 0-.2.1-.3.1l-.6.3-.5.3c-.1.1-.3.1-.4.2l-.2.1c-.2.1-.5.2-.7.3h-.1-.1s0-.1.1-.2l.1-.1.1-.1v-.1c.1-.1.1-.3.2-.4l.2-.4.3-.6.3-.5c0-.1.1-.1.1-.2l1.1-1.5c.2-.2.3-.4.5-.6s.3-.4.5-.5l.8-.8c.2-.3.5-.5.7-.7l1.1-1.2c.3-.3.6-.7.9-1h0l.2-.2c.1-.1.1-.2.2-.3l.1-.2v-.2-.1h0v-.2-.1-.1h-.1l-.3-.3c-.1 0-.2-.1-.3-.1h-.3l-.2.1c-.2.1-.4.1-.6.2s-.3.1-.5.2l-.5.2c-.1 0-.2.1-.3.1-.1.1-.2.1-.3.2l-.3.2c-.3.1-.5.3-.8.4l-.7.4c-.1.1-.3.1-.4.2l-1.3.8c-.1.1-.2.1-.3.2l-.9.6-.8.5-.7.5.2.3h0l-.3-.3-1.6 1.2c-.1 0-.1.1-.2.2l-1.1 1c-.2.1-.3.3-.5.4l-.1.1c-.3.3-.6.6-.9.8l-.9.9-.7.7h0c.1-.2.2-.3.2-.5l.3-.5c0-.1.1-.1.1-.2l.6-.9c.1-.1.2-.3.3-.4l1.4-1.8c.1-.1.2-.3.3-.4l.2-.2 1.2-1.4c.3-.3.6-.7.9-1l.1-.1.1-.1.6-.6.6-.6 1-1 .5-.5.3-.3.2-.2.1-.1.6-.6c.2-.2.4-.4.6-.7.1-.2.1-.4 0-.6l.3-.3-.4.2c-.1-.1-.2-.3-.4-.3h-.1-.2c-.1 0-.1.1-.3.1l-.8.3-.8.3h-.1c-.2.1-.3.1-.5.2s-.5.2-.7.3c-.3.1-.6.3-.9.4l-.3.1c-.3.1-.5.3-.8.4l-.4.2c-.1 0-.2.1-.3.1l-.2.1c-.3.1-.5.3-.8.5-.1.1-.2.1-.3.2l-2 1.4a3.04 3.04 0 0 1-.7.5l-.2.2-1.1.9c-.1.1-.2.1-.3.2 0-.1.1-.1.1-.2s.1-.2.1-.3c0 0 0-.1.1-.1l.1-.1c.1-.1.1-.2.2-.4l.5-.7c.1-.2.3-.4.4-.6l.7-.9h0 0c.1-.1.2-.2.2-.4 0-.1 0-.3-.1-.4a1.38 1.38 0 0 0-.4-.3c-.2 0-.3 0-.5.2l-.4.5c-.1.2-.2.3-.4.5-.2.3-.4.5-.6.8l-.1.1c-.1.1-.2.3-.3.4-.1.2-.2.3-.3.5s-.2.3-.3.5c0 .1-.1.1-.1.2v.1l-.3.6-.1.4v.3c0 .1 0 .2.1.2.1.1.1.3.2.3.1.1.2.1.3.1h.2.2l.5-.2c.1 0 .2-.1.2-.1.2-.1.4-.2.5-.4.1-.1.3-.2.4-.3l.6-.5c.2-.2.4-.3.6-.5l1-.8 1.2-.8.1-.1.7-.4c.3-.2.5-.3.8-.4l.4-.2.6-.3 1.7-.8c.1-.1.2-.1.4-.2h0l-.7.7-.2.2-.8.8c-.2.2-.4.4-.6.7l-.4.4-1.1 1.2c-.2.2-.4.5-.6.7l-.6.7c-.1.1-.2.3-.3.4l-.1.1a3.04 3.04 0 0 0-.5.7 1.38 1.38 0 0 0-.3.4l-.6.9c-.1.1-.1.2-.2.2l-.5.7c-.1.1-.2.3-.3.4l-.4.7c-.1.2-.2.3-.3.5l-.4.7c-.1.1-.1.3-.2.4 0 .1-.1.1-.1.2s-.1.2-.1.3v.2.1c0 .1 0 .2.1.2l.3.3h.1v.8l.3-.7c.1 0 .2 0 .3-.1l.6-.3c.2-.1.4-.3.5-.4.2-.1.3-.3.5-.4l.1-.1c.2-.2.4-.4.7-.6l.3-.3 1.6-1.5.2-.2s.1-.1.2-.1l.1-.1c.2-.2.4-.3.6-.5l.5-.4.1-.1c.2-.1.3-.3.5-.4.3-.2.5-.4.8-.6l2.8-1.9c.1 0 .1-.1.2-.1l2.3-1.3c.3-.1.5-.3.8-.4l.2-.1c.3-.1.6-.3.9-.4 0 0 .1 0 .1-.1l-2.6 2.7c-.2.3-.5.5-.7.8l-.2.3c-.2.3-.4.5-.7.8l-.2.2c-.1.1-.2.3-.3.4l-.3.4-.1.1-.3.5c0 .1-.1.1-.1.2l-.3.5c0 .1-.1.1-.1.2l-.1.2c-.1.2-.2.4-.3.7-.1.2-.2.5-.2.7v.2.2c0 .1 0 .2.1.3l-.4.9.5-.6.1.1.1.1c.1 0 .1.1.2.1v.1-.1c.1 0 .2.1.3.1h.4l.1.8zm7.6-2.6h0 0 0zm38-4.6h0l.3-.3.1-.1c.2-.2.4-.3.6-.5h0c.1-.1.3-.2.4-.3a.76.76 0 0 1 .4-.2v.2c0 .1 0 .2-.1.3v.1c-.1.5-.3 1-.4 1.5l-.1.4c-.1.2-.1.4-.2.7l-.3.8c-.1.4-.3.8-.4 1.2-.1.3-.1.6-.2.9v.1.3.1c0 .1.1.1.1.2.1.1.2.2.3.2s.3.1.3 0h.2l.2-.1c.1-.1.2-.1.3-.2l.3-.3c.1-.1.2-.1.2-.2l.1-.1.4-.4 2.8-2.9c.3-.2.5-.5.8-.7.1-.1.3-.2.4-.3s.2-.1.3-.2h0 0c.1 0 .1 0 .2-.1h.3.2 0 0 0 0 .1v.1.1c0 .1 0 .1.1.2v.2.2c0 .5-.1.9-.1 1.3 0 .2-.1.3-.1.5v.2c0 .1.1.2.2.3l.1.1v2.9l.6-3.1c0-.1.1-.1.1-.2v-.3h0c0-.2.1-.3.1-.4 0-.3.1-.5.1-.8v-.8-.2-.1c0-.1 0-.3-.1-.4 0-.1-.1-.2-.1-.3-.1-.1-.1-.2-.2-.3-.1-.2-.3-.3-.5-.4-.1 0-.1 0-.2-.1h-.3c-.2 0-.4 0-.7.1-.2 0-.4.1-.6.2s-.4.2-.6.4c-.2.1-.3.3-.5.4s-.3.3-.4.4l-.5.4-1.4 1.5c-.2.2-.4.5-.7.7-.1.2-.3.3-.4.5l-.4.4-.2.2c.1-.4.2-.9.4-1.3l.2-.6.3-.8c.3-.7.5-1.5.6-2.2 0-.2.1-.3.1-.5v-.4-.1c0-.1 0-.2-.1-.3 0-.1-.1-.2-.2-.3l-.1-.1c-.1-.1-.2-.1-.2-.1-.1 0-.2-.1-.4 0-.1 0-.3 0-.4.1-.2.1-.4.2-.5.3-.2.1-.4.3-.7.4-.2.2-.4.3-.7.5l-.1.1-.2.2c-.1.1-.2.1-.2.2l-.8.9c-.3.3-.6.6-.9 1l-1.1 1.5c-.1.2-.3.4-.4.6l-.6.9a.76.76 0 0 0-.2.4l-1.5 2.5c-.1.1-.1.2-.2.3h0v-.1-.3l.1-.4h-.1.1l.2-.8c0-.2.1-.3.1-.5l.1-.3c0-.1.1-.3.1-.4l.3-1 .3-1.3v-.1l.3-1.3c.1-.3.1-.6.2-.9v-.4c0-.2 0-.4-.1-.6v-.1c0-.1-.1-.1-.1-.2l-.1-.1-.2-.2-.1-.1c-.1 0-.1 0-.3-.1h-.1c-.1 0-.2 0-.3.1-.2.1-.3.2-.5.3l-.1.1c-.1 0-.1.1-.2.2l-.3.3-.1.1-.5.5-.2.2-.5.5c0 .1-.1.1-.2.2l-.5.7a1.38 1.38 0 0 0-.3.4l-.2.3c-.1.2-.3.4-.4.6l-.6 1c0 .1-.1.2-.2.3l-.4.7c-.1.2-.2.5-.4.8l-1 2-.3.6-.2.4c.1-.2.1-.5.2-.7l.1-.6c.1-.3.1-.5.2-.8l.4-1.8.3-1.1.2-.8c0-.1.1-.2.1-.3l.1-.2c.1-.4.3-.9.4-1.3.1-.3 0-.6-.3-.8-.3-.1-.6 0-.7.4-.2.4-.3.9-.4 1.3l-.1.4c0 .1 0 .1-.1.3v1.6l-.6 2.6c-.1.5-.2 1.1-.4 1.6 0 .1 0 .2-.1.3h.4l-.4.1-.2 1v.3.2.2.2.5.2c0 .1.1.2.1.2s.1.1.2.1v.3l.2-.2v.3l.1-.3c.2 0 .3 0 .5-.1l.3-.3c.1-.2.2-.3.3-.5s.2-.3.2-.5c.1-.1.1-.3.2-.4v-.1h0l.7-1.6h0 0 0 0 0 0l.1-.2c.1-.3.2-.5.4-.8l.3-.6.5-1c.2-.3.3-.6.4-.8l.1-.3.3-.6.4-.7c.1-.1.1-.2.2-.3l.5-.7c0-.1.1-.1.1-.2.2-.3.4-.6.6-.8l.5-.6.1-.1.3-.3.2-.2.2-.2.3-.3h0v.3c0 .2-.1.4-.1.6-.1.6-.3 1.2-.4 1.7l-.1.4-.3.9-.1.5c0 .1-.1.3-.1.4l-.1.4c0 .1-.1.3-.1.4l-.2.8c0 .2-.1.4-.1.6v.2c0 .1 0 .2-.1.4 0 .2 0 .4-.1.6v.3.1c0 .1 0 .2.1.3l.2.3.2.2c.1 0 .2.1.4 0h.1c.1 0 .1-.1.2-.1.1-.1.2-.1.3-.2l.3-.3.2-.3c.1-.2.3-.4.4-.6l.2-.3c0-.1.1-.1.1-.2l.7-1.2 1.4-2.2c.3-.5.7-1 1.1-1.5.1-.2.3-.4.4-.5l1.5-1.6c.3.4.3.4.3.3zm-13.6 8.7h.3v.1l-.3-.1z"/><path d="M328.6 335.7a.76.76 0 0 0 .6-.6c0-.3-.2-.6-.5-.7h-.1-.7-.5-.8c-.3 0-.6.1-.9.2-.1 0-.1 0-.2.1h-.1c-.1 0-.1 0-.2.1h0c0-.1.1-.2.1-.3l.1-.3c.1-.2.1-.3.2-.5l.1-.2c0-.1.1-.2.1-.3s0-.2.1-.3v-.4-.3c0-.1 0-.2-.1-.3l-.1-.1-.1-.1c-.1-.1-.2-.1-.3-.1h-.2c-.1 0-.2.1-.3.1a.76.76 0 0 0-.4.2h-.1c-.1 0-.1.1-.2.1l-.1.1c-.1.1-.2.1-.3.2-.2.1-.4.3-.7.4-.2.1-.4.2-.5.3l.1-.1c.2-.2.4-.5.6-.7s.4-.4.7-.6c.2-.2.2-.5.1-.8-.1-.1-.2-.3-.4-.3h-.1 0c-.1 0-.3.1-.3.1l-.4.3-.6.6c-.2.2-.3.4-.5.6-.1.1-.2.3-.3.4l-.3.5c-.1.2-.2.3-.2.4 0 0 0 .1-.1.1 0 .1-.1.2-.1.3v.3l.1.2c0 .1.1.2.1.2v.1l.1-.1c.1.1.1.1.2.1h.2c.1 0 .3 0 .4-.1a12.75 12.75 0 0 0 1.2-.7c.2-.2.5-.3.7-.5.2-.1.3-.2.5-.3l.2-.1c.1 0 .2-.1.3-.1h.1c0 .1 0 .1-.1.2-.1.2-.1.3-.2.5l-.3.7s0 .1-.1.1v.1.2.4c0 .1.1.2.1.3l.1.1c.1.1.1.2.2.2.2.1.3.2.5.2h.2.1c.1 0 .2 0 .3-.1.1 0 .2-.1.2-.1l.4-.1c.1 0 .2-.1.3-.1.2 0 .4-.1.5-.1h0 0 .9c.3.3.5.4.7.4zm-4.2-1h0 0 0zm.1.8h0 0 0zm20 6.5c0 .1-.1.3-.1.4v.3c0 .1 0 .2.1.2 0 .1.1.2.1.2.1.1.2.2.3.2.1.1.1.1.3.1.1 0 .3.1.4.1h.3.4c.2 0 .4 0 .5-.1h.1a.76.76 0 0 0 .4-.2c.1-.1.2-.3.1-.5 0-.3-.3-.6-.6-.5h-.3c-.2 0-.4.1-.7.1h-.2c.1-.1.1-.3.2-.4 0-.1.1-.2.1-.4l.1-.3v-.2c0-.1-.1-.2-.1-.3-.1-.1-.1-.2-.2-.2s-.1-.1-.2-.1h-.2-.5c-.2 0-.4.1-.5.1l-.4.1c-.1 0-.2.1-.3.1l-.2.1h-.1v-.1l.2-.4c.1-.2.2-.4.3-.7.1-.1.1-.3.1-.4a.76.76 0 0 0-.2-.4c-.1-.1-.2-.2-.4-.1a.76.76 0 0 0-.4.2l-.6 1.2c0 .1-.1.1-.1.2l-.2.3-.4.6c-.1.1-.1.2-.1.2-.1.1-.1.3-.1.4s0 .2.1.2l-.1.1.2-.1c.1.1.1.1.3.2h.2.3c.2-.1.5-.1.7-.2l.7-.3v-.1l.1.1v-.1.1c.2-.1.3-.1.5-.2.1-.1.3-.1.4-.1h0c-.2.5-.2.5-.3.6zm20.6.6h0 0l.3.2.3-.2.6-.3v.1.1c0 .1-.1.3-.1.4s0 .2-.1.2l-.2.6c0 .1 0 .1-.1.2v.1.3l.1.2c0 .1.1.2.2.3 0 0 .1.1.2.1s.2.1.3.1h.4.4a.76.76 0 0 0 .4-.2c.1-.1.2-.3.1-.5 0-.3-.3-.6-.6-.5h0-.2v-.1-.1c.1-.1.1-.3.2-.5.1-.3.1-.6.2-.9v-.2-.3a.55.55 0 0 0-.3-.5l-.1-.1V339h0 0l-.4 2.1h-.1-.2c-.1 0-.1 0-.2.1-.1 0-.2.1-.2.1-.2.1-.3.2-.5.3l-1.2.8c-.1.1-.2.1-.3.2l-1 .8-.3.3.1-.1c.1-.1.2-.3.3-.5s.2-.4.4-.7l.1-.2c.1-.1.1-.3.1-.5v-.3-.2s0-.1-.1-.1a.55.55 0 0 0-.5-.3h-.1c-.2 0-.3.2-.4.3s-.1.1-.1.2c-.1.1-.1.2-.1.3s0 .3-.1.4v.1.2c-.1.2-.3.4-.4.6l-.1.2c-.1.1-.2.3-.3.4l-.7.9-.1.1c-.1.1-.1.1-.2.3-.1.1-.1.2-.1.3-.1.1-.1.3-.1.4s0 .2.1.3l-.4.6.6-.3c.1.1.2.1.4.1h.3.1c.1 0 .2-.1.2-.1l.2-.1a.76.76 0 0 1 .4-.2c.1-.1.3-.2.4-.3l1.7-1.3c.2-.1.4-.3.5-.4l.9-.6-.6-.6zm22.7-4.6c0-.1 0-.3-.1-.4s-.2-.2-.5-.3c-.1 0-.2.1-.3.1l-.4.3c-.1.1-.2.1-.3.2-.2.2-.4.3-.6.5l-.5.5-.3.3c-.1.1-.1.2-.2.3 0 .1-.1.2-.1.3v.2c0 .3.1.5.3.6l.3.1h.2.1c.1 0 .2 0 .4-.1.1 0 .2 0 .2-.1h.2c.1 0 .2-.1.3-.1l.6-.2c.4-.1.7-.3 1.1-.4l-.1-.2.1.2h0 0l.4-.1c.1 0 .2-.1.3-.1h.1c.2-.1.5-.1.7-.1h.1l.3.3c.1 0 .3 0 .4-.1l.1-.1c.2-.2.2-.5.1-.8l-.1-.1c-.1-.1-.1-.2-.2-.2-.1-.1-.2-.1-.2-.1-.1 0-.3-.1-.4-.1h-.3-.3-.1c-.1 0-.2 0-.3.1-.2 0-.3.1-.5.2-.1 0-.2.1-.4.1l-1.1.4c.3-.3.7-.5 1-.8-.1-.1 0-.2 0-.3z"/><path d="M335.9 287.9l-.1-.1-.2-.2c-.1-.1-.2-.1-.3-.1h-.1 0c-.1 0-.2 0-.3.1l-.7.3c-.1.1-.3.1-.4.2l-.8.5-.2.2-.6.5-.1.1-.3.3-.4.4-.2.2-.2.2.1-.3c.1-.2.2-.3.3-.5l.9-1.7c.2-.3.3-.6.5-.9l.3-.5c0-.1.1-.2.1-.3l.1-.2c.1-.1.1-.2.2-.3.1-.2.3-.4.4-.6.1-.3.1-.6-.1-.8-.1-.1-.2-.1-.4-.1s-.4.1-.4.3c-.1.2-.2.3-.3.5l-.1.2-.1.1-.1.1c-.1.1-.1.2-.2.3l-.3.7c-.2.3-.3.7-.5 1l-.8 1.7c-.1.2-.2.5-.4.7l-.6 1.1c-.1.2-.2.4-.3.5s-.1.2-.2.3c0 .1-.1.1-.1.3l-.1.3v.4c0 .1.1.2.2.3v.1l.1-.1c.1 0 .1.1.2.1h.1c.1 0 .2 0 .3-.1.2-.1.4-.2.5-.3l.1-.1.4-.4.5-.5.6-.6.3-.3.2-.2.6-.6.2-.2.7-.5c.2-.1.4-.3.6-.4l.1-.1c.1-.1.2-.1.3-.2l.1-.1c0 .1-.1.2-.1.4 0 .1-.1.2-.2.4l-.2.4c-.2.4-.3.7-.5 1l-.1.2c-.1.2-.2.3-.2.5l-.1.3c-.1.2-.2.3-.3.5l-.4 1c-.1.2-.2.5-.2.7 0 .1-.1.2-.1.4v.6c0 .1.1.2.1.3l.1.2c0 .1.1.1.1.2l.1.1.2.2c.1.1.2.1.3.2.2.1.4.1.5.2.1 0 .2 0 .3.1h.3.1c.1.1.2.1.4.1a.76.76 0 0 0 .4-.2l.1-.1c.1-.3.1-.6-.1-.8l-.2-.2-.2-.1s-.1 0-.2-.1h-.4c-.1 0-.3-.1-.4-.1l-.2-.1c-.1 0-.1-.1-.2-.1l-.1-.1v-.1-.2-.2c0-.2.1-.4.2-.6l.5-1.1h0l.1-.1c.1-.3.3-.6.4-.9l.3-.7c.2-.5.5-1 .7-1.5 0-.1.1-.2.1-.3.1-.2.1-.3.1-.4s.1-.2.1-.4v-.4-.1-.1c-.1.5-.2.4-.2.3zm-.8.4h0 0 0zm-50.9-30.7c.1.1.3.2.4.1h.2c.1 0 .1 0 .2-.1.1 0 .1-.1.2-.1s.2-.1.3-.1c.2-.1.4-.2.7-.3.2-.1.3-.2.5-.2.1-.1.3-.1.4-.2 0 .1-.1.2-.1.3s-.1.1-.1.2c-.1.2-.2.4-.4.7l-.1.3c0 .1-.1.1-.1.2-.1.2-.1.3-.1.6l.1.2c0 .1.1.1.1.1l.3.3h.2c.1 0 .2 0 .2-.1l.1-.1a.47.47 0 0 0 .1-.6.76.76 0 0 0 .2-.4c.1-.2.3-.5.4-.7s.1-.3.2-.5c.1-.1.1-.3.1-.4v-.2-.3-.1h-.4 0l.4-.1h0c0-.1 0-.2-.1-.2v-.1c0-.1-.1-.2-.2-.3l-.1-.1c-.1-.1-.2-.1-.3-.1h-.5c-.2.1-.5.2-.7.3-.1 0-.2.1-.2.1l.2-.3c0-.1.1-.2.1-.3l.2-.6c.1-.1.1-.2.2-.3 0-.1.1-.1.1-.2l.1-.1c.1-.2.1-.6-.1-.8-.1-.1-.2-.2-.4-.2a.55.55 0 0 0-.5.3c0 .1-.1.1-.1.2-.1.1-.2.2-.2.4l-.1.2c0 .1-.1.2-.1.2l-.3.6c-.1.1-.1.2-.2.3-.1.2-.2.4-.3.5s-.2.3-.3.4c0 .1-.1.1-.1.2l.3.3-.3-.2-.3.7c-.1.2 0 .4.1.5l-.2.3.3-.2zm1.5-1.7l.2.1h-.1l-.1-.1zm-1.2 1h0 0zm12.7 27.3c0-.2 0-.3-.1-.5v-.1c0-.1-.1-.2-.2-.3l-.3-.2-.1-.1h-.1-.2-.4c-.2 0-.3 0-.4.1-.1 0-.1 0-.3.1-.1 0-.1 0-.2.1l-.2.1.1.4-.3-.3h-.1 0v-.2c0-.1 0-.2.1-.3 0-.1.1-.2.1-.3l.1-.3.3-.6h0l.2-.5c0-.1.1-.2.1-.3l.1-.2c.2-.3.3-.6.5-.9l.2-.3.3-.6c.1-.2.2-.5.3-.7 0-.1.1-.2.1-.2 0-.1.1-.2.1-.3v-.3-.3c0-.1 0-.2-.1-.2l-.2-.2c-.1 0-.1-.1-.2-.1h-.4s-.1 0-.1.1c-.1 0-.2.1-.2.1-.1 0-.1.1-.2.1-.3.2-.5.4-.8.6-.2.2-.5.4-.7.6l-.8.7c.1-.1.1-.3.2-.4.1-.2.2-.3.3-.5.2-.3.3-.6.5-.9l.1-.1c0-.1.1-.2.1-.3l.3-.7v-.4c0-.1-.1-.3-.3-.4h-.2-.2l-.1.1-.3.3-.2.5c-.1.1-.1.2-.2.3l-.1.2c-.1.3-.3.6-.5.8l-1 1.7c0 .1-.1.2-.1.2l-.1.5c0 .1 0 .3.1.4 0 .1.1.1.1.2.1.1.2.2.4.2s.5 0 .6-.1l.6-.3 1.4-1.2.2-.1c.2-.1.3-.3.5-.4l.2-.2c-.1.1-.1.3-.2.4l-1.1 2.1c-.1.1-.1.3-.2.4l-.4.9c-.1.2-.1.3-.2.5s-.1.4-.1.6h0-.4l.4.3v.1c0 .1 0 .2.1.3l.1.1c0 .1.1.1.2.2l.1.1c.1 0 .2.1.2.1.1 0 .2.1.3.1h.2c.1 0 .2 0 .4-.1l.2-.1c.1 0 .3-.1.4-.1h.2.3.2 0v.2.4c0 .3.1.6.5.7a.65.65 0 0 0 .6-.6v-.4c-.1-.1-.1-.2-.1-.3h0zm-3.2-8.8h0 0 0zm-29-3.2c-.1-.1-.3-.2-.4-.1h-.4 0-.6c-.5 0-.9 0-1.3-.1 0 0-.1 0-.2-.1-.1 0-.2-.1-.2-.1l-.1-.1-.1-.1-.1-.1v-.1-.1c0-.1 0-.1.1-.2 0-.1.1-.1.1-.2 0 0 .1-.1.1-.2.1-.2.2-.3.4-.5l1.1-1.3.9-1.1c.1-.1.1-.2.2-.3l.1-.1c.1-.1.2-.3.2-.5.1-.2.1-.3.2-.5s.1-.4 0-.6v-.1c0-.1-.1-.2-.1-.2 0-.1-.1-.2-.2-.2 0-.1-.1-.1-.1-.2l-.2-.1c-.1-.1-.2-.1-.3-.1h-.1-.3-.2v.4l-.1-.4h-.5c-.2 0-.4.1-.6.1s-.4.1-.6.2l-.5.2s0-.1.1-.1h0l.3-.6c.1 0 .2-.1.3-.2l.2-.3c.2-.4.4-.8.7-1.1l-.2-.2.2.2c.1-.2.3-.3.4-.5s.1-.5 0-.7a.55.55 0 0 0-.5-.3c-.1 0-.3.1-.3.1-.1.1-.2.1-.2.2 0 0-.1.1-.1.2l-.2.3c-.3.3-.5.7-.8 1.1-.2.2-.3.5-.5.8-.1.1-.1.2-.2.3l-.2.4c-.1.1-.1.3-.2.4 0 .1-.1.2-.1.3-.1.2-.1.3 0 .6 0 0 0 .1.1.2l.1.1c.1.1.2.1.3.1h.3c.3 0 .5-.1.8-.2.2-.1.5-.1.7-.2l.7-.2c.2 0 .3-.1.5-.1h.3.1.1v.2l.4.1h0-.4c0 .1 0 .1-.1.2-.1.2-.2.4-.4.7-.1.2-.3.4-.4.6l-1.1 1.3c-.2.3-.4.5-.6.8-.1.1-.1.2-.2.3l-.1.1c-.1.1-.2.3-.3.5-.1.1-.1.3-.2.4 0 .1-.1.3 0 .4v.2c0 .1 0 .2.1.4.1.1.1.2.2.3l.3.3c.1.1.3.2.5.3.3.1.6.2.9.2s.5.1.8.1h.2.2.2.7a.76.76 0 0 0 .4-.2c.1-.1.2-.3.1-.5.1-.3 0-.4-.1-.5h0zm-.7-6.8h0 0 0 0zm-16.5 1.5l.3-.6.2-.6v-.1c0-.1.1-.1.1-.2s.1-.1.2-.2h.1c.2-.2.5-.3.7-.4l.5-.3c.2-.1.4-.3.5-.5.1-.1.2-.2.3-.4l.1-.2c.2-.3.1-.6-.1-.8-.1-.1-.2-.1-.3-.1h0c-.2 0-.3.1-.4.2l-.4.5c0 .1-.1.1-.1.1-.1 0-.1.1-.2.1l-.2.1c-.1 0-.2.1-.2.1-.2.1-.4.3-.6.4s-.3.3-.5.4v-.1l-.2.4c-.1.1-.1.2-.2.3l-.1.2c0 .1-.1.1-.1.2v.1c0 .1 0 .1-.1.2l-.1.1c-.1.2-.2.5-.4.7-.1.1-.1.3-.2.4l-.1.2a.76.76 0 0 0-.2.4c-.1.1-.2.2-.2.3l-.3-.3-.3.3h0l.2-.4-.1-.1h-.1-.3-.1c-.1 0-.1.1-.2.1-.1.1-.2.2-.3.2-.1.1-.1.2-.2.3 0 .1-.1.1-.1.2-.1.2-.2.4-.2.6-.1.2-.1.4-.2.6l-.2.6c0-.1-.1-.2-.1-.3s-.1-.3-.3-.3a.45.45 0 0 0-.5 0c-.3.2-.4.5-.2.8l.3.6c.1.2.2.3.2.5l.1.2c0 .1.1.1.2.2s.2.1.3.2h.2.1s.1 0 .2-.1l.1-.1c.1-.1.2-.2.2-.3l.1-.1c0-.1.1-.1.1-.2s.1-.2.1-.4c.1-.2.1-.4.2-.6l.1-.5c0-.2.1-.4.2-.5 0-.1.1-.3.2-.5.1.1.1.2.2.2l.1.1h.1.3c.1 0 .2 0 .3-.1l.3-.2.3-.3c.1-.1.1-.2.2-.3l.1-.1c.1-.2.3-.4.4-.6l.2-.3zm-2.6 1.2h0 0 0 0zm206.1-8.6l-.8 2.3c-.3 1-.5 2-.5 3h0a16.28 16.28 0 0 0 .3 3.1l.4 2.1.3 1.3.8-.1-.5-11.7zm-9.3 7.1l-.7.3.7-.2zm1.4 7.3h.8v-1.2-.2l-.8.1v.3 1zM427 299.2h.3 0-.4-.3.3l-.3.1.7-.1h0zm19.3-4.5v-.2l-.8.1v.1zm-30.6 30l.2.7h0zm-.7.2l.2.7h0zm-36.7 17.9h.8v.1h-.8zm-57.7-157.6c.4.2.8.3 1.3.3l.1-.8-1.1-.3c-.2-.1-.5-.3-.8-.5-.2-.1-.3-.2-.6-.4-1.5-.8-3.1-1.4-4.6-2l-.3.7c1.1.5 2.2 1 3.2 1.7.9.6 1.8 1 2.8 1.3zM420.8 143c1.4.3 2.7 1.4 4.1 1.3-.5 11.9 32.2-8.4 38.7-9.8 8.2-2.2 10.1-11 16.9-15.5-19.8 8.9-40.2 16.8-61.1 23.5.3.2.9.4 1.4.5zm-32.5 11.8c1.9-.3 3.7-1.1 5-2.4-3.5 1.3-7.1 2.3-10.6 3.5 1.9-.3 3.7-.7 5.6-1.1zm-58.8 311.8h0 0z"/><path d="M697.1 462.1c-5.1-21.4-7.6-37.6-8.4-43.3-4.7-30.8-7.2-36.8-18-106.4L652.8 187c-3.7-2.5-7-5.3-9.9-8.3l-.3-.3c-8.3-3.3-16.4-6.9-24.9-10 .3.3.6.5 1 .7 5.9 2.6 27.4 17.8 24.3 24 5.2 27.9 6.8 57.5 12.2 85.8 8.3 61.9 21.9 123 33.1 184.5-38.5-19.3-76.7-39.6-118.9-52.3-11.8-3-22.9-9-34.7-11.1-6.2-2-6.1-20.8-8.3-26.8.1.4.1.7.2 1.1-5-5.4-7.9-135.3-12.8-102.3.9 41.8 1.6 84.3 9.9 125.4-31.4 13.8-65.2 23.1-95.5 38.8-23.9 10.8-49.5 18.2-73.5 28.7-.7-90.5-5-89.7-8 0-37.6-14.6-73.9-31.9-111.2-47.1-11.3-4.6-22.7-9.5-34.5-12.9-12.9-2.3-12.1-6.4-11.7-16.7l-.8-96.1c-1.6-16.5 5-35-.6-50.5-3.1.5-1.2 5.2-1.7 7.3-1 19.6-1.5 39.3-2 58.9-1.6 30.2-4.6 60.3-2.8 90.6h0c4.1 6.4-44 15.1-51.6 18.9-38.7 17.7-80.2 30.2-118.7 48C26 400.4 37.7 334.8 49.3 269.5c5.3-26.5 13.3-52.9 14.6-79.7 8.1-7.2 21.6-8.4 25-18.6-.4.2-.8.4-1.1.6-5-9.5-20.8 8.2-26.6 10.8-5.3 1.8-6.5 3-6.4 8.6L29.2 327c-8.5 32.5-12.6 65.8-20.3 98.5 0 9.5-1.4 19.1-6.4 27.5a106.35 106.35 0 0 0-1.8 17.8c1.2 7.3 16.2-.7 21.3-1.4 22.7-6 43.1-16.7 64.7-25 18.3-8.3 38.1-13.1 56.7-20.7 43-17.9 40.5-17.8 82.7 1.3 33.8 15.1 68.1 29.5 103.4 41.7 5.5 3.1 15.2 3.5 18.8 7.3.6 1.8 3.1 1.7 4.7 1.2 18.9-6.1 37.2-14 55.5-21.6 30.1-10.5 58.1-25.2 87.7-36.6 10.6-2.8 26.3-17.4 35.8-10.2 34.9 16.1 71.8 28.8 106.5 45.1 17.8 7.3 34.8 16.1 53 22.8.4.2 1.4.4 2.5.3 1.6-.2 2.6-1.1 2.9-1.4.1 0 1.2 0 2-.8a2.01 2.01 0 0 0 .6-1.4c-.7-2.2-1.5-5.4-2.4-9.3zm-513.7-88.2c-.3-2-.4-4.1-.4-6.1 0-1.2.2-2.3.4-3.5.1 3.2.1 6.4 0 9.6zm0-13.7c-.1-1.4 0-2.7.1-4.1 0 1.4-.1 2.8-.1 4.1zm82.1 77.1c-2.7-1-5.3-2-8-3.2 3 1.1 6.1 2.2 9 3.6l-1-.4zM375.9 461c1-.4 2.1-.8 3.1-1.1-1 .3-2 .7-3.1 1.1z"/><path d="M349.4 466v-.2.2h0zm165.7-344.9a4.74 4.74 0 0 1-1 1h0l3-1.1c-.7-.2-1.7-1-2 .1zm86.1 46.6h0 0zm-476.4-10.8c8.7 4.4 42.3-17.7 52.5-21.5 7.6-1.5 20-13.6 26-10.3v-.1c10.9 3.2 22.8 11.3 32.3 2.9-7.5-3.3-15.3-5.9-23.1-8.9-5.7-1.7-10.5-5.3-16-1.3-17.3 8.3-34.1 17.4-51.5 25.7-8.3 3.9-17.9 6.4-23.6 12.2 1.2.3 2.7.4 3.4 1.3z"/></g><path d="M363.6 5.9c-34-4.5-66.9 3.9-85.9 34.7-17 23.4-16 54-9 81 8.1 33.4 33.2 58.3 55.5 82.9 3.6 3.8 20.1 25.9 24.5 22.6 4.4-1.3 7.6-5.1 11.1-7.9 8.9-6.6 16.7-14.5 24.6-22.2 19.7-18.4 36.4-39.9 44.3-65.9 2.6-9.3 4.6-18 6.7-27.3-.5-13 .3-25.9-4-38.5-5.5-14.8-13.8-28.5-25.4-39.3-10.9-12.2-26.5-18.2-42.4-20.1z" fill="#c14231"/><path d="M347.6 231.2c-5.6 0-12.9-8.3-22.8-20.2-1.4-1.7-2.7-3.3-3.3-3.9L315 200c-20.9-22.8-42.4-46.3-50-77.5-6.2-23.7-9.5-57.6 9.6-83.9C292.3 9.8 324.1-3.2 364 2.2c13 1.5 31.3 6.4 44.6 21.1C420 34 428.8 47.7 434.9 63.9v.1c3.6 10.7 3.8 21.6 4 32.1 0 2.4.1 5 .2 7.5v.5l-.1.5c-2.1 9.6-4.1 18.3-6.8 27.5-7.2 23.7-22.1 45.9-45.3 67.7l-2.4 2.3c-7.1 6.9-14.4 14.1-22.5 20.1a22.53 22.53 0 0 0-2.4 2.1c-2.6 2.3-5.6 5-9.4 6.3-.8.4-1.7.6-2.6.6zM346.4 8.4c-36.3 0-55.6 17.9-65.6 34.1l-.2.2c-17.4 24-14.2 55.6-8.4 77.8 7.1 29.4 28 52.2 48.2 74.3l6.4 7.1 3.6 4.2c8.7 10.5 14.3 16.3 16.8 17.3l.2-.1c2.5-.8 4.8-2.8 7.1-4.9.9-.8 1.8-1.6 2.7-2.3l.1-.1c7.8-5.7 14.9-12.7 21.8-19.5l2.4-2.4c22.3-20.9 36.5-42 43.3-64.4 2.5-8.9 4.5-17.3 6.5-26.6l-.2-7.1c-.2-10.4-.3-20.2-3.6-29.8-5.6-15.2-13.9-27.9-24.4-37.8l-.2-.2c-11.7-13-28.3-17.4-40.1-18.8h-.1c-5.1-.6-10.7-.9-16.3-1z" fill="#1b1718"/><g fill="#fff"><path d="M277.3 90.6c-.3-.2-.5-.4-.5-.7s.1-.6.3-.8l.6-.9c.1-.3.4-.5.8-.5.3 0 .7.1 1 .2.3.2.7.3 1.1.4s.8.2 1.3.2c.6 0 1.2-.1 1.7-.4.7-.4.8-1.2.3-1.8-.1-.2-.3-.3-.6-.4-.7-.3-1.4-.4-2.2-.4h-.1c-.3 0-.6 0-.9-.2l-.6-.6-.1-.2c-.3-.5-.2-1.1.3-1.4l1.5-1.6.6-.6.4-.4.4-.4h0c-.1 0-.3.1-.4.1h-.5-.7-2.6c-.6.1-1.2-.3-1.3-.8v-.3-.8c-.1-.5.3-1 .9-1.1h.3 7.8c.6-.1 1.2.3 1.3.8v.3.3c0 .3 0 .5-.1.7s-.3.5-.4.6l-2.7 2.8c.6.1 1.1.3 1.6.6.5.2.9.6 1.2.9.3.4.6.8.8 1.3s.3 1 .3 1.4c0 .6-.1 1.2-.4 1.8-.2.6-.6 1.1-1.1 1.6s-1.2.9-1.9 1.1c-.8.3-1.8.4-2.7.4-.5 0-1 0-1.5-.1l-1.3-.3c-.4-.1-.7-.2-1-.4-.4-.1-.7-.2-.9-.4zm18.6-.2l-.3-.3c-.1-.1-.2-.2-.2-.3v-.4c.1-.2.2-.4.3-.5l.7-.9c.2-.3.4-.4.8-.5.3 0 .7.1 1 .2l.5.2c.2.1.4.2.7.3l.8.3c.3.1.7.1 1 .1.5 0 .9-.1 1.3-.3.3-.2.4-.4.4-.7 0-.4-.2-.7-.5-.9-.4-.3-.9-.5-1.3-.7l-1.7-.7c-.6-.2-1.2-.5-1.7-.9s-1-.8-1.3-1.3c-.4-.6-.6-1.2-.5-1.9 0-.6.1-1.3.4-1.8s.7-1 1.2-1.4 1.2-.7 1.8-.9c.7-.2 1.5-.3 2.3-.3.9 0 1.8.1 2.6.4l1.8.7c.3.2.5.4.6.7 0 .3 0 .6-.2.8l-.5 1c-.2.4-.5.6-.8.6s-.6-.1-.9-.2c-.4-.2-.8-.3-1.2-.5-.4-.1-.9-.2-1.4-.2s-1 .1-1.4.3c-.3.2-.4.4-.4.7 0 .4.2.7.5.9.4.3.9.5 1.3.7l1.7.6c.6.2 1.2.5 1.7.9a4.04 4.04 0 0 1 1.3 1.3c.4.6.6 1.2.5 1.9 0 .6-.1 1.2-.4 1.7-.2.5-.6 1-1.1 1.4s-1.1.8-1.8 1c-.8.3-1.6.4-2.4.4-.6 0-1.1 0-1.7-.1-.5-.1-1-.2-1.5-.4-.4-.1-.8-.3-1.2-.5-.2-.1-.5-.3-.8-.5zm12.7-1c-.1-.5.3-1 .9-1.1h.3 1.2c.6-.1 1.2.3 1.3.8v.3 1.1c.1.5-.3 1-.9 1.1h-.3-1.2c-.6.1-1.2-.3-1.3-.8v-.3-1.1zm12-11.2c-.1-.5.3-1 .9-1.1h.3 4.7c.8 0 1.5.1 2.2.2.6.1 1.2.4 1.7.7s.9.7 1.1 1.2c.3.5.4 1.1.4 1.6 0 .6-.2 1.2-.5 1.8s-.8 1-1.4 1.3h0c.4.1.8.3 1.2.5.3.2.6.5.8.8s.4.6.4.9c.1.3.1.7.1 1 0 .7-.2 1.4-.5 2-.3.5-.8 1-1.4 1.3-.6.4-1.3.6-2 .7-.8.2-1.5.2-2.3.2h-4.7c-.6.1-1.2-.3-1.3-.8v-.3l.3-12zm6.1 4.5c.4 0 .8-.1 1.1-.4.2-.3.3-.6.3-.9 0-.7-.5-1.2-1.2-1.3h-.3-2v2.6h2.1zm.3 5.9c.5 0 1-.1 1.3-.5.3-.3.4-.7.4-1.1s-.1-.8-.4-1a1.48 1.48 0 0 0-1.3-.4h-2.4v3h2.4zm7.4-10.4c-.1-.5.3-1 .9-1.1h.3 1.4c.6-.1 1.2.3 1.3.8v.3 9.4c0 .3 0 .6.2.8.1.1.3.2.5.2.5 0 .9.4.9.9v.1 1c0 .3-.1.6-.3.8a1.69 1.69 0 0 1-1 .3c-.5 0-1 0-1.5-.1s-1-.3-1.4-.5c-.4-.3-.8-.7-1-1.2-.3-.7-.4-1.4-.4-2.1l.1-9.6zm6.3 10.5c0-.6.2-1.3.6-1.8s1-.8 1.6-1.1a8.3 8.3 0 0 1 2.1-.6c.7-.1 1.5-.2 2.3-.2h.3v-.2c0-.4-.2-.7-.5-.9-.4-.2-.8-.3-1.2-.3s-.8 0-1.1.1l-1 .3a1.25 1.25 0 0 1-1.6-.3c0-.1-.1-.1-.1-.2l-.3-.5c-.2-.3-.2-.6-.1-.9a.9.9 0 0 1 .6-.6l1.7-.6c.7-.2 1.5-.3 2.3-.3 1.4-.1 2.8.3 3.8 1.1s1.5 2 1.4 3.1v5.3c.1.5-.3 1-.9 1.1h-.3-1.1c-.6.1-1.2-.3-1.3-.9V90v-.2-.1h0c-.2.3-.5.6-.8.8s-.7.4-1.1.6c-.5.2-1 .3-1.5.3s-1.1-.1-1.6-.2c-.4-.1-.9-.4-1.2-.7s-.6-.6-.8-1c-.2 0-.3-.4-.2-.8zm3.9-.4c0 .2.1.5.3.6.2.2.5.3.8.3s.6-.1.8-.2.5-.3.6-.4c.2-.2.3-.4.4-.6s.1-.4.1-.7V87h-.4c-.3 0-.6 0-.9.1-.3 0-.6.1-.9.2-.2.1-.5.2-.7.4-.1.2-.2.4-.1.6h0zm8.5-1.9c0-.7.1-1.4.4-2 .3-.7.7-1.3 1.3-1.8s1.3-.9 2.1-1.2c.9-.3 1.8-.5 2.8-.5.8 0 1.5.1 2.3.3l1.5.6c.3.1.5.4.5.7s-.1.6-.3.9l-.4.5c-.1.3-.4.5-.7.5s-.7 0-1-.2c-.2-.1-.5-.2-.8-.3s-.6-.1-1-.1-.8.1-1.2.2c-.7.3-1.2.8-1.4 1.4-.1.3-.2.6-.2.9s.1.6.2.9.3.6.5.8c.3.3.6.5.9.6.4.2.9.2 1.3.2s.8-.1 1.1-.2.7-.2 1-.4.6-.2 1-.2c.3.1.6.3.7.6l.3.5c.2.3.2.6.2.9-.1.3-.3.5-.5.7-.5.3-1.1.5-1.7.7-.8.3-1.7.4-2.5.4-1 0-1.9-.1-2.8-.4-.8-.3-1.5-.7-2.1-1.2s-1-1.1-1.3-1.8c-.1-.6-.2-1.3-.2-2zm12.7-8.2c-.1-.5.3-1 .9-1.1h.3 1.4c.6-.1 1.2.3 1.3.8v.3 6.4h1.1l1.8-2.7c.3-.5.9-.8 1.5-.8h1.5c.5 0 .8.1 1 .4.1.3.1.7-.2 1l-2.5 3.4h0l3 4.3c.2.3.3.6.2 1-.2.3-.5.4-1 .4h-1.7c-.6 0-1.2-.3-1.5-.8l-2-3.3h-1.2v3c.1.5-.3 1-.9 1.1h-.3-1.4c-.6.1-1.2-.3-1.3-.8v-.3-12.3zm22.5-.2c.2-.6.8-1 1.4-.9h2.1c.7 0 1.3.3 1.4.9l4.7 12.4c.2.3.1.7-.1.9s-.6.4-1 .3h-1.5c-.7 0-1.3-.4-1.4-.9l-.7-2.1h-5.1l-.7 2.1c-.1.6-.7 1-1.4.9h-1.5a1.69 1.69 0 0 1-1-.3c-.2-.3-.2-.6-.1-.9l4.9-12.4zm4.1 7.7l-.9-2.8c-.1-.2-.1-.5-.2-.8s-.1-.6-.2-.8c-.1-.3-.2-.6-.2-.9h0c-.1.3-.2.6-.2.9-.1.3-.1.5-.2.8s-.1.5-.2.8l-.9 2.8h3z"/><path d="M397.9 82.4c-.3-.4-.1-.9.3-1.2.2-.1.4-.1.7-.1h1.5c.7 0 1.3.4 1.4.9l1.5 4.6c.1.2.1.4.2.6 0 .2.1.4.1.6s.1.4.1.7h0c0-.2.1-.4.1-.7 0-.2.1-.4.1-.6.1-.2.1-.4.2-.6l1.5-4.6c.1-.6.7-1 1.4-.9h1.6a1.69 1.69 0 0 1 1 .3c.2.3.2.6.1.9l-3.2 8.3c-.2.6-.8 1-1.4.9h-2.7c-.7 0-1.3-.3-1.4-.9l-3.1-8.2zm12.6 4c0-.7.1-1.5.4-2.2a6.57 6.57 0 0 1 1.2-1.7c.5-.5 1.2-.9 1.9-1.2.8-.3 1.7-.4 2.6-.4.8 0 1.6.1 2.3.4.6.2 1.2.6 1.7 1.1s.8 1 1.1 1.6c.2.6.4 1.3.4 2 0 .3-.1.6-.4.8a1.53 1.53 0 0 1-1 .4h-6.2c.1.6.5 1.1 1 1.4s1.1.5 1.7.4c.4 0 .8 0 1.1-.1l1-.3c.3-.1.6-.2 1-.1.3.1.6.3.7.6l.3.5c.2.3.2.6.2.9-.1.3-.3.5-.6.7-.5.3-1.1.5-1.7.6-.8.2-1.6.3-2.4.3-1 0-1.9-.1-2.8-.5-.8-.3-1.4-.7-2-1.2-.5-.5-1-1.1-1.2-1.8-.2-.9-.3-1.5-.3-2.2zm7.6-1.4c0-.4-.1-.8-.4-1.1s-.7-.5-1.2-.5-1 .1-1.3.5c-.3.3-.5.7-.6 1.1h3.5z"/><use xlink:href="#B"/><path d="M277.6 102.6c-.1-.5.3-1 .9-1.1h.3 4.7c.8 0 1.5.1 2.2.2.6.1 1.2.4 1.7.7s.9.7 1.1 1.2c.3.5.4 1.1.4 1.6 0 .6-.2 1.2-.5 1.8s-.8 1-1.4 1.3h0c.4.1.8.3 1.2.5.3.2.6.5.8.8s.4.6.4.9c.1.3.1.7.1 1 0 .7-.2 1.4-.5 2-.3.5-.8 1-1.4 1.3-.6.4-1.3.6-2 .7-.8.2-1.6.2-2.3.2h-4.7c-.6.1-1.2-.3-1.3-.8v-.3l.3-12zm6.1 4.5c.4 0 .8-.1 1.1-.4.2-.3.3-.6.3-.9 0-.7-.5-1.2-1.2-1.3h-.3-2v2.6h2.1zm.3 5.9c.5 0 1-.1 1.3-.5.3-.3.4-.7.4-1.1s-.1-.8-.4-1a1.48 1.48 0 0 0-1.3-.4h-2.4v3h2.4zm6.8-2.2c0-.8.2-1.6.5-2.3s.8-1.3 1.4-1.7c.6-.5 1.3-.9 2.1-1.1.8-.3 1.7-.4 2.6-.4s1.8.1 2.6.4c.8.2 1.5.6 2.1 1.1 1.3 1 2 2.5 2 4 0 .8-.2 1.5-.5 2.2s-.8 1.2-1.4 1.7-1.3.9-2.1 1.1a9.2 9.2 0 0 1-5.2 0c-.8-.2-1.5-.6-2.1-1.1s-1.1-1.1-1.4-1.7c-.5-.6-.6-1.4-.6-2.2zm4 0c0 .4.1.7.2 1.1.1.3.3.6.6.8.2.2.5.4.8.5a3.75 3.75 0 0 0 2.1 0c.3-.1.6-.3.8-.5.3-.2.4-.5.6-.8s.2-.7.2-1.1-.1-.7-.2-1.1c-.1-.3-.3-.6-.6-.8-1-.9-2.7-.9-3.7 0-.3.2-.4.5-.6.8-.2.4-.2.8-.2 1.1zm10.2 4.1c0-.2 0-.4.1-.6s.3-.4.4-.6l3.8-4.2.4-.4.3-.3c.1-.1.2-.2.3-.2h0-.3-.3-3.3c-.6.1-1.2-.3-1.3-.8v-.3-.7c-.1-.5.3-1 .9-1.1h.3 8c.8 0 1.3.3 1.3.9v.3c0 .2 0 .4-.1.7-.1.2-.3.4-.4.6l-3.7 4.2-.4.4-.3.3c-.1.1-.2.2-.3.2h0 .2.3.5 3.1c.6-.1 1.2.3 1.3.8v.3.7c.1.5-.3 1-.9 1.1h-.3-8.3c-.8 0-1.3-.3-1.3-.9v-.4zm11.7-4.1c0-.7.1-1.5.4-2.2.5-1.3 1.7-2.4 3.1-2.9.8-.3 1.7-.4 2.6-.4.8 0 1.6.1 2.3.4.6.2 1.2.6 1.7 1.1s.8 1 1.1 1.6c.2.6.4 1.3.4 2 0 .3-.1.6-.4.8a1.53 1.53 0 0 1-1 .4h-6.2c.1.6.5 1.1 1 1.4s1.1.5 1.7.4c.4 0 .8 0 1.1-.1l1-.3c.3-.1.6-.2 1-.1.3.1.6.3.7.6l.3.5c.2.3.2.6.2.9-.1.3-.3.5-.6.7-.5.3-1.1.5-1.7.6-.8.2-1.6.3-2.4.3-1 0-1.9-.1-2.8-.5-.8-.3-1.4-.7-2-1.2-.5-.5-1-1.1-1.2-1.8-.2-.8-.3-1.5-.3-2.2zm7.6-1.3c0-.4-.1-.8-.4-1.1s-.7-.5-1.2-.5-1 .1-1.3.5c-.3.3-.5.7-.6 1.1h3.5zm5.5-2.8c-.1-.5.3-1 .9-1.1h.3 1.3c.6-.1 1.2.3 1.2.8v.3.2.1.1.1h0c.1-.2.3-.4.5-.6s.5-.4.7-.6c.3-.2.6-.3 1-.4s.8-.2 1.2-.2c.7 0 1.4.1 2 .4s1 .8 1.3 1.3h0c.2-.2.4-.5.6-.6.3-.2.5-.4.9-.6.3-.2.7-.3 1.1-.4s.8-.2 1.2-.2c.5 0 1 .1 1.5.2s.9.4 1.2.7c.4.3.6.8.8 1.2.2.6.3 1.2.3 1.8v5.7c.1.5-.3 1-.9 1.1h-.3-1.4c-.6.1-1.2-.3-1.3-.8v-.3-5.1c0-.3 0-.6-.2-1-.1-.3-.4-.4-.7-.4-.4 0-.8.1-1.1.3s-.5.4-.7.7-.3.6-.4 1-.1.8-.1 1.2v3.3c.1.5-.3 1-.9 1.1h-.3-1.4c-.6.1-1.2-.3-1.3-.8v-.3-5.1c0-.3 0-.7-.2-1-.1-.3-.4-.4-.7-.4-.4 0-.8.1-1.1.3s-.5.4-.7.7-.3.6-.4 1-.1.7-.1 1.1v3.3c.1.5-.3 1-.9 1.1h-.3-1.4c-.6.1-1.2-.3-1.3-.8v-.3l.1-8.1zm19.6 6.4c0-.6.2-1.3.6-1.8s1-.8 1.6-1.1a8.3 8.3 0 0 1 2.1-.6c.7-.1 1.5-.2 2.3-.2h.3v-.2c0-.4-.2-.7-.5-.9-.4-.2-.8-.3-1.2-.3s-.8 0-1.1.1l-1 .3a1.25 1.25 0 0 1-1.6-.3c0-.1-.1-.1-.1-.2l-.3-.5c-.2-.3-.2-.6-.1-.9a.9.9 0 0 1 .6-.6l1.7-.6c.7-.2 1.5-.3 2.3-.3 1.4-.1 2.8.3 3.8 1.1s1.5 2 1.4 3.1v5.3c.1.5-.3 1-.9 1.1h-.3-1c-.6.1-1.2-.3-1.3-.9v-.3-.2-.1h0c-.2.3-.5.6-.8.8s-.7.4-1.1.6c-.5.2-1 .3-1.5.3s-1.1-.1-1.6-.2c-.4-.1-.9-.4-1.2-.7s-.6-.6-.8-1c-.2.1-.3-.4-.3-.8zm3.9-.3c0 .2.1.5.3.6.2.2.5.3.8.3s.6-.1.8-.2.5-.3.6-.4c.2-.2.3-.4.4-.6s.1-.4.1-.7v-.3h-.3c-.3 0-.6 0-.9.1-.3 0-.6.1-.9.2-.2.1-.5.2-.7.4-.1.1-.2.3-.2.6h0zm9.2-6.1c-.1-.5.3-1 .9-1.1h.3 1.3c.6-.1 1.2.3 1.2.8v.3.2.1.1.1h0c.2-.2.3-.4.5-.6s.5-.4.8-.6.7-.3 1.1-.4.9-.2 1.4-.2c.6 0 1.1.1 1.7.2a2.73 2.73 0 0 1 1.3.7c.4.3.7.8.9 1.2.2.6.3 1.2.3 1.9v5.7c.1.5-.3 1-.9 1.1h-.3-1.4c-.6.1-1.2-.3-1.3-.8v-.3-5c0-.4-.1-.8-.3-1.1-.3-.2-.6-.4-1-.3-.4 0-.8.1-1.1.2s-.6.4-.8.6c-.2.3-.4.6-.5.9s-.1.7-.1 1.1v3.6c.1.5-.3 1-.9 1.1h-.3-1.4c-.6.1-1.2-.3-1.3-.8v-.3l-.1-8.4z"/><use xlink:href="#B" x="-47.3" y="24.4"/><path d="M389 102.6a1.11 1.11 0 0 1 1.1-1.1h.2 2.1c.7 0 1.3.3 1.4.9l2 5.2c.1.2.2.5.3.8l.3.8.3.9h0l.3-.9c.1-.2.2-.5.3-.8l.3-.8 2-5.2c.2-.6.8-1 1.4-.9h2.1c.6-.1 1.2.4 1.3.9v.1l1.1 12.3c.1.3 0 .6-.3.9-.2.2-.6.3-.9.3h-1.5c-.6.1-1.2-.4-1.3-.9v-.1l-.4-5.5c0-.3 0-.6-.1-.8s0-.6 0-.8v-.8h0l-.3.9-.3.8-.3.8-1.3 3.3c-.2.6-.8.9-1.4.9H396c-.7 0-1.3-.3-1.4-.9l-1.3-3.3c-.1-.2-.2-.5-.3-.8l-.3-.8-.3-.9h0v.8.8.8l-.4 5.5a1.11 1.11 0 0 1-1.1 1.1h-.2-1.7c-.3 0-.7-.1-.9-.3s-.3-.6-.3-.9l1.2-12.3zm22.2 1.9h-3.7c-.6.1-1.2-.3-1.3-.8v-.3-.8c-.1-.5.3-1 .9-1.1h.3 11.4c.6-.1 1.2.3 1.3.8v.3.8c.1.5-.3 1-.9 1.1h-.3-3.7v10.4c.1.5-.3 1-.9 1.1h-.3-1.5c-.6.1-1.2-.3-1.3-.8v-.3-10.4z"/></g><defs ><path id="B" d="M423.9 89.2c.1-.6.7-1 1.4-1h1.1c.4 0 .7.1 1 .4.2.3.2.7 0 .9l-1.6 3.5c-.2.6-.8.9-1.4.9h-.4c-.5.1-1.1-.2-1.2-.7 0-.2 0-.4.1-.5l1-3.5z"/></defs></svg>