<svg xmlns="http://www.w3.org/2000/svg" viewBox="0 0 701.9 508.5" xmlns:v="https://vecta.io/nano"><path d="M-.7-.9h702.3v508.8H-.7z" opacity="0" fill="#1b1718"/><path d="M658.7 460.6c-7.5-35-13.5-70.3-17.9-105.8l-19.2-145.5-3.3-21.7-130.1-70.2-134.2 55-128.8-56.3L100 186.3 47.8 469.1 210 403.4l146.4 68.1L510 395.4l146.3 77.8c1.3-1.1 2.8-2 4.4-2.6l-.5-3.4-1.5-6.6z" fill="#f8e6c9"/><path d="M483.9 142.3l26.6 252.5 146.7 69.7L610 178.8zm-131.2 29.8l1.2 298.1-148.3-66.1c-.6-50.3.3-103.6 3.4-159.5a2368.18 2368.18 0 0 1 10.2-124.5l133.5 52z" opacity=".5" enable-background="new" fill="#eda547" stroke="#eda547" stroke-miterlimit="10"/><path d="M621.6 209l-.1-2.7c-1.6-11.1-3.8-19.8-8-23.5-3.4-3-7.9-6.2-7.9-6.2-4.1-2.9-6.8-4.6-8.5-5.7-3-2-16.6-10.7-22.6-24.9-1.5-3.6-1.9-6-4.6-8.5-2.4-2.3-4.8-3.1-11.8-5.6l-10.7-4c-7.9-3.1-7.7-6-19.3-14.4-13.7-9.9-21.9-11.2-26.7-11.8-.9-.1-1.8-.1-2.7-.1-10.8.5-18.9 6.9-23.8 10.7-11.6 9.2-9.7 15.1-21.5 24.3-3.6 2.8-11.3 8.7-22.1 10.7-15.7 3-19.1-7.4-32.2-3.4-15.3 4.7-23 18.7-34.5 15.8-.4-.1-.3-.1-9.6-5.7-11.2-6.7-16.9-10.1-18.7-10.7-8.6-3.2-11.1-1.1-18.1-5.1-5.3-3-4.5-4.6-9.1-7.4-8.8-5.4-15.3-1.8-28.3-4.5-9.1-1.9-10.2-4.5-13.7-5.9-1.2-.4-2.5-.7-3.8-.9-5.4-.5-11.3 5.9-12.4 7.1-10.9 11.6-29.8 20.2-39.6 20.7-4 .1-7.9.6-11.9 1.3-2.1.4-4.2.9-6.2 1.5-8.8 2.6-9.6 4.8-15.3 5.1-8.1.5-9.4-3.7-19.2-4-5.4-.2-9.4 1-14.1 2.3l-18.1 7.9c-5.1 2-10.7 5.2-13.9 11-2.7 5-1.3 7.5-4.2 13.6-3.5 7.2-7.2 7.1-11.9 13.9-3.2 4.6-3.1 6.9-6.8 20.6-5.4 20-7.9 21.3-6.2 23.8 6.2 9.4 43.8-4.7 55.4-9.1 10.8-4.1 21.4-8.8 31.7-14.1 45.2-23.6 93.6 47.7 176 53.7 56.7 4.2 123.3-22.6 151.2-9.8 21.2 9.7 31.7 14.6 36.1 20.6 1.3 1.8 5.1 7.6 10.7 7.9 3.4.2 4.9-1.7 7.9-2.8 9.7-3.7 16.4 7.6 32.2 9.6 5.8.7 11.2-.5 22.1-2.8 12-2.6 18-4 21.5-7.6 1.7-1.8 2.8-4.1 3-6.6-1.8-8.9-9.6-64.5-9.7-74.3z" fill="#62abd0"/><g fill="#1b1718"><path d="M478.3 192.9l-115.4 39.3c22.8-6.1 15.3 6.4 36.3-3.2 34.6-14.6 77.9-23.4 79.1-36.1zm33.5 51.6c-1.3-6.2-10.2-7.5-13.2-13.1-1.8-6.2-19.9-21.7-19.3-12.3-1.3 5.2 9 4.4 10.7 10.1 2.4 6.4 18.1 24.9 21.8 15.3z"/><path d="M586.4 263.8c-11-6.9-25.3-4.5-33.6-16.5-12.3-11.9-19.9-29.2-35.5-37.3-12.5-2.7-49.6-29.4-40.6-9.6 56.4 20.4 41.7 26.3 79.8 61.1 13.7 3.6 28.3 4.1 37.4 17.6 9.9 10.6 23.1 13.5 2.2 17.3-25.1 3.6-22.5-15.3-55-6.4-15.4-17.2-11 6.6 2.7 7.3 21.9-10.7 25.3 4.2 44.1 7 10-1.2 19.3-6.2 29.8-5.2 3.6 1 11.9 4.8 10.7-2.3-14.6-9.6-29.2-19.9-42-33zm-407-50.9c-12.5 2.3-25.1 13.5-37.7 18.7-6.2 2.2-38.2 11-26.8 2.7 43-16.3 22.7-18.9 48.7-43.2 3.8-3.7 21.7 5.8 13.5-2.4-20.4-16.7-29.9 16.3-39.7 28.3-5.7 6-15.1 4.7-21.6 9.3-9.3 6.4-17.5 15.3-29.6 15.4-15.5 15 46.5-1.3 52.2-1.9 9.9-4.9 47.5-18.7 41-26.9zm436.8-29.1c-9.4-9.1-19.2-18-29.3-27.4.2.2.3.4.5.6-7.1-9-15.1-17.2-22.9-25.5-12.1-3.4-22.6-9.5-33.4-16.4-34.1-33.6-62.9-6.1-86.6 23.1-15.6 21.7-38.6-11.2-56.4 8.7-32.8 22.3-41.8-4-73.7-8.9-7.7-9-18.2-9.9-29.1-10.9-9.4-5.7-18.4-15.7-30-7.3-17.5 15.8-37 25.6-60.3 26.4-9.9-.2-19.3 9.1-29.2 5.9-33.2-9-46.8 7-60.3 34.2-2 4.4-12.3 9.2-7.5 13.9-1.5 1.7-7.3 4.4-3.9 6.3 19.4-8.2 20.8-32.7 35.1-45.5 8.3 23.5 1.2 14.8-4.2 34.8-2.2 3.5-19.5 24.1-12.3 23.7 5.6.4 7.6-6.5 9.9-11.5 8.1-4.7 8.2-11.6 11-19.5 20.8-21.4-24.8-34.5 30.7-30.6 9.8 3.6 20.6-3.8 30.6-5.3 15.4-1.8 30.3-3.5 42.7-11.8 38.6-35 31.8-5.7 6.1 3.2-8.6 7.6-18.8 9.7-28.9 14.1-6.5 4.5.2 10.4 4.6 4.1 5.4-3 12.4-1.3 17.5-5.1 4.7-6.2 10.7-7.1 17.4-9.4 3.5-4.3 7.5-6.8 11.7-10.1 2.9-3.2 1.6-11.9 6.9-11.5 17.6 17 60.8 3.3 7.8 24-36.3 20.2-36 28.5 4.3 10.9 42.5-34.9 75 10.7 115.2 29.6 17.2-5.3-49.1-28.8-31.5-29.2 12.9.7 20.9-10.8 31.6-14.5 23.6 0 41.8 25.6 64.7 30.6l-.7-.3c4.2 3.3 6.5.7 10-.8-1.9-5.2-14.5-5.6-19.6-9.9-8.4-7.6-27.6-12.9-10.6-20.8h0c15.8-11.7 26.7-31.5 45.2-39.2-3.7 5.2 1.2 11.1 4.9 15.3 2.7 7.2-10.9 11.2-3.1 19.2 15.5 20.6 37.4 35.9 53 56.4 3 3 .5 5.8.8 9.2 2.4 4.7 21.5 24.8 19.3 11.3-6.9-6.5-13.9-10.2-13.1-19.8-14.2-24.5-42.1-39.1-56.4-63.3 5.5-4.1 8.2-10.7 4-16.9-13-13.4 8.5-13.8 15.8-5 14.1 9.7 27.4 21.8 44.6 23.2l-.1-.1c15.3 13.5 25.5 32.4 43.8 42.5.9 1 14.7 9.5 13.4 5.3zm-320.8-33.5c-2.1.9-4.2 1.6-6.3 2.2-.6.1 9.1-3.6 6.3-2.2z"/><path d="M550.7 205.5h0zm-5.9-75c.1 0 .1 0 .2.1l-.2-.1zm-384.1 56.1c33.2 15.9 90.1 42.6 108.4 53.3-20.3-11.7-6.2-15.3-27.7-23.3-34.4-13.9-70.9-38.2-80.7-30z"/></g><path d="M234.7 228.9l.7 120.8 121.8 40.4 83.6-25-5.7-111-61.2-22.5-57.4-21.8-81.8 19.1z" fill="#a96642"/><path d="M262.9 252.5l-1.6 16.4-8.5 18.5 7.9 3 1.7-1.7 16.6 6 2.1-35.8zm29.7 9.8l-4.8 34.9 19.5 6.9 3.6-34.8zm29.2 13.7c0 .6-2.3 32.1-2.3 32.1l23.4 7.9.8-32.4-23.2-7.7 1.3.1zm40 12.7l-1.2 29.4 20.6-2.6 2.4-29.6zm29.4-1.8l-1.7 27.9 21.9-2.9 1.3-28.8zm27-5.6l-.8 27.4 16.2-2.3.4-28.3zm-26.3 53.2l1 43.2-36.6 9-35.8-10.5 1.9-46.2 33.5 10.5zm-103.7-14.3l-2.6 36.6 12.1-8.3 1.6-25.3z" opacity=".5" enable-background="new" fill="#f8e6c9"/><path d="M625 427.3c6.6 3.2 13.1 6 19.5 9.4v-.1c2.2 1.9 3 1.9 3.4 1.7.6-.4.2-2.3-.6-6-.1-.5-.5-2.3-1.4-5.7-.3-1.2-.6-2.2-.8-2.9a25.91 25.91 0 0 1-9.4-1.3c-2.9-1-5.1-2.3-6.6-3.4-1.2-.7-2.4-1.3-3.6-2-11.2-15.9-10.2-45.7-16.1-66.8 0 .1 0 .3.1.4-1.1-2.8-4.4-14.2-4.7-20.3-3.4.5-6.9.9-10.4 1.3.2.2.4.3.6.5 4.5 21 9.4 42 12.6 63.2 5.9 17-.6 12.3-12.8 6.1-30.1-14.8-61.3-27.2-91.6-41.4-15.9-6.5-35.1 7.9-51.9 10.5-32.9 11-65.3 23.6-97 37.8-11.3 6-23.4-7.3-34.7-10.3-20.2-8.6-40.7-16.5-60.6-25.7-18.6-8.2-38-14.1-57.2-20.6-8.9.1-18.9 7.3-28 10.1l.7-.3c-10.5 4.6-20.8 9.6-30.8 15.1-6 3.4-17.4 9.7-11.4-1-2.2-10.8.7-21.8 1.1-32.8 1.8-4-.1-39.6 3.1-50.2-1.3.1-2.6.2-3.9.2-1 0-2-.2-3-.7l-6.4 66c-3.4 9.6 3.9 26.9-6.1 31-17.8 7.8-34.7 17.2-51.9 26.3-2.1.6-4.4 2.7-6.8 4.4.9 1.9 1.4 3.9 1.5 6.1.1 1.6-.2 3.1-.6 4.5 19.2-11.4 42.8-19.1 60-30.7 2.6.4 2.1 23.9-1.3 34.8h.1c1 0 2.1-.1 3.1-.1h.6c.1 0 .2-.1.5-.1 1.7-.3 3.4-.7 5-1.1 1.5-.4 2.9-.8 4.4-1.3-7.7-6.1 0-23.7-1.7-32.4 2.9-8.8 19.9-8.5 27.7-14.7l-.2.1c57.2-32.5 49.3-23.8 110.2.7 23.3 9.9 46.8 19.1 69.7 29.9-.7 4.5-19.5 12.2-26.3 17.7-5.6 3-10.3 7.2-15.4 7.8 1.8.7 3.6 1.3 5.4 2l6.9 2.7c6.5-6.2 34.8-22.2 40.5-25.4 19.9 6.4 39.7 13.3 58.4 22.8 3.1-1.6 6.3-3 9.5-4.2-.5-1.2-1.2-2.4-3-2.2-13.1-5.4-25.7-12.2-39.3-16.6-17.9-4.7-13.1-6.3 1.5-12 27.2-9.1 116.5-51.9 132.7-37.8 27.8 14.2 57.4 24.8 84.7 39.8 17.7 10.5 21.2 7.1 24.3 31 .9 1.6 1.4 3.4 1.5 5.3.5.2 1 .4 1.4.7 1.1.7 2.3 1.4 3.6 2 .2.1.3.1.4.2.1 0 .1 0 .2.1.5.2 1.1.4 1.6.6.7.3 1.4.5 2 .7-.4-5.1-.2-10.9-1.3-13.5.9-3.5-1.3-6.7-1.7-9.9z" fill="#eda547" stroke="#eda547" stroke-miterlimit="10"/><g fill="#1b1718"><path d="M596.2 348.4v-.2h0v.2zm6.4 31.2h0 0 0zm-291 53.4c6.8-5.5 25.6-13.3 26.3-17.7-22.9-10.9-46.4-20-69.7-29.9-60.9-24.4-53-33.2-110.2-.7l.2-.1c-7.7 6.2-24.7 6-27.7 14.7 1.7 9-6.6 27.5 2.6 33 5.3-2.2.6-10.5 2.3-15.1-2.2-19.8 9.3-19.7 24.4-26.9 17.1-5.1 34.4-26.5 52.2-17.8l103 38.3c4.1 2.2 18.6 5.1 9.9 8.3-6.5 2.4-12.6 5.4-18.8 8.2-6.5 3.4-13 6.2-19.3 10.1 9.3 7.9 16 .4 24.8-4.4zm-18.1-32.1c-1.8-.7.1 0 .8.3-.3-.1-.6-.2-.8-.3zm114.9 42.5c-19-9.8-39.1-16.8-59.4-23.3-8.3 4.6-64.4 36.4-31.8 25.7l36-19.3c12.5 4.6 24.9 10.3 36.9 15.5 4.5 2.2 8.1 3.8 12.5 5.7 2-1.4 10.7-3.2 5.8-4.3zm-26-8.7c-.4-.1-.7-.3-1.1-.4.4.1 2.3.8 1.1.4h0zm5.6 2.5c-.4-.2-1.1-.5-1.5-.7.6.2 1.1.5 1.7.8l-.2-.1zm3.1 1.3c.3.1.7.1.9.4-.3-.2-.6-.3-.9-.4h0z"/><path d="M119.9 399.5c-20.3 13.7-49.4 21.9-69.8 37.2-.3 2-.7 4-1.3 5.9 9.7-.6 32.3-19.1 40-20.9 32.6-14.5 26.5-16.3 23.9 17.1 8.4 8.4 10.8-38.6 7.2-39.3zm24.2-23c10-5.5 20.3-10.5 30.8-15.1-.2.1-.5.2-.7.3 9.1-2.9 19-10 28-10.1 19.2 6.5 38.6 12.4 57.2 20.6 19.9 9.3 40.4 17.1 60.6 25.8 11.3 3 23.4 16.3 34.7 10.3a1046.68 1046.68 0 0 1 97-37.8c16.8-2.6 36-17 51.9-10.5 30.3 14.3 61.5 26.7 91.6 41.4 12.2 6.3 18.7 10.9 12.8-6.1-3.2-21.2-8.1-42.2-12.6-63.2-18.9-18.9 19.9 81.2 1.6 63.6-26.2-12.2-52.4-24.4-79.1-35.4-14.5-7.1-17.6-11.1-33.3-4.3-22.2 8.2-44.6 15.1-67.2 22.4-20.4 7.1-39.7 16.6-60.2 23-3 1.1-5.7 3.2-8.7 1.3-6.7-3-13.8-5.5-20.6-8.6-22.5-10.4-45.6-19.4-69.2-26.8-15-5.5-29.5-12.6-44.1-18.9-16.6-9.5-32.3 5.2-49.7 11.1-13.6 4.5-33.3 24.2-26.5-2.4 2-21.5 2.9-43.1 3.8-64.6-10.3-16.9-6.1 44.9-8.5 50.3-.5 11.1-3.4 22.1-1.1 32.8-5.9 10.6 5.4 4.3 11.5.9zm481.4 50.7c.4 3.2 2.5 6.5 1.8 9.7 2.3 5.7-1.2 25.6 7.9 22.4 2-6.1-1.9-13.5-1.7-20-2.4-6.8 21.2 13.8 14.2-1.1-7.2-4.2-14.7-7.3-22.2-11zM130.2 290.5c-8.7-24.4-13.6 86.8-13.6 92.4-14.9 9.1-58.5 23.7-65.6 37.5v1.2c4.4 3.3 10.2-5 14.7-6.3 17.2-9 34.2-18.4 51.9-26.3 9.9-4 2.7-21.3 6.1-31l6.5-67.5zm487.7 150.3c-3.1-23.9-6.6-20.5-24.3-31-27.3-15-57-25.6-84.7-39.8-16.4-14-105.7 28.8-132.9 37.9-14.6 5.7-19.4 7.3-1.5 12 13.6 4.4 26.2 11.2 39.3 16.6 4-.5 2.7 6 5.3 4.2 7.5-3.5 20.4-4.5 6-8.2l-46.7-18.2c23.9-10.7 48.7-19.3 73.2-28.5 9.8-3 20.1-7.5 30-9.2 4.9-1 13.5-7.5 17-4.7 36 18.1 74.5 32.5 109.8 52.7 1.8 8 1.9 17.7 6.7 24.5 6 1.8 4.4-5.1 2.8-8.3zm9.8-31.7c-6.1-26.1-10.1-52.7-16.8-78.7-11.1-14.6-3 15.4-1 20.1 0-.1 0-.3-.1-.4 6 21.1 5 51 16.1 66.8 1.2.6 2.4 1.3 3.6 2 4.4 1.1 15.9 11.4 16.3 2.5-3.8-6.2-16.2-5.2-18.1-12.3zm-183.3-53.3l-.4-1.6c-.1-.5-.3-1-.4-1.5-.6-1.9-.9-4-.8-6v-.1-.1l-.2-4.4-.4-8.4-1.3-39.6v-.3-.1l-.8-.1h.7c-.6-11.4-.3-23.6.2-35.1v-.3l-.1-.2c-.6-1 0-2.4.7-4 .7-1.7 1.5-3.5.7-5l-.2-.4-.4-.1c-7.3-1.3-14.5-3.1-21.6-5.2-1.4-.4-2.9-.8-4.3-1.3h-.1c-12.8-3.1-25.5-8.1-33.9-11.6l-.2-.1c-1.2-.4-2.5-.7-3.8-1.1-7-2.3-13.9-5-20.7-8l-9.9-4.2h-.2c-1.3-.2-2.6-.6-3.8-1h-.1c-1.3-.3-2.7-.6-3.9-1-4.4-1.2-8.7-2.7-12.8-4.5-1-.5-2.1-.9-3.1-1.4-4.6-3.3-10-2.6-14.9-1.1l.2-.2-3.1.9c-7.6 2-15.4 3.5-23.3 4.4h-.1c-1.4.3-2.6.5-3.8.7l-3.7.6h-.1c-1.2.3-2.6.7-4.1 1-5.4 1.3-10.9 2.1-16.5 2.3h-.1c-1.2.2-2.3.5-3.5.9-1.3.5-2.6 1-3.9 1.6-4.1 1.7-8.4 3.5-12.2 2.1-1.7-.8-2.6.7-3.2 1.6-.2.4-.6.8-.9 1.1l-.4.2-.1.5c-.2 1.3.2 2.6 1.1 3.6.9 3.6 1.3 7.3 1.3 11l-.6-.3.1 1.6.3 3.5.1 1.7.2-.1c.4 12.9.1 26.1-.2 38.8-.3 12.1-.6 24.6-.2 36.9v.2h.8l-.8.2c.4 1.5.3 5.3.1 9.2-.2 6.4-.3 11.5.6 14.6l-.4-.2.5.5a4.45 4.45 0 0 0 1.2 2.1c.5.4 1.1.7 1.7.7 10.5 4.5 21.5 8.2 32.1 11.8 9.2 3.1 18.7 6.3 27.8 10 5.7 3.4 12.1 5.2 18.3 6.8 3.1.8 6.3 1.7 9.4 2.8h0c4.4 1.2 8.9 2.8 13.3 4.4 2.4.9 4.9 1.7 7.4 2.5 1.5.5 2.8.9 4.1 1.3 2.2.8 4.6 1.2 7 1.2 5.3 0 10.5-1.9 15.5-3.7a58.05 58.05 0 0 1 11.5-3.3h.1l3.8-1.1c4.2-1.1 8-2 11.6-2.7h.1l3.7-1.2.2-.1 3.9-1.2.3-.1 3.4-1.2c3-1.1 7.1-2.5 11.3-3.5 1-.2 1.9-.5 2.9-.7l1.3-.3h0c.6-.2 1.2-.3 1.8-.5 7.5-2.2 17.7-5.1 18.1-14.9v-.1l.1-.1zm-34.5 8.9v-2.8-2.2c0-1.2 0-2.4-.1-3.6-.1-4.3-.1-7.6 0-10.6h0c.1-2.7.1-5.4.1-7.9h0v-.8-.6h-.2.2c-.2-1.7-.2-2.9.3-3.5.7-.6 1.6-.8 2.4-.8v-.7l.2.6c3.6-.9 7.2-1.6 10.7-2.4 4.4-.9 8.8-1.9 13.3-3l.3 5 .3 6.2c-.1 1-.1 2-.2 2.9 0 1-.1 2-.1 3-.1 3 .1 6 .5 8.9.1.9.3 1.8.5 2.7 0 1.1.3 2.2.7 3.3 0 .1.1.2.1.3-.4 3.9-5 5.7-9.5 7.3-1.7.6-3.4 1.3-5 2.1-1.2.4-2.4.7-3.8 1.1-2.7.8-5.5 1.5-8.3 2.2l-2.6.6c0-.7 0-1.4.2-2.1v-.1-5.1h0zm-3-29h0 0v3.1 1.1c-.2 5.8-.2 11.6-.1 16.9 0 1.1 0 2.2.1 3.3v1.9 1.9 3 .1.1a9.15 9.15 0 0 1 0 3.3c0 .3-.1.7-.1 1.1-.8-.5-1.6-.9-2.4-1.3-1.3-.7-2.6-1.4-3.8-2.2-.9-.5-1.7-1-2.5-1.6-.9-.6-1.8-1-2.6-1.4s-1.5-.7-2.2-1c-.2-2.9-.1-5.8-.1-8.6 0-2.2.1-4.5 0-6.8h0c-.1-1.9-.1-3.8-.1-5.4 0-1.2 0-2.5.1-3.7.2-1.8.6-2.8 1.4-3.4s2.1-1 4.3-1.4c.4-.1.7-.1 1.1-.2 1.8-.3 4-.7 6.6-1.4v1c.3.5.3 1 .3 1.6h0 0zm-13.3 31.9c.4.2.7.4 1.1.6.8.5 1.6.9 2.4 1.4l.1.1c1.2.6 2.4 1.2 3.5 2.1.3.2.6.4.8.6.8.5 1.6 1 2.4 1.4-.4.1-.7.2-1.1.3l-5.1 1.5-4 1.1v-.1c0-1-.1-2.1-.1-3.1v-4.4-1.5h0zm-3 6.7c-2.1 1.8-4.4 3.2-7 4.2-1.3.5-2.7 1-4.1 1.4a93.03 93.03 0 0 1-6.8 1.5c.3-.4.5-.9.6-1.4l.2-.5-.3-.4-.1-.1.8-.2h-.9l-.4-.4.1-.2-.4-.1c-.3-.3-.6-.5-1-.7 1.4-.3 2.8-.9 4.1-1.7l3.5-1.2c1.2-.4 2.4-.7 3.6-1h.1c.9-.3 1.8-.5 2.7-.7s1.8-.5 2.6-.7l.7-.2 2.1-.6c-.1 1-.2 2-.1 3zM296.2 353c-.2 3.3-.3 6.6-.4 9.9 0 .9-.1 1.9-.1 2.8-.2-.1-.3-.2-.5-.2-.5-.2-1-.5-1.5-.7h0c-1.9-.8-3.8-1.6-5.8-2.2-1-.3-2-.7-2.9-1l7.5-5.7 3.7-2.9zm-20.9-7.4l-.5-.3-.4.3c-.3.2-.6.4-.6 2.6-.3-.1-.7-.3-1-.4-1.4-.6-2.8-1.1-3.9-.7l-1.4.6 1.2.9c1.4 1 3.4 1.4 5.6 1.8 3.9.8 6.3 1.4 6 3.5h0 0c0 .3-.1.6-.1.9-.8-.2-1.6-.5-2.4-.7-.4-.1-.7-.3-1.1-.4-.5-.2-1-.4-1.5-.5-3.1-1.1-6.2-2.2-9-2.5l-3.3-.3 2.8 1.9c1.7 1.1 4.2 1.7 6.7 2.2 1.3.3 2.6.5 3.7.9.4.1.8.3 1.2.4.9.3 1.7.9 2.3 1.7.4.7.4 1.5.2 2.3-5.7-1.7-11.4-3.6-16.9-5.9-4.3-1.7-8.7-3.4-13.2-4.8-1.5-1-3.7-1.6-6-2.1-3.9-.9-6.4-1.7-6.9-3.6 1.4.4 2.8.9 4.3 1.4 2.8 1 5.7 2 8.1 2.2l3.4.2-2.9-1.8c-1.9-1-3.9-1.6-6.1-2-2.7-.6-5.6-1.2-6.6-2.8-.4-.6-.5-1.3-.4-2a341.11 341.11 0 0 1 10.8 3.5c5.7 1.9 11.7 3.8 17.4 5.3l.6-1.6c-4.4-1.8-9-3.4-13.7-4.5-5.3-1.5-10.7-3-15-5.2 0-1.3 0-2.6-.1-3.9 0-1.6-.1-3.2-.1-4.8 2.9.8 5.9 1.9 8.9 2.9 4.8 1.8 9.7 3.2 14.8 4.3l.4-1.6c-4.2-1.5-8.6-2.8-12.8-4.2l-8.7-2.7h-.1-.1c-2.4-.2-2.5-1.1-2.3-3.8v-.7c.5.2 1 .3 1.4.5 1.6.6 3 1.2 4.2.8l2.7-.8-3.2-.9c-3.9-1.1-5.9-1.7-5.5-5.2 2.5.7 5.3 1.7 8 2.6 4.5 1.6 9.2 3.2 12.9 3.6l.4-1.7-21-6.7c-.3-.3-.2-1.3-.1-2.2 0-.4.1-.7.1-1.1 2 .6 4.1 1.3 6.2 2.1 3.8 1.4 7.7 2.7 10.8 2.9l5.6.4 3.2 2.4c1.6 1.2 4 1.8 6.3 2.4l2.1.6c-1.8.8-4.1 2.1-4.1 3.6 0 .8.6 1.5 1.3 1.7-.1.9-.2 1.8-.2 2.6-1-.3-2.1-.7-3.2-1.1-2.2-.8-4.6-1.7-6.5-1.7h-3.5l3.2 1.6c1.4.6 3 1.1 4.5 1.5 2.3.6 4.6 1.1 5.3 2.5.4.8.4 2-.1 3.5-.4.8-.3 1.7.3 2.3 1.4 1.3 4.8-.1 9.5-2.1.7-.3 1.4-.6 2-.8l.5.1c2.5.4 2.1 4.3 1.2 9.7-.3 1.8-.6 3.6-.6 5.4-1.5-.5-3-1-4.5-1.4h-.1c.3-2.6-.1-2.9-.4-3.1zm144.5-96.4l.2.1c.8.3 1.6.7 2.4 1 .3.1.6.3.9.4-18 1.5-35.9 4.3-53.4 8.4-1.5.3-2.9.7-4.4 1.1-.6.1-1.2.3-1.8.4-2.3.4-4.5 1.1-6.7 1.8-.4.1-.8.2-1.2.4-.9.3-1.4.5-2 .1l-.2-.1c-1.5-.4-3.1-.9-4.6-1.4-15.8-4.8-31.6-10.6-46.8-16.3-18.1-6.7-36.8-13.6-55.7-18.9 1.7-.6 3.5-1.2 5.3-1.7l3.9-1.2c5.2-.8 10.6-1.9 16.6-3.3 1.3-.3 2.7-.6 4-1 1.3-.1 2.6-.3 4-.5 1.2-.2 2.5-.4 4-.8 4.2-.6 8.4-1.4 12.5-2.6 7.7-1.9 15.6-3.9 23.1-2a88.69 88.69 0 0 0 3.4 1.3l3.6 1.5c4.4 1.8 9 3.7 13.7 5.2 1.4.4 2.8.9 4.2 1.3l3.6 1.2c8.3 3.7 16.9 6.9 25.6 9.6 1.4.5 2.9.9 4.3 1.3l10.8 4c7.4 2.9 14.9 5.5 22.6 7.6l4.1 1.4c1.2.8 2.6 1.2 4 1.7h0zm15.7 24.9l.3 5c-.2-.8-.7-1.5-1.4-2-1.5-1-3.8-.8-7.6.8l-.5.1c-9.1 2-9.8 2.1-9.5 6.9a36.9 36.9 0 0 1-.6 9.4v.1.1c.1 3-.3 3.9-2.9 4l-1.2.1.4 1.1c.5 1.3 2 .8 3 .5.1 0 .2-.1.3-.1-.1 1.2-.2 2.4-.5 3.7-.5 3.2-1.1 6.6.7 8 1 .8 2.6.8 4.9-.2l-.2-.4.2.4c1.5-.7 3.1-1.1 4.8-1.2 1.5-.2 2.9-.5 4.3-.9l-.1-.2.1.2c.4-.1.8-.2 1.1-.2.9 0 1.8-.4 2.4-1 .2 0 .4-.1.5-.2.5-.3.8-.9.8-1.6v-.5l.2-7.9c.2.1.5.1.7 0h0c.4 6.4.5 10-.1 11.8-.6 1.6-1.9 1.8-5.8 2.3-4.7.5-9.4 1.6-13.9 3-5.5 1.4-11.3 2.7-19.1 4.1l-1.6.3c-.8.1-1.5.3-2.3.4l-1.3.3-20.7 4.6c-1.2.2-2.5.5-3.6.7h-.4l.3-1.5h.1l-.1-2-1.7.1v.1.5l-2.1.3c-.8 0-1.6.2-2.3.4l-3.9.6c.2-2.5.1-5-.1-7.5v-.1c-.1-.4-.1-.7-.2-1.1l-.3-1.8c-.4-2.6-.5-5.2 1-7.2l1-1.3h-1.7c-.3 0-.6-.1-.9-.2 0-2 .1-4 .3-6 .3-4.2.7-8.6-.7-12.5-.2-1.4-.4-2.9-.5-4.4-.2-3.7.5-4.8 1.2-5.1s1.4-.7 2.1-.9l1.1.3-.8-.4c1.4-.6 2.8-1.1 4.3-1.5l25.7-4 7.8-1 39-6.5v.6c-.6 2.1-.3 6.3 0 10.6h0zm.7 47.5c-.6.7-2.1 1-4.9 1h-.1-.1c-2.5.4-4.9 1-7.3 1.6l-5.6 1.3-13.9 3.3c-1.5.4-3.1.7-4.7 1.1-4.9 1.4-9.9 2.6-14.7 3.8l-2.1.5c-1.4.4-2.8.7-4.2 1.1s-2.8.7-4.2 1.1c-1.6.4-3.2.7-4.8 1.1h0c-.9.2-1.8.4-2.8.7l-.9.2c-.6.1-1.2.3-1.8.4-2.2.6-4.3 1.1-6.3.1-.6-.7-1-1.6-1-2.5.2-2.3 5.1-3.2 9.5-4 2.4-.3 4.7-.9 7-1.7 1.3-.3 2.5-.6 3.8-.8l17.9-3.7 1.7-.3 4.6-.9 6.6-1.3 28.9-5.9c.1 2 0 3.2-.6 3.8h0zm-45.9 18.9c0 .5.1 1.1.1 1.5 0 .9 0 1.9-.1 2.8v2c-1.4.1-2.9.2-4.6.5-.8.1-1.6.3-2.6.4-1.3 0-2.5.3-3.6.9-.2.1-.4.2-.6.2-1.3.5-2.2.7-3.1.2-1.2-1-1.5-2.3-1.6-3.9v-1.4c0-1-.1-2-.2-2.9 1.9-.2 3.9-.5 5.8-1 1-.2 2-.5 3.1-.7 2.4-.6 4.7-1.3 6.9-1.9l.6-.2c-.2 1.2-.2 2.4-.1 3.5h0zm-24.9 40.2c1.1.1 2.1-.1 3.1-.6.2-.1.5-.2.7-.3-.2.2-.4.3-.7.5-1.4.8-3.1.9-4.9.9h-.5c.8-.1 1.6-.3 2.3-.5h0zm-106.8-65.4l-4.5-1.4-17.4-5.5h-.1c0-1 0-1.9.1-2.9 0-.3 0-.6.1-.9l42.1 14c-4.7 2-9.1.5-14.1-1.3-.5-.2-.9-.3-1.4-.5l-4.9-1.7.1.2zm23.3 18.3h0 0 0zm-1.7-8.3c-.6 6.3-.7 6.8-8.6 9.1.6-9.1.8-9.6 9-12.6-.2 1.4-.3 2.5-.4 3.5zm101.1 45.1h0l-.2.1c-.9.4-1.8.6-2.7.7h-.3-.1c-2.6.8-5.2 1.6-7.7 2.5-4 1.4-8.1 2.7-12.3 3.7a38.5 38.5 0 0 0-.9-6.7c-.7-4-1.4-7.9.1-10.5 3.7-5.8 10.6-6.3 18-7 2.6-.2 5.2-.4 7.7-.9 1.4-.3 2.8-.5 4.2-.8 1.2-.2 2.2-.4 3.2-.6v.9h0v7.3c.1 4.8.1 7.5-.5 8.7-.5 1-1.6 1.2-4.5 1.8l-1.6.3c-.8.2-1.6.3-2.4.5h0zm-59-3.5c-.9-1-.7-3-.5-5.2h0c.1-.8.1-1.5.2-2.3l2.5.3-2.5-.9c.2-3.6.2-7.2.2-10.6l2 .6 9.4 2.8c1.5.5 2.9.9 4.2 1.3h.1c1 .2 2 .5 3 .8h0c2.5.8 4.9 2 7.1 3.4l.9.5a27.55 27.55 0 0 1 2.9 1.7c.1.4.1.9.1 1.4 0 3.3.2 6.7.7 10 .3 2 .5 4 .6 6.1-2.2-.9-4.6-1.7-6.9-2.5-.9-.3-1.9-.6-2.8-1l-3.6-1.2c-5.3-1.7-10.1-3.1-14.7-4.2h-.1l-.1.3v-.4c-.9.2-1.9-.2-2.7-.9zM297 340.7h0c1.2 7.7-2.5 10.1-7.5 13.5-1.4.9-2.9 1.9-4.3 3.1h0 0l1.2-14.4c.1-.7.2-1.4.2-2.1 0-.4.1-.9.1-1.3h0c0-.3.1-.6.1-.9.1-.9.3-1.9.3-2.9l.3-2.6c0-.6.1-1.2.2-1.9s.2-1.2.2-1.8c.2-1.2.4-2.5.4-3.7 0-.5.1-1 .1-1.5l.1-.5v-.3c.1-.5.2-1 .2-1.5 9.8 2.5 9.6 3.8 8.8 9-.4 3.2-.6 6.5-.4 9.8zm66.7-16.2c.8 0 1.4.4 1.7 1.1l-6.5.9-1.7.3c.2-.6.7-1.2.9-1.2.9-.1 1.8-.3 2.7-.5.3-.1.5-.1.8-.2l2.1-.4zm7.7 23.7c.1.6.2 1.3.2 1.9-2.6.8-5.2 1.4-7.8 1.8-2.4.4-4.9.9-7.2 1.6.1-.8.1-1.7.1-2.6 0-3.3 0-6.5 3.2-7.9 1.9-.9 3.9-1.5 6-1.5a9.66 9.66 0 0 1 5 1.4c1 .9.9 2 .7 3.7-.1.5-.1.9-.1 1.4l-.1.2h0zm-49-5.9v-.2c0-1.9.3-4 .5-5.9l.3-2.8c2.3.8 4.2 1.3 5.7 1.8 5.9 1.6 6.6 1.8 4.9 11.5-.9-.3-1.8-.5-2.7-.8-2.9-.9-5.9-1.7-8.9-2.4.1-.5.1-.8.2-1.2h0zm29.4 8.2c-.3 1.2-.4 2.5-.2 3.7l-4.8-2.4c-2.2-1.1-4.5-2.3-6.7-3.3h-.1c-.8-.3-1.6-.5-2.3-.8.3-3.1.7-6.2 1.1-9.3.5.2 1.1.4 1.7.6 1.2.8 2.5 1.4 3.8 1.7.6.2 1.3.3 1.9.5.8.2 1.5.4 2.2.6 1 .3 4.1 1.4 3.7 4.3 0 .3-.1.7-.1 1-.1 1.1-.2 2.3-.2 3.4h0zm1-22.6c0 .1-.1.1-.1.1-.6-.1-1.2-.3-1.8-.6-.5-.3-1.1-.5-1.6-.7l-4.3-1.4h0l.5-.3c.3-.2.6-.6.6-1l1.8.6.3.1a24.13 24.13 0 0 1 2.5.8 5.51 5.51 0 0 1 2 1.7c0 .1.1.4.1.7h0zM237.1 297h0v-.2-1.3l57.6 19.2 51.5 17.2h.1c2.6.2 4.7 1.3 5.7 2.8.7 1.2.9 2.7.5 4l-3.3-1.2c-1.4-.5-2.8-1-4.2-1.6h-.1c-1.5-.5-3-1.1-4.4-1.5l-38.2-12.8-23.3-7.8c-2.8-1.6-8.9-3.3-16-5.3-10.6-3-23.8-6.6-25.9-10.4-.1-.3-.1-.7 0-1.1zm135.4 31.1c-1.5.3-3 .7-4.5 1-3.2.7-6.4 1.4-9.7 1.9 2.2-1.8 5-2.9 7.9-3.1l.1.1v-.1c.8-.1 1.5-.1 2.3-.1h0 0c.9-.1 1.8-.1 2.7-.1h1c.9 0 1.8-.1 2.7-.1-.7.1-1.6.3-2.5.5h0zm-55.6-12.5c.4-.1.6-.5.8-1.4a89.97 89.97 0 0 0 10 3.3c6.5 1.9 15.4 4.5 16.3 7l.2.5-27.8-9.3.5-.1zm45.8-43.2l-4.8.6c.5-.1.9-.2 1.4-.2h.2c2.5-.6 5.1-1.1 7.6-1.5-1.5.3-2.9.7-4.4 1.1h0zm-57.1-16l-16-5.2-23.9-8.2 17.3 5.6 15.9 5.2 23.9 8.2-17.2-5.6zm12.9 6.6l17.1 5.9 4.3 1.5 4.3 1.5a24.13 24.13 0 0 0 2.5.8c2.3.7 4.5 1.3 5.2 2.8.4 1.1.4 2.3-.1 3.4v.1.1 5.2c0 1.1.1 2.2.3 3.2l.1.4c.1.8.2 1.5.2 2.3-.4-.2-.9-.4-1.3-.6s-.8-.4-1.2-.5c-1.3-.6-2.6-.9-4-.9l-.1 1.7c1.1.2 2.1.5 3.1 1l.2.1c1.9.6 3.3 2.1 3.8 4 .1.6-.1 1.3-.7 1.6-.2.1-.5.1-.7 0-.5-.4-1.1-.7-1.7-.9-.9-.6-2.1-.6-3.1-.2l-4 1.8 4.4-.1c.7 0 1.4 0 2 .2.2.1.4.2.5.3.3.2.6.3 1 .5.1 0 .1.1.2.1 1.7 1.6 1.6 4.9 1.6 8 0 1.2 0 2.4.1 3.5-.4-.2-.9-.4-1.3-.6-.2-.1-.3-.2-.5-.2-.8-.5-1.7-.9-2.7-1-1.8-.7-3.3-1.1-4.4-.9l-3.7.8 3.7.8c1.1.2 2.1.5 2.9.7h.1.1c.3 0 .6 0 .8.1s.3.1.5.2h.1a27.68 27.68 0 0 1 1.6.6c1 .6 1.8 1.5 2.3 2.6.5 1 .8 2.2.9 3.3 0 1.1-.1 2.2-.3 3.2-.2 1.4-.3 2.9-.2 4.4h-.3c-.5-.1-.9-.2-1.3-.4h-.1l-.4-.1a24.13 24.13 0 0 1-2.5-.8c-1.4-.6-2.1-1.3-1.2-3.3l.3-.7-.7-.4c-.2-.1-.3-.1-.5-.1s-.4 0-.5.1c-.7.4-.7 1.3-.8 2.6v.3c-3.3-1.3-6.9-2.4-10.5-3.5-5.5-1.7-11.1-3.5-15.6-5.9.3-1 .3-1.5 0-1.9-.2-.3-.6-.3-1-.2-.8.3-1.2 1.8-1.3 2.8-.2.6-.5 2.5.1 3.1l.4.4-3.3-1.1-37.6-12.5c-2.8-1.6-8.3-3.1-14.7-4.8-9.6-2.6-21.5-5.8-23.8-10-.2-.4-.4-1-.3-1.5 1.2.4 2.7.9 4.1 1.5 2.8 1.1 5.4 2.2 7.3 2l4.7-.4-4.5-1.3c-6.1-1.7-9.3-2.7-10.6-4.4-1.3-1.6-1-4.2-.6-9.5.1-.7.1-1.4.2-2.2 1.7.5 3.5 1.2 5.3 1.9 3.2 1.2 6.5 2.5 9.4 2.9l6.3.9-5.8-2.5c-2.7-1.1-5.4-2.1-8.2-2.8-6.2-1.8-7.8-2.2-6.9-13.2 1.3.4 2.6.9 3.9 1.4 2.6 1 5.2 2.1 7.5 2.2l4.3.3-3.9-1.9c-1.6-.7-3.3-1.3-5.1-1.8-4.9-1.4-7.7-2.4-7-6.8 1.3.5 2.9 1 4.3 1.4 3.2 1 6.5 2 8.1 3.4l1.4 1.2v-1.8c0-.2-.2-2.4-1-2.8l-.5-.2-.4.3a1.38 1.38 0 0 0-.3.4c-2.1-.8-3.9-1.3-5.3-1.7-5.9-1.7-6.6-1.9-6.5-11.4 4.5 1.5 9.1 3.1 13.6 4.8 7.2 2.6 14.7 5.3 21.7 7.2l.5-1.6c-4.7-1.8-9.5-3.4-14.2-5l-9.4-3.3c-1.6-.7-3.3-1.3-5-1.7-4.9-1.4-8.1-2.5-7.8-6.7l28.5 9.8c7.9 2.9 16 5.7 24.2 8.3l29.4 10.2zm-13.1 73.1c-2.2-.5-4.3-1.1-5.1-2.4-.3-.7-.4-1.5-.2-2.2 1.9.7 3.8 1.3 5.8 1.7 3.4.9 7 1.8 9.2 3.5l.7.6.5-.7c.4-.6.5-1.4.5-2.1 0-.3 0-.7.1-1v-.2c.1-.9.1-1.5-.4-1.9l-.5-.3-.4.3c-.5.3-.7 1.5-.8 2.4-1.8-.6-3.6-1.1-5.4-1.7l-8.8-2.8c.1-1.3.2-2.5.2-3.5l18.5 6.2c-.1 1.8-.1 3.6-.2 5.3 0 1-.1 2-.1 3-.5-.1-.9-.3-1.4-.5-1.3-.5-2.6-.9-4-1l-1.2-.1-2.3-1.2c-1.6-.6-3.1-1.1-4.7-1.4zm95.9-14.4h-.2c-1.4.3-2.8.5-4.3.8-4.1.8-8.3 1.8-12.3 2.7 4.1-1.2 8.2-2.1 12.4-2.8l1.4-.3c.9-.2 1.7-.3 2.6-.5 2.3-.4 5.1-.9 7.9-1.6h0c4.4-.9 8.9-2 13.2-3l8.3-1.9 2.9-.6c1.1-.2 2.2-.5 3.4-.7v.7c-12.1 2.8-24.4 5.1-35.3 7.2h0zm30.5-16.9h0v.6.1c-1.1.2-2.2.4-3.3.8-.6.2-1.1.3-1.7.5.1-1.6.1-3.3 0-4.9-.1-2.7-.2-5 1-6.3.7-.8 2-1.3 3.9-1.4.2 2.5.1 5.1.1 7.6.1 1 0 2 0 3h0zm-4.5-15c.1-2.8.2-5.6.1-8.4.4-.1.8-.2 1.2-.4.7-.2 2.6-.8 2.9-.5.2.1.4.7.2 2.7h0v3.2c.1 4 .2 4.9-4.5 5.6 0-.6 0-1.4.1-2.2h0zm-3.1 6.4c0 .6-.1 1.3-.1 1.9l-.4 9.1c-1 .2-2 .5-3 .9-.9.4-1.8.7-2.8.8.3-1.9.4-3.7.4-5.6.1-4.3.1-6.5 5.9-7.1h0zm.1-6.4c0 1-.1 2.1-.1 3.1-1.1.2-2.1.5-3.2.7-.6.1-1.2.3-1.8.4l.3-2.8c.3-2.7.5-5.3.4-8 .2-.6 1.3-.8 2.8-1 .5-.1 1.1-.1 1.6-.2.1 2.7 0 5.3 0 7.8h0zm11.2 3c0-.5.1-1 .1-1.6v.1c0 .4.1.8.1 1.2l-.2.3zm-34.8-26.5l-4.5.7-7.7 1.4h-.2c2-.3 4-.7 6.1-1.2l12.6-2.1 28.6-4.8v.1l-34.9 5.9zm1.2-2.5l-5.8 1-38.8 6.2c3-5.6 11.3-6.7 19.3-7.6 4.7-.6 9.1-1.1 12.6-2.5 1.5-.3 3-.5 4.6-.7 9.3-1.4 18.9-2.4 28.1-3.4l13.3-1.5c.1.9.1 1.9.1 3l-33.4 5.5h0zm-59.4 1.3c1 .5 2 .9 3.1 1.1.9.4 1.8.6 2.7.7 1.3.2 2.4.4 3.2 1.3h0c.5.5.7 1.2.5 1.9l-3-.9a39.56 39.56 0 0 1-4.5-1.5l-4.4-1.5-16.4-5.7c-8-2.9-16.2-5.7-24.5-8.4l-23.8-8.2c-4-2.1-10-3.8-16.3-5.5-8.2-2.3-17.4-4.9-22-8.6l17.2 5.7 67.5 23.1h0c2.6.8 5.1 1.7 7.6 2.5 4.5 1.5 8.8 3 13.1 4h0zm-58.1 76.1l1.7-20.2.6.2h0 0c0 .3-.1.6-.1.8v.2c0 .2-.1.3-.1.5s-.1.4-.1.7h.3-.3c-.2 2.3-.4 4.3-.7 6.4-.2 1-.2 2-.3 3 0 .6-.1 1.2-.2 1.8-.1.7-.2 1.4-.2 2.1v.2c-.3 1.5-.5 3.1-.6 4.7-.4 3.8-.7 7.6-1 11.4l-.3 4.2c-.1.3-.1.6-.1.9 0 .4-.1.8-.2 1.1.7-6 1.1-12.1 1.6-18h0zm14.4 23.1c.1-.5.1-1 .2-1.5.7.2 1.5.5 2.3.8 1.9.7 3.8 1.5 5.4 1.3l4.3-.5-5.3-1.5c-3.7-1.1-5.6-1.6-6.3-2.7s-.6-3-.2-6.8c2 .6 4.2 1.3 6.3 2.1 3.7 1.3 7.5 2.6 10.8 3.1l1.4.2c-.1 1-.2 2.1-.1 3.1-1.1-.3-2.2-.7-3.3-1.1-2.4-.9-4.8-1.8-6.9-1.8h-3.2l2.8 1.6c1.6.8 3.3 1.3 5 1.6 2.4.5 4.7 1.1 5.5 2.4.3.6.4 1.4.3 2.1-.4-.1-.9-.3-1.4-.5-1.5-.6-2.9-1.1-4-.7l-2.7 1 2.8.6c5.1 1.2 5.4 1.6 5.3 6.6-1.6-.5-3.3-.9-4.9-1.4-4.5-1.2-9.2-2.5-13.4-4.7l-.1-.1c-.8-.3-.8-1.2-.6-3.2h0zm19.1-7l-1.2-.4a341.11 341.11 0 0 0-10.8-3.5l-6.6-2.1c.3-3.4.5-6.3.6-9 1.4.5 3.5 1.1 5.2 1.6 5.2 1.6 5.2 1.5 5.6 1.2l.4-.3-.1-.5c-.1-.5-.1-.6-3.1-1.6.4-2.5 0-2.8-.3-3l-.4-.3-.5.2c-.3.1-.7.3-.8 2.4-.5-.2-1-.3-1.5-.4-1.7-.5-3.2-.9-4-1.7-.4-.5-.9-1.3-.5-3.5 1 .3 2.1.7 3.2 1.1 2.2.8 4.5 1.6 6.3 1.6h1.6l1.8 1.3c1 .6 2.1 1 3.2 1.3 1.2.3 2.3.6 2.7 1.3.2.7.2 1.4-.1 2v.1.1c0 .3-.1.5-.1.8-.1 0-.2-.1-.3-.1-1.1-.5-2-.8-2.7-.4-.3.2-.5.6-.5 1v.8l.7.1c.7 0 1.5.3 1.9.9 1.2 1.5.7 4.8.3 8 .1.3.1.6 0 1h0zm3.5 12.8c3.3 1.1 6.7 2 10 2.9 3.2.9 6.6 1.8 9.8 2.9l3.3 1.1 3.2 1.2c1.7.5 3.3 1.2 4.9 2 .6.6 1.3 1.6.8 3.9-.1.3-.1.6-.1.9-.7-.2-1.5-.4-2.3-.7-1.1-.3-2.3-.7-3.6-1.1l-8-2.8-6.2-2.2c-1.5-.5-3-1-4.5-1.3-3.1-.8-6-1.5-7.1-3.4-.4-.9-.5-2.2-.2-3.4h0zM361.1 269l.5 1v-.1.1-1.4-.1-.1-.1l-.1-.1h0l-.1-.1h0l-.6.3.3.6z"/><path d="M238.8 328.5l-.2-.1.5.5v-.1l-.4-.4zm22.8-36.7c0-.2.1-.3.2-.5l.1-.2v-.1l13.3 4.4 3.7 1.2.4.1v-1c.1-.1.1-.2.2-.4 0-.2.1-.4 0-.5v-.3-.2-.9-.3-.8-.2-1-.8-.4c0-.3 0-.7.1-1v-.1c.1-.8.1-1.5.1-2.3v-.2l.1-2.1c.1-.6.1-1.2.1-1.8v-.7c0-.5.1-1 .1-1.4 0-.3.1-.6.1-.9s0-.6.1-.9v-.3c0-.3.1-.6.1-1l.1-.4c0-.3.1-.5.1-.8v-.6-.5c0-.3 0-.6.1-.9v-.6l5.2 1.8c.1.1.3.1.4 0s.2-.2.2-.3v-.3c0-.2-.1-.3-.3-.4l-2.3-.8v-.6-.5-.2-.5-.2c0-.2 0-.4.1-.6v-.1c0-.3-.1-.5-.4-.6h-.1c-.3 0-.5.3-.4.5v.2c0 .2 0 .4-.1.6v.7 1l-2.2-.8h0l.1-2.3c0-.2 0-.5.1-.7v-.5c0-.4.1-.9.1-1.3s0-.9.1-1.3c0-.4 0-.7.1-1.1v-.7c0-.6.1-1.1.1-1.7v-.9-1.3-.3l-.1-.1c.1-.8-.2-1.7-1-2.2-.2-.1-.5-.2-.6-.2-.1-.1-.2-.1-.3-.2-.3-.2-.7-.3-1-.4l-.7-.3c-.2-.1-.3-.1-.5-.2l-1-.4c-.3-.1-.6-.2-.9-.4-.2-.1-.4-.1-.6-.2l-.6-.2-1.1-.5h0l-.2-.1h0c-.2-.1-.5-.2-.7-.3l-.9-.3-.3-.1-.6-.3c-.2-.1-.4-.1-.5-.2-.1 0-.2-.1-.3-.1l-1.9-.6-1.1-.3c-.2-.1-.3-.1-.5-.2s-.4-.2-.7-.2c-.3-.1-.6-.1-.8-.2-.2 0-.5-.1-.6-.1-.2-.1-.3-.2-.5-.3s-.5-.2-.8-.2a1.62 1.62 0 0 0-1.6 1.2l-.3-.1v.4c0 .3-.1.7-.1 1s-.1.7-.1 1l-.2 2.1-.1.9-.2 1.7-.1.6c-.1.6-.2 1.1-.2 1.7l-.1 2.8-3.2-1.1v-.8c0-.4.1-.9.1-1.3 0-.3-.1-.5-.4-.6h-.1c-.3 0-.5.3-.5.5 0 .4-.1.9-.1 1.4l-.1 2.5v1.4c0 .1 0 .2.1.3s.2.2.4.2a.76.76 0 0 0 .4-.2c.1-.1.1-.2.1-.4v-2l3.2 1.1v.1.6c-.1.7-.1 1.5-.1 2.5v1.2 1.2h0c-.1.2-.2.5-.3.7l-1 2.2c-.2.5-.4.9-.7 1.4l-.4.7-.3.6-.2.5c-.1.3-.3.5-.4.8l-.1.1-.6 1.1-.2.4-.3.6-.4.8-6.8-2.4h-.2-.1-.1c-.1.1-.2.2-.2.3v.3c0 .1.1.2.3.3l6.7 2.3c0 .1-.1.2-.1.2-.2.3-.3.7-.5 1-.1.1-.1.3-.2.4l-.3.6-.9 1.7c-.3.5-.5 1-.7 1.4 0 .1-.1.1-.1.1-.1.3-.3.6-.4.9-.2.5.1 1.1.6 1.4h0c.1 0 .1.1.2.1l.5.2c.3.1.7.3 1 .4l.8.3c.3.1.7.2 1 .4l.8.3c.4.1.8.3 1.2.4.2.1.4.1.6.2.5.1.9.3 1.4.4l.3.1c.2.1.5.2.7.2l.4.1c.2.1.5 0 .7-.1.3-.2.5-.5.5-.8.2.3.2.1.1-.1zm-1.4-2.1h0l-.3.9-.1.2-.2-.1c-.3-.1-.5-.2-.8-.2l-.9-.3-.5-.2c-.4-.1-.9-.3-1.3-.4l-.8-.3-1-.3c-.2-.1-.5-.2-.7-.3s-.3-.1-.5-.2c.2-.5.5-1 .8-1.6a4.67 4.67 0 0 0 .5-1l.3-.6.2-.4c.1-.3.3-.6.4-.9.2-.4.4-.7.5-1.1 0 0 0-.1.1-.2l.1-.1v-.1l.3-.7c.1-.2.2-.3.3-.5s.2-.3.2-.5l.6-1.2c.2-.3.3-.6.5-.9l.3-.6.2-.4c.1-.2.2-.3.3-.5.1-.1.1-.3.2-.4l.7-1.3c.1-.1.1-.2.2-.3l.1-.1c.1-.1.1-.2.2-.3.2-.3.3-.6.5-.9.1-.1.1-.2.2-.3l.2-.3c.1-.1.1-.2.2-.4.1-.3.3-.5.5-.7l.3-.5c.1-.1.1-.2.2-.3l.1-.2v-.1-.9-.4-.1h.1l.6.3c.1 0 .3.1.4.1h.1l.8.3c.3.2.7.3 1.1.4h.2c.3.1.6.1.9.2l.9.3c.1 0 .2 0 .3.1 0 .1-.1.2-.1.2l-.1.2c0 .1-.1.2-.1.2-.2.4-.4.9-.5 1.3l-.6 1.2-.3.6c-.1.2-.2.5-.3.8l-.1.3-.5 1.1-.1.3c-.1.3-.3.6-.4.9l-.2.4c-.1.2-.1.4-.2.6l-.3.7h0l-.5 1.2c-.1.3-.3.6-.4.9v.7c-.1.3-.3.6-.4.9l-.6 1.5-.2.4-.3.8c-.1.2-.1.4-.2.6s-.1.4-.2.6l-.2.6v-.2l-.7 1.5zm2.3-28.9c0-.4 0-.8.1-1.3 0-.3.1-.7.1-1 0-.5.1-.9.1-1.4 0-.3.1-.7.1-1 .2.1.4.1.6.1a8.3 8.3 0 0 1 2.1.6l1.2.3c.3.1.6.1.9.2.2.1.4.1.6.2l.6.2c.1 0 .3.1.4.1l.4.2v.6.7.2l-.3 3c0 .3-.1.6-.1.9-.1.5-.2 1-.2 1.5 0 .4-.1.8-.1 1.2l-.1.9-.3 2.4c-.1 0-.2-.1-.3-.1-.3-.1-.6-.1-.8-.2l-1.1-.3-.9-.3c-.1-.1-.2-.1-.4-.2s-.4-.2-.6-.2c-.2-.1-.3-.1-.5-.2-.2 0-.3-.1-.5-.2-.1-.1-.2-.1-.3-.2a.76.76 0 0 0-.4-.2.76.76 0 0 0-.4-.2v-.2c0-.4 0-.9.1-1.3v-.8c0-.4.1-.9.1-1.3 0-.3 0-.5.1-.8v-.1-.9c-.1-.2-.1-.6-.2-.9zm13.9 0l.2.1c.3.1.6.2.9.4.1 0 .2.1.3.1.1.1.2.1.3.2.2.1.4.2.7.3l.2.1v.2l-.1.6c-.1.6-.1 1.2-.2 1.8 0 .4-.1.8-.1 1.1 0 .4-.1.8-.1 1.2v.8.4c0 .4 0 .8-.1 1.2 0 .2 0 .4-.1.5 0 .2 0 .4-.1.6v.7.5c0 .3-.1.5-.1.8l-.1.4c0 .3-.1.6-.1.9l-.1-.1c-.2-.1-.4-.2-.6-.4l-.2-.1c-.2-.1-.3-.2-.5-.3l-1.1-.6c-.1-.1-.3-.1-.4-.2s-.3-.1-.4-.2c-.3-.1-.5-.2-.8-.4h0c-.4-.2-.9-.5-1.4-.6l-.8-.3c-.3-.1-.5-.1-.8-.1-.2 0-.4-.1-.7-.2.1-.4.1-.9.2-1.3.1-.6.2-1.3.2-1.9v-.2c0-.3.1-.7.1-1s0-.5.1-.8c0-.3.1-.6.1-.9s.1-.5.1-.8c.1-.4.1-.8.1-1.3l.1-.7c.1-.6.1-1.2.2-1.8v-.5h.1 0l.9.4.6.3c.3.1.6.3 1 .4l.6.2c.8 0 1.3.3 1.9.5zm1.4 18l-.1 2.5v.6c0 .6-.1 1.2-.1 1.8v.6.6 1.2 2.5.5 1.9l-.1 1.4v1 .4l-2-.6-6.7-2.2v-.2-.2-.4-.9l.2-1.4c0-.4.1-.8.1-1.2v-.6-.6l.2-2.5c.1-.5.1-1 .1-1.4v-1-.3c0-.2.1-.5.1-.7.1-.4.1-.9.2-1.4v-1.6-.4-1.2-.9-.3c0-.5 0-1 .1-1.4.1 0 .1 0 .2.1.3.1.6.1.9.2.2 0 .3.1.4.1.2.1.4.1.6.2.3.1.5.2.8.4h.1 0 0 0 .1 0c.4.2.7.4 1.1.5.1.1.2.1.4.1l.2.1c.1.1.3.1.4.2l.6.3.6.4c.2.1.5.3.7.4s.3.2.5.3c.1.1.3.2.4.3v.3 1.4 1.1zm-11.1 11.5l-4-1.3v-.1l.3-.8.1-.3.7-1.9h0c.2-.4.3-.8.5-1.2l.6-1.5c.1-.3.3-.6.4-1 .1-.3.3-.6.4-1h0l.1-.3.3-.8.1-.4c.1-.2.1-.4.2-.6l.5-1.1c.1-.2.2-.5.3-.7l.2-.4c.1-.2.2-.4.2-.5v.6c0 .5 0 .9-.1 1.4h0c-.1.4-.1.8-.2 1.2v.2c0 .4-.1.8-.1 1.2v.5.7c0 .3-.1.7-.1 1v.2l-.2 2.5v.4c0 .3 0 .5-.1.8 0 .4-.1.8-.1 1.3 0 .4-.1.7-.1 1.1.1.3.1.5.1.8zm6.5-17.3h0 0 0zm-22.8 31.5h0l-.6-.2h.1-.1zm130.7-25v.5.5.3.4l.7-.1v.2c.1.3.2.6.5.8.1.1.3.1.4.1h.2l.3-.1c.2-.1.5-.2.7-.2.3-.1.6-.1.9-.2h.2c.7-.1 1.3-.3 2-.5.5-.1 1-.2 1.4-.4l.6-.2c.7-.2 1.3-.3 2-.4.8-.1 1.6-.3 2.4-.5.3-.1.7-.2 1-.2h.2c.4-.1.7-.1 1.1-.2.3 0 .7-.1 1-.1.2 0 .4-.1.6-.1l.4-.1c.4-.1.9-.1 1.3-.2.3-.1.6-.1.8-.1.4-.1.8-.2 1.3-.2.3-.1.5-.1.8-.2l.3-.1 1.8-.3 2-.3 2.1-.4 3.4-.9 2-.5c.1 0 .3-.1.3-.1.2 0 .4-.1.6-.3.3-.2.5-.5.5-.8 0-.1.1-.3.1-.4v-.3-.4-.4-1.2-.4-.7c0-.4.1-.7.1-1.1 0-.3 0-.6-.2-.9v-.2c0-.5-.1-1-.4-1.3-.2-.2-.5-.4-.8-.4-.5 0-1 .1-1.5.1s-.9.1-1.4.2l-2.1.5-.8.2-2.9.5c-.3 0-.6.1-1 .1l-2 .3c-1.1.1-2.2.3-3.2.5-.9.2-1.8.3-2.7.4l-2.5.4-.4.1-2.6.6-.3.1c-.7.2-1.4.3-2 .4-.2 0-.3 0-.5.1-.2 0-.3 0-.5.1h-.3c-.2 0-.4 0-.6.1-.3.1-.7.1-1 .2s-.6.1-.9.2h-.3c-.2 0-.4.1-.6.1l-1 .3c-.2.1-.3.1-.4.2-.6.2-.9.8-.9 1.3v1.1c0 .6-.1 1.2-.1 1.8v.1 1.1 1.3l-.1.2zm2.6-1c0-.5 0-1.1.1-1.6v-.3c0-.5 0-.9.1-1.3.2-.1.4-.1.7-.2.4-.1.9-.1 1.4-.3.6-.2 1.3-.2 1.9-.3.3 0 .5-.1.8-.1h.2c.4-.1.8-.1 1.2-.2l1.1-.3.6-.1 1.2-.3c.3-.1.7-.1 1-.2l.5-.1 1.7-.3c.4-.1.8-.1 1.2-.2l3-.5.4-.1c.4-.1.7-.1 1.1-.2.5-.1.9-.1 1.4-.1l1.9-.3c.4-.1.7-.1 1.1-.2l2-.3c.3-.1.6-.1.9-.2.4-.1.7-.2 1.1-.2.3-.1.5-.1.8-.2s.7-.2 1-.2c.2 0 .4-.1.6-.1v.4.8.3c0 .4 0 .9-.1 1.3v.1l-.1.1c-.1.2-.2.4-.2.6l-.3.1c-.6.2-1.3.3-1.9.5-1.3.4-2.7.7-4 .9l-.4.1c-.5.1-1.1.1-1.6.2-.4.1-.8.1-1.2.2-.3.1-.5.1-.8.2s-.7.1-1 .2-.7.1-1 .2l-.8.1c-.4.1-.9.2-1.3.2-.5.1-1.1.2-1.6.2-.3 0-.7.1-1.1.1-.4.1-.7.1-1 .2h-.2c-.6.1-1.2.3-1.8.4-.4.1-.9.2-1.3.2-.2 0-.4.1-.6.1-.8.1-1.5.3-2.1.5l-2.6.6c-.2 0-.4.1-.6.1-.2.1-.5.1-.7.2-.1 0-.2 0-.3.1v-.8h-.4z"/><path d="M363 284.5v.5l.3-.1c.1.1.3.2.5.2.7 0 1.4-.1 2.1-.2.5-.1 1.1-.2 1.6-.4l.3-.1c.6-.2 1.3-.3 1.9-.5l.9-.3.1-.1c.1 0 .3-.1.4-.1s.3-.1.4-.1c.2-.1.4-.1.6-.2.1 0 .1-.1.2-.1h.2v-.2c0-.1.1-.2.1-.3.1-.3.1-.6-.1-.9 0-.4 0-.7-.1-1.1v-.6c0-.3 0-.6.1-.8 0-.2 0-.3.1-.5 0-.1 0-.3.1-.4 0-.4.1-.9 0-1.3a2.39 2.39 0 0 0-.2-.9v-.1c0-.3-.1-.7-.3-.9-.2-.4-.7-.6-1.2-.7-.2 0-.5 0-.7.1-.5.2-1.1.3-1.7.4s-1.2.3-1.8.5l-1.7.6c-.1 0-.1-.1-.2-.1-.3-.2-.7-.1-1.1 0-.3.2-.6.5-.7.9-.1.5-.2 1.1-.2 1.6v1.1.3 2.1 1.1.3.1c-.2.2-.2.4-.2.7.1.1.2.3.3.5zm7-3h0l-1.7.5h-.3c-.5.1-1 .2-1.5.4-.3.1-.6.1-.8.2v-.1-3.7c.1 0 .2-.1.4-.1.3-.2.6-.3 1-.4l.9-.3c.3-.1.6-.1.9-.2l.5-.1c.3-.1.5-.1.8-.2 0 .2 0 .5-.1.7-.1.4-.1.7-.2 1.1l.1 2.2zm50.8-9.1c-.1.4 0 .8.2 1.2.2.3.5.4.8.4.2 0 .3 0 .4-.1l1.7-.5 5.2-1.4c.3-.1.6-.1.9-.3.5-.3.8-.9.8-1.5v-.7-.1-.1-.1c.1-.4.2-.7.2-1.1h0v-.9-.1-.3a1.1 1.1 0 0 0 0-.8c0-.3-.2-.6-.3-.8-.2-.3-.6-.6-1-.6h-.5-.5c-.2 0-.5.1-.7.1-.1 0-.3.1-.4.1-.4.1-.8.2-1.2.2l-1.6.4-.7.2c-.9.2-1.8.4-2.7.8-.6.4-.9 1.2-.6 1.9l-.3 3.2-.1.6.3-.1c.1.2.1.3.1.4zm7.4-2.6h0c0 .1 0 .1-.1.2v.1l-3.4.9c-.5.1-1 .2-1.4.4 0-.2 0-.5.1-.7 0-.6.1-1.1.1-1.7.6-.2 1.2-.3 1.7-.4.3-.1.6-.1.9-.2l1.7-.4c.2 0 .3-.1.5-.1h.2v.3c-.1.5-.2.9-.2 1.4-.1 0-.1.1-.1.2zm-86.7 47.7c.1 0 .2.1.3.1s.3 0 .4-.1a.78.78 0 0 0 .4-.4c.4-.2.7-.6.7-1s0-.8.1-1.2v-1.2-.1l4.2 1.5c.1.1.3.1.4 0s.2-.2.2-.3v-.4c0-.1-.1-.2-.3-.3l-4.5-1.6v-1.1-.9c0-.5 0-1 .1-1.5v-.9-1.6-.6-.7-.9-.4-1.8l8.4 2.9h.1c.1.1.3.1.4 0s.2-.2.2-.3v-.3c0-.1-.1-.3-.3-.3l-8.9-3.1.1-2.2v-.9-.3-1.3c0-.5.1-1 .1-1.5 0-.3 0-.7.1-1v-1.2c0-.5 0-.9.1-1.4 0-.3 0-.5.1-.8v-.4c0-.4 0-.9.1-1.3 0-.9.1-1.6.2-2.4.1-.4.1-.8.1-1.3 0-.4 0-.7.1-1.1v-.2c.1-.2.2-.4.2-.7.1-.5 0-1.1-.2-1.5-.2-.3-.5-.6-.8-.8h0c-.1-.1-.3-.1-.4-.2-.2-.1-.4-.2-.5-.2l-1-.4-.6-.3c-.2-.1-.4-.2-.7-.3l-.4-.1h0c-.2-.1-.4-.2-.6-.2l-.5-.2c-.6-.2-1.1-.5-1.6-.8-.8-.4-1.5-.8-2.4-1.1l-.3-.1-1.6-.6-1-.3-1-.3-1.4-.6c-.2-.1-.4-.1-.6-.2-.3-.1-.5-.1-.7-.2h0l-1.8-.6-.8-.3c-.5-.2-1-.3-1.5-.4-.3-.1-.7-.2-1-.2l-.3-.1c-.3-.1-.5-.2-.8-.2-.2 0-.4 0-.6.1-.3.2-.6.4-.8.7l-.6-.2-.1 1.1c0 .5-.1 1-.1 1.6 0 .7-.1 1.4-.2 2l-.1.4c-.1.4-.1.8-.1 1.2 0 .5-.1 1-.1 1.5-.1.6-.1 1.3-.2 1.9l-.1.9c0 .4 0 .8-.1 1.1 0 .5-.1.9-.1 1.4l-.1.7c-.1.6-.1 1.3-.2 1.9v.2l-.3 2.6-4.3-1.5h-.2-.1-.1c-.1.1-.2.2-.2.3v.4c0 .1.1.2.3.3l4.6 1.6c0 .4-.1.7-.1 1.1v.7.5c0 .4 0 .8-.1 1.2v1.5 1c0 .7-.1 1.5-.2 2.5v.3c0 .3-.1.6-.1.9v1 .2 1.2.5.7.8.3.5c0 .3 0 .6.1.9a.55.55 0 0 0 .3.5l.2.2c.1.1.2.1.3.2 0 0 .1 0 .2.1l.1-.3v.3c.2.1.5.1.7.1l.4.1h.3l20.5 6.8.6.7zm-19-37h0v-.2c0-.3.1-.6.1-.9 0-.2 0-.4.1-.6l.1-1.1.2.1 1.3.3c.2.1.5.2.7.2.2.1.4.1.5.2l.4.1c.4.1.8.2 1.1.4.1.1.3.1.5.2s.5.1.7.2l.9.3c.4.2.9.4 1.3.5l.3.1v.3l-.1 2.4c0 .4-.1.7-.1 1.1-.1.4-.1.8-.1 1.2v.1c0 .3 0 .7-.1 1 0 .2-.1.4-.1.6s-.1.4-.1.6c-.1.5-.1 1-.1 1.4v.1c-.1 0-.1 0-.2-.1l-1-.4a.76.76 0 0 1-.4-.2c-.2-.1-.3-.1-.5-.2l-.5-.2c-.3-.1-.7-.2-1-.4l-.8-.3c-.2-.1-.5-.2-.7-.3l-.2-.1c-.1-.1-.3-.1-.4-.2l-.2-.1c-.2-.1-.3-.2-.5-.2-.1-.1-.3-.1-.4-.1s-.1 0-.2-.1a.76.76 0 0 1-.4-.2l-.2-.1h-.1 0c0-.5.1-1 .1-1.4 0-.3 0-.5.1-.8 0-.5.1-1 .1-1.5v-1.1c-.1 0-.1-.3-.1-.6 0 .1 0 0 0 0h0zm18.9 20.7c0 .1.1.2.3.3v.2c0 .7-.1 1.5 0 2.5v1.9.6 1 .6.8c0 .5 0 .9-.1 1.4v1.1 2.3 1 .2l-11.2-3.7v-.1c0-.5 0-1 .1-1.5 0-.2 0-.5.1-.7l.1-1.2c0-.2 0-.4.1-.7v-.5l.2-2.8.2-2.1c0-.3.1-.6.1-.8v-.4c0-.4.1-.8.1-1.2s0-.7.1-1.1c0-.4 0-.9.1-1.3 0-.4.1-.8.1-1.2s.1-.8.1-1.2c0-.3 0-.7.1-1v-.2c0-.4.1-.7.1-1.1v-.1c.2.1.4.1.6.2l.3.1c.2 0 .3.1.5.1l.3.1c.2.1.4.2.7.2l.2.1c.2.1.4.1.6.2s.3.1.5.2c.1.1.2.1.3.1l1.6.6.3.1c.2 0 .3.1.5.1h.1c.2.1.5.2.7.2h.1c.5.1 1 .3 1.5.4.4.2.9.3 1.4.4v.2 1 1.7.8 1.3l-.1.1c-.1.1-.2.2-.2.3-.5.3-.5.4-.5.5zm-1-8.5c-.3-.1-.6-.2-.9-.2l-.8-.3c-.2-.1-.4-.1-.6-.2-.1 0-.2-.1-.3-.1l-.8-.3-.2-.1c-.2-.1-.4-.2-.6-.2-.3-.1-.6-.2-.9-.4l-.3-.1c-.2-.1-.4-.1-.6-.2l-.3-.1c-.2-.1-.4-.1-.6-.2l-.8-.3-.3-.1c-.1 0-.2-.1-.3-.1l.1-.6c.1-.6.1-1.3.2-1.9.1-.5.1-1 .2-1.5 0-.3.1-.6.1-.9 0-.2.1-.4.1-.6s.1-.3.1-.5c0-.4.1-.8.1-1.2 0-.3 0-.7.1-1v-.2-.4l.3.1.8.3.4.1c.3.2.7.3 1 .5.3.1.5.3.8.4.2.1.3.1.5.2l.1.1 1.3.6c.2.1.4.1.6.2s.4.1.6.2h0 0c.2.1.4.2.6.2l.5.2c.5.2 1.1.4 1.6.7l.2.1c.2.1.3.2.5.2v.4c0 .2 0 .4-.1.7 0 .2 0 .4-.1.6 0 .4-.1.9-.1 1.3v1 .2c0 .5-.1 1.1-.1 1.6 0 .3 0 .6-.1.9 0 .5 0 1-.1 1.5-.2 0-.4-.1-.6-.1-.1 0-.3-.1-.4-.1-.5-.3-.7-.3-.9-.4zm-17.7-3.9a.76.76 0 0 1 .4.2l.2.1.6.3.8.3c.6.3 1.3.5 1.9.8.4.1.8.3 1.2.4.2.1.4.2.7.3.4.2.8.3 1.2.4l-.1 1h0c0 .4-.1.9-.1 1.3s-.1.8-.1 1.2l-.1.8c-.1.5-.1 1.1-.1 1.6 0 .8-.1 1.6-.2 2.4 0 .2 0 .5-.1.7l-.1.4c-.1.4-.1.8-.1 1.3 0 .4-.1.8-.1 1.2 0 .2 0 .5-.1.8v.5c0 .2 0 .4-.1.5 0 .2 0 .4-.1.7 0 .4-.1.8-.1 1.2 0 .5-.1 1-.1 1.6l-.1.9c0 .2 0 .5-.1.7v.2.3l-7.8-2.6v-.1c0-.4 0-.9.1-1.3 0-.4.1-.8.1-1.2l.1-2.5c0-.8.1-1.6.2-2.4 0-.4.1-.9.1-1.3 0-.2 0-.3.1-.5 0-.2.1-.5.1-.7 0-.4.1-.8.1-1.2 0-.7.1-1.5.2-2.3.1-.4.1-.8.2-1.2 0-.3 0-.5.1-.7v-.5c0-.3.1-.6.1-1 0-.5.1-1 .1-1.5v-.1-1.1-.1c.2.1.3.1.5.2h.1c.3-.1.4 0 .4 0zm89.8 41.7v.7h.1zM358.7 343v-.1.1-.1.1l-.1-.7-.1.1.2.6zm49.3-25.5h-.1l.2.7zm-23.3 6.9l-.1-.6h-.1l.1.7zm22.7 12.8h.7v.2h-.7z"/><path d="M283.6 322.1h0 0l.6.1v-.1l-.6-.1zm58.7 14.1l.3-.6-.2-.1-.1.3h0 0l-.1.3h0 0zm3.9 1.4h0l.2-.6-.1-.1-.2.6.1.1zm-17.8 11.7h2.5l-2.5-.6-.1.2v-.1-.2H327l.1-.3h-.2l-.1.4h-1.7l3 .7h0l.3-.1h0 0zm0-.4h0 0 0 0zm0 .1h0 0zm-3.2 19.5l-.2.6h0l.2-.6-.1.2.1-.2h-.1.1zm46.7 7l.1.2-.1-.2h0 0l.2.6h0l-.2-.6zm-37.1-1.3c-.2-.5-.7-.6-1.1-.7-.2 0-.4-.1-.6-.1s-.3-.1-.5-.1h-.1c-.4-.1-.9-.2-1.3-.4-.5-.1-1-.3-1.5-.5-.6-.3-1.1-.5-1.6-.6l-.4-.1c-.4-.1-.8-.3-1.1-.4-.5-.2-1.1-.4-1.6-.4-.1 0-.1 0-.2-.1-.1 0-.2-.1-.2-.1-.3-.1-.6-.1-1-.1-.1 0-.2.1-.3.1-.4-.1-.8.1-1 .4l-.1.1c-.1.1-.1.2-.2.3v.3c-.1.3-.2.7-.2 1.1 0 .3-.1.5-.1.8v.3c-.2.6-.1 1.2.2 1.7.2.3.6.5.9.6h.2.2l.5.1c.2.1.5.1.7.2l1.2.3.4.1c.2.1.5.1.7.2l1 .3c.3.1.6.2 1 .2.3.1.7.1 1 .2.3 0 .6.1 1 .1.2 0 .4.1.6.1l1.2.3c.2.1.4.1.6.1s.3 0 .5-.1c.6-.3 1-.8 1-1.4v-.1c0-.2.1-.4.1-.5l.1-.2c0-.1.1-.3.1-.4 0-.2.1-.4.1-.6v-.4c-.1-.2-.1-.4-.2-.6zm-1.9 1.5c0 .1-.1.2-.1.3v.2l-.3-.1c-.2 0-.3-.1-.5-.1s-.3-.1-.5-.1c-.3-.1-.7-.2-1.1-.2l-1.6-.2c-.5-.1-1-.2-1.4-.4l-.4-.1-1.2-.3-.2-.1c-.3-.1-.5-.1-.8-.2l-.3-.1c-.2-.1-.4-.1-.6-.2h-.1c-.1 0-.1 0-.2-.1l.1-.5c0-.2.1-.4.1-.6h.1l.2.1c.2.1.4.1.6.2l.3.1c.1 0 .3.1.4.1.2.1.4.1.6.2s.4.2.6.2l.3.1c.4.1.9.3 1.3.5.2.1.4.2.6.2l.8.3c.5.2 1 .3 1.6.5l.4.1c.3.1.6.2.9.2 0-.1.2-.1.4 0zm19.4 4c-.1-.1-.3-.1-.4-.2l-.2-.1c-.2-.1-.3-.1-.5-.2-.3-.1-.7-.3-1-.4-.7-.2-1.3-.5-2-.7-.6-.2-1.3-.5-1.9-.8-.2-.1-.3-.1-.5-.2-.4-.2-.8-.4-1.2-.5h-.1c-.2-.1-.5-.2-.7-.3h-.1c-.1 0-.1 0-.2-.1h-.1c-.2 0-.3-.1-.5-.1l-.6-.1-1.2-.3c-.2 0-.3-.1-.5-.1l-.4-.1c-.2-.1-.3-.1-.5-.2-.6-.2-1.2-.3-1.8-.3h-.1c-.1 0-.3 0-.4.1-.2-.1-.5-.1-.7 0s-.4.3-.5.6v.1l-.3 1.2c0 .2-.1.3-.1.5-.1.2-.1.5-.1.7v.4c-.1.6.2 1.2.8 1.5.2.1.4.2.6.2.2.1.3.1.5.2l1 .3 1.9.6c.1.1.3.1.4.2s.3.1.4.2c.3.1.6.3.9.4l1.1.4 2.5.9 1.7.6.4.1c.1 0 .2.1.3.1h.1l.1-.3h0v.3l.6.2c.2.1.5.1.7.2s.5.1.7.2h.4.3.1.2.7c.1 0 .2-.1.3-.1a.78.78 0 0 0 .4-.4c.1-.2.2-.4.2-.7v-.3-.1c0-.1.1-.2.1-.3v-.1c.1-.2.1-.5.2-.7.1-.3.1-.7 0-1 0-.7-.4-1.3-1-1.5zm-3.8 2.3c-.1 0-.1 0-.2-.1-.2 0-.3-.1-.5-.1-.7-.2-1.3-.4-1.9-.7-.4-.2-.8-.3-1.2-.4l-.8-.3-.4-.1-1.5-.6c-.2-.1-.3-.1-.4-.2-.2-.1-.4-.2-.7-.3-.4-.2-.8-.3-1.2-.4s-.8-.2-1.2-.4h-.1c-.2-.1-.3-.1-.5-.2l-.2-.1v-.1c0-.1.1-.3.1-.4 0-.2.1-.3.1-.5h.1c.4 0 .8.1 1.1.2.2.1.4.1.5.2l.3.1 1.1.3 1.2.3.7.2h.1c.1 0 .1 0 .2.1h.1c.2.1.3.1.5.2.3.1.6.2.9.4.2.1.3.1.5.2.1.1.3.1.4.2.3.2.6.3 1 .4.4.2.8.3 1.3.5.2.1.5.2.7.2l.4.1c.4.1.7.3 1.1.4l.8.3.6.3h0c0 .2-.1.3-.2.5 0 .1-.1.2-.1.3h-.4c-.2 0-.4 0-.6-.1l-.7-.2c-.3-.1-.6-.2-.8-.2h-.2 0 0zm0 .4h0 0 0 0 0zm42.9-6.5c0-.3-.1-.5-.1-.8v-.5c0-.2-.1-.4-.1-.5l-.1-.5c-.1-.3-.2-.6-.4-1-.1-.2-.3-.4-.6-.5-.2-.1-.4-.2-.6-.2h-.2c-.2 0-.4.1-.5.2l-1.2.3c-.2.1-.5.1-.7.2-.3.1-.6.2-.9.2-.3.1-.7.1-1 .2-.6.1-1.1.3-1.7.5l-.5.1c-.3.1-.6.2-.8.2-.1 0-.3.1-.4.1-.2 0-.4.1-.6.2l-1.6.6c-.2.1-.4.1-.5.2l-.8.3-.8.3c-.2.1-.4.2-.6.2-.2.1-.4.1-.7.2-.3 0-.6.1-1 .2-.5.2-.9.7-.8 1.3 0 .2.1.3.1.4s0 .2.1.4.1.4.2.7.1.6.1.9v.5c0 .1 0 .2.1.4.1.3.3.5.6.7.1.1.3.1.4.1.2 0 .4-.1.5-.2.1 0 .2-.1.3-.1.6-.2 1.2-.3 1.9-.4l.7-.2 1.3-.3c.3-.1.7-.1 1-.2.2-.1.4-.1.7-.2l.3-.1c.2-.1.4-.1.6-.1l1.4-.3 1.1-.3c.4-.1.8-.2 1.2-.4.4-.1.8-.3 1.3-.3.2 0 .4-.1.6-.1s.3-.1.5-.1l1.2-.3c.2-.1.4-.2.6-.4.3-.3.4-.8.3-1.2.2-.2.2-.3.1-.4zm-1.9-.1c-.4.1-.9.2-1.3.2h-.3 0c-.6.1-1.1.3-1.7.5l-1.1.3c-.3.1-.5.1-.8.2-.5.2-1 .3-1.5.4l-.5.1c-.2 0-.4.1-.5.1s-.3.1-.4.1c-.3.1-.6.1-1 .2l-1.2.3-.8.2-1.3.3c-.1 0-.2.1-.3.1v-.2c0-.1-.1-.3-.1-.4.2 0 .4-.1.5-.1.3-.1.7-.3 1-.4.2-.1.5-.2.7-.3l.3-.1.8-.3c.2-.1.4-.2.7-.3.1-.1.3-.1.4-.2l1.1-.3c.3-.1.5-.1.8-.2l.9-.3 1.1-.3c.6-.2 1.2-.3 1.8-.5l.6-.2c.2-.1.4-.1.6-.2l.3-.1c.2-.1.4-.1.6-.2.1 0 .3-.1.4-.1.1.3.1.6.1 1l.1.7zm42.2-70.2l.7-.1v-.1h-.7zm-.1-.7l.4-.1h0 0 0 .3-.1l.1-.1h0 0 0l-.7.1zm-150.3 40.9l-15-4.7v-.1-.7l.1-3.6c0-.3-.1-.5-.4-.6h-.1-.1c-.3 0-.5.3-.5.5l-.1 2.5v.7.3.7l-3.1-1h-.1-.2-.1c-.1.1-.2.2-.2.3v.4c0 .1.1.2.3.3l19 6h.2c.1 0 .2 0 .2-.1.1-.1.2-.2.2-.3v-.3c.1-.1 0-.2-.1-.3zm-24.8-7.8h0l-14.7-4.7h-.2-.2-.1c-.1.1-.2.2-.2.3v.3c0 .1.1.2.3.3l14.6 4.6h.2c.1 0 .2 0 .2-.1.1-.1.2-.2.2-.3v-.4c.1.2 0 0-.1 0zm60.2 13l-10.2-3.2h-.2-.1-.1c-.1.1-.2.2-.2.3v.4c0 .1.1.2.3.3l9.9 3.1.2.1h.2c.1 0 .2 0 .2-.1.1-.1.2-.2.2-.3v-.4c0-.1-.1-.2-.2-.2zm-15.9-44.4l-33.1-11.5h-.2-.1-.1c-.1.1-.2.2-.2.3v.4c0 .1.1.2.3.3l32.9 11.4h.1c.1 0 .1.1.2.1s.2 0 .2-.1c.1-.1.2-.2.2-.3v-.3c0-.2-.1-.3-.2-.3zm13.9-8.5c.2 0 .3 0 .4-.1s.1-.2.2-.3c0-.1 0-.3-.1-.4s-.2-.2-.4-.2c-.1 0-.3 0-.4.1h0c-.1.1-.1.2-.2.3 0 .1 0 .3.1.4l.4.2zm-.2-.6s0 .1 0 0c0 .1 0 .1 0 0h0zm.4 0zm-.3-.1h0 0z"/><path d="M249.2 288.2c.1 0 .2 0 .3-.1s.2-.2.2-.3v-.4l-.3-.3-9.1-2.1h-.2-.1-.1c-.1.1-.2.2-.2.3v.4l.3.3 9.1 2.1c0 .1.1.1.1.1zm35.9-19.8l3.9 1.4c0 .7-.1 1.3-.1 2 0 .4-.1.7-.1 1.1 0 .5-.1.9-.1 1.4v.5l-.2 2c0 .2 0 .4-.1.6v.3c-.1.3-.1.7-.2 1-.1.4-.1.8-.1 1.3l-.1 1v.2c0 .1 0 .2-.1.3l-.3 2.6-.1 1.1c0 .5-.1 1-.1 1.6v.4c0 .1 0 .2-.1.4L283 286h-.2-.1-.1c-.1.1-.2.2-.2.3v.4c0 .1.1.2.3.3l4.4 1.5c0 .2-.1.4-.1.7 0 .4-.1.8-.2 1.2s-.2.8-.2 1.1l-.1.5c0 .2-.1.4-.1.6l-2.8-1h-.2-.1-.1c-.1.1-.2.2-.2.3v.4c0 .1.1.2.3.3l3 1v.3.3c0 .3-.1.7-.1 1v.4c0 .6-.1 1.3-.2 1.9a1.1 1.1 0 0 0 0 .8c.1.1.1.3.2.4l-.2.3 22 7.3v-.4-.4-.1c0-.3.1-.6.1-.9v-.1-.1c0-.2 0-.4.1-.7v-.1l-.1-.1v-.2-1.9l7 2.4c.1.1.3.1.4 0s.2-.2.2-.3v-.3c0-.1-.1-.3-.2-.3l-7.4-2.6.2-2.1c.1-.4.1-.8.1-1.2l.1-.9 1.6.6c.1.1.3.1.4 0 .1 0 .2-.1.2-.2v.2c0 .1.1.2.3.3l1.5.5h.2c.1 0 .2 0 .2-.1.1-.1.2-.2.2-.3v-.4c0-.1-.1-.2-.2-.3h-.1c-.4-.1-.9-.3-1.3-.5l-.2-.1h-.2-.1-.1c-.1.1-.2.1-.2.2v-.2c0-.1-.1-.2-.3-.3l-1.9-.7.1-.6c0-.2 0-.5.1-.7 0-.3.1-.6.1-.9.1-.5.1-.9.2-1.4v-.6-.5c0-.3.1-.7.1-1 0-.2.1-.4.1-.6.1-.4.2-.9.2-1.3h0c.1-.1.1-.2.2-.3.1-.3.2-.5.1-.8 0-.1-.1-.2-.1-.3l.1-.5c.1-.6.2-1.2.2-1.9v-.1c0 .1.1.2.3.3l5.2 1.8h.2c.1 0 .2 0 .2-.1.1-.1.2-.2.2-.3v-.3c0-.1-.1-.2-.3-.3h0l-1.4-.5c0-.1.1-.1.1-.2v-1-1.2c0-.1 0-.2-.1-.3s-.2-.2-.4-.2c-.1 0-.3.1-.3.2-.1.1-.1.2-.1.4v1.2 1l-3-1h-.2-.1-.1c-.1 0-.1.1-.1.1 0-.4.1-.7.1-1.1l.1-.5c.1-.5.2-.9.2-1.4 0-.2 0-.5.1-.7v-.2c0-.2 0-.5.1-.7 0-.2.1-.4.1-.7.1-.3.1-.6.1-.8 0-.3.1-.6.1-.9 0-.2 0-.4.1-.6.1-.4.1-.8.2-1.2.1-.3.1-.6.1-.8v-.6-.1c0-.5 0-1 .1-1.7v-.2l-.2-.1c-.1 0-.1-.1-.2-.1.1-.7-.2-1.4-.6-1.9h.5l-1.1-.4c-.1 0-.2-.1-.3-.1l-.4-.2h0c-.2-.1-.4-.2-.6-.2-.1 0-.3-.1-.4-.1-.1-.1-.3-.1-.4-.2l-1.6-.7-.2-.1c-.3-.1-.6-.3-.9-.4-.2-.1-.4-.1-.5-.2-.2-.1-.4-.1-.5-.2l-.1-.1c-.3-.1-.7-.3-1-.4-.2-.1-.4-.1-.6-.2s-.4-.1-.6-.2h-.1 0c-.2-.1-.5-.2-.7-.3-.3-.1-.5-.2-.7-.3-.4-.2-.7-.3-1.1-.4-.2-.1-.4-.1-.7-.2-.2-.1-.4-.1-.6-.2-.5-.2-1-.3-1.4-.4-.3-.1-.6-.2-.8-.2l-1.1-.3c-.3-.1-.5-.2-.8-.2-.2-.1-.4-.1-.6-.2l-.3-.1c-.3-.1-.6-.1-.8-.2l-.3-.1c-.1 0-.3-.1-.4-.1-.9.1-1.6.8-1.7 1.7v.2l-.1.8c0 .3 0 .5-.1.8-.1.4-.1.8-.2 1.3h0l-.3 1.4c0 .2 0 .4-.1.7l-.6-.2c0-.1.1-.2.1-.2 0-.4.1-.8.1-1.1 0-.2 0-.3.1-.5v-.1c0-.2 0-.4.1-.6 0-.4.1-.7.1-1.1v-.1c0-.3.1-.6.1-.9v-.3c0-.3-.2-.5-.4-.6h-.1c-.3 0-.5.3-.5.5v.4c0 .3-.1.5-.1.8v.4c0 .3 0 .5-.1.8 0 .4-.1.8-.2 1.1l-.1.6c0 .2 0 .5-.1.7l-2.1-.7h-.2-.2-.1c-.1.1-.2.2-.2.3v.4c.4.1.5.2.7.3zm6.6 3.7v-.8-.7h.1c.1-.1.2-.2.2-.3v-.3c0-.1-.1-.2-.3-.3 0-.2 0-.4.1-.6v-.1c0-.5.1-1 .1-1.4l.1-.3h0c.1-.3.1-.6.2-.9l.7.2 1 .3c.3.1.5.2.8.2l.6.2c.5.1 1 .3 1.5.5.2.1.5.2.7.2.4.1.9.3 1.3.4.2.1.4.2.7.3l-.3 1.3c-.1.4-.1.8-.2 1.2s-.1.9-.2 1.3l-.5 3.2-.3 1.8c-.1.4-.1.8-.2 1.2 0 .4-.1.8-.2 1.2 0 .3-.1.6-.1.8-.1-.1-.3-.1-.4-.2l-.8-.5-.2-.1c-.4-.3-.9-.6-1.4-.8-.3-.2-.7-.3-1-.5-.2-.1-.4-.2-.6-.2-.5-.4-1.1-.7-1.6-1.2-.1-.1-.2-.1-.3-.1v-.8c0-.8.1-1.7.2-2.5.3-.5.3-1.1.3-1.7zm9.8-2.8c.1 0 .1 0 .2.1l.9.3c.4.2.7.3 1.1.4l.2.1.8.3 1.7.7.8.3c.2.1.4.1.6.2.1 0 .3.1.4.1l.2.1h0c.1 0 .1.1.2.1l.2.1h0 0 0c.3.2.6.3 1 .2v.3.6c0 .2-.1.5-.1.7s-.1.5-.1.7c-.1.4-.1.8-.1 1.2v.5l-.1.7c-.1.4-.1.7-.2 1.1-.1.3-.1.7-.1 1v.1c0 .3 0 .5-.1.7 0 .3-.1.5-.1.8-.1.4-.1.7-.2 1.1-.1.6-.2 1.3-.2 1.9 0 .3-.1.7-.1 1-.1 0-.2-.1-.3-.1-.3-.1-.6-.2-.9-.4-.3-.1-.6-.3-.9-.4-.6-.2-1.1-.4-1.7-.5l-.4-.1c-.2 0-.4-.1-.5-.1l-.9-.3c-.4-.2-.8-.3-1.2-.5l-.4-.2-.8-.3c-.2-.1-.4-.2-.6-.2l.1-.3.3-2 .1-.4.4-2.5.8-4.9c-.3-.7-.2-1.5 0-2.2zm5.8 21.8c0 .3-.1.6-.1.9v.2c-.1.4-.1.9-.2 1.3 0 .3-.1.5-.1.8v.5.4c0 .2 0 .5-.1.7v.4c0 .3 0 .5-.1.8v.3c-.1.5-.1 1-.2 1.5 0 .4-.1.8-.1 1.2v.2 1.2.2 1.4.2l-9.5-3.1c0-.5.1-1 .2-1.5l.3-1.7.1-.3c.1-.5.2-1 .2-1.5l.2-2.1c.1-.6.1-1.2.2-1.8s.2-1.2.2-1.8c0-.2.1-.5.1-.7v-.2-.3-.1h0v-.1-.4c0-.2 0-.3.1-.5l.1-.9.4-2.4v-.1c.2.1.3.1.5.2.3.1.6.2.9.4l.3.2.6.3c.6.3 1.2.5 1.8.6.2.1.4.1.6.2l1.1.3 1.6.6.4.2c.2.1.5.2.7.3l.2.1h.1l-.2 1.3c-.1.4-.1.9-.2 1.4-.1.4-.1.8-.1 1.2zm-13.9-10.3c.2.1.4.2.7.3.4.2.8.5 1.2.7l.4.3c.4.3.9.5 1.3.7l.2.1-.4 2.1-.3 2.2v.4.1h0v.2h0v.1h0c-.1.4-.1.9-.2 1.3-.1.5-.1 1.1-.2 1.6l-.4 3.3c-.1.4-.1.9-.2 1.3 0 .3-.1.5-.2.8l-.1.6c-.2.8-.2 1.7-.3 2.5l-6.3-2.1v-.2l.4-2c.1-.3.1-.7.2-1s.1-.6.2-.9c.1-.7.3-1.3.4-2 .1-.4.1-.8.2-1.2l.1-.8.4-2.4c0-.3.1-.6.1-.9.1-.4.1-.8.2-1.2.1-.6.1-1.1.1-1.7v-.5c0-.4.1-.8.1-1.2 0-.3 0-.5.1-.8v-.2c0-.4 0-.7.1-1.1.1.1.2.2.3.2.3.2.5.4.8.6.4.5.7.7 1.1.8zm-45.9-10.3c.1 0 .2 0 .3-.1s.2-.2.2-.3v-.4l-.3-.3-13.7-3.2h-.2-.1-.1c-.1.1-.2.2-.2.3v.4l.3.3 13.7 3.1c0 .2 0 .2.1.2zm48.8-9.4l23.1 8 22.7 7.9.2.1h.2c.1 0 .2 0 .2-.1.1-.1.2-.2.2-.3v-.3c0-.1-.1-.2-.2-.3h0c-.1 0-.2-.1-.3-.1l-10.3-3.6v-.1-1.2c0-.4 0-.8.1-1.3 0-.3-.1-.5-.4-.6h-.1c-.3 0-.5.3-.5.5 0 .4-.1.9-.1 1.3v1l-34.6-12h-.2-.1-.1c-.1.1-.2.2-.2.3v.3c.1.3.2.4.4.5zm101.2 54.6l-15.3 3.2v-.6c0-.1-.1-.2-.2-.3s-.2-.1-.3-.1h-.1-.1c-.1 0-.2.1-.3.3-.1.1-.1.2-.1.3v.3.5.3c0 .2 0 .4-.1.5-.1.4-.1.8-.1 1.2a.5.5 0 1 0 1 0c0-.4 0-.8.1-1.1v-.1l15.4-3.2c.1 0 .3-.1.3-.2.1-.1.1-.2.1-.3s-.1-.3-.1-.4c0-.2-.1-.3-.2-.3zm37.4-7.7h0l-12.4 2.6c-.1 0-.3.1-.3.2-.2.2-.1.5 0 .7.1.1.2.2.4.2h.1l12.3-2.5c.1 0 .3-.1.3-.2.1-.2.1-.5 0-.7-.1-.3-.3-.3-.4-.3zm-148.2 21.2h.6-.6zm62.7-40.4a.47.47 0 0 0 .5-.5c0-.4.1-.8.1-1.2 0-.3 0-.5.1-.8l.1-.6c0-.3-.1-.5-.4-.6h-.1c-.3 0-.5.3-.5.5v.4c0 .3-.1.6-.1.9 0 .4-.1.8-.1 1.2-.1.4.1.6.4.7z"/><path d="M252.2 332.7c.3 0 .5-.3.5-.6l-.2-1.7c0-.1-.1-.2-.1-.3-.1-.1-.2-.1-.4-.2-.3 0-.5.3-.4.5l.2 1.7c0 .1.1.2.1.3.1.3.2.3.3.3zm-.5 7.3c0-.3 0-.6-.1-.9 0-.1 0-.3-.1-.4s-.2-.2-.4-.2c-.3 0-.5.3-.4.5v.1c0 .3 0 .5.1.8v.6l.1 2a.47.47 0 0 0 .5.5c.3 0 .5-.3.5-.5l-.1-1.9c-.1-.2-.1-.4-.1-.6zm2.3 1.8v-.5-1.9a.47.47 0 0 0-.5-.5c-.3 0-.5.3-.5.5v.8 1.3.7a.47.47 0 0 0 .5.5h.1c.1 0 .2-.1.3-.3.1-.1.1-.2.1-.3v-.3h0zm59.9 15.7h-.2.2c0-.3-.2-.4-.5-.5-.1 0-.3.1-.3.2-.1.1-.1.2-.1.4v.5h.3-.3.3-.3v.2.8.7.8c0 .3.1.5.5.6a.47.47 0 0 0 .5-.5l.1-1.5v-.8-.3c-.2-.3-.2-.4-.2-.6zm-.7.1h0 0 0zm71.1-53.3v-.3c0-.1-.1-.2-.3-.3h-.2-.2l-.1.1c-.1.1-.2.2-.2.4-.1.4-.1.7-.2 1.1 0 .2 0 .5-.1.7v.3.4.1c0 .2 0 .3-.1.5v.2c0 .3-.1.6-.1.9s.1.5.5.6a.47.47 0 0 0 .5-.5c0-.2.1-.5.1-.7l.1-.5c0-.2.1-.4.1-.6v-.4l3.1-.7c.1 0 .3-.1.3-.2.1-.1.1-.2.1-.3s-.1-.3-.1-.4c-.1-.1-.2-.2-.4-.2v.3h0l-.1-.3-2.9.6v-.2c.1-.2.1-.4.2-.6zm32.6-9.7c0-.1.1-.2.1-.3v-.1c0-.4.1-.9.1-1.3v-.1c.1-.5.1-1.1.1-1.6 0-.3-.2-.5-.4-.6h-.1c-.3 0-.5.3-.4.5 0 .4-.1.8-.1 1.2l-3.3.7c0-.2 0-.4.1-.7v-.1c.1-1.1.2-2.2.1-3.2 0-.2 0-.5.1-.7l.1-.6h-.3 0 .3c0-.5.1-1 .1-1.5V283c0-.4-.3-.8-.6-.9 0 0 0-.1-.1-.1-.1-.3-.4-.4-.7-.5h-.2c-.3 0-.7 0-1 .1s-.6.1-1 .2c-.3.1-.6.2-1 .2-.3 0-.7.1-1 .1-.7 0-1.4.1-2.1.3l-2 .4c-.8.1-1.5.3-2.2.4l-.6.1h-.2c-.7 0-1.4.1-2.1.2-.3.1-.7.1-1.1.2-.2 0-.4.1-.5.1l-.9.2h-.4c-.2 0-.5.1-.7.1-.5.1-.9.1-1.4.1h-.7l4.5-.9h.1c.1 0 .3-.1.3-.2.1-.1.1-.2.1-.3s-.1-.2-.1-.3c-.1-.1-.2-.2-.3-.2h-.2l.1.3-.2-.3-12.9 2.7c-.1 0-.3.1-.3.2-.1.1-.1.2-.1.3s.1.3.1.3c-.1 0-.2-.1-.3-.1h-.3c-.2 0-.4 0-.6.1h-.4-.1c-.4 0-.7 0-1.1.1l-2 .1c-.3 0-.6.1-.9.1-.3.1-.7.1-1 .1-.5.1-1 .1-1.5.2l-2.5.3c-.6.1-1.2.1-1.9.2-.3 0-.7 0-1.1.1-.3 0-.5.1-.8.2h-.2c-.6.1-1.3.2-1.9.2-.3 0-.6 0-.9.1-.2 0-.4.1-.6.1-.1 0-.2 0-.3.1-.2 0-.4 0-.6.1-.5 0-.9.1-1.4.2l-.4.1c-.2 0-.4.1-.6.1s-.3.1-.5.1-.3.1-.5.1a1.21 1.21 0 0 0-.7.7c-.2.1-.4.3-.5.6l-.3 1.4c0 .4-.1.8-.1 1.2v1.8.7c0 .7 0 1.3-.1 2v.3c0 .4 0 .7-.1 1.1 0 .5 0 .9-.1 1.4 0 .6 0 1.1-.1 1.7v.6c0 .7-.1 1.5-.2 2.4 0 .4 0 .9-.1 1.3v1 .6.6.5.7c0 .4-.1.8-.1 1.1v.7.4c0 .4-.1.8-.1 1.2v1.4.2l-.1 2.2c0 .3 0 .7-.1 1l-.1.6c0 .3-.1.5-.1.8s0 .5.2.8v.2c0 .3.1.5.3.7s.4.3.7.3h.1c.2 0 .5-.1.7-.1h.3.6c.3 0 .6 0 .8-.1l1.8-.3c.6-.1 1.3-.2 1.9-.4.5-.1 1.1-.2 1.6-.2h.7 1.4c.7 0 1.4-.1 2-.3.7-.2 1.3-.3 2-.3.3 0 .5 0 .8-.1.4 0 .8 0 1.2-.1.5-.1 1-.1 1.5-.2l.5-.1c.1 0 .3 0 .4-.1.2 0 .4 0 .5-.1.3-.1.5-.1.8-.2.2.2.5.3.8.3.5-.2.9-.7.8-1.2v-.2l.1-2.3v-.6-.4-1.2c0-.5.1-1.1.1-1.6 0-.3 0-.5.1-.8v-.6-.5c0-.4.1-.7.1-1.1v-.1l1-9.5.1-.6.5-4.1c.1-.5.1-1 .2-1.5l.1-.9c.1-.4.1-.8.1-1.2v-.2c0-.3 0-.6.1-.8l.3-.9c.2-.4.1-.9-.2-1.2 0-.3-.1-.6-.4-.9h.2.1l5.3-1.1c-.1.1-.1.2-.1.4s0 .4.1.5c0 .1-.1.2-.1.3-.1.4-.2.8-.2 1.2v.8.4c0 .5 0 .9-.1 1.4 0 .3 0 .6-.1.9v.8c0 .5 0 1-.1 1.5v.2c-.1.7-.1 1.4-.2 2.2 0 .3-.1.5-.1.8l-.1.4c-.1.4-.1.8-.2 1.2v.4l-4.5.9c-.1 0-.2.1-.3.2s-.1.2-.1.3.1.2.1.3c.1.1.2.2.4.2l4.2-.9v.5.4c0 .5-.1.9-.1 1.4 0 .3-.1.7-.1 1s0 .5-.1.8l.8.7v.7.7c0 .6 0 1.2-.1 1.8l-.2 2.2-.1.7c0 .3-.1.6-.1.9v1.2h.1-.1 0 0 .3 0-.3v.8.8 1.2c0 .4.3.8.7.9.1.3.2.5.4.6.1.1.3.1.5.1h.2c.2-.1.4-.1.6-.1h.4l2.1-.1c.3 0 .5-.1.8-.1l.2-.1c.3-.1.7-.2 1-.2.6-.2 1.3-.3 1.9-.4.7-.1 1.4-.3 2.2-.5l.9-.3c.3-.1.5-.2.8-.2.3-.1.7-.1 1-.1.7-.1 1.4-.2 2-.5.3-.1.6-.1.9-.2.2 0 .3 0 .5-.1.2 0 .4 0 .6-.1.3 0 .5-.1.8-.2l.2-.1c.1 0 .3-.1.4-.1.2 0 .3-.1.5-.1.2.1.4.2.7.1s.5-.1.7-.2.3-.1.5-.1l.2-.1c.3-.1.7-.2 1-.4.1 0 .2-.1.2-.2h.2c.6 0 1.1-.4 1.1-1v-.9c0-.5 0-1 .1-1.5 0-.3 0-.6.1-.9 0-.5.1-1 .1-1.5 0-.4.1-.9.1-1.3s.1-.7.1-1.1v-.4c0-.3 0-.5.1-.8l.1-.6c0-.2 0-.4.1-.7l.2-2.5v-1c0-.5 0-.9.1-1.4 0-.3.1-.6.1-.9 0-.5.1-1.1.1-1.6v-.4-.1h.1l3.2-.7v.1.3.3.4c0 .1.1.3.2.3.1.1.2.1.3.1h.1c-.2.4-.1.3 0 .2zm-48.3 9.7c-.1.9-.1 1.8-.1 2.6 0 .6 0 1.2-.1 1.7v.7l-.1 3.6v.8.3 1.2.6 1h-.6 0l-2.1.4-1.5.3-.5.1c-.6.1-1.3.2-1.9.2h-.3-.3-.2v-.3-.5c0-.5.1-1 .1-1.5v-1.2-.2-1.1-.5c0-.3 0-.5.1-.8v-.3c0-.4.1-.8.1-1.2 0-.3 0-.6.1-.8v-.4c0-.4.1-.8.1-1.1s0-.6.1-1c0-.5.1-.9.1-1.4v-.4h.4c.5 0 1 0 1.5-.1.7-.1 1.3-.3 1.9-.5.3-.1.6-.1 1-.2.3 0 .7-.1 1-.2l1-.3h.2c.1.3 0 .4 0 .5zm-6.5-10.7v-1-1.3h.1l1.8-.3c.4 0 .8-.1 1.2-.2.2 0 .5-.1.7-.1s.5-.1.7-.1h.2c.3 0 .6-.1.8-.1h.1l1.3-.3.6-.1h.1c0 .6 0 1.1-.1 1.7 0 .7-.1 1.5-.2 2.2v.3l-.3 2.5-.1.6c-.1.6-.1 1.3-.2 1.9l-.2 2.3c-.4.1-.9.2-1.3.4h-.1c-.3.1-.6.2-.9.2h-.3c-.2 0-.4.1-.7.1-.3.1-.6.1-.9.2h-.2l-1 .3c-.6.1-1.1.1-1.7.1 0-.7.1-1.3.1-2v-.2l.1-2.1.2-3.1v-.7c.2-.2.2-.7.2-1.2zm8.2 22.3v-1-1-.9h0l.1-2.4v-1c0-.5 0-1 .1-1.4v-1.4-1.1l.1-2.2c.2 0 .5-.1.7-.1.4-.1.9-.1 1.3-.2l.7-.1c.3-.1.6-.1 1-.2.3 0 .6 0 .8-.1h.2c.6 0 1.3-.1 1.9-.2l.7-.1c.5-.1.9-.1 1.4-.2.2 0 .4 0 .5-.1.2 0 .3 0 .5-.1v.6.4c0 .5 0 1-.1 1.5 0 .2 0 .5-.1.7v.5.7.5c0 .2 0 .5-.1.7 0 .7-.1 1.5-.2 2.3 0 .3 0 .6-.1.9v.2c0 .4-.1.8-.1 1.2v.8.7c0 .4-.1.8-.1 1.2v.3.2c-.2 0-.3.1-.5.1s-.3.1-.5.1c-.1 0-.3 0-.4.1-.2 0-.5.1-.7.1-.4.1-.8.2-1.3.2-.4 0-.8.1-1.3.1h-.6l-2.1.3c-.4.1-.8.2-1.2.2-.2 0-.5.1-.7.1v-.5l.1-.4zm10.4-23.1c0 .6-.1 1.2 0 1.9 0 .4 0 .7-.1 1.1v1.4c0 .5 0 1-.1 1.4 0 .4-.1.8-.1 1.3-.3 0-.5.1-.8.1l-.4.1c-.5.1-.9.1-1.4.2l-.7.1c-.6.1-1.2.2-1.8.2h-.4-.6c-.3 0-.7.1-1 .1-.4.1-.8.1-1.2.2l-.9.2c-.2 0-.3.1-.5.1v-.5-.6c0-.7.1-1.3.2-2l.1-1.3.4-3.7.2-3.5h.2c.6-.1 1.2-.2 1.8-.4a12.59 12.59 0 0 1 1-.3c.3-.1.7-.1 1-.2h.2c.3 0 .5 0 .7-.1.3 0 .5-.1.8-.2h.2c.4-.1.7-.1 1.1-.2.3 0 .6-.1 1-.1l.8-.1c.2 0 .5 0 .7-.1-.1.3-.1.7-.1 1l-.2 1.8c0 .2-.1.4-.1.6v.3c.1.5.1.8 0 1.2zm29.5-.9v.4 1.1 1.1c0 .5 0 1-.1 1.4-.1-.1-.3-.2-.5-.2h-.2-.3-.3-.2c-.3 0-.7.1-1 .2s-.7.1-1.1.2-.7.1-1.1.1c-.3 0-.7 0-1 .1-.3 0-.6.1-1 .2h-.3l-1.6.3c0-1.2.1-2.5.2-3.8 0-.5.1-1 .1-1.5l.2-2.5.1-2.3c0-.6.1-1.2.1-1.9h.1c.4-.1.7-.1 1.1-.1.2 0 .4 0 .6-.1h.3c.3 0 .7-.1 1-.1l.4-.1c.2 0 .4-.1.6-.1l.4-.1c.2 0 .4 0 .5-.1.2 0 .3-.1.5-.1h.2l.3.3a1.1 1.1 0 0 0 .8 0c.2-.1.5-.2.7-.3.1 0 .2-.1.2-.1.1 0 .2-.1.2-.1.1 0 .3-.1.4-.1h.1c0 .3-.1.6-.1.9-.1.7-.2 1.6-.2 2.5 0 .4-.1.9-.1 1.3s-.1.8-.1 1.1c0 .4-.1.9 0 1.4a4.59 4.59 0 0 1 .1 1zm-11.5 20.8c-.2.1-.4.2-.6.2l-.4.1c-.5.2-1.1.3-1.7.4l-1.8.3-.5.1-1.3.3c-.9.2-1.8.1-2.7.2-.1 0-.3 0-.4.1v-.5-1l-.2-.1h.2-.3.3v-1c0-.5.1-1.1.1-1.6l.1-.8.2-2.1c0-.4 0-.8.1-1.2v-.8-.5-.7l.1-.8c0-.3 0-.5.1-.8 0-.4.1-.8.1-1.2h0 .6.5c.4 0 .7 0 1-.1l1.1-.3.9-.3c.3-.1.6-.1.9-.1s.7-.1 1-.1c.7-.1 1.3-.2 2-.4.4-.1.8-.2 1.2-.2v.2c0 .4-.1.8-.1 1.2s-.1.7-.1 1.1-.1.9-.1 1.3-.1.8-.1 1.2v1 .9.6c0 .5-.1.9-.1 1.4 0 .4-.1.8-.1 1.2 0 .3 0 .5-.1.8v.5.4l-.1 1.1c.2-.1.2 0 .2 0zm-7.4-25.3c0-.3 0-.5.1-.8h1.2c.4 0 .7-.1 1.1-.1l1.3-.3c.2-.1.5-.1.7-.1s.3-.1.5-.1l.6-.1 2-.3c.4-.1.8-.1 1.3-.2h.4c0 .7-.1 1.4-.2 2.1 0 .5-.1 1-.1 1.5 0 .3 0 .7-.1 1-.1.7-.1 1.5-.2 2.2v.3c-.1.7-.1 1.5-.2 2.6v1.2 1.2h0c-.7.1-1.4.3-2 .4l-1.4.3c-.3.1-.7.1-1 .1h-.5c-.6.1-1.1.2-1.6.4s-1.1.4-1.5.4h-.2-.9v-.1c0-.4.1-.8.1-1.2.1-.4.1-.9.2-1.3s.1-.7.1-1.1l.2-2v-.4c0-.5.1-1.1.1-1.7v-1.1-.6c0-.2 0-.5.1-.7-.1-.4-.1-.9-.1-1.5zm9.4 24.1v-.3c0-.3 0-.5.1-.8 0-.4.1-.8.1-1.2v-.6-.6-.6-.6-1.1-.1c0-.5.1-1.1.1-1.6 0-.3.1-.6.1-.8v-.4c0-.2 0-.5.1-.7 0-.4.1-.8.1-1.3 0-.4 0-.9.1-1.3.1 0 .2 0 .3-.1l1.6-.3h.2l1.6-.3h.6c.2 0 .5 0 .7-.1l1.2-.2c.1 0 .3 0 .4-.1.2 0 .4-.1.6-.1.1 0 .2 0 .3-.1h.2c.2 0 .3 0 .5-.1.1 0 .1 0 .2-.1v.5c0 .3 0 .7-.1 1l-.1.7c-.1.6-.1 1.2-.1 1.7v.2l-.1 2.1-.2 2.3v.1c0 .5-.1.9-.1 1.4 0 .3 0 .5-.1.8v.4c0 .2 0 .5-.1.7v.5.1.2h-.1c-.1 0-.3.1-.4.1h-.2c-.1 0-.3.1-.4.1-.1-.1-.3-.1-.5-.2h-.2c-.3.1-.6.2-.9.2-.3.1-.6.1-.9.2s-.7.1-1 .2c-.4 0-.7.1-1.1.1-.3.1-.7.2-1 .2-.3.1-.6.2-.9.2s-.5.1-.8.1c.2.2.2-.1.2-.4zm26.8-34.4c-.1.2 0 .5.3.7.3.1.5-.1.6-.4.1-.2.1-.4.2-.6s.1-.4.2-.6.1-.4.1-.6v-.5-.1c0-.3-.1-.5-.4-.6h-.1-.1c-.3 0-.5.3-.5.5v.1.3.3l-14 2.9c-.1 0-.3.1-.3.2-.1.1-.1.2-.1.3s.1.2.1.3c.1.1.2.2.4.2h.1l13.6-2.8v.2l-.1.2zm-98.6 39.4h0c.3 0 .5-.3.5-.5v-.5-.4h0c0-.2.1-.3.1-.5l.1-.2c.1-.2 0-.5-.3-.6l-.2-.1h-.1c-.2 0-.4.2-.5.4l-.1.2c-.1.2-.1.5-.2.7v.5.4c.2.3.4.5.7.6h0z"/><path d="M316.9 312h-.1.3-.3l.7.1v-.1h-.7zm19.1 54.2s.1 0 .2-.1l.3-.1c.2-.1.5-.2.7-.4.3-.2.6-.3.9-.5l.2-.1c.1 0 .2-.1.3-.2l.6-.3c.1 0 .1-.1.2-.1l.5-.2 1-.3h.1c.1 0 .2-.1.3-.1l.3-.1h.1v.1c0 .1-.1.1-.2.2l-.3.4c-.1.1-.1.2-.2.3s-.2.2-.3.4-.1.5.1.7.5.2.7 0l.1-.1c0-.1.1-.1.1-.2l.5-.6c.2-.2.3-.4.5-.7l-.3-.2.3.1.2-.4v-.2-.1-.1c0-.1 0-.1-.1-.2l-.3-.4c-.1-.1-.2-.1-.3-.1h-.3-.3c-.1 0-.2 0-.4.1h-.1s-.1 0-.2.1c-.1 0-.2.1-.3.1s-.3.1-.4.1l-.2.1c-.1 0-.2.1-.3.1-.2.1-.4.1-.5.2h-.1c-.1 0-.2.1-.3.1l-.7.3c-.1 0-.2.1-.2.1-.2.1-.3.2-.5.3l-.5.2c-.1.1-.2.1-.3.2l-.2.1-.6.3h-.1-.1s0-.1.1-.2l.1-.1.1-.1v-.1c.1-.1.1-.2.2-.4l.2-.4c.1-.2.2-.3.3-.5l.3-.4c0-.1.1-.1.1-.2l1-1.3c.1-.2.3-.3.4-.5s.3-.3.4-.5l.7-.7c.2-.2.4-.4.6-.7l1-1c.3-.3.5-.6.8-.9h0l.2-.2c.1-.1.1-.2.2-.3l.1-.2v-.2-.1h0v-.2-.1-.1h-.1c0-.1-.1-.2-.3-.2-.1 0-.2-.1-.2 0h-.3-.2c-.2.1-.3.1-.5.2s-.3.1-.4.2l-.5.2c-.1 0-.2.1-.2.1-.1 0-.2.1-.3.1l-.3.1c-.2.1-.5.2-.7.3l-.6.3c-.1.1-.2.1-.4.2l-1.1.7c-.1 0-.2.1-.2.2l-.8.5c-.2.1-.4.3-.7.4l-.6.4.2.3h0l-.3-.2-1.4 1.1c-.1 0-.1.1-.2.2l-1 .9-.4.4-.1.1c-.3.2-.5.5-.8.7l-.8.8-.6.6h0c.1-.1.1-.3.2-.4l.3-.5c0-.1.1-.1.1-.2l.5-.8c.1-.1.2-.2.2-.4l1.2-1.6c.1-.1.2-.3.3-.4l.1-.2c.3-.4.7-.8 1-1.2.3-.3.5-.6.8-.9l.1-.1.1-.1c.2-.2.3-.4.5-.5.2-.2.3-.4.5-.5l.9-.9.4-.4.3-.3.2-.2.1-.1.5-.5c.2-.2.3-.4.5-.6.1-.1.1-.3 0-.5l.3-.3-.3.1c-.1-.1-.2-.2-.4-.2h-.1-.2c-.1 0-.1 0-.2.1l-.7.3c-.2.1-.5.2-.7.3h-.1c-.1.1-.3.1-.4.2l-.6.3c-.3.1-.5.2-.8.4l-.2.1c-.2.1-.5.2-.7.4l-.3.2c-.1 0-.1.1-.2.1l-.1.1c-.2.1-.4.2-.7.4-.1 0-.2.1-.2.1l-1.7 1.2c-.2.2-.4.3-.6.5l-.2.2c-.3.3-.6.5-1 .8-.1.1-.2.1-.3.2 0-.1.1-.1.1-.2s.1-.1.1-.2c0 0 0-.1.1-.1l.1-.1c.1-.1.1-.2.2-.3l.4-.6c.1-.2.2-.4.4-.5l.6-.8h0 0c.1-.1.1-.2.1-.3s0-.2-.1-.4c-.1-.1-.2-.2-.3-.2-.2 0-.3 0-.4.2l-.4.5c-.1.1-.2.3-.3.4-.2.2-.3.5-.5.7l-.1.1c-.1.1-.2.2-.2.4-.1.1-.2.3-.3.4a.76.76 0 0 0-.2.4c0 .1-.1.1-.1.2v.1c-.1.2-.2.3-.2.5v.3.2c0 .1 0 .1.1.2 0 .1.1.2.2.3s.2.1.3.1h.2.2l.4-.2c.1 0 .2-.1.2-.1.2-.1.3-.2.5-.3.1-.1.3-.2.4-.3l.6-.4c.2-.1.3-.3.5-.4l.9-.7 1-.7.1-.1.6-.3c.2-.1.5-.3.7-.4l.3-.2.6-.3 1.5-.7c.1 0 .2-.1.3-.1h0l-.6.6-.2.2-.7.7c-.2.2-.3.4-.5.6l-.3.4-.9 1.1c-.2.2-.4.4-.5.6l-.5.6a1.38 1.38 0 0 0-.3.4l-.1.1c-.2.2-.3.4-.5.6-.1.1-.1.2-.2.3l-.5.7c0 .1-.1.1-.1.2l-.4.6c-.1.1-.2.2-.2.4l-.4.6a.76.76 0 0 0-.2.4l-.3.6c-.1.1-.1.2-.2.3 0 0 0 .1-.1.1 0 .1-.1.2-.1.3v.2.1c0 .1 0 .2.1.2.1.1.2.2.3.2h.1v.7l.3-.6c.1 0 .2 0 .2-.1.2-.1.4-.2.5-.3.2-.1.3-.2.5-.3.1-.1.3-.2.4-.4l.1-.1c.2-.2.4-.4.6-.5l.2-.2c.5-.4.9-.9 1.4-1.3l.2-.2.1-.1.1-.1c.2-.1.3-.3.5-.4l.4-.4.1-.1c.1-.1.3-.2.4-.3.2-.2.5-.3.7-.5l2.4-1.6c.1 0 .1-.1.2-.1l2-1.1c.2-.1.5-.2.7-.4l.2-.1c.3-.1.5-.2.8-.4 0 0 .1 0 .1-.1l-2.2 2.4c-.2.2-.4.4-.6.7l-.2.2c-.2.2-.4.5-.6.7l-.2.2c-.1.1-.2.2-.3.4l-.3.4-.1.1-.3.5-.1.1-.2.4c0 .1-.1.1-.1.2l-.1.2-.3.6c-.1.2-.2.4-.2.6v.2.2c0 .1 0 .2.1.2l-.3.8.5-.5s0 .1.1.1l.1.1.1.1v.1h0c.1 0 .2.1.3.1h.3l-.8.5zm6.6-2.4h0 0 0z"/><path d="M375.5 359.9h0c.1-.1.2-.2.3-.2l.1-.1c.2-.2.4-.3.5-.4h0c.1-.1.2-.2.3-.2.1-.1.2-.1.4-.2v.2.3.1c-.1.5-.2.9-.4 1.3l-.1.3c-.1.2-.1.4-.2.6l-.2.7c-.1.3-.2.7-.3 1.1-.1.3-.1.5-.1.8v.1.3.1c0 .1.1.1.1.2.1.1.2.2.3.2s.2.1.3 0h.2l.2-.1c.1 0 .2-.1.3-.2l.3-.2.2-.2.1-.1.3-.3 2.4-2.5c.2-.2.5-.4.7-.6.1-.1.2-.2.4-.2.1 0 .2-.1.3-.1h0 0 .2.2.2 0 0 0 0v.1.1.2.2.2c0 .4-.1.8-.1 1.2 0 .1-.1.3-.1.5v.2c0 .1.1.2.2.3l.1.1v2.6l.6-2.7s.1-.1.1-.2v-.3h0c0-.1.1-.3.1-.4 0-.2.1-.5.1-.7v-.7-.1-.1c0-.1 0-.2-.1-.3 0-.1-.1-.2-.1-.3s-.1-.2-.2-.3-.3-.2-.5-.4h-.1-.3c-.2 0-.4 0-.6.1-.2 0-.4.1-.5.2l-.6.3a1.38 1.38 0 0 0-.4.3c-.1.1-.3.2-.4.3l-.4.4c-.4.4-.8.9-1.3 1.3l-.6.6c-.1.1-.2.3-.4.4l-.3.3-.2.2.3-1.1.2-.5c.1-.2.2-.5.2-.7l.6-2c0-.1 0-.3.1-.5v-.4-.1c0-.1 0-.2-.1-.2 0-.1-.1-.2-.2-.3l-.1-.1c-.1-.1-.1-.1-.2-.1s-.2-.1-.3 0c-.1 0-.2 0-.4.1s-.3.2-.5.2c-.2.1-.4.2-.6.4-.2.1-.4.3-.6.5l-.1.1-.2.2-.2.2-.4.1c-.3.3-.5.6-.7.8-.3.4-.6.7-1 1.3-.1.2-.3.4-.4.6l-.5.8c-.1.1-.1.2-.2.3l-1.3 2.2c0 .1-.1.2-.1.2h0v-.1-.2l.1-.4h-.1.1l.1-.7c0-.1.1-.3.1-.4l.1-.3c0-.1.1-.2.1-.3l.2-.8.3-1.1v-.1l.3-1.1c.1-.3.1-.5.1-.8v-.4c0-.2 0-.3-.1-.5v-.1c0-.1 0-.1-.1-.2l-.1-.1c-.1-.1-.1-.2-.2-.2h-.1s-.1 0-.2-.1h-.1c-.1 0-.1 0-.2.1s-.3.2-.4.3l-.1.1c-.1 0-.1.1-.2.1l-.3.3-.1.1-.5.5c-.1 0-.1.1-.2.2l-.4.5-.2.2-.5.6c-.1.1-.2.2-.2.3l-.2.3c-.1.2-.2.3-.4.5l-.5.9c0 .1-.1.1-.2.3l-.3.6c-.1.2-.2.4-.3.7l-.8 1.7c-.1.2-.2.3-.2.5l-.2.4c0-.2.1-.4.1-.6l.1-.5c0-.2.1-.4.1-.7l.4-1.5c.1-.3.1-.6.2-.9l.2-.7c0-.1.1-.2.1-.3l.1-.2c.1-.4.3-.7.4-1.1.1-.2 0-.5-.3-.7-.2-.1-.5 0-.6.3-.1.4-.3.7-.4 1.1l-.1.3c0 .1 0 .1-.1.2l-.3 1.2-.5 2.3-.3 1.4c0 .1 0 .1-.1.3h.3l-.3.1-.2.9v.3.2.2.1.5.2c0 .1.1.2.1.2l.1.1v.3l.2-.2v.3l.1-.3c.1 0 .3 0 .4-.1l.3-.3c.1-.1.2-.3.3-.4s.1-.3.2-.4.1-.3.2-.4v-.1h0l.6-1.4h0 0 0 0 0 0l.1-.2c.1-.2.2-.4.3-.7.1-.2.2-.4.3-.5l.4-.8c.1-.2.3-.5.4-.7l.1-.2c.1-.2.2-.3.3-.5l.3-.6c0-.1.1-.1.2-.2l.4-.6.1-.1c.2-.2.4-.5.6-.7l.5-.5.1-.1c.1-.1.2-.2.3-.2l.2-.2.2-.2c.1-.1.2-.2.3-.2h0v.3c0 .2-.1.3-.1.5-.1.5-.2 1-.4 1.5l-.1.4c-.1.3-.1.5-.2.8l-.1.4c0 .1-.1.2-.1.4l-.1.3c0 .1-.1.3-.1.4l-.1.7c0 .2-.1.3-.1.5v.2.3c0 .2 0 .3-.1.5v.2.1c0 .1 0 .2.1.2l.2.2c.1.1.1.1.2.1h.3.1c.1 0 .1 0 .2-.1s.2-.1.3-.2.2-.2.2-.3l.2-.3c.1-.2.2-.3.3-.5l.1-.2c0-.1.1-.1.1-.2l.6-1 1.2-1.9.9-1.3c.1-.2.3-.3.4-.5l1.3-1.6c0 .1 0 0 0 0zm-11.8 7.5h.3v.1l-.3-.1zm-32.2-26.1c.1 0 .3 0 .4-.1s.2-.2.2-.3c0-.3-.1-.5-.4-.6h0-.6-.5-.7c-.3 0-.6.1-.8.2-.1 0-.1 0-.2.1h-.1c-.1 0-.1 0-.2.1h0c0-.1.1-.2.1-.3l.1-.3c.1-.1.1-.3.2-.4l.1-.2c0-.1.1-.2.1-.3v-.2-.3-.2c0-.1 0-.2-.1-.2l-.1-.1-.1-.1c-.1 0-.2-.1-.3-.1h-.2c-.1 0-.2 0-.2.1-.1 0-.2.1-.3.2h-.1c-.1 0-.1.1-.2.1l-.1.1c-.1.1-.2.1-.3.2l-.6.3c-.2.1-.3.2-.5.3l.1-.1c.2-.2.3-.4.5-.6s.4-.3.6-.5.2-.5.1-.7c-.1-.1-.2-.2-.3-.2h-.1 0c-.1 0-.2.1-.3.1l-.4.3c-.2.2-.4.3-.5.5s-.3.3-.4.5c-.1.1-.2.2-.2.4l-.2.4c-.1.1-.1.3-.2.4 0 0 0 .1-.1.1 0 .1-.1.2-.1.2v.2.2c0 .1.1.1.1.2v.1l.1-.1c.1 0 .1.1.2.1h.2c.1 0 .2 0 .3-.1l1.1-.6c.2-.1.4-.3.6-.4a.76.76 0 0 1 .4-.2l.2-.1c.1 0 .1-.1.2-.1h.1c0 .1 0 .1-.1.2s-.1.3-.2.4l-.3.6v.1.1.2.4c0 .1 0 .2.1.2l.1.1.2.2c.1.1.3.1.5.1h.2.1c.1 0 .2 0 .2-.1.1 0 .1 0 .2-.1l.4-.1c.1 0 .2-.1.3-.1.2 0 .3-.1.5-.1h0 0 .7c.1-.2.3-.1.5-.1zm-3.6-.9h0 0 0zm0 .7h0 0 0z"/><path d="M345.3 346.8c0 .1-.1.2-.1.4v.2c0 .1 0 .2.1.2 0 .1.1.1.1.1.1.1.1.2.2.2s.1.1.2.1.2.1.3.1h.2.3c.2 0 .3 0 .5-.1h.1c.1 0 .2-.1.3-.2s.1-.3.1-.4c0-.3-.3-.5-.5-.5h-.2c-.2 0-.4.1-.6.1h-.2c.1-.1.1-.2.2-.3 0-.1.1-.2.1-.3v-.2-.2c0-.1 0-.2-.1-.3l-.2-.2c-.1 0-.1-.1-.2-.1h-.2-.4c-.2 0-.3.1-.5.1l-.4.1c-.1 0-.2.1-.3.1l-.2.1h-.1v-.1l.2-.4.3-.6c.1-.1.1-.2.1-.4 0-.1-.1-.2-.2-.3s-.2-.1-.3-.1-.2.1-.3.1l-.6 1c0 .1-.1.1-.1.2l-.2.3-.4.5c-.1.1-.1.2-.1.2-.1.1-.1.2-.1.4 0 .1 0 .2.1.2l-.1.1h.2l.2.2h.1.3c.2-.1.4-.1.6-.2l.6-.2v-.1l.1.1h0 0a.76.76 0 0 0 .4-.2c.1 0 .2-.1.4-.1h0c.4.2.4.3.3.4zm17.9.5h0 0l.3.2.2-.1c.2-.1.3-.2.5-.2v.1.1c0 .1-.1.2-.1.3s0 .1-.1.2l-.2.6v.2.1.3l.1.2c0 .1.1.1.2.2 0 0 .1.1.2.1s.2.1.3.1h.3.4c.1 0 .2-.1.3-.2s.1-.3.1-.4a.47.47 0 0 0-.5-.5h0-.2v-.1-.1c0-.1.1-.3.1-.4.1-.3.1-.5.2-.8v-.2-.3c0-.2-.1-.3-.2-.5l-.1-.1v-2h0v-.1l-.4 1.8h-.1-.2-.2c-.1 0-.1 0-.2.1s-.3.1-.4.2l-1 .7c-.1.1-.2.1-.2.2l-.9.7c-.1.1-.2.2-.3.2v-.1c.1-.1.2-.3.3-.4l.3-.6.1-.2c0-.1.1-.2.1-.4v-.3-.2s0-.1-.1-.1c-.1-.2-.2-.2-.5-.3h-.1c-.2 0-.3.1-.4.3 0 .1-.1.1-.1.2s-.1.2-.1.3 0 .2-.1.3v.1.2c-.1.2-.2.3-.3.5l-.1.2c-.1.1-.2.2-.3.4l-.6.8s0 .1-.1.1c0 .1-.1.1-.2.2 0 .1-.1.2-.1.2-.1.1-.1.2-.1.3s0 .2.1.2l-.3.5.5-.3c.1.1.2.1.3.1h.2.1c.1 0 .2-.1.2-.1l.2-.1c.1-.1.2-.1.3-.2s.3-.2.4-.3l1.5-1.2c.2-.1.3-.2.5-.4l.7-.5-.2.2zm19.7-4c0-.1 0-.3-.1-.4s-.2-.2-.4-.2c-.1 0-.2 0-.3.1l-.3.2c-.1.1-.2.1-.2.2-.2.1-.3.3-.5.5-.2.1-.3.3-.4.4l-.3.3-.2.2c0 .1-.1.2-.1.2v.2a.55.55 0 0 0 .3.5l.3.1h.2.1.3c.1 0 .1 0 .2-.1h.1c.1 0 .2-.1.3-.1l.5-.2.9-.3-.1-.2.1.2h0 0l.3-.1c.1 0 .2 0 .3-.1h.1c.2-.1.4-.1.6-.1h.1c.1.1.2.2.3.2h.4l.1-.1c.2-.2.2-.5.1-.7l-.1-.1-.2-.2c-.1-.1-.1-.1-.2-.1s-.3-.1-.4-.1h-.3-.2-.1c-.1 0-.2 0-.3.1-.1 0-.3.1-.5.1-.1 0-.2.1-.3.1l-1 .4c.3-.2.6-.5.9-.7-.1 0 0-.1 0-.2zm-45.1-43.5l-.1-.1-.2-.2c-.1-.1-.2-.1-.3-.1h-.1 0c-.1 0-.2 0-.3.1l-.6.3c-.1.1-.2.1-.3.2l-.7.5c-.1 0-.1.1-.2.1l-.5.4-.1.1c-.1.1-.2.1-.2.2l-.4.4-.1.1-.2.2.1-.2a.76.76 0 0 0 .2-.4l.7-1.5c.1-.3.3-.5.4-.8l.2-.4c0-.1.1-.1.1-.2l.1-.2c.1-.1.1-.2.2-.3.1-.2.2-.3.3-.5s.1-.5-.1-.7c-.1-.1-.2-.1-.3-.1-.2 0-.3.1-.4.2s-.2.3-.3.4l-.1.2s0 .1-.1.1v.1c-.1.1-.1.2-.2.3l-.3.6c-.1.3-.3.6-.4.9l-.7 1.5-.3.6-.5 1c-.1.2-.2.3-.2.5-.1.1-.1.2-.1.3s-.1.1-.1.2l-.1.3v.4c0 .1.1.2.2.2v.1l.1-.1c.1 0 .1.1.2.1h.1c.1 0 .2 0 .3-.1a1.38 1.38 0 0 0 .4-.3l.1-.1.4-.4.4-.4.5-.5.2-.2c0-.1.1-.1.2-.1l.5-.5c.1 0 .1-.1.2-.1l.6-.4c.2-.1.3-.2.5-.3l.1-.1c.1 0 .2-.1.2-.1l.1-.1c0 .1-.1.2-.1.3s-.1.2-.1.3l-.2.4c-.1.3-.3.6-.5.9l-.1.2c-.1.1-.1.3-.2.4l-.1.2c-.1.1-.1.3-.2.5l-.4.9c-.1.2-.2.4-.2.6 0 .1 0 .2-.1.3v.5c0 .1 0 .2.1.3l.1.2c0 .1.1.1.1.2l.1.1.2.2c.1.1.2.1.3.1.2.1.3.1.5.2.1 0 .2 0 .3.1h.3 0c.1.1.2.1.3.1s.2-.1.3-.1l.1-.1c.1-.2.1-.5-.1-.7l-.2-.2-.1-.1h-.2-.3c-.1 0-.2 0-.3-.1l-.1-.1c-.1 0-.1-.1-.2-.1 0 0-.1 0-.1-.1v-.1-.2-.1c0-.2.1-.3.2-.5l.4-1h0l.1-.1c.1-.2.2-.5.4-.8l.3-.6.6-1.3c0-.1.1-.2.1-.3s.1-.3.1-.4.1-.2.1-.3v-.3-.1-.1l-.3-.3zm-.7.4h0 0 0z"/><path d="M292.9 273.5c.1.1.2.1.3.1h.2s.1 0 .2-.1c0 0 .1-.1.2-.1s.2-.1.2-.1l.6-.3c.1-.1.3-.1.4-.2s.2-.1.3-.1c0 .1-.1.2-.1.3s-.1.1-.1.2l-.3.6-.1.2c0 .1-.1.1-.1.2-.1.1-.1.3-.1.5v.2c0 .1 0 .1.1.1.1.1.2.2.3.2h.1c.1 0 .2 0 .2-.1l.1-.1c.1-.1.2-.4.1-.5.1-.1.1-.2.2-.4l.3-.6c.1-.1.1-.3.2-.4 0-.1.1-.2.1-.4v-.2-.2-.1h-.3 0l.3-.1h0c0-.1 0-.1-.1-.2v-.1c0-.1-.1-.1-.2-.2l-.1-.1c-.1-.1-.2-.1-.2-.1h-.4c-.2.1-.4.1-.6.2-.1 0-.1.1-.2.1l.1-.3c0-.1.1-.2.1-.2l.2-.5c0-.1.1-.2.1-.3s.1-.1.1-.2l.1-.1c.1-.2.1-.5-.1-.7-.1-.1-.2-.1-.3-.1-.2 0-.3.1-.4.2 0 .1-.1.1-.1.2-.1.1-.1.2-.2.3l-.1.2c0 .1-.1.1-.1.2l-.2.6c0 .1-.1.2-.2.3-.1.2-.2.3-.3.5-.1.1-.2.2-.2.4l-.1.1.2.2-.3-.2-.2.4c-.1.2 0 .3.1.5.3.2.3.2.3.3l-.2.1.2-.1zm1.3-1.5h.2-.1-.1zm-1 .9h0 0zm11.1 23.7c0-.1 0-.3-.1-.4v-.1c0-.1-.1-.2-.2-.3l-.2-.2h-.1-.1-.2-.3c-.1 0-.3 0-.4.1-.1 0-.1 0-.3.1h-.2l-.2.1.1.3-.2-.3h-.1 0v-.2c0-.1 0-.2.1-.2 0-.1.1-.1.1-.3l.1-.3c.1-.2.1-.3.2-.5h0l.2-.4c0-.1.1-.2.1-.2l.1-.2c.1-.3.3-.5.4-.8l.1-.3.3-.6.3-.6c0-.1 0-.1.1-.2 0-.1.1-.2.1-.3v-.3-.3c0-.1 0-.1-.1-.2l-.2-.2c-.1 0-.1-.1-.2-.1h-.3-.1c-.1 0-.1.1-.2.1s-.1.1-.2.1c-.2.2-.5.3-.7.5s-.4.3-.6.5l-.7.6c.1-.1.1-.2.2-.3a.76.76 0 0 0 .2-.4l.5-.8.1-.1c0-.1.1-.2.1-.2l.3-.6v-.4c0-.1-.1-.2-.3-.3h-.2-.2-.1c-.1.1-.2.2-.2.3l-.2.4c0 .1-.1.2-.1.3l-.1.2c-.1.2-.3.5-.4.7l-.9 1.5c0 .1-.1.1-.1.2l-.1.4c0 .1 0 .3.1.4 0 .1.1.1.1.2.1.1.2.2.3.2.2 0 .4 0 .5-.1.2-.1.3-.2.5-.3.4-.3.8-.7 1.2-1l.1-.1c.1-.1.3-.2.4-.4l.2-.2c-.1.1-.1.3-.2.4l-1 1.9c-.1.1-.1.3-.2.4l-.4.8c-.1.1-.1.3-.2.5s-.1.3-.1.5h0-.3l.4.2v.1c0 .1 0 .2.1.3l.1.1.2.2s.1 0 .1.1c.1 0 .1.1.2.1s.2 0 .3.1h.2c.1 0 .2 0 .4-.1l.2-.1c.1 0 .2-.1.3-.1h.1.2.1 0v.2.4c0 .3.1.5.5.6a.47.47 0 0 0 .5-.5v-.4c.2-.1.2-.1.2-.2h0zm-2.8-7.7h0 0 0zm-25.2-2.7c-.1-.1-.3-.1-.4-.1h-.4 0-.5c-.4 0-.8 0-1.1-.1h-.1c-.1 0-.1-.1-.2-.1h-.1l-.1-.1s0-.1-.1-.1v-.1-.1c0-.1 0-.1.1-.2 0-.1.1-.1.1-.2l.1-.1c.1-.1.2-.3.3-.4l.9-1.2c.3-.3.5-.7.7-1 0-.1.1-.1.1-.2l.1-.1c.1-.1.1-.3.2-.4s.1-.3.1-.4c0-.2.1-.4 0-.6v-.1c0-.1 0-.1-.1-.2 0-.1-.1-.2-.1-.2l-.1-.1-.2-.1c-.1 0-.1-.1-.3-.1h-.1-.3-.2v.3l-.1-.3h-.4c-.2 0-.4.1-.5.1-.2 0-.3.1-.5.1l-.5.1s0-.1.1-.1h0c.1-.2.2-.4.3-.5.1 0 .2-.1.2-.2l.2-.3.6-1-.2-.2.2.1c.1-.1.2-.3.3-.4.1-.2.1-.4 0-.6-.1-.1-.2-.2-.4-.2-.1 0-.2 0-.3.1l-.2.2-.1.1-.2.2c-.2.3-.5.6-.7 1-.1.2-.3.4-.4.7-.1.1-.1.2-.2.3l-.2.4c-.1.1-.1.3-.1.4s-.1.2-.1.3-.1.3 0 .5c0 0 0 .1.1.2l.1.1c.1.1.2.1.2.1h.2c.2 0 .5-.1.7-.1.2-.1.4-.1.6-.2l.6-.2c.1 0 .3-.1.4-.1h.3.1.1v.1l.3.1h0-.3c0 .1 0 .1-.1.2l-.3.6c-.1.2-.3.4-.4.5l-.9 1.1c-.2.2-.4.4-.5.7l-.2.2-.1.1a.76.76 0 0 0-.2.4c-.1.1-.1.2-.1.4v.3.2c0 .1 0 .2.1.4 0 .1.1.2.2.3s.2.2.2.3c.1.1.3.2.4.3.2.1.5.2.8.2h.7.2.2.2.6c.1 0 .2-.1.3-.2s.1-.3.1-.4c.4-.2.4-.3.3-.4h0zm-.6-5.9h0 0 0 0zm-14.4 1.3c.1-.2.1-.3.2-.5l.2-.5v-.1c0-.1.1-.1.1-.2l.1-.1h.1c.2-.1.4-.3.6-.4l.5-.2c.2-.1.3-.3.4-.4s.2-.2.2-.3l.1-.2c.1-.2.1-.5-.1-.7-.1-.1-.2-.1-.3-.1h0c-.2 0-.3.1-.4.2l-.3.4-.1.1c-.1 0-.1 0-.2.1l-.2.1c-.1 0-.1.1-.2.1l-.6.3a.78.78 0 0 0-.4.4v-.1l-.2.3c-.1.1-.1.2-.2.3l-.1.2c0 .1-.1.1-.1.2v.1c0 .1 0 .1-.1.2l-.1.1-.3.6c-.1.1-.1.2-.2.4l.3.1c-.1.1-.1.2-.2.3s-.1.2-.2.2l-.3-.3-.2.2h0l.1-.3-.1-.1h-.1-.3-.1c-.1 0-.1 0-.2.1s-.2.1-.2.2c-.1.1-.1.2-.2.3 0 .1-.1.1-.1.2-.1.2-.2.4-.2.5-.1.2-.1.3-.2.5l-.1.5c0-.1-.1-.2-.1-.3s-.1-.2-.3-.3c-.1-.1-.3-.1-.5 0s-.3.4-.2.7l.3.6c.1.1.1.3.2.4l.1.2c0 .1.1.1.1.2.1.1.2.1.3.2h.2 0 .1l.1-.1.2-.2v-.1s0-.1.1-.1c0-.1.1-.2.1-.4.1-.2.1-.4.2-.6l.1-.4c0-.2.1-.3.1-.5 0-.1.1-.2.2-.4l.2.2s.1 0 .1.1h.1.3c.1 0 .1 0 .3-.1l.2-.2.3-.3c.1-.1.1-.2.2-.2l.1-.1c.1-.2.2-.3.3-.5l.5-.5zm-2.2 1h0 0 0 0zm179-7.5l-.7 2c-.3.8-.4 1.7-.5 2.6h0c0 .9 0 1.8.2 2.7l.3 1.8.2 1.1.7-.1-.2-10.1zm-8.1 6.2l-.7.3.7-.2zm1.2 6.3h.7v-1.1-.2h-.7v.2c-.1.5-.1.8 0 1.1zm-14.3 22h.3 0-.3-.3.2l-.2.1.6-.1h0zm16.8-3.9v-.2l-.7.1v.1zm-26.6 26l.2.7h0zm-.6.2l.2.6h0zm-31.8 15.5h.7v.1h-.7zm-50.2-136.7c.3.2.7.3 1.1.3l.1-.7c-.3-.1-.6-.1-.9-.2-.2-.1-.4-.3-.7-.5-.1-.1-.3-.2-.5-.3-1.3-.7-2.7-1.3-4-1.8l-.2.6c1 .4 1.9.9 2.8 1.5.7.4 1.5.8 2.3 1.1zm90.2-69.2c1.2.3 2.4 1.4 3.6 1.3-.5 11.9 28.4-8.4 34.1-9.8 7.3-2.2 8.9-11 14.9-15.5-17.5 8.9-35.5 16.8-53.9 23.5.4.2.9.4 1.3.5zm-28.6 11.8c1.7-.3 3.3-1.1 4.5-2.4-3.1 1.3-6.2 2.3-9.4 3.5 1.6-.3 3.2-.7 4.9-1.1zm-51.9 311.8h0 0z"/><path d="M658.7 460.6c-4.5-21.4-6.7-37.6-7.4-43.3-4.2-30.8-6.3-36.8-15.9-106.4l-15.8-125.4c-3.2-2.5-6.2-5.3-8.8-8.3l-.3-.3c-7.3-3.3-14.5-6.9-22-10 .3.3.6.5.9.7 5.2 2.6 24.2 17.8 21.5 24 4.6 27.9 6 57.5 10.8 85.8 7.3 61.9 19.3 123 29.2 184.5-34-19.3-67.7-39.6-105-52.3-10.4-3-20.2-9-30.6-11.1-5.5-2-5.4-20.8-7.3-26.8 0 .4.1.7.2 1.1-4.4-5.4-6.9-135.3-11.3-102.3.8 41.8 1.4 84.3 8.7 125.4-27.7 13.8-57.5 23.1-84.3 38.8-21.1 10.8-43.7 18.2-64.9 28.7-.7-90.5-4.4-89.7-7.1 0-33.2-14.6-65.2-31.9-98.1-47.1-10-4.6-20-9.5-30.5-12.9-11.4-2.3-10.7-6.4-10.3-16.7l-.7-96.1c-1.4-16.5 4.4-35-.5-50.5-2.7.5-1.1 5.2-1.5 7.3-.9 19.6-1.3 39.3-1.8 58.9-1.4 30.2-4.1 60.3-2.5 90.6h0c3.6 6.4-38.9 15.1-45.6 18.9C123.7 433.5 87 446 53 463.8 66.2 398.9 76.5 333.3 86.8 268c4.7-26.5 11.7-52.9 12.9-79.7 7.1-7.2 19.1-8.4 22.1-18.6-.3.2-.7.4-1 .6-4.4-9.5-18.3 8.2-23.5 10.8-4.7 1.8-5.7 3-5.6 8.6L69.1 325.6C61.5 358 57.9 391.3 51 424c0 9.5-1.3 19.1-5.6 27.5-1 5.9-1.5 11.8-1.6 17.8 1.1 7.3 14.3-.7 18.8-1.4 20.1-6 38.1-16.7 57.2-25 16.1-8.3 33.6-13.1 50.1-20.7 38-17.9 35.8-17.8 73 1.3 29.9 15.1 60.1 29.5 91.3 41.7 4.9 3.1 13.5 3.5 16.6 7.3.5 1.8 2.7 1.7 4.2 1.2 16.7-6.1 32.9-14 49-21.6 26.6-10.5 51.3-25.2 77.4-36.6 9.4-2.8 23.3-17.4 31.6-10.2 30.8 16.1 63.4 28.8 94 45.1 15.8 7.3 30.8 16.1 46.8 22.8.4.2 1.2.4 2.2.3 1.4-.2 2.3-1.1 2.5-1.4.1 0 1.1 0 1.8-.8a2.25 2.25 0 0 0 .5-1.4c-.6-2.3-1.3-5.5-2.1-9.3zm-453.6-88.3c-.3-2-.4-4.1-.3-6.1 0-1.2.2-2.3.3-3.5a153.6 153.6 0 0 1 0 9.6zm0-13.6c-.1-1.4 0-2.7.1-4.1 0 1.4-.1 2.7-.1 4.1zm72.5 77.1c-2.4-1-4.7-2-7-3.2 2.7 1.1 5.4 2.2 7.9 3.6l-.9-.4zm97.5 23.7c.9-.4 1.8-.8 2.8-1.1-1 .3-1.9.7-2.8 1.1z"/><path d="M351.7 464.4v-.2.2h0zM498 119.6c-.2.4-.5.7-.9 1h0l2.7-1.1c-.7-.2-1.5-1-1.8.1zm76 46.5h0 0zm-420.6-10.7c7.7 4.4 37.3-17.7 46.4-21.5 6.7-1.5 17.7-13.6 22.9-10.3v-.1c9.6 3.2 20.1 11.3 28.6 2.9-6.6-3.3-13.5-5.9-20.4-8.9-5.1-1.7-9.3-5.3-14.1-1.3-15.3 8.3-30.1 17.4-45.5 25.7-7.3 3.9-15.8 6.4-20.8 12.2 1 .3 2.2.4 2.9 1.3z"/></g><path d="M361.7 31.6c-31.9-4.3-62.8 3.6-80.6 32.6-15.9 22-15 50.7-8.5 76 7.6 31.4 31.2 54.7 52.1 77.8 3.4 3.6 18.9 24.3 23 21.2 4.1-1.3 7.1-4.8 10.4-7.4 8.3-6.2 15.7-13.6 23.1-20.8 18.5-17.3 34.1-37.5 41.6-61.9 2.5-8.7 4.3-16.9 6.3-25.6-.4-12.2.3-24.3-3.7-36.1-5.1-13.9-13-26.7-23.8-36.9-10.3-11.4-25-17.1-39.9-18.9z" fill="#c14231"/><path d="M346.7 243c-5.2 0-12.1-7.8-21.4-19-1.4-1.6-2.5-3.1-3.1-3.7l-6.1-6.7c-19.6-21.4-39.8-43.5-46.9-72.7-5.8-22.2-8.9-54 9-78.8 16.7-27 46.5-39.1 84-34.1 12.2 1.4 29.4 6 41.9 19.8 10.7 10.1 18.9 22.9 24.6 38.1v.1c3.4 10 3.6 20.3 3.8 30.1 0 2.3.1 4.7.2 7v.4l-.1.4c-2 9-3.9 17.2-6.4 25.8-6.8 22.3-20.7 43-42.5 63.5l-2.2 2.2c-6.6 6.5-13.5 13.2-21.1 18.9-.7.6-1.5 1.2-2.2 1.9-2.5 2.2-5.2 4.7-8.8 5.9-1 .7-1.8.9-2.7.9zm-1.1-209c-34.1 0-52.2 16.8-61.5 32l-.1.2c-16.4 22.6-13.3 52.2-7.9 73 6.7 27.6 26.3 49 45.3 69.7l6 6.6c.7.7 1.9 2.2 3.4 4 8.1 9.8 13.4 15.3 15.7 16.3l.2-.1c2.4-.7 4.5-2.6 6.7-4.6l2.5-2.2.1-.1c7.3-5.4 14-11.9 20.5-18.3l2.3-2.2c21-19.6 34.2-39.4 40.7-60.4 2.4-8.3 4.2-16.2 6.1-24.9-.1-2.2-.1-4.5-.1-6.7-.2-9.7-.3-19-3.4-27.9-5.3-14.2-13-26.2-22.9-35.5l-.2-.2c-11-12.2-26.5-16.3-37.6-17.6h-.1c-5.2-.7-10.5-1.1-15.7-1.1z" fill="#1b1718"/><path d="M283.9 122.1v-.1c.3-.3.5-.8.5-1.2V109h-1.2c-.5 0-1 .2-1.4.5l-.3.2h-.1v-3.1h8.4v3.1h-.1l-.3-.2c-.4-.3-.9-.5-1.4-.5h-1v11.8c0 .4.2.9.5 1.2v.2l-3.6-.1zm16.5-15.4v.2c-.2.3-.3.7-.4 1.1v13c0 .4.1.8.4 1.1v.2H297v-.3c.2-.4.4-.8.4-1.2V115h-2.7v5.8c0 .4.2.8.4 1.2v.2h-3.5v-.2c.2-.4.4-.8.4-1.2V108c0-.4-.2-.8-.4-1.2v-.2h3.5v.2c-.2.4-.4.8-.4 1.2v4.6h2.7V108c0-.4-.2-.8-.4-1.2v-.2l3.4.1zm7.1 2.2h-2.1v3.8h1c.5 0 .9-.2 1.3-.4h.2v2.8h-.2c-.4-.2-.8-.3-1.3-.4h-1v5.2h2.5c.6-.1 1.1-.3 1.6-.6h.1v2.8h-7.1v-.1c.2-.4.4-.8.4-1.2V108c0-.4-.2-.8-.4-1.2v-.2h6.8v2.7h-.1c-.6-.2-1.1-.3-1.7-.4zm15.9-36.8h9.5v.5c-1.1 1.2-1.8 2.7-1.9 4.4l-.1 61.9c11.8 1.9 25.2 10.1 34.8 10.1 4.1 0 6.4-2.1 7.1-3.4l.5-.1c2.1 1 3.4 3 3.4 5.3 0 3.5-3.6 7.1-11 7.1-13.8 0-28.8-10.5-43-10.6h-5.4v-.5c1.1-1.2 3.9-3.5 3.9-7.4l.1-58.4c-7.3.7-10 4.7-10 7.5 0 1.8 1.5 3.4 2.9 3.4v.7c-1.1 2.1-2.6 3.5-6 3.5-3.3 0-5.8-2.5-5.8-7.6 0-7.8 8.2-16.4 21-16.4zm35 12.9l10.9 48.2c.3 1.3.9 2.6 1.7 3.6v.4h-11.5v-.5c.8-1.1 1.1-2.4.7-3.7l-1.8-7.3h-7.2l-2.1 7.7c-.3 1.1-.1 2.4.6 3.3v.5h-10.8v-.4c.6-.8 1.1-1.7 1.4-2.7l11.5-45.4c.3-1.2-.2-2.5-1.1-3.3V85h7.7zm-5.9 33.7h4.6l-2.2-11.1-2.4 11.1zm36.6-33.1c7.3 0 11.5 5.3 11.5 13.3-.1 3.7-1.7 7.2-4.4 9.8 4.9 2.7 7.3 7.3 7.3 13.2 0 9.3-5.9 15.5-14.6 15.5h-13.3v-.5c.8-1.2 1.2-2.6 1.3-4l.1-42.7c-.1-1.4-.5-2.8-1.3-4v-.5l13.4-.1zm3.8 13.3c0-3.4-1.6-5.8-3.8-5.8h-3.3v13.1c4.5 0 7.1-3.5 7.1-7.3h0zm1.6 23.1c0-5.3-1.7-8.7-5.1-8.7h-3.7v17.2h3.3c3.2 0 5.5-3.4 5.5-8.5z" fill="#fff"/><path d="M1311.4 205.5h0zm-5.9-75c.1 0 .1 0 .2.1l-.2-.1zm29.2 35.6h0 0z" fill="#1b1718"/></svg>