<svg xmlns="http://www.w3.org/2000/svg" width="406.74" height="405.185" viewBox="0 0 406.74 405.185">
  <defs>
    <style>
      .a {
        fill: #241e1f;
      }
    </style>
  </defs>
  <g>
    <path class="a" d="M148.2,326.966c.071,1.566,1,.676,1.434-.224a5.666,5.666,0,0,0,1.947-3.461C152.946,319.262,146.619,325.607,148.2,326.966Z"/>
    <path class="a" d="M174.674,155.711h-.006a.257.257,0,0,1,.033.03v.006c2.311,1.647,14.116,34.641,12.439,18.2,2.965.838-4.258-11-4.618-12.564l.045.079c-1.892-3.647-3.246-7.533-5.341-11.074-1.432-4.444-14.591-27.485-7.91-10.185.133,3.734,2.956,6.558,3.678,10.171C173.087,152.295,173.007,154.375,174.674,155.711Z"/>
    <path class="a" d="M153.98,133.313l-.009.013a11.839,11.839,0,0,0-4.246-3.041,27.815,27.815,0,0,0,2.36,7.191h0a1.936,1.936,0,0,1,.258.453h0c2.559,5.057,5.787,9.281,9.072,13.876a1.23,1.23,0,0,1,1.134-.473c-2.259-6.3-4.36-12.6-8.537-17.984Z"/>
    <path class="a" d="M85.69,277.38c.072,1.815,1.859,2.8,3.023,3.963,1.521,1.392,1.811,5.073,4.345,4.649.128-.057.256-.119.384-.187C90.84,283.356,89.171,278.226,85.69,277.38Z"/>
    <path class="a" d="M111.038,301.671c-2.246-7.732,2.824-7.243-6.324-11.79-3.1-1.338-2.88-8.487-7.28-7.081l.013.01-.084.136c4.343,7.881,8.718,16.58,14.859,23.525,4.653,5.826,7.412,12.789,12.828,17.928-2.274-4.335-4.968-8.439-7.693-12.748C115.358,308.589,111.905,305.194,111.038,301.671Z"/>
    <polygon class="a" points="186.211 245.045 186.213 245.043 186.214 245.041 186.211 245.045"/>
    <path class="a" d="M90.523,46.412c.022.05.046.1.069.149l.026.042Z"/>
    <path class="a" d="M160.237,317.936q-3.672,4.643-7.156,9.429c-1.611,2.159-3.109,4.508-4.787,6.654-2.274-3.026-3.652.652-3.977,2.825-1.4,2.743-3.844,4.844-4.159,8.064l0,0c-.933,2.769-4.51,5.014-4.441,7.874,4.025-1.876,6.966-7.98,10.18-11.467-.015.019-.024.037-.038.056,1.235-1.579,2.748-2.932,3.9-4.586a.589.589,0,0,1-.059.07c4.375-5.236,7.016-11.559,11.008-17.019-.01.013-.014.025-.023.037C164.458,316.681,164.388,311.835,160.237,317.936Z"/>
    <path class="a" d="M203.516,235.749l-.009-.012-.007,0A.08.08,0,0,0,203.516,235.749Z"/>
    <path class="a" d="M162.188,266.054c-.03.039-.055.079-.085.118-.133.2-.279.392-.411.594C161.854,266.529,162.021,266.292,162.188,266.054Z"/>
    <path class="a" d="M109.112,84.993l.014.03.411.827C109.4,85.568,109.252,85.281,109.112,84.993Z"/>
    <path class="a" d="M322.428,76.7c-.558.885-1.12,1.781-1.654,2.68a70.049,70.049,0,0,0,5.328-8.018C324.949,73.14,323.564,74.923,322.428,76.7Z"/>
    <path class="a" d="M248.159,192.869c.852-1.45,2-2.932,2.319-4.6-4.311,3.276-6.7,8.958-9.51,13.584C243.5,199.512,245.294,194.013,248.159,192.869Z"/>
    <path class="a" d="M301.212,120.626a4.36,4.36,0,0,0-.134.529c3.94-4.328,8.945-8.338,11.192-13.857C307.39,107.7,304.024,116.892,301.212,120.626Z"/>
    <path class="a" d="M131.176,94.176c5.313,2.33-1.193-5.679-8.969-16.163A87.868,87.868,0,0,0,131.176,94.176Z"/>
    <path class="a" d="M262.777,173.769c3.92-4.072,7.726-7.776,11-12.407h-.006a4.189,4.189,0,0,1,.273-.382c.007,0,.031-.021.047-.029a28.349,28.349,0,0,0,3.377-6.774,11.868,11.868,0,0,0-4.642,2.387l-.006-.01-.03.032h0c.007.011,0,.006,0,.007-4.947,4.734-7.906,10.629-11.064,16.544A1.232,1.232,0,0,1,262.777,173.769Z"/>
    <path class="a" d="M188.332,242.405c-.015-.029-1.425,1.708-2.1,2.612.037-.051.073-.1.109-.154l-.127.18c-5.224,7.376-10.834,14.457-16.22,21.711l.094-.132c-3.767,5.129-7.946,9.924-11.741,15.032,1.235-.917,2.12-2.639,3.646-3.021a.056.056,0,0,0,.025.023c5.088-.066,24.7-32.934,27.108-36.84C189.033,241.747,188.66,242.081,188.332,242.405Z"/>
    <path class="a" d="M232.19,241.528c-.013-.023-.019-.047-.031-.07l-.008-.016A.872.872,0,0,0,232.19,241.528Z"/>
    <path class="a" d="M312.605,287.321c1.48,1.269,2.778-.619,3.589-1.726,1.169-2.377,4.619-2.877,5.295-5.474C317.936,280.452,315.529,285.287,312.605,287.321Z"/>
    <polygon class="a" points="321.489 280.121 321.489 280.121 321.5 280.12 321.489 280.121"/>
    <path class="a" d="M202.46,217.13a.08.08,0,0,1,.013-.021,52.262,52.262,0,0,0-3.81,4.548l0-.009c-.052.071-.1.141-.155.212-7.632-16.281-12.367-34.807-21.887-50v.006a.269.269,0,0,1-.024-.048s0,0,.008.01c-.9-2.265-2.894-9.69-5.755-4.877,4.94,19.984,16.179,38.315,24.16,57.317.011-.016.024-.031.036-.046,1.619,2.6-1.107,4.75-2.3,7.057.4.819,2.89-.391,3.682-1.746.341-.492.78-.949,1.085-1.487l.005.014,0,0c.567,2.347,3.676,8.16,2.384,1.863,1.761,1.308,1.948,4.2,3.6,5.817,1.881,1.35-.251-2.972-.472-3.672l0,0,0-.008,0,0a74.006,74.006,0,0,0-3.151-7.391h.006c-.405-.678.51-1.3.783-1.889,1.651-2.869,4.621-4.847,6.248-7.7C207.889,209.674,203.74,215.828,202.46,217.13Z"/>
    <path class="a" d="M309.092,283.77c-4.136-2.04-4.979,5.072-8.232,5.946-9.674,3.129-4.651,3.451-7.975,10.738-1.371,3.361-5.284,6.219-7.7,8.955-3.327,3.862-6.6,7.539-9.468,11.491,6.1-4.3,9.848-10.779,15.3-15.866,7.081-5.984,12.691-13.922,18.117-21.11l.011,0C309.143,283.916,309.063,283.766,309.092,283.77Z"/>
    <path class="a" d="M406.655,60.1l.005-.043.006-.05a6.875,6.875,0,0,0,.054-1.463,4.952,4.952,0,0,0-.177-.911,7.785,7.785,0,0,0-.347-.878c-.144-.325-.3-.647-.461-.966-.009-.091-.022-.184-.038-.276a4.342,4.342,0,0,0-.544-1.4q-.354-.607-.7-1.22l-.095-.168-.1-.169-.038-.117-.039-.118a.455.455,0,0,0-.18-.237c-.1-.18-.187-.363-.27-.551a2.621,2.621,0,0,1-.127-.48,2.434,2.434,0,0,1-.019-.41c.01-.038.023-.074.035-.109.057-.12.117-.24.177-.358.107-.213.219-.434.311-.659.043-.11.079-.221.114-.333.028-.085.055-.17.086-.254.074-.2.153-.4.239-.6l-.01.014a1.473,1.473,0,0,0,.068-.141,2.633,2.633,0,0,0,.126-.423,2.44,2.44,0,0,0,.016-.765,1.458,1.458,0,0,0-.1-.366,3.885,3.885,0,0,0-.171-.376c-.088-.172-.189-.336-.291-.5-.046-.075-.094-.15-.139-.226l-.308-.508-.5-.821c-.163-.271-.289-.5-.4-.718-.118-.24-.24-.505-.368-.81a4.628,4.628,0,0,1-.2-.606,3.5,3.5,0,0,1-.09-.519c-.019-.177-.043-.354-.066-.531l-.015-.116c-.03-.307-.057-.614-.069-.925l0-.073c-.007-.128-.011-.257-.011-.385a2.924,2.924,0,0,1,.037-.44,5.164,5.164,0,0,1,.127-.605c.053-.2.107-.4.167-.595a5.866,5.866,0,0,0,.156-.65,2.847,2.847,0,0,0,.03-.671,5.218,5.218,0,0,0-.308-1.482,6.481,6.481,0,0,0-.31-.737,5.791,5.791,0,0,0-.393-.639l-.084-.125c-.1-.147-.2-.292-.3-.437a12.4,12.4,0,0,1-.727-1.141c-.1-.179-.19-.36-.284-.54-.13-.251-.261-.5-.4-.748-.205-.374-.478-.867-.778-1.359-.273-.445-.6-.876-.884-1.256l-.192-.266c-.125-.173-.251-.347-.384-.514a10.252,10.252,0,0,0-.7-.8l-.193-.2c-.257-.268-.514-.536-.783-.792a8.082,8.082,0,0,1-.838-.919c-.082-.112-.162-.224-.237-.342-.1-.161-.192-.329-.282-.494l-.06-.109-.582-1.066c-.16-.29-.354-.634-.567-.967a10.671,10.671,0,0,0-.8-1.068c-.192-.228-.4-.444-.6-.654-.1-.1-.2-.208-.3-.314l-.156-.167a6.6,6.6,0,0,0-.668-.659,6.261,6.261,0,0,0-.985-.617l-.044-.025c-.139-.076-.286-.14-.431-.205l-.151-.068c-.223-.1-.45-.186-.677-.27-.262-.1-.509-.175-.755-.252-.162-.053-.323-.1-.483-.158l-.506-.174-.512-.175c-.164-.057-.325-.12-.487-.185-.187-.072-.373-.146-.562-.21-.367-.123-.73-.252-1.093-.385l-.317-.116c-.235-.087-.469-.174-.707-.251-.128-.042-.254-.089-.38-.136l-.212-.079q-.213-.076-.429-.15l-.18-.063c-.335-.115-.778-.262-1.234-.379a9.891,9.891,0,0,0-1.04-.191,8.3,8.3,0,0,1-1.37-.39,3.8,3.8,0,0,1-.64-.375,3.985,3.985,0,0,1-.5-.556c-.077-.111-.152-.223-.224-.336-.06-.092-.118-.183-.182-.275a4.288,4.288,0,0,0-.588-.685,5.534,5.534,0,0,0-.835-.63c-.134-.085-.269-.162-.406-.236a3.125,3.125,0,0,0-.475-.218,4.349,4.349,0,0,0-.813-.2c-.317-.046-.625-.07-.885-.088-.111-.008-.221-.013-.332-.019-.194-.01-.388-.021-.582-.04-.3-.031-.6-.072-.9-.115-.15-.024-.3-.046-.453-.068-.216-.036-.429-.077-.642-.118-.265-.051-.531-.1-.8-.142-.289-.043-.579-.075-.868-.1-.237-.026-.473-.051-.707-.083l-1.038-.184c-.195-.033-.39-.056-.584-.076-.155-.017-.31-.035-.463-.058q-.568-.086-1.141-.163c-.237-.03-.475-.047-.715-.063-.129-.008-.259-.017-.39-.028a6.539,6.539,0,0,1-1.458-.423,4.81,4.81,0,0,1-.745-.461c-.136-.112-.27-.224-.4-.338a9.182,9.182,0,0,0-1.586-1.154,8.95,8.95,0,0,0-1.268-.541,11.631,11.631,0,0,0-1.3-.33l-.168-.036c-.382-.083-.766-.149-1.15-.214l-.421-.074c-.339-.06-.68-.14-1.01-.219-.194-.046-.387-.092-.581-.134l-.647-.141-.653-.143c-.528-.114-1.086-.212-1.708-.3-.409-.068-.8-.15-1.129-.223l-.189-.041c-.33-.071-.66-.142-.988-.219-.672-.155-1.463-.346-2.245-.581l-.129-.04c-.282-.085-.565-.172-.851-.249a10.369,10.369,0,0,0-1.234-.238c-.166-.024-.331-.048-.5-.062-.107-.009-.214-.012-.322-.012-.08,0-.159,0-.239,0a8.442,8.442,0,0,0-.944.093c-.158.015-.316.019-.472.019s-.289,0-.434-.009l-.081,0c-.248-.008-.483-.014-.726-.042a4.727,4.727,0,0,1-.566-.161c-.206-.068-.408-.146-.606-.229a3.83,3.83,0,0,1-.651-.388c-.172-.155-.349-.334-.558-.562a2.048,2.048,0,0,0-.471-.385,3.061,3.061,0,0,0-.544-.236,2.8,2.8,0,0,0-.67-.134c-.1.005-.195.014-.3.027a.567.567,0,0,0-.18.046,1.4,1.4,0,0,0-.492.273,4.434,4.434,0,0,0-.316.327c-.093.1-.184.205-.285.3-.041.022-.086.046-.13.066s-.1.03-.158.041l-.053,0c-.046,0-.092,0-.139-.007a2.845,2.845,0,0,1-.322-.1c-.139-.061-.275-.123-.409-.189a2.45,2.45,0,0,1-.395-.242l-.151-.139c-.117-.106-.232-.211-.355-.306a2.2,2.2,0,0,0-.816-.358,4.421,4.421,0,0,0-.758-.141h-.274l-.114-.005c-.054,0-.107-.006-.163-.006h-.254l-.145,0c-.087,0-.175,0-.262.01a3.516,3.516,0,0,0-.754.143c-.122.038-.243.081-.363.125-.081.028-.163.058-.247.085a3.979,3.979,0,0,1-.767.166c-.191.014-.382.019-.573.019-.123,0-.244,0-.367,0l-.236,0a9.162,9.162,0,0,1-1.092-.08q-.262-.042-.532-.08c-.18-.032-.36-.067-.541-.1-.324-.061-.647-.123-.974-.172l-.047-.007-.044-.007c-.359-.058-.7-.112-1.053-.15a9.054,9.054,0,0,0-.93-.034c-.11,0-.219,0-.328,0l-.374,0q-.488,0-.972.016c-.37.013-.745.051-1.108.087l-.153.014c-.586.057-1.187.076-1.768.093l-.229.007q-.675.021-1.351.038L313.423,1c-.257.007-.514.01-.773.01-.873,0-1.761-.033-2.62-.066l-.777-.03L309.021.9c-.257-.007-.516-.015-.775-.033-.241-.014-.484-.038-.726-.06l-.427-.038c-.868-.068-1.719-.181-2.661-.312-.365-.059-.695-.112-1.021-.172l-.054-.01c-.366-.064-.747-.132-1.126-.164-.456-.038-.947-.055-1.546-.055h-.407c-.537.007-1.11.035-1.86.1s-1.449.15-2.121.271c-.126.024-.253.051-.377.078l-.1.02-.088.019c-.12.025-.242.049-.361.082-.154.043-.3.093-.454.144-.124.041-.247.083-.374.12-.342.1-.7.167-1.044.232-.31.058-.632.118-.941.2-.267.071-.538.154-.83.254l-.423.148c-.243.089-.486.175-.736.25a6.984,6.984,0,0,1-.961.192l-.193.029c-.359.055-.719.1-1.081.146l.024,0-.047,0c-.37.039-.753.08-1.13.088-.081,0-.161,0-.244,0-.312,0-.625-.013-.937-.028l-.371-.018-.371-.019c-.148-.006-.3-.017-.445-.026-.128-.01-.256-.019-.385-.026l-.343-.017c-.172-.01-.344-.017-.517-.028l-.366-.024c-.153-.01-.305-.021-.458-.029-.4-.02-.931-.045-1.466-.05l-.376,0h-.377l-.267,0-.27,0-.161,0a9.764,9.764,0,0,0-1.291.131c-.357.055-.715.1-1.07.151l-.057.008-.23.022-.245.024c-.238.022-.488.057-.81.113a8.673,8.673,0,0,0-1.011.266c-.128.039-.254.077-.382.113-.433.125-.887.235-1.348.328-.1.023-.2.04-.306.057s-.223.038-.333.062c-.223.047-.445.084-.67.114-.44.047-.879.1-1.317.159-.4.055-.8.12-1.195.185l-.34.056-.336.057c-.123.019-.248.035-.372.051l-.248.031-.09.013-.968.131c-.292.024-.588.03-.876.035-.151,0-.3.006-.454.011l-.311.012-.466.018c-.086,0-.173,0-.259,0-.22,0-.441-.009-.662-.02-.109-.006-.22-.014-.329-.024s-.244-.019-.369-.025c-.223-.009-.445-.016-.668-.016-.52,0-1.046.025-1.583.051-.252.011-.5.041-.756.071l-.17.019c-.194.022-.388.044-.581.077a17.026,17.026,0,0,0-1.719.382,13.925,13.925,0,0,1-1.547.328c-.5.079-1.07.169-1.643.234-.4.039-.805.072-1.207.106-.188.014-.377.02-.567.02s-.391-.006-.587-.014l-.069,0c-.657-.029-1.335-.059-2-.059-.132,0-.263,0-.4,0l-.357.007q-.42.011-.841.011h-.317c-.319,0-.638,0-.956-.013q-.579-.014-1.156-.014c-.417,0-.792,0-1.173.03q-.606.042-1.213.079c-.158.009-.314.02-.471.033-.216.017-.434.035-.65.041-.778.025-1.6.065-2.43.12-.7.046-1.4.145-2.073.242l-.32.045-.2.029c-.405.057-.809.113-1.212.183-.308.053-.614.121-.918.189-.206.046-.411.092-.616.133-.319.064-.639.118-.958.173-.238.04-.477.081-.713.125-.5.1-.949.166-1.356.212l.074,0c-.292.027-.582.063-.873.1q-.372.048-.742.09l-.041.01v0l-.437.051-.464.052c-.663.064-1.334.156-1.981.246-.356.049-.712.1-1.067.142-.243.025-.484.052-.727.08-.275.027-.537.051-.8.067-.169.011-.338.017-.507.023-.2.008-.407.016-.61.03-.344.024-.685.06-1.026.1l-.177.019c-.17.019-.341.042-.513.066-.15.021-.3.041-.453.058-.352.029-.688.041-1.029.041h-.054c-.113,0-.23-.011-.344-.022L220.1,8.2c-.131-.009-.262-.024-.393-.036l-.145-.015c-.185-.017-.39-.026-.623-.026-.182,0-.365,0-.548.011-.381.012-.759.022-1.141.022h-.078c-.235,0-.47-.011-.7-.021l-.352-.012c-.076,0-.15,0-.226,0-.2,0-.4.007-.6.015l-.292.008h-.133c-.267,0-.538-.016-.8-.031-.335-.023-.671-.051-1.006-.079l-.319-.027h0a.579.579,0,0,0-.535.336l-.317-.025-.347-.025c-.572-.042-1.152-.048-1.716-.053h-.132l-.883-.011-.89-.011q-.672-.008-1.345-.007l-.768,0h-1.44a16.45,16.45,0,0,1-1.676-.065,6.18,6.18,0,0,1-1.023-.26,6.914,6.914,0,0,1-.863-.5c-.292-.193-.587-.38-.887-.565a5.991,5.991,0,0,0-.844-.444c-.171-.072-.341-.148-.51-.224-.2-.09-.409-.181-.616-.268-.563-.24-1.117-.472-1.676-.665-.638-.219-1.3-.381-1.878-.525-.166-.041-.333-.073-.5-.1l-.28-.055c-.253-.054-.5-.1-.758-.144l-.087-.015a6.6,6.6,0,0,1-1.291-.417,1.285,1.285,0,0,1-.233-.136l.074.068a1.531,1.531,0,0,1-.139-.131l-.025-.035h0l-.012-.073h0a5.381,5.381,0,0,1,.231-.661,3.6,3.6,0,0,0,.155-.44,1.338,1.338,0,0,0-.051-.785,1.993,1.993,0,0,0-.369-.585A1.794,1.794,0,0,0,190.5.773a7.065,7.065,0,0,0-.671-.27c-.1-.036-.2-.072-.3-.112-.24-.091-.5-.176-.838-.276a3.645,3.645,0,0,0-.715-.1L187.9.008C187.831,0,187.759,0,187.684,0c-.116,0-.235.006-.353.013l-.194.007c-.42.019-.838.034-1.258.049-.734.026-1.468.053-2.2.1-.5.03-1,.075-1.588.135-.276.029-.551.064-.826.1-.344.042-.688.087-1.033.117-.3.025-.6.041-.9.056-.273.014-.546.029-.817.051a11.619,11.619,0,0,0-1.405.2c-.253.052-.5.126-.745.2-.167.051-.336.1-.507.142s-.317.086-.476.13c-.251.069-.5.137-.755.2-.189.044-.377.093-.563.143-.245.065-.49.13-.737.18l-.4.082c-.311.066-.623.131-.937.185l-.368.05c-.38.054-.772.109-1.159.128a9.39,9.39,0,0,0-1.436.15,1.656,1.656,0,0,0-.688.349,1.2,1.2,0,0,0-.364.726,1.518,1.518,0,0,0,.127.8,3.318,3.318,0,0,1,.122.4l0,.074h0a.762.762,0,0,1-.031.1,1.137,1.137,0,0,0-.1.081,3.386,3.386,0,0,1-.346.187l-.125.051c-.2.082-.408.164-.617.235a5.008,5.008,0,0,1-.915.221c-.21.024-.418.043-.63.052-.061,0-.123.005-.185.005-.129,0-.258-.006-.388-.011l-.243-.008c-.625-.014-1.19-.035-1.727-.066-.486-.029-1-.073-1.567-.136l-.158-.017c-.218-.024-.437-.049-.658-.07s-.461-.028-.773-.028h-.253c-1.3.007-2.476.051-3.589.133-.292.022-.582.049-.874.077-.224.022-.449.043-.673.062-.186.016-.372.027-.558.027-.076,0-.154,0-.231-.007-.352-.02-.7-.058-.956-.09h-.016a10.95,10.95,0,0,1-1.2-.246l-.436-.122c-.252-.073-.5-.145-.761-.205-.349-.082-.708-.134-1.057-.186l-.226-.033c-.434-.065-.865-.12-1.3-.174-.315-.048-.6-.1-.88-.161l-.214-.051a5.834,5.834,0,0,0-.642-.129,5.329,5.329,0,0,0-.631-.041c-.052,0-.1,0-.155,0a4.6,4.6,0,0,0-.841.141l-.13.03c-.175.039-.345.085-.517.131l-.286.074c-.243.063-.488.113-.734.164l-.245.05c-.618.13-1.253.223-1.846.3-.207.024-.422.043-.635.06-.24.019-.48.039-.718.068-.424.05-.873.123-1.406.232-.182.038-.365.072-.546.109q-.31.058-.621.123c-.192.039-.383.083-.574.128-.254.058-.508.116-.766.165a7.146,7.146,0,0,0-1.216.354,10.554,10.554,0,0,0-1.235.606c-.206.114-.407.235-.609.357-.156.094-.312.189-.472.279a11.056,11.056,0,0,1-1.179.554c-.308.126-.619.238-.929.349l-.12.042-.2.073c-.269.1-.537.2-.812.279a13.219,13.219,0,0,1-1.86.37l-.166.025c-.4.052-.813.068-1.211.084l-.248.009c-.52.021-1.036.054-1.535.1-.177.015-.354.034-.532.053-.33.033-.671.069-1.007.078-.052,0-.106,0-.159,0a9.7,9.7,0,0,1-1.135-.087c-.226-.033-.455-.071-.682-.107l-.2-.034a6.215,6.215,0,0,0-.972-.083l-.733,0c-.566,0-1.131-.005-1.7-.013-.884-.011-1.768-.021-2.651-.022a23.033,23.033,0,0,1-2.6-.133c-.238-.035-.478-.074-.716-.12-.128-.023-.254-.05-.381-.077-.159-.035-.317-.069-.476-.1a8.871,8.871,0,0,0-1.435-.108c-.148,0-.3,0-.445.008-1.68.052-3.151.141-4.5.275L103.058,9c-.3.028-.592.058-.89.069-.089,0-.179.005-.267.005-.248,0-.5-.011-.744-.021l-.175-.007c-.514-.023-1.035-.07-1.54-.114l-.553-.049c-.2-.017-.4-.03-.6-.03-.07,0-.138,0-.207.005-.347.015-.693.049-1.015.082-.475.047-.956.12-1.42.191l-.512.075c-.546.067-1.1.1-1.625.135-.2.012-.4.017-.6.017-.227,0-.454-.006-.683-.011-.145,0-.292-.008-.439-.01-1.08-.011-2.159-.034-3.24-.063-1.063-.028-2.128-.036-3.217-.042A25.382,25.382,0,0,1,82.3,9.061c-.451-.068-.924-.167-1.534-.32-.2-.049-.4-.089-.607-.127l-.168-.033-.243-.049c-.213-.042-.427-.086-.647-.113-.6-.073-1.245-.142-1.91-.163-.64-.017-1.226-.057-1.789-.125a7.712,7.712,0,0,1-1.353-.3c-.335-.112-.668-.25-.991-.381l-.224-.091a8.654,8.654,0,0,0-1.639-.562,4.374,4.374,0,0,0-.868-.073h-.134c-.418,0-.761-.012-1.078-.039a6.639,6.639,0,0,1-1.3-.358L67.528,6.2c-.271-.12-.544-.24-.821-.354a7.576,7.576,0,0,0-1.343-.371c-.1-.022-.2-.039-.285-.057-.139-.025-.278-.052-.414-.083-.169-.038-.335-.092-.5-.144l-.107-.035A12.178,12.178,0,0,0,62.8,4.85c-.119-.024-.237-.039-.357-.057q-.106-.014-.21-.03l-.189-.03c-.157-.025-.314-.052-.472-.066-.355-.031-.72-.033-1.07-.035h-.3l-.2,0a24.422,24.422,0,0,1-2.5-.115,7.832,7.832,0,0,1-.859-.175l-.086-.022c-.127-.035-.251-.068-.379-.093s-.267-.041-.4-.057l-.084-.01a3.672,3.672,0,0,1-.768-.191c-.138-.063-.273-.129-.408-.2-.164-.082-.326-.163-.494-.237-.039-.017-.075-.038-.112-.058l-.028-.029a1.824,1.824,0,0,0-.276-.235,2.048,2.048,0,0,0-.505-.219,4.327,4.327,0,0,0-.777-.126l-.17-.018c-.351-.05-.7-.131-1.039-.208a3.781,3.781,0,0,0-.671-.073L50.3,2.558c-.178-.011-.358-.025-.537-.045a4.753,4.753,0,0,1-.92-.278A5.633,5.633,0,0,0,47.63,1.8a3.466,3.466,0,0,0-.639-.055,9.061,9.061,0,0,0-.936.063l-.054,0c-.289.03-.577.075-.86.133a4.511,4.511,0,0,0-.669.219,5.844,5.844,0,0,1-.867.256c-.369.085-.71.152-1.041.205-.611.063-1.233.081-1.836.1-.47.014-.956.029-1.435.063-.419.032-.846.081-1.258.13l-.164.019c-.208.025-.418.042-.628.058s-.435.033-.652.06a4.068,4.068,0,0,0-.985.229,5.5,5.5,0,0,0-.909.489l-.213.139c-.159.107-.319.213-.483.309-.2.119-.421.224-.636.329-.106.042-.211.085-.319.126s-.2.068-.3.1c-.06.019-.122.037-.184.055-.14.048-.282.1-.423.149-.107.036-.216.063-.325.088-.069.016-.139.032-.208.051a3.994,3.994,0,0,0-1.141.59c-.134.092-.272.18-.409.27-.245.159-.5.325-.732.507l-.035.026-.036.035,0,0c-.241.186-.476.377-.71.574-.032.027-.065.054-.1.081a2.054,2.054,0,0,0-.206.178L28.2,7.4l-.041.032-.142.1-.262.193c-.233.159-.471.308-.711.455-.259.161-.528.326-.781.508a11.157,11.157,0,0,0-1.029.868c-.226.208-.459.421-.7.619-.221.165-.447.32-.677.475-.134.088-.273.172-.41.255-.161.1-.322.2-.477.3a9.162,9.162,0,0,0-1.5,1.377c-.276.3-.559.6-.843.9-.214.226-.429.453-.642.682-.1.1-.189.213-.283.321-.108.126-.216.251-.329.371a7.8,7.8,0,0,1-.681.654c-.314.234-.644.455-.962.668l-.153.1c-.477.318-1.1.749-1.7,1.234-.19.151-.375.314-.557.475l-.167.147-.066.058c-.283.245-.565.493-.842.747-.312.29-.557.532-.773.761s-.407.448-.608.675l-.183.207c-.318.356-.667.7-1.005,1.024-.156.152-.311.3-.466.456-.486.482-.956.982-1.392,1.451l-.181.2c-.182.2-.363.391-.548.586-.139.145-.282.285-.428.426-.088.085-.176.172-.263.259-.1.1-.2.216-.3.328-.071.08-.142.162-.216.241a7.208,7.208,0,0,1-.606.58,7.593,7.593,0,0,1-.709.429,7.224,7.224,0,0,0-.733.448c-.177.126-.356.251-.534.374-.33.229-.671.464-.991.722-.1.082-.2.165-.294.254a3.139,3.139,0,0,0-.434.541l-.053.077a2.563,2.563,0,0,0-.351.845,3.177,3.177,0,0,0-.08.854l.016.129c.014.1.026.2.041.294.012.075.025.151.041.225.023.123.053.243.086.365a5.017,5.017,0,0,0,.242.658,6.683,6.683,0,0,1,.249,1.094c.033.412.027.835.019,1.244l0,.366,0,.326q0,.651-.014,1.3a14.983,14.983,0,0,0,.059,1.8c.03.307.075.625.138.949.021.109.045.216.07.325.017.082.036.163.054.245s0,.14,0,.211l0,.071a3.618,3.618,0,0,0,.057.51l.008.051a1.942,1.942,0,0,0,.213.571l.052.1.015.044h0l.024.308c.027.335.052.68.11,1.018a3.746,3.746,0,0,0,.218.761,4.509,4.509,0,0,0,.209.445,2.368,2.368,0,0,0,.285.39c.033.052.065.1.1.156s.055.091.085.137a3.953,3.953,0,0,0,.311.4l.065.076a2.071,2.071,0,0,0,.414.414c.132.1.266.192.4.281l.028.034a3.653,3.653,0,0,1,0,.739,1.308,1.308,0,0,1-.043.158,1,1,0,0,1-.088.1l-.048.03c-.06.034-.118.071-.18.1-.254.068-.5.15-.756.231-.145.047-.292.094-.438.139a3.117,3.117,0,0,0-1.082.7,1.743,1.743,0,0,0-.478.634,1.389,1.389,0,0,0-.074.652,5.949,5.949,0,0,0,.1.753,3.045,3.045,0,0,0,.092.34c.031.1.063.2.085.3a20.235,20.235,0,0,1-.151,2.922,7.709,7.709,0,0,1-.265,1.248c-.051.155-.111.306-.169.456l-.052.134c-.054.135-.094.274-.135.412l-.05.171a5.136,5.136,0,0,0-.174,1.334l-.011.241c-.022.417-.052.789-.091,1.138-.027.178-.059.357-.09.535-.041.235-.082.47-.112.709a2.667,2.667,0,0,0,.066.813l.011.056a2.753,2.753,0,0,0,.423,1.091,1.956,1.956,0,0,0,.333.379,4.044,4.044,0,0,0,.366.26l.057.038a.992.992,0,0,0,.567.166,1.436,1.436,0,0,0,.348-.046,2.834,2.834,0,0,0,.641-.227,1.4,1.4,0,0,0,.489-.518l.056-.082.031-.038c.046-.053.09-.106.131-.161a1.231,1.231,0,0,1,.093-.085c.046-.032.092-.062.139-.092l.1-.066a2.616,2.616,0,0,0,.337-.278c.038-.023.077-.044.115-.066l.084-.046a1.551,1.551,0,0,0,.143-.1c.035-.025.07-.052.107-.074l.072-.044c.045-.029.089-.056.135-.087a1.578,1.578,0,0,0,.272-.262l.072-.07a.844.844,0,0,0,.093-.1,1.242,1.242,0,0,0,.127-.191l.039-.068.059-.057c.023-.023.049-.047.072-.074a1.2,1.2,0,0,0,.216-.314c.041-.084.086-.167.128-.249.065-.123.128-.246.185-.373s.107-.232.161-.339.115-.237.167-.358a4.537,4.537,0,0,1,.215-.43c.05-.09.093-.183.136-.276.031-.071.063-.142.1-.21.025-.05.052-.1.078-.147s.064-.118.092-.176.065-.144.093-.218l.024-.062a7.93,7.93,0,0,1,.382-.729c.074-.12.156-.23.238-.342s.125-.172.177-.248.087-.126.131-.188a4.11,4.11,0,0,1,.487-.505,3.424,3.424,0,0,1,.534-.339,2.618,2.618,0,0,1,.393-.1,1.331,1.331,0,0,1,.151.041,1.362,1.362,0,0,1,.155.1c.044.036.087.073.13.111s.086.075.131.112l.017.039h0c0,.191-.014.379-.029.568l0,.043c-.022.308-.05.617-.088.925a2.876,2.876,0,0,1-.128.489,4.176,4.176,0,0,1-.385.639c-.156.22-.306.449-.455.674-.05.078-.085.13-.121.18s-.071.1-.1.156a2.631,2.631,0,0,0-.131.239l-.056.105a3.012,3.012,0,0,0-.238.565,2.322,2.322,0,0,0-.071.449l-.009.1c-.035.21-.079.418-.125.625a1.634,1.634,0,0,0,.008.988.9.9,0,0,0,.358.464.969.969,0,0,0,.472.133h0a1.2,1.2,0,0,0,.516-.152l.04-.019c.072-.035.142-.074.211-.113l.12-.07.183-.057.191-.058a3.174,3.174,0,0,1,.412-.119.945.945,0,0,0,.1.133l.018.223.019.23c.027.308.071.609.115.89.025.161.058.319.1.478a3.8,3.8,0,0,0,.3.774c.03.289.038.546.046.8l.011.319.006.156a6.215,6.215,0,0,1,.009.772,2.186,2.186,0,0,1-.086.344,2.43,2.43,0,0,1-.152.261l-.186.14c-.084.06-.167.122-.251.178a2.09,2.09,0,0,1-.246.134l-.123.062q-.294.154-.6.289c-.205.084-.407.172-.606.271a2.014,2.014,0,0,0-.458.3,3.245,3.245,0,0,0-.339.375,3.636,3.636,0,0,0-.29.409,2.483,2.483,0,0,0-.184.432l-.026.079a2.631,2.631,0,0,0-.12.605,1.615,1.615,0,0,0,.006.341l.008.077a7.886,7.886,0,0,1-.008,1.552c-.025.159-.057.315-.088.473-.03.14-.059.281-.081.422a4.606,4.606,0,0,0-.044.639c0,.156-.008.314-.022.47a1.859,1.859,0,0,1-.079.29,3.607,3.607,0,0,1-.193.319l.005,0a1.931,1.931,0,0,1-.131.156.194.194,0,0,1-.1-.03L9.422,75c-.024-.039-.049-.079-.074-.117-.038-.06-.077-.118-.111-.18l-.017-.074c-.027-.11-.054-.222-.085-.331-.014-.048-.032-.092-.049-.138a1.3,1.3,0,0,1-.059-.183c-.007-.1-.011-.194-.012-.292l0-.124a4.543,4.543,0,0,0-.056-.545,1.588,1.588,0,0,0-.2-.559.838.838,0,0,0-.28-.292c-.027-.017-.052-.031-.077-.044l-.04-.022c-.042-.074-.066-.129-.094-.183a.925.925,0,0,0-.289-.3,1.974,1.974,0,0,0-.21-.141,1.068,1.068,0,0,0-.156-.068l-.022-.1c0-.07,0-.138-.008-.206-.016-.237-.043-.472-.078-.7a3.115,3.115,0,0,0-.176-.595L7.3,69.74c-.043-.115-.087-.229-.138-.341a.925.925,0,0,0-.172-.246c-.02-.032-.033-.054-.044-.074a1.543,1.543,0,0,0-.391-.559A1.011,1.011,0,0,0,6,68.285a3.461,3.461,0,0,0-.368-.018,1.641,1.641,0,0,0-.816.2,1.845,1.845,0,0,0-.33.265l-.091.082-.107.1c-.086.079-.169.158-.259.232a2.871,2.871,0,0,0-.36.294,2.03,2.03,0,0,0-.2.262c-.035.05-.068.1-.106.151s-.069.106-.1.16c-.023.039-.047.079-.071.115-.038.06-.077.117-.118.175-.059.087-.119.172-.171.261l-.025.058c-.014.032-.028.065-.041.1s-.036.08-.055.121-.038.081-.055.122a2.768,2.768,0,0,0-.141.379,1.29,1.29,0,0,0-.038.221l-.012.1c-.037.224-.086.446-.134.667l-.015.065a4.061,4.061,0,0,0-.109,1.067,5.936,5.936,0,0,0,.153,1.155,6.17,6.17,0,0,0,.232.707,4.771,4.771,0,0,1,.206.7c.006.2.006.408.006.611V76.9l0,.62,0,.6c.006.7.028,1.4.055,2.106.054,1.547.071,3.089.079,4.262l.009,1.059.01,1.048c0,.347,0,.7,0,1.043,0,.435,0,.871,0,1.307.006.558.026,1.117.047,1.677.028.766.057,1.56.049,2.34a8.679,8.679,0,0,1-.054.879,14.908,14.908,0,0,1-.349,1.663c-.056.212-.1.426-.149.641l-.026.122c-.046.213-.069.435-.093.648l-.023.226-.041.275c-.026.161-.051.322-.07.483a4.637,4.637,0,0,0,.006.92l.008.105c.025.351.052.646.1.943a3.3,3.3,0,0,0,.1.506l.047.16c.043.14.085.279.114.423.015.289.033.573.072.854a4.066,4.066,0,0,0,.237.816,3.115,3.115,0,0,1,.129.484c.015.068.029.136.046.2l.016.066c.043.169.084.336.115.507.027.24.057.5.108.762.026.144.063.284.1.425s.069.26.1.391c.03.256.06.511.1.766.022.154.049.309.077.463s.051.285.073.427c.019.249.017.5.016.749v.207c0,.389,0,.775-.008,1.163-.008.957-.028,1.912-.051,2.868-.044,1.973-.085,3.948-.112,5.922q-.018,1.31-.041,2.622-.028,1.576-.047,3.152c-.006.435,0,.872.016,1.31A17.912,17.912,0,0,1,3.6,127.6c-.032.193-.07.384-.106.575-.024.121-.047.244-.069.366-.049.254-.074.515-.1.766-.011.108-.022.217-.035.326-.053.338-.124.674-.2,1.009-.042.206-.087.413-.126.62-.035.182-.087.361-.139.54l-.039.143a6.7,6.7,0,0,0-.172.962l-.018.12c-.027.178-.053.355-.072.535a6.492,6.492,0,0,0-.038.819v.6c0,.307,0,.613.007.919,0,.478.023.871.061,1.237.033.325.081.647.13.971l.045.308c.021.173.04.349.046.524,0,.191,0,.382-.013.573v.055c-.019.376-.052.767-.1,1.195-.025.164-.053.328-.082.491-.047.28-.1.573-.128.86a6.634,6.634,0,0,0-.017.846c0,.107,0,.216.006.325a23.883,23.883,0,0,1-.137,2.9l-.054.331c-.045.284-.093.567-.124.849-.013.111-.019.223-.026.333,0,.077-.009.155-.015.232-.016.185-.038.37-.062.554-.063.418-.139.815-.23,1.209-.043.183-.076.368-.109.553s-.067.369-.109.552c-.04.166-.089.328-.139.489s-.1.316-.134.475a6.514,6.514,0,0,1-.319.965c-.106.243-.226.533-.325.836s-.174.608-.227.838l-.037.153a6.388,6.388,0,0,0-.164.881c-.027.3-.044.609-.052.912-.013.457-.024.944-.006,1.435a6.993,6.993,0,0,0,.088.9c.025.169.068.332.109.5.027.1.052.2.074.3.011.129.019.26.025.39.01.165.019.331.038.5.046.4.12.8.187,1.154.014.211.009.431,0,.642l0,.221c0,.34-.008.679-.016,1.018s-.022.668-.034,1c-.013.309-.026.618-.032.929-.016.7-.014,1.328.005,1.912a10.17,10.17,0,0,0,.113,1.174c.029.2.07.391.111.585l.038.179c.006.148,0,.3,0,.445l0,.191c0,.21-.006.42-.007.631l0,.322-.005.426c-.006.534-.012,1.067,0,1.6.011.626.051,1.242.118,1.831.059.506.116.9.185,1.262.03.163.065.325.1.486s.074.349.107.524c.061.534.118,1.015.2,1.506.035.216.08.431.128.644.041.2.083.391.118.589.017.285.033.569.049.855.022.43.046.857.079,1.285.047.62.088,1.275.123,2,.016.367.035.735.054,1.1s.038.743.055,1.116a14.35,14.35,0,0,1-.035,2.385c-.033.216-.072.431-.11.645l-.06.336c-.043.248-.062.5-.081.747-.012.161-.025.323-.042.484l-.045.278a7.409,7.409,0,0,0-.115.969v.051c-.013.467-.026.948-.076,1.422-.068.481-.172.964-.273,1.433-.06.276-.12.552-.172.829-.079.418-.19.836-.294,1.24l-.05.194c-.048.182-.086.363-.122.545l-.028.145-.024.114c-.047.221-.093.443-.126.667l-.048.3c-.058.378-.121.77-.157,1.158-.037.369-.046.747-.056,1.111l-.012.431c-.041,1.2-.052,2.2-.037,3.122.013.821.026,1.8,0,2.8-.012.461-.029.92-.046,1.381-.016.431-.033.862-.043,1.294-.009.4-.016.828,0,1.263a8.551,8.551,0,0,0,.15,1.249,6,6,0,0,0,.3.988l.068.178c.085.226.169.451.269.674a3.474,3.474,0,0,0,.168.361,2.467,2.467,0,0,0,.193.278l.058.076a2.328,2.328,0,0,1,.228.428l.034.078c.048.128.09.258.133.389.05.153.1.308.161.459.106.27.243.627.364,1,.092.281.169.572.242.855a4.224,4.224,0,0,1,.087.456l.022.137.047.308.04.25c.038.369.047.737.057,1.145s.023.823.044,1.233a12.13,12.13,0,0,0,.126,1.242c.028.19.065.379.1.568.028.152.058.3.084.457a9.284,9.284,0,0,0,.259,1.426c.036.139.077.277.119.412s.083.275.12.412a7.8,7.8,0,0,1,.169.911,16.187,16.187,0,0,1,.073,2.015v.313l0,.115c0,.876,0,1.784-.036,2.675-.017.446-.055.9-.092,1.336-.047.566-.1,1.153-.1,1.733a25.467,25.467,0,0,1-.127,2.874,9.39,9.39,0,0,1-.324,1.372c-.068.209-.133.419-.2.631-.074.244-.149.491-.229.734-.13.4-.254.792-.368,1.194a6.467,6.467,0,0,0-.2,1.183,2.843,2.843,0,0,0,.048.669l.008.049c.026.178.057.353.093.53a8.557,8.557,0,0,0,.352,1.2l.025.071a7.769,7.769,0,0,0,.469,1.13l.123.223c.115.21.232.418.334.636a.951.951,0,0,1,.043.146c.016.212.016.425.016.638,0,.126,0,.253,0,.379a8.084,8.084,0,0,0,.143,1.258,4.868,4.868,0,0,0,.149.548c.045.14.09.28.124.423a8.2,8.2,0,0,0,.319.986l.017.046q.039.107.075.216c.031.09.061.18.094.268l.04.108c.065.17.129.339.181.512.057.193.123.382.19.573s.128.363.184.548.13.376.2.56c.053.133.1.266.15.4.029.082.062.166.093.248l.067.173a3.43,3.43,0,0,1,.15.6,4.048,4.048,0,0,1-.035.847c-.024.149-.049.295-.074.444a7.453,7.453,0,0,0-.145,1.215,17,17,0,0,1-.094,1.739,14.108,14.108,0,0,1-.317,1.4c-.033.121-.063.243-.093.364-.036.152-.072.3-.115.453-.06.2-.136.412-.232.647l.038-.064-.063.129,0,0,0,.013h0l0,.008,0,0c-.068.16-.129.31-.191.458l-.033.079c-.055.128-.109.256-.161.387-.039.085-.08.168-.123.25-.055.113-.111.225-.159.34l-.06.136c-.045.1-.089.2-.13.306a3.572,3.572,0,0,0-.18.6,5.939,5.939,0,0,0-.093,1.1v.067c-.006.347-.013.688-.014,1.029l0,.049c0,.582,0,1.182.048,1.772a9.751,9.751,0,0,0,.151,1.067c.027.144.063.286.1.426.032.122.063.243.09.365.032.445.04.888.043,1.224a11.946,11.946,0,0,1-.044,1.228,8.131,8.131,0,0,1-.2.821l-.04.142c-.043.153-.072.306-.1.461l-.019.1a2.84,2.84,0,0,1-.159.507l-.133.288c-.068.144-.136.289-.2.436l.015-.025c-.078.164-.159.325-.239.486l-.117.238-.085.176a4.093,4.093,0,0,1-.315.571c-.1.132-.194.275-.287.417a2.944,2.944,0,0,0-.254.525c-.039.09-.077.178-.112.27a1.1,1.1,0,0,0-.049.368,5.285,5.285,0,0,1-.038.571,5.936,5.936,0,0,1-.129.655c-.033.126-.068.253-.106.377a3.35,3.35,0,0,0-.112.572,3.262,3.262,0,0,1-.142.544,1.131,1.131,0,0,0-.081.4c0,.093.01.184.018.276l.009.118.022.325c.038.529.076,1.075.089,1.614.017.91,0,1.805-.016,2.561l-.017.613c-.018.637-.037,1.294-.016,1.941a10.667,10.667,0,0,0,.107,1.2c.035.245.089.489.141.724.042.195.085.389.118.584.044.771.039,1.557.035,2.319,0,.423-.005.844,0,1.267.005.51.022.933.054,1.332a7.76,7.76,0,0,0,.115.865c.027.142.066.281.106.419.035.118.068.235.095.355.023.413.02.838.017,1.248l0,.428q0,.323,0,.647c0,.431-.006.86,0,1.293l.005.237c.016.68.032,1.384.025,2.078a5.836,5.836,0,0,0,.065,1.013,3.258,3.258,0,0,0,.139.517c.044.135.088.273.12.411.014.506-.017,1.02-.049,1.517-.014.22-.028.441-.038.66a6.408,6.408,0,0,0,.029,1.056,2.13,2.13,0,0,0,.1.488,5.035,5.035,0,0,0,.235.542,3.013,3.013,0,0,1,.079.311l.035.152c.021.085.043.169.065.252.03.109.06.218.085.329.006.1,0,.2,0,.3v.628l-.007.387c0,.194-.006.39-.006.585a6.727,6.727,0,0,0,.072,1,3.036,3.036,0,0,0,.111.488,3.143,3.143,0,0,0,.192.456l.04.079a2.683,2.683,0,0,0,.23.5,6.219,6.219,0,0,0,.423.557l.03.038a4.21,4.21,0,0,0,.37.422,1.61,1.61,0,0,0,.5.3c.075.035.147.071.22.109a4.008,4.008,0,0,0,.388.18,1.063,1.063,0,0,0,.185.041c.034,0,.067.009.1.016s.085.017.126.027a4.832,4.832,0,0,1-.158.541,2.915,2.915,0,0,1-.2.335c-.259.3-.488.533-.717.748-.069.045-.142.09-.216.134a3.547,3.547,0,0,0-.638.5,1.745,1.745,0,0,0-.582,1.353,10.187,10.187,0,0,1-.051,1.7,2.358,2.358,0,0,1-.066.276c-.027.051-.057.1-.088.15l-.139.166c-.161.194-.329.393-.477.606L2.41,326a4.206,4.206,0,0,0-.427.71,2.465,2.465,0,0,0-.257,1.02c0,.111,0,.223.01.335l.009.2a8.459,8.459,0,0,1-.016.927,4.97,4.97,0,0,1-.208.7l-.128.282c-.049.111-.1.22-.148.332s-.109.207-.166.309c-.033.062-.068.123-.1.186a3.883,3.883,0,0,0-.384,1.1,2.721,2.721,0,0,0-.049.641c.006.151.013.3.017.453l.007.289c0,.194.008.386.017.58.01.214.024.427.036.64a14.254,14.254,0,0,1,.024,2.178,3.617,3.617,0,0,1-.134.513,10.022,10.022,0,0,0-.406.939,2.416,2.416,0,0,0-.1.672c-.006.123-.006.246-.006.368a12.917,12.917,0,0,0,.073,1.585,10.223,10.223,0,0,0,.328,1.8c.028.1.055.2.082.306.032.125.065.25.1.373a4.8,4.8,0,0,0,.257.625l.063.136c.028.08.054.162.079.243l.05.158c.063.194.146.385.224.569s.13.351.192.527l.1.288a2.675,2.675,0,0,1,.1.38l.022.107.021.1c.019.09.036.18.054.27a8.143,8.143,0,0,1-.007.827l0,.129c-.01.236-.029.468-.054.7-.019.1-.043.2-.066.3a1.7,1.7,0,0,0-.041.984,3.188,3.188,0,0,0,.718,1.074c.055.078.11.158.159.24.049.149.092.3.126.453.013.19.011.381.01.57v.352c0,.262,0,.526-.008.789l0,.117c0,.079,0,.158,0,.237a3.649,3.649,0,0,0,.059.571l.011.069c.027.165.067.324.106.485.03.123.06.245.086.368a5.527,5.527,0,0,0,.131,1.228,4.39,4.39,0,0,0,.405.942l.085.164c.045.106.089.21.139.313.04.082.085.159.13.238.034.06.069.122.1.183.106.278.221.551.341.821.057.15.106.3.155.456l.058.175a3.7,3.7,0,0,1,.122.6c.012.093.025.185.042.275.064.35.142.7.221,1.04l.021.091c.139.605.235,1.227.33,1.827l.033.211a.643.643,0,0,0,.295.4l.014.049.013.038c.036.156.073.309.1.469.009.068.015.134.023.2a2.616,2.616,0,0,0,.087.489,2.728,2.728,0,0,0,.281.58l.035.06.124.21.1.169a3.461,3.461,0,0,1,.2.525l.028.088a4.065,4.065,0,0,0,.28.7,8.267,8.267,0,0,0,.473.789c.139.2.273.4.4.614.058.108.12.215.181.321l.016.02.013.016.129.245.039.071-.012-.032c.118.224.246.444.372.665l.193.331.126.221.142.246a5.954,5.954,0,0,1,.387.977c.109.464.178.931.237,1.365a6.832,6.832,0,0,0,.162.853,5.081,5.081,0,0,0,.254.726,5.329,5.329,0,0,0,.417.765c.139.218.278.434.426.646A10.147,10.147,0,0,0,11.6,377.6l.161.17c.109.114.216.228.32.344.165.183.311.376.433.542.26.353.514.73.751,1.12.093.174.183.351.261.531l.156.371.126.3.021.049c.087.2.172.4.265.6.038.08.077.161.118.241l.048.1a3.215,3.215,0,0,0,.254.438c.26.363.557.748.906,1.174a13.515,13.515,0,0,0,1.1,1.188,8.768,8.768,0,0,0,1.45,1.13c.268.166.567.33.938.515l.091.046c.226.112.45.224.668.35.194.123.424.27.648.437a6.032,6.032,0,0,1,.61.518c.1.112.2.227.284.35s.165.248.24.378q.168.321.32.653l.081.181c.069.16.139.319.219.472a3.556,3.556,0,0,0,.473.741c.2.216.4.423.614.614.2.175.411.337.618.494.156.12.314.24.467.367.336.281.737.611,1.157.93l.113.087c.174.131.348.263.518.4l.09.072c.166.131.33.264.5.39.214.156.436.319.664.461.247.153.5.3.744.451l.15.092.3.183.057.035c.264.162.527.325.8.473l.279.149c.2.1.392.208.584.317.1.063.2.129.3.194.222.145.453.3.689.426a3.373,3.373,0,0,0,.474.2l.039.014c.146.053.289.108.434.161l.2.076c.161.06.314.133.468.2l.086.04c.188.088.371.173.551.265.124.061.246.129.369.2l.136.076c.156.085.309.17.461.259s.3.192.443.3a4.24,4.24,0,0,1,.445.378,3.266,3.266,0,0,1,.409.537c.038.062.074.125.11.188l.056.1a2.127,2.127,0,0,0,.355.464,3.045,3.045,0,0,0,.727.483,5.605,5.605,0,0,0,.657.283,4.252,4.252,0,0,0,1.222.2l.2.014c.3.024.613.047.92.047a4.445,4.445,0,0,0,.591-.036c.186-.025.367-.066.549-.107.11-.024.221-.049.335-.071.292-.055.6-.1.977-.15.107-.014.214-.035.32-.054l.1-.019c.071-.012.144-.024.216-.033s.144-.022.217-.035a8.441,8.441,0,0,1,.915-.1,6.746,6.746,0,0,1,.687.072,4.01,4.01,0,0,0,.59.045c.049,0,.1,0,.148,0a2.274,2.274,0,0,0,.741-.194c.063-.024.126-.051.189-.076l.133-.055a1.6,1.6,0,0,0,.625-.486,2.315,2.315,0,0,0,.342-.685l.036-.1a4.16,4.16,0,0,0,.193-.745,6.252,6.252,0,0,0,.065-.729c.012-.257.014-.521,0-.78-.006-.186-.02-.372-.034-.558l-.011-.146c-.016-.222-.024-.442-.029-.664l0-.186c0-.123,0-.245.008-.368l.011-.245c.006-.129.012-.259.015-.388.007-.308,0-.612-.017-.917q-.008-.213-.012-.423a4.786,4.786,0,0,1,.05-.666c.033-.238.065-.478.092-.718.053-.464.1-.93.142-1.4.022-.243.041-.488.058-.732s.052-.513.087-.763c.019-.135.038-.252.057-.371s.044-.268.061-.4c.027-.2.041-.4.055-.606l.008-.11c.008-.133.026-.262.041-.393.011-.081.021-.161.03-.242.021-.214.038-.429.049-.644.01-.164.014-.33.021-.494.009-.27.019-.541.046-.811.014-.153.028-.306.042-.461a11.662,11.662,0,0,1,.3-2.007c.022-.076.044-.154.063-.229l.019-.087.009-.046c.075.033.152.068.228.109a2.14,2.14,0,0,1,.307.264,7.384,7.384,0,0,1,.6.743l.046.063a10.045,10.045,0,0,1,.557.868,3.824,3.824,0,0,1,.227.489c.064.169.117.34.165.513.063.3.1.589.134.837a.133.133,0,0,0-.122-.069.184.184,0,0,0-.137.071.146.146,0,0,0-.028.115c.041.221.077.443.113.666s.071.448.115.671l.065.347c.06.311.119.622.175.934l.015.079c.064.362.132.736.165,1.108.041.459.062.892.062,1.318-.011.161-.024.32-.038.481l-.011.138c-.021.236-.027.472-.03.707,0,.132.005.267.009.4l.01.2,0,.216c0,.144,0,.289.016.433a13.285,13.285,0,0,0,.159,1.349,8.725,8.725,0,0,1,.166,1.427c-.01.221-.036.442-.062.657-.014.11-.026.221-.038.331-.017.155-.028.311-.039.466-.017.227-.035.456-.065.682a5.708,5.708,0,0,0-.063,1.366,1.981,1.981,0,0,0,.16.581,1.545,1.545,0,0,0,.6.68,3.121,3.121,0,0,0,.709.337,5.892,5.892,0,0,0,1.225.273,10.214,10.214,0,0,0,1.089.058l.142,0q.343.006.687.006c.29,0,.579,0,.869,0s.581-.006.87-.006l.166,0c.312.009.625.019.936.019l.2,0c.366,0,.734-.016,1.1-.027l.213-.006c.256-.008.511-.032.765-.054.183-.017.365-.035.548-.046.111-.006.221-.015.33-.023s.218-.018.327-.025c.211-.016.423-.018.633-.019s.41.008.614.008.407,0,.61-.012q.635-.025,1.269-.037l.3,0,.3,0c.18,0,.36-.023.536-.042l.041-.005c.22-.024.436-.052.654-.081.2-.025.393-.052.588-.074.615-.069,1.243-.113,1.85-.156l.485-.035c.756-.053,1.444-.08,2.1-.08h.322c.534.016,1.088.029,1.642.029.241,0,.483,0,.724-.008.74-.014,1.468-.029,2.2-.029h.212l.72.024c.38.013.762.027,1.142.03q.27,0,.54,0c.431,0,.86,0,1.291-.008.2,0,.436.007.674.008h.06v0c.593.016,1.091.033,1.592.068.318.022.635.031.952.039.207.006.414.011.621.021.142.006.282.017.424.027s.279.018.42.025l.306.012c.2.008.41.016.616.026l.146.008c.256.012.512.023.771.023h.838c.244,0,.487,0,.732,0h.483l.93.008c.694.016,1.313.044,1.883.085.349.025.7.046,1.048.065.241.012.481.038.721.063l.339.034c.164.016.33.029.5.041l.407.034.477.044c.211.02.423.041.634.057.679.053,1.373.06,2.044.064l.169,0c.186,0,.4,0,.62,0q.426,0,.849-.014c.517-.019,1.022-.038,1.528-.046l.466,0c.338,0,.675-.008,1.012-.021.44-.017.879-.028,1.318-.028h.088c.2.006.4.011.595.011.088,0,.177,0,.265,0,.226,0,.45-.024.674-.044l.123-.011c.546-.052,1.043-.078,1.52-.078l.182,0-.046-.006c.17.008.342.011.513.015.155,0,.29.013.426.022.091.007.181.013.273.018.208.009.417.013.623.013l.291,0H111l1.111.049c.166.008.33.019.494.03.212.014.422.028.633.033.317.01.631.028.947.047l.264.016c.2.013.393.016.588.016.136,0,.27,0,.4,0l.248,0c.144,0,.286.006.426.011.158,0,.314.017.472.03l.212.015c.435.03.877.035,1.3.04.243.008.487.025.728.042.221.016.44.032.661.04s.42.011.63.011l.4,0h.181l.182,0c.382.018.7.04,1.03.085s.673.087,1.092.125c.158.014.318.021.475.025s.332.013.5.027a4.588,4.588,0,0,1,.794.155c.211.071.41.155.593.237.128.055.256.107.385.157a4.445,4.445,0,0,0,.452.138l.042.011a9.016,9.016,0,0,1,1.08.421c.121.056.244.1.367.15l.187.073c.142.057.281.115.42.173.14.1.271.185.4.277a11.534,11.534,0,0,0,1.579.977,2.213,2.213,0,0,0,.79.192c.07.007.142.01.213.01.091,0,.181,0,.271-.011a2.151,2.151,0,0,0,.42-.089l.08-.022a2.657,2.657,0,0,0,.586-.273l.074-.042.221-.125.219-.123a12.953,12.953,0,0,1,1.563-.659c.212-.074.423-.145.634-.216.248-.085.5-.169.746-.257a13.04,13.04,0,0,0,1.251-.508,8.34,8.34,0,0,1,1.152-.466,5.15,5.15,0,0,1,.849-.063c.378.022.761.071,1.131.117a9.753,9.753,0,0,0,1.106.065c.161,0,.322,0,.481-.013.28-.013.559-.03.84-.047.611-.038,1.244-.078,1.864-.078.09,0,.18,0,.268,0,.368.02.739.061,1.1.1.2.022.4.045.6.064.351.034.7.06,1.051.086.286.023.572.043.856.068.528.048,1.059.136,1.572.221l.121.019a9.962,9.962,0,0,0,1.52.095l.366,0a7.5,7.5,0,0,1,1.284.221c.276.09.547.2.811.306l.126.05c.366.145.77.286,1.234.428s.927.283,1.392.41l.491.136c.235.065.472.13.706.2a4.388,4.388,0,0,0,1.215.16l.174,0a3.88,3.88,0,0,0,1.4-.351c.209-.088.423-.189.64-.3a5.241,5.241,0,0,0,.648-.382,6.2,6.2,0,0,0,.818-.746,2.253,2.253,0,0,1,.254-.188,3.282,3.282,0,0,1,.433-.142c.134-.027.266-.051.4-.068a3.528,3.528,0,0,1,.481-.022l.324.017c.289.014.576.029.865.037q.52.01,1.04.012l.207,0h.06c.353,0,.71-.03,1.054-.062l.276-.024c.519-.042,1.056-.067,1.638-.077.191,0,.382,0,.573,0,.305,0,.61,0,.913-.012.328-.011.659-.051.98-.09l.437-.051,1.253-.124c.161-.016.321-.04.478-.064.223-.033.452-.067.681-.08a2.436,2.436,0,0,1,.3.046c.147.05.294.107.439.164l.267.1.341.128c.191.072.383.143.574.211a6.334,6.334,0,0,0,.9.265,3.228,3.228,0,0,0,.636.062c.078,0,.155,0,.232-.008a2.571,2.571,0,0,0,1.13-.322,3.344,3.344,0,0,0,.731-.631c.174-.183.35-.373.51-.573l.05-.063c.127-.16.25-.316.387-.463.035-.03.07-.058.107-.085l.087.022a2.7,2.7,0,0,1,.434.207,5.072,5.072,0,0,1,.783.636,3.472,3.472,0,0,1,.423.585c.035.07.069.139.1.209.061.125.123.251.192.372a3.471,3.471,0,0,0,.436.6,2.941,2.941,0,0,0,.518.456,2.463,2.463,0,0,0,.787.35,3.4,3.4,0,0,0,.393.084,2.931,2.931,0,0,0,.437.029l.157,0a1.97,1.97,0,0,0,.35-.064,3.318,3.318,0,0,0,.423-.142c.129-.056.254-.12.379-.185l.055-.028q.21-.11.415-.221l.445-.236a8.371,8.371,0,0,1,1.82-.663c.369-.077.739-.123,1.02-.154.225-.024.451-.052.677-.081.175-.022.35-.044.525-.064a11.432,11.432,0,0,1,1.235-.054l.276,0h.268c.207,0,.417-.025.619-.047l.1-.012c.5-.052.986-.116,1.458-.191.521-.08,1.039-.121,1.519-.153.282-.017.576-.026.9-.026.143,0,.285,0,.429,0l.628.011.633.01a17.561,17.561,0,0,1,1.757.184l.094.015c.542.082,1.1.167,1.655.222.25.025.5.041.754.059.292.019.584.037.876.069a7.375,7.375,0,0,1,1.258.29l.095.029-.034-.016c.329.111.679.248,1.091.431.234.106.461.226.69.346.148.077.3.156.448.23a7.2,7.2,0,0,0,1.271.5,3.825,3.825,0,0,0,.626.119,6.213,6.213,0,0,0,.624.026l.178,0c.126,0,.253,0,.377,0h.287l.138,0h.224c.107,0,.216,0,.325-.007a3.44,3.44,0,0,0,.628-.117,5.225,5.225,0,0,0,.546-.183c.239-.093.479-.182.72-.27l.36-.133c.1-.038.2-.077.3-.117a7.531,7.531,0,0,1,.775-.269c.289-.065.578-.125.868-.185.311-.065.624-.128.933-.2l-.053.006a22.635,22.635,0,0,1,2.528-.355c.243-.023.485-.053.726-.084l.434-.052a9.484,9.484,0,0,1,1.024-.059h.16l.162.008c.422.019.857.038,1.285.038q.2,0,.39-.006c.224-.008.448-.026.671-.041l.281-.023c.353-.023.705-.039,1.06-.052.772-.027,1.457-.069,2.093-.129l.239-.022c.271-.025.544-.051.816-.067.217-.012.435-.017.655-.017l.268,0c.4.022.819.055,1.242.1s.9.074,1.477.094l-.045,0,1.652.1c.161.011.324.016.485.016.509,0,1.027-.048,1.527-.094l.138-.012c.216-.019.451-.029.719-.029.248,0,.5.008.744.016.169,0,.339.01.508.013h.15c.232,0,.464-.008.695-.02s.435-.014.653-.014h.35a10.027,10.027,0,0,1,2.215.3l.077.025c.328.1.655.207.977.325.357.133.71.276,1.062.422.1.044.209.09.313.137s.183.084.276.123c.2.085.4.163.608.237a10.342,10.342,0,0,0,1.2.341,6,6,0,0,0,1.13.162c.1,0,.2.007.3.007a5.817,5.817,0,0,0,.893-.065,5.921,5.921,0,0,0,.86-.219l.215-.065c.36-.109.73-.208,1.134-.306l.1-.024-.1.016.357-.071c.222-.049.448-.1.671-.153a6.128,6.128,0,0,1,1.182-.136c.277,0,.555-.01.833-.013l.554-.009.325,0c.273,0,.548,0,.821.008l.077,0c.237,0,.472.006.707.006.261,0,.523,0,.783-.016.431-.017.892-.042,1.339-.1a10.764,10.764,0,0,0,1.245-.251c.333-.086.686-.194,1.111-.344.09-.032.178-.067.268-.1.122-.046.243-.093.368-.135.237-.077.474-.143.712-.2a22.956,22.956,0,0,1,3.763-.546c.246-.012.492-.016.74-.016.178,0,.357,0,.535,0h.145l.347,0,.221,0h.441c.568,0,1.138.011,1.7.026l1.006.051.446.025c.245.016.49.032.736.036.391.008.783.01,1.176.011.464,0,.929,0,1.395.016l.5.026c.337.017.675.034,1.015.045.238.008.476.013.713.018s.478.009.716.015c.43.023.816.045,1.211.092s.808.092,1.212.129.83.056,1.329.056c.327,0,.652-.008.977-.018.447-.012.893-.02,1.339-.028q.6-.009,1.207-.025c.319-.008.636-.01.953-.01h.366l.389,0q.3,0,.6.006c.305.021.608.051.913.079.164.016.328.032.492.046.553.049,1.05.076,1.518.081h.158c.455,0,.908-.022,1.41-.05.528-.027,1.059-.057,1.586-.1.425-.034.846-.085,1.267-.134.513-.061,1.044-.123,1.566-.158l.174-.009c.372-.024.757-.046,1.131-.093a10.977,10.977,0,0,0,1.334-.26c.267-.059.533-.108.8-.15.4-.065.794-.13,1.188-.193a8.876,8.876,0,0,1,.977-.107c.15-.007.3-.008.452-.008.2,0,.4,0,.6.011l0,0a7.7,7.7,0,0,1,.923.136,5.676,5.676,0,0,1,.748.352l.081.043.1.052c.118.063.236.126.361.18a4.862,4.862,0,0,0,.537.184,3.152,3.152,0,0,0,.511.108,1.968,1.968,0,0,0,.229.014,2.515,2.515,0,0,0,.472-.049c.244-.049.487-.122.723-.193.157-.047.315-.094.475-.135a3.41,3.41,0,0,1,.595-.053c.319.016.611.038.9.06l.434.03c.306.019.636.029,1.009.029.156,0,.312,0,.468,0h.231c.385,0,.768.011,1.154.022l.1,0c.41.014.82.025,1.231.025h.074c.436,0,.885-.006,1.327-.043.139-.011.276-.028.414-.045l.213-.026.308-.033c.153-.016.3-.031.457-.052.218-.031.438-.066.655-.1.291-.048.581-.1.873-.133a10.437,10.437,0,0,1,1.383-.082h.1c.48.022.988.069,1.509.14.208.029.415.062.622.095.31.049.62.1.932.133.43.049.872.107,1.353.181a9.685,9.685,0,0,1,1.272.3c.221.073.437.158.655.243l.3.119c.194.072.392.139.589.2.167.055.336.112.5.172.205.074.4.169.6.26.127.06.254.12.382.176a4.08,4.08,0,0,0,.95.285,2.583,2.583,0,0,0,1.107-.057,8.285,8.285,0,0,0,1.062-.393l.081-.034a17.308,17.308,0,0,1,2.768-.993c.232-.044.443-.076.649-.1.164-.018.33-.026.494-.033l.276-.016c.324-.021.669-.041,1.01-.041h.193c.457.038.921.1,1.368.16.415.055.843.113,1.267.15.341.031.744.072,1.142.145.336.061.683.143,1.095.255s.843.2,1.165.251a10.767,10.767,0,0,0,1.145.149c.346.022.692.025,1.014.025h.5c.208,0,.415,0,.622-.01s.415-.01.622-.01c.118,0,.236,0,.355,0l-.119-.012.3.019.3.009c.149.006.3.013.446.017l.3.01-.035,0,.344.025c.6.032,1.2.065,1.8.081q1.266.033,2.531.043l1.144.012h.092c.393,0,.791-.019,1.13-.038a7.33,7.33,0,0,0,1.062-.148,6.4,6.4,0,0,0,.873-.243c.106-.021.213-.043.319-.067s.211-.045.319-.066c.254-.049.5-.109.756-.169l.107-.025-.058.01a13.554,13.554,0,0,1,1.808-.305l.073,0c.279-.023.57-.047.855-.1s.543-.127.805-.2l.16-.044.117-.031a14.963,14.963,0,0,0,1.791-.572,5.667,5.667,0,0,0,.887-.481l.133-.087c.222-.145.445-.29.675-.421.289-.144.587-.277.889-.4.237-.093.517-.208.8-.344.563-.268,1.111-.535,1.643-.846a7.186,7.186,0,0,0,.72-.492c.229-.174.462-.34.7-.5l.14-.1c.423-.292.861-.593,1.315-.852a13.957,13.957,0,0,1,1.465-.6l.218-.08c.191-.07.377-.147.565-.225l.328-.134a9.283,9.283,0,0,1,1.092-.334c.177-.04.37-.084.557-.144a2.676,2.676,0,0,0,.6-.293,3.352,3.352,0,0,0,.5-.387,3.06,3.06,0,0,0,.517-.71c.082-.141.149-.286.219-.433l.08-.169c.1-.2.2-.393.31-.587l.147-.268c.066-.119.131-.237.194-.357.1-.2.213-.4.33-.6a9.989,9.989,0,0,1,.754-.969c.253-.292.549-.632.866-.942.294-.262.6-.513.9-.763.345-.285.677-.538,1.015-.77.178-.123.361-.241.544-.36s.365-.237.545-.36l.053-.038c.3-.209.617-.426.941-.61a5.764,5.764,0,0,1,1.111-.395l-.049,0a4.787,4.787,0,0,0,.737-.2c.218-.082.436-.164.651-.252l.181-.075c.166-.066.331-.132.491-.208.29-.137.546-.267.781-.4a8.466,8.466,0,0,0,.92-.627l.172-.126a14.389,14.389,0,0,0,1.176-.985,4.527,4.527,0,0,0,.616-.724,7.556,7.556,0,0,0,.437-.772l.068-.131.222-.425c.248-.468.5-.955.733-1.444.072-.153.148-.305.222-.458.065-.129.13-.26.191-.391.119-.243.234-.508.373-.856a8.252,8.252,0,0,0,.325-1.066c.079-.324.169-.644.264-.965s.2-.672.3-1.01a6.4,6.4,0,0,1,.263-.694c.084-.185.185-.381.319-.618a8.624,8.624,0,0,1,.615-.8c.078-.088.155-.177.232-.265.139-.156.277-.313.406-.477a2.839,2.839,0,0,0,.336-.544,2.745,2.745,0,0,0,.163-.483l.02-.079c.026-.09.046-.183.067-.276l.039-.176c.035-.145.076-.29.117-.437a6.458,6.458,0,0,1,.456-1.073c.221-.4.44-.8.649-1.206.2-.382.412-.756.625-1.132.2-.359.41-.721.6-1.089.225-.424.393-.773.528-1.1a6.533,6.533,0,0,0,.239-.67,4.668,4.668,0,0,0,.118-.611,6.989,6.989,0,0,0,.044-1.425,6.7,6.7,0,0,0-.088-.677l-.025-.138c-.033-.2-.068-.393-.111-.587-.2-.9-.432-1.84-.686-2.784v.035c-.02-.108-.046-.215-.071-.322a5.686,5.686,0,0,1,.008-2.133,11.354,11.354,0,0,1,.294-1.142l-.024.052c.131-.393.27-.808.439-1.2.049-.112.1-.222.15-.333l.093-.207.1-.213c.063-.139.128-.277.183-.418a7.741,7.741,0,0,0,.392-1.326c.066-.379.121-.8.172-1.329s.08-1.013.09-1.464c.006-.4-.018-.815-.04-1.211l-.008-.15c-.014-.259-.02-.518-.028-.776,0-.182-.011-.363-.017-.545-.011-.283-.035-.562-.057-.843l-.032-.4c-.023-.332-.034-.671-.036-1.037,0-.249-.01-.5-.016-.748l-.009-.42c-.015-.674,0-1.337.012-2.069v.012c.016-.449.019-.9.022-1.348,0-.217,0-.437.006-.656l0-.234c0-.307.01-.625,0-.936l-.019-.41c-.01-.232-.019-.462-.032-.693-.041-.772-.06-1.469-.057-2.132v-.172c0-.666.007-1.334.025-2,.011-.366.018-.73.023-1.095l0-.186,0-.188c0-.125.008-.251,0-.376s-.008-.238-.012-.356-.01-.239-.013-.357-.01-.243-.016-.363l-.009-.237c0-.121-.007-.241-.008-.361s-.005-.242-.008-.362c-.013-.307-.032-.615-.052-.921l-.029-.455c-.019-.341-.041-.68-.063-1.02l-.02-.326-.018-.259c-.022-.352-.044-.7-.077-1.051l-.033-.314c-.077-.772-.159-1.569-.21-2.355l-.028-.483c-.013-.215-.026-.428-.04-.643,0-.047,0-.093,0-.142,0-.112-.009-.221-.016-.329l-.009-.2c-.007-.123-.015-.245-.027-.366,0-.1-.008-.2-.011-.306l0-.155-.007-.2c0-.132-.006-.265-.012-.4-.013-.2-.037-.4-.06-.6l-.016-.147-.024-.208a7.732,7.732,0,0,0-.164-1.048.688.688,0,0,0,.216-.33,2.758,2.758,0,0,0,.163-.651,1.715,1.715,0,0,0-.193-1.174l-.063-.118-.063-.115c-.134-.247-.262-.5-.38-.761-.082-.21-.15-.425-.218-.641-.025-.077-.051-.155-.077-.23a4.041,4.041,0,0,1-.15-.52.31.31,0,0,1,0-.044c.013-.054.025-.1.041-.155a3.568,3.568,0,0,1,.27-.484,3.409,3.409,0,0,1,.243-.28c.066-.069.139-.134.21-.2s.114-.1.167-.153a3.239,3.239,0,0,0,.73-1.242c.069-.191.131-.385.189-.579a4.411,4.411,0,0,0,.153-.8,4.56,4.56,0,0,0-.178-1.577c-.03-.112-.052-.226-.076-.339-.016-.081-.033-.16-.051-.24s-.047-.186-.071-.278-.047-.185-.069-.278a7.745,7.745,0,0,0-.4-1.2l-.054-.126a5.592,5.592,0,0,0-.259-.549c-.09-.158-.181-.314-.273-.471-.053-.091-.109-.183-.164-.273-.123-.2-.249-.407-.353-.62a3.167,3.167,0,0,1-.158-.59,2.493,2.493,0,0,1-.024-.468l.024-.151c.014-.082.027-.166.038-.248h0l.017-.117a3.968,3.968,0,0,0,.06-.645,2.033,2.033,0,0,0-.248-.96,4.721,4.721,0,0,0-.912-1.09l-.088-.086a7.674,7.674,0,0,0-.936-.824,2.215,2.215,0,0,0-.341-.186l-.093-.046-.086-.041-.247-.121c-.027-.013-.057-.025-.086-.038s-.074-.032-.108-.051a1.6,1.6,0,0,1-.081-.328,2.7,2.7,0,0,0-.071-.308l-.032-.116c-.025-.1-.052-.188-.078-.281-.043-.152-.087-.3-.117-.46a4.635,4.635,0,0,1-.022-.7c.008-.033.015-.065.025-.1.145-.329.325-.679.562-1.1.09-.159.173-.322.259-.483a8.315,8.315,0,0,1,.517-.906l.191-.248c.139-.178.276-.356.407-.541.2-.281.387-.571.559-.865a6.477,6.477,0,0,0,.376-.753,4.116,4.116,0,0,0,.319-.961,8.238,8.238,0,0,0,.077-.822l.01-.136a5.882,5.882,0,0,0-.019-.966,4.7,4.7,0,0,0-.114-.665,2.436,2.436,0,0,0-.548-.947,1.821,1.821,0,0,0-.282-.249l-.057-.044c-.136-.106-.276-.2-.418-.3a2.433,2.433,0,0,0-.31-.2l-.107-.056c-.092-.049-.183-.1-.279-.142l-.089-.038c-.076-.031-.153-.064-.227-.1a.646.646,0,0,1-.092-.053,1.683,1.683,0,0,1-.14-.125l-.038-.065a2.653,2.653,0,0,1-.1-.345,2.349,2.349,0,0,1,0-.325,9.27,9.27,0,0,1,.543-1.828c.141-.376.259-.718.379-1.061.139-.4.279-.805.433-1.2l0,0a3.549,3.549,0,0,1,.2-.437c.093-.165.2-.322.305-.48a5.905,5.905,0,0,1,.462-.546c.1-.106.215-.2.327-.294.087-.073.172-.145.254-.221a2.756,2.756,0,0,0,.488-.653c.074-.131.15-.259.225-.389s.152-.258.226-.388a8.575,8.575,0,0,0,.459-.9,7.486,7.486,0,0,0,.368-1.16,14.9,14.9,0,0,0,.309-1.765c.011-.083.021-.165.03-.249s.032-.183.049-.275.041-.21.057-.315a3.506,3.506,0,0,0,.044-.434,3.252,3.252,0,0,0-.034-.513,3.8,3.8,0,0,1-.013-.386,2.982,2.982,0,0,0-.044-.46l-.019-.122a3.638,3.638,0,0,0-.133-.515c-.039-.124-.077-.25-.1-.38,0-.072,0-.145.006-.219l0-.048q0-.075,0-.153c0-.057,0-.115,0-.172.006-.1,0-.206,0-.309,0-.088,0-.175,0-.264a4.673,4.673,0,0,1,.241-.784l-.016.028.027-.061.068-.175c.076-.185.159-.368.242-.55a6.248,6.248,0,0,0,.568-1.636,5.413,5.413,0,0,0,.066-.6,3.47,3.47,0,0,0-.055-.764,1.507,1.507,0,0,0-.161-.393l-.068-.133-.07-.131c-.06-.115-.115-.234-.165-.352a8.135,8.135,0,0,1-.48-1.848l.02.211c-.042-.363-.1-.721-.167-1.081l-.035-.2-.025-.213c-.027-.23-.054-.461-.091-.691-.054-.325-.108-.652-.157-.979a6.859,6.859,0,0,1,0-1.092,8.221,8.221,0,0,0,.013-1.092l-.025-.4c-.015-.218-.027-.438-.038-.655l-.013-.276c-.014-.348-.03-.706-.063-1.058-.025-.268-.044-.537-.063-.807l-.024-.347-.02-.274c-.026-.332-.051-.674-.054-1.012-.008-.736.047-1.482.1-2.2l.036-.487c.018-.243.044-.486.071-.727.018-.15.035-.3.049-.45a8.376,8.376,0,0,0,.021-1.236l-.03-.544c-.04-.722-.081-1.467-.1-2.2-.016-.567-.007-1.124.006-1.64l.008-.481c0-.3.008-.59.019-.886.019-.445.041-.89.077-1.335.019-.234.046-.467.073-.7s.052-.467.072-.7c.03-.384.043-.772.057-1.159l0-.093c.01-.257.03-.513.052-.768.016-.174.03-.348.042-.521a13.821,13.821,0,0,0-.042-1.766c-.015-.239-.031-.475-.042-.714-.01-.175-.01-.35-.01-.524,0-.216,0-.432-.017-.647-.009-.124-.02-.249-.033-.372-.019-.188-.036-.376-.043-.565a7.592,7.592,0,0,1,.044-.958c.029-.338.059-.679.09-1.018.016-.13.037-.258.056-.386.028-.192.056-.385.079-.579a3.694,3.694,0,0,0-.023-1.084,3.986,3.986,0,0,0-.413-1.154,4.177,4.177,0,0,0-.589-.813l-.047-.057a6.283,6.283,0,0,1-.355-.6c-.044-.081-.087-.159-.131-.238-.149-.267-.264-.491-.365-.707a3.3,3.3,0,0,1-.161-.558c-.017-.232-.012-.468-.008-.7l0-.235c0-.13-.008-.259-.014-.39a4.168,4.168,0,0,1-.008-.559c0-.033.009-.1.017-.17l.011-.106.043-.262a8.137,8.137,0,0,0,.129-1.018c.007-.167.01-.333.013-.5,0-.233.01-.466.025-.7a4.906,4.906,0,0,1,.163-.746c.025-.049.052-.1.082-.144.211-.249.4-.483.568-.715a4.1,4.1,0,0,0,.887-2.149l0-.046a2.385,2.385,0,0,0,.016-.423,1.853,1.853,0,0,0-.091-.493,2.029,2.029,0,0,0-.261-.484l-.073-.1a7.266,7.266,0,0,1-.6-.951c-.041-.112-.079-.224-.116-.337s-.1-.243-.158-.363l-.037-.076a1.908,1.908,0,0,1-.063-.242c-.016-.134-.031-.268-.05-.4a2.366,2.366,0,0,1,0-.438,10.568,10.568,0,0,1,.307-1.358c.128-.423.284-.843.436-1.248l.025-.067a9.342,9.342,0,0,0,.393-1.429,11.823,11.823,0,0,0,.166-1.576,24.044,24.044,0,0,0,.014-3.041,19.262,19.262,0,0,1-.025-3.158c.043-.337.093-.671.145-1.006.024-.151.046-.3.068-.457.041-.285.082-.569.134-.851l.07-.379a17.735,17.735,0,0,0,.323-2.334c0-.106.008-.213.013-.319.008-.251.017-.51.046-.766.039-.366.08-.8.085-1.232,0-.382-.029-.767-.057-1.138a10.009,10.009,0,0,1-.047-1.43c.009-.16.02-.319.033-.478.022-.3.044-.6.053-.9.011-.347.007-.693,0-1.04,0-.158,0-.314,0-.472,0-.472.019-.947.039-1.408s.011-.947-.022-1.518l-.027-.4c-.02-.317-.042-.634-.049-.952l0-.319c0-.372-.011-.743-.029-1.114-.025-.513-.038-1.026-.05-1.539-.01-.39-.019-.779-.033-1.168-.015-.342-.057-.688-.1-1.021l-.027-.23c-.021-.163-.038-.327-.055-.491-.027-.256-.056-.511-.09-.766-.065-.43-.128-.786-.2-1.114-.079-.353-.169-.7-.259-1.054l-.03-.123c-.1-.392-.2-.782-.285-1.176s-.177-.8-.295-1.195c-.07-.229-.158-.455-.243-.674-.065-.166-.131-.333-.188-.5-.035-.1-.067-.2-.1-.3l-.081-.252c-.066-.191-.146-.376-.228-.561l-.057-.132c-.063-.144-.139-.283-.215-.42l-.027-.049a2.723,2.723,0,0,0-.3-.421l-.053-.067a2.545,2.545,0,0,0-.646-.525l-.055-.036c-.051-.046-.1-.092-.146-.141-.042-.066-.078-.133-.113-.2a2.311,2.311,0,0,1-.088-.35c-.032-.277-.049-.556-.068-.835l-.022-.343c-.018-.244-.04-.488-.06-.731s-.043-.492-.06-.74c-.029-.373-.057-.72-.094-1.06a1.087,1.087,0,0,1-.165-.256l-.011.012a.725.725,0,0,1-.321.171.56.56,0,0,1-.244.006.961.961,0,0,1-.37.5.655.655,0,0,1-.232.088c-.015.108-.033.215-.049.322-.052.341-.1.684-.15,1.026-.025.172-.05.346-.077.52a5.8,5.8,0,0,1-.131.741.608.608,0,0,1-.6.431.878.878,0,0,1-.356-.1.627.627,0,0,1-.166-.15.138.138,0,0,1-.022-.026.7.7,0,0,1-.624.142.743.743,0,0,1-.407-.311,1.161,1.161,0,0,1-.118-.267c-.048-.129-.1-.259-.139-.39-.052-.161-.1-.322-.142-.484a7.178,7.178,0,0,1-.171-.857q-.039-.278-.071-.554a.715.715,0,0,1-.091.113c-.052.04-.1.079-.158.117a.613.613,0,0,1-.467.051c-.392-.073-.524-.523-.632-.85-.047-.14-.089-.281-.129-.423l-.069.051a.953.953,0,0,1-.205.088,1.148,1.148,0,0,1-.652.007,1.3,1.3,0,0,1-.283-.1c-.1-.032-.2-.047-.29-.079a.606.606,0,1,1,.348-1.16c.076.024.154.033.228.057s.14.054.21.083a.508.508,0,0,0,.069.023c.033-.03.066-.062.1-.092a3.222,3.222,0,0,1,.311-.245.763.763,0,0,1,.715-.121.826.826,0,0,1,.4.323c.017-.053.034-.109.053-.162.032-.1.065-.2.1-.3a1.061,1.061,0,0,1,.213-.4.712.712,0,0,1,.358-.21.61.61,0,0,1,.579.169,1.4,1.4,0,0,1,.285.912c.014.131.028.26.042.39q.088-1.04.163-2.08a.606.606,0,1,1,1.212.037c-.014.436.014.872.014,1.307,0,.043,0,.085,0,.128a.716.716,0,0,1,.153-.117.608.608,0,0,1,.445-.056l.075-.408a.611.611,0,0,1,.021-.128c.008-.064.017-.129.024-.194a1.333,1.333,0,0,1,.047-.3.659.659,0,0,1,.287-.357.613.613,0,0,1,.467-.049.646.646,0,0,1,.183.093c-.009-.145-.016-.291-.025-.437l-.014-.275a11.651,11.651,0,0,1,.038-1.881c.071-.543.148-1.084.226-1.627.134-.939.271-1.912.38-2.871.057-.436.115-.873.183-1.31.055-.358.1-.717.133-1.075l.028-.254a11.474,11.474,0,0,1,.243-1.3c.109-.412.243-.9.412-1.375a5.789,5.789,0,0,1,.559-1.023c.167-.211.316-.383.466-.541a5.123,5.123,0,0,0,.5-.616,4.6,4.6,0,0,0,.674-1.4c.043-.158.073-.317.1-.478.021-.114.043-.227.07-.341.056-.249.124-.494.194-.74l.025-.085a15.75,15.75,0,0,0,.395-1.779,20.274,20.274,0,0,0,.255-2.282,21.008,21.008,0,0,0-.055-2.18c-.027-.4-.041-.792-.057-1.189-.012-.3-.023-.6-.039-.9-.021-.367-.049-.73-.076-1.094l-.044-.6a9.147,9.147,0,0,1,.084-1.7,14.87,14.87,0,0,1,.71-2.71,9.16,9.16,0,0,0,.3-1.22,9.832,9.832,0,0,0,.169-1.4,8.2,8.2,0,0,0-.041-1.236,11.736,11.736,0,0,0-.232-1.411c-.065-.284-.144-.565-.224-.845-.051-.181-.1-.361-.149-.543-.116-.446-.22-.92-.314-1.447-.019-.158-.033-.319-.047-.478s-.028-.317-.047-.477c-.048-.42-.079-.83-.09-1.217-.01-.3,0-.609.005-.913l.007-.365,0-.412c0-.346,0-.69.014-1.035.022-.785,0-1.58-.03-2.349l-.01-.3c-.025-.72,0-1.452.033-2.161l.015-.374c.034-.918.056-1.832.064-2.713,0-.309.015-.62.024-.928l.01-.256c.006-.222.022-.445.037-.666.015-.2.029-.394.037-.592.015-.389.033-.852.03-1.324,0-.5-.008-1.007,0-1.509s.027-.988.045-1.48.037-.987.046-1.479c0-.369,0-.737,0-1.106l0-.138c0-.461.013-.915.027-1.261.019-.413.029-.827.038-1.24.007-.31.019-.61.033-.908.008-.182.016-.363.022-.544.027-.777.095-1.566.16-2.328l.02-.231c.019-.221.03-.442.043-.663.008-.134.016-.268.025-.4l.035-.47c.017-.232.035-.464.049-.7.019-.3.043-.59.068-.885.038-.469.077-.955.1-1.433a23.214,23.214,0,0,0-.057-2.565l-.02-.289c-.019-.293-.04-.585-.049-.879-.008-.229,0-.458,0-.688l0-.343v-.083a20.683,20.683,0,0,1,.08-2.166c.039-.3.088-.571.147-.838l.06-.259c.044-.189.088-.378.123-.571a16.13,16.13,0,0,0,.2-2.172c.018-.391.045-.783.072-1.174.022-.332.045-.663.063-.994.028-.539.082-1.129.17-1.857.065-.538.1-.975.123-1.374a10.017,10.017,0,0,0-.082-1.64A13.648,13.648,0,0,1,406.655,60.1ZM174.714,98.351c3.047-.731,4.859,4.86,2.347,6.2-1.969.663-2.853-1.7-3.935-2.765C172.994,100.591,173.279,98.672,174.714,98.351ZM173.5,78.214c1.434,4.764.344,10-1.8,14.373a1.987,1.987,0,0,1-3.405-.361c-.678-1.9,1.177-3.542,1.515-5.336a3.592,3.592,0,0,1-2.42-1.753C165.365,81.851,170.407,73.179,173.5,78.214ZM80.821,240.763v0a2.166,2.166,0,0,1,.25.375l-.022-.033c1.338,2.049-.838,4.611-3.091,4.051-3.047-1.309-1.641-6.01,1.693-4.994A1.612,1.612,0,0,1,80.821,240.763Zm-4.028-30.574a4.651,4.651,0,0,1,1.5,4.6c1.385,1.442,1.69,4.82-1.131,4.233-1.4-1.318-1.983-.342-3.639-.526-2.177-.32-1.606-2.9-2.28-3.934C68.048,211.476,74.1,207.8,76.793,210.189ZM42.321,232.571c-3.1-3.459,2.011-3.927,3.772-1.284C54.905,236.2,44.633,237.941,42.321,232.571Zm-5.887-15.479c-2.738-5.537,4.769-6.994,6.62-2.005-.063-.108-.121-.222-.184-.329.1.186.206.375.31.563-.024-.044-.048-.088-.07-.132a19.625,19.625,0,0,0,2.7,3.587c3.658,2.734,4.55,12-1.975,7.406-4.673.085-3.866-3.391-3.853-6.79C38.568,219.231,36.6,219.111,36.434,217.092ZM88.48,353.624c-6.66-9.89-14.14-19.49-19.631-30.334-.469-1.362-5.42-7.06-2.252-6.493h0c1.409,2.435,3.077,4.694,4.425,7.167l0,0C71.972,326.813,98.552,365.469,88.48,353.624Zm6.482,10.015.02.037c-.1-.179-.194-.362-.291-.54-6.358-10.651,3.2,2.022,4.492,5.049C104.813,376.477,95.688,366.827,94.962,363.639Zm236.751-34.756,0,0c-2.819,1.945-36.209,45.459-26.649,29.706,8.565-10.921,16.572-22.863,26.629-32.605,1.34-.947,5.9-8.658,6.38-4.531h0C335.883,323.856,333.973,326.54,331.713,328.883Zm20.76-35.4c-12.128,12.7-4.486,12.523-10.14,22.428-1.839,3-5.305.4-7.747,1.725-5.381,5.5-10.149,11.59-15.8,16.818l.012.01c-16.123,17.94-28.91,40.314-48.344,54.546l.335-.083c-2.579,1.339-6.226,3.282-8.771.873h0c-6.518-2.779-7.618-8.254-10.9-14.275-15.67-32.76-29.056-66.683-44.362-99.634-23.825,34.425-47.167,69.313-73.22,102.058l.058-.076c-.743.893-1.5,1.78-2.239,2.672h0c-.478.554-.942,1.122-1.4,1.688-1.5,1.465-2.606,3.651-4.525,4.575-.234.093-.467.186-.7.273l.016-.029a14.147,14.147,0,0,1-6.582.905l.022,0c-16.958-12.68-24.866-38.635-37.736-56.414l.01-.007c-4.833-6-8.655-12.717-13.182-18.937-2.222-1.675-6.026.4-7.413-2.838-4.156-10.682,3.394-9.3-6.762-23.663-3.822-9.168-25.6-22.461-9.047-29.679,3.447-2.277,5.983.644,9.259,1.274-.934-3.972-2.836-8.348.075-11.982,4.586-5.613,14.64,5.816,19.994,7.039,13.179-6.929,18.967,4.591,25.229,14.522l-.033-.036c5.458,7.815,10.386,4.3,12.06,15.724-1.2.2,2.023,2.993,2.047,4.126l-.005,0,.007.012v-.007a.119.119,0,0,0,.008.016h0a139.367,139.367,0,0,0,16.718,24c9.667-13.124,20.351-25.614,29.006-39.529l-.192.266.029-.041c-.1.142-.2.283-.3.426,1.421-1.986,2.669-4.1,4.149-6.044,4.87-7.364,10.526-14.122,15.7-21.261l-.333.473c11.1-14.738,6.749-7.058-1.381-26.826.177.357.354.707.537,1.063-22.032-45.106-45.342-89.581-67.5-134.6-6.332-12.77-12.711-25.454-18.534-38.462-2.668-3.886-4.748-11.613,1.85-12.536,3.155-.35-2.5-11.247,7.718-7.458,7.239-6.1,17.816-18.745,26.979-8.378,10.689-4.342,18.024,9.482,19.154,18.421,14.285,51.5,37.293,100.288,58.471,149.752h-.006c1.487,3.212,2.625,6.618,4.525,9.621C223.6,173.206,241.09,152.8,256.79,131.016c11.991-18.011,26-34.39,38.484-52.007h-.006c2.292-3.68,4.939-7.17,6.8-11.1,1.123-2.8,1.207-6.04,3.814-8.057h-.006a.406.406,0,0,0,.065-.066c0,.007,0,.007,0,.012,9.49-7.521,9.9.3,15.362-2.882,12.356-5.309,14.421,3.494,6.6,11.871,4.12-4.271,12.793-12.594,18.531-9.658,4.76-3.449,13-1.193,14.755,4.52-3.609,23.643-34.738,48.908-48.895,68.983-26.213,29.6-48.842,62.049-72,94.021.015-.019.03-.032.044-.051-2.678,4.67-9.345,9.274-8.179,14.853.06.123.119.245.19.366l0-.011c.123.234.241.46.358.7V242.5c.111.245.269.483.39.719l-.045-.079c.169.335.306.686.486,1.019-.015-.026-.03-.058-.045-.084,2.11,7.915,6.457,14.673,10.47,21.716l0-.011c.055.111.115.223.175.334l-.045-.079c.829,1.765,1.949,3.349,2.9,5.05l0-.028c1.322,2.685,2.231,5.57,3.566,8.245l-.044-.079c2.416,5.771,8.589,19.218,10,21.67.4.82.946,1.551,1.379,2.354a.318.318,0,0,1-.01-.033c.5,1.07,1.218,2.022,1.73,3.1l-.045-.079c1.929,5.828,5.356,10.215,10.622,4.213-.026.02-.046.04-.072.061,5.182-5.7,11.415-10.827,14.931-17.633,2.581-3.062,6.59-4.619,9.477-7.386,3.031-4.411,4.894-9.66,9.326-13.123a16.52,16.52,0,0,0,4.616-5.117c3.081-6.384,11.123-15.324,19.069-12.74,2.7.669,4.368,4.22,7.4,2.642,11.65-5.732,26.006-11.134,17.477,8.208,3.868-.246,6.141-2.805,9.8.408C380.723,275.1,357.423,285.138,352.473,293.482ZM94.3,232.19c-.674-4.537,5.305-1.621,3.676,1.782,2.631.281,3.4,4.637.213,4.437a9.565,9.565,0,0,1-2.147,5.2c-3.9,3.039-7.019-2.99-5.389-6.345a5.948,5.948,0,0,1,2.17-2.908A2.115,2.115,0,0,1,94.3,232.19ZM108.129,216.5c.18-3.655,10.056-13.667,8.414-4.763-.612,2.861-2.276,5.867-3.658,8.572-1.963,1.824-4.9,7.865-8,6.094-2.825-2.446,2.986-6.769,3.276-9.967Zm58.051,8.274c-.485-2-2.359-2.744-4.214-3.079-2.668-.978-5.749-4.628-3.656-7.533,6.2-3.837,1.193-7.658,3.318-12.858q6.474,11.942,12.907,23.907c-.21-.375-.413-.746-.617-1.122,1.428,2.752,2.873,5.5,4.36,8.226,1.89,3.907-2.342,6.628-4.221,9.646-6.553,7.962-11.3,17.543-18.347,25.02-18.409,19.111-13.269,37.8-28.317,6.683-2.742-2.047.338-8.245,2.385-9.926,3.943-3.658,9.487-3.324,14.368-2.466,3.274-4.592,9.329-6.014,12.589-10.434C165.41,234.375,171.131,245.914,166.18,224.771ZM327.4,141.25c-.04.006-2.381-.072-2.817-.835-1.013-9.77,16.921-11.8,5.786-.78C331.1,138.868,328.3,141.623,327.4,141.25Zm-8.223-4.224.009-.01c-5.585,4.152-70.28,94.92-51.994,62.241,16.613-22.794,32.02-47.621,51.747-68.129,2.653-2.018,11.363-18.007,12.632-9.658h0C327.288,126.517,323.6,132.1,319.179,137.026Zm.238,7.116c-.831-2.692,1.526-5.757,2.922-2.253C323.225,144.881,320.539,146.614,319.417,144.142Zm-50.575,60.384c13.878-16.177-1.544,6.319-5.771,10.076-10.431,13.7.3-6.437,5.1-9.361l-.049.053C268.36,205.039,268.605,204.78,268.842,204.526Z"/>
    <path class="a" d="M231.61,291.2c-.293,1.669,3.16,10.47,4.394,5.885C236.133,295.671,232.957,289.236,231.61,291.2Z"/>
    <path class="a" d="M240.59,286.8v.006c.007.01.008.015.014.02A.067.067,0,0,1,240.59,286.8Z"/>
    <path class="a" d="M268.481,361.692c-2.032-7.927-5.146-15.791-7.921-23.5h.006c-1.822-3.076-.24-6.708-2.007-10.011,0,.006.006,0,.007.01-1.844-9.325-7.411-19.554-11.409-28.7h.006c-.147-.245-.262-.49-.393-.742l0,.011c-1.026-2.011-2.055-4.031-3.093-6.034a.779.779,0,0,1,.039.086c-1.008-2.017-2.062-4.021-3.128-6-7.731-15.491-11.206-12.253-2.554.633,1.11,3.937,1.956,7.885,4.052,11.537,1.11,2.675.2,5.75,1.546,8.325v-.005c12.565,19.937,15.716,45.028,27.615,64.713,1.462-3.267-2.019-7.042-2.773-10.312Z"/>
    <path class="a" d="M312.5,267.187l-.014.019S312.5,267.2,312.5,267.187Z"/>
    <path class="a" d="M321.486,314.19c-.035.03-.068.062-.1.093A.866.866,0,0,0,321.486,314.19Z"/>
  </g>
</svg>
