<svg xmlns="http://www.w3.org/2000/svg" viewBox="0 0 192.7 122" xmlns:v="https://vecta.io/nano"><path d="M32.4 26.8s0-.2-.1-.2c0-.1-.1-.1-.2-.2-.1 0-.2 0-.2.1 0 0 0 .1-.1.1v.1l-.1-.1c0-.3-.2-.6-.3-.9-.2-.2-.2-.4-.2-.6v-.8-.2c-.1-.3-.1-.5-.2-.8 0-.4 0-.8.2-1.2.1-.4.2-.8.2-1.2a2.39 2.39 0 0 1 .2-.9c0-.1.1-.3.1-.4 0-.2.1-.5.2-.7.2-.3.3-.6.3-.9s.2-.4.2-.7c.1-.2.2-.4.3-.7.2-.5.3-1 .5-1.4.1-.3.3-.7.4-1s.2-.7.3-1.1V13h0c.1-.6.3-1.2.6-1.8l.3-1c.1-.2.2-.5.3-.7l.5-1.1c.2-.7.5-1.4.8-2h0c.2-.3.1-.5-.2-.4l-2.2.1c-.4.1-.8.1-1.2.1s-.8.1-1.2 0h-.2-.7c-.4-.1-.8-.4-1-.7-.3-.2-.4-.5-.5-.8v-.4-.8c0-.2.1-.4.2-.5 0 0 0-.1.1-.2.1-.3.5-.6.8-.6h1.4v.1h1.8c.1 0 .1 0 .2-.1h.5 1.4 1.2c.7 0 1.4-.1 2.2-.2.1 0 .2-.2.3 0h.2c.4 0 .8-.1 1.3-.2.4 0 .8-.1 1.2-.2h0c.6 0 1.2-.1 1.9-.2.3-.1.8-.1 1.2-.2h.1c.3-.1.7-.2 1.1-.3l1.6-.3c.3 0 .7-.1 1-.2.2-.1.4-.1.5-.1.3 0 .6-.1.9-.1.2-.1.4-.1.7-.1.3-.1.5-.3.8 0l.3.3c0 .1 0 .2.1.2 0 0 .1.1.2 0s.2-.3.3-.4.2-.1.2 0c.1.2.2.3.4.2h0c.3-.1.4-.1.5.2.1.1.1.1.2.1.2 0 .3.1.5.2 0 .1.2.2 0 .3-.1 0 0 .1 0 .2.1.1.1.2 0 .3 0 0-.1.1-.1.2 0 .4-.2.7-.4 1-.1 0-.4.1-.6.1-.5.1-1 .2-1.5.2-.2.1-.5.1-.8.1h-.2c-.3.3-.7.2-1.1.3-.6.2-1.3.3-2 .5l-2.1.4c-.3 0-.5.1-.8.3h-.3-.3c-.3.1-.6.2-.9.2s-.4 0-.5.4c-.1.6-.4 1.1-.8 1.5-.6.5-1.1 1.1-1.6 1.7-.5.7-.9 1.4-1.3 2.2l-.8 1.8c0 .1 0 .2-.1.2-.3.2-.3.7-.5 1-.2.4-.3.8-.5 1.1l-.6 1.4c-.1.2-.2.5-.3.7l-.8 2.1-.3.9-.5 1.2c0 .1 0 .2-.1.4 0 .3-.1.6-.2.9l-.3 1.1c0 .3-.1.5-.2.8 0 .2-.1.4-.3.6-.1.1-.1.3 0 .4v.5c0 .2-.1.3-.2.5 0 .1-.1.2-.2.2s-.3.1-.3.2c0 0-.1.1-.2.1-.2-.1-.3-.1-.4.1.1-.1 0-.2 0-.2zm0-3.2v-.2h0 .2v-.1c-.1-.1-.2 0-.2.1v.1l-.2.1v.2h.1c.1-.1.1-.2.1-.2h0zm.4-1.5c-.1 0-.1-.1-.1-.1 0 .1-.1.1-.1.2s.1.1.1.1c0-.1.1-.1.1-.2h0zm.7 2.3c-.1 0-.2-.1-.3-.1h-.1c.1-.3.1-.4-.2-.4-.1 0-.2.1-.2-.1h-.1v.2c.1.2.3.3.5.2-.1.2 0 .2.1.2s.2.1.3 0h0zm-.5-2.7h0c0-.1 0-.1 0 0v-.3l-.2.1h0 0v.3s.1.1.2.1v-.2h0zm.2 2c0-.1 0-.2-.2-.2 0 0-.1 0-.1.1 0 .2.2.1.2.2 0 0 .1 0 .1-.1h0zm0-2.9h0 0c-.2-.1-.3 0-.3.1v.2c.2-.1.2-.2.3-.3h0zm0-.3c0-.1.2-.1.2-.2s.1-.2.1-.4.1-.4.2-.7v-.1s-.1-.1-.1-.2c-.1 0-.1.1-.1.2-.1.2-.1.4-.2.6-.1.1-.1.2-.1.3s0 .2-.1.3c0 .2 0 .2.1.2h0zm.6-2c0-.1-.1-.1 0 0-.1 0-.1 0-.2.1h0 0c.1 0 .2-.1.2-.1h0zm.2-.4c.1-.1.1-.3.1-.5v-.1h0 0-.1 0c-.1.2-.1.4-.2.5v.2c.1 0 .2 0 .2-.1h0zm.3-1s0-.1-.1-.1l-.1.1s.1 0 .1.1c0 0 .1 0 .1-.1h0zm.3-.5v-.1c.1-.3.1-.3.4-.2 0 0 .1 0 .1-.1 0 0 0-.1-.1-.1-.3 0-.2-.2-.2-.4a1.08 1.08 0 0 1 .3-.7v-.1-.2s-.1.1-.2.1c0 0 0 .1-.1.1-.3 0-.3.2-.4.4s0 .4-.2.5v.1c.1.2 0 .3-.1.4 0 .1.1.3.1.4.2 0 .3 0 .4-.1h0zm.8-2.4l.3-.6s0-.1-.1-.2l-.1.1-.3.3v.3c0 .1.1.1.2.1 0 .1 0 .1 0 0h0zm.5-1.1c0-.1-.1-.1-.1-.2l-.1.1c0 .1.1.1.2.1 0 .1 0 0 0 0h0zm.1-.4v-.3c0-.1.1-.1.2-.2h0c-.1 0-.1.1-.2.2-.2 0-.1.2-.2.2 0 0 .1.1.1.2 0-.1 0-.1.1-.1h0zm.3 2.7v-.2c0 .1-.1.1-.2.2h.2 0 0zm.1-3.4c0-.2 0-.2.1-.2v-.1c-.1 0-.2 0-.3.1 0 0-.1.1 0 .2l.1.1c0-.1.1-.1.1-.1h0zM51.6 1.1V1h0c0 .1-.1.1-.2.2v.1c.1-.1.2-.1.2-.2z"/><path d="M52.7 26.9c-.1 0-.2-.1-.3-.1h-.1c0-.1-.1-.2-.2-.2s-.2 0-.3-.1h-.1l-.1-.1v-.1c-.1-.1-.1-.2-.1-.3h-.1c-.2 0-.2-.1-.2-.2 0 0-.1 0-.1-.1s-.2-.3-.2-.5v-.3-.2c.1-.1.2-.1.1-.3 0 0 0-.1.1-.1.2-.1.2-.3.3-.3s.1-.1.2-.2v-.1h-.2c0-.1 0-.1.1-.1 0-.1 0-.2.1-.3 0 0 .1 0 .2-.1h.1-.1c-.1 0-.1-.1-.1-.1.1 0 .1-.2.2-.1h.1s-.1 0-.1-.1l-.1-.1.2-.5V22c0-.3.1-.5.3-.7.1-.1.1-.2.2-.4l.2-.6c0-.1 0-.1.1-.1 0-.1.1-.2.1-.3v-.1.1h0 0c-.1-.1 0-.2.1-.3a.76.76 0 0 1 .2-.4c0-.1.1-.1.2 0h.1 0c0-.1-.2 0 0-.2.2-.3.3-.7.5-1 .1-.2.2-.5.3-.7.1-.1.1-.3.2-.5 0 0 0-.1-.1-.1h-.3 0c-.4 0-.7.1-1.1.1-.2 0-.3.1-.5.1h-.2l-1.5.3c-.1 0-.2.1-.3.1h-.3c-.2.1-.4.1-.6.1s-.3.1-.5.1-.5.1-.7.2h-.1-.1c0 .2-.3.4-.3.6 0 .1 0 .2-.1.3 0 0-.1 0-.1.1 0 .2 0 .3-.1.5 0 .1 0 .2-.2.2 0 0-.1.1-.1.2h.1.1v.1c-.1.1-.1.2-.1.3s0 .3-.1.4c0 .1-.2.2-.2.4v.1a.76.76 0 0 0-.2.4l-.3.6c-.2.2-.3.5-.4.8l-.3.6v.2c0 .1.1.1 0 .1-.2.2-.5.3-.6.6 0 0-.1.1-.2.1s-.2.1-.2.1c-.1 0-.1.1-.2 0-.1 0-.3 0-.4.1h-.2c-.1 0-.2-.1-.3-.1-.2-.1-.3-.2-.3-.4-.1-.1-.1-.1-.2-.1-.2-.1-.3-.2-.5-.3h0c0-.1 0-.2-.2-.1h-.1 0l-.3-.3c-.1-.1-.2-.1-.1-.3v-.1c-.1-.2-.1-.4 0-.6 0-.1.1-.2.1-.3l.5-1.2c0-.2.1-.4.1-.6.2-.4.3-.8.4-1.1l.3-.9c0-.1.1-.1.1-.2.2-.2.1-.3 0-.5-.1 0-.1-.1-.2-.2 0-.2-.2-.4-.1-.6s.2-.2.3-.2h.1c.1.1.4.2.5 0l.3-.3v-.2-.2s0-.1.1-.1v.1h0 0 0c.1-.3.3-.5.3-.7.1-.4.2-.7.4-1.1.2-.3.3-.6.5-1l.3-.6c0-.1.2-.2.1-.4h0c.2 0 .2-.1.2-.2l.2-.4.1-.1v.1.1s0-.1.1-.1c0-.1 0-.1-.1-.2V11c.2-.1.2-.4.3-.6.1-.1.2-.3.3-.4v-.3c-.1 0 0-.1 0-.2.1-.1.1-.2.2-.3s.2-.1.2-.2c.1-.1.1-.2.2-.3 0-.1.1-.2.3-.1h.1c0-.1.1-.1.1-.1.2 0 .2-.1.3-.2h0c0-.1-.1-.1-.2-.2.1-.1.2-.2.3-.2s.1 0 .2-.1v-.3c-.1 0-.1.1-.2.1h-.3 0 0c.1-.1.2-.3.3-.3 0 0 .2-.2.3-.2 0 0 0-.1 0 0h.1v-.2s0-.1.1-.1h.1V7c-.1 0 0 0 .1 0v-.5l.6-.6s.1-.1.2-.1.2-.1.3-.1c.2 0 .5-.1.7-.2s.4 0 .6 0h.1.3c.1 0 .2.1.3 0 .1 0 .2 0 .3.1.2.1.3.2.4.3.1 0 .1.1.2.2.1 0 .1.2.1.2 0 .2.1.3.1.5v.3c0 .2 0 .3-.1.5-.1.1-.1.4-.2.4-.1.1-.2.2-.3.4l-.4.4c-.2.3-.4.6-.7.9-.1.2-.2.3-.3.5l-.5.8-.3.3c-.2.3-.3.5-.4.8-.1.2-.2.4-.4.5 0 .1 0 .2-.1.3l-.6 1.1c0 .1-.1.2-.1.3h0 .1c.1-.1.2 0 .3-.1h.2c.1-.1.2 0 .3.1v.1-.1-.2-.1h.1.1s0-.1.1 0h.3v-.1-.1c.1 0 .2-.1.3-.1s.1-.1.1 0c0 0 .1.1.1 0l.1-.1s0-.1.1-.1c0 .1.2-.1.2.1h0 0s.1 0 .1-.1.2-.2.3-.1h.1 0 0 0 0 0 0c.1.1.2-.1.3 0h0 0c.1-.1.3-.1.4-.1h.4c.1 0 .3-.1.4 0h.2c.1 0 .1-.2.2 0 0-.1.2 0 .2 0 .1-.1.3-.2.5-.1.2-.1.3.1.5 0h0c.1-.2.2-.3.3-.5l.3-.8c0-.1.1-.2.2-.3 0-.2.1-.4.2-.5l.3-.6.3-.8c.1-.1.1-.3.2-.4l.1-.1c.1 0 .1.1.1.1s0 .1-.1.1-.1 0 0 0 .1.2.2.1c.1 0 .3 0 .4-.1h0c-.1-.1 0-.1.2-.1v-.1s0-.1.1-.1c0 0 .1 0 0-.1 0 0 0-.1.1-.1 0 0 .1 0 .1-.1v-.1h-.1-.1c-.1 0-.1 0-.1.1h0 0 0c0-.1 0-.1.1-.1h-.2c0 .1-.2.2-.2.3-.1.1-.1.1-.1 0v-.3c.1-.1.2-.2.3-.4v-.1c0-.1 0-.1.1-.2h0c0-.1 0-.2.1-.2.1-.1.2-.3.3-.4 0-.1.2-.2.2-.3.3-.3.4-.6.6-.9.2-.2.3-.4.4-.6.1-.1.2-.3.3-.4 0-.1.2-.1.3-.1s.2 0 .3-.1c.2-.2.4-.3.7-.3h.1c.3-.1.7-.2 1 0h.3c.2 0 .4.1.6.2.1 0 .2.1.2.2.4.1.6.5.6.9v.3.4s-.1 0-.1.1c0 .4-.3.7-.5 1l-.6.8c-.1.1-.2.3-.4.4-.2 0-.3.2-.4.4-.2.2-.4.5-.5.8-.3.4-.5.9-.8 1.3-.2.3-.3.6-.5 1 0 .1-.1.1-.1.2v.1h.2c.2.1.4 0 .6.2.1.1.2.1.3.1.2 0 .3.2.4.3.2.1.2.4.2.6v.4c0 .2-.1.4-.2.6 0 .1-.1.2-.1.3 0 0 0 .1-.1.1-.3.1-.5.2-.7.4-.2.1-.5.2-.8.1l-.9-.1h-.7s-.1.1-.2.1c-.1.1-.1.4-.2.5-.2.2-.2.5-.4.7 0 0 0 .1-.1.2l-.3.6c-.1.2-.2.4-.3.7-.1.2-.2.4-.3.7-.2.3-.3.7-.5 1-.1.2-.2.3-.3.5-.1.1-.1.3-.1.5-.1.4-.3.8-.4 1.1-.1.1-.1.2-.1.3 0 .2-.1.2-.1.3-.1.1-.2.1-.1.2v.1s0 .1-.1.1l-.1.1c0 .1.1.2-.1.2h0 0c.1.1 0 .3 0 .5 0 .1-.1.2-.2.3 0 .1 0 .2-.1.3 0 .2-.2.4-.2.6 0 0 0 .1-.1.1h0 0c.1.1 0 .2-.2.3-.1.1-.1.2-.2.3-.2.1-.1.3-.2.5h0c-.1 0-.2 0-.3.1h-.2l-.2.2h0c.2-.1.1 0 0 0zm-9.6-6.2s0-.2-.1-.2c0 0-.1.1 0 .1 0 0 0 .1.1.1 0 .1 0 0 0 0zm1.8-1.7h0c.1-.1.3-.2.3-.3v-.1c0-.1.1-.1.1-.2h-.2c-.1 0-.2 0-.2-.1 0 0 0-.1-.1-.1 0 .1-.1.1-.1.1v.2c-.1.2-.1.4-.1.6v.1c.1-.4.2-.3.3-.2zm1.1-3.9l1-.3.1-.1.3-.8s-.1-.2.1-.1v-.2c.2 0 .1-.1.1-.1 0-.1.1-.1.2-.2v-.1c0-.1-.1-.2 0-.3.1-.2.2-.3.3-.5V12c0-.1 0-.1.1-.1v-.1-.1c0-.1.1-.2.2-.3.2-.1.1-.3.2-.5h0 0 0 0 .1 0c.1 0 .1 0 .1-.1v-.1h.1c.1 0 .1 0 .1-.1.1-.1.1-.3 0-.4 0 0 0-.1-.1-.1h.1s.1 0 .1.1v-.1c-.2-.1-.1-.1 0-.2v-.2-.2h.1.1c.1 0 .1-.1 0-.1h0c0-.1.1-.1.1-.2a.76.76 0 0 1 .2-.4h.1c.2 0 .2-.1.2-.2v-.2c0-.1 0-.2.1-.3h.1V8l-.1.1v.3c0 .1 0 0 .1 0v-.2c0-.1.2-.1.2-.3.1 0 .1-.1.2 0s.1 0 .1-.1c0-.2 0-.3.2-.3.1 0 .2-.1 0-.1v-.1c0-.1-.1-.3.2-.3h0c.2-.1.1-.3.2-.4H51c0 .1-.3 0-.3.3h0c-.2-.2-.1 0-.1 0h0c-.2 0-.2.1-.1.1v.1l-.4-.1h0c0 .2-.2.3-.1.4-.2.2-.2.4-.4.6 0 0-.1 0-.1.1h.1 0 0c-.1.1-.1.3-.2.3-.1.1-.3.2-.3.3-.1.2-.1.4-.2.5v.1c0 .1-.1.2-.2.3h-.2v.1c.1.1 0 .3-.1.4 0 0-.2.1 0 .1h0v.1.1h-.1v-.1c0-.1-.1-.1-.1-.1v.1c-.1.1 0 .3-.3.3v.1c.1.1 0 .1 0 .2-.1.1-.1.2 0 .3h0v.1h-.1-.2s-.2.1-.1-.1h0c-.1 0-.2 0-.2.1 0 0 0 .1.1.1.1.1.2 0 .2.2h.1-.1c-.1 0-.2.1 0 .1v.1c-.2 0-.2.1-.1.2v.2s0 .1-.1.1h-.3c-.1.1-.2.2-.3.4 0 .3-.1.6-.3.8l-.2.2c.1.2 0 .3-.1.4v.1c.1.2-.2.3-.2.4h0-.1s.1 0 .1.1c0 0 0 .1.1.1H46c-.1 0-.2 0-.2.1.1 0 .2 0 .2.2h0zm.1-2s0-.1-.1-.1l.1.1c-.1.1-.1.2-.2.2v.1h0c.1-.1.2-.2.2-.3h0zm.6-1.3h0l-.1.1v.1.1h0c0-.1 0-.2.1-.3h0zm.1-.2v-.2l-.2.2h.1c0 .1.1.1.1 0h0zm.5-.6v-.3c-.1 0-.1.1-.2.1h0 0 0v.2c0 .1 0 .2.1.2.2 0 .1-.2.1-.2zm-.2 1.8h0 0 .2 0-.2c.1.1 0 .1 0 .1v-.1zm.3-.4c-.1 0-.1 0 0 0h0l.1-.1h0l-.1.1.1.1-.1-.1h0zm.6 2.4h0 0l-.2-.2h0c0 .1-.1.1-.2.2h.4zm-.2.4c.1 0 .1-.1.2-.1h-.2-.2v.1h.2zm0-5.2c0-.1.1-.2.2-.3v-.1l-.1.1c0 .1-.1.1-.1.2v.1h0zm.4 5.2s0-.1 0 0c-.1 0-.1 0 0 0l-.1-.1-.1.1c.1 0 .2.2.2.3 0 0 0 .1.1.1h0c0-.1 0-.2-.1-.4h0zm.1-6.1v-.3h0l-.2.1V9v.1.1l.2-.1h0zm.2 5.7h0c-.2 0-.3.1-.4.2h0l.1.1.3-.3h0zm.2-3l-.1-.1.1.1-.1.1s0-.1.1-.1h0zm.3 2.7h0 0c-.1 0-.2 0-.3.1v.1c.1-.2.2-.2.3-.2h0zm.3.5l-.1-.1h-.1c.1.1.1.1.2.1 0 .1 0 .1 0 0h0zm2.2-.9h0 0c-.1-.1-.2 0-.3 0 0 0 0 .1-.1.1h0c.2 0 .3 0 .4-.1h0zm1.3 7.4V21h0c0 .1-.1.2-.2.3-.1.2 0 .2.2.2h0zm.1-7.3l-.1-.1c0 .1 0 .1-.1.2v.1c.1-.1.2-.1.2-.2h0zm.3 6.1c.1-.2.1-.3.2-.5v-.1c.1-.1.1-.2.2-.4h0 0 0c-.1.1-.1.2-.2.3l-.1.1c0 .2-.1.3-.2.5l.1.1c-.1 0-.1 0 0 0h0zm1.3.4c0-.1 0-.1 0 0v-.2c.2.1.1-.1.2-.1v-.1c.1-.1.1-.3.2-.4h0v-.1c.1-.1 0-.3.2-.3v-.1c0-.1-.2-.1 0-.2v-.1-.1c0-.1.2-.1.1-.3h.1c.1-.1 0-.3.1-.4v-.1h.1 0 0v-.1s-.1-.1-.2 0h-.1V18c0-.1.1-.2.2-.1h.1 0v-.1h.1s.1 0 .1-.1v-.5c0-.1.1-.1.1-.1h.1 0 0l.1-.1c0-.1.1-.2.1-.3l-.1-.1h0 .1.1l-.1-.1H56h0c0-.1.1-.1.2-.1.1-.1 0-.1 0-.1h-.7l-.1.1c0 .1 0 .3-.2.5-.1.1-.1.3-.2.4 0 .1-.2.2 0 .3v.1l-.2.2c0 .1-.1.2-.2.3l-.3.6c-.1.2 0 .5-.3.6-.1.1-.1 0-.2 0h0l-.2.2v.1h.2 0v.1c-.1 0-.1.1-.2.2v.1c-.1.1-.1.2-.2.3 0 .1-.1.2-.1.2-.2-.1 0 .1-.1.1.1 0 .1.1.2.1h.2.2s0 .1.1.1c.4-.4.5-.4.6-.2h0 0zm-.5-7.1h0 0-.2 0 .2 0zm1.5 3v-.1h.1v.2.1c-.1-.1-.1-.1-.1-.2h0zm.9 1.3s0-.1 0 0c-.1 0-.2 0-.2.1v.1l.2-.2zm.8-6.3s0-.1-.1-.1-.1-.1 0-.2v-.1h0 0l-.2.2c.1.1.1.1.1.2l.1.1.1-.1zm.1 1.1c.1-.1.1-.1.2 0h.1c.1 0 .1-.1.2-.1 0 0 .1-.1.2-.1l.1.1v-.1c0-.1-.1-.2-.1-.3a.76.76 0 0 0 .2-.4l.3-.6c.1 0 .1-.1.1-.1.2-.1.2-.1.2-.3v-.1l.2-.1s0-.1.1-.1v.1.1c.1-.1.1-.2.2-.4 0 0 0-.1-.1-.1v-.3c0-.1.1-.4.1-.4.2 0 .2-.1.2-.2 0 0 0-.1.1-.2s.1-.2.1-.3v-.2c.1 0 .1-.1.2-.1 0-.1.2-.1.2-.3.1-.1.1-.1 0-.2h0c-.1 0-.1-.1-.1-.2l.1-.1c0-.1.1-.1.1-.2 0 0 0-.1-.1-.1h0-.1s-.1 0-.1-.1v.1c0 .1-.1.1-.1.2l-.1.1h0 0 .1v-.3h-.1l-.3.3v.1c.1.1 0 .2 0 .2-.1 0-.2.1-.2.3v.1.2.1s0 .1-.1.1l-.1-.1h-.1v.1c.1.2-.1.4-.2.6l-.1.1v-.1h0s0 .1-.1.1v.3h0c.2-.1.2 0 .3.1s-.1.2-.1.4c-.2 0-.2.1-.1.2v.1c-.2 0-.1.1-.1.1v.2.1c0 .1 0 .1-.1.2l-.1-.1H58h0s.1.1.2.1v.1h-.1v.1c.1.1-.1.1-.1.1l-.1-.1h-.1v.1s0 .1.1.1c-.1.1 0 .2-.2.3v.1c.2.1.1.2 0 .3h0 0 0c0-.1-.1-.1-.1-.2-.1-.2-.2 0-.2 0h-.1v.1c.1 0 .1.1 0 .1v.4h0zm.5-3c0-.1 0-.1-.1-.2-.1 0-.2 0-.3.1.1.1.1.1.2.1h0c.1.2.2.1.2 0h0zm-.2.7v-.1-.1s0 .1-.1.1 0 0 .1.1l-.1.2c0-.1 0-.2.1-.2h0zm1.2-2.5h0c-.1-.1-.1 0 0 0-.1 0 0 .1 0 .2v-.2h0zm.3-.6h0l.2-.1h0c-.1 0-.2 0-.2.1h0 0z"/><path d="M61 23.8c-.2-.2-.5-.3-.6-.5-.1-.1-.1-.2-.1-.2 0-.1-.1-.2-.1-.2-.2-.2-.2-.4-.2-.5-.1-.2-.2-.4-.2-.6-.1-.2-.1-.2 0-.4 0-.1.1-.2.1-.3a.55.55 0 0 1 .3-.5c.1 0 .2-.1.2-.2.1-.3.3-.6.5-.9 0-.1.1-.1.1-.2 0-.3.2-.5.3-.7.1-.1.1-.3.2-.3 0-.1.2-.1.2-.2s-.1-.2.1-.3c.1 0 .1-.1.1-.2s.1-.1.2-.1 0 0 0-.1.1-.2.1-.3c.2-.3.3-.6.5-.9.4-.6.9-1.2 1.4-1.8.2-.2.4-.5.6-.7.3-.3.6-.8.9-1.1.1-.1.2-.3.5-.3.1 0 .1 0 .2-.1v-.1c-.1-.1.1-.2.1-.3.2-.1.3-.3.5-.4.2-.3.5-.6.7-.8s.5-.5.7-.8c.2-.2.3-.4.5-.6.1-.1.1-.2.1-.3l.1-.2c.3-.2.6-.5.9-.8s.6-.6.9-.8c.2-.1.4-.1.6-.1.6-.1 1.1 0 1.6.2.2.1.5.3.7.4h0c0 .4.4.3.6.5.1 0 .3 0 .3-.1 0 0 .1-.1.1 0s.1.1.1.1.2-.1.3-.2.2-.1.3.1c0 .1 0 .1.2.1.2-.1.5-.2.8-.2h.1c0-.1.1-.1.2-.1 0 .1.1.2.1.3h0 0 0c.1-.4.1-.4.4-.4.7-.1 1.3-.3 1.9-.4a3.21 3.21 0 0 1 1.7.2c.1.1.3.1.4.1.3.1.6.3.6.7.1-.3.2-.2.2-.2.3.4.4.9.2 1.3h0 0c-.1.4-.4.7-.8.8-.2 0-.4.1-.5.2-.3.2-.7.2-1 .1h-.1c-.3.1-.5.1-.8.1h-1c-.4 0-.8.1-1.1.1h-.2c-.2-.1-.5-.1-.8.1-.2.1-.4 0-.6 0-.2.1-.4.1-.6.1-.4 0-.7 0-1.1.1-.3 0-.6.1-.9.1h-.3c-.1 0-.3 0-.4.1-.3.4-.6.7-.9 1l-1 .9v.1h.2c.1 0 .1 0 .2.1 0 .1.1 0 .1 0 .1-.3.2-.3.4-.2h.2l.6-.1h.1c.1.2.4.2.6.2.3.1.6.2.9.5 0 0 0 .1.1.2.1.2.1.3.2.5.2.2.2.6.1.8l-.3.8a1.38 1.38 0 0 1-.4.3c-.4.1-.9.2-1.3.2h-.3c-.5 0-1.1 0-1.6-.1-.5 0-.9 0-1.4-.1-.2 0-.4-.1-.5-.2-.3-.1-.4-.1-.6 0-.2.3-.4.6-.7.9-.1.2-.3.4-.4.6l-.9 1.3c-.1.2-.2.3-.3.4v.1h.2c.9-.2 1.7-.3 2.6-.6.3-.1.6-.2 1-.2.5 0 .9-.2 1.4-.3.2-.1.4-.1.6-.1h.3.1c.1-.2.2-.2.3-.1h.1c.2-.2.4-.2.7-.2.3-.1.6-.1.9-.2.4-.1.8-.1 1.3-.2.3 0 .7-.1 1-.1.4-.1.9-.1 1.3-.2.2-.1.4 0 .6-.1.1-.1.3-.1.5-.1l.1.1.1.1c.2-.1.3.1.4.1.1.1.3.2.4.3.2.1.3.2.3.4l.1.1c.2-.1.2.1.2.2v.2c0 .1.1.2.1.2-.1.1-.1.1-.2.1-.2-.1-.2.1-.3.2 0 .1-.1.1-.1.2-.1.1-.3.2.1.3h0 0v.1c-.2 0-.3.1-.4.2-.2.1-.3.1-.5.1H78c-.2.3-.2.1-.2-.1-.1-.1-.2-.2-.3-.2v-.1-.1.1.1c-.1.1-.2.2-.2.3-.1.2-.1.2-.3.3-.3.1-.6.1-.9.2h-.3l-1.4.3c-.3 0-.6 0-.9.1-.3 0-.6.1-.9.2-.2.1-.4.1-.6.1l-1.3.3-1 .3c-.4.2-.8.2-1.2.4l-.8.3c-.2.1-.4.3-.7.2h-.1c-.5.2-1 .4-1.5.5h-.1c-.5.3-1.1.4-1.7.5-.1 0-.2 0-.3.1-.4.1-.9.2-1.3.2-.6.1-.8.1-1-.1zm.6-4.8c0-.1 0-.1 0 0-.1-.1-.1 0 0 0-.1 0-.1 0 0 0h0 0zm1.6-.9c0-.1 0-.2-.1-.2H63h0v.2h.2 0zm.7-1.2c0-.1-.1-.4-.2-.4s-.1.1-.2.2v.3h.1c.2 0 .2 0 .3-.1h0zm12.8.7h0c-.1-.1-.1 0 0 0l-.1.1s.1 0 .1-.1h0zM7.8 71.8c-.2-.1-.4-.2-.5-.3s-.3-.2-.3-.3c0-.4-.1-.8-.4-1.1-.1 0-.1-.1-.1-.1-.3-.3.1-.9-.4-1.1 0-.3-.2-.7-.2-1.2.1-.4.2-.8.4-1.2 0-.1.1-.3.1-.5 0-.4.1-.8.4-1.1.8-.9 1.5-1.8 2.2-2.8l.3-.6c.1-.1.1-.1.1-.2.2-.3.7-.4.7-.9 0-.3.4-.6.6-1 .1-.1.1-.1.1-.2.4-.3.7-.7.9-1.1.1-.1.3-.3.4-.2.4.1.4-.2.6-.4a7.55 7.55 0 0 1 1.1-1.4c.1-.1.2-.3.3-.5.3-.8.8-1.5 1.3-2.1.6-.6 1-1.5 1.8-2.1.3-.3.5-.6.6-1 .1-.1.2-.3.3-.4.3-.4.5-.8.8-1.1l1.2-1.4.2-.2c.3-.6.6-1.1 1.1-1.5a6.42 6.42 0 0 0 1-1.3c.2-.4.5-.6.7-1 .3-.4.6-.7.5-1.2.1 0 .1 0 .2-.1.3.2.3 0 .4-.2.3-.4.5-.8.8-1.2.1-.1.1-.2.2-.2.3 0 .5-.2.6-.4.1-.3.3-.2.4-.2s.1.1.1.2-.1.2-.1.3c.1.1.2.2.2.4.1-.1.2-.1.2-.3.1-.1.2-.3.4-.2s.3 0 .3-.2c.1-.3.3-.2.3 0 .2.3.3.6.5.9.1.2.1.3.4.2.1 0 .2 0 .2.1 0 .4.6.2.7.5h.2c.3-.1.4 0 .3.3 0 .1-.2.3-.2.3 0 .1 0 .4.1.4.2.2.2.5.1.7-.1.3-.1.4.2.5.3.2.3.3.3.6-.1.6-.3 1.3-.6 1.8-.4.7-.7 1.4-1 2.2-.1.4-.3.9-.5 1.3l-1.5 4.1c-.1.1 0 .1-.1.1-.1.1-.2.2-.4.3.2.1.1.3 0 .5 0 .1 0 .3.1.3h.4l1.3-1.2c.4-.3.6-.6 1-1 .2-.2.4-.5.6-.7a5.73 5.73 0 0 1 1.1-1.1c.7-.6 1.4-1.2 2-1.9.1-.2.4-.2.6-.4.3-.3.6-.6.9-1l1-.9c.4-.3 1-.5 1.3-1l.1-.1c.8-.4 1.1-1.1 1.7-1.6.2-.2.3-.3.6-.4.2-.2.5-.4.7-.6.1-.1.3-.2.4-.3a.78.78 0 0 0 .4-.4c0-.1.1-.2.2-.3.8-.5 1.6-1.1 2.2-1.9.1-.1.1-.2.2-.2.5 0 .6-.4.7-.8 0-.1 0-.3.3-.1 0 0 .1.1.1 0 .4-.2.8-.3 1.1-.7v-.1c.4-.5.5-.5.8.1v.1c.1.1.1.2.2.4l.4-.4v-.2h.3c.1.2.2.4.5.2.1 0 .1 0 .1.1.1 0 0 .1 0 .1l-.1.1c-.1 0-.3 0-.2.3a.55.55 0 0 0 .5.3c.3-.2.5-.2.8 0 .2.1.2.2.1.3-.2.4 0 .7.2 1 .1.1.1.2.1.4-.1.6-.1 1.3 0 1.9.1.5.1.9.1 1.4 0 .1 0 .2-.1.3-.3.8-.5 1.6-.5 2.5 0 .1 0 .3-.1.3-.4 0-.2.3-.2.5.1.4.1.9 0 1.3 0 .2-.1.4-.2.6-.2.2-.4.3-.2.5v.1h0c-.3.7-.3 1.5-.6 2.2s-.5 1.4-.9 2c-.2.4-.4.8-.7 1.2-.3.5-.5 1.1-.7 1.7 0 .1 0 .1-.1.1l-2.5 4.7c-.7 1.3-1.4 2.6-1.9 4 .6.3.6.6.6.9 0 .1 0 .1.1.2.4.2.2.5 0 .7-.3.3-.6.7-.7 1.2-.2.1-.2.3-.4.3-.3.1-.6.4-.8.6s-.1.6-.5.6c-.2.4-.6.6-1 .8-.1.2-.4.3-.4.5-.1.3-.1.2-.3.2-.3 0-.1-.1-.1-.2l.1-.1c-.1 0-.1 0-.1.1-.2.1-.4.3-.5.5-.1.1-.3.2-.5.2-.2-.2-.3-.5-.2-.8l.1-.1c0-.1-.1-.1-.1-.2l-.1.1c0 .3-.2.3-.4.4-.3.1-.3.1-.4-.2-.3-.4-.1-1 .3-1.3.1-.1.1-.3 0-.4s-.2-.2-.3 0c-.1.1-.3.2-.2-.1 0-.3-.3-.2-.3-.3-.1-.1.3-.2 0-.5-.2-.1-.2-.4-.5-.3-.2.1-.6-.4-.5-.6s0-.3-.2-.5c-.3-.2-.4-.5-.2-.8 0 0 0-.1.1-.1.6-.9 1-1.9 1.7-2.7.5-.7.9-1.4 1.2-2.1l.6-1.2c.4-.6.6-1.2.7-1.9 0-.1.1-.2.2-.3l2.5-4.9.9-1.8c0-.1.1-.2.1-.3.1-.2.1-.3.1-.5-.1.1-.3.2-.4.3-.4.2-.6.7-1 1s-.6.7-1 1.1c-.5.4-1 .9-1.5 1.4l-.2.2-1.4 1.6-1.7 1.7-1.1 1.1-.6.6c-.2.2-.4.4-.7.6-.2.1-.4.3-.5.5-.7.8-1.5 1.5-2.4 2.1-.2.1-.4.3-.6.4-.1.1-.2.2-.4.3-1 .3-1.8 1.1-2.8 1.4-.8.3-1.5.8-2.3 1.1-.1.1-.1.1-.2.1-.4-.1-.8-.1-1.1 0l-.1-.1-.7-1.3c-.1-.2-.1-.5-.2-.6-.5-.2-.6-.6-.7-1.1-.1-.1-.2-.2-.3-.2-.4 0-.6-.4-.4-.7.1-.2.1-.2 0-.3-.1-.2-.4-.4-.4-.8 0-.1-.2-.1-.3 0l-1.7 2.4c-.2.3-.4.6-.7.8l-1.1 1.7c-.8 1.3-1.8 2.6-2.8 3.7-.3.3-.7.6-1.1.9-.1.1-.2.1-.3.1-.3 0-.6 0-.9.1-1 .2-1.3.1-1.6-.1zm17.6-27h0c-.1-.1-.1 0-.1 0-.1 0 0 .1 0 .1.1 0 .1-.1.1-.1zm6.3 12.8h0c-.1-.1-.2 0-.3.1v.1c.1-.1.2-.2.3-.2zm1.7 13.2l.3-.3v.1c-.1 0-.2.2-.3.2h0 0zm4.1-7h0c-.1-.1-.1 0-.2 0 .1.1.1.1.1.2 0-.1 0-.1.1-.2h0zm.7-1.4c0-.1 0-.2.1-.3-.1.2-.2.3-.2.3v.1s.1 0 .1-.1h0zm.7-1.5c0-.1 0-.1 0 0-.1 0-.2 0-.2.1s.1.1.1.2c0-.1.1-.2.1-.3h0zm.5-.7c.2-.6.5-1.1.8-1.7v-.2c-.1.1-.2.1-.2.1-.1.2-.3.5-.4.7-.1.1 0 .5-.3.2 0 .1-.1.1-.1.2 0 .2 0 .4.1.6h-.1c0 .1.1.1.1.2l.1-.1zm7-6.5c-.1 0-.1 0 0 0h-.2.2c-.1.1 0 0 0 0h0z"/><path d="M48.9 70c-.1.2-.1.3-.4.2h-.1c.5-.3-.1-.3 0-.6s-.1-.6-.1-.9c-.2-.5-.1-1 .1-1.5.2-.3.3-.7.3-1.2.1-.5.3-1 .5-1.5.1-.1.2-.3.2-.5.2-.7.4-1.3.7-2 .2-1 .6-1.9 1-2.8.2-.3.3-.6.4-1 .1 0 .2.1.2.2v-.1l-.3-.1c.2-.4.2-1 .7-1.1.1 0 0-.1.1-.3-.1-.5-.1-.6.3-.8.2-.1.5-.3.3-.6l.1-.3c.3 0 .3-.2.3-.5 0-.2.1-.3.1-.5.4-.7.7-1.4 1-2.1a9.13 9.13 0 0 1 .8-1.3c.1 0 .2-.1.2-.2.1-.5.3-1 .7-1.4.4-.7.8-1.3 1.3-1.8.1-.3.3-.6.5-.9.1-.1.2-.3.4-.4.1-.2.2-.3.3-.5.1-.4.3-.7.6-1l1.6-2c.3-.4.6-.8 1-1.1.4-.4 1.1-.6 1.7-.4l.3.1c.5.1 1.1.2 1.4.8.3.4.6.7.9 1 .5.4.8 1 .7 1.7-.1.6-.3 1.3-.6 1.8-.1.2-.1.3-.3.4l-.2.1-1.6 1.8c-.5.6-.9 1.3-1.5 1.9l-1.8 2.7a15.26 15.26 0 0 0-1.1 1.6c-.2.5-.5 1-.8 1.5l-.7 1.3c-.2.3-.3.7-.4 1s-.3.5-.4.8c-.4.4-.5 1-1 1.3-.1.1 0 .4 0 .7 0 .2-.1.4-.2.6-.5 1-1 2-1.3 3.1l-.6.9c-.2.1-.3.4-.2.6 0 .2 0 .4-.1.6s-.2.3-.3.5c-.1.3-.1.6-.5.4a.76.76 0 0 0-.2.4c-.1.5-.5.9-.9 1.2-.1 0-.1.1-.2.1-.4.5-1 .5-1.5.7H50c-.2-.1-.4-.3-.7-.2h-.1a1.38 1.38 0 0 1-.3-.4zm2-5.8c.1-.1 0-.1-.1-.2-.1 0-.3.1-.3.2.1.1.1.2.2.2l.2-.2zM61 79.6c-.2-.2-.5-.3-.7-.5l-.6-.3c-.4-.1-.7-.3-.9-.6s-.3-.5-.5-.7c-.3-.2-.3-.4 0-.6.1-.2.1-.4 0-.5-.3-.3-.3-.7-.5-.9a.37.37 0 0 1 0-.6h0c.2-.3.3-.7.4-1.1.1-.2.2-.4.3-.5.4-.5.3-1.3.7-1.9.1-.3.2-.7.3-1.1l1.3-2.9c.2-.7.5-1.3.7-1.9.4-.8.7-1.5 1-2.3l1.3-2.5c.1-.4.3-.8.5-1.2l2.1-4.3c.7-1.1 1.3-2.4 1.9-3.6l1.6-2.6c.1-.1.1-.2.1-.3.4-.8.8-1.6 1.3-2.3.3-.6.8-1 1-1.7.1-.3.3-.5.5-.7l1.7-2.5c.1-.2.3-.5.4-.7l.8-1.3c.1-.1.1-.2.2-.3l.6-.8c.1-.1.1-.1.1-.2.5-.9 1.2-1.6 1.7-2.5l1.2-1.9c.3-.4.5-.9 1.1-1.1l.3-.3c.1-.1.2-.2.3-.2.2-.1.5-.1.7-.1.1 0 .3-.1.3 0 .3.3.8.3 1.2.5.1 0 .2.1.3.2s.2.1.3.2c.7.3 1.3.7 1.8 1.3.2.1.2.3.3.5l.3 1.4c0 .8-.2 1.5-.6 2.1-.3.5-.7 1-1.1 1.5l-1.4 1.7-1.1 1.1-1.1 1.5c-.2.3-.4.6-.7.9l-.9 1.1-2 3.1c-.3.3-.5.8-.7 1.1-.3.5-.7.9-1 1.4-.2.2-.3.5-.4.7-.1.3-.3.5-.5.8l-1.5 2.7c-.4.6-.8 1.3-1.1 1.9-.5.7-.9 1.5-1.3 2.3-.3.5-.5.9-.8 1.5-.3.5-.3.9-.5 1.3l-1.3 2.5c-.1.3-.2.5-.3.7l-.9 2.2c-.1.2-.1.3.1.5.3.3.3.5-.1.8-.3.1-.7.3-.9.5-.1.1-.1.1-.1.2h.1l2.1-1.1 2.7-1.1c.3-.2.7-.3 1.1-.3.1 0 .1 0 .2-.1.6-.4 1.2-.7 1.9-1 .5-.3 1.1-.5 1.7-.7a9.83 9.83 0 0 1 1.6-.5c.7-.1 1.5-.4 2.1-.7.5-.3 1.1-.5 1.7-.5.2-.1.4-.3.6-.3l.8-.3c.6-.1 1.2-.3 1.9-.5.5-.3 1.1-.4 1.6-.3.1.1.1 0 .3-.1.2-.4.6-.5 1-.3 0 0 .1 0 .1.1.3.1.3 0 .5-.3.2-.6.4-1.3.7-1.9 0-.1.3-.2.3-.2.4.3.9.1 1.3.2.2.1.3.1.4.3.2.3.6.4.7.8 0 .1.1.1.2.1.2 0 .3.1.1.2 0 0 0 .2.1.3.2.1.3.2.5.3.1 0 .3 0 .3.1.1.1.1.2.1.3-.6.2-.7.2-.8.2-.3.1-.5.3-.3.5.3.3-.1.2-.1.3h-.3c-.3-.1-.5 0-.4.3.1.4 0 .7-.1 1.1-.1.3.3.2.3.4.1.1.1.1.2.1-.1 0-.1.1-.2.1-.2 0-.5 0-.7-.1 0 0 .1 0 .1-.1h0c.1-.1.1-.2.1-.2 0-.1.1-.3.1-.4-.1 0-.1-.1-.1 0s-.1.2-.2.4c.1.1.1.2.1.3-.4-.1-.8-.2-1.2-.1-.3.1-.2-.2-.3-.4.2.2.4 0 .5-.1 0-.2-.1-.4-.3-.4h-.1c0-.3-.3-.3-.5-.4s-.5-.1-.7.1c-.2.1-.4.1-.6.1.1-.1.2-.3.3-.3.3 0 .3-.3.3-.5-.1 0-.1-.1-.1-.1 0 .1 0 .1-.1.1-.1.1-.1.3-.3.3-.1-.1-.1-.3-.3-.1-.1.1.1.2.1.3.1.1.1.3.1.4-.3.1-.6.3-.5.7 0 .2-.1.4-.1.6-.1.1 0 .1.1.1.3.1.5.2.8.2 0 .1.1.1.2.3v-.1c-.1.1-.3.1-.5.1-.2-.1-.3.1-.3.2-.2.3-.5.6-.8.7-.2-.2-.3-.2-.3-.4-.2-.2-.5-.2-.7 0l-.1.1-.2.2c-.5 0-.7.3-1.1.3-.5.1-.5-.1-.5-.3 0-.1-.1-.1-.1-.2l-.2.2c.1.2.2.4.3.7l.1.1h-.2c-.5-.1-.5-.1-.8.5-.1.2-.2.3-.5.3-.1 0-.2.1-.4.1-.5.3-1.1.5-1.7.7-.1 0-.3.1-.5.3-.4.3-.9.5-1.4.5-.3.1-.6.2-.8.5-.4.4-1 .7-1.5.9-.9.3-1.8.7-2.6 1.1L71 74h-.2c-.9.6-1.8 1.2-2.7 1.6-.3.2-.5.3-.7.5-.4.2-.8.4-1.1.7-.7.6-1.4 1.1-2.3 1.4l-2.2 1.2c-.2.1-.4.2-.5.3-.2-.1-.3-.1-.3-.1zm1.8-7.7s.1-.1 0 0c.1-.1.1-.1 0 0 .2-.1.4-.1.5-.2v-.1c-.1.1-.3.1-.5.3 0-.1 0-.1 0 0-.2 0-.3.1-.4.1 0 0 0 .1.1.1h0c0-.1.2-.2.3-.2zm1.1-7.3c0-.1-.1-.1 0 0h-.2v.1c.1 0 .2-.1.2-.1zm.4 6.6h0a.45.45 0 0 0-.5 0v.1c.2 0 .3 0 .5-.1zm.1-1.1c.1-.1.1-.3.2-.4.2-.2.1-.3-.1-.4s-.3-.2-.5-.3c.1.1.1.3.1.5.1.2 0 .3.1.5 0 .1.1.1.1.2l.1-.1zm.4-2.8c-.1-.1-.1-.1-.1-.2-.1 0-.1.1-.3.1.1.1.1.2.1.2s.2 0 .3-.1h0zm.5 3.3c.1-.1 0-.1 0 0H65c-.1.1-.1.1-.1.2l.1.1c0-.1.1-.2.3-.3h0zm2.1-1.7h0c.3-.2.4-.6.7-.6.1 0 .3-.1.4-.1 0 0 .1 0 .1.1h0v.1c-.3.2-.7.4-1.2.5.1.2.1.1 0 0h0zm1.5-1c.1-.1.2-.1.3-.1.1-.1.1.1.3.2-.1.1-.2.2-.3.2-.2 0-.3-.1-.3-.3h0zm.9-.2c.1.1.3.1.5.1l-.5-.1h0zm.8-.7c.3-.2.7-.3.9-.5.1 0 .2-.1.3 0 .1 0 .1 0 .2.1.1 0 0 .1-.1.1-.3.2-.5.5-1 .5s-.6.1-.7.6c0-.6 0-.6.4-.8h0zm1.7-.7c.1-.1.1-.1 0 0 .4-.2.6-.4 1-.5h.2v.2c-.1.1-.2.3-.3.3h-.9 0zM76 65c.1-.1.1-.1 0 0h.2-.2 0zm.4-.4l.2-.2c.1 0 .1-.1.3-.1 0 0 .1 0 .1.1h0v.1c-.1 0-.2.1-.3.1h-.3zm1.3-.6c.6-.3 1.2-.5 1.8-.7.1 0 .2.1.4.1-.1.1-.1.2-.2.2-.3.1-.6.5-1.1.4l-.8.3c-.1.1-.3.1-.5.1a.78.78 0 0 1 .4-.4h0zm2.4-.6c0-.1 0-.1 0 0 .4-.3.8-.4 1.2-.6v.1c.1 0 .3-.1.4-.1.1-.4.5-.3.8-.4.4 0 .7-.3 1.1-.1.1 0 .1.1.1.1-.1 0-.1.1-.1.1l-2.9.9c-.1.1-.3.1-.4.1-.2 0-.2-.1-.2-.1h0zm4.5-1.3c0-.1 0-.1 0 0 .5-.5 1.1-.7 1.7-.8.1-.1.3-.1.4-.1h.2c0 .1 0 .1-.1.2-.8.2-1.4.5-2.2.7h0zm1.2 4.3c-.1 0-.2-.1-.3-.1-.1.1-.3.2-.3.3s0 .1.1.1a.55.55 0 0 1 .5-.3h0zm.6-2.2c-.1-.1-.2-.1-.3-.1l-.3.3c.1.1.1.1.2.1.2-.1.3-.2.4-.3h0zm-.2-.4c-.1 0-.1 0 0 0-.2-.1-.2 0-.2 0h.2c-.1.1-.1 0 0 0h0zm-.1 2.2h0-.2c0 .1.1.1.1.3 0-.2.1-.3.1-.3h0zm1.2-.8l.3-.3v.1c0 .3-.1.3-.3.3v-.1zm.5 1h0c.3.1.6-.2.9-.5.2.5.2.5-.2.6-.2.1-.5.2-.7-.1h0zm.8-.5c-.2 0-.3 0-.5-.1-.1-.1-.1-.1-.2-.1.1-.1.1-.1.2-.1.3 0 .6-.1.7.3-.1 0-.1-.1-.2 0h0zm-.2-1.1h0c.2 0 .3 0 .4.1l-.4-.1c.1.1.1.1 0 0h0zm.4.1c.1-.1.2-.1.3-.1 0 .2-.1.4-.1.6-.2-.1-.1-.3-.2-.5h0zM90 66h.2c.1 0 .1 0 .2.1-.1 0-.1.1-.3.1L90 66z"/><path d="M86.3 79.6c-.2-.2-.5-.3-.7-.5l-.6-.3c-.4-.1-.7-.3-.9-.6s-.3-.5-.5-.7c-.3-.2-.3-.4 0-.6.1-.2.1-.4 0-.5-.3-.3-.3-.7-.5-.9a.37.37 0 0 1 0-.6h0c.2-.3.3-.7.4-1.1.1-.2.2-.4.3-.5.4-.5.3-1.3.7-1.9.1-.3.2-.7.3-1.1l1.3-2.9c.2-.7.5-1.3.7-1.9.4-.8.7-1.5 1-2.3l1.3-2.5c.1-.4.3-.8.5-1.2l2.1-4.3c.7-1.1 1.3-2.4 1.9-3.6l1.6-2.6c.1-.1.1-.2.1-.3.4-.8.8-1.6 1.3-2.3.3-.6.8-1 1-1.7.1-.3.3-.5.5-.7l1.7-2.5c.1-.2.3-.5.4-.7l.8-1.3c.1-.1.1-.2.2-.3l.6-.8c.1-.1.1-.1.1-.2.5-.9 1.2-1.6 1.7-2.5l1.2-1.9c.3-.4.5-.9 1.1-1.1l.3-.3c.1-.1.2-.2.3-.2.2-.1.5-.1.7-.1.1 0 .3-.1.3 0 .3.3.8.3 1.2.5.1 0 .2.1.3.2s.2.1.3.2c.7.3 1.3.7 1.8 1.3.2.1.2.3.3.5l.3 1.4c0 .8-.2 1.5-.6 2.1-.3.5-.7 1-1.1 1.5l-1.4 1.7-1.1 1.1-1.1 1.5c-.2.3-.4.6-.7.9l-.9 1.1-2 3.1c-.3.3-.5.8-.7 1.1-.3.5-.7.9-1 1.4-.2.2-.3.5-.4.7-.1.3-.3.5-.5.8l-1.5 2.7c-.4.6-.8 1.3-1.1 1.9-.5.7-.9 1.5-1.3 2.3-.3.5-.5.9-.8 1.5-.3.5-.3.9-.5 1.3l-1.3 2.5c-.1.3-.2.5-.3.7l-.9 2.2c-.1.2-.1.3.1.5.3.3.3.5-.1.8-.3.1-.7.3-.9.5-.1.1-.1.1-.1.2h.1l2.1-1.1 2.7-1.1c.3-.2.7-.3 1.1-.3.1 0 .1 0 .2-.1.6-.4 1.2-.7 1.9-1 .5-.3 1.1-.5 1.7-.7a9.83 9.83 0 0 1 1.6-.5c.7-.1 1.5-.4 2.1-.7.5-.3 1.1-.5 1.7-.5.2-.1.4-.3.6-.3l.8-.3c.6-.1 1.2-.3 1.9-.5.5-.3 1.1-.4 1.6-.3.1.1.1 0 .3-.1.2-.4.6-.5.9-.3 0 0 .1 0 .1.1.3.1.3 0 .5-.3.2-.6.4-1.3.7-1.9 0-.1.3-.2.3-.2.4.3.9.1 1.3.2.2.1.3.1.4.3.2.3.6.4.7.8 0 .1.1.1.2.1.2 0 .3.1.1.2 0 0 0 .2.1.3.2.1.3.2.5.3.1 0 .3 0 .3.1.1.1.1.2.1.3-.1.1-.2.1-.3.1-.3.1-.5.3-.3.5.3.3-.1.2-.1.3h-.3c-.3-.1-.5 0-.4.3.1.4 0 .7-.1 1.1-.1.3.3.2.3.4.1.1.1.1.2.1-.1 0-.1.1-.2.1-.2 0-.5 0-.7-.1 0 0 .1 0 .1-.1h0c.1-.1.1-.2.1-.2 0-.1.1-.3.1-.4-.1 0-.1-.1-.1 0s-.1.2-.2.4c.1.1.1.2.1.3-.4-.1-.8-.2-1.2-.1-.3.1-.2-.2-.3-.4.2.2.4 0 .5-.1 0-.2-.1-.4-.3-.4h-.1c0-.3-.3-.3-.5-.4s-.5-.1-.7.1c-.2.1-.4.1-.6.1.1-.1.2-.3.3-.3.3 0 .3-.3.3-.5-.1 0-.1-.1-.1-.1 0 .1 0 .1-.1.1-.1.1-.1.3-.3.3-.1-.1-.1-.3-.3-.1-.1.1.1.2.1.3.1.1.1.3.1.4-.3.1-.6.3-.5.7 0 .2-.1.4-.1.6-.1.1 0 .1.1.1.3.1.5.2.8.2 0 .1.1.1.2.3v-.1c-.1.1-.3.1-.5.1-.2-.1-.3.1-.3.2-.2.3-.5.6-.8.7-.2.1-.3.1-.3-.1-.2-.2-.5-.2-.7 0l-.1.1-.2.2c-.5 0-.7.3-1.1.3-.5.1-.5-.1-.5-.3 0-.1-.1-.1-.1-.2l-.2.2c.1.2.2.4.3.7l.1.1h-.2c-.5-.1-.5-.1-.8.5-.1.2-.2.3-.5.3-.1 0-.2.1-.4.1-.5.3-1.1.5-1.7.7-.1 0-.3.1-.5.3-.4.3-.9.5-1.4.5-.3.1-.6.2-.8.5-.4.4-1 .7-1.5.9-.9.3-1.8.7-2.6 1.1l-2.1 1-.5-.2c-.9.6-1.8 1.2-2.7 1.6-.3.2-.5.3-.7.5-.4.2-.8.4-1.1.7-.7.6-1.4 1.1-2.3 1.4l-2.2 1.2c-.2.1-.4.2-.5.3-.3-.1-.3-.1-.4-.1zm1.8-7.7c.1 0 .1-.1 0 0 .1-.1.1-.1 0 0 .2-.1.4-.1.5-.2v-.1c-.1.1-.3.1-.5.3 0-.1 0-.1 0 0-.2 0-.3.1-.4.1 0 0 0 .1.1.1h0c.1-.1.3-.2.3-.2zm1.2-7.3c0-.1-.1-.1 0 0h-.2v.1c.1 0 .1-.1.2-.1zm.3 6.6h0a.45.45 0 0 0-.5 0v.1c.2 0 .3 0 .5-.1zm.1-1.1c.1-.1.1-.3.2-.4.2-.2.1-.3-.1-.4s-.3-.2-.5-.3c.1.1.1.3.1.5.1.2 0 .3.1.5 0 .1.1.1.1.2l.1-.1zm.4-2.8c-.1-.1-.1-.1-.1-.2-.1 0-.1.1-.3.1.1.1.1.2.1.2s.2 0 .3-.1h0zm.5 3.3c.1-.1 0-.1 0 0h-.3c-.1.1-.1.1-.1.2l.1.1c0-.1.2-.2.3-.3h0zm2.1-1.7h0c.3-.2.4-.6.7-.6.1 0 .3-.1.4-.1 0 0 .1 0 .1.1h0v.1c-.3.2-.7.4-1.2.5.2.2.1.1 0 0h0zm1.5-1c.1-.1.2-.1.3-.1.1-.1.1.1.3.2-.1.1-.2.2-.3.2-.2 0-.3-.1-.3-.3h0zm1-.2c.1.1.3.1.5.1l-.5-.1h0zm.8-.7c.3-.2.7-.3.9-.5.1 0 .2-.1.3 0 .1 0 .1 0 .2.1.1 0 0 .1-.1.1-.3.2-.5.5-1 .5s-.6.1-.7.6c-.1-.6-.1-.6.4-.8h0zm1.6-.7c.1-.1.1-.1 0 0 .4-.2.6-.4 1-.5h.2v.2c-.1.1-.2.3-.3.3h-.9 0zm3.7-1.3c.1-.1.1-.1 0 0h.2-.2 0zm.4-.4l.2-.2c.1 0 .1-.1.3-.1 0 0 .1 0 .1.1h0v.1c-.1 0-.2.1-.3.1h-.3zm1.3-.6c.6-.3 1.2-.5 1.8-.7.1 0 .2.1.4.1-.1.1-.1.2-.2.2-.3.1-.6.5-1.1.4l-.8.3c-.1.1-.3.1-.5.1a.78.78 0 0 1 .4-.4h0zm2.4-.6c0-.1 0-.1 0 0 .4-.3.8-.4 1.2-.6v.1c.1 0 .3-.1.4-.1.1-.4.5-.3.8-.4.4 0 .7-.3 1.1-.1.1 0 .1.1.1.1-.1 0-.1.1-.1.1l-2.9.9c-.1.1-.3.1-.4.1s-.1-.1-.2-.1h0zm4.5-1.3c0-.1 0-.1 0 0 .5-.5 1.1-.7 1.7-.8.1-.1.3-.1.4-.1h.2c0 .1 0 .1-.1.2l-2.2.7h0zm1.2 4.3c-.1 0-.2-.1-.3-.1-.1.1-.3.2-.3.3s0 .1.1.1c.2-.2.3-.3.5-.3h0zm.7-2.2c-.1-.1-.2-.1-.3-.1l-.3.3c.1.1.1.1.2.1.1-.1.3-.2.4-.3h0zm-.3-.4c-.1 0-.1 0 0 0-.2-.1-.2 0-.2 0h.2c-.1.1-.1 0 0 0h0zm-.1 2.2h0-.2c0 .1.1.1.1.3.1-.2.1-.3.1-.3h0zm1.2-.8l.3-.3v.1c0 .3-.1.3-.3.3v-.1zm.6 1h0c.3.1.6-.2.9-.5.2.5.2.5-.2.6-.2.1-.5.2-.7-.1h0zm.7-.5c-.2 0-.3 0-.5-.1-.1-.1-.1-.1-.2-.1.1-.1.1-.1.2-.1.3 0 .6-.1.7.3 0 0-.1-.1-.2 0h0zm-.1-1.1h0c.2 0 .3 0 .4.1l-.4-.1c.1.1 0 .1 0 0h0zm.4.1c.1-.1.2-.1.3-.1-.1.2-.1.3-.2.5-.2 0-.1-.2-.1-.4h0zm1.2 1.3h.2c.1 0 .1 0 .2.1-.1 0-.1.1-.3.1l-.1-.2zm6.9 6.5c-.4-.2-.9-.3-1.1-.7-.1-.2-.3-.2-.3-.4a1.38 1.38 0 0 1-.3-.4c-.3-.1-.4-.4-.5-.7a4.67 4.67 0 0 1-.5-1c-.2-.2-.3-.4-.1-.6v-.6c0-.3.1-.7.4-.9.2-.1.2-.2.2-.5.1-.6.3-1.2.6-1.7a.76.76 0 0 1 .2-.4c0-.5.2-.9.3-1.3.1-.2.1-.5.3-.6 0-.2.3-.3.3-.4 0-.2-.2-.3 0-.4.1-.1.1-.3.1-.3 0-.2 0-.3.2-.2.1 0 .1-.1 0-.2 0-.2 0-.4.1-.6l.6-1.6a22.11 22.11 0 0 1 1.8-3.4c.3-.4.5-.9.7-1.4l1.2-2.2c.2-.3.3-.6.7-.6.1 0 .2-.1.2-.2s0-.1-.1-.2c-.2-.2 0-.4 0-.5.4-.2.5-.6.7-.9.3-.5.7-1.1.9-1.6l.9-1.5.6-1.1c.2-.1.2-.4.1-.5 0-.1 0-.3.1-.3.4-.5.8-1.1 1.2-1.7l1.3-1.7c.3-.2.6-.4 1-.4.9-.3 1.9-.3 2.8-.1.4.1.9.3 1.3.5h.1c.2.6.7.4 1.1.7.3 0 .4 0 .5-.3.1-.1.2-.3.3 0 0 .2.1.2.3 0s.4-.2.5-.4c.2-.2.2-.2.5.1.1.2.1.2.3.1.4-.3.8-.5 1.2-.6h.2l.3-.3c0 .1.2.2.2.4.1 0 0 .1.1.1v.1l.1-.1c.1-.6.1-.6.6-.8l3.1-1.2c.9-.3 1.9-.4 2.9-.2.3 0 .5 0 .7.1.6.1 1.1.3 1.2.9 0 .1.1.2.3.2.6.6.9 1.4.7 2.2 0 0-.1 0-.1.1h0c0 .7-.4 1.4-1.1 1.6-.3.1-.6.3-.8.5-.5.4-1 .5-1.6.5h-.2c-.4.2-.9.3-1.3.4l-1.6.3c-.6.2-1.2.3-1.9.5-.1 0-.2 0-.2.1-.4-.2-.9 0-1.2.3-.3.2-.8.1-1.1.2-.3.2-.6.3-.9.3-.6.1-1.2.3-1.8.4-.5.1-1 .3-1.4.4h-.4c-.3 0-.4.1-.6.3a22.63 22.63 0 0 1-1.3 2l-1.4 1.9v.1c.1 0 .2 0 .3-.1.1 0 .2 0 .3.2.1.1.1.1.2-.1.1-.5.2-.5.7-.5h.4l.9-.3h.2c.3.3.7.2 1 .2.6 0 1.1.2 1.6.5 0 .1.1.1.2.2.1.3.3.5.5.7.4.4.5.9.4 1.4l-.3 1.4c-.1.3-.3.5-.5.6-.7.3-1.4.6-2.1.7-.2 0-.4.1-.6.2-.9.2-1.8.3-2.7.4l-2.3.3c-.3 0-.6 0-1-.1-.5-.1-.7-.1-.9.2-.3.5-.5 1.1-.9 1.7-.2.4-.4.7-.5 1.1-.4.8-.7 1.6-1.2 2.4-.1.3-.2.5-.4.8-.1.1 0 .1 0 .3.1 0 .2 0 .2-.1l4.1-1.7c.5-.3 1-.5 1.5-.7.8-.1 1.5-.7 2.3-.9.3-.1.6-.3 1-.4.1-.1.4 0 .5 0h.2c.1-.4.3-.4.5-.3.1.1.2 0 .2 0 .2-.4.7-.4 1.1-.6l1.5-.6c.7-.3 1.4-.5 2-.7.6-.1 1.1-.4 1.6-.5.7-.3 1.4-.5 2.1-.7.2-.2.8-.1 1-.4a1.08 1.08 0 0 1 .7-.3c.1.1.2.1.3.2 0 .1.2.1.3.1.2-.3.5 0 .8.1s.5.2.7.3c.3.1.5.2.6.5 0 .1.1.1.1.1.3-.2.4 0 .5.2 0 .1.1.2.1.3a.76.76 0 0 1 .2.4c-.1.1-.2.2-.4.2-.4 0-.4.2-.4.4-.1.1 0 .3-.1.3-.2.2-.5.5.2.4 0 0 .1 0 .1.1h0c0 .1 0 .1-.1.1-.3 0-.4.3-.6.4-.2.3-.6.2-.9.3-.2 0-.5 0-.6.2-.2.6-.3.2-.4 0-.2-.1-.3-.2-.5-.3v-.3-.2.2.3l-.3.6c-.1.4-.2.4-.5.6-.4.2-.9.3-1.4.6-.2.1-.3.1-.5.1l-2.3 1-1.6.4-1.4.6c-.3.2-.6.3-1 .4l-2.1.9c-.6.2-1.1.5-1.6.8-.6.4-1.3.6-1.9 1.1-.4.3-.8.5-1.2.8-.4.2-.6.6-1.1.6-.1 0-.1 0-.2.1-.7.5-1.5.9-2.4 1.3l-.1.1a9.93 9.93 0 0 1-2.7 1.4c-.2 0-.2.1-.4.2-.7.4-1.4.6-2.2.7-.3-.2-.7-.3-1-.5zm-.6-8.2c0-.1 0-.1 0 0-.2-.1-.2 0-.2 0 0 .1.1.1.2 0 0 .1 0 .1 0 0zm2.4-1.9c0-.1-.1-.2-.2-.2h-.1 0c0 .1 0 .3.1.3 0-.1.1-.1.2-.1h0zm.8-2.2c0-.3-.3-.7-.4-.7-.1.1-.2.2-.2.3 0 .2 0 .3.1.4s.2 0 .3 0h.3-.1zm21.6-2.7l-.1-.1-.1.1v.2c.1-.1.2-.1.2-.2h0z"/><path d="M155.2 72.3c-.2 0-.3-.1-.4-.2-.2-.6-.7-1-1.1-1.4-.3-.4-.6-.9-.8-1.4-.1-.2-.1-.3-.2-.5-.2-.3-.3-.6-.2-1 .1 0 .1-.1.1-.2-.1-.7-.1-1.3.1-2 .3-1.5.9-3 1.6-4.4a14.29 14.29 0 0 1 1.4-2c.1-.2.2-.4.2-.6.5-.5.9-1 1.3-1.5.3-.3.5-.6.8-1 .1-.2.3-.4.5-.6 0-.1.1-.1.1-.2.5-.2.7-.8 1.1-1.2.5-.4.9-.9 1.3-1.4.2-.1.3-.1.5-.2.1-.1.2-.1 0-.2 0-.1 0-.1.1-.2.3-.3.6-.5.9-.8.2-.3.5-.6.8-.8.3-.3.6-.6 1-.9.4-.2.7-.6 1-.9.2-.2.5-.4.7-.6l1.5-1.3c.2-.2.4-.2.6-.4.2 0 .3-.1.5-.2.3-.3.6-.4 1-.5h.1l-.1-.1c-.1 0-.1-.1-.2-.1l.1-.1c.1-.1.3-.2.4-.3.2-.1.4-.4.7-.2.1.1.2 0 .2-.2s.2-.4.5-.4c.1 0 .2-.1.4-.1.1 0 .3.1.4.1a.76.76 0 0 0 .2-.4c.1-.3.2-.4.5-.4.2 0 .5.1.4-.4 0-.1.1-.1.2-.2.4-.1.8-.2 1.3-.2.1-.1.3-.1.3-.2.1-.5.5-.4.7-.3.2 0 .4 0 .7-.1.1 0 .4 0 .1-.3-.1-.1.2-.4.5-.5.2 0 .3-.1.4-.2.2-.2.4-.3.7-.2.4-.1.8-.1 1-.6.1-.1.2-.1.2 0 .2.2.2.1.4.1.4-.2.9-.3 1.4-.4.2-.1.4-.2.6-.2.9-.3 1.8-.5 2.7-.7.1 0 .1-.1.2-.1s.2 0 .2.1c.1.2.2.2.4.1s.5-.3.7-.4c.1-.1.2-.1.2 0 .1.5.4.2.7.2.2.1.4.3.7.4.1 0 .1 0 .2-.1 0-.1-.1-.1-.1-.1-.2-.1-.5-.1-.8-.2v-.4c.2.1.2.2.4.2.3.1.5.1.8.2.4.1.4 0 .2-.3-.1-.1 0-.3 0-.4.1 0 .2-.1.2 0 .2 0 .4.1.6.2.3.1-.1.1 0 .2.1.4.6.6 1 .5.2-.1.4.1.6 0 .2.2.4.3.5.5.1.1.1.2.2.2.2.2.4.2.5-.1.2.1.3.4.1.7-.1.2-.2.5.2.5.1 0 .4.1.2.4 0 0 0 .1.1.1.2 0 .3.2.3.4V43c0 .2-.1.5.1.6v.2l-.1.1c.1.3.2.7.1 1 0 .2-.1.1-.2.1l-.1-.1c-.2-.1-.3-.2-.5-.2l.4.4.1.1c.3.2.4.3.2.6a7.68 7.68 0 0 1-1.4 2.5l-1.2 1.5-1.2 1.2c-.4.5-.9 1-1.4 1.4-.2.1-.4.3-.5.6-.3.2-.5.5-.8.7-.2.1-.4.3-.5.5-.5.6-1 1.1-1.7 1.5l-1.5 1.1-.2.2-.3.3c-.6.3-1.1.7-1.5 1.2-.1.1-.2.2-.4.2-.4.2-.7.5-1 .8-.2.1-.4.3-.6.4a3.04 3.04 0 0 1-.7.5L176 62c-.1 0-.2.1-.2 0-.2 0-.2.1-.3.2l-.3.3c-.4.4-.9.7-1.3 1a.76.76 0 0 0-.2.4c.1.1.2.2.5.2.7.1 1.4.2 2 .4.2.1.4.2.5.4.1 0 .2.2.2-.1.3 0 .7-.1 1 .2.1.1.2.2.3.1s.2-.1.2-.1c.4.3.9.2 1.3.2.7.1 1.4.2 2 .4.7.1 1.4.3 2.1.5a9.83 9.83 0 0 1 1.6.5s.1.1.1.2c-.1.2-.1.4-.1.5s.1.2.1.2c.4 0 .4.2.4.5.1.2.4.4.7.3.2-.1.3.1.5.1.1 0 .2-.2.4-.2.3-.1.5-.1.8.2.1.1.1.1.2.1.4 0 .4.4.5.6.1 0 0 .2-.1.2s-.1.1-.1.2.1.2-.1.1c-.1 0-.3-.1-.5-.1-.1 0-.2 0-.2.1s0 .2.1.2l.2.2c.1.1.4.4.3.5s-.1.5-.5.5c-.2 0-.3.1-.5.2-.1 0-.2.1-.3.1.1.1.2.1.2.2.2.1.2.1 0 .2-.1.1-.1.1-.2.1 0 0-.1 0-.1.1h0l.1.1c.1.1.2.1.3.1.2.2.2.4.4.5-.2-.1-.4-.1-.6-.1-.1 0-.2-.1-.4-.1-.2-.1-.5.1-.4-.4-.1 0-.2 0-.2-.1-.2.1-.3 0-.5-.1-.1-.1-.2-.2-.1-.3.1 0 0-.1 0-.1 0-.1-.1-.1-.1 0-.2.1-.4.1-.6 0h-.3c-.2.1-.3.1-.3-.1 0 0-.1-.1-.2 0s-.2.1-.3.2-.2-.1-.2-.1c-.1-.2-.3-.2-.4-.2-.2-.1-.4-.1-.5-.1-.2-.1-.5-.1-.8.1-.1.1-.2 0-.3-.1-.5-.2-1-.5-1.4-.1-.2.1-.2.1-.4-.2-.1-.2-.2-.1-.4.1-.2.3-.6.4-1 .4-.2 0-.4-.1-.7-.1-.1 0-.2-.1-.2-.1l.2-.2c.1-.1.2-.1.3.1 0 .1.1.1.1.1V71h0c-.1-.1-.1-.2-.2-.2 0-.1-.2 0-.2 0-.2.2-.4.2-.7.1s-.6-.1-.8-.1c-.3 0-.7 0-.7-.4-.1 0-.1.1-.2.1h-.2v.1h.2c.1 0 .1-.1.2-.1-.1.3-.2.4-.6.3-.1-.1-.1 0-.2 0-.1.1-.2.1-.2-.1-.1-.4-.2-.4-.5-.2a1.91 1.91 0 0 1-1.8 0c-.1-.1-.3-.1-.4-.1h-1.5c-.3-.1-.7-.2-.9-.2-.6 0-1.2 0-1.8-.1-.5-.1-1.1-.1-1.5-.2h-.6c-.5 0-1.1 0-1.6-.2-.4-.1-.8-.3-1.2-.5-.2-.1-.2-.2-.2-.5.1-.4-.1-.8-.5-1.1-.2-.2-.5-.5-.8-.7 0 0-.1-.1 0-.2s0-.2-.1-.4c-.2-.4-.1-.7.3-1 .3-.1.5-.4.5-.7.1-.1.1-.4.3-.5.3-.2.7-.3 1-.4.2-.1.3-.1.5-.1.3.1.5-.1.7-.3 0-.1.2-.2.3-.2h.1c-.1 0-.1.1-.1.1-.2.1-.1.2.1.2.5 0 .9-.2 1.4-.4.2-.1.3-.4.5-.5 0-.1.1-.1.1-.2-.1-.5.4-.6.6-.9.5.1.7-.4 1.1-.6.1-.1.3-.1.3-.1.5.5.8.1 1.1-.1.2-.2.4-.2.7-.2.2 0 .4 0 .6-.1.1 0 .1-.1.1-.1s-.1 0-.1-.1c-.1.1-.1.1-.2.1-.1.1-.1.1-.2.1.1-.1.1-.2.2-.2 0-.1.1-.1.1-.2s-.1-.1-.1-.2c0 .1-.1.1-.1.1-.1 0-.2.1-.2.2-.1-.2-.1-.4-.1-.5s.2-.1.5-.2c.1-.1.3-.1.4-.2-.1.2-.3.3-.2.5.2.2.4 0 .5-.1s.2-.1.2-.1l.1-.1c-.4 0-.3-.4-.5-.5.2-.3.5-.5.9-.4.1 0 .2.1.1.2-.1 0-.2.1-.1.2.2.1.3.1.5.1.1 0 .1-.1.2-.2s.1-.4.2-.4c.1-.1.2-.1.4-.1l.1-.1c-.1-.1-.2-.1-.2-.1-.1.1-.2 0-.1-.2.3-.7.3-.7 1-1 .1 0 .1 0 .1-.1.1-.4.6-.5.8-.8.2-.2.4-.4.7-.4.2-.1.4-.2.5-.4.2-.3.5-.5.7-.7.1-.1.2-.2.4-.2.1 0 .2 0 .2-.2-.1 0 0-.1 0-.1.4 0 .5-.5.8-.6.2-.1.3-.3.5-.1.1.2.2-.1.3-.1.2 0 .3-.1.4-.1 0-.2 0-.3-.1-.5s-.1-.2.1-.4c.2-.1.3-.3.4-.4.3-.3.5-.6 1-.6.2 0 .3-.2.4-.3 0-.1-.1-.2-.1-.2.1 0 .2 0 .2-.1.1 0 .1-.1.1-.1-.1-.2.1-.2.2-.2.2-.1.3-.1.3-.3.1-.3.4-.5.7-.5h0c.2.1.3-.1.2-.2-.1-.2 0-.2.2-.4.3-.2.5-.4.8-.7.2-.1.2-.4.5-.5.2-.1.3-.3.4-.5s.3-.3.5-.2c.1.1.2-.2.4 0 0 0 .1-.1.1-.2s0-.1-.1-.1c-.3-.2-.3-.2-.2-.4l1-1.3c.2-.2.3-.5.3-.8 0 0 0-.1-.1-.1-.2-.1-.4-.2-.6-.2-.8.1-1.6.3-2.3.6-.5.2-1 .3-1.5.5-.3.1-.7.3-1 .4-.2.1-.5.2-.8.3-.2.1-.4.1-.5.2-.5.4-1 .5-1.4.8-.1.1-.3.1-.4.2-.1.2-.4 0-.5.1s-.1.4-.4.4c-.1 0-.2 0-.2.1-.2.4-.7.2-1 .5-.4-.1-.6.2-.8.5-.4 0-.6.4-1 .6l-2.4 1.5c-1 .7-1.8 1.4-2.7 2.1-.4.4-.8.8-1.3 1.1-.2.1-.3.3-.4.5-.8.7-1.4 1.5-2.1 2.2l-1.4 1.4c-.5.5-.9 1-1.3 1.6-.1.2-.4.4-.5.5l-1.7 2.4c-.6.9-1.1 1.9-1.5 2.9-.2.4-.3 1-.5 1.4-.1.4 0 .7.1 1.1.2.3.2.7.2 1.1v.6c-.1.3-.1.6-.2.9s-.2.5-.4.8c-.5 1-1.6 1.5-2.7 1.3-.3.1-.7 0-1-.1zm14.3-9.3s.1-.1.1-.2c0 0 0-.1-.1-.1h0c-.2 0-.3 0-.5.1-.1 0-.3.1-.4.1.2.1.3.2.5.2.1.1.2 0 .4-.1h0zm.2-1.2c-.1-.1-.1-.2-.1-.2-.1 0-.1.1-.1.1 0 .1.1.1.1.1h.1zm-.1-1.7l.2-.2h.2c0 .1-.1.2-.1.2-.1.1-.2.1-.4.1l.1-.1zm1-.3c-.2 0-.4.1-.6.1.3-.3.3-.3.6-.1h0zm-.1 1.7h-.1c-.1.1-.1.1-.1.2.1 0 .2 0 .2-.2h0zm1-2.9c-.1.1-.1.2-.2.4-.1-.3 0-.4.2-.4h0zm.1 4.2c-.1-.1-.1-.2-.2-.3l-.1.1c.1.1.1.2.2.3.1 0 .1-.1.1-.1h0zm1.2-.3h0l-.6-.1s-.1 0-.1.1h0c.1.1.3.2.5.2 0 0 .1-.1.2-.2h0zm1.3-2.7c-.1-.1-.3-.1-.4-.2l-.1.1v.1a.45.45 0 0 0 .5 0h0zm.7 6s-.1 0-.1-.1l-.1.1v.2c.1-.2.1-.2.2-.2h0zm.5-.2c-.1-.1-.1-.2-.2-.2s-.1.1-.1.1c.1.1.1.1.2.1.1.1.1 0 .1 0h0zm.3-8.9c0-.1-.1-.1-.1-.1 0 .1-.1.1-.2.2h.1c.1 0 .2-.1.2-.1h0zm1-1c-.1 0-.1-.1-.1-.1-.1 0-.2.1-.2.2s.1.1.1.2c.1-.2.1-.2.2-.3h0zm2.5-1.7c0-.1-.1-.1-.2-.1-.1.1-.1.2-.1.4 0 .1.1.1.1.2 0-.3.1-.4.2-.5h0zm1.9-2.1l-.1-.1c-.1 0-.2-.1-.2 0l-.3.3v.1c.2-.2.4-.2.6-.3h0zm1.9 14.8c-.2-.2-.3-.6-.7-.7-.1 0-.1 0-.1.1-.2.2.1.7.5.7l.3-.1zm-.2.6c0-.1-.1-.2-.1-.2s-.1 0-.1.1a.76.76 0 0 0 .2.4c-.1-.2 0-.3 0-.3h0zm1.5 2.6c.2-.2.1-.4 0-.4-.3-.1-.5-.5-.9-.2-.1.1-.1 0-.3 0 .1 0 0 0-.1.1l.1.1a.55.55 0 0 1 .5.3c.1.1.3.2.5.2.1.1.1-.1.2-.1h0zm-.9-26.2c-.1-.1-.1-.1-.1-.2 0 0-.2.1-.1.1s.1.1.2.1c-.1.2 0 0 0 0h0zm2.3 26.2c-.1-.1-.2-.1-.3-.1l-.1.1c.1.1.1.2.1.2.2 0 .2 0 .3-.2zm.6-22.1c-.2 0-.2-.1-.2 0-.1 0-.2.1-.2.2h.1s.1-.1.3-.2h0zm.3 21.3c-.2-.1-.2-.2-.3-.2s-.1.1-.1.2c0 0 .1.1.2.1 0 0 .1 0 .2-.1h0zm1.2-1.1c-.3-.1-.5-.2-.8-.2-.1 0-.1-.1-.2-.1.1-.1.1-.2.1-.3.1-.1.2-.1.2 0 .2.2.4.3.7.4 0 .1 0 .2.1.2h-.1 0zm-.7.7h0c0-.1 0-.1 0 0-.1 0-.2 0-.2.1.1 0 .1.1.1.1 0-.1.1-.1.1-.2h0zm0-30.6h.2v.1l-.2-.1c0 .1-.1.1 0 0h0zm1.2 1.3c-.1 0-.1 0-.1-.1l-.2.2c.1 0 .1.1.2.1 0 0 0-.1.1-.2h0zm-.1 2c-.1 0-.1-.1-.1-.1l-.1.1h.2 0zm.4 4.5l-.1-.1-.1.1c.1 0 .1.1.1.1 0-.1.1-.1.1-.1h0zm.7-5.9h0c-.2 0-.3.1-.4.1.1.1.2.1.3.2.1-.1.1-.2.1-.3h0zm.6 9.8c0-.1 0-.1-.1-.1 0 .1-.1.1-.1.2l.2-.1c-.1.1-.1 0 0 0h0zm1.1-1.4c-.1-.1-.2-.1-.3-.2l-.1.1c.1.1.2.1.2.1h.2 0zm.3-8.6h0c.2-.1.4.1.5.3-.1-.1-.3-.2-.5-.3h0zm.4 1.9s0-.1-.1-.1h-.1v.1h.2zm.2 4.1l-.2-.2c-.1 0-.1.1-.1.1 0 .1.1.1.1.2l.2-.1h0z"/><path d="M31.9 121.7c-.2-.1-.4-.2-.6-.2l-.1-.1h.1c.3-.1.3-.2.1-.4s-.4-.1-.6-.3c-.1 0-.1 0-.2-.1 0-.1 0-.1-.1-.1s-.2 0-.2-.1c-.1-.1-.1-.2-.2-.2v-.1c.2 0 .3-.1.5-.2v-.2c-.1-.1-.2-.1-.2 0h0-.2c0-.1 0-.2.1-.3h.1v.1c.1 0 .1 0 .1-.1v-.2c-.3-.1-.6-.4-1-.5-.2 0-.3-.2-.4-.2v-.1h.1c0 .2 0 .1.1 0 .2-.3.5-.4.8-.5.3 0 .4-.1.2-.4v-.4c0-.2.2 0 .2-.1.1 0 .1-.2.1-.2l-.3-.3v-.1h0c.2-.2 0-.3-.1-.4 0-.1.1-.1.1-.2v-.2c0-.1-.4 0-.1-.2l-.1-.1-.1.1c-.1 0 0 .1 0 .1s-.1 0-.1-.1c-.1-.2-.2-.2-.3-.1h-.2v-.2c0-.1 0-.1.1-.2.2 0 .1-.2 0-.3l.1-.3.1-.4v-.1c-.2-.1-.3-.2-.2-.4l.3-.6c0-.1.1 0 .1-.1v.1.2s0 .2.1.2.1 0 .2-.1c.1 0 .2-.1.2-.1v-.1c-.2 0-.1-.1 0-.2h.3c.2.1.2 0 .2 0 0-.1 0-.2.2-.2.1 0 .2.1.3.1h.2c.1 0 .1-.2.2-.2h-.1c-.3.1-.4 0-.5-.3 0-.1-.1-.1-.2-.1s-.1.1-.2.2c-.1 0 0 .1 0 .1l-.1.1c0-.1-.1-.1-.1-.2s0-.2-.1-.2-.2 0-.3.1v.1h.1c.1 0 .2-.1.2.1s-.1.2-.1.2h-.3c-.1 0 0-.1 0-.1a.76.76 0 0 0 .2-.4l.3-.3v-.1c.1-.3.3-.6.5-.9 0-.1.1 0 .1-.1s.1-.2.1-.2v.2h.1.2c0-.1.1 0 .1-.1s0-.2-.2-.1c0-.1-.1-.1-.1-.2.1-.3.3-.6.4-.9.2-.2.3-.4.4-.7s.3-.5.5-.7c0-.1.1 0 0-.1 0-.1 0-.1.1-.2.1 0 .2-.2.2-.4.3-.4.6-.8.8-1.2.1-.1.1-.2.2-.3v-.1c.3-.2.3-.7.5-.9.2-.3.4-.5.6-.7v-.1c.3-.5.6-.9.9-1.3l.7-.9c.2-.3.5-.6.7-.8.3-.3.5-.6.7-.9l.8-.9c.1-.2.3-.4.4-.5.4-.5.8-.9 1.3-1.4l1.2-1.3 1.6-1.6.1-.1c0-.1.1-.2.1-.2-.1-.1-.1-.3-.2-.3-.2 0-.3-.2-.5-.3h-.2c-.4-.1-.6-.4-.6-.7-.1-.4-.3-.8-.5-1.2-.1-.3-.2-.6-.2-.9.1 0-.1-.2-.1-.3-.1-.1-.1-.3-.2-.4-.1-.3.1-.6.4-.8.1 0 .1-.1.1-.2.1-.3.4-.6.8-.6.1 0 .1 0 .1-.1.1-.5.7-.4 1.1-.7h.1c.2-.1.5-.2.7-.2l.1-.1h.3.1c.2-.3.6-.2.9-.4.3-.1.5-.2.8-.2.1 0 .2.1.3 0 .2 0 .4-.2.7-.2l1.1-.2c.1 0 .2-.1.4-.1.1 0 .3-.1.4-.1s.2.1.3-.1c0 0 0-.1.1 0h0c.1.2.4 0 .5 0s.1 0 .2-.1h.2.5c.5 0 .9-.1 1.4-.2.6 0 1.2-.2 1.7-.4.2-.1.4-.1.6 0 .6 0 1.2.1 1.8.1.2 0 .4.1.6 0h.5 1.3.5.1c.5.1 1.1.2 1.6.2.2 0 .5 0 .7.1h1.4c.5.2 1 .4 1.4.7a.76.76 0 0 1 .4.2c0 .1.1.1.2.1.2 0 .4.1.4.3.1-.1.3-.2.2 0v.1c.2 0 .3.1.4.2v.1c0 .5.3.7.5 1 .3.3.4.8.3 1.2-.1.3-.1.6 0 .9v.4l-.1.4c-.2.2-.3.5-.2.8 0 .1 0 .3-.1.4-.1 0-.2.2-.2 0 0-.1-.1-.1-.2-.2v.3c0 .1 0 .2.1.4v.3s-.1.1-.1.2c-.2.1-.4.2-.4.5-.1.2-.2.4-.3.5s-.2.3-.4.3h-.1 0c0 .4-.3.6-.5.9-.2.2-.4.4-.6.5-.1 0-.1.1-.2.1-.2-.1-.3 0-.3.2-.1.1-.1.2-.2.3-.1-.1-.1 0-.1.1-.2.3-.5.5-.8.7-.2.1-.4.3-.5.4v.1c-.3-.2-.3.2-.5.2-.1.1-.3.2-.5.3-.3.2-.6.3-.8.5-.1.1-.1.2-.2.1-.2 0-.3.1-.2.3h-.2v.2c0 .1-.1.2-.2.2h-.1v-.5h-.1v.1.2c0 .2 0 .2.1.3 0 .1-.3.2-.3.2-.1-.2-.1-.1-.1 0v.1l-.8.3c-.2.1-.3.2-.5.3-.1 0-.1 0-.2.1-.3-.1-.4.1-.5.3-.2.2-.5.4-.8.5-.2 0-.3.1-.4.2-.1 0-.2 0-.2.1h-.1c-.1 0-.1 0-.1.1-.1-.3-.2 0-.3 0H55v.2c0-.1-.2-.1-.2-.1 0-.1-.1-.1-.1 0-.1.3-.4.3-.7.5-.1.2-.3.1-.5.2s-.4.3-.6.4c-.1.1-.2.1 0 .2.1.1.3.1.4.2.5.1 1 .3 1.6.5.2.2.5.3.8.4.1.1.3.1.4.1.2 0 .3.1.2.3v.2c0 .1 0 .1.1.1 0 0 0-.1.1-.1h.1v.1.1h.1c.1-.2.3-.3.5-.2s.2.3.3.4c.2.1.4.3.5.4v.2c0 .1 0 .2.1.3l.3.3c.1 0 .1 0 .2-.1v.5c0 .1.1.2.1.3.2 0 .2.2.2.3s.1.1.2.1v.1c-.3.2.1.4.1.6 0 .1.1.2 0 .5s-.2.7-.2 1.1l-.1.4c0 .1.1.2 0 .2-.3.2-.1.5-.2.7-.1.3-.2.6-.4.8 0 .1 0 .1-.1.2 0 .1-.1 0-.2.1h-.1 0v.1.2l-.6.6c0 .1-.1.2-.2.2-.4.4-.9.8-1.4 1.2-.2.2-.4.3-.7.4-.1.1-.3-.1-.4.1-.1.1-.2.2-.3.2-.3.1-.5.3-.8.5 0 .1-.2-.1-.2-.1-.1 0-.1.1-.1.1-.1.2-.3.2-.4.4h-.1c-.2-.2-.2.1-.4.2a.76.76 0 0 1-.4.2c-.1.1-.3.1-.4.1s-.2 0-.3-.1c-.1 0-.2-.1-.2-.1-.1.1-.2.2-.2.3-.1.1-.1.2-.2.2s-.1.2-.1 0c-.1 0-.2-.1-.2 0-.1.1-.2.1-.3.1-.1.2-.2.4-.5.3v.1.1h-.2v-.1c-.2.2-.4 0-.6.2-.1.1-.3.1-.4.1s-.2-.1-.2 0c0 0 0 .1-.1.1h-.4c-.1 0-.1.2-.2.3h-.1-.2l-.7.2h-.3-.2v.1c0 .1-.1.1-.2.1h-.1c0-.1 0-.1-.1-.2 0 .1 0 .1-.1.2 0 .2 0 .2-.2.2-.2.2-.5.1-.7.2-.1.1-.3.1-.4 0-.2 0-.3.2-.4.2l-.1.1c-.1-.3-.3 0-.4 0s-.2.1-.2 0c-.1 0-.2-.1-.2-.1-.1.1-.1.2-.2 0v.2c0 .1-.1.2-.2.2-.3 0-.6.1-.9.1l-.1.1c-.2.1-.3.1-.3-.1v-.1c0 .1 0 .1-.1.2v.1c-.1.1-.2.1-.4.2h-.2c-.1-.3-.3-.1-.3-.1-.2.4-.6.2-.8.3-.1 0-.1.1-.2.1-.1.1-.2.1-.3.1-.2 0-.3 0-.4.2-.1 0-.1 0-.1.1h-.9l-.4.1c-.3.1-.6.1-.8 0 0-.1-.2 0-.2 0l-.1.1c.1 0 0 .1.1.1h-.3c-.1-.1-.3-.2-.3 0-.1.1-.2.1-.2.2s-.1 0-.1 0c0-.2-.1-.2-.2-.3-.1 0 0-.1 0-.1-.2.2-.4 0-.4.2-.1 0 0 .1.1.2h.1 0l.1-.1c0 .1.1.1.1.2s-.1.1-.1.1h-.3c-.1 0-.1 0 0-.1v-.1c0-.1-.1-.1-.2-.1h-.1v.2c0-.1-.2-.2-.2-.2 0-.3-.2 0-.3-.2 0 .1-.1.2-.2.2 0 0 0 .1-.1.1s-.2.1 0 .1v.1h-.1l-.3-.1-.4-.1c-.5.2-.7.2-.7.1zm-.3-8.6c-.1 0-.1 0 0 0-.1 0-.1 0 0 0-.1 0-.2.1-.3.1 0 .1.1.1.1.2 0-.1.1-.2.2-.3zm.7.2c-.1-.1-.1-.2-.2-.4 0-.1-.1-.1-.2-.1v.1c-.1.1.2.3-.1.4v.1c.3 0 .4 0 .5-.1zm.7.1h0c0-.1 0-.3-.2-.5 0-.1 0-.1-.1-.1v.2c.2.1 0 .2.1.3 0 .1.1.2.1.4l.1-.3zm.9-4c0-.1-.2-.1-.2-.2 0 .1-.1.1-.1.2v.1c.1-.1.3-.1.3-.1zm-.6 4.2v-.2c-.1 0-.1.1 0 .2-.1.1-.1.1 0 .2-.1-.2 0-.1 0-.2zm-1 7.9c.1 0 .2-.1.2-.1.1 0 .1 0 .2-.1-.2-.1-.2-.3-.4-.3 0 0-.1 0-.1.1-.1 0 0 .1 0 .1.4 0 .1.2.1.3h0c-.1 0 0 .1 0 .2v-.2zm.3-.9c0-.1-.1-.1 0 0-.2-.1-.3-.1-.3 0 .1 0 .1.1.1.1s.1 0 .2-.1zm.4-2.7c.2-.3.5-.2.8-.2h.1v-.1c-.2 0-.3-.3-.5-.1 0 .1-.1 0-.1 0v-.1c.2-.1.2-.3.3-.5v.1h0l.1.2v-.2c.1 0 .2.1.2.2v.1c.1 0 .2 0 .4-.1-.1 0 0-.1 0-.1-.1 0-.1 0 0-.1h.1c.2-.1.2 0 .3.1h.1c0-.3.3-.2.6-.4l.1.1v.1c.1 0 .2-.1.3-.1 0-.2.1-.2.3-.2h.5c.2-.3.2-.1.2 0s.1.2.2 0a.55.55 0 0 1 .5-.3h.3c.3-.2.7-.3 1-.2.1 0 .1.1.2.1-.1 0-.2.1-.3.2l-.1-.1c-.1 0-.1-.1-.1 0-.1 0-.2.1-.3.1.2.1.4 0 .5.3.1 0 .2 0 .2-.1v-.1c0-.2.1-.2.1-.4h.1c.2 0 .4-.1.4-.4v-.1h.3s0 .2-.1.2c0 .1-.1.1-.1.2s0 .1.1.1c0 .1.2 0 .2 0h.1-.1c0-.1 0-.1-.1-.1h.1 0c.2 0 .3-.2.3-.4v-.1c0-.1.1 0 .1-.1.2.1.2-.1.3-.1h.4c-.1.1-.1.2-.2.3h.3c.3-.2.3 0 .3.2v.1s0-.1.1-.1v-.5-.2c.2.1.4-.3.6-.1h.1c.1-.3.3-.2.5-.2.1 0 .1.2.2.3v.1l.1.1c.1 0 .1 0 .1-.1v-.1c-.1-.1-.2-.2-.1-.3h0c.1-.2.2 0 .2.1h.1c.1-.3.4-.2.5-.3.1 0 .3-.1.3.1v.1-.1c.1-.1.2-.3.3-.3.3-.1.6-.1.9-.2.1 0 .3-.2.2.1h.1 0c.2-.1.5-.3.8-.3.6-.2 1.2-.4 1.7-.7h.1c.3 0 .5-.1.7-.3.4-.2.8-.4 1.2-.4l.1-.1c.2-.2.5-.4.8-.4.4-.1.6-.4.9-.4l.1-.1c.1-.1.3-.2.5-.3.5-.2.9-.6 1.3-1l.4-.4v-.1c0-.1 0-.1-.1-.1s-.2-.1-.2-.1c0-.2-.1-.3-.4-.2l-.1-.1c-.3.1-.2-.2-.3-.2s-.2.1-.4.1v-.1h0-.1c-.1.2-.1 0-.2 0-.2-.1-.4 0-.5-.1l-.1.1c0 .1-.1 0-.2 0 0 0-.1-.1-.1 0-.2 0-.3-.1-.4-.3v-.1c-.1 0-.1-.1-.1-.1h.2v.1-.1c-.1 0-.1-.1-.2-.1-.1-.1-.1-.1-.2-.1-.1.1-.1.2-.1.3s0 .1.1.1v.1-.1-.1.1c-.1 0-.1.1-.1.1h-.2c-.1-.2-.4.1-.4-.3H50c-.1.2-.2.1-.3.1s-.2-.1-.3-.1c-.2 0-.4 0-.5-.2h-.1c-.2.3-.4.1-.6.1 0-.1-.1-.1-.1 0h0c-.4.2-.6 0-1-.1l-.3-.1c-.1 0-.3.1-.4.1-.2-.2-.4.1-.6 0-.1 0-.4.1-.5.1-.2 0-.4.3-.5 0h-.1c0 .2-.2.1-.3.2-.1-.2-.2 0-.2.1-.1.1-.2.3-.4.1h-.1c-.1.3-.4.2-.5.4-.1 0-.1 0-.2-.1 0 0-.1 0 0-.1h0v.1c0 .1-.1.1-.1.1-.1.1-.3.2-.4.3l-.1-.1v-.4c-.1 0-.2.3-.4.2v.1c.1.2-.2.2-.2.1-.3-.1-.5 0-.7.2-.1 0-.2.1-.2-.1h-.1c0 .1-.2 0-.2 0-.2 0-.3.1-.5 0-.1 0-.2-.1-.3-.2.1 0 .2-.1.3-.2h.1v-.1h-.3v.1h-.1v-.1-.2-.1c0-.1-.1-.1-.2-.1s0-.1-.1-.1c-.1.1-.1.1-.1.2a1.27 1.27 0 0 1-.7.9c-.1 0-.1.1-.1.1 0 .2-.1.5-.2.7h-.2l.1.2c-.1 0-.2.1-.2.2-.1 0-.2.1-.3.2-.1.3-.1.5-.3.7 0 .1 0 .1-.1.1-.4.1-.3.5-.6.7v.1c-.1 0 .2.3-.1.2v.1c0 .1 0 .2-.1.3s-.2.1-.3.1c0 0-.1 0-.1-.1v.1c.1.1.1.3 0 .4v.1c0 .1 0 .4-.2.3-.1 0-.2 0-.1.2.1 0 0 .1 0 .1-.4-.1-.1.2-.2.2-.1.2-.1.3-.2.4 0 0 0 .1-.1.1-.2-.1-.4-.1-.4.2 0 0 0 .1-.1.1 0-.2-.4-.3-.2-.6v-.1h0-.1c-.1.2-.1.1-.1 0s0-.2-.1-.2c-.1-.1-.2-.1-.1-.3.1 0 0-.2 0-.2 0 .1 0 .2-.1.2-.2.2.1.4 0 .6.1 0 .1.1.2.1s.1 0 .2.1c.1.3.1.6.1.9 0 .2 0 .3-.1.5-.1.3-.2.6-.4.8-.2 0 0 .2 0 .2-.1 0-.2-.1-.3-.1 0-.1-.1-.1-.2-.1v.2c0 .1.2.1.1.1-.8-.2-.8 0-.8.3-.1 0-.1 0 0 0h0zm2.5-11.2c-.1-.1-.1-.3-.2-.3h-.1c0 .1.1.2.1.4l.2-.1zm-.8 7.4s-.1-.1 0 0c.2-.3 0-.2-.2-.3v.1c0 .1.1.2.1.2.1.1.1.2.1.2v-.2zM38 103c0-.1-.1-.1-.1-.2 0 .1-.1 0-.1.1s0 .1.2.1c-.1.1 0 .1 0 0h0zm0 17.1c-.1-.1-.3-.2-.4-.3 0 0 0 .1-.1 0h0c0 .1 0 .3.2.3h.3 0zm.6-4.2l.4-.1c0-.1 0 .1 0 .1-.1.1-.1.1-.3.2l-.1-.2zm-.1 3.9h.2c.1 0 .1 0 .2.1v-.2h.1c0-.1 0-.2-.1-.2s-.1 0-.2.1h-.1l-.1.2h0c-.1 0-.1 0 0 0h0zm2.1-4.3c.1-.1.2-.2.3-.2h.1v.1c-.1.1-.2.1-.4.1h0 0zm3.9-13.3c.3-.3.6-.4 1-.5h.1c.1-.3.3-.3.5-.4.3-.1.5-.3.8-.5.2-.1.5-.3.7-.4h.2c-.1 0 0-.1 0-.2-.1 0 0-.1.1 0 .2 0 .5-.3.7-.2 0 0 0-.1.1-.1.2-.3.6-.4.9-.4 0 .1.1 0 .1 0 .1-.4.1-.4.4-.2l.1-.1c0-.2 0-.3.3-.4.1 0 .2-.1.3-.1h.1 0c.1 0 .1-.1.1-.2l.6-.3c.3-.1.5-.4.8-.2h.1v-.1c-.1-.1-.1-.2.1-.3h.1c.2-.1.5-.3.6-.3s.2 0 .3-.1.2-.2.3-.2c.2-.1.3-.2.4-.2s0-.1 0-.2c0 0 0-.1.1 0h0l.8-.4c.1 0 .1-.1.1-.1a.76.76 0 0 1 .4-.2c.2 0 .2 0 .1-.1v-.1c.2-.1.5-.2.6-.4.1 0 .2 0 .2-.1-.1.1-.1.1-.1.2s0 .1.1.1c.1-.1.2-.2.3-.4-.1 0-.2 0-.2-.1v-.2c.3-.2.6-.4.8-.6.3-.2.4-.4.8-.3h.1c.1-.4.4-.4.7-.6.1-.2.3.1.4.2 0 .1.1 0 .1.1v-.4c-.1 0-.1-.1-.1-.2h0c0-.1 0-.1.1-.1v.1.2s.1-.1.1-.2v-.1-.1c.1-.1.2-.3.3-.4.2-.2.5-.3.5-.5.1-.2.2-.2.2-.1.1 0 .2 0 .3-.1l.1-.5c0-.1.1-.1.2-.1.2.1.1 0 .1 0 0-.1-.1-.2-.3-.2s-.4.1-.3-.2c0-.1-.1-.1-.1-.1v.1c-.1.2-.2.4-.3.4-.2 0-.5 0-.7-.2h-.1v.1c.2.2 0 .2-.1.2l-.4-.1c-.2 0-.4-.1-.6 0-.4.1-.8.2-1.1.2-.2 0-.4.1-.5.2s-.3.2-.5.2c-.3 0-.6 0-.8.2l-.6.4-.9.6-.9.6c-.2.1-.4.1-.6.3s-.4.3-.6.5l-1 .6c-.3.2-.6.5-.9.8-.6.6-1.2 1-1.7 1.5-.5.4-.9.8-1.3 1.2L46 99.6c-.3.2-.5.5-.8.8-.2.3-.5.5-.8.8-.1.1-.3.2-.4.3-.2.1-.5.2-.7.4a.76.76 0 0 0-.2.4v.1c.8.1 1.1 0 1.4-.2h0zm.2.3c-.1 0-.1-.1-.2-.1h-.1l.1.1s0 .1.2 0h0zm4.6-2.5c0-.2-.3-.1-.2-.3H49c0 .1-.1 0-.2.1 0 .1.1.1.2.1.1.1.2.1.3.1h0 0 0 0zm5.2-2.6c.1-.2.2-.3.2-.5v-.1c0 .1 0 .1-.1 0a1.38 1.38 0 0 0-.3.4v.1c.1.1.2.1.2.1h0zm.1 9.3v-.2c-.1 0-.2.1-.2.2.1 0 .1.1.1.3 0-.2.1-.2.1-.3h0zm2.9-.1c.1-.1 0-.2-.1-.3h0v-.1-.1s-.1 0-.1-.1v.1c-.1.1 0 .3-.1.4-.1.3.2-.1.3.1-.2.2-.1.1 0 0h0zm1.4 2.2h0c0-.1-.1-.1-.2-.1h-.2c0 .1.1.1.2.1h.2 0z"/><path d="M66.5 120.9c-.2 0-.3-.1-.4-.2-.2-.6-.7-1-1.1-1.5-.4-.4-.6-.9-.8-1.5-.1-.2-.1-.3-.2-.5-.2-.3-.3-.6-.2-1 .1 0 .1-.1.1-.2-.1-.7-.1-1.4.1-2 .4-1.6.9-3.1 1.6-4.5.4-.7.9-1.4 1.4-2.1.1-.2.2-.4.2-.6.5-.5.9-1 1.3-1.5.3-.3.5-.6.8-1 .1-.2.3-.4.5-.6 0-.1.1-.1.1-.2.5-.2.7-.8 1.1-1.2.5-.4.9-.9 1.3-1.4.2-.1.3-.1.5-.2.1-.1.2-.1 0-.2 0-.1 0-.1.1-.2.3-.3.6-.5.9-.8.2-.3.5-.6.8-.8.3-.3.6-.7 1-.9s.7-.6 1-.9c.2-.2.5-.4.7-.6l1.6-1.3c.2-.2.4-.2.6-.4.2 0 .3-.1.5-.2.3-.3.6-.5 1-.5h.1-.1c-.1 0-.1-.1-.2-.1l.1-.1c.1-.1.3-.2.4-.3.2-.1.4-.4.7-.2.1.1.2 0 .2-.2s.2-.4.5-.4c.1 0 .2-.1.4-.1.1 0 .3.1.4.1a.76.76 0 0 0 .2-.4c.1-.3.2-.4.5-.4.2 0 .5.1.4-.4 0-.1.1-.1.2-.2.4-.1.8-.2 1.3-.2.1-.1.3-.1.3-.2.1-.5.5-.4.7-.3.2 0 .5 0 .7-.1.1 0 .4 0 .1-.3-.1-.1.2-.4.5-.5.2 0 .3-.1.4-.2.2-.2.4-.3.7-.2.4-.1.8-.1 1-.6.1-.1.2-.1.2 0 .2.2.2.1.4.1.5-.2.9-.3 1.4-.4.2-.1.4-.2.6-.2.9-.3 1.8-.5 2.8-.7.1 0 .1-.1.2-.1s.2 0 .2.1c.1.2.2.2.4.1s.5-.3.7-.4c.1-.1.2-.1.2 0 .1.5.4.2.7.2.2.1.4.3.7.4.1 0 .1-.1.2-.1 0-.1-.1-.1-.1-.1-.2-.1-.5-.1-.8-.2v-.4c.2.1.2.2.4.2.3.1.5.1.8.2.4.1.4 0 .2-.3-.1-.1 0-.3 0-.4.1 0 .2-.1.2 0 .2 0 .4.1.6.2.3.1-.1.1 0 .2.1.4.6.6 1 .5.2-.1.4.1.6 0 .2.2.4.3.5.5.1.1.1.2.2.2.2.2.4.2.5-.1.2.2.3.4.1.7-.1.2-.2.5.2.5.1 0 .4.1.2.4 0 0 0 .1.1.1.2 0 .3.2.3.4v1.2c0 .2-.1.5.1.6v.2l-.1.1c.1.3.2.7.1 1 0 .2-.1.1-.2.1l-.1-.1c-.2-.1-.3-.2-.5-.2l.4.4.1.1c.3.2.4.3.2.6-.3.9-.8 1.8-1.5 2.5l-1.2 1.6-1.2 1.2c-.4.5-.9 1-1.5 1.5-.2.1-.4.4-.5.6-.3.2-.6.5-.8.7-.2.1-.4.3-.5.5-.5.6-1 1.1-1.7 1.5-.5.4-1 .7-1.5 1.2l-.2.2-.3.3c-.6.3-1.1.7-1.5 1.2-.1.1-.2.2-.4.2-.4.2-.7.5-1 .8-.2.1-.4.3-.6.4a3.04 3.04 0 0 1-.7.5l-1.8 1.1c-.1 0-.2.1-.2 0-.2 0-.2.1-.3.2l-.3.3c-.4.4-.9.7-1.3 1a.76.76 0 0 0-.2.4c.1.1.2.2.5.2l2.1.4c.2.1.4.2.5.4.1 0 .2.2.2-.1.3 0 .7-.1 1 .2.1.1.2.2.3.1s.2-.1.2-.1c.4.3.9.2 1.3.2l2.1.4c.7.1 1.4.3 2.1.5.6.1 1.1.3 1.6.5 0 0 .1.1.1.2-.1.2-.1.4-.1.5s.1.2.1.2c.4 0 .4.2.4.5.1.2.4.4.7.3.2-.1.3.1.5.1.1 0 .2-.2.4-.2.3-.1.5-.1.8.2.1.1.1.1.2.1.4 0 .4.4.5.6.1 0 0 .2-.1.2s-.1.1-.1.2.1.2-.1.1c-.1 0-.3-.1-.5-.1-.1 0-.2 0-.2.1s0 .2.1.2l.2.2c.1.1.4.4.3.5s-.1.5-.5.5c-.2 0-.3.1-.5.2-.1 0-.2.1-.3.1.1.1.2.1.2.2.2.1.2.1 0 .2-.1.1-.1.1-.2.1 0 0-.1 0-.1.1h0l.1.1c.1.1.2.1.3.1.2.2.2.4.4.5-.2-.1-.4-.1-.6-.1-.1 0-.2-.1-.4-.1-.2-.1-.5.1-.4-.4-.1 0-.2 0-.2-.1-.2.1-.3 0-.5-.1-.1-.1-.2-.2-.1-.3.1 0 0-.1 0-.1 0-.1-.1-.1-.1 0-.2.1-.4.1-.6 0h-.3c-.2.1-.3.1-.3-.1 0 0-.1-.1-.2 0s-.2.1-.3.2-.2-.1-.2-.1c-.1-.2-.3-.2-.4-.2-.2-.1-.4-.1-.5-.1-.3-.1-.6-.1-.8.1-.1.1-.2 0-.3-.1-.5-.2-1-.5-1.5-.1-.2.1-.2.1-.4-.2-.1-.2-.2-.1-.4.1-.2.3-.6.4-1 .4-.2 0-.4-.1-.7-.1-.1 0-.2-.1-.2-.1l.2-.2c.1-.1.2-.1.3.1 0 .1.1.1.1.1v-.1h0c-.1-.1-.1-.2-.2-.2 0-.1-.2 0-.2 0-.2.2-.4.2-.7.1s-.6-.1-.8-.1c-.3 0-.7 0-.7-.4-.1 0-.1.1-.2.1h-.2v.1h.2c.1 0 .1-.1.2-.1-.1.3-.2.4-.6.3-.1-.1-.1 0-.2 0-.1.1-.2.1-.2-.1-.1-.4-.2-.4-.5-.2a1.91 1.91 0 0 1-1.8 0c-.1-.1-.3-.1-.4-.1H82c-.3-.1-.7-.2-.9-.2-.6 0-1.2-.1-1.8-.1-.5-.1-1.1-.1-1.6-.2h-.6c-.6 0-1.1 0-1.6-.2-.4-.1-.9-.3-1.2-.5-.2-.1-.2-.2-.2-.5.1-.4-.1-.9-.5-1.1-.2-.2-.5-.5-.8-.7 0 0-.1-.1 0-.2s0-.2-.1-.4c-.2-.4-.1-.7.3-1 .3-.1.5-.4.5-.7.1-.1.1-.4.3-.5.3-.2.7-.3 1-.4.2-.1.3-.1.5-.1.3.1.5-.1.7-.3 0-.1.2-.2.3-.2h.1c-.1 0-.1.1-.1.1-.2.1-.1.2.1.2.5 0 1-.2 1.4-.4.2-.1.3-.4.5-.5 0-.1.1-.1.1-.2-.1-.5.4-.6.6-.9.5.1.7-.4 1.2-.6.1-.1.3-.1.3-.1.5.5.8.1 1.2-.1.2-.2.4-.2.7-.2.2 0 .4 0 .6-.1.1 0 .1-.1.1-.1s-.1 0-.1-.1c-.1.1-.1.1-.2.1-.1.1-.1.1-.2.1.1-.1.1-.2.2-.2 0-.1.1-.1.1-.2s-.1-.1-.1-.2c0 .1-.1.1-.1.1-.1 0-.2.1-.2.2-.1-.2-.1-.4-.1-.5s.2-.1.5-.2c.1-.1.3-.1.4-.2-.1.2-.3.3-.2.5.2.2.4 0 .5-.1s.2-.1.2-.1l.1-.1c-.4 0-.3-.4-.5-.5.2-.3.5-.5.9-.4.1 0 .2.1.1.2-.1 0-.2.1-.1.2.2.1.3.1.5.1.1 0 .1-.1.2-.2s.1-.4.2-.4c.1-.1.2-.1.4-.1l.1-.1c-.1-.1-.2-.1-.2-.1-.1.1-.2 0-.1-.2.3-.7.3-.7 1-1 .1 0 .1 0 .1-.1.1-.4.6-.5.8-.8.2-.2.4-.4.7-.4.2-.1.4-.2.5-.4.2-.3.5-.5.7-.7a.76.76 0 0 1 .4-.2c.1 0 .2 0 .2-.2-.1 0 0-.1 0-.1.4 0 .5-.5.8-.6.2-.1.3-.3.5-.1.1.2.2-.1.3-.1.2 0 .3-.1.4-.1 0-.2 0-.3-.1-.5s-.1-.2.1-.4c.2-.1.3-.3.4-.4.3-.3.5-.6 1-.6.2 0 .3-.2.4-.3 0-.1-.1-.2-.1-.2.1 0 .2 0 .2-.1.1 0 .1-.1.1-.1-.1-.2.1-.2.2-.2.2-.1.3-.1.3-.3.1-.3.4-.6.7-.5h0c.2.1.3-.1.2-.2-.1-.2 0-.2.2-.4.3-.2.6-.4.8-.7.2-.1.2-.4.5-.5.2-.1.3-.3.4-.5s.3-.3.5-.2c.1.1.2-.2.4 0 0 0 .1-.1.1-.2s0-.1-.1-.1c-.3-.2-.3-.2-.2-.4l1-1.3c.2-.2.3-.5.3-.8 0 0 0-.1-.1-.1-.2-.1-.4-.2-.6-.2-.8.1-1.6.3-2.4.6-.5.2-1 .4-1.5.5-.4.1-.7.3-1 .4-.2.1-.5.2-.8.3-.2.1-.4.1-.5.2-.5.4-1 .5-1.5.8-.1.1-.3.1-.4.2-.1.2-.4 0-.5.1s-.1.4-.4.4c-.1 0-.2 0-.2.1-.2.4-.7.2-1 .5-.4-.1-.6.2-.8.5-.4 0-.6.4-1 .6l-2.5 1.6c-1 .7-1.8 1.5-2.7 2.2l-1.3 1.2c-.2.1-.3.3-.4.5-.8.7-1.4 1.5-2.1 2.2l-1.5 1.5c-.5.5-.9 1.1-1.3 1.6-.1.2-.4.4-.5.5l-1.7 2.4c-.6.9-1.1 1.9-1.5 2.9-.2.4-.3 1-.5 1.5-.1.4 0 .8.1 1.1.2.3.2.7.2 1.1v.6c-.1.3-.1.6-.2.9s-.2.5-.4.8c-.5 1-1.6 1.5-2.7 1.3-.3 0-.6 0-.9-.2zm14.5-9.4s.1-.1.1-.2c0 0 0-.1-.1-.1h0c-.2 0-.3 0-.5.1-.1 0-.3.1-.4.1.2.1.3.2.5.2.1.1.2 0 .4-.1h0zm.2-1.3c-.1-.1-.1-.2-.1-.2-.1 0-.1.1-.1.1 0 .1.1.1.2.1h0zm-.1-1.7l.2-.2h.2c0 .1-.1.2-.1.2-.1.1-.2.1-.4.1l.1-.1zm1.1-.3c-.2 0-.4.1-.6.1.2-.2.2-.2.6-.1h0zm-.1 1.8h0c-.2.1-.2.1-.2.2 0 0 .1-.1.2-.2h0zm1-3c-.1.1-.1.2-.2.4-.1-.3-.1-.4.2-.4h0zm.1 4.3c-.1-.1-.1-.2-.2-.3h-.1c.1.1.1.2.3.3h0 0zm1.2-.3h0l-.6-.1s-.1 0-.1.1h0c.1.1.3.2.5.2 0 0 .1-.1.2-.2h0zm1.3-2.8c-.1-.1-.3-.1-.4-.2l-.1.1v.1a.45.45 0 0 0 .5 0h0zm.7 6.1s-.1 0 0 0h-.2v.1c.1 0 .2 0 .2-.1h0zm.6-.2c-.1-.1-.1-.2-.2-.2s-.1.1-.1.1c.1.1.1.1.3.1-.1.1-.1 0 0 0h0zm.3-9c0-.1-.1-.1 0 0-.1 0-.2 0-.3.1h.1c0 0 .1-.1.2-.1h0zm.9-1c-.1 0-.1-.1 0 0-.2-.1-.3 0-.3.1s.1.1.1.2c.1-.2.2-.2.2-.3h0zm2.6-1.8c0-.1-.1-.1-.2-.1-.1.1-.1.2-.1.4 0 .1.1.1.1.2 0-.2.1-.4.2-.5h0zm1.9-2.1h0c-.2-.1-.3-.2-.3-.1l-.3.3v.1c.3-.2.4-.2.6-.3h0zm2 15c-.2-.2-.3-.6-.7-.7-.1 0-.1 0-.1.1-.2.2.1.7.5.7l.3-.1zm-.3.6c0-.1-.1-.2-.1-.2s-.1 0-.1.1a.76.76 0 0 0 .2.4v-.3h0zm1.6 2.7c.2-.2.1-.4 0-.4-.3-.1-.5-.5-.9-.2-.1.1-.1 0-.3 0 .1 0 0 0-.1.1l.1.1a.55.55 0 0 1 .5.3c.1.1.3.2.5.2.1.1.1-.1.2-.1h0zm-1-26.6c-.1-.1-.1-.1-.1-.2 0 0-.2.1-.1.1s.1.1.2.1c0 .1.1 0 0 0h0zm2.4 26.7c-.1-.1-.2-.1-.3-.1l-.1.1c.1.1.1.2.1.2.2-.1.2-.1.3-.2h0zM98 96c-.2 0-.2-.1-.2 0-.1 0-.2.1-.2.2h.1c.1 0 .1-.1.3-.2zm.3 21.7c-.2-.1-.2-.2-.3-.2s-.1.1-.1.2c0 0 .1.1.2.1 0 0 .1 0 .2-.1h0zm1.2-1.1c-.3-.1-.5-.2-.8-.2-.1 0-.1-.1-.2-.1.1-.1.1-.2.1-.3.1-.1.2-.1.2 0 .2.2.4.3.7.4v.2h0 0zm-.7.7h0c0-.1 0-.1 0 0-.1 0-.2 0-.2.1.1 0 .1.1.1.1.1-.1.1-.2.1-.2h0zm0-31.1h.2v.1l-.2-.1h0zm1.3 1.3c-.1 0-.1 0 0 0l-.3.1c.1 0 .1.1.2.1 0-.1 0-.1.1-.2h0zm-.2 2c-.1 0-.1-.1 0 0h-.2.2 0zm.5 4.6c-.1-.1-.1-.1 0 0h-.2c.1 0 .1.1.2 0-.1 0-.1 0 0 0h0zm.7-6s-.1 0 0 0c-.2 0-.3.1-.4.1.1.1.2.1.3.2 0-.1.1-.2.1-.3h0zm.5 10c0-.1 0-.1 0 0-.1 0-.2 0-.2.1l.2-.1h0 0 0zm1.2-1.5c-.1-.1-.2-.1-.3-.2l-.1.1c.1.1.2.1.2.1.1.1.2.1.2 0h0zm.3-8.7h0c.2-.1.4.1.5.3-.1-.1-.3-.3-.5-.3h0zm.4 1.9s0-.1 0 0l-.2-.1v.1h.2zm.3 4.2l-.2-.2c-.1 0-.1.1-.1.1 0 .1.1.1.1.2.1-.1.1-.1.2-.1z"/><path d="M111.6 120.3c-.5-.1-1.1-.2-1.5-.2-.2-.1-.5-.2-.8-.2-.1-.1-.2-.1-.3-.2-.1-.2-.2-.3-.4-.2 0 0-.2 0-.2-.1-.2-.4-.8-.6-1-1.1 0-.1-.2-.2-.2-.2s-.1-.1-.1-.2c-.1-.3-.2-.3-.3-.2-.1 0-.2-.1-.2-.1 0-.3.1-.5-.2-.6-.1 0-.2-.2-.2-.2-.2-.5-.5-.9-.9-1.3h-.1c.1-.6-.5-.8-.5-1.2 0-.1 0-.3-.1-.4-.1-.2-.3-.4.1-.5.2 0 .2-.3.2-.5h-.1c-.2.2-.3 0-.5 0-.1-.1-.1-.2-.2-.2l.3-.3h.2c-.1-.2-.1-.4-.2-.5-.1 0-.1.1-.2.1-.1.1-.1.2-.2.2 0-.1-.1-.2-.1-.3 0 0 .1-.1.1-.2 0-.2 0-.3-.1-.5 0-.2-.2-.4.2-.5.2-.1.3-.1.2-.3 0-.1-.1-.1-.1-.2.1-.4.2-.8.2-1.1 0-.4.5-.5.2-1 0-.1.1-.2.2-.2.1-.2.2-.5.2-.8v-.3c.1-.5.3-1 .5-1.4.1-.4.3-.7.5-1.1.3-.5.5-1 .8-1.5.2-.2.2-.6.7-.7.1 0 .1-.2.1-.2-.1-.2-.1-.2.1-.2 0 0 .1 0 .1-.1h0c-.1-.4.5-.6.4-1 .3 0 .3-.4.5-.5.1 0 .2-.1.2-.2 0-.2.1-.3.3-.4.1 0 .1 0 .2-.1-.1-.5.4-.8.6-1.1l1.3-1.5c.5-.7 1.1-1.3 1.7-1.8l1.4-1.1c0-.1.1-.2.2-.1.2 0 .4-.2.5-.4s.3-.5.4-.7c.2-.2.5 0 .5.2 0 .1.1.1.2.2 0 0 .1 0 .1-.1h0c.1 0 .1-.2 0-.2-.2-.5-.2-.6.2-.9l.6-.3c.3.1.6 0 .7-.2 0-.1 0-.1.1-.2.1-.2.1-.2.2-.3.3 0 .6-.1.8-.3.3-.5.8-.5 1.1-.8l.9-.5 1.1-.6c.1-.1.2-.2.2-.4.1-.1.1-.2.2-.2l.9-.2h.1c.3-.2.7-.3 1.1-.3.3 0 .6-.1.8-.2.7-.2 1.4-.4 2.1-.3.4.1.7.1 1.1-.1.2-.1.4.2.5.2.6 0 1.1.1 1.7.2.5.1 1 .4 1.3.8.2.3.5.5.7.7l.7 1c.2.3.2.6.4.9.2.4.1.9-.2 1.3-.2.3-.3.7-.5 1.1s-.5.7-.8 1c-.1 0-.2 0-.3.2s-.2.4-.2.6c-.1.2-.2.5-.2.8-.1.3 0 .6.1.9 0 .1 0 .1-.1.2-.1 0-.2 0-.2.1s.2.1.2.1c.1.3.1.6.2.9 0 .2-.1.4-.2.5 0 0-.1.2 0 .2.2.5 0 .9 0 1.3v.4c0 .2.2.5-.1.5-.1.1-.1.1-.1.2.1.5-.4.8-.5 1.3 0 .2-.1.3-.2.5-.1.1 0 .2 0 .3.1.1.1.2.1.4 0 .1 0 .1-.1.2 0 .2-.1.3-.1.5-.2-.1-.2-.2-.4-.2-.1 0-.2.2-.2.2.1.2-.2.5.2.7.2.1 0 .5-.1.6-.1 0-.2.1-.2.2v.1c-.1.4-.2.7-.5 1-.2.4-.4.8-.5 1.2v.1c-.5.2-.4.8-.7 1.2s-.5.8-.8 1.1l-.8 1.1-.6.9c-.1.2-.2.3-.4.5-.2.3-.5.6-.8.9-.2.2-.4.5-.6.6s-.2.3-.2.3c-.2.1-.3.3-.4.5s-.4.2-.5.2c0 0-.1 0-.1.1h0c.2.2-.1.2-.2.4l-1.4 1.1-1 .6a3.04 3.04 0 0 0-.7.5c-.2.2-.4.3-.7.5-.5-.5-.3.2-.5.2l-.8.5c-.4 0-.9.2-1.2.5-.1.1-.2 0-.3.1l-.5.2c-.2.1-.5.1-.7.2l-1.1.3c-.3.1-.7.1-1.1.2-.3 0-.6 0-.9.1.1-.6-.1-.6-.3-.7zm-1.7-8.8c.2-.1.2-.2.4-.2v-.1c-.1 0-.1 0-.2-.1 0 .1-.1.2-.2.4 0-.1 0 0 0 0h0 0 0zm2.4.7c.5-.2.5-.2.8 0h.1c.3 0 .6-.1.8-.2.2 0 .4-.1.5-.2h.4c.1-.1.2-.1.3-.1.2.1.4.1.5-.2 0-.1 0-.1.1-.2.5-.2.8-.5 1.3-.8l1.4-.7c.2-.2.3-.3.5-.4.1-.1.2-.2.4-.2.1-.1.3-.2.4-.3.2-.3.6-.5.8-.8l.9-1.1c.2-.2.3-.4.5-.5.2-.3.4-.5.5-.8a3.04 3.04 0 0 0 .5-.7c.2-.2.2-.7.7-.5 0 0 .2 0 .2-.1l.3-.8c.1-.1.1-.2.2-.2.1.1.1.2.2.2 0-.1-.1-.2-.1-.2l.1-.1c.4-.7.7-1.4 1-2.1 0-.2 0-.4.3-.3v-.2c0-.1 0-.2-.1-.3 0-.5.4-.8.4-1.3 0-.3.3-.6.4-.9v-.1c-.3-.2 0-.3 0-.5 0-.1.2-.1.2-.2.1-.2-.2-.5.1-.6 0-.3 0-.5-.1-.8-.1 0-.1-.1-.2-.1-.5.1-1 .2-1.4.4l-1 .3c-.1.1-.1.1-.2.1l-2 1.1c-.5.3-.8.6-1.2.9-.2.2-.3.4-.5.5-.3.2-.5.5-.8.6-.4.3-.8.7-1.2 1.1l-1.2 1.2c-.5.5-.8 1-1.1 1.4-.6.6-1.1 1.2-1.4 1.9-.4.6-.8 1.1-1.1 1.7-.1.2-.1.3-.2.5l-.5 1.1c-.2.5-.3 1.1-.5 1.6 0 .3-.1.6-.2.8-.2.3 0 .6-.1.9 0 0 0 .1.1.1h0c-.3.2-.1.2.2.1h0zm25.9 8.8c-.3-.1-.6-.1-.9-.1-.6-.2-1.2-.3-1.8-.4-.1 0-.3 0-.4-.1-.3-.2-.6-.3-1-.4-.1-.1-.4 0-.5-.3 0-.1-.1-.1-.2-.1-.4-.2-.9-.4-1.3-.5s-.5-.6-.8-.8c-.1-.1 0-.3 0-.6-.1-.2 0-.4.2-.4h.1c.2 0 .2-.2.2-.3h0c-.1-.5-.3-1-.9-1.2l-.1-.2c.1-.1.1-.3.2-.3.2 0 .3 0 .4.1.3.1.6.1.8.3.2.1.3.1.4-.1 0-.1 0-.2-.1-.3 0-.1-.1-.2-.1-.3h.3c.9.4 1.8.8 2.8 1h.2c.9-.1 1.8-.1 2.7.1.8.1 1.6.1 2.5-.1.6-.1 1.2-.1 1.8-.2l1.5-.3c.4 0 .7 0 1.1-.1.7-.1 1.4-.4 2-.5.8-.2 1.6-.4 2.4-.8.7-.2 1.4-.5 2-.8.5-.2 1-.5 1.5-.6.7-.3 1.3-.7 1.9-1.1s1.1-.8 1.6-1.3c.4-.4.7-.9.9-1.4 0-.1-.1-.2-.1-.3v-.3c.1-.1.1-.2.1-.3.1-.1 0-.1 0-.2 0 0-.1 0-.1.1v.4c-.2-.3-.5-.5-.9-.6-.3-.1-.4-.2-.1-.4.1-.1.1-.2.1-.3.1 0 .1-.1.1-.1-.1-.1-.1-.1-.2-.1l-.6.3c-.1.1-.2.2-.4.1s-.4-.2-.6-.2c-1-.3-2.1-.5-3.1-.7l-2.9-.5h-.1c-.7-.3-1.5-.4-2.3-.4-.1 0-.2 0-.3-.1-.1-.2-.4-.2-.6-.2-.3 0-.4.1-.7-.2-.1-.1-.3-.1-.5-.1-.5-.1-1-.1-1.5-.1-.7-.1-1.4 0-2 .1-.1.1-.3-.1-.3-.1-.6-.1-1.2-.4-1.7-.8 0 0-.1-.1 0-.1 0-.2.1-.3.1-.4-.1-.1-.3-.3-.2-.4.1-.3.1-.3-.2-.3-.3.1-.3.1-.3-.2v-.1c.1-.5.1-1 0-1.5 0 0-.1-.1 0-.1.1-.2.2-.3.3-.4-.2-.1-.3-.3-.1-.4.1-.2.3-.3.4-.5.1-.1.3-.2.4-.3s.3-.3.4-.3c.3-.2.4-.3.7-.4.2 0 .3 0 .4-.1.7-.5 1.4-.9 2.3-1.1.7-.4 1.4-.7 2.1-1 .9-.4 2-.8 2.8-1.3.4-.1.8-.3 1.1-.5.8-.5 1.8-.8 2.6-1.2.4-.2.9-.4 1.4-.6l2.5-1.2c.6-.2 1.2-.5 1.8-.9.7-.4 1.3-.5 2-.9l1.8-.9c.4-.1.7-.3 1.1-.4l3.3-1.7c.6-.5 1.5-.5 2.1.1.3.2.6.5.8.8 0 .3.3.4.4.6.4.6.6 1.3.4 2-.1 1.2-.8 2.2-1.9 2.6l-3.8 1.4-2.5.9a13.9 13.9 0 0 0-2.8 1.2l-2.6 1.1c-.4.2-.9.6-1.3.8s-.8.4-1.2.5c-.1.1-.3.1-.4.2l-1.3.6c-.5.1-.8.4-1.3.6 0 .1 0 .1.1.2s.2.1.3.1c.8.3 1.6.5 2.4.5.8.1 1.7.3 2.5.6.5.2 1 .3 1.5.3.4.1.8.2 1.1.4.4.1.7.3 1.1.4l.6.3c.2.1.3.1.5.3.1.2.1.4.3.6.1.1.4.1.5.4.3.5.5 1 .6 1.6.1.4.4.7.5 1.1.1.1.1.2.1.3-.2.2-.2.3.1.3.1 0 .1.2.1.3.1.5 0 .9-.1 1.4 0 .1-.1.3 0 .4.6.4.1.9 0 1.3l-.9 2.1-.9 1.1-1.9 1.8c-.7.6-1.5 1.1-2.3 1.5-.2 0-.4.2-.5.3-1 .6-2 1.1-3 1.5-1.1.3-2.1.8-3.2 1.2-.6.2-1.3.3-2 .4-.6.2-1.2.2-1.8.4a8.33 8.33 0 0 1-2.2.3l-2.1.3c-.5 0-1 .1-1.5.1-.6-.6-1.2-.7-1.9-.9zm-.7-3.6c-.1 0-.1-.1-.2-.1h-.1c0 .1 0 .1.1.1s.1.1.2 0c-.1.1-.1 0 0 0zm2.2.5h0c-.1-.2-.3-.2-.4-.2 0 0 0 .1-.1.1h0l.3.3c.1-.2.2-.2.2-.2h0zm2.4-19.3l-.1-.1c-.2-.1-.3-.1-.4-.2h-.2c.1.1.1.1.1.2.2 0 .3.1.6.1-.1.1 0 0 0 0zm1.2 19.1c-.3 0-.4-.1-.6-.1-.2.1-.4-.2-.4.1.2.1.3.1.5.2.2-.1.4-.2.5-.2zm1.8-.3c-.1 0-.2 0-.3.1v.1h.3v-.2zM94.9 22.2c-1-.6-1.7-1.6-1.7-2.8-1.1-.7-1.8-2.9.1-3 1.1.7 1.4-.1 2.5-.2 1.5-.1 1.5 1.7 2.1 2.3 2.6 1.6-.9 4.9-3 3.7zm19.4-19.9c2.6 1.8-.7 2.9-2.3 1.4-6.5-1.9 0-4.6 2.3-1.4z"/><path d="M120.5 11.6c2.6 3.3-2.1 5.3-4.1 2.3l.2.2-.3-.3.1.1c-.7-.7-1.5-1.4-2.3-2-2.8-1.3-4.8-7.3.2-5.2 3.1-.8 3.1 1.7 3.6 3.9.9 0 2.2-.3 2.6 1zM2.6 78.2h0c0 .1-.1.1 0 0h0c-.5.6-1.1.7-1.6.3-.2-.2-.4-.4-.4-.7a.94.94 0 0 1 1-1c.5 0 1 .4 1 .9.1.2.1.4 0 .5zm5.1 3.4c1.5-.9 1.4 1.6-.1 1.6.3 1-1.1 1.9-1.5.8A3.75 3.75 0 0 1 4 84c-1.7-.9 0-2.9 1.4-2.9.5 0 .9.1 1.3.3.3-.1.7-.1 1 .2zm7.6 2.5c1.3-.5 6.3 1.4 2.9 2.2-1.2.2-2.4.2-3.6 0-.9-.4-3.5-.5-3.4-1.9.6-1.3 3 0 4.1-.3h0z"/></svg>