<?xml version="1.0" encoding="utf-8"?>
<!-- Generator: Adobe Illustrator 25.4.1, SVG Export Plug-In . SVG Version: 6.00 Build 0)  -->
<svg version="1.1" id="Layer_1" xmlns="http://www.w3.org/2000/svg" xmlns:xlink="http://www.w3.org/1999/xlink" x="0px" y="0px"
	 viewBox="0 0 192.7 122" style="enable-background:new 0 0 192.7 122;" xml:space="preserve">
<style type="text/css">
	.st0{fill:#F8FAFA;}
</style>
<g>
	<g>
		<path class="st0" d="M32.4,26.8c0,0,0-0.2-0.1-0.2c0-0.1-0.1-0.1-0.2-0.2c-0.1,0-0.2,0-0.2,0.1c0,0,0,0.1-0.1,0.1c0,0,0,0.1,0,0.1
			c0,0-0.1-0.1-0.1-0.1c0-0.3-0.2-0.6-0.3-0.9c-0.2-0.2-0.2-0.4-0.2-0.6c0-0.3,0-0.5,0-0.8c0-0.1,0-0.1,0-0.2
			c-0.1-0.3-0.1-0.5-0.2-0.8c0-0.4,0-0.8,0.2-1.2c0.1-0.4,0.2-0.8,0.2-1.2c0-0.3,0.1-0.7,0.2-0.9c0-0.1,0.1-0.3,0.1-0.4
			c0-0.2,0.1-0.5,0.2-0.7c0.2-0.3,0.3-0.6,0.3-0.9c0-0.3,0.2-0.4,0.2-0.7c0.1-0.2,0.2-0.4,0.3-0.7c0.2-0.5,0.3-1,0.5-1.4
			c0.1-0.3,0.3-0.7,0.4-1c0.1-0.3,0.2-0.7,0.3-1.1c0,0,0-0.1,0-0.1c0,0,0,0,0,0c0.1-0.6,0.3-1.2,0.6-1.8c0.1-0.3,0.2-0.7,0.3-1
			c0.1-0.2,0.2-0.5,0.3-0.7c0.2-0.4,0.3-0.7,0.5-1.1c0.2-0.7,0.5-1.4,0.8-2l0,0c0.2-0.3,0.1-0.5-0.2-0.4C35.5,6,34.7,6,34,6.1
			c-0.4,0.1-0.8,0.1-1.2,0.1c-0.4,0-0.8,0.1-1.2,0c-0.1,0-0.1,0-0.2,0c-0.2,0-0.5,0-0.7,0c-0.4-0.1-0.8-0.4-1-0.7
			c-0.3-0.2-0.4-0.5-0.5-0.8c0-0.1,0-0.3,0-0.4c0-0.3,0-0.6,0-0.8c0-0.2,0.1-0.4,0.2-0.5c0,0,0-0.1,0.1-0.2c0.1-0.3,0.5-0.6,0.8-0.6
			h1.4v0.1h1.8c0.1,0,0.1,0,0.2-0.1c0.2,0,0.3,0,0.5,0c0.5,0,0.9,0,1.4,0c0.4,0,0.8,0,1.2,0c0.7,0,1.4-0.1,2.2-0.2
			c0.1,0,0.2-0.2,0.3,0c0,0,0.2,0,0.2,0c0.4,0,0.8-0.1,1.3-0.2c0.4,0,0.8-0.1,1.2-0.2H42c0.6,0,1.2-0.1,1.9-0.2
			c0.3-0.1,0.8-0.1,1.2-0.2c0,0,0.1,0,0.1,0c0.3-0.1,0.7-0.2,1.1-0.3c0.5-0.1,1.1-0.2,1.6-0.3c0.3,0,0.7-0.1,1-0.2
			c0.2-0.1,0.4-0.1,0.5-0.1c0.3,0,0.6-0.1,0.9-0.1c0.2-0.1,0.4-0.1,0.7-0.1c0.3-0.1,0.5-0.3,0.8,0c0.1,0.1,0.2,0.2,0.3,0.3
			c0,0.1,0,0.2,0.1,0.2c0,0,0.1,0.1,0.2,0s0.2-0.3,0.3-0.4c0.1-0.1,0.2-0.1,0.2,0c0.1,0.2,0.2,0.3,0.4,0.2c0,0,0,0,0,0
			c0.3-0.1,0.4-0.1,0.5,0.2c0.1,0.1,0.1,0.1,0.2,0.1c0.2,0,0.3,0.1,0.5,0.2c0,0.1,0.2,0.2,0,0.3c-0.1,0,0,0.1,0,0.2
			c0.1,0.1,0.1,0.2,0,0.3c0,0-0.1,0.1-0.1,0.2c0,0.4-0.2,0.7-0.4,1C53.9,2.9,53.6,3,53.4,3c-0.5,0.1-1,0.2-1.5,0.2
			c-0.2,0.1-0.5,0.1-0.8,0.1c0,0-0.2,0-0.2,0c-0.3,0.3-0.7,0.2-1.1,0.3c-0.6,0.2-1.3,0.3-2,0.5c-0.7,0.1-1.4,0.2-2.1,0.4
			c-0.3,0-0.5,0.1-0.8,0.3c-0.1,0-0.2,0-0.3,0c-0.1,0-0.2,0-0.3,0C44,4.9,43.7,5,43.4,5c-0.3,0-0.4,0-0.5,0.4
			c-0.1,0.6-0.4,1.1-0.8,1.5c-0.6,0.5-1.1,1.1-1.6,1.7c-0.5,0.7-0.9,1.4-1.3,2.2c-0.3,0.6-0.5,1.2-0.8,1.8c0,0.1,0,0.2-0.1,0.2
			C38,13,38,13.5,37.8,13.8c-0.2,0.4-0.3,0.8-0.5,1.1c-0.2,0.5-0.4,0.9-0.6,1.4c-0.1,0.2-0.2,0.5-0.3,0.7c-0.3,0.7-0.5,1.4-0.8,2.1
			c-0.1,0.3-0.2,0.6-0.3,0.9l-0.5,1.2c0,0.1,0,0.2-0.1,0.4c0,0.3-0.1,0.6-0.2,0.9c-0.1,0.4-0.2,0.7-0.3,1.1c0,0.3-0.1,0.5-0.2,0.8
			c0,0.2-0.1,0.4-0.3,0.6c-0.1,0.1-0.1,0.3,0,0.4c0,0.2,0,0.3,0,0.5c0,0.2-0.1,0.3-0.2,0.5c0,0.1-0.1,0.2-0.2,0.2
			c-0.1,0-0.3,0.1-0.3,0.2c0,0-0.1,0.1-0.2,0.1c-0.2-0.1-0.3-0.1-0.4,0.1C32.5,26.9,32.4,26.8,32.4,26.8z M32.4,23.6
			c0-0.1,0-0.1,0-0.2c0,0,0,0,0,0c0.1,0,0.2,0,0.2,0c0,0,0-0.1,0-0.1c-0.1-0.1-0.2,0-0.2,0.1v0.1l-0.2,0.1v0.2c0,0,0.1,0,0.1,0
			C32.4,23.7,32.4,23.6,32.4,23.6L32.4,23.6z M32.8,22.1c-0.1,0-0.1-0.1-0.1-0.1c0,0.1-0.1,0.1-0.1,0.2c0,0.1,0.1,0.1,0.1,0.1
			C32.7,22.2,32.8,22.2,32.8,22.1L32.8,22.1z M33.5,24.4c-0.1,0-0.2-0.1-0.3-0.1c0,0,0,0-0.1,0c0.1-0.3,0.1-0.4-0.2-0.4
			c-0.1,0-0.2,0.1-0.2-0.1c0,0-0.1,0-0.1,0c0,0,0,0.2,0,0.2c0.1,0.2,0.3,0.3,0.5,0.2c-0.1,0.2,0,0.2,0.1,0.2S33.4,24.5,33.5,24.4
			L33.5,24.4z M33,21.7L33,21.7C33,21.6,33,21.6,33,21.7c0-0.2,0-0.2,0-0.3c0,0-0.2,0.1-0.2,0.1c0,0,0,0,0,0c0,0,0,0,0,0
			c0,0.1,0,0.2,0,0.3c0,0,0.1,0.1,0.2,0.1C33,21.9,33,21.8,33,21.7L33,21.7z M33.2,23.7c0-0.1,0-0.2-0.2-0.2c0,0-0.1,0-0.1,0.1
			c0,0.2,0.2,0.1,0.2,0.2C33.1,23.8,33.2,23.8,33.2,23.7L33.2,23.7z M33.2,20.8C33.2,20.8,33.2,20.8,33.2,20.8
			C33.2,20.8,33.2,20.8,33.2,20.8c-0.2-0.1-0.3,0-0.3,0.1c0,0,0,0.1,0,0.2C33.1,21,33.1,20.9,33.2,20.8L33.2,20.8z M33.2,20.5
			c0-0.1,0.2-0.1,0.2-0.2c0-0.1,0.1-0.2,0.1-0.4c0-0.2,0.1-0.4,0.2-0.7v-0.1c0,0-0.1-0.1-0.1-0.2c-0.1,0-0.1,0.1-0.1,0.2
			c-0.1,0.2-0.1,0.4-0.2,0.6c-0.1,0.1-0.1,0.2-0.1,0.3c0,0.1,0,0.2-0.1,0.3C33.1,20.5,33.1,20.5,33.2,20.5L33.2,20.5z M33.8,18.5
			C33.8,18.4,33.7,18.4,33.8,18.5c-0.1,0-0.1,0-0.2,0.1c0,0,0,0,0,0c0,0,0,0,0,0C33.7,18.6,33.8,18.5,33.8,18.5L33.8,18.5z M34,18.1
			c0.1-0.1,0.1-0.3,0.1-0.5c0,0,0-0.1,0-0.1c0,0,0,0,0,0c0,0,0,0,0,0c0,0-0.1,0-0.1,0c0,0,0,0,0,0c-0.1,0.2-0.1,0.4-0.2,0.5
			c0,0.1,0,0.2,0,0.2C33.9,18.2,34,18.2,34,18.1L34,18.1z M34.3,17.1c0,0,0-0.1-0.1-0.1l-0.1,0.1c0,0,0.1,0,0.1,0.1
			C34.2,17.2,34.3,17.2,34.3,17.1L34.3,17.1z M34.6,16.6c0,0,0-0.1,0-0.1c0.1-0.3,0.1-0.3,0.4-0.2c0,0,0.1,0,0.1-0.1
			c0,0,0-0.1-0.1-0.1c-0.3,0-0.2-0.2-0.2-0.4c0-0.2,0.1-0.5,0.3-0.7c0,0,0,0,0-0.1v-0.2c0,0-0.1,0.1-0.2,0.1c0,0,0,0.1-0.1,0.1
			c-0.3,0-0.3,0.2-0.4,0.4c-0.1,0.2,0,0.4-0.2,0.5c0,0,0,0.1,0,0.1c0.1,0.2,0,0.3-0.1,0.4c0,0.1,0.1,0.3,0.1,0.4
			C34.4,16.7,34.5,16.7,34.6,16.6L34.6,16.6z M35.4,14.2c0.1-0.2,0.2-0.4,0.3-0.6c0,0,0-0.1-0.1-0.2c0,0-0.1,0.1-0.1,0.1
			c-0.1,0.1-0.2,0.2-0.3,0.3c0,0.1,0,0.2,0,0.3C35.2,14.2,35.3,14.2,35.4,14.2C35.4,14.3,35.4,14.3,35.4,14.2L35.4,14.2z M35.9,13.1
			c0-0.1-0.1-0.1-0.1-0.2c0,0-0.1,0.1-0.1,0.1C35.7,13.1,35.8,13.1,35.9,13.1C35.9,13.2,35.9,13.1,35.9,13.1L35.9,13.1z M36,12.7
			c0-0.1,0-0.2,0-0.3c0-0.1,0.1-0.1,0.2-0.2c0,0,0,0,0,0c-0.1,0-0.1,0.1-0.2,0.2c-0.2,0-0.1,0.2-0.2,0.2c0,0,0.1,0.1,0.1,0.2
			C35.9,12.7,35.9,12.7,36,12.7L36,12.7z M36.3,15.4c0,0,0,0,0-0.2c0,0.1-0.1,0.1-0.2,0.2C36.2,15.4,36.2,15.4,36.3,15.4
			C36.3,15.4,36.3,15.4,36.3,15.4L36.3,15.4z M36.4,12c0-0.2,0-0.2,0.1-0.2c0,0,0-0.1,0-0.1c-0.1,0-0.2,0-0.3,0.1c0,0-0.1,0.1,0,0.2
			s0.1,0.1,0.1,0.1C36.3,12,36.4,12,36.4,12L36.4,12z M51.6,1.1c0,0,0-0.1,0-0.1c0,0,0,0,0,0c0,0.1-0.1,0.1-0.2,0.2c0,0,0,0,0,0.1
			C51.5,1.2,51.6,1.2,51.6,1.1z"/>
		<path class="st0" d="M52.7,26.9c-0.1,0-0.2-0.1-0.3-0.1c0,0,0,0-0.1,0c0-0.1-0.1-0.2-0.2-0.2c-0.1,0-0.2,0-0.3-0.1
			c0,0-0.1,0-0.1,0c0,0-0.1-0.1-0.1-0.1c0-0.1,0-0.1,0-0.1c-0.1-0.1-0.1-0.2-0.1-0.3l-0.1,0c-0.2,0-0.2-0.1-0.2-0.2
			c0,0-0.1,0-0.1-0.1c0-0.1-0.2-0.3-0.2-0.5c0-0.1,0-0.2,0-0.3s0-0.1,0-0.2c0.1-0.1,0.2-0.1,0.1-0.3c0,0,0-0.1,0.1-0.1
			c0.2-0.1,0.2-0.3,0.3-0.3c0.1,0,0.1-0.1,0.2-0.2c0,0,0-0.1,0-0.1h-0.2c0-0.1,0-0.1,0.1-0.1c0-0.1,0-0.2,0.1-0.3c0,0,0.1,0,0.2-0.1
			c0,0,0,0,0.1,0h-0.1c-0.1,0-0.1-0.1-0.1-0.1c0.1,0,0.1-0.2,0.2-0.1c0,0,0,0,0.1,0c0,0-0.1,0-0.1-0.1c0,0-0.1-0.1-0.1-0.1l0.2-0.5
			c0-0.1,0-0.2,0-0.3c0-0.3,0.1-0.5,0.3-0.7c0.1-0.1,0.1-0.2,0.2-0.4l0.2-0.6c0-0.1,0-0.1,0.1-0.1c0-0.1,0.1-0.2,0.1-0.3
			c0,0,0-0.1,0-0.1c0,0,0,0,0,0.1h0c0,0,0,0,0,0c-0.1-0.1,0-0.2,0.1-0.3c0-0.1,0.1-0.3,0.2-0.4c0-0.1,0.1-0.1,0.2,0h0.1l0,0
			c0-0.1-0.2,0,0-0.2c0.2-0.3,0.3-0.7,0.5-1c0.1-0.2,0.2-0.5,0.3-0.7c0.1-0.1,0.1-0.3,0.2-0.5c0,0,0-0.1-0.1-0.1c-0.1,0-0.2,0-0.3,0
			l0,0c-0.4,0-0.7,0.1-1.1,0.1c-0.2,0-0.3,0.1-0.5,0.1c0,0-0.1,0-0.2,0c-0.5,0.1-1,0.2-1.5,0.3c-0.1,0-0.2,0.1-0.3,0.1
			c-0.1,0-0.2,0-0.3,0c-0.2,0.1-0.4,0.1-0.6,0.1c-0.2,0-0.3,0.1-0.5,0.1c-0.2,0-0.5,0.1-0.7,0.2c0,0-0.1,0-0.1,0c0,0-0.1,0-0.1,0
			c0,0.2-0.3,0.4-0.3,0.6c0,0.1,0,0.2-0.1,0.3c0,0-0.1,0-0.1,0.1c0,0.2,0,0.3-0.1,0.5c0,0.1,0,0.2-0.2,0.2c0,0-0.1,0.1-0.1,0.2
			c0,0,0,0,0.1,0c0,0,0.1,0,0.1,0c0,0,0,0.1,0,0.1c-0.1,0.1-0.1,0.2-0.1,0.3c0,0.1,0,0.3-0.1,0.4c0,0.1-0.2,0.2-0.2,0.4
			c0,0,0,0.1,0,0.1c-0.1,0.1-0.2,0.3-0.2,0.4l-0.3,0.6c-0.2,0.2-0.3,0.5-0.4,0.8c-0.1,0.2-0.2,0.4-0.3,0.6c0,0,0,0.1,0,0.2
			c0,0.1,0.1,0.1,0,0.1c-0.2,0.2-0.5,0.3-0.6,0.6c0,0-0.1,0.1-0.2,0.1c-0.1,0-0.2,0.1-0.2,0.1c-0.1,0-0.1,0.1-0.2,0
			c-0.1,0-0.3,0-0.4,0.1c-0.1,0-0.2,0-0.2,0c-0.1,0-0.2-0.1-0.3-0.1c-0.2-0.1-0.3-0.2-0.3-0.4c-0.1-0.1-0.1-0.1-0.2-0.1
			c-0.2-0.1-0.3-0.2-0.5-0.3v0c0-0.1,0-0.2-0.2-0.1c0,0-0.1,0-0.1,0c0,0,0,0,0,0c-0.1-0.1-0.2-0.2-0.3-0.3c-0.1-0.1-0.2-0.1-0.1-0.3
			c0,0,0-0.1,0-0.1c-0.1-0.2-0.1-0.4,0-0.6c0-0.1,0.1-0.2,0.1-0.3c0.2-0.5,0.3-0.8,0.5-1.2c0-0.2,0.1-0.4,0.1-0.6
			c0.2-0.4,0.3-0.8,0.4-1.1c0.1-0.3,0.2-0.6,0.3-0.9c0-0.1,0.1-0.1,0.1-0.2c0.2-0.2,0.1-0.3,0-0.5c-0.1,0-0.1-0.1-0.2-0.2
			c0-0.2-0.2-0.4-0.1-0.6s0.2-0.2,0.3-0.2h0.1c0.1,0.1,0.4,0.2,0.5,0c0.1-0.1,0.2-0.2,0.3-0.3c0,0,0-0.1,0-0.2v-0.2
			c0,0,0-0.1,0.1-0.1c0,0,0,0.1,0,0.1v0c0,0,0,0,0,0c0,0,0,0,0,0c0.1-0.3,0.3-0.5,0.3-0.7c0.1-0.4,0.2-0.7,0.4-1.1
			c0.2-0.3,0.3-0.6,0.5-1c0.1-0.2,0.2-0.4,0.3-0.6c0-0.1,0.2-0.2,0.1-0.4h0c0.2,0,0.2-0.1,0.2-0.2l0.2-0.4l0.1-0.1v0.1
			c0,0,0,0.1,0,0.1c0,0,0-0.1,0.1-0.1c0-0.1,0-0.1-0.1-0.2v-0.1c0.2-0.1,0.2-0.4,0.3-0.6c0.1-0.1,0.2-0.3,0.3-0.4V9.7
			c-0.1,0,0-0.1,0-0.2c0.1-0.1,0.1-0.2,0.2-0.3c0.1-0.1,0.2-0.1,0.2-0.2c0.1-0.1,0.1-0.2,0.2-0.3c0-0.1,0.1-0.2,0.3-0.1
			c0,0,0,0,0.1,0c0-0.1,0.1-0.1,0.1-0.1c0.2,0,0.2-0.1,0.3-0.2l0,0c0-0.1-0.1-0.1-0.2-0.2c0.1-0.1,0.2-0.2,0.3-0.2
			c0.1,0,0.1,0,0.2-0.1c0-0.1,0-0.1,0-0.3c-0.1,0-0.1,0.1-0.2,0.1c-0.1,0-0.2,0-0.3,0h0l0,0c0.1-0.1,0.2-0.3,0.3-0.3
			c0,0,0.2-0.2,0.3-0.2c0,0,0-0.1,0,0c0,0,0.1,0,0.1,0c0-0.1,0-0.1,0-0.2c0,0,0-0.1,0.1-0.1c0,0,0.1,0,0.1,0v0.2
			C49.3,7,49.4,7,49.5,7V6.5c0.2-0.2,0.4-0.4,0.6-0.6c0,0,0.1-0.1,0.2-0.1c0.1,0,0.2-0.1,0.3-0.1c0.2,0,0.5-0.1,0.7-0.2
			c0.2-0.1,0.4,0,0.6,0H52c0.1,0,0.2,0,0.3,0c0.1,0,0.2,0.1,0.3,0c0.1,0,0.2,0,0.3,0.1c0.2,0.1,0.3,0.2,0.4,0.3
			c0.1,0,0.1,0.1,0.2,0.2c0.1,0,0.1,0.2,0.1,0.2c0,0.2,0.1,0.3,0.1,0.5c0,0.2,0,0.2,0,0.3c0,0.2,0,0.3-0.1,0.5
			C53.5,7.7,53.5,8,53.4,8c-0.1,0.1-0.2,0.2-0.3,0.4l-0.4,0.4c-0.2,0.3-0.4,0.6-0.7,0.9c-0.1,0.2-0.2,0.3-0.3,0.5
			c-0.2,0.3-0.3,0.5-0.5,0.8c-0.1,0.1-0.2,0.2-0.3,0.3c-0.2,0.3-0.3,0.5-0.4,0.8c-0.1,0.2-0.2,0.4-0.4,0.5c0,0.1,0,0.2-0.1,0.3
			c-0.2,0.4-0.4,0.7-0.6,1.1c0,0.1-0.1,0.2-0.1,0.3v0c0,0,0.1,0,0.1,0c0.1-0.1,0.2,0,0.3-0.1c0.1,0,0.1,0,0.2,0
			c0.1-0.1,0.2,0,0.3,0.1c0,0,0,0,0,0.1c0,0,0,0,0-0.1c0-0.1,0-0.1,0-0.2c0-0.1,0-0.1,0-0.1s0.1,0,0.1,0h0.1c0,0,0-0.1,0.1,0h0.3
			v-0.1c0,0,0-0.1,0-0.1c0.1,0,0.2-0.1,0.3-0.1c0.1,0,0.1-0.1,0.1,0c0,0,0.1,0.1,0.1,0c0,0,0,0,0.1-0.1c0,0,0-0.1,0.1-0.1
			c0,0.1,0.2-0.1,0.2,0.1c0,0,0,0,0,0c0,0,0,0,0,0c0,0,0.1,0,0.1-0.1c0-0.1,0.2-0.2,0.3-0.1c0,0,0.1,0,0.1,0c0,0,0,0,0,0
			c0,0,0,0,0,0c0,0,0,0,0,0c0,0,0,0,0,0c0,0,0,0,0,0l0,0c0.1,0.1,0.2-0.1,0.3,0c0,0,0,0,0,0c0,0,0,0,0,0c0.1-0.1,0.3-0.1,0.4-0.1
			c0.2,0,0.3,0,0.4,0c0.1,0,0.3-0.1,0.4,0c0.1,0,0.2,0,0.2,0c0.1,0,0.1-0.2,0.2,0c0-0.1,0.2,0,0.2,0c0.1-0.1,0.3-0.2,0.5-0.1
			c0.2-0.1,0.3,0.1,0.5,0h0c0.1-0.2,0.2-0.3,0.3-0.5c0.1-0.3,0.2-0.5,0.3-0.8c0-0.1,0.1-0.2,0.2-0.3c0-0.2,0.1-0.4,0.2-0.5
			c0.1-0.2,0.2-0.4,0.3-0.6c0.1-0.3,0.2-0.6,0.3-0.8c0.1-0.1,0.1-0.3,0.2-0.4c0,0,0.1-0.1,0.1-0.1c0.1,0,0.1,0.1,0.1,0.1
			c0,0,0,0.1-0.1,0.1c-0.1,0-0.1,0,0,0c0.1,0,0.1,0.2,0.2,0.1c0.1,0,0.3,0,0.4-0.1v0c-0.1-0.1,0-0.1,0.2-0.1c0,0,0,0,0-0.1
			c0,0,0-0.1,0.1-0.1c0,0,0.1,0,0-0.1c0,0,0-0.1,0.1-0.1c0,0,0.1,0,0.1-0.1c0,0,0-0.1,0-0.1c0,0,0,0-0.1,0h-0.1
			c-0.1,0-0.1,0-0.1,0.1c0,0,0,0,0,0H58l0,0c0-0.1,0-0.1,0.1-0.1c-0.1,0-0.2,0-0.2,0c0,0.1-0.2,0.2-0.2,0.3c-0.1,0.1-0.1,0.1-0.1,0
			V8.7c0.1-0.1,0.2-0.2,0.3-0.4c0,0,0-0.1,0-0.1c0-0.1,0-0.1,0.1-0.2v0c0-0.1,0-0.2,0.1-0.2c0.1-0.1,0.2-0.3,0.3-0.4
			c0-0.1,0.2-0.2,0.2-0.3c0.3-0.3,0.4-0.6,0.6-0.9c0.2-0.2,0.3-0.4,0.4-0.6c0.1-0.1,0.2-0.3,0.3-0.4c0-0.1,0.2-0.1,0.3-0.1
			c0.1,0,0.2,0,0.3-0.1c0.2-0.2,0.4-0.3,0.7-0.3h0.1c0.3-0.1,0.7-0.2,1,0c0.1,0,0.2,0,0.3,0c0.2,0,0.4,0.1,0.6,0.2
			c0.1,0,0.2,0.1,0.2,0.2C63.8,5.2,64,5.6,64,6c0,0.1,0,0.2,0,0.3c0,0.1,0,0.3,0,0.4c0,0-0.1,0-0.1,0.1c0,0.4-0.3,0.7-0.5,1
			l-0.6,0.8c-0.1,0.1-0.2,0.3-0.4,0.4C62.2,9,62.1,9.2,62,9.4c-0.2,0.2-0.4,0.5-0.5,0.8c-0.3,0.4-0.5,0.9-0.8,1.3
			c-0.2,0.3-0.3,0.6-0.5,1c0,0.1-0.1,0.1-0.1,0.2v0.1h0.2c0.2,0.1,0.4,0,0.6,0.2c0.1,0.1,0.2,0.1,0.3,0.1c0.2,0,0.3,0.2,0.4,0.3
			c0.2,0.1,0.2,0.4,0.2,0.6c0,0.1,0,0.3,0,0.4c0,0.2-0.1,0.4-0.2,0.6c0,0.1-0.1,0.2-0.1,0.3c0,0,0,0.1-0.1,0.1
			c-0.3,0.1-0.5,0.2-0.7,0.4c-0.2,0.1-0.5,0.2-0.8,0.1L59,15.8c-0.2,0-0.5,0-0.7,0c0,0-0.1,0.1-0.2,0.1c-0.1,0.1-0.1,0.4-0.2,0.5
			c-0.2,0.2-0.2,0.5-0.4,0.7c0,0,0,0.1-0.1,0.2c-0.1,0.2-0.2,0.4-0.3,0.6c-0.1,0.2-0.2,0.4-0.3,0.7c-0.1,0.2-0.2,0.4-0.3,0.7
			c-0.2,0.3-0.3,0.7-0.5,1c-0.1,0.2-0.2,0.3-0.3,0.5c-0.1,0.1-0.1,0.3-0.1,0.5c-0.1,0.4-0.3,0.8-0.4,1.1c-0.1,0.1-0.1,0.2-0.1,0.3
			C55.1,22.9,55,22.9,55,23c-0.1,0.1-0.2,0.1-0.1,0.2c0,0,0,0.1,0,0.1s0,0.1-0.1,0.1c0,0-0.1,0.1-0.1,0.1c0,0.1,0.1,0.2-0.1,0.2
			c0,0,0,0,0,0c0,0,0,0,0,0c0.1,0.1,0,0.3,0,0.5c0,0.1-0.1,0.2-0.2,0.3c0,0.1,0,0.2-0.1,0.3c0,0.2-0.2,0.4-0.2,0.6
			c0,0,0,0.1-0.1,0.1c0,0,0,0,0,0c0,0,0,0,0,0c0.1,0.1,0,0.2-0.2,0.3c-0.1,0.1-0.1,0.2-0.2,0.3c-0.2,0.1-0.1,0.3-0.2,0.5v0
			c-0.1,0-0.2,0-0.3,0.1h-0.2c0,0-0.2,0.1-0.2,0.1h-0.1C52.9,26.8,52.8,26.9,52.7,26.9z M43.1,20.7c0,0,0-0.2-0.1-0.2
			c0,0-0.1,0.1,0,0.1C43,20.6,43,20.7,43.1,20.7C43.1,20.8,43.1,20.7,43.1,20.7z M44.9,19C44.9,19,45,19,44.9,19
			c0.1-0.1,0.3-0.2,0.3-0.3c0-0.1,0-0.1,0-0.1c0-0.1,0.1-0.1,0.1-0.2c-0.1,0-0.2,0-0.2,0c-0.1,0-0.2,0-0.2-0.1c0,0,0-0.1-0.1-0.1
			c0,0.1-0.1,0.1-0.1,0.1c0,0.1,0,0.1,0,0.2c-0.1,0.2-0.1,0.4-0.1,0.6c0,0,0,0,0,0.1C44.7,18.8,44.8,18.9,44.9,19z M46,15.1
			c0.3-0.1,0.7-0.2,1-0.3c0,0,0.1-0.1,0.1-0.1c0.1-0.3,0.2-0.6,0.3-0.8c0,0-0.1-0.2,0.1-0.1v-0.2c0.2,0,0.1-0.1,0.1-0.1
			c0-0.1,0.1-0.1,0.2-0.2c0,0,0-0.1,0-0.1c0-0.1-0.1-0.2,0-0.3c0.1-0.2,0.2-0.3,0.3-0.5V12c0-0.1,0-0.1,0.1-0.1v-0.1
			c0,0,0-0.1,0-0.1c0-0.1,0.1-0.2,0.2-0.3c0.2-0.1,0.1-0.3,0.2-0.5c0,0,0,0,0,0c0,0,0,0,0,0c0,0,0,0,0,0c0,0,0,0,0,0
			c0,0,0.1,0,0.1,0c0,0,0,0,0,0c0.1,0,0.1,0,0.1-0.1v-0.1h0.1c0.1,0,0.1,0,0.1-0.1c0.1-0.1,0.1-0.3,0-0.4c0,0,0-0.1-0.1-0.1H49
			c0,0,0.1,0,0.1,0.1c0,0,0,0,0-0.1c-0.2-0.1-0.1-0.1,0-0.2c0-0.1,0-0.1,0-0.2V9.5c0,0,0,0,0.1,0c0,0,0,0,0.1,0c0.1,0,0.1-0.1,0-0.1
			V9.4c0-0.1,0.1-0.1,0.1-0.2c0-0.1,0.1-0.3,0.2-0.4c0,0,0,0,0.1,0c0.2,0,0.2-0.1,0.2-0.2c0-0.1,0-0.2,0-0.2c0-0.1,0-0.2,0.1-0.3
			c0,0,0,0,0.1,0V8c0,0-0.1,0.1-0.1,0.1c0,0.1,0,0.2,0,0.3c0,0.1,0,0,0.1,0c0,0,0-0.1,0-0.2c0-0.1,0.2-0.1,0.2-0.3
			c0.1,0,0.1-0.1,0.2,0c0.1,0.1,0.1,0,0.1-0.1c0-0.2,0-0.3,0.2-0.3c0.1,0,0.2-0.1,0-0.1c0,0,0,0,0-0.1c0-0.1-0.1-0.3,0.2-0.3v0
			c0.2-0.1,0.1-0.3,0.2-0.4c0,0-0.2,0-0.2,0c0,0.1-0.3,0-0.3,0.3h0c-0.2-0.2-0.1,0-0.1,0l0,0c-0.2,0-0.2,0.1-0.1,0.1v0.1L50.1,7h0
			c0,0.2-0.2,0.3-0.1,0.4c-0.2,0.2-0.2,0.4-0.4,0.6c0,0-0.1,0-0.1,0.1h0.1c0,0,0,0,0,0c0,0,0,0,0,0c-0.1,0.1-0.1,0.3-0.2,0.3
			c-0.1,0.1-0.3,0.2-0.3,0.3C49,8.9,49,9.1,48.9,9.2c0,0,0,0.1,0,0.1c0,0.1-0.1,0.2-0.2,0.3c-0.1,0-0.1,0-0.2,0c0,0,0,0.1,0,0.1
			c0.1,0.1,0,0.3-0.1,0.4c0,0-0.2,0.1,0,0.1v0c0,0,0,0.1,0,0.1v0.1h-0.1v-0.1c0-0.1-0.1-0.1-0.1-0.1v0.1c-0.1,0.1,0,0.3-0.3,0.3v0.1
			c0.1,0.1,0,0.1,0,0.2c-0.1,0.1-0.1,0.2,0,0.3c0,0,0,0,0,0c0,0,0,0,0,0.1c0,0-0.1,0-0.1,0c0,0-0.2,0-0.2,0c0,0-0.2,0.1-0.1-0.1l0,0
			c-0.1,0-0.2,0-0.2,0.1c0,0,0,0.1,0.1,0.1c0.1,0.1,0.2,0,0.2,0.2c0,0,0.1,0,0.1,0c0,0,0,0-0.1,0c-0.1,0-0.2,0.1,0,0.1l0,0.1
			c-0.2,0-0.2,0.1-0.1,0.2v0.2c0,0,0,0.1-0.1,0.1h-0.3c-0.1,0.1-0.2,0.2-0.3,0.4c0,0.3-0.1,0.6-0.3,0.8c0,0-0.2,0.2-0.2,0.2
			c0.1,0.2,0,0.3-0.1,0.4c0,0.1,0,0.1,0,0.1c0.1,0.2-0.2,0.3-0.2,0.4h0c0,0-0.1,0-0.1,0c0,0,0.1,0,0.1,0.1c0,0,0,0.1,0.1,0.1
			c0,0-0.1,0-0.1,0c-0.1,0-0.2,0-0.2,0.1C45.9,14.9,46,14.9,46,15.1L46,15.1z M46.1,13.1c0,0,0-0.1-0.1-0.1c0,0,0,0.1,0,0.1
			c0,0.1,0,0.2-0.1,0.2c0,0,0,0.1,0,0.1h0C46,13.3,46.1,13.2,46.1,13.1L46.1,13.1z M46.7,11.8c0,0-0.1,0-0.1,0c0,0,0,0.1,0,0.1
			c0,0,0,0.1,0,0.1v0.1h0C46.6,12,46.6,11.9,46.7,11.8L46.7,11.8z M46.8,11.6c0-0.1,0-0.1,0-0.2c-0.1,0.1-0.1,0.1-0.2,0.2l0.1,0
			C46.7,11.7,46.8,11.7,46.8,11.6L46.8,11.6z M47.3,11c0-0.1,0-0.2,0-0.3c-0.1,0-0.1,0.1-0.2,0.1c0,0,0,0,0,0c0,0,0,0,0,0
			c0,0,0,0,0,0V11c0,0.1,0,0.2,0.1,0.2C47.4,11.2,47.3,11,47.3,11z M47.1,12.8C47.1,12.8,47.1,12.8,47.1,12.8
			C47.1,12.8,47.1,12.8,47.1,12.8c0.1,0,0.2,0,0.2,0v0L47.1,12.8c0.1,0.1,0,0.1,0,0.1L47.1,12.8z M47.4,12.4
			C47.3,12.4,47.3,12.4,47.4,12.4L47.4,12.4c0,0,0,0,0.1-0.1h0c0,0,0,0.1,0,0.1c0,0,0,0.1,0,0.1C47.4,12.4,47.4,12.4,47.4,12.4
			L47.4,12.4z M48,14.8C48,14.8,48,14.8,48,14.8C48,14.8,48,14.8,48,14.8c-0.1-0.1-0.1-0.1-0.2-0.2l0,0c0,0.1-0.1,0.1-0.2,0.2
			L48,14.8z M47.8,15.2c0.1,0,0.1-0.1,0.2-0.1h-0.2c0,0-0.1,0-0.2,0v0.1L47.8,15.2z M47.8,10c0-0.1,0.1-0.2,0.2-0.3c0,0,0,0,0-0.1
			c0,0-0.1,0.1-0.1,0.1c0,0.1-0.1,0.1-0.1,0.2c0,0,0,0.1,0,0.1L47.8,10z M48.2,15.2C48.2,15.2,48.2,15.1,48.2,15.2
			c-0.1,0-0.1,0-0.1,0v-0.1c0,0-0.1,0.1-0.1,0.1c0.1,0,0.2,0.2,0.2,0.3c0,0,0,0.1,0.1,0.1h0C48.3,15.5,48.3,15.4,48.2,15.2
			L48.2,15.2z M48.3,9.1c0-0.1,0-0.2,0-0.3c0,0,0,0,0,0l-0.2,0.1c0,0,0,0.1,0,0.1c0,0,0,0.1,0,0.1v0.1C48.3,9.1,48.3,9.1,48.3,9.1
			L48.3,9.1z M48.5,14.8L48.5,14.8c-0.2,0-0.3,0.1-0.4,0.2V15c0,0,0,0,0.1,0.1C48.3,15,48.4,14.9,48.5,14.8L48.5,14.8z M48.7,11.8
			c0,0-0.1-0.1-0.1-0.1c0,0,0,0.1,0,0.1c0,0,0,0.1,0,0.1C48.6,11.9,48.6,11.8,48.7,11.8L48.7,11.8z M49,14.5
			C49,14.5,49,14.5,49,14.5L49,14.5c-0.1,0-0.2,0-0.3,0.1v0.1C48.8,14.5,48.9,14.5,49,14.5L49,14.5z M49.3,15c0,0-0.1-0.1-0.1-0.1
			c0,0,0,0-0.1,0C49.2,15,49.2,15,49.3,15C49.3,15.1,49.3,15.1,49.3,15L49.3,15z M51.5,14.1L51.5,14.1L51.5,14.1
			c-0.1-0.1-0.2,0-0.3,0c0,0,0,0.1-0.1,0.1h0C51.3,14.2,51.4,14.2,51.5,14.1L51.5,14.1z M52.8,21.5c0-0.2,0-0.3,0-0.5h0
			c0,0.1-0.1,0.2-0.2,0.3C52.5,21.5,52.6,21.5,52.8,21.5L52.8,21.5z M52.9,14.2c0,0-0.1-0.1-0.1-0.1c0,0.1,0,0.1-0.1,0.2
			c0,0,0,0,0,0.1C52.8,14.3,52.9,14.3,52.9,14.2L52.9,14.2z M53.2,20.3c0.1-0.2,0.1-0.3,0.2-0.5v-0.1c0.1-0.1,0.1-0.2,0.2-0.4
			c0,0,0,0,0,0c0,0,0,0,0,0c0,0,0,0,0,0c-0.1,0.1-0.1,0.2-0.2,0.3c0,0-0.1,0.1-0.1,0.1c0,0.2-0.1,0.3-0.2,0.5v0.1
			C53.1,20.3,53.1,20.3,53.2,20.3L53.2,20.3z M54.5,20.7C54.5,20.6,54.5,20.6,54.5,20.7l0-0.2c0.2,0.1,0.1-0.1,0.2-0.1
			c0,0,0-0.1,0-0.1c0.1-0.1,0.1-0.3,0.2-0.4h0v-0.1c0.1-0.1,0-0.3,0.2-0.3v-0.1c0-0.1-0.2-0.1,0-0.2c0,0,0-0.1,0-0.1s0-0.1,0-0.1
			c0-0.1,0.2-0.1,0.1-0.3c0,0,0,0,0.1,0c0.1-0.1,0-0.3,0.1-0.4v-0.1h0.1c0,0,0,0,0,0c0,0,0,0,0,0v-0.1c0,0-0.1-0.1-0.2,0h-0.1v-0.1
			c0-0.1,0.1-0.2,0.2-0.1h0.1c0,0,0,0,0,0c0-0.1,0-0.1,0-0.1h0.1c0,0,0.1,0,0.1-0.1c0-0.2,0-0.3,0-0.5c0-0.1,0.1-0.1,0.1-0.1
			c0,0,0,0,0.1,0c0,0,0,0,0,0c0,0,0,0,0,0L56,17c0-0.1,0.1-0.2,0.1-0.3c0,0-0.1-0.1-0.1-0.1c0,0,0,0,0,0c0,0,0,0,0.1,0
			c0,0,0.1,0,0.1,0c0,0,0,0-0.1-0.1c0,0-0.1,0-0.1,0H56c0-0.1,0.1-0.1,0.2-0.1c0.1-0.1,0-0.1,0-0.1c-0.2,0-0.5,0-0.7,0
			c0,0-0.1,0.1-0.1,0.1c0,0.1,0,0.3-0.2,0.5c-0.1,0.1-0.1,0.3-0.2,0.4c0,0.1-0.2,0.2,0,0.3c0,0,0,0.1,0,0.1c0,0-0.1,0.1-0.2,0.2
			c0,0.1-0.1,0.2-0.2,0.3c-0.1,0.2-0.2,0.4-0.3,0.6c-0.1,0.2,0,0.5-0.3,0.6c-0.1,0.1-0.1,0-0.2,0h0c-0.1,0.1-0.1,0.1-0.2,0.2
			c0,0,0,0.1,0,0.1c0.1,0,0.2,0,0.2,0l0,0c0,0,0,0.1,0,0.1c-0.1,0-0.1,0.1-0.2,0.2c0,0,0,0.1,0,0.1c-0.1,0.1-0.1,0.2-0.2,0.3
			c0,0.1-0.1,0.2-0.1,0.2c-0.2-0.1,0,0.1-0.1,0.1c0.1,0,0.1,0.1,0.2,0.1s0.1,0,0.2,0h0.2c0,0,0,0.1,0.1,0.1
			C54.3,20.5,54.4,20.5,54.5,20.7L54.5,20.7L54.5,20.7z M54,13.6L54,13.6L54,13.6c-0.1,0-0.2,0-0.2,0l0,0
			C53.9,13.6,53.9,13.6,54,13.6L54,13.6z M55.5,16.6c0,0,0-0.1,0-0.1h0.1c0,0.1,0,0.1,0,0.2c0,0,0,0,0,0.1
			C55.5,16.7,55.5,16.7,55.5,16.6L55.5,16.6z M56.4,17.9C56.4,17.9,56.4,17.8,56.4,17.9c-0.1,0-0.2,0-0.2,0.1c0,0,0,0.1,0,0.1
			C56.3,18,56.4,17.9,56.4,17.9z M57.2,11.6c0,0,0-0.1-0.1-0.1c-0.1,0-0.1-0.1,0-0.2c0,0,0-0.1,0-0.1c0,0,0,0,0,0c0,0,0,0,0,0
			c-0.1,0.1-0.1,0.1-0.2,0.2c0.1,0.1,0.1,0.1,0.1,0.2c0,0,0.1,0.1,0.1,0.1L57.2,11.6z M57.3,12.7c0.1-0.1,0.1-0.1,0.2,0h0.1
			c0.1,0,0.1-0.1,0.2-0.1c0,0,0.1-0.1,0.2-0.1l0.1,0.1v-0.1c0-0.1-0.1-0.2-0.1-0.3c0.1-0.1,0.2-0.3,0.2-0.4c0.1-0.2,0.2-0.4,0.3-0.6
			c0.1,0,0.1-0.1,0.1-0.1c0.2-0.1,0.2-0.1,0.2-0.3v-0.1l0.2-0.1c0,0,0-0.1,0.1-0.1c0,0,0,0,0,0.1c0,0,0,0,0,0.1
			c0.1-0.1,0.1-0.2,0.2-0.4c0,0,0-0.1-0.1-0.1V9.9c0-0.1,0.1-0.4,0.1-0.4c0.2,0,0.2-0.1,0.2-0.2c0,0,0-0.1,0.1-0.2
			c0.1-0.1,0.1-0.2,0.1-0.3V8.6c0.1,0,0.1-0.1,0.2-0.1c0-0.1,0.2-0.1,0.2-0.3c0.1-0.1,0.1-0.1,0-0.2V8C60,8,60,7.9,60,7.8
			c0,0,0.1-0.1,0.1-0.1c0-0.1,0.1-0.1,0.1-0.2c0,0,0-0.1-0.1-0.1v0H60c0,0-0.1,0-0.1-0.1v0.1c0,0.1-0.1,0.1-0.1,0.2
			c0,0-0.1,0.1-0.1,0.1c0,0,0,0,0,0c0,0,0,0,0,0l0.1,0V7.4c-0.1,0-0.1,0-0.1,0c-0.1,0.1-0.2,0.2-0.3,0.3v0.1c0.1,0.1,0,0.2,0,0.2
			c-0.1,0-0.2,0.1-0.2,0.3c0,0,0,0.1,0,0.1c0,0.1,0,0.2,0,0.2c0,0,0,0.1,0,0.1s0,0.1-0.1,0.1c0,0-0.1-0.1-0.1-0.1c0,0-0.1,0-0.1,0
			v0.1c0.1,0.2-0.1,0.4-0.2,0.6c0,0,0,0-0.1,0.1c0,0,0-0.1,0-0.1h0c0,0,0,0.1-0.1,0.1v0.3h0c0.2-0.1,0.2,0,0.3,0.1
			c0.1,0.1-0.1,0.2-0.1,0.4c-0.2,0-0.2,0.1-0.1,0.2c0,0,0,0.1,0,0.1c-0.2,0-0.1,0.1-0.1,0.1c0,0.1,0,0.1,0,0.2c0,0,0,0,0,0.1
			c0,0.1,0,0.1-0.1,0.2c0,0-0.1-0.1-0.1-0.1H58v0c0,0,0.1,0.1,0.2,0.1v0.1h-0.1c0,0,0,0,0,0.1c0.1,0.1-0.1,0.1-0.1,0.1
			c0,0-0.1-0.1-0.1-0.1c0,0,0,0-0.1,0v0.1c0,0,0,0.1,0.1,0.1c-0.1,0.1,0,0.2-0.2,0.3c0,0,0,0.1,0,0.1c0.2,0.1,0.1,0.2,0,0.3
			c0,0,0,0,0,0c0,0,0,0,0,0v0c0-0.1-0.1-0.1-0.1-0.2c-0.1-0.2-0.2,0-0.2,0h-0.1c0,0,0,0.1,0,0.1c0.1,0,0.1,0.1,0,0.1L57.3,12.7
			L57.3,12.7z M57.8,9.7c0-0.1,0-0.1-0.1-0.2c-0.1,0-0.2,0-0.3,0.1c0.1,0.1,0.1,0.1,0.2,0.1c0,0,0,0,0,0C57.7,9.9,57.8,9.8,57.8,9.7
			L57.8,9.7z M57.6,10.4c0-0.1,0-0.1,0-0.1c0,0,0-0.1,0-0.1c0,0,0,0.1-0.1,0.1s0,0,0,0.1v0.2C57.5,10.5,57.5,10.4,57.6,10.4
			L57.6,10.4z M58.8,7.9c0,0,0-0.1,0-0.1c-0.1,0-0.1,0.1-0.1,0.1c0,0,0.1,0.1,0.1,0.2C58.8,8,58.8,8,58.8,7.9L58.8,7.9z M59.1,7.3
			c0.1,0,0.1,0,0.1,0c0,0,0.1-0.1,0.1-0.1h0c-0.1,0-0.2,0-0.2,0L59.1,7.3L59.1,7.3z"/>
		<path class="st0" d="M61,23.8c-0.2-0.2-0.5-0.3-0.6-0.5c-0.1-0.1-0.1-0.2-0.1-0.2c0-0.1-0.1-0.2-0.1-0.2C60,22.7,60,22.5,60,22.4
			c-0.1-0.2-0.2-0.4-0.2-0.6c-0.1-0.2-0.1-0.2,0-0.4c0-0.1,0.1-0.2,0.1-0.3c0-0.2,0.1-0.4,0.3-0.5c0.1,0,0.2-0.1,0.2-0.2
			c0.1-0.3,0.3-0.6,0.5-0.9c0-0.1,0.1-0.1,0.1-0.2c0-0.3,0.2-0.5,0.3-0.7c0.1-0.1,0.1-0.3,0.2-0.3c0-0.1,0.2-0.1,0.2-0.2
			c0-0.1-0.1-0.2,0.1-0.3c0.1,0,0.1-0.1,0.1-0.2c0-0.1,0.1-0.1,0.2-0.1c0.1,0,0,0,0-0.1c0-0.1,0.1-0.2,0.1-0.3
			c0.2-0.3,0.3-0.6,0.5-0.9c0.4-0.6,0.9-1.2,1.4-1.8c0.2-0.2,0.4-0.5,0.6-0.7c0.3-0.3,0.6-0.8,0.9-1.1c0.1-0.1,0.2-0.3,0.5-0.3
			c0.1,0,0.1,0,0.2-0.1c0,0,0-0.1,0-0.1c-0.1-0.1,0.1-0.2,0.1-0.3c0.2-0.1,0.3-0.3,0.5-0.4c0.2-0.3,0.5-0.6,0.7-0.8
			c0.2-0.2,0.5-0.5,0.7-0.8c0.2-0.2,0.3-0.4,0.5-0.6c0.1-0.1,0.1-0.2,0.1-0.3c0,0,0.1-0.2,0.1-0.2c0.3-0.2,0.6-0.5,0.9-0.8
			c0.3-0.3,0.6-0.6,0.9-0.8c0.2-0.1,0.4-0.1,0.6-0.1c0.6-0.1,1.1,0,1.6,0.2c0.2,0.1,0.5,0.3,0.7,0.4h0c0,0.4,0.4,0.3,0.6,0.5
			c0.1,0,0.3,0,0.3-0.1c0,0,0.1-0.1,0.1,0c0,0.1,0.1,0.1,0.1,0.1s0.2-0.1,0.3-0.2c0.1-0.1,0.2-0.1,0.3,0.1c0,0.1,0,0.1,0.2,0.1
			c0.2-0.1,0.5-0.2,0.8-0.2l0.1,0c0-0.1,0.1-0.1,0.2-0.1c0,0.1,0.1,0.2,0.1,0.3c0,0,0,0,0,0v0l0,0c0.1-0.4,0.1-0.4,0.4-0.4
			c0.7-0.1,1.3-0.3,1.9-0.4c0.6-0.1,1.2,0,1.7,0.2c0.1,0.1,0.3,0.1,0.4,0.1c0.3,0.1,0.6,0.3,0.6,0.7C81.9,8,82,8.1,82,8.1
			c0.3,0.4,0.4,0.9,0.2,1.3c0,0,0,0,0,0c0,0,0,0,0,0c-0.1,0.4-0.4,0.7-0.8,0.8c-0.2,0-0.4,0.1-0.5,0.2c-0.3,0.2-0.7,0.2-1,0.1
			l-0.1,0c-0.3,0.1-0.5,0.1-0.8,0.1c-0.3,0-0.6,0-1,0c-0.4,0-0.8,0.1-1.1,0.1c-0.1,0-0.1,0-0.2,0c-0.2-0.1-0.5-0.1-0.8,0.1
			c-0.2,0.1-0.4,0-0.6,0c-0.2,0.1-0.4,0.1-0.6,0.1c-0.4,0-0.7,0-1.1,0.1c-0.3,0-0.6,0.1-0.9,0.1l-0.3,0c-0.1,0-0.3,0-0.4,0.1
			c-0.3,0.4-0.6,0.7-0.9,1l-1,0.9l0,0.1c0.1,0,0.1,0,0.2,0c0.1,0,0.1,0,0.2,0.1c0,0.1,0.1,0,0.1,0c0.1-0.3,0.2-0.3,0.4-0.2l0.2,0
			l0.6-0.1c0,0,0.1,0,0.1,0c0.1,0.2,0.4,0.2,0.6,0.2c0.3,0.1,0.6,0.2,0.9,0.5c0,0,0,0.1,0.1,0.2c0.1,0.2,0.1,0.3,0.2,0.5
			c0.2,0.2,0.2,0.6,0.1,0.8c-0.1,0.3-0.2,0.5-0.3,0.8c-0.1,0.1-0.2,0.2-0.4,0.3c-0.4,0.1-0.9,0.2-1.3,0.2c-0.1,0-0.2,0-0.3,0
			c-0.5,0-1.1,0-1.6-0.1c-0.5,0-0.9,0-1.4-0.1c-0.2,0-0.4-0.1-0.5-0.2c-0.3-0.1-0.4-0.1-0.6,0c-0.2,0.3-0.4,0.6-0.7,0.9
			c-0.1,0.2-0.3,0.4-0.4,0.6c-0.3,0.4-0.6,0.9-0.9,1.3c-0.1,0.2-0.2,0.3-0.3,0.4c0,0,0,0.1,0,0.1c0.1,0,0.1,0,0.2,0
			c0.9-0.2,1.7-0.3,2.6-0.6c0.3-0.1,0.6-0.2,1-0.2c0.5,0,0.9-0.2,1.4-0.3c0.2-0.1,0.4-0.1,0.6-0.1c0.1,0,0.2,0,0.3,0l0.1,0
			c0.1-0.2,0.2-0.2,0.3-0.1c0,0,0.1,0,0.1,0c0.2-0.2,0.4-0.2,0.7-0.2c0.3-0.1,0.6-0.1,0.9-0.2c0.4-0.1,0.8-0.1,1.3-0.2
			c0.3,0,0.7-0.1,1-0.1c0.4-0.1,0.9-0.1,1.3-0.2c0.2-0.1,0.4,0,0.6-0.1c0.1-0.1,0.3-0.1,0.5-0.1c0,0,0.1,0.1,0.1,0.1
			c0,0,0.1,0.1,0.1,0.1c0.2-0.1,0.3,0.1,0.4,0.1c0.1,0.1,0.3,0.2,0.4,0.3c0.2,0.1,0.3,0.2,0.3,0.4c0,0,0.1,0.1,0.1,0.1
			c0.2-0.1,0.2,0.1,0.2,0.2c0,0.1,0,0.1,0,0.2c0,0.1,0.1,0.2,0.1,0.2c-0.1,0.1-0.1,0.1-0.2,0.1c-0.2-0.1-0.2,0.1-0.3,0.2
			c0,0.1-0.1,0.1-0.1,0.2c-0.1,0.1-0.3,0.2,0.1,0.3c0,0,0,0,0,0c0,0,0,0,0,0c0,0,0,0.1,0,0.1c-0.2,0-0.3,0.1-0.4,0.2
			c-0.2,0.1-0.3,0.1-0.5,0.1c-0.1,0-0.3,0-0.3,0c-0.2,0.3-0.2,0.1-0.2-0.1c-0.1-0.1-0.2-0.2-0.3-0.2l0-0.1l0-0.1l0,0.1l0,0.1
			c-0.1,0.1-0.2,0.2-0.2,0.3c-0.1,0.2-0.1,0.2-0.3,0.3c-0.3,0.1-0.6,0.1-0.9,0.2c-0.1,0-0.2,0-0.3,0c-0.5,0.1-0.9,0.2-1.4,0.3
			c-0.3,0-0.6,0-0.9,0.1c-0.3,0-0.6,0.1-0.9,0.2c-0.2,0.1-0.4,0.1-0.6,0.1c-0.4,0.1-0.9,0.2-1.3,0.3c-0.3,0.1-0.7,0.2-1,0.3
			c-0.4,0.2-0.8,0.2-1.2,0.4c-0.3,0.1-0.5,0.2-0.8,0.3c-0.2,0.1-0.4,0.3-0.7,0.2c0,0-0.1,0-0.1,0c-0.5,0.2-1,0.4-1.5,0.5
			c0,0,0,0-0.1,0c-0.5,0.3-1.1,0.4-1.7,0.5c-0.1,0-0.2,0-0.3,0.1c-0.4,0.1-0.9,0.2-1.3,0.2C61.4,24,61.2,24,61,23.8z M61.6,19
			C61.6,18.9,61.6,18.9,61.6,19c-0.1-0.1-0.1,0-0.1,0C61.5,19,61.5,19,61.6,19C61.6,19,61.6,19,61.6,19L61.6,19z M63.2,18.1
			c0-0.1,0-0.2-0.1-0.2c0,0,0,0-0.1,0c0,0,0,0,0,0c0,0.1,0,0.1,0,0.2C63.1,18.1,63.1,18.1,63.2,18.1L63.2,18.1z M63.9,16.9
			c0-0.1-0.1-0.4-0.2-0.4c-0.1,0-0.1,0.1-0.2,0.2c0,0.1,0,0.2,0,0.3c0,0,0.1,0,0.1,0C63.8,17,63.8,17,63.9,16.9L63.9,16.9z
			 M76.7,17.6C76.7,17.6,76.7,17.6,76.7,17.6c-0.1-0.1-0.1,0-0.1,0l0,0.1C76.6,17.7,76.7,17.7,76.7,17.6L76.7,17.6z"/>
	</g>
	<g>
		<path class="st0" d="M7.8,71.8c-0.2-0.1-0.4-0.2-0.5-0.3C7.2,71.4,7,71.3,7,71.2c0-0.4-0.1-0.8-0.4-1.1c-0.1,0-0.1-0.1-0.1-0.1
			c-0.3-0.3,0.1-0.9-0.4-1.1c0-0.3-0.2-0.7-0.2-1.2c0.1-0.4,0.2-0.8,0.4-1.2c0-0.1,0.1-0.3,0.1-0.5c0-0.4,0.1-0.8,0.4-1.1
			C7.6,64,8.3,63.1,9,62.1c0.1-0.2,0.2-0.4,0.3-0.6c0.1-0.1,0.1-0.1,0.1-0.2c0.2-0.3,0.7-0.4,0.7-0.9c0-0.3,0.4-0.6,0.6-1
			c0.1-0.1,0.1-0.1,0.1-0.2c0.4-0.3,0.7-0.7,0.9-1.1c0.1-0.1,0.3-0.3,0.4-0.2c0.4,0.1,0.4-0.2,0.6-0.4c0.3-0.5,0.7-1,1.1-1.4
			c0.1-0.1,0.2-0.3,0.3-0.5c0.3-0.8,0.8-1.5,1.3-2.1c0.6-0.6,1-1.5,1.8-2.1c0.3-0.3,0.5-0.6,0.6-1c0.1-0.1,0.2-0.3,0.3-0.4
			c0.3-0.4,0.5-0.8,0.8-1.1c0.4-0.5,0.8-1,1.2-1.4l0.2-0.2c0.3-0.6,0.6-1.1,1.1-1.5c0.4-0.4,0.7-0.8,1-1.3c0.2-0.4,0.5-0.6,0.7-1
			c0.3-0.4,0.6-0.7,0.5-1.2c0.1,0,0.1,0,0.2-0.1c0.3,0.2,0.3,0,0.4-0.2c0.3-0.4,0.5-0.8,0.8-1.2c0.1-0.1,0.1-0.2,0.2-0.2
			c0.3,0,0.5-0.2,0.6-0.4c0.1-0.3,0.3-0.2,0.4-0.2c0.1,0,0.1,0.1,0.1,0.2s-0.1,0.2-0.1,0.3c0.1,0.1,0.2,0.2,0.2,0.4
			c0.1-0.1,0.2-0.1,0.2-0.3c0.1-0.1,0.2-0.3,0.4-0.2c0.2,0.1,0.3,0,0.3-0.2c0.1-0.3,0.3-0.2,0.3,0c0.2,0.3,0.3,0.6,0.5,0.9
			c0.1,0.2,0.1,0.3,0.4,0.2c0.1,0,0.2,0,0.2,0.1c0,0.4,0.6,0.2,0.7,0.5l0.2,0c0.3-0.1,0.4,0,0.3,0.3c0,0.1-0.2,0.3-0.2,0.3
			c0,0.1,0,0.4,0.1,0.4c0.2,0.2,0.2,0.5,0.1,0.7c-0.1,0.3-0.1,0.4,0.2,0.5c0.3,0.2,0.3,0.3,0.3,0.6c-0.1,0.6-0.3,1.3-0.6,1.8
			c-0.4,0.7-0.7,1.4-1,2.2c-0.1,0.4-0.3,0.9-0.5,1.3c-0.5,1.3-1,2.7-1.5,4.1c-0.1,0.1,0,0.1-0.1,0.1c-0.1,0.1-0.2,0.2-0.4,0.3
			c0.2,0.1,0.1,0.3,0,0.5c0,0.1,0,0.3,0.1,0.3c0.1,0,0.3,0,0.4,0c0.4-0.4,0.9-0.8,1.3-1.2c0.4-0.3,0.6-0.6,1-1
			c0.2-0.2,0.4-0.5,0.6-0.7c0.3-0.4,0.7-0.8,1.1-1.1c0.7-0.6,1.4-1.2,2-1.9c0.1-0.2,0.4-0.2,0.6-0.4c0.3-0.3,0.6-0.6,0.9-1l1-0.9
			c0.4-0.3,1-0.5,1.3-1l0.1-0.1c0.8-0.4,1.1-1.1,1.7-1.6c0.2-0.2,0.3-0.3,0.6-0.4c0.2-0.2,0.5-0.4,0.7-0.6c0.1-0.1,0.3-0.2,0.4-0.3
			c0.2-0.1,0.3-0.2,0.4-0.4c0-0.1,0.1-0.2,0.2-0.3c0.8-0.5,1.6-1.1,2.2-1.9c0.1-0.1,0.1-0.2,0.2-0.2c0.5,0,0.6-0.4,0.7-0.8
			c0-0.1,0-0.3,0.3-0.1c0,0,0.1,0.1,0.1,0c0.4-0.2,0.8-0.3,1.1-0.7v-0.1c0.4-0.5,0.5-0.5,0.8,0.1v0.1c0.1,0.1,0.1,0.2,0.2,0.4
			c0.1-0.1,0.3-0.3,0.4-0.4l0-0.2l0.3,0c0.1,0.2,0.2,0.4,0.5,0.2c0.1,0,0.1,0,0.1,0.1c0.1,0,0,0.1,0,0.1c0,0-0.1,0.1-0.1,0.1
			c-0.1,0-0.3,0-0.2,0.3c0.1,0.2,0.3,0.3,0.5,0.3c0.3-0.2,0.5-0.2,0.8,0c0.2,0.1,0.2,0.2,0.1,0.3c-0.2,0.4,0,0.7,0.2,1
			c0.1,0.1,0.1,0.2,0.1,0.4c-0.1,0.6-0.1,1.3,0,1.9c0.1,0.5,0.1,0.9,0.1,1.4c0,0.1,0,0.2-0.1,0.3c-0.3,0.8-0.5,1.6-0.5,2.5
			c0,0.1,0,0.3-0.1,0.3c-0.4,0-0.2,0.3-0.2,0.5c0.1,0.4,0.1,0.9,0,1.3c0,0.2-0.1,0.4-0.2,0.6c-0.2,0.2-0.4,0.3-0.2,0.5
			c0,0,0,0.1,0,0.1c0,0,0,0,0,0c-0.3,0.7-0.3,1.5-0.6,2.2c-0.3,0.7-0.5,1.4-0.9,2c-0.2,0.4-0.4,0.8-0.7,1.2
			c-0.3,0.5-0.5,1.1-0.7,1.7c0,0.1,0,0.1-0.1,0.1c-0.8,1.6-1.6,3.1-2.5,4.7c-0.7,1.3-1.4,2.6-1.9,4C41,67,41,67.3,41,67.6
			c0,0.1,0,0.1,0.1,0.2c0.4,0.2,0.2,0.5,0,0.7c-0.3,0.3-0.6,0.7-0.7,1.2C40.2,69.8,40.2,70,40,70c-0.3,0.1-0.6,0.4-0.8,0.6
			c-0.2,0.2-0.1,0.6-0.5,0.6c-0.2,0.4-0.6,0.6-1,0.8c-0.1,0.2-0.4,0.3-0.4,0.5c-0.1,0.3-0.1,0.2-0.3,0.2c-0.3,0-0.1-0.1-0.1-0.2
			c0,0,0.1-0.1,0.1-0.1c-0.1,0-0.1,0-0.1,0.1c-0.2,0.1-0.4,0.3-0.5,0.5c-0.1,0.1-0.3,0.2-0.5,0.2c-0.2-0.2-0.3-0.5-0.2-0.8
			c0,0,0.1-0.1,0.1-0.1c0-0.1-0.1-0.1-0.1-0.2c-0.1,0.1-0.1,0.1-0.1,0.1c0,0.3-0.2,0.3-0.4,0.4c-0.3,0.1-0.3,0.1-0.4-0.2
			c-0.3-0.4-0.1-1,0.3-1.3c0.1-0.1,0.1-0.3,0-0.4c-0.1-0.1-0.2-0.2-0.3,0c-0.1,0.1-0.3,0.2-0.2-0.1c0-0.3-0.3-0.2-0.3-0.3
			c-0.1-0.1,0.3-0.2,0-0.5c-0.2-0.1-0.2-0.4-0.5-0.3c-0.2,0.1-0.6-0.4-0.5-0.6s0-0.3-0.2-0.5c-0.3-0.2-0.4-0.5-0.2-0.8
			c0,0,0-0.1,0.1-0.1c0.6-0.9,1-1.9,1.7-2.7c0.5-0.7,0.9-1.4,1.2-2.1c0.2-0.4,0.4-0.8,0.6-1.2c0.4-0.6,0.6-1.2,0.7-1.9
			c0-0.1,0.1-0.2,0.2-0.3c0.8-1.6,1.6-3.3,2.5-4.9l0.9-1.8c0-0.1,0.1-0.2,0.1-0.3c0.1-0.2,0.1-0.3,0.1-0.5c-0.1,0.1-0.3,0.2-0.4,0.3
			c-0.4,0.2-0.6,0.7-1,1c-0.4,0.3-0.6,0.7-1,1.1c-0.5,0.4-1,0.9-1.5,1.4c-0.1,0.1-0.1,0.1-0.2,0.2c-0.5,0.6-0.9,1.1-1.4,1.6
			c-0.6,0.6-1.1,1.1-1.7,1.7c-0.4,0.4-0.8,0.8-1.1,1.1c-0.2,0.2-0.4,0.4-0.6,0.6c-0.2,0.2-0.4,0.4-0.7,0.6c-0.2,0.1-0.4,0.3-0.5,0.5
			c-0.7,0.8-1.5,1.5-2.4,2.1c-0.2,0.1-0.4,0.3-0.6,0.4c-0.1,0.1-0.2,0.2-0.4,0.3c-1,0.3-1.8,1.1-2.8,1.4c-0.8,0.3-1.5,0.8-2.3,1.1
			c-0.1,0.1-0.1,0.1-0.2,0.1c-0.4-0.1-0.8-0.1-1.1,0c0,0-0.1-0.1-0.1-0.1c-0.2-0.4-0.5-0.9-0.7-1.3c-0.1-0.2-0.1-0.5-0.2-0.6
			c-0.5-0.2-0.6-0.6-0.7-1.1c-0.1-0.1-0.2-0.2-0.3-0.2c-0.4,0-0.6-0.4-0.4-0.7c0.1-0.2,0.1-0.2,0-0.3c-0.1-0.2-0.4-0.4-0.4-0.8
			c0-0.1-0.2-0.1-0.3,0c-0.6,0.8-1.2,1.6-1.7,2.4c-0.2,0.3-0.4,0.6-0.7,0.8c-0.4,0.6-0.7,1.1-1.1,1.7c-0.8,1.3-1.8,2.6-2.8,3.7
			c-0.3,0.3-0.7,0.6-1.1,0.9c-0.1,0.1-0.2,0.1-0.3,0.1c-0.3,0-0.6,0-0.9,0.1C8.4,72.1,8.1,72,7.8,71.8z M25.4,44.8l0-0.1
			c-0.1,0-0.1,0.1-0.1,0.1c-0.1,0,0,0.1,0,0.1C25.4,44.9,25.4,44.8,25.4,44.8z M31.7,57.6l0-0.1c-0.1,0-0.2,0.1-0.3,0.2l0,0.1
			C31.5,57.7,31.6,57.6,31.7,57.6z M33.4,70.8c0.1-0.1,0.2-0.2,0.3-0.3l0,0.1C33.6,70.6,33.5,70.8,33.4,70.8
			C33.4,70.8,33.4,70.8,33.4,70.8L33.4,70.8z M37.5,63.8l0-0.1c-0.1,0-0.1,0.1-0.2,0.1c0.1,0.1,0.1,0.1,0.1,0.2
			C37.4,63.9,37.4,63.9,37.5,63.8L37.5,63.8z M38.2,62.4c0-0.1,0-0.2,0.1-0.3c-0.1,0.2-0.2,0.3-0.2,0.3l0,0.1
			C38.1,62.5,38.2,62.5,38.2,62.4L38.2,62.4z M38.9,60.9c0-0.1,0-0.1-0.1-0.1c0,0.1-0.1,0.1-0.1,0.2c0,0.1,0.1,0.1,0.1,0.2
			C38.8,61.1,38.9,61,38.9,60.9L38.9,60.9z M39.4,60.2c0.2-0.6,0.5-1.1,0.8-1.7l0-0.2c-0.1,0.1-0.2,0.1-0.2,0.1
			c-0.1,0.2-0.3,0.5-0.4,0.7c-0.1,0.1,0,0.5-0.3,0.2c0,0.1-0.1,0.1-0.1,0.2c0,0.2,0,0.4,0.1,0.6h-0.1c0,0.1,0.1,0.1,0.1,0.2
			L39.4,60.2z M46.4,53.7c-0.1,0-0.1,0-0.1-0.1c0,0.1-0.1,0.1-0.1,0.1s0.1,0.1,0.1,0.1C46.3,53.8,46.4,53.7,46.4,53.7L46.4,53.7z"/>
		<path class="st0" d="M48.9,70c-0.1,0.2-0.1,0.3-0.4,0.2l-0.1,0c0.5-0.3-0.1-0.3,0-0.6c0.1-0.3-0.1-0.6-0.1-0.9
			c-0.2-0.5-0.1-1,0.1-1.5c0.2-0.3,0.3-0.7,0.3-1.2c0.1-0.5,0.3-1,0.5-1.5c0.1-0.1,0.2-0.3,0.2-0.5c0.2-0.7,0.4-1.3,0.7-2
			c0.2-1,0.6-1.9,1-2.8c0.2-0.3,0.3-0.6,0.4-1c0.1,0,0.2,0.1,0.2,0.2l0-0.1l-0.3-0.1c0.2-0.4,0.2-1,0.7-1.1c0.1,0,0-0.1,0.1-0.3
			c-0.1-0.5-0.1-0.6,0.3-0.8c0.2-0.1,0.5-0.3,0.3-0.6l0.1-0.3c0.3,0,0.3-0.2,0.3-0.5c0-0.2,0.1-0.3,0.1-0.5c0.4-0.7,0.7-1.4,1-2.1
			c0.2-0.4,0.5-0.9,0.8-1.3c0.1,0,0.2-0.1,0.2-0.2c0.1-0.5,0.3-1,0.7-1.4c0.4-0.7,0.8-1.3,1.3-1.8c0.1-0.3,0.3-0.6,0.5-0.9
			c0.1-0.1,0.2-0.3,0.4-0.4c0.1-0.2,0.2-0.3,0.3-0.5c0.1-0.4,0.3-0.7,0.6-1c0.5-0.6,1.1-1.3,1.6-2c0.3-0.4,0.6-0.8,1-1.1
			c0.4-0.4,1.1-0.6,1.7-0.4l0.3,0.1c0.5,0.1,1.1,0.2,1.4,0.8c0.3,0.4,0.6,0.7,0.9,1c0.5,0.4,0.8,1,0.7,1.7c-0.1,0.6-0.3,1.3-0.6,1.8
			c-0.1,0.2-0.1,0.3-0.3,0.4l-0.2,0.1c-0.5,0.6-1,1.2-1.6,1.8c-0.5,0.6-0.9,1.3-1.5,1.9c-0.6,0.9-1.2,1.8-1.8,2.7
			c-0.4,0.5-0.8,1.1-1.1,1.6c-0.2,0.5-0.5,1-0.8,1.5c-0.2,0.4-0.5,0.9-0.7,1.3c-0.2,0.3-0.3,0.7-0.4,1c-0.1,0.3-0.3,0.5-0.4,0.8
			c-0.4,0.4-0.5,1-1,1.3c-0.1,0.1,0,0.4,0,0.7c0,0.2-0.1,0.4-0.2,0.6c-0.5,1-1,2-1.3,3.1c-0.2,0.3-0.4,0.6-0.6,0.9
			c-0.2,0.1-0.3,0.4-0.2,0.6c0,0.2,0,0.4-0.1,0.6c-0.1,0.2-0.2,0.3-0.3,0.5c-0.1,0.3-0.1,0.6-0.5,0.4c-0.1,0.1-0.2,0.3-0.2,0.4
			c-0.1,0.5-0.5,0.9-0.9,1.2c-0.1,0-0.1,0.1-0.2,0.1c-0.4,0.5-1,0.5-1.5,0.7L50,70.6c-0.2-0.1-0.4-0.3-0.7-0.2l-0.1,0
			C49.1,70.3,49,70.2,48.9,70z M50.9,64.2c0.1-0.1,0-0.1-0.1-0.2c-0.1,0-0.3,0.1-0.3,0.2c0.1,0.1,0.1,0.2,0.2,0.2
			C50.7,64.4,50.8,64.3,50.9,64.2z"/>
		<path class="st0" d="M61,79.6c-0.2-0.2-0.5-0.3-0.7-0.5c-0.2-0.1-0.4-0.2-0.6-0.3c-0.4-0.1-0.7-0.3-0.9-0.6
			c-0.2-0.3-0.3-0.5-0.5-0.7c-0.3-0.2-0.3-0.4,0-0.6c0.1-0.2,0.1-0.4,0-0.5c-0.3-0.3-0.3-0.7-0.5-0.9c-0.2-0.2-0.2-0.4,0-0.6
			c0,0,0,0,0,0c0.2-0.3,0.3-0.7,0.4-1.1c0.1-0.2,0.2-0.4,0.3-0.5c0.4-0.5,0.3-1.3,0.7-1.9c0.1-0.3,0.2-0.7,0.3-1.1
			c0.5-1,0.9-1.9,1.3-2.9c0.2-0.7,0.5-1.3,0.7-1.9c0.4-0.8,0.7-1.5,1-2.3c0.4-0.8,0.8-1.7,1.3-2.5c0.1-0.4,0.3-0.8,0.5-1.2
			c0.7-1.4,1.4-2.8,2.1-4.3c0.7-1.1,1.3-2.4,1.9-3.6c0.5-0.9,1-1.8,1.6-2.6c0.1-0.1,0.1-0.2,0.1-0.3c0.4-0.8,0.8-1.6,1.3-2.3
			c0.3-0.6,0.8-1,1-1.7c0.1-0.3,0.3-0.5,0.5-0.7c0.6-0.8,1.1-1.7,1.7-2.5c0.1-0.2,0.3-0.5,0.4-0.7c0.3-0.5,0.5-0.9,0.8-1.3
			c0.1-0.1,0.1-0.2,0.2-0.3l0.6-0.8c0.1-0.1,0.1-0.1,0.1-0.2c0.5-0.9,1.2-1.6,1.7-2.5c0.4-0.7,0.8-1.3,1.2-1.9
			c0.3-0.4,0.5-0.9,1.1-1.1c0.1-0.1,0.2-0.2,0.3-0.3c0.1-0.1,0.2-0.2,0.3-0.2c0.2-0.1,0.5-0.1,0.7-0.1c0.1,0,0.3-0.1,0.3,0
			c0.3,0.3,0.8,0.3,1.2,0.5c0.1,0,0.2,0.1,0.3,0.2c0.1,0.1,0.2,0.1,0.3,0.2c0.7,0.3,1.3,0.7,1.8,1.3c0.2,0.1,0.2,0.3,0.3,0.5
			c0.1,0.5,0.2,0.9,0.3,1.4c0,0.8-0.2,1.5-0.6,2.1c-0.3,0.5-0.7,1-1.1,1.5c-0.4,0.5-0.9,1.1-1.4,1.7c-0.3,0.3-0.7,0.7-1.1,1.1
			c-0.4,0.5-0.8,1-1.1,1.5c-0.2,0.3-0.4,0.6-0.7,0.9c-0.3,0.4-0.6,0.7-0.9,1.1c-0.7,1-1.3,2.1-2,3.1c-0.3,0.3-0.5,0.8-0.7,1.1
			c-0.3,0.5-0.7,0.9-1,1.4c-0.2,0.2-0.3,0.5-0.4,0.7c-0.1,0.3-0.3,0.5-0.5,0.8c-0.5,0.9-1,1.8-1.5,2.7c-0.4,0.6-0.8,1.3-1.1,1.9
			c-0.5,0.7-0.9,1.5-1.3,2.3c-0.3,0.5-0.5,0.9-0.8,1.5c-0.3,0.5-0.3,0.9-0.5,1.3c-0.5,0.9-0.9,1.7-1.3,2.5c-0.1,0.3-0.2,0.5-0.3,0.7
			c-0.3,0.7-0.6,1.5-0.9,2.2c-0.1,0.2-0.1,0.3,0.1,0.5c0.3,0.3,0.3,0.5-0.1,0.8c-0.3,0.1-0.7,0.3-0.9,0.5c-0.1,0.1-0.1,0.1-0.1,0.2
			h0.1c0.7-0.4,1.4-0.7,2.1-1.1c0.9-0.4,1.8-0.8,2.7-1.1c0.3-0.2,0.7-0.3,1.1-0.3c0.1,0,0.1,0,0.2-0.1c0.6-0.4,1.2-0.7,1.9-1
			c0.5-0.3,1.1-0.5,1.7-0.7c0.5-0.2,1.1-0.4,1.6-0.5c0.7-0.1,1.5-0.4,2.1-0.7c0.5-0.3,1.1-0.5,1.7-0.5c0.2-0.1,0.4-0.3,0.6-0.3
			c0.3-0.1,0.5-0.2,0.8-0.3c0.6-0.1,1.2-0.3,1.9-0.5c0.5-0.3,1.1-0.4,1.6-0.3c0.1,0.1,0.1,0,0.3-0.1c0.2-0.4,0.6-0.5,1-0.3
			c0,0,0.1,0,0.1,0.1c0.3,0.1,0.3,0,0.5-0.3c0.2-0.6,0.4-1.3,0.7-1.9c0-0.1,0.3-0.2,0.3-0.2c0.4,0.3,0.9,0.1,1.3,0.2
			c0.2,0.1,0.3,0.1,0.4,0.3c0.2,0.3,0.6,0.4,0.7,0.8c0,0.1,0.1,0.1,0.2,0.1c0.2,0,0.3,0.1,0.1,0.2c0,0,0,0.2,0.1,0.3
			c0.2,0.1,0.3,0.2,0.5,0.3c0.1,0,0.3,0,0.3,0.1c0.1,0.1,0.1,0.2,0.1,0.3C92.3,63,92.2,63,92.1,63c-0.3,0.1-0.5,0.3-0.3,0.5
			c0.3,0.3-0.1,0.2-0.1,0.3h-0.3c-0.3-0.1-0.5,0-0.4,0.3c0.1,0.4,0,0.7-0.1,1.1c-0.1,0.3,0.3,0.2,0.3,0.4c0.1,0.1,0.1,0.1,0.2,0.1
			c-0.1,0-0.1,0.1-0.2,0.1c-0.2,0-0.5,0-0.7-0.1c0,0,0.1,0,0.1-0.1c0,0,0,0,0,0c0.1-0.1,0.1-0.2,0.1-0.2c0-0.1,0.1-0.3,0.1-0.4
			c-0.1,0-0.1-0.1-0.1,0c0,0.1-0.1,0.2-0.2,0.4c0.1,0.1,0.1,0.2,0.1,0.3c-0.4-0.1-0.8-0.2-1.2-0.1c-0.3,0.1-0.2-0.2-0.3-0.4
			c0.2,0.2,0.4,0,0.5-0.1c0-0.2-0.1-0.4-0.3-0.4c0,0-0.1,0-0.1,0c0-0.3-0.3-0.3-0.5-0.4c-0.2-0.1-0.5-0.1-0.7,0.1
			c-0.2,0.1-0.4,0.1-0.6,0.1c0.1-0.1,0.2-0.3,0.3-0.3c0.3,0,0.3-0.3,0.3-0.5c-0.1,0-0.1-0.1-0.1-0.1c0,0.1,0,0.1-0.1,0.1
			c-0.1,0.1-0.1,0.3-0.3,0.3c-0.1-0.1-0.1-0.3-0.3-0.1c-0.1,0.1,0.1,0.2,0.1,0.3c0.1,0.1,0.1,0.3,0.1,0.4c-0.3,0.1-0.6,0.3-0.5,0.7
			c0,0.2-0.1,0.4-0.1,0.6c-0.1,0.1,0,0.1,0.1,0.1c0.3,0.1,0.5,0.2,0.8,0.2c0,0.1,0.1,0.1,0.2,0.3v-0.1c-0.1,0.1-0.3,0.1-0.5,0.1
			c-0.2-0.1-0.3,0.1-0.3,0.2c-0.2,0.3-0.5,0.6-0.8,0.7C86.1,67.2,86,67.2,86,67c-0.2-0.2-0.5-0.2-0.7,0c0,0-0.1,0.1-0.1,0.1L85,67.3
			c-0.5,0-0.7,0.3-1.1,0.3c-0.5,0.1-0.5-0.1-0.5-0.3c0-0.1-0.1-0.1-0.1-0.2l-0.2,0.2c0.1,0.2,0.2,0.4,0.3,0.7
			c0.1,0.1,0.1,0.1,0.1,0.1h-0.2c-0.5-0.1-0.5-0.1-0.8,0.5c-0.1,0.2-0.2,0.3-0.5,0.3c-0.1,0-0.2,0.1-0.4,0.1
			c-0.5,0.3-1.1,0.5-1.7,0.7c-0.1,0-0.3,0.1-0.5,0.3c-0.4,0.3-0.9,0.5-1.4,0.5c-0.3,0.1-0.6,0.2-0.8,0.5c-0.4,0.4-1,0.7-1.5,0.9
			c-0.9,0.3-1.8,0.7-2.6,1.1c-0.7,0.3-1.4,0.7-2.1,1C70.9,74,70.9,74,70.8,74c-0.9,0.6-1.8,1.2-2.7,1.6c-0.3,0.2-0.5,0.3-0.7,0.5
			c-0.4,0.2-0.8,0.4-1.1,0.7c-0.7,0.6-1.4,1.1-2.3,1.4l-2.2,1.2c-0.2,0.1-0.4,0.2-0.5,0.3C61.1,79.6,61,79.6,61,79.6z M62.8,71.9
			C62.8,71.9,62.9,71.8,62.8,71.9C62.9,71.8,62.9,71.8,62.8,71.9c0.2-0.1,0.4-0.1,0.5-0.2v-0.1C63.2,71.7,63,71.7,62.8,71.9
			C62.8,71.8,62.8,71.8,62.8,71.9c-0.2,0-0.3,0.1-0.4,0.1c0,0,0,0.1,0.1,0.1c0,0,0,0,0,0C62.5,72,62.7,71.9,62.8,71.9z M63.9,64.6
			c0-0.1-0.1-0.1-0.1-0.1c-0.1,0.1-0.1,0.1-0.1,0.1v0.1C63.8,64.7,63.9,64.6,63.9,64.6z M64.3,71.2v-0.1c-0.2,0-0.3,0-0.5,0.1v0.1
			C64,71.3,64.1,71.3,64.3,71.2z M64.4,70.1c0.1-0.1,0.1-0.3,0.2-0.4c0.2-0.2,0.1-0.3-0.1-0.4c-0.2-0.1-0.3-0.2-0.5-0.3
			c0.1,0.1,0.1,0.3,0.1,0.5c0.1,0.2,0,0.3,0.1,0.5c0,0.1,0.1,0.1,0.1,0.2L64.4,70.1z M64.8,67.3c-0.1-0.1-0.1-0.1-0.1-0.2
			c-0.1,0-0.1,0.1-0.3,0.1c0.1,0.1,0.1,0.2,0.1,0.2S64.7,67.4,64.8,67.3L64.8,67.3z M65.3,70.6c0.1-0.1,0-0.1,0-0.1
			c-0.1,0.1-0.2,0.1-0.3,0.1c-0.1,0.1-0.1,0.1-0.1,0.2l0.1,0.1C65,70.8,65.1,70.7,65.3,70.6L65.3,70.6z M67.4,68.9v-0.1
			c0.3-0.1,0.4-0.5,0.7-0.5c0.1,0,0.3-0.1,0.4-0.1c0,0,0.1,0,0.1,0.1c0,0,0,0,0,0v0.1c-0.3,0.2-0.7,0.4-1.1,0.6
			C67.5,69.1,67.5,69,67.4,68.9L67.4,68.9z M68.9,67.9c0.1-0.1,0.2-0.1,0.3-0.1c0.1-0.1,0.1,0.1,0.3,0.2c-0.1,0.1-0.2,0.2-0.3,0.2
			C69,68.2,68.9,68.1,68.9,67.9L68.9,67.9z M69.8,67.7c0.1,0.1,0.3,0.1,0.5,0.1L69.8,67.7L69.8,67.7z M70.6,67
			c0.3-0.2,0.7-0.3,0.9-0.5c0.1,0,0.2-0.1,0.3,0c0.1,0,0.1,0,0.2,0.1c0.1,0,0,0.1-0.1,0.1c-0.3,0.2-0.5,0.5-1,0.5s-0.6,0.1-0.7,0.6
			C70.2,67.2,70.2,67.2,70.6,67L70.6,67z M72.3,66.3c0.1-0.1,0.1-0.1,0.1-0.1c0.3-0.1,0.5-0.3,0.9-0.4h0.2V66
			c-0.1,0.1-0.2,0.3-0.3,0.3C72.9,66.3,72.6,66.3,72.3,66.3L72.3,66.3z M76,65c0.1-0.1,0.1-0.1,0.1-0.1c0,0.1,0.1,0.1,0.1,0.1
			c0,0-0.1,0.1-0.1,0.1L76,65z M76.4,64.6l0.2-0.2c0.1,0,0.1-0.1,0.3-0.1c0,0,0.1,0,0.1,0.1c0,0,0,0,0,0v0.1c-0.1,0-0.2,0.1-0.3,0.1
			L76.4,64.6z M77.7,64c0.6-0.3,1.2-0.5,1.8-0.7c0.1,0,0.2,0.1,0.4,0.1c-0.1,0.1-0.1,0.2-0.2,0.2c-0.3,0.1-0.6,0.5-1.1,0.4
			c-0.3,0.1-0.6,0.2-0.8,0.3c-0.1,0.1-0.3,0.1-0.5,0.1C77.4,64.2,77.5,64.1,77.7,64L77.7,64z M80.1,63.4c0-0.1,0-0.1,0.1-0.1
			c0.3-0.2,0.7-0.3,1.1-0.5v0.1c0.1,0,0.3-0.1,0.4-0.1c0.1-0.4,0.5-0.3,0.8-0.4c0.4,0,0.7-0.3,1.1-0.1c0.1,0,0.1,0.1,0.1,0.1
			c-0.1,0-0.1,0.1-0.1,0.1c-1,0.3-2,0.6-2.9,0.9c-0.1,0.1-0.3,0.1-0.4,0.1C80.1,63.5,80.1,63.4,80.1,63.4L80.1,63.4z M84.6,62.1
			c0-0.1,0-0.1,0.1-0.1c0.4-0.4,1-0.6,1.6-0.7c0.1-0.1,0.3-0.1,0.4-0.1h0.2c0,0.1,0,0.1-0.1,0.2C86,61.6,85.4,61.9,84.6,62.1
			L84.6,62.1z M85.8,66.4c-0.1,0-0.2-0.1-0.3-0.1c-0.1,0.1-0.3,0.2-0.3,0.3c0,0.1,0,0.1,0.1,0.1C85.4,66.5,85.6,66.4,85.8,66.4
			L85.8,66.4z M86.4,64.2c-0.1-0.1-0.2-0.1-0.3-0.1c-0.1,0.1-0.2,0.2-0.3,0.3c0.1,0.1,0.1,0.1,0.2,0.1
			C86.2,64.4,86.3,64.3,86.4,64.2L86.4,64.2z M86.2,63.8c-0.1,0-0.1,0-0.1-0.1c-0.1,0-0.1,0.1-0.1,0.1c0.1,0,0.1,0,0.1,0.1
			C86.1,63.9,86.1,63.8,86.2,63.8L86.2,63.8z M86.1,66L86.1,66c-0.1,0-0.1,0-0.2,0c0,0.1,0.1,0.1,0.1,0.3C86,66.1,86.1,66,86.1,66
			L86.1,66z M87.3,65.2c0.1-0.1,0.2-0.2,0.3-0.3V65c0,0.3-0.1,0.3-0.3,0.3L87.3,65.2z M87.8,66.2L87.8,66.2c0.3,0.1,0.6-0.2,0.9-0.5
			c0.2,0.5,0.2,0.5-0.2,0.6C88.3,66.4,88,66.5,87.8,66.2L87.8,66.2z M88.6,65.7c-0.2,0-0.3,0-0.5-0.1c-0.1-0.1-0.1-0.1-0.2-0.1
			c0.1-0.1,0.1-0.1,0.2-0.1c0.3,0,0.6-0.1,0.7,0.3C88.7,65.7,88.7,65.6,88.6,65.7L88.6,65.7z M88.4,64.6h0.1c0.1,0,0.2,0,0.3,0.1
			h-0.3C88.5,64.7,88.5,64.7,88.4,64.6L88.4,64.6z M88.8,64.7c0.1-0.1,0.2-0.1,0.3-0.1C89.1,64.8,89,65,89,65.2
			C88.8,65.1,88.9,64.9,88.8,64.7L88.8,64.7z M90,66h0.2c0.1,0,0.1,0,0.2,0.1c-0.1,0-0.1,0.1-0.3,0.1L90,66z"/>
		<path class="st0" d="M86.3,79.6c-0.2-0.2-0.5-0.3-0.7-0.5c-0.2-0.1-0.4-0.2-0.6-0.3c-0.4-0.1-0.7-0.3-0.9-0.6
			c-0.2-0.3-0.3-0.5-0.5-0.7c-0.3-0.2-0.3-0.4,0-0.6c0.1-0.2,0.1-0.4,0-0.5c-0.3-0.3-0.3-0.7-0.5-0.9c-0.2-0.2-0.2-0.4,0-0.6
			c0,0,0,0,0,0c0.2-0.3,0.3-0.7,0.4-1.1c0.1-0.2,0.2-0.4,0.3-0.5c0.4-0.5,0.3-1.3,0.7-1.9c0.1-0.3,0.2-0.7,0.3-1.1
			c0.5-1,0.9-1.9,1.3-2.9c0.2-0.7,0.5-1.3,0.7-1.9c0.4-0.8,0.7-1.5,1-2.3c0.4-0.8,0.8-1.7,1.3-2.5c0.1-0.4,0.3-0.8,0.5-1.2
			c0.7-1.4,1.4-2.8,2.1-4.3c0.7-1.1,1.3-2.4,1.9-3.6c0.5-0.9,1-1.8,1.6-2.6c0.1-0.1,0.1-0.2,0.1-0.3c0.4-0.8,0.8-1.6,1.3-2.3
			c0.3-0.6,0.8-1,1-1.7c0.1-0.3,0.3-0.5,0.5-0.7c0.6-0.8,1.1-1.7,1.7-2.5c0.1-0.2,0.3-0.5,0.4-0.7c0.3-0.5,0.5-0.9,0.8-1.3
			c0.1-0.1,0.1-0.2,0.2-0.3l0.6-0.8c0.1-0.1,0.1-0.1,0.1-0.2c0.5-0.9,1.2-1.6,1.7-2.5c0.4-0.7,0.8-1.3,1.2-1.9
			c0.3-0.4,0.5-0.9,1.1-1.1c0.1-0.1,0.2-0.2,0.3-0.3c0.1-0.1,0.2-0.2,0.3-0.2c0.2-0.1,0.5-0.1,0.7-0.1c0.1,0,0.3-0.1,0.3,0
			c0.3,0.3,0.8,0.3,1.2,0.5c0.1,0,0.2,0.1,0.3,0.2c0.1,0.1,0.2,0.1,0.3,0.2c0.7,0.3,1.3,0.7,1.8,1.3c0.2,0.1,0.2,0.3,0.3,0.5
			c0.1,0.5,0.2,0.9,0.3,1.4c0,0.8-0.2,1.5-0.6,2.1c-0.3,0.5-0.7,1-1.1,1.5c-0.4,0.5-0.9,1.1-1.4,1.7c-0.3,0.3-0.7,0.7-1.1,1.1
			c-0.4,0.5-0.8,1-1.1,1.5c-0.2,0.3-0.4,0.6-0.7,0.9c-0.3,0.4-0.6,0.7-0.9,1.1c-0.7,1-1.3,2.1-2,3.1c-0.3,0.3-0.5,0.8-0.7,1.1
			c-0.3,0.5-0.7,0.9-1,1.4c-0.2,0.2-0.3,0.5-0.4,0.7c-0.1,0.3-0.3,0.5-0.5,0.8c-0.5,0.9-1,1.8-1.5,2.7c-0.4,0.6-0.8,1.3-1.1,1.9
			c-0.5,0.7-0.9,1.5-1.3,2.3c-0.3,0.5-0.5,0.9-0.8,1.5c-0.3,0.5-0.3,0.9-0.5,1.3c-0.5,0.9-0.9,1.7-1.3,2.5c-0.1,0.3-0.2,0.5-0.3,0.7
			c-0.3,0.7-0.6,1.5-0.9,2.2c-0.1,0.2-0.1,0.3,0.1,0.5c0.3,0.3,0.3,0.5-0.1,0.8c-0.3,0.1-0.7,0.3-0.9,0.5c-0.1,0.1-0.1,0.1-0.1,0.2
			h0.1c0.7-0.4,1.4-0.7,2.1-1.1c0.9-0.4,1.8-0.8,2.7-1.1c0.3-0.2,0.7-0.3,1.1-0.3c0.1,0,0.1,0,0.2-0.1c0.6-0.4,1.2-0.7,1.9-1
			c0.5-0.3,1.1-0.5,1.7-0.7c0.5-0.2,1.1-0.4,1.6-0.5c0.7-0.1,1.5-0.4,2.1-0.7c0.5-0.3,1.1-0.5,1.7-0.5c0.2-0.1,0.4-0.3,0.6-0.3
			c0.3-0.1,0.5-0.2,0.8-0.3c0.6-0.1,1.2-0.3,1.9-0.5c0.5-0.3,1.1-0.4,1.6-0.3c0.1,0.1,0.1,0,0.3-0.1c0.2-0.4,0.6-0.5,0.9-0.3
			c0,0,0.1,0,0.1,0.1c0.3,0.1,0.3,0,0.5-0.3c0.2-0.6,0.4-1.3,0.7-1.9c0-0.1,0.3-0.2,0.3-0.2c0.4,0.3,0.9,0.1,1.3,0.2
			c0.2,0.1,0.3,0.1,0.4,0.3c0.2,0.3,0.6,0.4,0.7,0.8c0,0.1,0.1,0.1,0.2,0.1c0.2,0,0.3,0.1,0.1,0.2c0,0,0,0.2,0.1,0.3
			c0.2,0.1,0.3,0.2,0.5,0.3c0.1,0,0.3,0,0.3,0.1c0.1,0.1,0.1,0.2,0.1,0.3c-0.1,0.1-0.2,0.1-0.3,0.1c-0.3,0.1-0.5,0.3-0.3,0.5
			c0.3,0.3-0.1,0.2-0.1,0.3h-0.3c-0.3-0.1-0.5,0-0.4,0.3c0.1,0.4,0,0.7-0.1,1.1c-0.1,0.3,0.3,0.2,0.3,0.4c0.1,0.1,0.1,0.1,0.2,0.1
			c-0.1,0-0.1,0.1-0.2,0.1c-0.2,0-0.5,0-0.7-0.1c0,0,0.1,0,0.1-0.1c0,0,0,0,0,0c0.1-0.1,0.1-0.2,0.1-0.2c0-0.1,0.1-0.3,0.1-0.4
			c-0.1,0-0.1-0.1-0.1,0c0,0.1-0.1,0.2-0.2,0.4c0.1,0.1,0.1,0.2,0.1,0.3c-0.4-0.1-0.8-0.2-1.2-0.1c-0.3,0.1-0.2-0.2-0.3-0.4
			c0.2,0.2,0.4,0,0.5-0.1c0-0.2-0.1-0.4-0.3-0.4c0,0-0.1,0-0.1,0c0-0.3-0.3-0.3-0.5-0.4c-0.2-0.1-0.5-0.1-0.7,0.1
			c-0.2,0.1-0.4,0.1-0.6,0.1c0.1-0.1,0.2-0.3,0.3-0.3c0.3,0,0.3-0.3,0.3-0.5c-0.1,0-0.1-0.1-0.1-0.1c0,0.1,0,0.1-0.1,0.1
			c-0.1,0.1-0.1,0.3-0.3,0.3c-0.1-0.1-0.1-0.3-0.3-0.1c-0.1,0.1,0.1,0.2,0.1,0.3c0.1,0.1,0.1,0.3,0.1,0.4c-0.3,0.1-0.6,0.3-0.5,0.7
			c0,0.2-0.1,0.4-0.1,0.6c-0.1,0.1,0,0.1,0.1,0.1c0.3,0.1,0.5,0.2,0.8,0.2c0,0.1,0.1,0.1,0.2,0.3v-0.1c-0.1,0.1-0.3,0.1-0.5,0.1
			c-0.2-0.1-0.3,0.1-0.3,0.2c-0.2,0.3-0.5,0.6-0.8,0.7c-0.2,0.1-0.3,0.1-0.3-0.1c-0.2-0.2-0.5-0.2-0.7,0c0,0-0.1,0.1-0.1,0.1
			l-0.2,0.2c-0.5,0-0.7,0.3-1.1,0.3c-0.5,0.1-0.5-0.1-0.5-0.3c0-0.1-0.1-0.1-0.1-0.2c-0.1,0.1-0.2,0.2-0.2,0.2
			c0.1,0.2,0.2,0.4,0.3,0.7c0.1,0.1,0.1,0.1,0.1,0.1h-0.2c-0.5-0.1-0.5-0.1-0.8,0.5c-0.1,0.2-0.2,0.3-0.5,0.3
			c-0.1,0-0.2,0.1-0.4,0.1c-0.5,0.3-1.1,0.5-1.7,0.7c-0.1,0-0.3,0.1-0.5,0.3c-0.4,0.3-0.9,0.5-1.4,0.5c-0.3,0.1-0.6,0.2-0.8,0.5
			c-0.4,0.4-1,0.7-1.5,0.9c-0.9,0.3-1.8,0.7-2.6,1.1c-0.7,0.3-1.4,0.7-2.1,1C96.2,74,96.2,74,96.2,74c-0.9,0.6-1.8,1.2-2.7,1.6
			c-0.3,0.2-0.5,0.3-0.7,0.5c-0.4,0.2-0.8,0.4-1.1,0.7c-0.7,0.6-1.4,1.1-2.3,1.4l-2.2,1.2c-0.2,0.1-0.4,0.2-0.5,0.3
			C86.4,79.6,86.4,79.6,86.3,79.6z M88.1,71.9C88.2,71.9,88.2,71.8,88.1,71.9C88.2,71.8,88.2,71.8,88.1,71.9
			c0.2-0.1,0.4-0.1,0.5-0.2v-0.1C88.5,71.7,88.3,71.7,88.1,71.9C88.1,71.8,88.1,71.8,88.1,71.9c-0.2,0-0.3,0.1-0.4,0.1
			c0,0,0,0.1,0.1,0.1c0,0,0,0,0,0C87.9,72,88.1,71.9,88.1,71.9z M89.3,64.6c0-0.1-0.1-0.1-0.1-0.1c-0.1,0.1-0.1,0.1-0.1,0.1v0.1
			C89.2,64.7,89.2,64.6,89.3,64.6z M89.6,71.2v-0.1c-0.2,0-0.3,0-0.5,0.1v0.1C89.3,71.3,89.4,71.3,89.6,71.2z M89.7,70.1
			c0.1-0.1,0.1-0.3,0.2-0.4c0.2-0.2,0.1-0.3-0.1-0.4c-0.2-0.1-0.3-0.2-0.5-0.3c0.1,0.1,0.1,0.3,0.1,0.5c0.1,0.2,0,0.3,0.1,0.5
			c0,0.1,0.1,0.1,0.1,0.2L89.7,70.1z M90.1,67.3c-0.1-0.1-0.1-0.1-0.1-0.2c-0.1,0-0.1,0.1-0.3,0.1c0.1,0.1,0.1,0.2,0.1,0.2
			S90,67.4,90.1,67.3L90.1,67.3z M90.6,70.6c0.1-0.1,0-0.1,0-0.1c-0.1,0.1-0.2,0.1-0.3,0.1c-0.1,0.1-0.1,0.1-0.1,0.2l0.1,0.1
			C90.3,70.8,90.5,70.7,90.6,70.6L90.6,70.6z M92.7,68.9v-0.1c0.3-0.1,0.4-0.5,0.7-0.5c0.1,0,0.3-0.1,0.4-0.1c0,0,0.1,0,0.1,0.1
			c0,0,0,0,0,0v0.1c-0.3,0.2-0.7,0.4-1.1,0.6C92.9,69.1,92.8,69,92.7,68.9L92.7,68.9z M94.2,67.9c0.1-0.1,0.2-0.1,0.3-0.1
			c0.1-0.1,0.1,0.1,0.3,0.2c-0.1,0.1-0.2,0.2-0.3,0.2C94.3,68.2,94.2,68.1,94.2,67.9L94.2,67.9z M95.2,67.7c0.1,0.1,0.3,0.1,0.5,0.1
			L95.2,67.7L95.2,67.7z M96,67c0.3-0.2,0.7-0.3,0.9-0.5c0.1,0,0.2-0.1,0.3,0c0.1,0,0.1,0,0.2,0.1c0.1,0,0,0.1-0.1,0.1
			c-0.3,0.2-0.5,0.5-1,0.5s-0.6,0.1-0.7,0.6C95.5,67.2,95.5,67.2,96,67L96,67z M97.6,66.3c0.1-0.1,0.1-0.1,0.1-0.1
			c0.3-0.1,0.5-0.3,0.9-0.4h0.2V66c-0.1,0.1-0.2,0.3-0.3,0.3C98.2,66.3,98,66.3,97.6,66.3L97.6,66.3z M101.3,65
			c0.1-0.1,0.1-0.1,0.1-0.1c0,0.1,0.1,0.1,0.1,0.1c0,0-0.1,0.1-0.1,0.1L101.3,65z M101.7,64.6l0.2-0.2c0.1,0,0.1-0.1,0.3-0.1
			c0,0,0.1,0,0.1,0.1c0,0,0,0,0,0v0.1c-0.1,0-0.2,0.1-0.3,0.1L101.7,64.6z M103,64c0.6-0.3,1.2-0.5,1.8-0.7c0.1,0,0.2,0.1,0.4,0.1
			c-0.1,0.1-0.1,0.2-0.2,0.2c-0.3,0.1-0.6,0.5-1.1,0.4c-0.3,0.1-0.6,0.2-0.8,0.3c-0.1,0.1-0.3,0.1-0.5,0.1
			C102.7,64.2,102.8,64.1,103,64L103,64z M105.4,63.4c0-0.1,0-0.1,0.1-0.1c0.3-0.2,0.7-0.3,1.1-0.5v0.1c0.1,0,0.3-0.1,0.4-0.1
			c0.1-0.4,0.5-0.3,0.8-0.4c0.4,0,0.7-0.3,1.1-0.1c0.1,0,0.1,0.1,0.1,0.1c-0.1,0-0.1,0.1-0.1,0.1c-1,0.3-2,0.6-2.9,0.9
			c-0.1,0.1-0.3,0.1-0.4,0.1C105.5,63.5,105.5,63.4,105.4,63.4L105.4,63.4z M109.9,62.1c0-0.1,0-0.1,0.1-0.1c0.4-0.4,1-0.6,1.6-0.7
			c0.1-0.1,0.3-0.1,0.4-0.1h0.2c0,0.1,0,0.1-0.1,0.2C111.4,61.6,110.7,61.9,109.9,62.1L109.9,62.1z M111.1,66.4
			c-0.1,0-0.2-0.1-0.3-0.1c-0.1,0.1-0.3,0.2-0.3,0.3c0,0.1,0,0.1,0.1,0.1C110.8,66.5,110.9,66.4,111.1,66.4L111.1,66.4z M111.8,64.2
			c-0.1-0.1-0.2-0.1-0.3-0.1l-0.3,0.3c0.1,0.1,0.1,0.1,0.2,0.1C111.5,64.4,111.7,64.3,111.8,64.2L111.8,64.2z M111.5,63.8
			c-0.1,0-0.1,0-0.1-0.1c-0.1,0-0.1,0.1-0.1,0.1c0.1,0,0.1,0,0.1,0.1C111.4,63.9,111.4,63.8,111.5,63.8L111.5,63.8z M111.4,66
			L111.4,66c-0.1,0-0.1,0-0.2,0c0,0.1,0.1,0.1,0.1,0.3C111.4,66.1,111.4,66,111.4,66L111.4,66z M112.6,65.2c0.1-0.1,0.2-0.2,0.3-0.3
			V65c0,0.3-0.1,0.3-0.3,0.3L112.6,65.2z M113.2,66.2L113.2,66.2c0.3,0.1,0.6-0.2,0.9-0.5c0.2,0.5,0.2,0.5-0.2,0.6
			C113.7,66.4,113.4,66.5,113.2,66.2L113.2,66.2z M113.9,65.7c-0.2,0-0.3,0-0.5-0.1c-0.1-0.1-0.1-0.1-0.2-0.1
			c0.1-0.1,0.1-0.1,0.2-0.1c0.3,0,0.6-0.1,0.7,0.3C114.1,65.7,114,65.6,113.9,65.7L113.9,65.7z M113.8,64.6h0.1c0.1,0,0.2,0,0.3,0.1
			h-0.3C113.9,64.7,113.8,64.7,113.8,64.6L113.8,64.6z M114.2,64.7c0.1-0.1,0.2-0.1,0.3-0.1c-0.1,0.2-0.1,0.3-0.2,0.5
			C114.1,65.1,114.2,64.9,114.2,64.7L114.2,64.7z M115.4,66h0.2c0.1,0,0.1,0,0.2,0.1c-0.1,0-0.1,0.1-0.3,0.1L115.4,66z"/>
		<path class="st0" d="M122.3,72.5c-0.4-0.2-0.9-0.3-1.1-0.7c-0.1-0.2-0.3-0.2-0.3-0.4c-0.1-0.1-0.2-0.2-0.3-0.4
			c-0.3-0.1-0.4-0.4-0.5-0.7c-0.2-0.3-0.4-0.7-0.5-1c-0.2-0.2-0.3-0.4-0.1-0.6c0-0.2,0-0.4,0-0.6c0-0.3,0.1-0.7,0.4-0.9
			c0.2-0.1,0.2-0.2,0.2-0.5c0.1-0.6,0.3-1.2,0.6-1.7c0-0.1,0.1-0.3,0.2-0.4c0-0.5,0.2-0.9,0.3-1.3c0.1-0.2,0.1-0.5,0.3-0.6
			c0-0.2,0.3-0.3,0.3-0.4c0-0.2-0.2-0.3,0-0.4c0.1-0.1,0.1-0.3,0.1-0.3c0-0.2,0-0.3,0.2-0.2c0.1,0,0.1-0.1,0-0.2
			c0-0.2,0-0.4,0.1-0.6c0.2-0.5,0.4-1.1,0.6-1.6c0.5-1.2,1.1-2.3,1.8-3.4c0.3-0.4,0.5-0.9,0.7-1.4c0.4-0.7,0.8-1.5,1.2-2.2
			c0.2-0.3,0.3-0.6,0.7-0.6c0.1,0,0.2-0.1,0.2-0.2c0-0.1,0-0.1-0.1-0.2c-0.2-0.2,0-0.4,0-0.5c0.4-0.2,0.5-0.6,0.7-0.9
			c0.3-0.5,0.7-1.1,0.9-1.6c0.3-0.5,0.6-1,0.9-1.5c0.2-0.4,0.4-0.7,0.6-1.1c0.2-0.1,0.2-0.4,0.1-0.5c0-0.1,0-0.3,0.1-0.3
			c0.4-0.5,0.8-1.1,1.2-1.7c0.5-0.6,0.9-1.1,1.3-1.7c0.3-0.2,0.6-0.4,1-0.4c0.9-0.3,1.9-0.3,2.8-0.1c0.4,0.1,0.9,0.3,1.3,0.5l0.1,0
			c0.2,0.6,0.7,0.4,1.1,0.7c0.3,0,0.4,0,0.5-0.3c0.1-0.1,0.2-0.3,0.3,0c0,0.2,0.1,0.2,0.3,0s0.4-0.2,0.5-0.4
			c0.2-0.2,0.2-0.2,0.5,0.1c0.1,0.2,0.1,0.2,0.3,0.1c0.4-0.3,0.8-0.5,1.2-0.6l0.2,0c0.1-0.1,0.2-0.2,0.3-0.3c0,0.1,0.2,0.2,0.2,0.4
			c0.1,0,0,0.1,0.1,0.1l0,0.1l0.1-0.1c0.1-0.6,0.1-0.6,0.6-0.8c1-0.4,2.1-0.8,3.1-1.2c0.9-0.3,1.9-0.4,2.9-0.2c0.3,0,0.5,0,0.7,0.1
			c0.6,0.1,1.1,0.3,1.2,0.9c0,0.1,0.1,0.2,0.3,0.2c0.6,0.6,0.9,1.4,0.7,2.2c0,0-0.1,0-0.1,0.1c0,0,0,0,0,0c0,0.7-0.4,1.4-1.1,1.6
			c-0.3,0.1-0.6,0.3-0.8,0.5c-0.5,0.4-1,0.5-1.6,0.5l-0.2,0c-0.4,0.2-0.9,0.3-1.3,0.4c-0.5,0.1-1.1,0.2-1.6,0.3
			c-0.6,0.2-1.2,0.3-1.9,0.5c-0.1,0-0.2,0-0.2,0.1c-0.4-0.2-0.9,0-1.2,0.3c-0.3,0.2-0.8,0.1-1.1,0.2c-0.3,0.2-0.6,0.3-0.9,0.3
			c-0.6,0.1-1.2,0.3-1.8,0.4c-0.5,0.1-1,0.3-1.4,0.4l-0.4,0c-0.3,0-0.4,0.1-0.6,0.3c-0.4,0.7-0.8,1.3-1.3,2l-1.4,1.9l0,0.1
			c0.1,0,0.2,0,0.3-0.1c0.1,0,0.2,0,0.3,0.2c0.1,0.1,0.1,0.1,0.2-0.1c0.1-0.5,0.2-0.5,0.7-0.5l0.4,0l0.9-0.3c0.1,0,0.1,0,0.2,0
			c0.3,0.3,0.7,0.2,1,0.2c0.6,0,1.1,0.2,1.6,0.5c0,0.1,0.1,0.1,0.2,0.2c0.1,0.3,0.3,0.5,0.5,0.7c0.4,0.4,0.5,0.9,0.4,1.4
			c-0.1,0.5-0.2,0.9-0.3,1.4c-0.1,0.3-0.3,0.5-0.5,0.6c-0.7,0.3-1.4,0.6-2.1,0.7c-0.2,0-0.4,0.1-0.6,0.2c-0.9,0.2-1.8,0.3-2.7,0.4
			c-0.8,0.1-1.6,0.2-2.3,0.3c-0.3,0-0.6,0-1-0.1c-0.5-0.1-0.7-0.1-0.9,0.2c-0.3,0.5-0.5,1.1-0.9,1.7c-0.2,0.4-0.4,0.7-0.5,1.1
			c-0.4,0.8-0.7,1.6-1.2,2.4c-0.1,0.3-0.2,0.5-0.4,0.8c-0.1,0.1,0,0.1,0,0.3c0.1,0,0.2,0,0.2-0.1c1.4-0.5,2.8-1.1,4.1-1.7
			c0.5-0.3,1-0.5,1.5-0.7c0.8-0.1,1.5-0.7,2.3-0.9c0.3-0.1,0.6-0.3,1-0.4c0.1-0.1,0.4,0,0.5,0l0.2,0c0.1-0.4,0.3-0.4,0.5-0.3
			c0.1,0.1,0.2,0,0.2,0c0.2-0.4,0.7-0.4,1.1-0.6c0.5-0.2,1-0.4,1.5-0.6c0.7-0.3,1.4-0.5,2-0.7c0.6-0.1,1.1-0.4,1.6-0.5
			c0.7-0.3,1.4-0.5,2.1-0.7c0.2-0.2,0.8-0.1,1-0.4c0.2-0.2,0.5-0.3,0.7-0.3c0.1,0.1,0.2,0.1,0.3,0.2c0,0.1,0.2,0.1,0.3,0.1
			c0.2-0.3,0.5,0,0.8,0.1c0.3,0.1,0.5,0.2,0.7,0.3c0.3,0.1,0.5,0.2,0.6,0.5c0,0.1,0.1,0.1,0.1,0.1c0.3-0.2,0.4,0,0.5,0.2
			c0,0.1,0.1,0.2,0.1,0.3c0.1,0.1,0.2,0.3,0.2,0.4c-0.1,0.1-0.2,0.2-0.4,0.2c-0.4,0-0.4,0.2-0.4,0.4c-0.1,0.1,0,0.3-0.1,0.3
			c-0.2,0.2-0.5,0.5,0.2,0.4c0,0,0.1,0,0.1,0.1c0,0,0,0,0,0c0,0.1,0,0.1-0.1,0.1c-0.3,0-0.4,0.3-0.6,0.4c-0.2,0.3-0.6,0.2-0.9,0.3
			c-0.2,0-0.5,0-0.6,0.2c-0.2,0.6-0.3,0.2-0.4,0c-0.2-0.1-0.3-0.2-0.5-0.3l0-0.3l0-0.2l0,0.2l0,0.3c-0.1,0.2-0.2,0.4-0.3,0.6
			c-0.1,0.4-0.2,0.4-0.5,0.6c-0.4,0.2-0.9,0.3-1.4,0.6c-0.2,0.1-0.3,0.1-0.5,0.1c-0.7,0.3-1.5,0.7-2.3,1c-0.5,0.1-1,0.2-1.6,0.4
			c-0.5,0.2-1,0.4-1.4,0.6c-0.3,0.2-0.6,0.3-1,0.4c-0.7,0.3-1.4,0.6-2.1,0.9c-0.6,0.2-1.1,0.5-1.6,0.8c-0.6,0.4-1.3,0.6-1.9,1.1
			c-0.4,0.3-0.8,0.5-1.2,0.8c-0.4,0.2-0.6,0.6-1.1,0.6c-0.1,0-0.1,0-0.2,0.1c-0.7,0.5-1.5,0.9-2.4,1.3c0,0-0.1,0.1-0.1,0.1
			c-0.8,0.6-1.8,1.1-2.7,1.4c-0.2,0-0.2,0.1-0.4,0.2c-0.7,0.4-1.4,0.6-2.2,0.7C123,72.8,122.6,72.7,122.3,72.5z M121.7,64.3
			c0-0.1,0-0.1-0.1-0.1s-0.1,0.1-0.1,0.1c0,0.1,0.1,0.1,0.1,0.1C121.7,64.4,121.7,64.4,121.7,64.3z M124.1,62.4
			c0-0.1-0.1-0.2-0.2-0.2c0,0-0.1,0-0.1,0c0,0,0,0,0,0c0,0.1,0,0.3,0.1,0.3C123.9,62.4,124,62.4,124.1,62.4L124.1,62.4z M124.9,60.2
			c0-0.3-0.3-0.7-0.4-0.7c-0.1,0.1-0.2,0.2-0.2,0.3c0,0.2,0,0.3,0.1,0.4c0.1,0.1,0.2,0,0.3,0c0.1,0,0.2,0,0.3,0L124.9,60.2z
			 M146.5,57.5c-0.1-0.1-0.1-0.1-0.1-0.1c0,0-0.1,0.1-0.1,0.1l0,0.2C146.4,57.6,146.5,57.6,146.5,57.5L146.5,57.5z"/>
		<path class="st0" d="M155.2,72.3c-0.2,0-0.3-0.1-0.4-0.2c-0.2-0.6-0.7-1-1.1-1.4c-0.3-0.4-0.6-0.9-0.8-1.4
			c-0.1-0.2-0.1-0.3-0.2-0.5c-0.2-0.3-0.3-0.6-0.2-1c0.1,0,0.1-0.1,0.1-0.2c-0.1-0.7-0.1-1.3,0.1-2c0.3-1.5,0.9-3,1.6-4.4
			c0.4-0.7,0.9-1.4,1.4-2c0.1-0.2,0.2-0.4,0.2-0.6c0.5-0.5,0.9-1,1.3-1.5c0.3-0.3,0.5-0.6,0.8-1c0.1-0.2,0.3-0.4,0.5-0.6
			c0-0.1,0.1-0.1,0.1-0.2c0.5-0.2,0.7-0.8,1.1-1.2c0.5-0.4,0.9-0.9,1.3-1.4c0.2-0.1,0.3-0.1,0.5-0.2c0.1-0.1,0.2-0.1,0-0.2
			c0-0.1,0-0.1,0.1-0.2c0.3-0.3,0.6-0.5,0.9-0.8c0.2-0.3,0.5-0.6,0.8-0.8c0.3-0.3,0.6-0.6,1-0.9c0.4-0.2,0.7-0.6,1-0.9
			c0.2-0.2,0.5-0.4,0.7-0.6c0.5-0.4,1-0.8,1.5-1.3c0.2-0.2,0.4-0.2,0.6-0.4c0.2,0,0.3-0.1,0.5-0.2c0.3-0.3,0.6-0.4,1-0.5h0.1
			c-0.1-0.1-0.1-0.1-0.1-0.1c-0.1,0-0.1-0.1-0.2-0.1c0.1-0.1,0.1-0.1,0.1-0.1c0.1-0.1,0.3-0.2,0.4-0.3c0.2-0.1,0.4-0.4,0.7-0.2
			c0.1,0.1,0.2,0,0.2-0.2c0-0.2,0.2-0.4,0.5-0.4c0.1,0,0.2-0.1,0.4-0.1c0.1,0,0.3,0.1,0.4,0.1c0.1-0.1,0.2-0.3,0.2-0.4
			c0.1-0.3,0.2-0.4,0.5-0.4c0.2,0,0.5,0.1,0.4-0.4c0-0.1,0.1-0.1,0.2-0.2c0.4-0.1,0.8-0.2,1.3-0.2c0.1-0.1,0.3-0.1,0.3-0.2
			c0.1-0.5,0.5-0.4,0.7-0.3c0.2,0,0.4,0,0.7-0.1c0.1,0,0.4,0,0.1-0.3c-0.1-0.1,0.2-0.4,0.5-0.5c0.2,0,0.3-0.1,0.4-0.2
			c0.2-0.2,0.4-0.3,0.7-0.2c0.4-0.1,0.8-0.1,1-0.6c0.1-0.1,0.2-0.1,0.2,0c0.2,0.2,0.2,0.1,0.4,0.1c0.4-0.2,0.9-0.3,1.4-0.4
			c0.2-0.1,0.4-0.2,0.6-0.2c0.9-0.3,1.8-0.5,2.7-0.7c0.1,0,0.1-0.1,0.2-0.1c0.1,0,0.2,0,0.2,0.1c0.1,0.2,0.2,0.2,0.4,0.1
			c0.2-0.1,0.5-0.3,0.7-0.4c0.1-0.1,0.2-0.1,0.2,0c0.1,0.5,0.4,0.2,0.7,0.2c0.2,0.1,0.4,0.3,0.7,0.4c0.1,0,0.1,0,0.2-0.1
			c0-0.1-0.1-0.1-0.1-0.1c-0.2-0.1-0.5-0.1-0.8-0.2v-0.4c0.2,0.1,0.2,0.2,0.4,0.2c0.3,0.1,0.5,0.1,0.8,0.2c0.4,0.1,0.4,0,0.2-0.3
			c-0.1-0.1,0-0.3,0-0.4c0.1,0,0.2-0.1,0.2,0c0.2,0,0.4,0.1,0.6,0.2c0.3,0.1-0.1,0.1,0,0.2c0.1,0.4,0.6,0.6,1,0.5
			c0.2-0.1,0.4,0.1,0.6,0c0.2,0.2,0.4,0.3,0.5,0.5c0.1,0.1,0.1,0.2,0.2,0.2c0.2,0.2,0.4,0.2,0.5-0.1c0.2,0.1,0.3,0.4,0.1,0.7
			c-0.1,0.2-0.2,0.5,0.2,0.5c0.1,0,0.4,0.1,0.2,0.4c0,0,0,0.1,0.1,0.1c0.2,0,0.3,0.2,0.3,0.4v1.1c0,0.2-0.1,0.5,0.1,0.6v0.2
			c0,0-0.1,0.1-0.1,0.1c0.1,0.3,0.2,0.7,0.1,1c0,0.2-0.1,0.1-0.2,0.1l-0.1-0.1c-0.2-0.1-0.3-0.2-0.5-0.2c0.1,0.1,0.3,0.3,0.4,0.4
			c0,0,0.1,0.1,0.1,0.1c0.3,0.2,0.4,0.3,0.2,0.6c-0.3,0.9-0.8,1.8-1.4,2.5c-0.4,0.5-0.8,1-1.2,1.5c-0.4,0.4-0.8,0.8-1.2,1.2
			c-0.4,0.5-0.9,1-1.4,1.4c-0.2,0.1-0.4,0.3-0.5,0.6c-0.3,0.2-0.5,0.5-0.8,0.7c-0.2,0.1-0.4,0.3-0.5,0.5c-0.5,0.6-1,1.1-1.7,1.5
			c-0.5,0.4-1,0.7-1.5,1.1c-0.1,0.1-0.2,0.2-0.2,0.2l-0.3,0.3c-0.6,0.3-1.1,0.7-1.5,1.2c-0.1,0.1-0.2,0.2-0.4,0.2
			c-0.4,0.2-0.7,0.5-1,0.8c-0.2,0.1-0.4,0.3-0.6,0.4c-0.2,0.2-0.5,0.4-0.7,0.5L176,62c-0.1,0-0.2,0.1-0.2,0c-0.2,0-0.2,0.1-0.3,0.2
			c-0.1,0.1-0.2,0.2-0.3,0.3c-0.4,0.4-0.9,0.7-1.3,1c-0.1,0.1-0.2,0.3-0.2,0.4c0.1,0.1,0.2,0.2,0.5,0.2c0.7,0.1,1.4,0.2,2,0.4
			c0.2,0.1,0.4,0.2,0.5,0.4c0.1,0,0.2,0.2,0.2-0.1c0.3,0,0.7-0.1,1,0.2c0.1,0.1,0.2,0.2,0.3,0.1c0.1-0.1,0.2-0.1,0.2-0.1
			c0.4,0.3,0.9,0.2,1.3,0.2c0.7,0.1,1.4,0.2,2,0.4c0.7,0.1,1.4,0.3,2.1,0.5c0.5,0.1,1.1,0.3,1.6,0.5c0,0,0.1,0.1,0.1,0.2
			c-0.1,0.2-0.1,0.4-0.1,0.5c0,0.1,0.1,0.2,0.1,0.2c0.4,0,0.4,0.2,0.4,0.5c0.1,0.2,0.4,0.4,0.7,0.3c0.2-0.1,0.3,0.1,0.5,0.1
			c0.1,0,0.2-0.2,0.4-0.2c0.3-0.1,0.5-0.1,0.8,0.2c0.1,0.1,0.1,0.1,0.2,0.1c0.4,0,0.4,0.4,0.5,0.6c0.1,0,0,0.2-0.1,0.2
			c-0.1,0-0.1,0.1-0.1,0.2s0.1,0.2-0.1,0.1c-0.1,0-0.3-0.1-0.5-0.1c-0.1,0-0.2,0-0.2,0.1s0,0.2,0.1,0.2c0.1,0.1,0.1,0.1,0.2,0.2
			c0.1,0.1,0.4,0.4,0.3,0.5s-0.1,0.5-0.5,0.5c-0.2,0-0.3,0.1-0.5,0.2c-0.1,0-0.2,0.1-0.3,0.1c0.1,0.1,0.2,0.1,0.2,0.2
			c0.2,0.1,0.2,0.1,0,0.2c-0.1,0.1-0.1,0.1-0.2,0.1c0,0-0.1,0-0.1,0.1c0,0,0,0,0,0c0,0,0.1,0.1,0.1,0.1c0.1,0.1,0.2,0.1,0.3,0.1
			c0.2,0.2,0.2,0.4,0.4,0.5c-0.2-0.1-0.4-0.1-0.6-0.1c-0.1,0-0.2-0.1-0.4-0.1c-0.2-0.1-0.5,0.1-0.4-0.4c-0.1,0-0.2,0-0.2-0.1
			c-0.2,0.1-0.3,0-0.5-0.1c-0.1-0.1-0.2-0.2-0.1-0.3c0.1,0,0-0.1,0-0.1c0-0.1-0.1-0.1-0.1,0c-0.2,0.1-0.4,0.1-0.6,0h-0.3
			c-0.2,0.1-0.3,0.1-0.3-0.1c0,0-0.1-0.1-0.2,0c-0.1,0.1-0.2,0.1-0.3,0.2s-0.2-0.1-0.2-0.1c-0.1-0.2-0.3-0.2-0.4-0.2
			c-0.2-0.1-0.4-0.1-0.5-0.1c-0.2-0.1-0.5-0.1-0.8,0.1c-0.1,0.1-0.2,0-0.3-0.1c-0.5-0.2-1-0.5-1.4-0.1c-0.2,0.1-0.2,0.1-0.4-0.2
			c-0.1-0.2-0.2-0.1-0.4,0.1c-0.2,0.3-0.6,0.4-1,0.4c-0.2,0-0.4-0.1-0.7-0.1c-0.1,0-0.2-0.1-0.2-0.1l0.2-0.2
			c0.1-0.1,0.2-0.1,0.3,0.1c0,0.1,0.1,0.1,0.1,0.1c0,0,0-0.1,0-0.1c0,0,0,0,0,0c-0.1-0.1-0.1-0.2-0.2-0.2c0-0.1-0.2,0-0.2,0
			c-0.2,0.2-0.4,0.2-0.7,0.1c-0.3-0.1-0.6-0.1-0.8-0.1c-0.3,0-0.7,0-0.7-0.4c-0.1,0-0.1,0.1-0.2,0.1h-0.2v0.1h0.2
			c0.1,0,0.1-0.1,0.2-0.1c-0.1,0.3-0.2,0.4-0.6,0.3c-0.1-0.1-0.1,0-0.2,0c-0.1,0.1-0.2,0.1-0.2-0.1c-0.1-0.4-0.2-0.4-0.5-0.2
			c-0.6,0.3-1.2,0.3-1.8,0c-0.1-0.1-0.3-0.1-0.4-0.1h-1.5c-0.3-0.1-0.7-0.2-0.9-0.2c-0.6,0-1.2,0-1.8-0.1c-0.5-0.1-1.1-0.1-1.5-0.2
			h-0.6c-0.5,0-1.1,0-1.6-0.2c-0.4-0.1-0.8-0.3-1.2-0.5c-0.2-0.1-0.2-0.2-0.2-0.5c0.1-0.4-0.1-0.8-0.5-1.1c-0.2-0.2-0.5-0.5-0.8-0.7
			c0,0-0.1-0.1,0-0.2c0.1-0.1,0-0.2-0.1-0.4c-0.2-0.4-0.1-0.7,0.3-1c0.3-0.1,0.5-0.4,0.5-0.7c0.1-0.1,0.1-0.4,0.3-0.5
			c0.3-0.2,0.7-0.3,1-0.4c0.2-0.1,0.3-0.1,0.5-0.1c0.3,0.1,0.5-0.1,0.7-0.3c0-0.1,0.2-0.2,0.3-0.2h0.1c-0.1,0-0.1,0.1-0.1,0.1
			c-0.2,0.1-0.1,0.2,0.1,0.2c0.5,0,0.9-0.2,1.4-0.4c0.2-0.1,0.3-0.4,0.5-0.5c0-0.1,0.1-0.1,0.1-0.2c-0.1-0.5,0.4-0.6,0.6-0.9
			c0.5,0.1,0.7-0.4,1.1-0.6c0.1-0.1,0.3-0.1,0.3-0.1c0.5,0.5,0.8,0.1,1.1-0.1c0.2-0.2,0.4-0.2,0.7-0.2c0.2,0,0.4,0,0.6-0.1
			c0.1,0,0.1-0.1,0.1-0.1c0,0-0.1,0-0.1-0.1c-0.1,0.1-0.1,0.1-0.2,0.1c-0.1,0.1-0.1,0.1-0.2,0.1c0.1-0.1,0.1-0.2,0.2-0.2
			c0-0.1,0.1-0.1,0.1-0.2c0-0.1-0.1-0.1-0.1-0.2c0,0.1-0.1,0.1-0.1,0.1c-0.1,0-0.2,0.1-0.2,0.2c-0.1-0.2-0.1-0.4-0.1-0.5
			c0-0.1,0.2-0.1,0.5-0.2c0.1-0.1,0.3-0.1,0.4-0.2c-0.1,0.2-0.3,0.3-0.2,0.5c0.2,0.2,0.4,0,0.5-0.1s0.2-0.1,0.2-0.1
			c0.1-0.1,0.1-0.1,0.1-0.1c-0.4,0-0.3-0.4-0.5-0.5c0.2-0.3,0.5-0.5,0.9-0.4c0.1,0,0.2,0.1,0.1,0.2c-0.1,0-0.2,0.1-0.1,0.2
			c0.2,0.1,0.3,0.1,0.5,0.1c0.1,0,0.1-0.1,0.2-0.2s0.1-0.4,0.2-0.4c0.1-0.1,0.2-0.1,0.4-0.1l0.1-0.1c-0.1-0.1-0.2-0.1-0.2-0.1
			c-0.1,0.1-0.2,0-0.1-0.2c0.3-0.7,0.3-0.7,1-1c0.1,0,0.1,0,0.1-0.1c0.1-0.4,0.6-0.5,0.8-0.8c0.2-0.2,0.4-0.4,0.7-0.4
			c0.2-0.1,0.4-0.2,0.5-0.4c0.2-0.3,0.5-0.5,0.7-0.7c0.1-0.1,0.2-0.2,0.4-0.2c0.1,0,0.2,0,0.2-0.2c-0.1,0,0-0.1,0-0.1
			c0.4,0,0.5-0.5,0.8-0.6c0.2-0.1,0.3-0.3,0.5-0.1c0.1,0.2,0.2-0.1,0.3-0.1c0.2,0,0.3-0.1,0.4-0.1c0-0.2,0-0.3-0.1-0.5
			c-0.1-0.2-0.1-0.2,0.1-0.4c0.2-0.1,0.3-0.3,0.4-0.4c0.3-0.3,0.5-0.6,1-0.6c0.2,0,0.3-0.2,0.4-0.3c0-0.1-0.1-0.2-0.1-0.2
			c0.1,0,0.2,0,0.2-0.1c0.1,0,0.1-0.1,0.1-0.1c-0.1-0.2,0.1-0.2,0.2-0.2c0.2-0.1,0.3-0.1,0.3-0.3c0.1-0.3,0.4-0.5,0.7-0.5
			c0,0,0,0,0,0c0.2,0.1,0.3-0.1,0.2-0.2c-0.1-0.2,0-0.2,0.2-0.4c0.3-0.2,0.5-0.4,0.8-0.7c0.2-0.1,0.2-0.4,0.5-0.5
			c0.2-0.1,0.3-0.3,0.4-0.5c0.1-0.2,0.3-0.3,0.5-0.2c0.1,0.1,0.2-0.2,0.4,0c0,0,0.1-0.1,0.1-0.2c0-0.1,0-0.1-0.1-0.1
			c-0.3-0.2-0.3-0.2-0.2-0.4c0.3-0.4,0.7-0.9,1-1.3c0.2-0.2,0.3-0.5,0.3-0.8c0,0,0-0.1-0.1-0.1c-0.2-0.1-0.4-0.2-0.6-0.2
			c-0.8,0.1-1.6,0.3-2.3,0.6c-0.5,0.2-1,0.3-1.5,0.5c-0.3,0.1-0.7,0.3-1,0.4c-0.2,0.1-0.5,0.2-0.8,0.3c-0.2,0.1-0.4,0.1-0.5,0.2
			c-0.5,0.4-1,0.5-1.4,0.8c-0.1,0.1-0.3,0.1-0.4,0.2c-0.1,0.2-0.4,0-0.5,0.1c-0.1,0.1-0.1,0.4-0.4,0.4c-0.1,0-0.2,0-0.2,0.1
			c-0.2,0.4-0.7,0.2-1,0.5c-0.4-0.1-0.6,0.2-0.8,0.5c-0.4,0-0.6,0.4-1,0.6c-0.8,0.5-1.7,1.1-2.4,1.5c-1,0.7-1.8,1.4-2.7,2.1
			c-0.4,0.4-0.8,0.8-1.3,1.1c-0.2,0.1-0.3,0.3-0.4,0.5c-0.8,0.7-1.4,1.5-2.1,2.2c-0.5,0.5-1,1-1.4,1.4c-0.5,0.5-0.9,1-1.3,1.6
			c-0.1,0.2-0.4,0.4-0.5,0.5c-0.6,0.8-1.1,1.6-1.7,2.4c-0.6,0.9-1.1,1.9-1.5,2.9c-0.2,0.4-0.3,1-0.5,1.4c-0.1,0.4,0,0.7,0.1,1.1
			c0.2,0.3,0.2,0.7,0.2,1.1v0.6c-0.1,0.3-0.1,0.6-0.2,0.9c-0.1,0.3-0.2,0.5-0.4,0.8c-0.5,1-1.6,1.5-2.7,1.3
			C155.9,72.5,155.5,72.4,155.2,72.3z M169.5,63c0,0,0.1-0.1,0.1-0.2c0,0,0-0.1-0.1-0.1c0,0,0,0,0,0c-0.2,0-0.3,0-0.5,0.1
			c-0.1,0-0.3,0.1-0.4,0.1c0.2,0.1,0.3,0.2,0.5,0.2C169.2,63.2,169.3,63.1,169.5,63L169.5,63z M169.7,61.8c-0.1-0.1-0.1-0.2-0.1-0.2
			c-0.1,0-0.1,0.1-0.1,0.1c0,0.1,0.1,0.1,0.1,0.1H169.7z M169.6,60.1l0.2-0.2h0.2c0,0.1-0.1,0.2-0.1,0.2c-0.1,0.1-0.2,0.1-0.4,0.1
			L169.6,60.1z M170.6,59.8c-0.2,0-0.4,0.1-0.6,0.1C170.3,59.6,170.3,59.6,170.6,59.8L170.6,59.8z M170.5,61.5h-0.1
			c-0.1,0.1-0.1,0.1-0.1,0.2C170.4,61.7,170.5,61.7,170.5,61.5L170.5,61.5z M171.5,58.6c-0.1,0.1-0.1,0.2-0.2,0.4
			C171.2,58.7,171.3,58.6,171.5,58.6L171.5,58.6z M171.6,62.8c-0.1-0.1-0.1-0.2-0.2-0.3c-0.1,0.1-0.1,0.1-0.1,0.1
			c0.1,0.1,0.1,0.2,0.2,0.3C171.6,62.9,171.6,62.8,171.6,62.8L171.6,62.8z M172.8,62.5L172.8,62.5l-0.6-0.1c0,0-0.1,0-0.1,0.1
			c0,0,0,0,0,0c0.1,0.1,0.3,0.2,0.5,0.2C172.6,62.7,172.7,62.6,172.8,62.5L172.8,62.5z M174.1,59.8c-0.1-0.1-0.3-0.1-0.4-0.2
			c-0.1,0.1-0.1,0.1-0.1,0.1v0.1C173.8,59.9,173.9,59.9,174.1,59.8L174.1,59.8z M174.8,65.8c0,0-0.1,0-0.1-0.1
			c-0.1,0.1-0.1,0.1-0.1,0.1V66C174.7,65.8,174.7,65.8,174.8,65.8L174.8,65.8z M175.3,65.6c-0.1-0.1-0.1-0.2-0.2-0.2
			c-0.1,0-0.1,0.1-0.1,0.1c0.1,0.1,0.1,0.1,0.2,0.1C175.3,65.7,175.3,65.6,175.3,65.6L175.3,65.6z M175.6,56.7
			c0-0.1-0.1-0.1-0.1-0.1c0,0.1-0.1,0.1-0.2,0.2h0.1C175.5,56.8,175.6,56.7,175.6,56.7L175.6,56.7z M176.6,55.7
			c-0.1,0-0.1-0.1-0.1-0.1c-0.1,0-0.2,0.1-0.2,0.2c0,0.1,0.1,0.1,0.1,0.2C176.5,55.8,176.5,55.8,176.6,55.7L176.6,55.7z M179.1,54
			c0-0.1-0.1-0.1-0.2-0.1c-0.1,0.1-0.1,0.2-0.1,0.4c0,0.1,0.1,0.1,0.1,0.2C178.9,54.2,179,54.1,179.1,54L179.1,54z M181,51.9
			l-0.1-0.1c-0.1,0-0.2-0.1-0.2,0c-0.1,0.1-0.2,0.2-0.3,0.3v0.1C180.6,52,180.8,52,181,51.9L181,51.9z M182.9,66.7
			c-0.2-0.2-0.3-0.6-0.7-0.7c-0.1,0-0.1,0-0.1,0.1c-0.2,0.2,0.1,0.7,0.5,0.7L182.9,66.7z M182.7,67.3c0-0.1-0.1-0.2-0.1-0.2
			c0,0-0.1,0-0.1,0.1c0,0.1,0.1,0.3,0.2,0.4C182.6,67.4,182.7,67.3,182.7,67.3L182.7,67.3z M184.2,69.9c0.2-0.2,0.1-0.4,0-0.4
			c-0.3-0.1-0.5-0.5-0.9-0.2c-0.1,0.1-0.1,0-0.3,0c0.1,0,0,0-0.1,0.1l0.1,0.1c0.2,0,0.4,0.1,0.5,0.3c0.1,0.1,0.3,0.2,0.5,0.2
			C184.1,70.1,184.1,69.9,184.2,69.9L184.2,69.9z M183.3,43.7c-0.1-0.1-0.1-0.1-0.1-0.2c0,0-0.2,0.1-0.1,0.1c0.1,0,0.1,0.1,0.2,0.2
			C183.2,43.9,183.3,43.7,183.3,43.7L183.3,43.7z M185.6,69.9c-0.1-0.1-0.2-0.1-0.3-0.1c-0.1,0.1-0.1,0.1-0.1,0.1
			c0.1,0.1,0.1,0.2,0.1,0.2C185.5,70.1,185.5,70.1,185.6,69.9z M186.2,47.8c-0.2,0-0.2-0.1-0.2,0c-0.1,0-0.2,0.1-0.2,0.2h0.1
			C185.9,48,186,47.9,186.2,47.8L186.2,47.8z M186.5,69.1c-0.2-0.1-0.2-0.2-0.3-0.2s-0.1,0.1-0.1,0.2c0,0,0.1,0.1,0.2,0.1
			C186.3,69.2,186.4,69.2,186.5,69.1L186.5,69.1z M187.7,68c-0.3-0.1-0.5-0.2-0.8-0.2c-0.1,0-0.1-0.1-0.2-0.1
			c0.1-0.1,0.1-0.2,0.1-0.3c0.1-0.1,0.2-0.1,0.2,0c0.2,0.2,0.4,0.3,0.7,0.4c0,0.1,0,0.2,0.1,0.2L187.7,68L187.7,68z M187,68.7
			C187,68.7,187,68.7,187,68.7C187,68.6,187,68.6,187,68.7c-0.1,0-0.2,0-0.2,0.1c0.1,0,0.1,0.1,0.1,0.1
			C186.9,68.8,187,68.8,187,68.7L187,68.7z M187,38.1h0.2v0.1h-0.1C187,38.2,186.9,38.2,187,38.1L187,38.1z M188.2,39.4
			c-0.1,0-0.1,0-0.1-0.1l-0.2,0.2c0.1,0,0.1,0.1,0.2,0.1C188.1,39.6,188.1,39.5,188.2,39.4L188.2,39.4z M188.1,41.4
			c-0.1,0-0.1-0.1-0.1-0.1c0,0-0.1,0.1-0.1,0.1L188.1,41.4L188.1,41.4z M188.5,45.9c-0.1-0.1-0.1-0.1-0.1-0.1c0,0-0.1,0.1-0.1,0.1
			c0.1,0,0.1,0.1,0.1,0.1C188.4,45.9,188.5,45.9,188.5,45.9L188.5,45.9z M189.2,40C189.3,40,189.2,40,189.2,40
			c-0.2,0-0.3,0.1-0.4,0.1c0.1,0.1,0.2,0.1,0.3,0.2C189.2,40.2,189.2,40.1,189.2,40L189.2,40z M189.8,49.8c0-0.1,0-0.1-0.1-0.1
			c0,0.1-0.1,0.1-0.1,0.2L189.8,49.8C189.7,49.9,189.7,49.8,189.8,49.8L189.8,49.8z M190.9,48.4c-0.1-0.1-0.2-0.1-0.3-0.2l-0.1,0.1
			c0.1,0.1,0.2,0.1,0.2,0.1C190.8,48.4,190.9,48.4,190.9,48.4L190.9,48.4z M191.2,39.8L191.2,39.8c0.2-0.1,0.4,0.1,0.5,0.3
			C191.6,40,191.4,39.9,191.2,39.8L191.2,39.8z M191.6,41.7c0,0,0-0.1-0.1-0.1h-0.1v0.1H191.6z M191.8,45.8
			c-0.1-0.1-0.1-0.1-0.2-0.2c-0.1,0-0.1,0.1-0.1,0.1c0,0.1,0.1,0.1,0.1,0.2C191.8,45.8,191.8,45.8,191.8,45.8L191.8,45.8z"/>
	</g>
	<g>
		<path class="st0" d="M31.9,121.7c-0.2-0.1-0.4-0.2-0.6-0.2c0,0-0.1-0.1-0.1-0.1l0.1,0c0.3-0.1,0.3-0.2,0.1-0.4s-0.4-0.1-0.6-0.3
			c-0.1,0-0.1,0-0.2-0.1c0-0.1,0-0.1-0.1-0.1c-0.1,0-0.2,0-0.2-0.1c-0.1-0.1-0.1-0.2-0.2-0.2l0-0.1c0.2,0,0.3-0.1,0.5-0.2l0-0.2
			c-0.1-0.1-0.2-0.1-0.2,0c0,0,0,0,0,0l-0.2,0c0-0.1,0-0.2,0.1-0.3l0.1,0c0,0.1,0,0.1,0,0.1c0.1,0,0.1,0,0.1-0.1c0-0.1,0-0.1,0-0.2
			c-0.3-0.1-0.6-0.4-1-0.5c-0.2,0-0.3-0.2-0.4-0.2c0,0,0-0.1,0-0.1c0,0,0.1,0,0.1,0c0,0.2,0,0.1,0.1,0c0.2-0.3,0.5-0.4,0.8-0.5
			c0.3,0,0.4-0.1,0.2-0.4c0-0.1,0-0.2,0-0.4c0-0.2,0.2,0,0.2-0.1c0.1,0,0.1-0.2,0.1-0.2c-0.1-0.1-0.2-0.2-0.3-0.3c0,0,0-0.1,0-0.1
			c0,0,0,0,0,0c0.2-0.2,0-0.3-0.1-0.4c0-0.1,0.1-0.1,0.1-0.2l0-0.2c0-0.1-0.4,0-0.1-0.2c0,0-0.1-0.1-0.1-0.1l-0.1,0.1
			c-0.1,0,0,0.1,0,0.1c0,0-0.1,0-0.1-0.1c-0.1-0.2-0.2-0.2-0.3-0.1c-0.1,0-0.1,0-0.2,0l0-0.2c0-0.1,0-0.1,0.1-0.2
			c0.2,0,0.1-0.2,0-0.3l0.1-0.3l0.1-0.4l0-0.1c-0.2-0.1-0.3-0.2-0.2-0.4c0.1-0.2,0.2-0.4,0.3-0.6c0-0.1,0.1,0,0.1-0.1
			c0,0.1,0,0.1,0,0.1l0,0.2c0,0,0,0.2,0.1,0.2s0.1,0,0.2-0.1c0.1,0,0.2-0.1,0.2-0.1l0-0.1c-0.2,0-0.1-0.1,0-0.2c0.1,0,0.2,0,0.3,0
			c0.2,0.1,0.2,0,0.2,0c0-0.1,0-0.2,0.2-0.2c0.1,0,0.2,0.1,0.3,0.1c0.1,0,0.2,0,0.2,0c0.1,0,0.1-0.2,0.2-0.2l-0.1,0
			c-0.3,0.1-0.4,0-0.5-0.3c0-0.1-0.1-0.1-0.2-0.1c-0.1,0-0.1,0.1-0.2,0.2c-0.1,0,0,0.1,0,0.1s-0.1,0.1-0.1,0.1
			c0-0.1-0.1-0.1-0.1-0.2c0-0.1,0-0.2-0.1-0.2c-0.1,0-0.2,0-0.3,0.1l0,0.1l0.1,0c0.1,0,0.2-0.1,0.2,0.1c0,0.2-0.1,0.2-0.1,0.2
			l-0.3,0c-0.1,0,0-0.1,0-0.1c0.1-0.1,0.2-0.3,0.2-0.4c0.1-0.1,0.2-0.2,0.3-0.3l0-0.1c0.1-0.3,0.3-0.6,0.5-0.9c0-0.1,0.1,0,0.1-0.1
			c0-0.1,0.1-0.2,0.1-0.2c0,0.1,0,0.1,0,0.2l0.1,0c0.1,0,0.1,0,0.2,0c0-0.1,0.1,0,0.1-0.1c0-0.1,0-0.2-0.2-0.1
			c0-0.1-0.1-0.1-0.1-0.2c0.1-0.3,0.3-0.6,0.4-0.9c0.2-0.2,0.3-0.4,0.4-0.7c0.1-0.3,0.3-0.5,0.5-0.7c0-0.1,0.1,0,0-0.1
			c0-0.1,0-0.1,0.1-0.2c0.1,0,0.2-0.2,0.2-0.4c0.3-0.4,0.6-0.8,0.8-1.2c0.1-0.1,0.1-0.2,0.2-0.3l0-0.1c0.3-0.2,0.3-0.7,0.5-0.9
			c0.2-0.3,0.4-0.5,0.6-0.7l0-0.1c0.3-0.5,0.6-0.9,0.9-1.3l0.7-0.9c0.2-0.3,0.5-0.6,0.7-0.8c0.3-0.3,0.5-0.6,0.7-0.9l0.8-0.9
			c0.1-0.2,0.3-0.4,0.4-0.5c0.4-0.5,0.8-0.9,1.3-1.4c0.4-0.4,0.8-0.9,1.2-1.3c0.6-0.6,1.1-1.1,1.6-1.6l0.1-0.1
			c0-0.1,0.1-0.2,0.1-0.2c-0.1-0.1-0.1-0.3-0.2-0.3c-0.2,0-0.3-0.2-0.5-0.3l-0.2,0c-0.4-0.1-0.6-0.4-0.6-0.7
			c-0.1-0.4-0.3-0.8-0.5-1.2c-0.1-0.3-0.2-0.6-0.2-0.9c0.1,0-0.1-0.2-0.1-0.3c-0.1-0.1-0.1-0.3-0.2-0.4c-0.1-0.3,0.1-0.6,0.4-0.8
			c0.1,0,0.1-0.1,0.1-0.2c0.1-0.3,0.4-0.6,0.8-0.6c0.1,0,0.1,0,0.1-0.1c0.1-0.5,0.7-0.4,1.1-0.7c0,0,0.1,0,0.1,0
			c0.2-0.1,0.5-0.2,0.7-0.2l0.1-0.1c0.1,0,0.2,0,0.3,0l0.1,0c0.2-0.3,0.6-0.2,0.9-0.4c0.3-0.1,0.5-0.2,0.8-0.2c0.1,0,0.2,0.1,0.3,0
			c0.2,0,0.4-0.2,0.7-0.2l1.1-0.2c0.1,0,0.2-0.1,0.4-0.1c0.1,0,0.3-0.1,0.4-0.1c0.1,0,0.2,0.1,0.3-0.1c0,0,0-0.1,0.1,0c0,0,0,0,0,0
			c0.1,0.2,0.4,0,0.5,0c0.1,0,0.1,0,0.2-0.1c0.1,0,0.1,0,0.2,0c0.2,0,0.3,0,0.5,0c0.5,0,0.9-0.1,1.4-0.2c0.6,0,1.2-0.2,1.7-0.4
			c0.2-0.1,0.4-0.1,0.6,0c0.6,0,1.2,0.1,1.8,0.1c0.2,0,0.4,0.1,0.6,0c0.2,0,0.3,0,0.5,0c0.4,0,0.8,0,1.3,0c0.2,0,0.4,0,0.5,0l0.1,0
			c0.5,0.1,1.1,0.2,1.6,0.2c0.2,0,0.5,0,0.7,0.1c0.5,0,0.9,0,1.4,0c0.5,0.2,1,0.4,1.4,0.7c0.1,0,0.3,0.1,0.4,0.2
			c0,0.1,0.1,0.1,0.2,0.1c0.2,0,0.4,0.1,0.4,0.3c0.1-0.1,0.3-0.2,0.2,0l0,0.1c0.2,0,0.3,0.1,0.4,0.2c0,0,0,0.1,0,0.1
			c0,0.5,0.3,0.7,0.5,1c0.3,0.3,0.4,0.8,0.3,1.2c-0.1,0.3-0.1,0.6,0,0.9c0,0.1,0,0.2,0,0.4l-0.1,0.4c-0.2,0.2-0.3,0.5-0.2,0.8
			c0,0.1,0,0.3-0.1,0.4c-0.1,0-0.2,0.2-0.2,0c0-0.1-0.1-0.1-0.2-0.2c0,0.1,0,0.2,0,0.3c0,0.1,0,0.2,0.1,0.4l0,0.3
			c0,0-0.1,0.1-0.1,0.2c-0.2,0.1-0.4,0.2-0.4,0.5c-0.1,0.2-0.2,0.4-0.3,0.5c-0.1,0.1-0.2,0.3-0.4,0.3c0,0-0.1,0-0.1,0c0,0,0,0,0,0
			c0,0.4-0.3,0.6-0.5,0.9c-0.2,0.2-0.4,0.4-0.6,0.5c-0.1,0-0.1,0.1-0.2,0.1c-0.2-0.1-0.3,0-0.3,0.2c-0.1,0.1-0.1,0.2-0.2,0.3
			c-0.1-0.1-0.1,0-0.1,0.1c-0.2,0.3-0.5,0.5-0.8,0.7c-0.2,0.1-0.4,0.3-0.5,0.4l0,0.1c-0.3-0.2-0.3,0.2-0.5,0.2
			c-0.1,0.1-0.3,0.2-0.5,0.3c-0.3,0.2-0.6,0.3-0.8,0.5c-0.1,0.1-0.1,0.2-0.2,0.1c-0.2,0-0.3,0.1-0.2,0.3l-0.2,0c0,0.1,0,0.2,0,0.2
			c0,0.1-0.1,0.2-0.2,0.2l-0.1,0c0-0.2,0-0.3,0-0.5l-0.1,0l0,0.1c0,0.1,0,0.1,0,0.2c0,0.2,0,0.2,0.1,0.3c0,0.1-0.3,0.2-0.3,0.2
			c-0.1-0.2-0.1-0.1-0.1,0c0,0.1,0,0.1,0,0.1c-0.3,0.1-0.5,0.2-0.8,0.3c-0.2,0.1-0.3,0.2-0.5,0.3c-0.1,0-0.1,0-0.2,0.1
			c-0.3-0.1-0.4,0.1-0.5,0.3c-0.2,0.2-0.5,0.4-0.8,0.5c-0.2,0-0.3,0.1-0.4,0.2c-0.1,0-0.2,0-0.2,0.1c0,0-0.1,0-0.1,0
			c-0.1,0-0.1,0-0.1,0.1c-0.1-0.3-0.2,0-0.3,0l-0.1,0c0,0.1,0,0.1,0,0.2c0-0.1-0.2-0.1-0.2-0.1c0-0.1-0.1-0.1-0.1,0
			c-0.1,0.3-0.4,0.3-0.7,0.5c-0.1,0.2-0.3,0.1-0.5,0.2s-0.4,0.3-0.6,0.4c-0.1,0.1-0.2,0.1,0,0.2c0.1,0.1,0.3,0.1,0.4,0.2
			c0.5,0.1,1,0.3,1.6,0.5c0.2,0.2,0.5,0.3,0.8,0.4c0.1,0.1,0.3,0.1,0.4,0.1c0.2,0,0.3,0.1,0.2,0.3c0,0.1,0,0.2,0,0.2
			c0,0.1,0,0.1,0.1,0.1c0,0,0-0.1,0.1-0.1c0,0,0.1,0,0.1,0c0,0.1,0,0.1,0,0.1l0,0.1l0.1,0c0.1-0.2,0.3-0.3,0.5-0.2
			c0.2,0.1,0.2,0.3,0.3,0.4c0.2,0.1,0.4,0.3,0.5,0.4c0,0.1,0,0.1,0,0.2c0,0.1,0,0.2,0.1,0.3c0.1,0.1,0.2,0.2,0.3,0.3
			c0.1,0,0.1,0,0.2-0.1c0,0.2,0,0.4,0,0.5c0,0.1,0.1,0.2,0.1,0.3c0.2,0,0.2,0.2,0.2,0.3c0,0.1,0.1,0.1,0.2,0.1l0,0.1
			c-0.3,0.2,0.1,0.4,0.1,0.6c0,0.1,0.1,0.2,0,0.5c-0.1,0.3-0.2,0.7-0.2,1.1l-0.1,0.4c0,0.1,0.1,0.2,0,0.2c-0.3,0.2-0.1,0.5-0.2,0.7
			c-0.1,0.3-0.2,0.6-0.4,0.8c0,0.1,0,0.1-0.1,0.2c0,0.1-0.1,0-0.2,0.1c0,0-0.1,0-0.1,0c0,0,0,0,0,0l0,0.1c0,0.1,0,0.1,0,0.2
			c-0.2,0.2-0.4,0.4-0.6,0.6c0,0.1-0.1,0.2-0.2,0.2c-0.4,0.4-0.9,0.8-1.4,1.2c-0.2,0.2-0.4,0.3-0.7,0.4c-0.1,0.1-0.3-0.1-0.4,0.1
			c-0.1,0.1-0.2,0.2-0.3,0.2c-0.3,0.1-0.5,0.3-0.8,0.5c0,0.1-0.2-0.1-0.2-0.1c-0.1,0-0.1,0.1-0.1,0.1c-0.1,0.2-0.3,0.2-0.4,0.4
			l-0.1,0c-0.2-0.2-0.2,0.1-0.4,0.2c-0.1,0.1-0.3,0.2-0.4,0.2c-0.1,0.1-0.3,0.1-0.4,0.1c-0.1,0-0.2,0-0.3-0.1
			c-0.1,0-0.2-0.1-0.2-0.1c-0.1,0.1-0.2,0.2-0.2,0.3c-0.1,0.1-0.1,0.2-0.2,0.2s-0.1,0.2-0.1,0c-0.1,0-0.2-0.1-0.2,0
			c-0.1,0.1-0.2,0.1-0.3,0.1c-0.1,0.2-0.2,0.4-0.5,0.3l0,0.1l0,0.1c-0.1,0-0.1,0-0.2,0l0-0.1c-0.2,0.2-0.4,0-0.6,0.2
			c-0.1,0.1-0.3,0.1-0.4,0.1c-0.1,0-0.2-0.1-0.2,0c0,0,0,0.1-0.1,0.1c-0.1,0-0.3,0-0.4,0c-0.1,0-0.1,0.2-0.2,0.3l-0.1,0
			c-0.1,0-0.2,0-0.2,0l-0.7,0.2l-0.3,0l-0.2,0l0,0.1c0,0.1-0.1,0.1-0.2,0.1l-0.1,0c0-0.1,0-0.1-0.1-0.2c0,0.1,0,0.1-0.1,0.2
			c0,0.2,0,0.2-0.2,0.2c-0.2,0.2-0.5,0.1-0.7,0.2c-0.1,0.1-0.3,0.1-0.4,0c-0.2,0-0.3,0.2-0.4,0.2l-0.1,0.1c-0.1-0.3-0.3,0-0.4,0
			c-0.1,0-0.2,0.1-0.2,0c-0.1,0-0.2-0.1-0.2-0.1c-0.1,0.1-0.1,0.2-0.2,0l0,0.2c0,0.1-0.1,0.2-0.2,0.2c-0.3,0-0.6,0.1-0.9,0.1
			l-0.1,0.1c-0.2,0.1-0.3,0.1-0.3-0.1c0,0,0-0.1,0-0.1c0,0.1,0,0.1-0.1,0.2l0,0.1c-0.1,0.1-0.2,0.1-0.4,0.2c-0.1,0-0.2,0-0.2,0
			c-0.1-0.3-0.3-0.1-0.3-0.1c-0.2,0.4-0.6,0.2-0.8,0.3c-0.1,0-0.1,0.1-0.2,0.1c-0.1,0.1-0.2,0.1-0.3,0.1c-0.2,0-0.3,0-0.4,0.2
			c-0.1,0-0.1,0-0.1,0.1c-0.3,0-0.6,0-0.9,0l-0.4,0.1c-0.3,0.1-0.6,0.1-0.8,0c0-0.1-0.2,0-0.2,0l-0.1,0.1c0.1,0,0,0.1,0.1,0.1
			c-0.1,0-0.2,0-0.3,0c-0.1-0.1-0.3-0.2-0.3,0c-0.1,0.1-0.2,0.1-0.2,0.2c0,0.1-0.1,0-0.1,0c0-0.2-0.1-0.2-0.2-0.3
			c-0.1,0,0-0.1,0-0.1c-0.2,0.2-0.4,0-0.4,0.2c-0.1,0,0,0.1,0.1,0.2c0,0,0.1,0,0.1,0c0,0,0,0,0,0l0.1-0.1c0,0.1,0.1,0.1,0.1,0.2
			c0,0.1-0.1,0.1-0.1,0.1l-0.3,0c-0.1,0-0.1,0,0-0.1l0-0.1c0-0.1-0.1-0.1-0.2-0.1l-0.1,0l0,0.2c0-0.1-0.2-0.2-0.2-0.2
			c0-0.3-0.2,0-0.3-0.2c0,0.1-0.1,0.2-0.2,0.2c0,0,0,0.1-0.1,0.1c-0.1,0-0.2,0.1,0,0.1l0,0.1c0,0-0.1,0-0.1,0l-0.3-0.1l-0.4-0.1
			C32.1,121.8,31.9,121.8,31.9,121.7z M31.6,113.1C31.5,113.1,31.5,113.1,31.6,113.1C31.5,113.1,31.5,113.1,31.6,113.1
			c-0.1,0-0.2,0.1-0.3,0.1c0,0.1,0.1,0.1,0.1,0.2C31.4,113.3,31.5,113.2,31.6,113.1z M32.3,113.3c-0.1-0.1-0.1-0.2-0.2-0.4
			c0-0.1-0.1-0.1-0.2-0.1c0,0,0,0.1,0,0.1c-0.1,0.1,0.2,0.3-0.1,0.4l0,0.1C32.1,113.4,32.2,113.4,32.3,113.3z M33,113.4
			c0.1,0,0.1,0,0.1,0c-0.1-0.1-0.1-0.3-0.3-0.5c0-0.1,0-0.1-0.1-0.1c0,0.1,0,0.1,0,0.2c0.2,0.1,0,0.2,0.1,0.3c0,0.1,0.1,0.2,0.1,0.4
			L33,113.4z M33.9,109.4c0-0.1-0.2-0.1-0.2-0.2c0,0.1-0.1,0.1-0.1,0.2c0,0,0,0.1,0,0.1C33.7,109.4,33.9,109.4,33.9,109.4z
			 M33.3,113.6c0-0.1,0-0.2,0-0.2c-0.1,0-0.1,0.1-0.1,0.2c0,0.1,0,0.1,0.1,0.2C33.2,113.6,33.3,113.7,33.3,113.6z M32.3,121.5
			c0.1,0,0.2-0.1,0.2-0.1c0.1,0,0.1,0,0.2-0.1c-0.2-0.1-0.2-0.3-0.4-0.3c0,0-0.1,0-0.1,0.1c-0.1,0,0,0.1,0,0.1
			c0.4,0,0.1,0.2,0.1,0.3L32.3,121.5c-0.1,0,0,0.1,0,0.2C32.3,121.6,32.3,121.6,32.3,121.5z M32.6,120.6c0-0.1-0.1-0.1-0.1-0.1
			c-0.1,0-0.2,0-0.2,0.1c0.1,0,0.1,0.1,0.1,0.1C32.4,120.7,32.5,120.7,32.6,120.6z M33,117.9c0.2-0.3,0.5-0.2,0.8-0.2l0.1,0
			c0,0,0-0.1,0-0.1c-0.2,0-0.3-0.3-0.5-0.1c0,0.1-0.1,0-0.1,0l0-0.1c0.2-0.1,0.2-0.3,0.3-0.5c0,0,0,0.1,0,0.1c0,0,0,0,0,0l0.1,0.2
			l0-0.2c0.1,0,0.2,0.1,0.2,0.2l0,0.1c0.1,0,0.2,0,0.4-0.1c-0.1,0,0-0.1,0-0.1c-0.1,0-0.1,0,0-0.1l0.1,0c0.2-0.1,0.2,0,0.3,0.1
			l0.1,0c0-0.3,0.3-0.2,0.6-0.4c0,0,0.1,0.1,0.1,0.1c0,0,0,0.1,0,0.1c0.1,0,0.2-0.1,0.3-0.1c0-0.2,0.1-0.2,0.3-0.2
			c0.2,0,0.3,0,0.5,0c0.2-0.3,0.2-0.1,0.2,0c0,0.1,0.1,0.2,0.2,0c0.1-0.2,0.3-0.3,0.5-0.3l0.3,0c0.3-0.2,0.7-0.3,1-0.2
			c0.1,0,0.1,0.1,0.2,0.1c-0.1,0-0.2,0.1-0.3,0.2c0,0-0.1-0.1-0.1-0.1c-0.1,0-0.1-0.1-0.1,0c-0.1,0-0.2,0.1-0.3,0.1
			c0.2,0.1,0.4,0,0.5,0.3c0.1,0,0.2,0,0.2-0.1l0-0.1c0-0.2,0.1-0.2,0.1-0.4l0.1,0c0.2,0,0.4-0.1,0.4-0.4l0-0.1l0.3,0
			c0,0,0,0.2-0.1,0.2c0,0.1-0.1,0.1-0.1,0.2c0,0.1,0,0.1,0.1,0.1c0,0.1,0.2,0,0.2,0l0.1,0l-0.1,0c0-0.1,0-0.1-0.1-0.1
			c0,0,0.1,0,0.1,0c0,0,0,0,0,0c0.2,0,0.3-0.2,0.3-0.4c0,0,0,0,0-0.1c0-0.1,0.1,0,0.1-0.1c0.2,0.1,0.2-0.1,0.3-0.1
			c0.1,0,0.3,0,0.4,0c-0.1,0.1-0.1,0.2-0.2,0.3l0.3,0c0.3-0.2,0.3,0,0.3,0.2l0,0.1c0,0,0-0.1,0.1-0.1c0-0.2,0-0.3,0-0.5l0-0.2
			c0.2,0.1,0.4-0.3,0.6-0.1c0.1,0,0.1,0,0.1,0c0.1-0.3,0.3-0.2,0.5-0.2c0.1,0,0.1,0.2,0.2,0.3c0,0.1,0,0.1,0,0.1
			c0,0,0.1,0.1,0.1,0.1c0.1,0,0.1,0,0.1-0.1c0,0,0-0.1,0-0.1c-0.1-0.1-0.2-0.2-0.1-0.3c0,0,0,0,0,0c0.1-0.2,0.2,0,0.2,0.1l0.1,0
			c0.1-0.3,0.4-0.2,0.5-0.3c0.1,0,0.3-0.1,0.3,0.1l0,0.1l0-0.1c0.1-0.1,0.2-0.3,0.3-0.3c0.3-0.1,0.6-0.1,0.9-0.2
			c0.1,0,0.3-0.2,0.2,0.1c0,0,0.1,0,0.1,0c0,0,0,0,0,0c0.2-0.1,0.5-0.3,0.8-0.3c0.6-0.2,1.2-0.4,1.7-0.7l0.1,0
			c0.3,0,0.5-0.1,0.7-0.3c0.4-0.2,0.8-0.4,1.2-0.4l0.1-0.1c0.2-0.2,0.5-0.4,0.8-0.4c0.4-0.1,0.6-0.4,0.9-0.4c0,0,0.1-0.1,0.1-0.1
			c0.1-0.1,0.3-0.2,0.5-0.3c0.5-0.2,0.9-0.6,1.3-1c0.1-0.1,0.3-0.3,0.4-0.4c0-0.1,0-0.1,0-0.1c0-0.1,0-0.1-0.1-0.1s-0.2-0.1-0.2-0.1
			c0-0.2-0.1-0.3-0.4-0.2c0,0-0.1-0.1-0.1-0.1c-0.3,0.1-0.2-0.2-0.3-0.2s-0.2,0.1-0.4,0.1c0,0,0-0.1,0-0.1c0,0,0,0,0,0l-0.1,0
			c-0.1,0.2-0.1,0-0.2,0c-0.2-0.1-0.4,0-0.5-0.1c0,0-0.1,0.1-0.1,0.1c0,0.1-0.1,0-0.2,0c0,0-0.1-0.1-0.1,0c-0.2,0-0.3-0.1-0.4-0.3
			l0-0.1c-0.1,0-0.1-0.1-0.1-0.1l0.2,0l0,0.1c0,0,0-0.1,0-0.1c-0.1,0-0.1-0.1-0.2-0.1c-0.1-0.1-0.1-0.1-0.2-0.1
			c-0.1,0.1-0.1,0.2-0.1,0.3c0,0.1,0,0.1,0.1,0.1l0,0.1l0-0.1c0-0.1,0-0.1,0-0.1l0,0.1c-0.1,0-0.1,0.1-0.1,0.1l-0.2,0
			c-0.1-0.2-0.4,0.1-0.4-0.3l-0.1,0c-0.1,0.2-0.2,0.1-0.3,0.1c-0.1,0-0.2-0.1-0.3-0.1c-0.2,0-0.4,0-0.5-0.2l-0.1,0
			c-0.2,0.3-0.4,0.1-0.6,0.1c0-0.1-0.1-0.1-0.1,0c0,0,0,0,0,0c-0.4,0.2-0.6,0-1-0.1l-0.3-0.1c-0.1,0-0.3,0.1-0.4,0.1
			c-0.2-0.2-0.4,0.1-0.6,0c-0.1,0-0.4,0.1-0.5,0.1c-0.2,0-0.4,0.3-0.5,0l-0.1,0c0,0.2-0.2,0.1-0.3,0.2c-0.1-0.2-0.2,0-0.2,0.1
			c-0.1,0.1-0.2,0.3-0.4,0.1l-0.1,0c-0.1,0.3-0.4,0.2-0.5,0.4c-0.1,0-0.1,0-0.2-0.1c0,0-0.1,0,0-0.1c0,0,0,0,0,0l0,0.1
			c0,0.1-0.1,0.1-0.1,0.1c-0.1,0.1-0.3,0.2-0.4,0.3c0,0-0.1-0.1-0.1-0.1c0-0.2,0-0.4,0-0.4c-0.1,0-0.2,0.3-0.4,0.2l0,0.1
			c0.1,0.2-0.2,0.2-0.2,0.1c-0.3-0.1-0.5,0-0.7,0.2c-0.1,0-0.2,0.1-0.2-0.1l-0.1,0c0,0.1-0.2,0-0.2,0c-0.2,0-0.3,0.1-0.5,0
			c-0.1,0-0.2-0.1-0.3-0.2c0.1,0,0.2-0.1,0.3-0.2l0.1,0l0-0.1c-0.1,0-0.2,0-0.3,0c0,0,0,0.1,0,0.1c0,0-0.1,0-0.1,0c0,0,0-0.1,0-0.1
			l0-0.2l0-0.1c0-0.1-0.1-0.1-0.2-0.1s0-0.1-0.1-0.1c-0.1,0.1-0.1,0.1-0.1,0.2c-0.1,0.4-0.3,0.7-0.7,0.9c-0.1,0-0.1,0.1-0.1,0.1
			c0,0.2-0.1,0.5-0.2,0.7c-0.1,0-0.2,0-0.2,0l0.1,0.2c-0.1,0-0.2,0.1-0.2,0.2c-0.1,0-0.2,0.1-0.3,0.2c-0.1,0.3-0.1,0.5-0.3,0.7
			c0,0.1,0,0.1-0.1,0.1c-0.4,0.1-0.3,0.5-0.6,0.7l0,0.1c-0.1,0,0.2,0.3-0.1,0.2l0,0.1c0,0.1,0,0.2-0.1,0.3c-0.1,0.1-0.2,0.1-0.3,0.1
			c0,0-0.1,0-0.1-0.1c0,0.1,0,0.1,0,0.1c0.1,0.1,0.1,0.3,0,0.4l0,0.1c0,0.1,0,0.4-0.2,0.3c-0.1,0-0.2,0-0.1,0.2c0.1,0,0,0.1,0,0.1
			c-0.4-0.1-0.1,0.2-0.2,0.2c-0.1,0.2-0.1,0.3-0.2,0.4c0,0,0,0.1-0.1,0.1c-0.2-0.1-0.4-0.1-0.4,0.2c0,0,0,0.1-0.1,0.1
			c0-0.2-0.4-0.3-0.2-0.6c0,0,0-0.1,0-0.1c0,0,0,0,0,0l-0.1,0c-0.1,0.2-0.1,0.1-0.1,0c0-0.1,0-0.2-0.1-0.2c-0.1-0.1-0.2-0.1-0.1-0.3
			c0.1,0,0-0.2,0-0.2c0,0.1,0,0.2-0.1,0.2c-0.2,0.2,0.1,0.4,0,0.6c0.1,0,0.1,0.1,0.2,0.1c0.1,0,0.1,0,0.2,0.1
			c0.1,0.3,0.1,0.6,0.1,0.9c0,0.2,0,0.3-0.1,0.5c-0.1,0.3-0.2,0.6-0.4,0.8c-0.2,0,0,0.2,0,0.2c-0.1,0-0.2-0.1-0.3-0.1
			c0-0.1-0.1-0.1-0.2-0.1l0,0.2c0,0.1,0.2,0.1,0.1,0.1C33,117.4,33,117.6,33,117.9C32.9,117.9,32.9,117.9,33,117.9L33,117.9z
			 M35.5,106.7c-0.1-0.1-0.1-0.3-0.2-0.3l-0.1,0c0,0.1,0.1,0.2,0.1,0.4L35.5,106.7z M34.7,114.1C34.7,114.1,34.6,114,34.7,114.1
			c0.2-0.3,0-0.2-0.2-0.3l0,0.1c0,0.1,0.1,0.2,0.1,0.2c0.1,0.1,0.1,0.2,0.1,0.2L34.7,114.1z M38,103c0-0.1-0.1-0.1-0.1-0.2
			c0,0.1-0.1,0-0.1,0.1s0,0.1,0.1,0.2C37.9,103.1,38,103.1,38,103L38,103z M38,120.1c-0.1-0.1-0.3-0.2-0.4-0.3c0,0,0,0.1-0.1,0
			c0,0,0,0,0,0c0,0.1,0,0.3,0.2,0.3C37.8,120.1,37.8,120.1,38,120.1L38,120.1z M38.6,115.9l0.4-0.1c0-0.1,0,0.1,0,0.1
			c-0.1,0.1-0.1,0.1-0.3,0.2L38.6,115.9z M38.5,119.8l0.2,0c0.1,0,0.1,0,0.2,0.1c0-0.1,0-0.1,0-0.2l0.1,0c0-0.1,0-0.2-0.1-0.2
			c-0.1,0-0.1,0-0.2,0.1l-0.1,0c0,0-0.1,0.1-0.1,0.1l0,0.2C38.4,119.8,38.4,119.8,38.5,119.8L38.5,119.8z M40.6,115.5
			c0.1-0.1,0.2-0.2,0.3-0.2l0.1,0l0,0.1c-0.1,0.1-0.2,0.1-0.3,0.2C40.7,115.5,40.7,115.5,40.6,115.5L40.6,115.5z M44.5,102.2
			c0.3-0.3,0.6-0.4,1-0.5l0.1,0c0.1-0.3,0.3-0.3,0.5-0.4c0.3-0.1,0.5-0.3,0.8-0.5c0.2-0.1,0.5-0.3,0.7-0.4l0.2,0c-0.1,0,0-0.1,0-0.2
			c-0.1,0,0-0.1,0.1,0c0.2,0,0.5-0.3,0.7-0.2c0,0,0-0.1,0.1-0.1c0.2-0.3,0.6-0.4,0.9-0.4c0,0.1,0.1,0,0.1,0c0.1-0.4,0.1-0.4,0.4-0.2
			c0,0,0.1-0.1,0.1-0.1c0-0.2,0-0.3,0.3-0.4c0.1,0,0.2-0.1,0.3-0.1c0,0,0.1,0,0.1,0c0,0,0,0,0,0c0.1,0,0.1-0.1,0.1-0.2
			c0.2-0.1,0.4-0.2,0.6-0.3c0.3-0.1,0.5-0.4,0.8-0.2c0,0,0.1,0,0.1,0c0,0,0-0.1,0-0.1c-0.1-0.1-0.1-0.2,0.1-0.3c0.1,0,0.1,0,0.1,0
			c0.2-0.1,0.5-0.3,0.6-0.3c0.1,0,0.2,0,0.3-0.1c0.1-0.1,0.2-0.2,0.3-0.2c0.2-0.1,0.3-0.2,0.4-0.2c0.1,0,0-0.1,0-0.2
			c0,0,0-0.1,0.1,0c0,0,0,0,0,0l0.8-0.4c0.1,0,0.1-0.1,0.1-0.1c0.1-0.1,0.3-0.2,0.4-0.2c0.2,0,0.2,0,0.1-0.1l0-0.1
			c0.2-0.1,0.5-0.2,0.6-0.4c0.1,0,0.2,0,0.2-0.1c-0.1,0.1-0.1,0.1-0.1,0.2c0,0.1,0,0.1,0.1,0.1c0.1-0.1,0.2-0.2,0.3-0.4
			c-0.1,0-0.2,0-0.2-0.1l0-0.2c0.3-0.2,0.6-0.4,0.8-0.6c0.3-0.2,0.4-0.4,0.8-0.3c0.1,0,0.1,0,0.1,0c0.1-0.4,0.4-0.4,0.7-0.6
			c0.1-0.2,0.3,0.1,0.4,0.2c0,0.1,0.1,0,0.1,0.1c0-0.1,0-0.3,0-0.4c-0.1,0-0.1-0.1-0.1-0.2c0,0,0,0,0,0c0-0.1,0-0.1,0.1-0.1l0,0.1
			l0,0.2c0,0,0.1-0.1,0.1-0.2l0-0.1l0-0.1c0.1-0.1,0.2-0.3,0.3-0.4c0.2-0.2,0.5-0.3,0.5-0.5c0.1-0.2,0.2-0.2,0.2-0.1
			c0.1,0,0.2,0,0.3-0.1l0.1-0.5c0-0.1,0.1-0.1,0.2-0.1c0.2,0.1,0.1,0,0.1,0c0-0.1-0.1-0.2-0.3-0.2c-0.2,0-0.4,0.1-0.3-0.2
			c0-0.1-0.1-0.1-0.1-0.1l0,0.1c-0.1,0.2-0.2,0.4-0.3,0.4c-0.2,0-0.5,0-0.7-0.2l-0.1,0l0,0.1c0.2,0.2,0,0.2-0.1,0.2l-0.4-0.1
			c-0.2,0-0.4-0.1-0.6,0c-0.4,0.1-0.8,0.2-1.1,0.2c-0.2,0-0.4,0.1-0.5,0.2c-0.1,0.1-0.3,0.2-0.5,0.2c-0.3,0-0.6,0-0.8,0.2l-0.6,0.4
			c-0.3,0.2-0.6,0.4-0.9,0.6c-0.3,0.2-0.6,0.4-0.9,0.6c-0.2,0.1-0.4,0.1-0.6,0.3c-0.2,0.2-0.4,0.3-0.6,0.5c-0.3,0.2-0.7,0.4-1,0.6
			c-0.3,0.2-0.6,0.5-0.9,0.8c-0.6,0.6-1.2,1-1.7,1.5c-0.5,0.4-0.9,0.8-1.3,1.2s-0.8,0.8-1.1,1.2c-0.3,0.2-0.5,0.5-0.8,0.8
			c-0.2,0.3-0.5,0.5-0.8,0.8c-0.1,0.1-0.3,0.2-0.4,0.3c-0.2,0.1-0.5,0.2-0.7,0.4c-0.1,0.1-0.2,0.3-0.2,0.4c0,0.1,0,0.1,0,0.1
			C43.9,102.5,44.2,102.4,44.5,102.2L44.5,102.2z M44.7,102.5c-0.1,0-0.1-0.1-0.2-0.1c0,0-0.1,0-0.1,0l0.1,0.1
			C44.5,102.5,44.5,102.6,44.7,102.5L44.7,102.5z M49.3,100c0-0.2-0.3-0.1-0.2-0.3l-0.1,0c0,0.1-0.1,0-0.2,0.1
			c0,0.1,0.1,0.1,0.2,0.1C49.1,100,49.2,100,49.3,100L49.3,100C49.3,100,49.3,100,49.3,100C49.3,100,49.3,100,49.3,100L49.3,100z
			 M54.5,97.4c0.1-0.2,0.2-0.3,0.2-0.5l0-0.1c0,0.1,0,0.1-0.1,0c-0.1,0.1-0.2,0.2-0.3,0.4c0,0,0,0.1,0,0.1
			C54.4,97.4,54.5,97.4,54.5,97.4L54.5,97.4z M54.6,106.7c0-0.1,0-0.2,0-0.2c-0.1,0-0.2,0.1-0.2,0.2c0.1,0,0.1,0.1,0.1,0.3
			C54.5,106.8,54.6,106.8,54.6,106.7L54.6,106.7z M57.5,106.6c0.1-0.1,0-0.2-0.1-0.3c0,0,0,0,0,0l0-0.1c0-0.1,0-0.1,0-0.1
			c0,0-0.1,0-0.1-0.1l0,0.1c-0.1,0.1,0,0.3-0.1,0.4c-0.1,0.3,0.2-0.1,0.3,0.2C57.3,106.8,57.4,106.7,57.5,106.6L57.5,106.6z
			 M58.9,108.8L58.9,108.8c0-0.1-0.1-0.1-0.2-0.1s-0.1,0-0.2,0c0,0.1,0.1,0.1,0.2,0.1C58.8,108.8,58.8,108.8,58.9,108.8L58.9,108.8z
			"/>
		<path class="st0" d="M66.5,120.9c-0.2,0-0.3-0.1-0.4-0.2c-0.2-0.6-0.7-1-1.1-1.5c-0.4-0.4-0.6-0.9-0.8-1.5
			c-0.1-0.2-0.1-0.3-0.2-0.5c-0.2-0.3-0.3-0.6-0.2-1c0.1,0,0.1-0.1,0.1-0.2c-0.1-0.7-0.1-1.4,0.1-2c0.4-1.6,0.9-3.1,1.6-4.5
			c0.4-0.7,0.9-1.4,1.4-2.1c0.1-0.2,0.2-0.4,0.2-0.6c0.5-0.5,0.9-1,1.3-1.5c0.3-0.3,0.5-0.6,0.8-1c0.1-0.2,0.3-0.4,0.5-0.6
			c0-0.1,0.1-0.1,0.1-0.2c0.5-0.2,0.7-0.8,1.1-1.2c0.5-0.4,0.9-0.9,1.3-1.4c0.2-0.1,0.3-0.1,0.5-0.2c0.1-0.1,0.2-0.1,0-0.2
			c0-0.1,0-0.1,0.1-0.2c0.3-0.3,0.6-0.5,0.9-0.8c0.2-0.3,0.5-0.6,0.8-0.8c0.3-0.3,0.6-0.7,1-0.9c0.4-0.2,0.7-0.6,1-0.9
			c0.2-0.2,0.5-0.4,0.7-0.6c0.5-0.4,1-0.8,1.6-1.3c0.2-0.2,0.4-0.2,0.6-0.4c0.2,0,0.3-0.1,0.5-0.2c0.3-0.3,0.6-0.5,1-0.5h0.1
			C81,93.9,81,93.9,81,93.9c-0.1,0-0.1-0.1-0.2-0.1c0.1-0.1,0.1-0.1,0.1-0.1c0.1-0.1,0.3-0.2,0.4-0.3c0.2-0.1,0.4-0.4,0.7-0.2
			c0.1,0.1,0.2,0,0.2-0.2c0-0.2,0.2-0.4,0.5-0.4c0.1,0,0.2-0.1,0.4-0.1c0.1,0,0.3,0.1,0.4,0.1c0.1-0.1,0.2-0.3,0.2-0.4
			c0.1-0.3,0.2-0.4,0.5-0.4c0.2,0,0.5,0.1,0.4-0.4c0-0.1,0.1-0.1,0.2-0.2c0.4-0.1,0.8-0.2,1.3-0.2c0.1-0.1,0.3-0.1,0.3-0.2
			c0.1-0.5,0.5-0.4,0.7-0.3c0.2,0,0.5,0,0.7-0.1c0.1,0,0.4,0,0.1-0.3c-0.1-0.1,0.2-0.4,0.5-0.5c0.2,0,0.3-0.1,0.4-0.2
			c0.2-0.2,0.4-0.3,0.7-0.2c0.4-0.1,0.8-0.1,1-0.6c0.1-0.1,0.2-0.1,0.2,0c0.2,0.2,0.2,0.1,0.4,0.1c0.5-0.2,0.9-0.3,1.4-0.4
			c0.2-0.1,0.4-0.2,0.6-0.2c0.9-0.3,1.8-0.5,2.8-0.7c0.1,0,0.1-0.1,0.2-0.1c0.1,0,0.2,0,0.2,0.1c0.1,0.2,0.2,0.2,0.4,0.1
			c0.2-0.1,0.5-0.3,0.7-0.4c0.1-0.1,0.2-0.1,0.2,0c0.1,0.5,0.4,0.2,0.7,0.2c0.2,0.1,0.4,0.3,0.7,0.4c0.1,0,0.1-0.1,0.2-0.1
			c0-0.1-0.1-0.1-0.1-0.1c-0.2-0.1-0.5-0.1-0.8-0.2v-0.4c0.2,0.1,0.2,0.2,0.4,0.2c0.3,0.1,0.5,0.1,0.8,0.2c0.4,0.1,0.4,0,0.2-0.3
			c-0.1-0.1,0-0.3,0-0.4c0.1,0,0.2-0.1,0.2,0c0.2,0,0.4,0.1,0.6,0.2c0.3,0.1-0.1,0.1,0,0.2c0.1,0.4,0.6,0.6,1,0.5
			c0.2-0.1,0.4,0.1,0.6,0c0.2,0.2,0.4,0.3,0.5,0.5c0.1,0.1,0.1,0.2,0.2,0.2c0.2,0.2,0.4,0.2,0.5-0.1c0.2,0.2,0.3,0.4,0.1,0.7
			c-0.1,0.2-0.2,0.5,0.2,0.5c0.1,0,0.4,0.1,0.2,0.4c0,0,0,0.1,0.1,0.1c0.2,0,0.3,0.2,0.3,0.4v1.2c0,0.2-0.1,0.5,0.1,0.6v0.2
			c0,0-0.1,0.1-0.1,0.1c0.1,0.3,0.2,0.7,0.1,1c0,0.2-0.1,0.1-0.2,0.1l-0.1-0.1c-0.2-0.1-0.3-0.2-0.5-0.2c0.1,0.1,0.3,0.3,0.4,0.4
			c0,0,0.1,0.1,0.1,0.1c0.3,0.2,0.4,0.3,0.2,0.6c-0.3,0.9-0.8,1.8-1.5,2.5c-0.4,0.5-0.8,1-1.2,1.6c-0.4,0.4-0.8,0.8-1.2,1.2
			c-0.4,0.5-0.9,1-1.5,1.5c-0.2,0.1-0.4,0.4-0.5,0.6c-0.3,0.2-0.6,0.5-0.8,0.7c-0.2,0.1-0.4,0.3-0.5,0.5c-0.5,0.6-1,1.1-1.7,1.5
			c-0.5,0.4-1,0.7-1.5,1.2c-0.1,0.1-0.2,0.2-0.2,0.2l-0.3,0.3c-0.6,0.3-1.1,0.7-1.5,1.2c-0.1,0.1-0.2,0.2-0.4,0.2
			c-0.4,0.2-0.7,0.5-1,0.8c-0.2,0.1-0.4,0.3-0.6,0.4c-0.2,0.2-0.5,0.4-0.7,0.5l-1.8,1.1c-0.1,0-0.2,0.1-0.2,0
			c-0.2,0-0.2,0.1-0.3,0.2c-0.1,0.1-0.2,0.2-0.3,0.3c-0.4,0.4-0.9,0.7-1.3,1c-0.1,0.1-0.2,0.3-0.2,0.4c0.1,0.1,0.2,0.2,0.5,0.2
			c0.7,0.1,1.4,0.2,2.1,0.4c0.2,0.1,0.4,0.2,0.5,0.4c0.1,0,0.2,0.2,0.2-0.1c0.3,0,0.7-0.1,1,0.2c0.1,0.1,0.2,0.2,0.3,0.1
			c0.1-0.1,0.2-0.1,0.2-0.1c0.4,0.3,0.9,0.2,1.3,0.2c0.7,0.1,1.4,0.2,2.1,0.4c0.7,0.1,1.4,0.3,2.1,0.5c0.6,0.1,1.1,0.3,1.6,0.5
			c0,0,0.1,0.1,0.1,0.2c-0.1,0.2-0.1,0.4-0.1,0.5c0,0.1,0.1,0.2,0.1,0.2c0.4,0,0.4,0.2,0.4,0.5c0.1,0.2,0.4,0.4,0.7,0.3
			c0.2-0.1,0.3,0.1,0.5,0.1c0.1,0,0.2-0.2,0.4-0.2c0.3-0.1,0.5-0.1,0.8,0.2c0.1,0.1,0.1,0.1,0.2,0.1c0.4,0,0.4,0.4,0.5,0.6
			c0.1,0,0,0.2-0.1,0.2c-0.1,0-0.1,0.1-0.1,0.2s0.1,0.2-0.1,0.1c-0.1,0-0.3-0.1-0.5-0.1c-0.1,0-0.2,0-0.2,0.1s0,0.2,0.1,0.2
			c0.1,0.1,0.1,0.1,0.2,0.2c0.1,0.1,0.4,0.4,0.3,0.5s-0.1,0.5-0.5,0.5c-0.2,0-0.3,0.1-0.5,0.2c-0.1,0-0.2,0.1-0.3,0.1
			c0.1,0.1,0.2,0.1,0.2,0.2c0.2,0.1,0.2,0.1,0,0.2c-0.1,0.1-0.1,0.1-0.2,0.1c0,0-0.1,0-0.1,0.1c0,0,0,0,0,0c0,0,0.1,0.1,0.1,0.1
			c0.1,0.1,0.2,0.1,0.3,0.1c0.2,0.2,0.2,0.4,0.4,0.5c-0.2-0.1-0.4-0.1-0.6-0.1c-0.1,0-0.2-0.1-0.4-0.1c-0.2-0.1-0.5,0.1-0.4-0.4
			c-0.1,0-0.2,0-0.2-0.1c-0.2,0.1-0.3,0-0.5-0.1c-0.1-0.1-0.2-0.2-0.1-0.3c0.1,0,0-0.1,0-0.1c0-0.1-0.1-0.1-0.1,0
			c-0.2,0.1-0.4,0.1-0.6,0h-0.3c-0.2,0.1-0.3,0.1-0.3-0.1c0,0-0.1-0.1-0.2,0c-0.1,0.1-0.2,0.1-0.3,0.2s-0.2-0.1-0.2-0.1
			c-0.1-0.2-0.3-0.2-0.4-0.2c-0.2-0.1-0.4-0.1-0.5-0.1c-0.3-0.1-0.6-0.1-0.8,0.1c-0.1,0.1-0.2,0-0.3-0.1c-0.5-0.2-1-0.5-1.5-0.1
			c-0.2,0.1-0.2,0.1-0.4-0.2c-0.1-0.2-0.2-0.1-0.4,0.1c-0.2,0.3-0.6,0.4-1,0.4c-0.2,0-0.4-0.1-0.7-0.1c-0.1,0-0.2-0.1-0.2-0.1
			l0.2-0.2c0.1-0.1,0.2-0.1,0.3,0.1c0,0.1,0.1,0.1,0.1,0.1c0,0,0-0.1,0-0.1c0,0,0,0,0,0c-0.1-0.1-0.1-0.2-0.2-0.2c0-0.1-0.2,0-0.2,0
			c-0.2,0.2-0.4,0.2-0.7,0.1c-0.3-0.1-0.6-0.1-0.8-0.1c-0.3,0-0.7,0-0.7-0.4c-0.1,0-0.1,0.1-0.2,0.1h-0.2v0.1h0.2
			c0.1,0,0.1-0.1,0.2-0.1c-0.1,0.3-0.2,0.4-0.6,0.3c-0.1-0.1-0.1,0-0.2,0c-0.1,0.1-0.2,0.1-0.2-0.1c-0.1-0.4-0.2-0.4-0.5-0.2
			c-0.6,0.3-1.2,0.3-1.8,0c-0.1-0.1-0.3-0.1-0.4-0.1H82c-0.3-0.1-0.7-0.2-0.9-0.2c-0.6,0-1.2-0.1-1.8-0.1c-0.5-0.1-1.1-0.1-1.6-0.2
			h-0.6c-0.6,0-1.1,0-1.6-0.2c-0.4-0.1-0.9-0.3-1.2-0.5c-0.2-0.1-0.2-0.2-0.2-0.5c0.1-0.4-0.1-0.9-0.5-1.1c-0.2-0.2-0.5-0.5-0.8-0.7
			c0,0-0.1-0.1,0-0.2c0.1-0.1,0-0.2-0.1-0.4c-0.2-0.4-0.1-0.7,0.3-1c0.3-0.1,0.5-0.4,0.5-0.7c0.1-0.1,0.1-0.4,0.3-0.5
			c0.3-0.2,0.7-0.3,1-0.4c0.2-0.1,0.3-0.1,0.5-0.1c0.3,0.1,0.5-0.1,0.7-0.3c0-0.1,0.2-0.2,0.3-0.2h0.1c-0.1,0-0.1,0.1-0.1,0.1
			c-0.2,0.1-0.1,0.2,0.1,0.2c0.5,0,1-0.2,1.4-0.4c0.2-0.1,0.3-0.4,0.5-0.5c0-0.1,0.1-0.1,0.1-0.2c-0.1-0.5,0.4-0.6,0.6-0.9
			c0.5,0.1,0.7-0.4,1.2-0.6c0.1-0.1,0.3-0.1,0.3-0.1c0.5,0.5,0.8,0.1,1.2-0.1c0.2-0.2,0.4-0.2,0.7-0.2c0.2,0,0.4,0,0.6-0.1
			c0.1,0,0.1-0.1,0.1-0.1c0,0-0.1,0-0.1-0.1c-0.1,0.1-0.1,0.1-0.2,0.1c-0.1,0.1-0.1,0.1-0.2,0.1c0.1-0.1,0.1-0.2,0.2-0.2
			c0-0.1,0.1-0.1,0.1-0.2c0-0.1-0.1-0.1-0.1-0.2c0,0.1-0.1,0.1-0.1,0.1c-0.1,0-0.2,0.1-0.2,0.2c-0.1-0.2-0.1-0.4-0.1-0.5
			c0-0.1,0.2-0.1,0.5-0.2c0.1-0.1,0.3-0.1,0.4-0.2c-0.1,0.2-0.3,0.3-0.2,0.5c0.2,0.2,0.4,0,0.5-0.1s0.2-0.1,0.2-0.1
			c0.1-0.1,0.1-0.1,0.1-0.1c-0.4,0-0.3-0.4-0.5-0.5c0.2-0.3,0.5-0.5,0.9-0.4c0.1,0,0.2,0.1,0.1,0.2c-0.1,0-0.2,0.1-0.1,0.2
			c0.2,0.1,0.3,0.1,0.5,0.1c0.1,0,0.1-0.1,0.2-0.2s0.1-0.4,0.2-0.4c0.1-0.1,0.2-0.1,0.4-0.1l0.1-0.1c-0.1-0.1-0.2-0.1-0.2-0.1
			c-0.1,0.1-0.2,0-0.1-0.2c0.3-0.7,0.3-0.7,1-1c0.1,0,0.1,0,0.1-0.1c0.1-0.4,0.6-0.5,0.8-0.8c0.2-0.2,0.4-0.4,0.7-0.4
			c0.2-0.1,0.4-0.2,0.5-0.4c0.2-0.3,0.5-0.5,0.7-0.7c0.1-0.1,0.3-0.2,0.4-0.2c0.1,0,0.2,0,0.2-0.2c-0.1,0,0-0.1,0-0.1
			c0.4,0,0.5-0.5,0.8-0.6c0.2-0.1,0.3-0.3,0.5-0.1c0.1,0.2,0.2-0.1,0.3-0.1c0.2,0,0.3-0.1,0.4-0.1c0-0.2,0-0.3-0.1-0.5
			c-0.1-0.2-0.1-0.2,0.1-0.4c0.2-0.1,0.3-0.3,0.4-0.4c0.3-0.3,0.5-0.6,1-0.6c0.2,0,0.3-0.2,0.4-0.3c0-0.1-0.1-0.2-0.1-0.2
			c0.1,0,0.2,0,0.2-0.1c0.1,0,0.1-0.1,0.1-0.1c-0.1-0.2,0.1-0.2,0.2-0.2c0.2-0.1,0.3-0.1,0.3-0.3c0.1-0.3,0.4-0.6,0.7-0.5
			c0,0,0,0,0,0c0.2,0.1,0.3-0.1,0.2-0.2c-0.1-0.2,0-0.2,0.2-0.4c0.3-0.2,0.6-0.4,0.8-0.7c0.2-0.1,0.2-0.4,0.5-0.5
			c0.2-0.1,0.3-0.3,0.4-0.5c0.1-0.2,0.3-0.3,0.5-0.2c0.1,0.1,0.2-0.2,0.4,0c0,0,0.1-0.1,0.1-0.2c0-0.1,0-0.1-0.1-0.1
			c-0.3-0.2-0.3-0.2-0.2-0.4c0.3-0.4,0.7-0.9,1-1.3c0.2-0.2,0.3-0.5,0.3-0.8c0,0,0-0.1-0.1-0.1c-0.2-0.1-0.4-0.2-0.6-0.2
			c-0.8,0.1-1.6,0.3-2.4,0.6c-0.5,0.2-1,0.4-1.5,0.5c-0.4,0.1-0.7,0.3-1,0.4c-0.2,0.1-0.5,0.2-0.8,0.3c-0.2,0.1-0.4,0.1-0.5,0.2
			c-0.5,0.4-1,0.5-1.5,0.8c-0.1,0.1-0.3,0.1-0.4,0.2c-0.1,0.2-0.4,0-0.5,0.1c-0.1,0.1-0.1,0.4-0.4,0.4c-0.1,0-0.2,0-0.2,0.1
			c-0.2,0.4-0.7,0.2-1,0.5c-0.4-0.1-0.6,0.2-0.8,0.5c-0.4,0-0.6,0.4-1,0.6c-0.8,0.5-1.7,1.1-2.5,1.6c-1,0.7-1.8,1.5-2.7,2.2
			c-0.4,0.4-0.8,0.8-1.3,1.2c-0.2,0.1-0.3,0.3-0.4,0.5c-0.8,0.7-1.4,1.5-2.1,2.2c-0.5,0.5-1,1-1.5,1.5c-0.5,0.5-0.9,1.1-1.3,1.6
			c-0.1,0.2-0.4,0.4-0.5,0.5c-0.6,0.8-1.2,1.6-1.7,2.4c-0.6,0.9-1.1,1.9-1.5,2.9c-0.2,0.4-0.3,1-0.5,1.5c-0.1,0.4,0,0.8,0.1,1.1
			c0.2,0.3,0.2,0.7,0.2,1.1v0.6c-0.1,0.3-0.1,0.6-0.2,0.9c-0.1,0.3-0.2,0.5-0.4,0.8c-0.5,1-1.6,1.5-2.7,1.3
			C67.1,121.1,66.8,121.1,66.5,120.9z M81,111.5c0,0,0.1-0.1,0.1-0.2c0,0,0-0.1-0.1-0.1c0,0,0,0,0,0c-0.2,0-0.3,0-0.5,0.1
			c-0.1,0-0.3,0.1-0.4,0.1c0.2,0.1,0.3,0.2,0.5,0.2C80.7,111.7,80.8,111.6,81,111.5L81,111.5z M81.2,110.2c-0.1-0.1-0.1-0.2-0.1-0.2
			c-0.1,0-0.1,0.1-0.1,0.1c0,0.1,0.1,0.1,0.1,0.1L81.2,110.2z M81.1,108.5l0.2-0.2h0.2c0,0.1-0.1,0.2-0.1,0.2
			c-0.1,0.1-0.2,0.1-0.4,0.1L81.1,108.5z M82.2,108.2c-0.2,0-0.4,0.1-0.6,0.1C81.8,108.1,81.8,108.1,82.2,108.2L82.2,108.2z
			 M82.1,110h-0.1c-0.1,0.1-0.1,0.1-0.1,0.2C81.9,110.2,82,110.1,82.1,110L82.1,110z M83.1,107c-0.1,0.1-0.1,0.2-0.2,0.4
			C82.8,107.1,82.8,107,83.1,107L83.1,107z M83.2,111.3c-0.1-0.1-0.1-0.2-0.2-0.3C83,111,83,111,82.9,111c0.1,0.1,0.1,0.2,0.2,0.3
			C83.1,111.3,83.2,111.3,83.2,111.3L83.2,111.3z M84.4,111L84.4,111l-0.6-0.1c0,0-0.1,0-0.1,0.1c0,0,0,0,0,0
			c0.1,0.1,0.3,0.2,0.5,0.2C84.2,111.2,84.3,111.1,84.4,111L84.4,111z M85.7,108.2c-0.1-0.1-0.3-0.1-0.4-0.2
			c-0.1,0.1-0.1,0.1-0.1,0.1v0.1C85.4,108.3,85.5,108.3,85.7,108.2L85.7,108.2z M86.4,114.3c0,0-0.1,0-0.1-0.1
			c-0.1,0.1-0.1,0.1-0.1,0.1v0.1C86.3,114.4,86.4,114.4,86.4,114.3L86.4,114.3z M87,114.1c-0.1-0.1-0.1-0.2-0.2-0.2
			c-0.1,0-0.1,0.1-0.1,0.1c0.1,0.1,0.1,0.1,0.2,0.1C86.9,114.2,86.9,114.1,87,114.1L87,114.1z M87.3,105.1c0-0.1-0.1-0.1-0.1-0.1
			c0,0.1-0.1,0.1-0.2,0.2h0.1C87.1,105.2,87.2,105.1,87.3,105.1L87.3,105.1z M88.2,104.1c-0.1,0-0.1-0.1-0.1-0.1
			c-0.1,0-0.2,0.1-0.2,0.2c0,0.1,0.1,0.1,0.1,0.2C88.1,104.2,88.2,104.2,88.2,104.1L88.2,104.1z M90.8,102.3c0-0.1-0.1-0.1-0.2-0.1
			c-0.1,0.1-0.1,0.2-0.1,0.4c0,0.1,0.1,0.1,0.1,0.2C90.6,102.6,90.7,102.4,90.8,102.3L90.8,102.3z M92.7,100.2l-0.1-0.1
			c-0.1,0-0.2-0.1-0.2,0c-0.1,0.1-0.2,0.2-0.3,0.3v0.1C92.4,100.3,92.5,100.3,92.7,100.2L92.7,100.2z M94.7,115.2
			c-0.2-0.2-0.3-0.6-0.7-0.7c-0.1,0-0.1,0-0.1,0.1c-0.2,0.2,0.1,0.7,0.5,0.7L94.7,115.2z M94.4,115.8c0-0.1-0.1-0.2-0.1-0.2
			c0,0-0.1,0-0.1,0.1c0,0.1,0.1,0.3,0.2,0.4C94.4,116,94.4,115.9,94.4,115.8L94.4,115.8z M96,118.5c0.2-0.2,0.1-0.4,0-0.4
			c-0.3-0.1-0.5-0.5-0.9-0.2c-0.1,0.1-0.1,0-0.3,0c0.1,0,0,0-0.1,0.1l0.1,0.1c0.2,0,0.4,0.1,0.5,0.3c0.1,0.1,0.3,0.2,0.5,0.2
			C95.9,118.7,95.9,118.5,96,118.5L96,118.5z M95,91.9c-0.1-0.1-0.1-0.1-0.1-0.2c0,0-0.2,0.1-0.1,0.1c0.1,0,0.1,0.1,0.2,0.2
			C95,92,95.1,91.9,95,91.9L95,91.9z M97.4,118.6c-0.1-0.1-0.2-0.1-0.3-0.1c-0.1,0.1-0.1,0.1-0.1,0.1c0.1,0.1,0.1,0.2,0.1,0.2
			C97.3,118.7,97.3,118.7,97.4,118.6L97.4,118.6z M98,96c-0.2,0-0.2-0.1-0.2,0c-0.1,0-0.2,0.1-0.2,0.2h0.1
			C97.8,96.2,97.8,96.1,98,96z M98.3,117.7c-0.2-0.1-0.2-0.2-0.3-0.2s-0.1,0.1-0.1,0.2c0,0,0.1,0.1,0.2,0.1
			C98.1,117.8,98.2,117.8,98.3,117.7L98.3,117.7z M99.5,116.6c-0.3-0.1-0.5-0.2-0.8-0.2c-0.1,0-0.1-0.1-0.2-0.1
			c0.1-0.1,0.1-0.2,0.1-0.3c0.1-0.1,0.2-0.1,0.2,0c0.2,0.2,0.4,0.3,0.7,0.4c0,0.1,0,0.2,0.1,0.2L99.5,116.6L99.5,116.6z M98.8,117.3
			C98.8,117.3,98.8,117.3,98.8,117.3C98.8,117.2,98.8,117.2,98.8,117.3c-0.1,0-0.2,0-0.2,0.1c0.1,0,0.1,0.1,0.1,0.1
			C98.8,117.4,98.8,117.3,98.8,117.3L98.8,117.3z M98.8,86.2H99v0.1h-0.1C98.8,86.2,98.8,86.2,98.8,86.2L98.8,86.2z M100.1,87.5
			c-0.1,0-0.1,0-0.1-0.1l-0.2,0.2c0.1,0,0.1,0.1,0.2,0.1C100,87.6,100,87.6,100.1,87.5L100.1,87.5z M99.9,89.5
			c-0.1,0-0.1-0.1-0.1-0.1c0,0-0.1,0.1-0.1,0.1L99.9,89.5L99.9,89.5z M100.4,94.1c-0.1-0.1-0.1-0.1-0.1-0.1c0,0-0.1,0.1-0.1,0.1
			c0.1,0,0.1,0.1,0.1,0.1C100.3,94.1,100.3,94.1,100.4,94.1L100.4,94.1z M101.1,88.1C101.1,88.1,101,88.1,101.1,88.1
			c-0.2,0-0.3,0.1-0.4,0.1c0.1,0.1,0.2,0.1,0.3,0.2C101,88.3,101.1,88.2,101.1,88.1L101.1,88.1z M101.6,98.1c0-0.1,0-0.1-0.1-0.1
			c0,0.1-0.1,0.1-0.1,0.2L101.6,98.1C101.6,98.1,101.6,98.1,101.6,98.1C101.6,98.1,101.6,98.1,101.6,98.1L101.6,98.1z M102.8,96.6
			c-0.1-0.1-0.2-0.1-0.3-0.2l-0.1,0.1c0.1,0.1,0.2,0.1,0.2,0.1C102.7,96.7,102.8,96.7,102.8,96.6L102.8,96.6z M103.1,87.9
			L103.1,87.9c0.2-0.1,0.4,0.1,0.5,0.3C103.5,88.1,103.3,87.9,103.1,87.9L103.1,87.9z M103.5,89.8c0,0,0-0.1-0.1-0.1h-0.1v0.1H103.5
			z M103.8,94c-0.1-0.1-0.1-0.1-0.2-0.2c-0.1,0-0.1,0.1-0.1,0.1c0,0.1,0.1,0.1,0.1,0.2C103.7,94,103.7,94,103.8,94z"/>
		<path class="st0" d="M111.6,120.3c-0.5-0.1-1.1-0.2-1.5-0.2c-0.2-0.1-0.5-0.2-0.8-0.2c-0.1-0.1-0.2-0.1-0.3-0.2
			c-0.1-0.2-0.2-0.3-0.4-0.2c0,0-0.2,0-0.2-0.1c-0.2-0.4-0.8-0.6-1-1.1c0-0.1-0.2-0.2-0.2-0.2c0,0-0.1-0.1-0.1-0.2
			c-0.1-0.3-0.2-0.3-0.3-0.2c-0.1,0-0.2-0.1-0.2-0.1c0-0.3,0.1-0.5-0.2-0.6c-0.1,0-0.2-0.2-0.2-0.2c-0.2-0.5-0.5-0.9-0.9-1.3h-0.1
			c0.1-0.6-0.5-0.8-0.5-1.2c0-0.1,0-0.3-0.1-0.4c-0.1-0.2-0.3-0.4,0.1-0.5c0.2,0,0.2-0.3,0.2-0.5h-0.1c-0.2,0.2-0.3,0-0.5,0
			c-0.1-0.1-0.1-0.2-0.2-0.2c0.1-0.1,0.2-0.2,0.3-0.3h0.2c-0.1-0.2-0.1-0.4-0.2-0.5c-0.1,0-0.1,0.1-0.2,0.1
			c-0.1,0.1-0.1,0.2-0.2,0.2c0-0.1-0.1-0.2-0.1-0.3c0,0,0.1-0.1,0.1-0.2c0-0.2,0-0.3-0.1-0.5c0-0.2-0.2-0.4,0.2-0.5
			c0.2-0.1,0.3-0.1,0.2-0.3c0-0.1-0.1-0.1-0.1-0.2c0.1-0.4,0.2-0.8,0.2-1.1c0-0.4,0.5-0.5,0.2-1c0-0.1,0.1-0.2,0.2-0.2
			c0.1-0.2,0.2-0.5,0.2-0.8v-0.3c0.1-0.5,0.3-1,0.5-1.4c0.1-0.4,0.3-0.7,0.5-1.1c0.3-0.5,0.5-1,0.8-1.5c0.2-0.2,0.2-0.6,0.7-0.7
			c0.1,0,0.1-0.2,0.1-0.2c-0.1-0.2-0.1-0.2,0.1-0.2c0,0,0.1,0,0.1-0.1c0,0,0,0,0,0c-0.1-0.4,0.5-0.6,0.4-1c0.3,0,0.3-0.4,0.5-0.5
			c0.1,0,0.2-0.1,0.2-0.2c0-0.2,0.1-0.3,0.3-0.4c0.1,0,0.1,0,0.2-0.1c-0.1-0.5,0.4-0.8,0.6-1.1c0.4-0.5,0.9-1,1.3-1.5
			c0.5-0.7,1.1-1.3,1.7-1.8c0.5-0.4,0.9-0.7,1.4-1.1c0-0.1,0.1-0.2,0.2-0.1c0.2,0,0.4-0.2,0.5-0.4c0.1-0.2,0.3-0.5,0.4-0.7
			c0.2-0.2,0.5,0,0.5,0.2c0,0.1,0.1,0.1,0.2,0.2c0,0,0.1,0,0.1-0.1c0,0,0,0,0,0c0.1,0,0.1-0.2,0-0.2c-0.2-0.5-0.2-0.6,0.2-0.9
			c0.2-0.1,0.4-0.2,0.6-0.3c0.3,0.1,0.6,0,0.7-0.2c0-0.1,0-0.1,0.1-0.2c0.1-0.2,0.1-0.2,0.2-0.3c0.3,0,0.6-0.1,0.8-0.3
			c0.3-0.5,0.8-0.5,1.1-0.8l0.9-0.5c0.4-0.2,0.7-0.4,1.1-0.6c0.1-0.1,0.2-0.2,0.2-0.4c0.1-0.1,0.1-0.2,0.2-0.2l0.9-0.2h0.1
			c0.3-0.2,0.7-0.3,1.1-0.3c0.3,0,0.6-0.1,0.8-0.2c0.7-0.2,1.4-0.4,2.1-0.3c0.4,0.1,0.7,0.1,1.1-0.1c0.2-0.1,0.4,0.2,0.5,0.2
			c0.6,0,1.1,0.1,1.7,0.2c0.5,0.1,1,0.4,1.3,0.8c0.2,0.3,0.5,0.5,0.7,0.7c0.2,0.3,0.5,0.7,0.7,1s0.2,0.6,0.4,0.9
			c0.2,0.4,0.1,0.9-0.2,1.3c-0.2,0.3-0.3,0.7-0.5,1.1c-0.2,0.4-0.5,0.7-0.8,1c-0.1,0-0.2,0-0.3,0.2c-0.1,0.2-0.2,0.4-0.2,0.6
			c-0.1,0.2-0.2,0.5-0.2,0.8c-0.1,0.3,0,0.6,0.1,0.9c0,0.1,0,0.1-0.1,0.2c-0.1,0-0.2,0-0.2,0.1s0.2,0.1,0.2,0.1
			c0.1,0.3,0.1,0.6,0.2,0.9c0,0.2-0.1,0.4-0.2,0.5c0,0-0.1,0.2,0,0.2c0.2,0.5,0,0.9,0,1.3v0.4c0,0.2,0.2,0.5-0.1,0.5
			c-0.1,0.1-0.1,0.1-0.1,0.2c0.1,0.5-0.4,0.8-0.5,1.3c0,0.2-0.1,0.3-0.2,0.5c-0.1,0.1,0,0.2,0,0.3c0.1,0.1,0.1,0.2,0.1,0.4
			c0,0.1,0,0.1-0.1,0.2c0,0.2-0.1,0.3-0.1,0.5c-0.2-0.1-0.2-0.2-0.4-0.2c-0.1,0-0.2,0.2-0.2,0.2c0.1,0.2-0.2,0.5,0.2,0.7
			c0.2,0.1,0,0.5-0.1,0.6c-0.1,0-0.2,0.1-0.2,0.2c0,0,0,0,0,0.1c-0.1,0.4-0.2,0.7-0.5,1c-0.2,0.4-0.4,0.8-0.5,1.2v0.1
			c-0.5,0.2-0.4,0.8-0.7,1.2c-0.3,0.4-0.5,0.8-0.8,1.1c-0.3,0.4-0.5,0.7-0.8,1.1c-0.2,0.3-0.4,0.6-0.6,0.9c-0.1,0.2-0.2,0.3-0.4,0.5
			c-0.2,0.3-0.5,0.6-0.8,0.9c-0.2,0.2-0.4,0.5-0.6,0.6s-0.2,0.3-0.2,0.3c-0.2,0.1-0.3,0.3-0.4,0.5c-0.1,0.2-0.4,0.2-0.5,0.2
			c0,0-0.1,0-0.1,0.1c0,0,0,0,0,0c0.2,0.2-0.1,0.2-0.2,0.4l-1.4,1.1c-0.3,0.2-0.6,0.4-1,0.6c-0.2,0.1-0.5,0.3-0.7,0.5
			c-0.2,0.2-0.4,0.3-0.7,0.5c-0.5-0.5-0.3,0.2-0.5,0.2c-0.3,0.2-0.5,0.3-0.8,0.5c-0.4,0-0.9,0.2-1.2,0.5c-0.1,0.1-0.2,0-0.3,0.1
			l-0.5,0.2c-0.2,0.1-0.5,0.1-0.7,0.2c-0.4,0.1-0.7,0.2-1.1,0.3c-0.3,0.1-0.7,0.1-1.1,0.2c-0.3,0-0.6,0-0.9,0.1
			C112,120.4,111.8,120.4,111.6,120.3z M109.9,111.5c0.2-0.1,0.2-0.2,0.4-0.2v-0.1c-0.1,0-0.1,0-0.2-0.1
			C110.1,111.2,110,111.3,109.9,111.5C109.9,111.4,109.9,111.5,109.9,111.5L109.9,111.5C110,111.5,109.9,111.5,109.9,111.5
			C109.9,111.5,109.9,111.5,109.9,111.5z M112.3,112.2c0.5-0.2,0.5-0.2,0.8,0h0.1c0.3,0,0.6-0.1,0.8-0.2c0.2,0,0.4-0.1,0.5-0.2h0.4
			c0.1-0.1,0.2-0.1,0.3-0.1c0.2,0.1,0.4,0.1,0.5-0.2c0-0.1,0-0.1,0.1-0.2c0.5-0.2,0.8-0.5,1.3-0.8l1.4-0.7c0.2-0.2,0.3-0.3,0.5-0.4
			c0.1-0.1,0.2-0.2,0.4-0.2c0.1-0.1,0.3-0.2,0.4-0.3c0.2-0.3,0.6-0.5,0.8-0.8c0.3-0.4,0.6-0.7,0.9-1.1c0.2-0.2,0.3-0.4,0.5-0.5
			c0.2-0.3,0.4-0.5,0.5-0.8c0.2-0.2,0.4-0.5,0.5-0.7c0.2-0.2,0.2-0.7,0.7-0.5c0,0,0.2,0,0.2-0.1c0.1-0.3,0.2-0.5,0.3-0.8
			c0.1-0.1,0.1-0.2,0.2-0.2c0.1,0.1,0.1,0.2,0.2,0.2c0-0.1-0.1-0.2-0.1-0.2l0.1-0.1c0.4-0.7,0.7-1.4,1-2.1c0-0.2,0-0.4,0.3-0.3v-0.2
			c0-0.1,0-0.2-0.1-0.3c0-0.5,0.4-0.8,0.4-1.3c0-0.3,0.3-0.6,0.4-0.9v-0.1c-0.3-0.2,0-0.3,0-0.5c0-0.1,0.2-0.1,0.2-0.2
			c0.1-0.2-0.2-0.5,0.1-0.6c0-0.3,0-0.5-0.1-0.8c-0.1,0-0.1-0.1-0.2-0.1c-0.5,0.1-1,0.2-1.4,0.4c-0.4,0.1-0.7,0.2-1,0.3
			c-0.1,0.1-0.1,0.1-0.2,0.1c-0.7,0.4-1.3,0.8-2,1.1c-0.5,0.3-0.8,0.6-1.2,0.9c-0.2,0.2-0.3,0.4-0.5,0.5c-0.3,0.2-0.5,0.5-0.8,0.6
			c-0.4,0.3-0.8,0.7-1.2,1.1l-1.2,1.2c-0.5,0.5-0.8,1-1.1,1.4c-0.6,0.6-1.1,1.2-1.4,1.9c-0.4,0.6-0.8,1.1-1.1,1.7
			c-0.1,0.2-0.1,0.3-0.2,0.5c-0.2,0.4-0.4,0.8-0.5,1.1c-0.2,0.5-0.3,1.1-0.5,1.6c0,0.3-0.1,0.6-0.2,0.8c-0.2,0.3,0,0.6-0.1,0.9
			c0,0,0,0.1,0.1,0.1c0,0,0,0,0,0C111.8,112.3,112,112.3,112.3,112.2L112.3,112.2z"/>
		<path class="st0" d="M138.2,121c-0.3-0.1-0.6-0.1-0.9-0.1c-0.6-0.2-1.2-0.3-1.8-0.4c-0.1,0-0.3,0-0.4-0.1c-0.3-0.2-0.6-0.3-1-0.4
			c-0.1-0.1-0.4,0-0.5-0.3c0-0.1-0.1-0.1-0.2-0.1c-0.4-0.2-0.9-0.4-1.3-0.5c-0.4-0.1-0.5-0.6-0.8-0.8c-0.1-0.1,0-0.3,0-0.6
			c-0.1-0.2,0-0.4,0.2-0.4c0,0,0,0,0.1,0c0.2,0,0.2-0.2,0.2-0.3c0,0,0,0,0,0c-0.1-0.5-0.3-1-0.9-1.2l-0.1-0.2
			c0.1-0.1,0.1-0.3,0.2-0.3c0.2,0,0.3,0,0.4,0.1c0.3,0.1,0.6,0.1,0.8,0.3c0.2,0.1,0.3,0.1,0.4-0.1c0-0.1,0-0.2-0.1-0.3
			c0-0.1-0.1-0.2-0.1-0.3h0.3c0.9,0.4,1.8,0.8,2.8,1h0.2c0.9-0.1,1.8-0.1,2.7,0.1c0.8,0.1,1.6,0.1,2.5-0.1c0.6-0.1,1.2-0.1,1.8-0.2
			c0.5-0.1,1-0.2,1.5-0.3c0.4,0,0.7,0,1.1-0.1c0.7-0.1,1.4-0.4,2-0.5c0.8-0.2,1.6-0.4,2.4-0.8c0.7-0.2,1.4-0.5,2-0.8
			c0.5-0.2,1-0.5,1.5-0.6c0.7-0.3,1.3-0.7,1.9-1.1c0.6-0.4,1.1-0.8,1.6-1.3c0.4-0.4,0.7-0.9,0.9-1.4c0-0.1-0.1-0.2-0.1-0.3v-0.3
			c0.1-0.1,0.1-0.2,0.1-0.3c0.1-0.1,0-0.1,0-0.2c0,0-0.1,0-0.1,0.1v0.4c-0.2-0.3-0.5-0.5-0.9-0.6c-0.3-0.1-0.4-0.2-0.1-0.4
			c0.1-0.1,0.1-0.2,0.1-0.3c0.1,0,0.1-0.1,0.1-0.1c-0.1-0.1-0.1-0.1-0.2-0.1c-0.2,0.1-0.4,0.2-0.6,0.3c-0.1,0.1-0.2,0.2-0.4,0.1
			c-0.2-0.1-0.4-0.2-0.6-0.2c-1-0.3-2.1-0.5-3.1-0.7c-1-0.2-2-0.3-2.9-0.5h-0.1c-0.7-0.3-1.5-0.4-2.3-0.4c-0.1,0-0.2,0-0.3-0.1
			c-0.1-0.2-0.4-0.2-0.6-0.2c-0.3,0-0.4,0.1-0.7-0.2c-0.1-0.1-0.3-0.1-0.5-0.1c-0.5-0.1-1-0.1-1.5-0.1c-0.7-0.1-1.4,0-2,0.1
			c-0.1,0.1-0.3-0.1-0.3-0.1c-0.6-0.1-1.2-0.4-1.7-0.8c0,0-0.1-0.1,0-0.1c0-0.2,0.1-0.3,0.1-0.4c-0.1-0.1-0.3-0.3-0.2-0.4
			c0.1-0.3,0.1-0.3-0.2-0.3c-0.3,0.1-0.3,0.1-0.3-0.2v-0.1c0.1-0.5,0.1-1,0-1.5c0,0-0.1-0.1,0-0.1c0.1-0.2,0.2-0.3,0.3-0.4
			c-0.2-0.1-0.3-0.3-0.1-0.4c0.1-0.2,0.3-0.3,0.4-0.5c0.1-0.1,0.3-0.2,0.4-0.3c0.1-0.1,0.3-0.3,0.4-0.3c0.3-0.2,0.4-0.3,0.7-0.4
			c0.2,0,0.3,0,0.4-0.1c0.7-0.5,1.4-0.9,2.3-1.1c0.7-0.4,1.4-0.7,2.1-1c0.9-0.4,2-0.8,2.8-1.3c0.4-0.1,0.8-0.3,1.1-0.5
			c0.8-0.5,1.8-0.8,2.6-1.2c0.4-0.2,0.9-0.4,1.4-0.6c0.8-0.4,1.7-0.9,2.5-1.2c0.6-0.2,1.2-0.5,1.8-0.9c0.7-0.4,1.3-0.5,2-0.9
			c0.6-0.3,1.2-0.6,1.8-0.9c0.4-0.1,0.7-0.3,1.1-0.4c1.1-0.5,2.2-1.1,3.3-1.7c0.6-0.5,1.5-0.5,2.1,0.1c0.3,0.2,0.6,0.5,0.8,0.8
			c0,0.3,0.3,0.4,0.4,0.6c0.4,0.6,0.6,1.3,0.4,2c-0.1,1.2-0.8,2.2-1.9,2.6c-1.2,0.5-2.5,0.9-3.8,1.4c-0.9,0.3-1.7,0.6-2.5,0.9
			c-1,0.3-1.9,0.7-2.8,1.2c-0.9,0.4-1.8,0.7-2.6,1.1c-0.4,0.2-0.9,0.6-1.3,0.8c-0.4,0.2-0.8,0.4-1.2,0.5c-0.1,0.1-0.3,0.1-0.4,0.2
			c-0.4,0.2-0.8,0.4-1.3,0.6c-0.5,0.1-0.8,0.4-1.3,0.6c0,0.1,0,0.1,0.1,0.2c0.1,0.1,0.2,0.1,0.3,0.1c0.8,0.3,1.6,0.5,2.4,0.5
			c0.8,0.1,1.7,0.3,2.5,0.6c0.5,0.2,1,0.3,1.5,0.3c0.4,0.1,0.8,0.2,1.1,0.4c0.4,0.1,0.7,0.3,1.1,0.4c0.2,0.1,0.4,0.2,0.6,0.3
			c0.2,0.1,0.3,0.1,0.5,0.3c0.1,0.2,0.1,0.4,0.3,0.6c0.1,0.1,0.4,0.1,0.5,0.4c0.3,0.5,0.5,1,0.6,1.6c0.1,0.4,0.4,0.7,0.5,1.1
			c0.1,0.1,0.1,0.2,0.1,0.3c-0.2,0.2-0.2,0.3,0.1,0.3c0.1,0,0.1,0.2,0.1,0.3c0.1,0.5,0,0.9-0.1,1.4c0,0.1-0.1,0.3,0,0.4
			c0.6,0.4,0.1,0.9,0,1.3c-0.3,0.7-0.6,1.4-0.9,2.1c-0.3,0.4-0.6,0.7-0.9,1.1c-0.6,0.6-1.3,1.2-1.9,1.8c-0.7,0.6-1.5,1.1-2.3,1.5
			c-0.2,0-0.4,0.2-0.5,0.3c-1,0.6-2,1.1-3,1.5c-1.1,0.3-2.1,0.8-3.2,1.2c-0.6,0.2-1.3,0.3-2,0.4c-0.6,0.2-1.2,0.2-1.8,0.4
			c-0.7,0.2-1.5,0.3-2.2,0.3c-0.7,0.1-1.4,0.2-2.1,0.3c-0.5,0-1,0.1-1.5,0.1C139.5,121.3,138.9,121.2,138.2,121z M137.5,117.4
			c-0.1,0-0.1-0.1-0.2-0.1h-0.1c0,0.1,0,0.1,0.1,0.1c0.1,0,0.1,0.1,0.2,0.1C137.4,117.5,137.4,117.4,137.5,117.4z M139.7,117.9v-0.1
			c-0.1-0.1-0.3-0.1-0.4-0.1c0,0,0,0.1-0.1,0.1c0,0,0,0,0,0c0.1,0.1,0.2,0.2,0.3,0.3C139.6,117.9,139.7,117.9,139.7,117.9
			L139.7,117.9z M142.1,98.6c0,0-0.1-0.1-0.1-0.1c-0.2-0.1-0.3-0.1-0.4-0.2h-0.2c0.1,0.1,0.1,0.1,0.1,0.2c0.2,0,0.3,0.1,0.5,0.1
			C142,98.7,142.1,98.6,142.1,98.6z M143.3,117.7c-0.3,0-0.4-0.1-0.6-0.1c-0.2,0.1-0.4-0.2-0.4,0.1c0.2,0.1,0.3,0.1,0.5,0.2
			C143,117.8,143.2,117.7,143.3,117.7z M145.1,117.4c-0.1,0-0.2,0-0.3,0.1v0.1h0.3V117.4z"/>
	</g>
	<g>
		<path class="st0" d="M94.9,22.2c-1-0.6-1.7-1.6-1.7-2.8c-1.1-0.7-1.8-2.9,0.1-3c1.1,0.7,1.4-0.1,2.5-0.2c1.5-0.1,1.5,1.7,2.1,2.3
			C100.5,20.1,97,23.4,94.9,22.2z"/>
		<path class="st0" d="M114.3,2.3c2.6,1.8-0.7,2.9-2.3,1.4C105.5,1.8,112-0.9,114.3,2.3z"/>
		<path class="st0" d="M120.5,11.6c2.6,3.3-2.1,5.3-4.1,2.3c0.1,0.1,0.1,0.1,0.2,0.2c-0.1-0.1-0.2-0.2-0.3-0.3l0.1,0.1
			c-0.7-0.7-1.5-1.4-2.3-2c-2.8-1.3-4.8-7.3,0.2-5.2c3.1-0.8,3.1,1.7,3.6,3.9C118.8,10.6,120.1,10.3,120.5,11.6z"/>
	</g>
	<path class="st0" d="M2.6,78.2L2.6,78.2c0,0.1-0.1,0.1-0.1,0.1l0,0c-0.4,0.5-1,0.6-1.5,0.2c-0.2-0.2-0.4-0.4-0.4-0.7
		c0-0.6,0.4-1,1-1c0.5,0,1,0.4,1,0.9C2.7,77.9,2.7,78.1,2.6,78.2z"/>
	<path class="st0" d="M7.7,81.6c1.5-0.9,1.4,1.6-0.1,1.6c0.3,1-1.1,1.9-1.5,0.8c-0.7,0.2-1.4,0.2-2.1,0c-1.7-0.9,0-2.9,1.4-2.9
		c0.5,0,0.9,0.1,1.3,0.3C7,81.3,7.4,81.3,7.7,81.6z"/>
	<path class="st0" d="M15.3,84.1c1.3-0.5,6.3,1.4,2.9,2.2c-1.2,0.2-2.4,0.2-3.6,0c-0.9-0.4-3.5-0.5-3.4-1.9
		C11.8,83.1,14.2,84.4,15.3,84.1L15.3,84.1z"/>
</g>
</svg>
