<svg xmlns="http://www.w3.org/2000/svg" width="235.439" height="92.145" fill="#fff" xmlns:v="https://vecta.io/nano"><path d="M4.561 84.076a.115.115 0 0 1-.118-.117c-.7.234-.818-.467-1.052-.7-.234-.118-.35-.469-.468-.469-.35-.35-.819-.467-.585-1.052l-.116-.238c-.585-.118-.7-.7-.936-1.17-.117-.351-.351-.468-.585-.7-.117-.234-.233-.467 0-.584-.117-.235-.467-.351-.467-.469v-1.283c0-.585-.118-1.053-.118-1.638a1.674 1.674 0 0 1 .234-1.52c-.35-.7 0-1.519-.234-2.222-.116-.116-.233-.35.118-.35.116 0 .234 0 .116-.117-.116-.584-.234-1.169.35-1.637l.118-.117c-.585-.468-.118-.936.116-1.4l.819-2.807v-.35c-.117-.351 0-.469.35-.351h.234c0-.118 0-.118-.116-.234s-.118-.234 0-.468a5.28 5.28 0 0 0 .351-1.286 2.437 2.437 0 0 1 .468-1.287c.233-.584-.118-.935-.234-1.286a.98.98 0 0 1 0-.818 9.854 9.854 0 0 1 .7-1.638v-.234c-.234-.35 0-.467.234-.817.116-.118.35-.469 0-.7v-.35l.234.234c.116-.118.234-.234.234-.352-.352-.35-.118-.584.233-.817v-.235c.234-.7.234-.584 1.053-.7.584 0 1.287-.116 1.4-.935.117 0 .234-.116.351-.116 0 .116 0 .116.117.234 0-.118-.117-.234 0-.352a5.189 5.189 0 0 1 .238-1.177h.118c.467.234.35-.234.35-.467.117-.469.117-.937.585-1.287.234-.117.234-.585.351-.819s.468-.585.584-.819a7.781 7.781 0 0 0 .7-1.4 12.227 12.227 0 0 1 .819-1.287 3.145 3.145 0 0 1 .818-.935c.117 0 0-.468 0-.935l.351-.7q.7-1.053 1.4-2.105c.116 0 0-.234.116-.35 0-.118 0-.118.117-.118h.234a4.176 4.176 0 0 1 .35-1.286 7.041 7.041 0 0 1 1.053-1.52c.117-.117.468-.234.585-.468a.709.709 0 0 1 .116-.468c0-.234-.116-.585 0-.585.468-.35.352-.818.585-1.169 0-.116.234-.116.234-.116s.234.116.234 0a.318.318 0 0 0 .234-.469c-.234-.35 0-.468.234-.818s.585-.7.819-1.052c.117-.118.351-.234.467-.352a.583.583 0 0 1 .351-.116c0-.585.468-.468.7-.468h.234v-.117c-.7-.234.116-.584 0-.819a.96.96 0 0 0 .585-.584c.116-.468.234-1.053.935-1.053a.526.526 0 0 0 .35-.351c.351-.234.118-.35 0-.584v-.351l.351-.35a.426.426 0 0 1 .118.35v.234c0 .117.116.117.116.234 0-.117.118-.117.118-.234.116 0 0-.117 0-.117 0-.233.116-.351.116-.467.117 0 .117.116.234.35h.238c.467.117.7-.35.585-.818 0-.117-.118-.351-.118-.469s.118-.233.234-.35a1.5 1.5 0 0 1 .469.7c.116 0 .116.117.234.117a.41.41 0 0 0 .116-.235c-.234-.234.117-.35-.234-.584.118-.117.118-.117.234-.117 0-.117.117-.117.234-.234.117 0 .117-.116.234-.116a.407.407 0 0 1-.234-.118c-.234 0-.234.118-.35.118a.411.411 0 0 0-.234-.118h.234c.116-.116.116-.116.233-.116l-.117-.118a1.2 1.2 0 0 1 .468-1.169v-.117c-.117-.584.467-.818.467-1.285h.234c.234.116.351.233.585.35.116.117.234.117.234-.234-.118-.351.117-.468.351-.468.234.117.35 0 .468 0 .234 0 .584 0 .234-.351-.118-.116 0-.35-.118-.584h.7c.116-.468.467-.234.817-.234 0-.117 0-.234-.116-.234s-.117-.117-.234-.117c-.585 0-.819-.351-.585-.935l.234-.118c.351-.116.468-.233.819-.35.467 0 .467-.468.467-.7-.117-.352-.117-.7.234-.819.234-.118.117-.468.468-.585.467-.234.585.117.819.234a.114.114 0 0 0 .116.117v-.117c0-.117-.116-.234-.116-.351s-.118-.233-.234-.351c0-.116.234-.234.35-.234s.234-.117.351-.233a2.041 2.041 0 0 1 .468-.585c.468-.584.468-.468.819.117.116.234-.118.234-.234.35-.117 0-.117.118-.234.118a.359.359 0 0 1 .117.233c.233 0 .467.118.7.118.117-.118.234-.235.234-.351l-.35-1.287h-.118a.874.874 0 0 1 .351-.35c.584.116.351-1.053 1.053-.469a1.393 1.393 0 0 0 .35.234c0 .117.118.117.234.117 0-.117 0-.351-.116-.351-.118-.467-.234-.467-.468 0a1.008 1.008 0 0 1 .35-.7c.352-.234.7-.584 1.053-.818a7.865 7.865 0 0 1 1.637-1.053c.117-.117.117-.234.233-.234a2.578 2.578 0 0 0 .585-.467c.234-.118.352-.118.468.116v.118c0-.118.117-.118 0-.234 0-.469.351-.7.819-.936.468 0 .7-.351.935-.468a2.035 2.035 0 0 1 1.872-.7c.234 0 .467 0 .234-.234a.114.114 0 0 0 .116-.118c.351.235.585-.817 1.053-.232h.116l-.11-.123v-.467c.233 0 .467-.118.585 0 .35.233.7 0 .935 0h.116a.362.362 0 0 0-.116-.234.4.4 0 0 0-.118-.234h.352a2.013 2.013 0 0 0 .584-.234v-.234a14.06 14.06 0 0 1 1.637-.585c0 .117.117.117.117.234 0 .234-.117.351-.117.585.117-.117.234-.234.234-.351l.35-.351h-.584a.969.969 0 0 1 .936-.351 10.963 10.963 0 0 0 1.871-.467c.234-.118.35-.351.7-.118h.233c.468-.35.7-.233.936.118.117.116.233.234.233.35 0 0 .585.117.118.468-.118 0 0 .468.116.7a.115.115 0 0 0 .118-.117.114.114 0 0 0 .116-.117 1.735 1.735 0 0 1 .117-.819c.584.117.351-.233.351-.585h1.052l1.637.352a.414.414 0 0 1 .235.116c0 .351-.118.468-.351.351a.514.514 0 0 0-.585.117c-.117 0 0 .351 0 .468.117 0 .351 0 .351-.117.234-.118.467-.234.467.117l.234.117v-.232c0-.351.234-.7.7-.468 0 0 .117.117 0 .117-.117.468.234.468.467.468a2.759 2.759 0 0 1 .937.234h.116a1.823 1.823 0 0 1 1.52.818c.234.351.234.351.468.117h.117c.35-.233.584-.233.35-.7-.116 0 0-.118 0-.234a.406.406 0 0 1 .234.116 4.37 4.37 0 0 0 .234 1.053.411.411 0 0 1 .118.234c.116 0 .116-.116.233-.116l.234-.235a.871.871 0 0 1 .118.585c.116 0 0 .234 0 .351s.116.116.232.234c.118-.118.235-.118.235-.234v-.82c0-.117.117-.234.117-.351a.408.408 0 0 0 .117.234c.234.117.35.117.584.235a.4.4 0 0 1 .117.232c0 .118 0 .352-.117.352-.468-.117-.116.233-.116.233.116.234.584.352 0 .468.116 0 .116.117.233.117.468.117.468-.351.584-.585 0-.116.118-.233.118-.35.117.117.234.234.234.35V9c.7-.118.467.467.7.584.468.234-.234.7.234.7s.117.469.234.585a.89.89 0 0 1 .234.468c0 .234.117.468.468.117.117.234.468.468.7.7.116 0 .116.234.116.351.117.116.585.116.117.234 0 .116.117.234.117.35.351.351.467.7.7.935a3.735 3.735 0 0 1-1.051-.35l-.234.116c.116.118.116.234.234.468h.233c-.117-.584.117-.116.351-.234h.467a1.673 1.673 0 0 0 .351.469.114.114 0 0 1-.116.116c-.117 0-.117.118-.235.118.118.234.118.7.235.7.7-.117.584.468.818.818a1.252 1.252 0 0 0 .234.7c0 .117 0 .117-.117.234-.467.584-.117 1.052.117 1.52a2.966 2.966 0 0 1 .234 1.4c0 .468-.117.936-.117 1.4a3.849 3.849 0 0 1-.467 1.988c-.118.118-.234.118-.234.234.35.7-.585 1.053-.468 1.871.116.117-.117.234-.351.468s-.234.234.116.35v.235a20.064 20.064 0 0 0-1.159 1.655v.234s.118.233 0 .233a1.756 1.756 0 0 0-.35.819c0 .351-.234.468-.469.584a.252.252 0 0 0-.233.234v.351c-.351.468-.468.819-.7 1.169a7.471 7.471 0 0 1-1.169 1.521c0 .233-.117.233-.351.467l-1.052 1.4a1.6 1.6 0 0 0-.351.468c-.116.116-.116.234-.234.116-.351-.116-.467-.116-.351.118 0 .7-.468.935-.818 1.4a3.663 3.663 0 0 1-1.053 1.286c0 .117-.117.117-.233.234a2.548 2.548 0 0 1-.7.819c-.351.35-.585.467-.936.817 0 .118-.234.118-.35.118-.118.935-1.053 1.286-1.521 1.87-.585.819-1.286 1.4-1.87 2.106-.235.234-.469.351-.7.585a14.138 14.138 0 0 0-1.987 1.754 2.617 2.617 0 0 1-1.521.7.364.364 0 0 1-.116.234c-.117.234 0 .7-.585.584 0 0-.234 0-.234.117a5.956 5.956 0 0 1-1.87 1.521 12.151 12.151 0 0 0-1.287.935c-.234.234-.585.468-.819.7 0 .118-.234 0-.234.118a.89.89 0 0 0-.467.116v.118c-.35 0-.468.234-.819.467-.935.7-1.988 1.287-2.923 2.106l-1.754 1.051a7.1 7.1 0 0 1-1.169.819c-.234.118-.352.118-.468.234-.351.117-.585.351-.935.468-.351.233-.585.233-.819.467a10.191 10.191 0 0 0-1.872 1.17h-.35a.366.366 0 0 1 .117-.235.358.358 0 0 1 .117-.232.364.364 0 0 1-.234.116c-.117.351-.585.351-.585.819 0 .116-.467.234-.584.35-.235.118-.351.234-.585.118-.351-.468-.585-.352-.7.233a.252.252 0 0 1-.234.234 1.28 1.28 0 0 1-1.4.468.252.252 0 0 0-.234.234.723.723 0 0 1-.935.585c-.468-.234-.7 0-.935.35-.352.234-.468.7-.937.7h-.116a3.2 3.2 0 0 1-1.637.936c-.467 0-.819.351-1.286.468-.234 0-.585.234-.819 0-.116-.117-.35 0-.35 0-.118.468-.819.468-1.053.819-.7-.351-1.286.468-2.105.116-.117 0-.35.234-.584.234-.469.118-1.053.118-1.754.234h-.819a.6.6 0 0 1-.819-.35c-.116-.234-.234-.234-.35 0-.936.7-.936 1.754-1.287 2.689-.117.468-.467.935-.585 1.4l-.233 1.871c0 .117-.234.234-.234.468v.818a5.019 5.019 0 0 0-.234 2.924c-.585.935.351 1.988-.351 2.806a.219.219 0 0 0 0 .351c.117.585-.234 1.053-.351 1.637-.117.351-.467.467-.585.7l-.233.235c-.117.818-.117.818-.819.584h-.117v.234c.234.468 0 1.17-.351 1.17-.584 0-.468.584-.7.7a1.715 1.715 0 0 1-1.287.234 2.412 2.412 0 0 0-1.754.35 1.971 1.971 0 0 1-.818.118zm6.431-26.545a.515.515 0 0 0-.351-.116c-.116-.117-.116 0-.116 0a1.489 1.489 0 0 0 .116.7h.351zm8.653-3.858c.234 0 .234-.117.35 0a1.777 1.777 0 0 0 1.521-.351c0-.117.234-.117.234-.117a.613.613 0 0 0 .936-.233c.234-.118.35-.234.467-.234.468-.118.818-.819 1.4-.469a.114.114 0 0 1 .118-.116l1.519-.352c.351-.116.469-.233.351-.584 0 0 .118-.233.234-.233l1.169-.7c.351-.35.7-.7 1.287-.584 0 .117.117 0 .117 0 0-.467.35-.585.818-.7a.41.41 0 0 0 .234.116c.117 0 .233 0 .233.118v-.586a4.985 4.985 0 0 1 .585.118c0-.118 0-.469.118-.585a9.083 9.083 0 0 1 1.052-.468 16.525 16.525 0 0 1 1.987-1.052c.234-.118.352-.352.585-.234a.434.434 0 0 0 .352.116v-.467c0-.117-.234-.117-.352-.117.352-.234.468-.585.7-.7a.115.115 0 0 1 .117-.118c.468.468.468.118.7-.233.116-.117.116-.352.234-.468 0-.118.233-.585.351 0l.116-.118a1.6 1.6 0 0 0 .468-.35c.234 0 .467 0 .467-.117.118 0 .234-.234.352-.35h-.7a.425.425 0 0 0 .35-.118c.468-.116.7-1.051 1.4-.584a3.261 3.261 0 0 0 .936-.585c.233-.117.7-.234.351-.7l.116-.118c.234-.116.351 0 .468 0 .467.118.585-.234.467-.584v-.235c.352-.232.468-.35.819-.35h.352c.467-.117.7-.585 1.169-.467.116 0 .467-.234.467-.352 0-.233.234-.233.468-.467 0-.117 0-.117.117-.234l.818-1.286c0-.117.117-.117.234-.117v.117c-.234.467.234.351.234.351.233-.234.467-.351.467-.585.235-.234.469-.234.585-.468.234-.116.352-.116.585-.234.117 0 .117 0 .117-.117h-.225c-.116 0-.116 0-.234.117a.427.427 0 0 0 .118-.351c0-.116.116-.116.116-.234-.116-.7.585-.584.819-1.051 0 .116.117.116.234.233.117 0 .117.117.233.234v.117c.118 0 .118-.234.118-.234-.234-.234 0-.117.116-.234.234 0 .351-.35.351-.468 0-.351-.233-.351-.467-.117 0 .117-.118 0-.118.117v-.351a8.742 8.742 0 0 0 1.4-.818 10.034 10.034 0 0 0 1.17-.819c.117-.117 0-.351 0-.467 0-.234.117-.234.234-.468 0 .234.117.234.35.468v.234a.116.116 0 0 0 .118-.118v-.584c-.468-.234-.234-.234-.118-.467a4.676 4.676 0 0 0 .352-.468c-.234-.235 0-.235.117-.351.35-.468 1.052-.7 1.052-1.4a.115.115 0 0 1 .117-.118 2.713 2.713 0 0 0 .819-.818 12.772 12.772 0 0 0 .935-1.755c.234-.817.935-1.285 1.4-2.221a10.734 10.734 0 0 1 .819-1.637c.234-1.4 1.053-2.689.819-4.093a1.441 1.441 0 0 0-.585-1.169c-.118-.117-.118-.35-.351-.468a.774.774 0 0 0-.7.118v-.585a1.671 1.671 0 0 1-.468.233c-.117-.351-.351-.233-.585-.117-.116.117-.35 0-.35 0-.819 0-1.638-.35-2.339 0a2.9 2.9 0 0 1-.935.117.427.427 0 0 0-.351.118 1 1 0 0 1-.584.35c-1.053.585-2.222 1.053-3.392 1.638l-1.169.7a17.086 17.086 0 0 0-1.521.935c-.467.234-.935.468-1.052.819-.35.584-1.169.7-1.519 1.286h-.118c-.234-.117-.351.117-.468.351a.408.408 0 0 1-.117.234 1.137 1.137 0 0 0-1.285.819c0 .116-.118.116-.118.233-.351.117-.585.352-.935.468-.351.468-.468 1.053-1.053 1.169a.252.252 0 0 0-.234.234c-.117 0-.117.234-.117.234-.468 0-.584.351-.935.7a1.62 1.62 0 0 1-.818.935l-1.286 1.4c-.352.351-.819.585-.937.936-.116.467-.35.467-.7.7a1.66 1.66 0 0 1-.234.35c0 .118-.116.234-.116.351-.352.584-1.287.818-1.4 1.637a.115.115 0 0 1-.117.117c-.234.351-.467.584-.7.936a.433.433 0 0 1-.351.116 1.622 1.622 0 0 0-.352.469c0 .116 0 .467-.233.584-.117.234-.351.351-.468.585-.468.7-.935 1.286-1.4 1.87-.117.234-.234.234-.351.468-.234.351-.35.936-.7 1.17a19.223 19.223 0 0 0-1.169 2.1c-.117.234-.351.352-.351.468a7.551 7.551 0 0 0-1.051 1.871c-.352.584-.819.818-1.053 1.4a25.929 25.929 0 0 1-1.4 2.456c-.234.234-.35.585-.584.819a4.331 4.331 0 0 1-.585 1.286 17.832 17.832 0 0 0-1.169 1.988c-.118.584-.585.935-.819 1.4a1.493 1.493 0 0 0-.116.7c.105.01.222-.106.456-.106zm4.21 9c-.234 0-.351-.234-.468-.116-.234 0-.234.116-.467.234l.233.233c.234.003.468-.23.702-.348zm12.4-48.761v-.351a.643.643 0 0 0-.585.351c.117 0 .117.116.234.116a.515.515 0 0 0 .346-.113zm1.286 39.874c-.117-.233-.233-.467-.351-.467-.116.117-.35.234-.467.467a.407.407 0 0 0 .233.118 1.049 1.049 0 0 1 .58-.115zM51.686 6.548a1.471 1.471 0 0 0-.118-.7h-.116a.407.407 0 0 0-.118.234.894.894 0 0 0 .234.468v.468a.7.7 0 0 0 .118-.47zm7.6 16.137c.234-.117.351-.117.468-.233.117 0 .117-.235.117-.235-.117-.117-.234-.234-.351-.234 0 0-.234.117-.234.234v.468c-.116-.468-.585-.233-.935-.351v.118c.234 0 .35.584.7.35.119-.117.119-.117.235-.117zm1.638 13.8c.116-.117.232-.234.467 0 .117.118.35 0 .584 0v-.234c0-.233-.234-.351-.35-.7-.117.234-.117.35-.234.468h-.351c0 .116-.234.35-.351.467v.234z"/><path d="M62.206 85.947a7.863 7.863 0 0 0-1.286-.819 4.132 4.132 0 0 0-1.053-.467 3.077 3.077 0 0 1-1.637-1.053 8.934 8.934 0 0 0-.935-1.286q-.7-.526 0-1.052a.712.712 0 0 0 0-.936c-.469-.468-.469-1.286-.936-1.637a.73.73 0 0 1 0-1.053 12.263 12.263 0 0 0 .7-1.87 6.838 6.838 0 0 1 .468-.935c.7-.937.467-2.34 1.169-3.275a8.755 8.755 0 0 0 .468-1.871 48.758 48.758 0 0 0 2.221-5.145c.352-1.287.936-2.339 1.287-3.391a43.2 43.2 0 0 0 1.754-4.093l2.222-4.326a15.436 15.436 0 0 1 .818-2.106l3.625-7.484 3.391-6.2a29.8 29.8 0 0 1 2.807-4.561.605.605 0 0 0 .233-.468 32.109 32.109 0 0 1 2.222-3.975c.468-1.052 1.4-1.755 1.754-2.924.118-.467.585-.817.819-1.286l3.041-4.326.7-1.17 1.4-2.338a2.58 2.58 0 0 0 .351-.585q.525-.7 1.053-1.4c.116-.118.234-.234.234-.351.817-1.521 2.1-2.806 3.039-4.326.7-1.287 1.4-2.222 2.1-3.392.468-.7.936-1.637 1.871-1.988.234-.117.351-.35.468-.468a1.6 1.6 0 0 1 .468-.35 4.968 4.968 0 0 1 1.286-.234c.117 0 .467-.117.585 0 .585.468 1.4.468 2.1.818a1.629 1.629 0 0 1 .468.351c.233.117.35.234.584.352a9.172 9.172 0 0 1 3.158 2.221 1.187 1.187 0 0 1 .467.818 24.459 24.459 0 0 0 .584 2.456 5.863 5.863 0 0 1-1.051 3.742 21.607 21.607 0 0 1-1.988 2.573l-2.457 3.04-1.87 1.988-1.988 2.572a17.218 17.218 0 0 1-1.169 1.52 22.631 22.631 0 0 0-1.521 1.988c-1.286 1.754-2.339 3.626-3.508 5.38-.467.584-.819 1.4-1.286 1.988-.584.935-1.287 1.636-1.754 2.455a4.534 4.534 0 0 0-.7 1.286c-.234.468-.585.936-.819 1.4l-2.689 4.677a32.473 32.473 0 0 0-1.974 3.395c-.819 1.286-1.52 2.689-2.222 3.975l-1.4 2.573c-.468.819-.585 1.637-.936 2.34l-2.339 4.443a8.975 8.975 0 0 1-.467 1.285l-1.521 3.86c-.117.35-.234.585.118.819.584.584.467.935-.235 1.4-.584.233-1.169.585-1.637.818-.116.117-.116.234-.234.351h.234l3.625-1.871a33.98 33.98 0 0 1 4.794-1.871 4.905 4.905 0 0 1 1.872-.468.43.43 0 0 0 .35-.116 17.587 17.587 0 0 1 3.275-1.755l2.923-1.286a26.066 26.066 0 0 1 2.806-.935 17.5 17.5 0 0 0 3.742-1.17 5.673 5.673 0 0 1 3.041-.818c.35-.118.7-.468 1.052-.585a6.634 6.634 0 0 1 1.4-.468c1.051-.117 2.1-.585 3.274-.819a3.833 3.833 0 0 1 2.806-.467c.117.117.233 0 .467-.117a1.245 1.245 0 0 1 1.872-.467c.467.116.584 0 .819-.469l1.169-3.273c0-.118.467-.351.467-.351.7.467 1.521.116 2.222.351.351.116.585.116.7.467.352.468 1.053.7 1.171 1.4 0 .118.232.234.35.234.351 0 .467.117.234.351 0 0 0 .35.233.468a2.928 2.928 0 0 1 .819.467.642.642 0 0 1 .584.234.7.7 0 0 1 .118.468.468.468 0 0 1-.468.234c-.468.117-.819.467-.468.935.468.469-.117.351-.233.469h-.577c-.584-.118-.819 0-.7.584a2.554 2.554 0 0 1-.234 1.871c-.233.584.468.35.584.7a.435.435 0 0 0 .352.116c-.117 0-.234.234-.352.117a4.788 4.788 0 0 1-1.285-.117.114.114 0 0 0 .116-.116c.118-.118.118-.352.234-.352 0-.233.118-.467.118-.7-.118 0-.234-.116-.234 0 0 .234-.234.351-.352.7a.817.817 0 0 1 .234.468 6.521 6.521 0 0 0-2.1-.234c-.585.118-.351-.35-.468-.7.351.351.7 0 .818-.234a.619.619 0 0 0-.7-.7c0-.468-.585-.468-.819-.7a.9.9 0 0 0-1.169.116 2.576 2.576 0 0 1-1.053.118c.234-.118.351-.468.585-.468.585 0 .468-.467.468-.936-.117 0-.117-.116-.117-.234 0 .118 0 .234-.117.234-.234.234-.234.585-.585.469-.234-.118-.234-.469-.468-.235-.116.117.118.351.118.467a1.5 1.5 0 0 1 .116.7c-.467.234-1.051.584-.935 1.285a4.285 4.285 0 0 1-.234 1.053c-.116.234 0 .117.234.117a6.163 6.163 0 0 0 1.4.351c0 .117.117.233.351.467v-.109a2.007 2.007 0 0 1-.819.116c-.35-.116-.467.118-.467.351a2.98 2.98 0 0 1-1.4 1.287c-.352.116-.468.116-.585-.234a.877.877 0 0 0-1.4.117l-.351.351c-.818 0-1.287.467-1.871.585-.819.116-.819-.118-.819-.585 0-.118-.116-.234-.234-.351l-.351.351a3.022 3.022 0 0 1 .469 1.169c.116.117.234.117.234.234h-.352c-.935-.117-.818-.117-1.4.818-.234.352-.352.586-.937.586-.234 0-.35.116-.7.233a12.719 12.719 0 0 1-2.923 1.169c-.234 0-.468.234-.819.468a4.114 4.114 0 0 1-2.456.819 2.5 2.5 0 0 0-1.4.819 6.93 6.93 0 0 1-2.689 1.519 38.737 38.737 0 0 0-4.561 1.988l-3.624 1.754c-.118.117-.118.117-.234.117-1.4 1.287-3.275 1.871-4.8 2.807-.467.35-.819.468-1.286.818a6.294 6.294 0 0 0-1.871 1.17 12.64 12.64 0 0 1-3.976 2.456l-3.859 2.1a6.819 6.819 0 0 1-.935.467c-.25.004-.367.004-.484-.112zM65.363 72.5a.115.115 0 0 0 .117-.117c.234-.116.585-.116.818-.234v-.116c-.233.116-.584.234-.818.35a.359.359 0 0 0-.233.117 1.242 1.242 0 0 0-.585.234.115.115 0 0 0 .117.118c.121-.119.468-.235.584-.352zm1.988-12.628c0-.118-.116-.118-.116-.234-.118.116-.118.116-.118.234v.116a.366.366 0 0 1 .234-.117zm.585 11.459V71.1a1.691 1.691 0 0 0-.819.234v.234a2.169 2.169 0 0 0 .819-.238zm.234-1.871c.116-.234.116-.468.35-.7.351-.351.117-.467-.234-.7a2.928 2.928 0 0 1-.818-.468 1.986 1.986 0 0 1 .117.818c.117.351 0 .585.117.936 0 .117.117.234.234.351l.234-.238zm.7-4.911a1.757 1.757 0 0 1-.234-.351c-.117 0-.233.117-.467.233.116.118.116.352.234.352s.234-.119.468-.235zm.819 5.73c.117-.118 0-.118 0-.234a1.063 1.063 0 0 1-.585.116c-.116.118-.116.234-.234.351l.118.117c.235-.001.468-.235.702-.351zm3.742-2.923v-.234c.468-.234.7-.819 1.287-.819a1.682 1.682 0 0 0 .7-.234.114.114 0 0 1 .116.116v.234l-1.87 1.053c.002.116-.115-.001-.232-.117zM76 65.6a.607.607 0 0 1 .468-.233c.117-.118.235.116.468.35a1.066 1.066 0 0 1-.585.351c-.23 0-.351-.234-.351-.468zm1.638-.351a1.971 1.971 0 0 0 .818.118h-.936zm1.4-1.286c.585-.351 1.169-.584 1.636-.818.118 0 .352-.118.469 0a.43.43 0 0 1 .35.116c.118 0 0 .234-.116.234-.585.351-.937.935-1.754.819s-1.053.234-1.17 1.053c-.227-.937-.227-.937.592-1.404zm2.923-1.169c.117-.118.117-.118.117-.234l1.52-.7h.351v.351c-.234.233-.351.467-.468.467-.468.118-.935.118-1.4.235zm6.439-2.338c.118-.118.234-.118.234-.235 0 .117.117.117.117.235a.358.358 0 0 0-.117.232zm.7-.585l.35-.352c.117 0 .234-.116.467-.116a.115.115 0 0 1 .118.116v.234a.878.878 0 0 1-.468.118zm2.221-1.053l3.157-1.287c.234 0 .35.118.7.118-.234.234-.234.35-.352.35-.584.234-1.051.819-1.986.7a3.607 3.607 0 0 0-1.4.585 1.722 1.722 0 0 1-.819.118c.235-.233.351-.467.702-.584zm4.21-1.169c0-.118 0-.234.116-.234a13 13 0 0 1 1.872-.819v.118a2.035 2.035 0 0 1 .7-.118c.234-.7.936-.585 1.4-.7.7 0 1.287-.468 1.988-.234.117 0 .117.116.234.234-.117 0-.117.116-.234.116l-5.145 1.638a1.673 1.673 0 0 1-.7.234c-.113-.001-.113-.119-.229-.235zm7.834-2.222c0-.117 0-.234.118-.234a4.694 4.694 0 0 1 2.805-1.17 1.676 1.676 0 0 1 .7-.234h.35a.585.585 0 0 1-.116.352l-3.742 1.286zm2.1 7.484a1.256 1.256 0 0 1-.467-.235c-.235.235-.469.351-.469.469a.363.363 0 0 0 .118.234 3.7 3.7 0 0 1 .825-.468zm1.17-3.742a1.97 1.97 0 0 0-.586-.234l-.467.468a1.728 1.728 0 0 0 .351.234 2.469 2.469 0 0 0 .709-.468zm-.468-.7a.4.4 0 0 1-.234-.118c-.117 0-.117.118-.234.118a.41.41 0 0 1 .234.116c.123-.001.123-.117.241-.117zm-.118 3.741l-.116-.117c0 .117-.117.117-.234.117 0 .117.117.233.234.467.007-.235.123-.351.123-.468zm2.106-1.4a2.523 2.523 0 0 1 .584-.468v.118c0 .467-.117.584-.468.584zm.935 1.754v.116c.585 0 1.053-.467 1.637-.935.351.819.351.935-.351 1.053-.46.113-.928.347-1.276-.238zm1.286-.819a1.029 1.029 0 0 1-.818-.116c-.117-.118-.234-.234-.351-.234a.427.427 0 0 1 .351-.118c.467 0 1.052-.233 1.169.468-.11-.004-.227-.12-.344-.004zm-.233-1.87h.233a.708.708 0 0 1 .468.116h-.468a.405.405 0 0 1-.226-.12zm.7.116a1.063 1.063 0 0 1 .585-.116l-.351.935c-.343-.122-.226-.472-.226-.823zm2.1 2.222h.352a.431.431 0 0 1 .351.117c-.234 0-.234.116-.468.116z"/><path d="M146.162 72.967s0-.234-.117-.234a1.047 1.047 0 0 0-.585.118.414.414 0 0 0-.234.116v-.35a.251.251 0 0 0-.233-.235c-.234.117-.352-.234-.586-.35-.116-.351-.35-.585-.7-.351-.116 0-.35-.351-.468-.585 0 0 .118-.351.234-.351.234-.117.468 0 .7 0 .117 0 .117 0 .233-.117h-.116a1.737 1.737 0 0 0-.7-.117c-.234-.117-.468-.351-.819 0-.118.117-.468.117-.819.117v-.35c.468-.585 0-.585-.35-.585-.585-.117-.234-.351-.118-.584.468-.352.468-.352 0-.7a.43.43 0 0 0-.35-.116v-.234a.508.508 0 0 0 .35-.117c0-.117-.116-.234-.234-.351a.409.409 0 0 1-.116-.233c.35-.352-.117-.468-.235-.7-.116.117-.35.117-.35.235a1.735 1.735 0 0 1-.117.7c0 .117-.351.234-.351.234 0-.117-.117-.234-.117-.351.117-.234.117-.468.234-.7s.467-.351.117-.818a1.44 1.44 0 0 0 .234-.584 3.538 3.538 0 0 0 .468-.937V64.2c-.352-.234-.118-.351.117-.351.116 0 .116-.234.116-.234a3.623 3.623 0 0 1 .118-2.221.433.433 0 0 0 .116-.351c0-.234 0-.468.468-.234l.117-.234c0-.234-.117-.351-.117-.468v-1.172c0-.585.234-.936.234-1.52a14.369 14.369 0 0 1 .585-2.924c.116-.117.116-.234.116-.468-.116 0-.467-.116-.584-.116l-2.222.35a1.482 1.482 0 0 0-.7.117c-.351 0-.7.234-.936.234a3.233 3.233 0 0 1-1.052-.117 1.727 1.727 0 0 0-1.52.235 5.3 5.3 0 0 0-1.872.35 19.169 19.169 0 0 1-2.455.7 5.181 5.181 0 0 1-1.754.351c-.117.117-.234.352-.468.352a4.825 4.825 0 0 0-2.222.584c-.585.351-1.052-.117-1.52-.117s-.7 0-.819.584l-.116.234a1.933 1.933 0 0 0-1.169.935c-.7.937-1.638 1.872-2.339 2.807-.7 1.169-1.521 2.222-2.34 3.392a6.111 6.111 0 0 1-3.74 2.806 6.961 6.961 0 0 1-2.691-.117 1.64 1.64 0 0 0-.35-.233q-.7-.7-1.4-1.4c-.116 0-.234-.234-.35-.468a6.848 6.848 0 0 0-.468-.819 4.26 4.26 0 0 1-1.052-2.689 3.977 3.977 0 0 1 .117-1.169 3.312 3.312 0 0 1 .7-1.871 10.739 10.739 0 0 1 2.806-3.274 15.75 15.75 0 0 0 1.4-1.4 1.6 1.6 0 0 1 .468-.35 1.292 1.292 0 0 0 .585-1.169c-.235-.7-.352-.819-.937-.937a.606.606 0 0 0-.467-.233 2.574 2.574 0 0 0 .585-.468c.234 0 .35.117.467.117a.58.58 0 0 0 .352.117c.116-.584.584-.234.935-.35a3.7 3.7 0 0 0 1.169-.585c1.637-1.169 2.456-2.807 3.508-4.327l2.1-2.924c.7-.817 1.286-1.754 1.987-2.689.585-.819 1.4-1.637 1.988-2.573l1.4-1.87 1.871-2.222q.7-.877 1.4-1.754a4.611 4.611 0 0 0 .935-1.169 11.989 11.989 0 0 1 1.4-1.988v-.7c0-.35.117-.584.467-.584a1.268 1.268 0 0 0 .937-1.286c0-.118.116-.234.233-.351a13.991 13.991 0 0 0 1.286-1.4l1.286-1.4a2.4 2.4 0 0 1 .936-.936c.468-.234.818-.7 1.286-.936a2.117 2.117 0 0 1 1.17-.233 1.768 1.768 0 0 0-.7.467v.118a2.3 2.3 0 0 0 .936.116c0-.116 0-.234.116-.234-.7 0-.116-.234-.234-.35 0-.117 0-.117-.116-.117l.234-.234c.818.234 1.519-.585 2.338-.468.117 0 .351-.234.468-.234a3.13 3.13 0 0 1 .7-.585c.351-.233.7-.233.936-.7h1.521c.233.117.35.234.584.234h.585a.55.55 0 0 0 .7.117.858.858 0 0 1 .935.468.5.5 0 0 0 .7.116c0 .118.117.234.117.351a1.057 1.057 0 0 0 .351 1.169v.234a1.168 1.168 0 0 0 .117.351.781.781 0 0 1 .819.586c0 .233.467.233.584.467a.891.891 0 0 1 .235.584c0 .234-.235.585.35.351l.234.117c.117.467.351.936.467 1.286l.351 1.521a1.053 1.053 0 0 1 .117.585 4.895 4.895 0 0 1 .585 2.572 2.754 2.754 0 0 0 .234.936l-.234.234a.407.407 0 0 1-.118.233c.585.351.235.818.235 1.287l-.351 1.051a7.785 7.785 0 0 0 .116 1.638 1.755 1.755 0 0 1-.116.7 7.566 7.566 0 0 1-.234 2.221 8.665 8.665 0 0 0 .117 2.456v.234c-.117 1.169 0 1.052 1.052 1.52.468.116.819.585 1.287.819a3.259 3.259 0 0 1 1.636 2.455c.118.234.352.584.469.818l.7 1.053c.233.234.116.585 0 .819a2.312 2.312 0 0 0-.234 1.286c.116.468-.118.818-.7.935a2.388 2.388 0 0 0-.7.819c-.117.584-.468.584-.935.7l-3.275.234c-.35 0-.584-.118-.818 0a.828.828 0 0 0-.818.935c0 .467-.234.819-.234 1.286v.118c0 .467 0 .935-.585.935-.234 0-.468.35-.7.584l.118.117c.233.234.233.234 0 .352-.118 0-.235.233-.235.35a5.554 5.554 0 0 0-.35.819.114.114 0 0 0-.118.116c.118.117.351.234.468.117s.468-.351.585-.585h.117a5.692 5.692 0 0 1-.117 1.4.408.408 0 0 0-.117.234c-.468-.469-.7.116-.936.116-.116 0-.234 0-.234.118h.118a.362.362 0 0 1 .116.234c0 .116-.116.116-.234.116a.358.358 0 0 1-.233.118.429.429 0 0 0 .117.35c.234.117.468.117.35.351h.468a.41.41 0 0 0 .235.116.364.364 0 0 1-.235.118l-.935.351a.41.41 0 0 1-.234.116.361.361 0 0 0 .234.118.888.888 0 0 0 .467.116c-.116.118-.234.234-.35.234a.608.608 0 0 1-.468.234c-.117.234-.117.234.117.234l.234.117c0 .468.117.468.351.234.116-.118.234-.118.234 0a.433.433 0 0 0 .116.351l-.116.116c-.118.118-.118.585-.234.585-.234 0-.351-.117-.7-.117a.115.115 0 0 0-.117.117c.117.351.468.468.468.7.233.234.233.585.351.7a.878.878 0 0 1-.468.118h-.351c0 .116.117.35 0 .35 0 .351.117.468.468.585v.116a1.956 1.956 0 0 1-.584.234 1.184 1.184 0 0 1-.352-.116.7.7 0 0 0 .118.467c.234.118.35.468 0 .586-.235 0-.235.116-.118.35.352.351 0 1.052-.351 1.17a.43.43 0 0 0-.116.35.892.892 0 0 1 .233.468c.117.351.234.467-.233.585v.935c0 .117-.118.117-.234.117a.723.723 0 0 0-.819-.234c-.116 0-.116-.117-.234-.233l-.116-.118v.234a4.839 4.839 0 0 0 .116 1.287c.118.233.234.467-.116.585-.118 0-.118.116-.235.233 0 .117-.116.234-.234.351.012-.123-.217-.357-.455-.474zm-24.323-20.58h.351c.117 0 .117 0 .234-.118.117 0 0-.116 0-.234a.427.427 0 0 0-.351.118.41.41 0 0 0-.234.116.433.433 0 0 0-.116.351c.116-.12.116-.12.116-.233zm5.262 2.689a.437.437 0 0 1 .468-.35 1.976 1.976 0 0 0 .819-.118c-.234-.467-.468-.117-.819-.234h-.116a.7.7 0 0 0-.468.117c-.117 0-.351.235-.351.235a.522.522 0 0 0 .351.467.114.114 0 0 0 .115-.117zm7.017-9.588a15.548 15.548 0 0 0 1.754-.585 23.924 23.924 0 0 1 2.572-.468 2.4 2.4 0 0 1 .7-.234 30.712 30.712 0 0 0 3.741-.7c.469-.234.819-.352.7-.937a8.025 8.025 0 0 1 .233-1.519 2.794 2.794 0 0 0 .234-1.053 12.624 12.624 0 0 1 0-2.1c.117 0 .234-.234.234-.35-.468-.468 0-1.053 0-1.52a19.455 19.455 0 0 1 .116-3.626c-.116 0-.116-.116-.116-.35-.117.116-.351.116-.468.234l-3.274 3.39a19.785 19.785 0 0 0-2.339 2.925 21.481 21.481 0 0 0-2.456 3.039c-.817 1.287-1.87 2.339-2.8 3.626-.118.116-.118.234-.235.467h.467c.352-.127.703-.127.937-.239zm2.689 4.092a2.6 2.6 0 0 0-1.637-.35c-.233.116-.585.233-.818.35 0-.117-.118-.117-.118-.234a.606.606 0 0 1-.468.234c.234.234.352.351.468.351a1.032 1.032 0 0 0 .819-.117c.117 0 .234-.234.351-.234 0 .117-.117.234-.117.351s0 .116.117.116c.117.585.584.819 1.052.468a1.326 1.326 0 0 0 .351-.935zm5.029 16.02a.886.886 0 0 0-.468-.117h-.351c0 .117-.118.234-.234.468h.585c.116 0 .232-.234.468-.351zm1.169 3.859c-.118-.234-.352-.468-.468-.7h-.117c0 .118 0 .936.117.936a.61.61 0 0 0 .468-.236zm.7-8.186c-.234 0-.35-.116-.468-.35-.116.117-.351.234-.351.35s.118.234.351.468a.921.921 0 0 1 .469-.468zm1.287-21.282c.117-.117.117-.233.233-.467 0-.234-.116-.234-.116-.351h-.235l-.35.7c0 .117.234.234.234.351.001.001.235-.116.235-.233zm.585-3.157a3.487 3.487 0 0 0 .233-1.17c0-.116-.117-.116-.351-.233 0 .117-.116.117-.116.351h.116c-.116.234-.116.584-.234.819a.426.426 0 0 0 .118.35c.117 0 .235 0 .235-.117zm.35-1.871c.234-.234.234-.35.467-.585 0-.116.118-.116.118-.234h-.112c-.116-.116-.233-.116-.233 0a2.773 2.773 0 0 0-.584.585 1.174 1.174 0 0 0 .116.351.362.362 0 0 0 .229-.117z"/><path d="M179.251 90.157h-.235c.118-.118.118-.118.118-.234a.878.878 0 0 0-.118-.468h-.116c0 .234 0 .351.116.468v.234c-.584.35-1.051-.234-1.519-.351-.117 0-.234-.117-.351-.117-.585-.117-.468-.351-.116-.7 0-.118.116-.118.233-.234h-.463a5.678 5.678 0 0 1-1.4 0 .963.963 0 0 1-.7-.469.8.8 0 0 1 .352-.584c.467-.234.584-.7.584-1.286a7.724 7.724 0 0 1 .117-1.638c.117-.234.117-.468-.117-.584v-.351c.7-.117.585-.7.585-1.287-.118-.7.35-1.169.935-.818.117 0 .351.117.351.234 0 .7.35.468.7.351s.817-.234 1.286-.351l.35-.351a8.024 8.024 0 0 0 .352-.935.411.411 0 0 1-.118-.234c-.116.116-.234.116-.234.234v.935c-.116-.116-.35-.234-.467-.468-.234-.233-.468-.351-.468-.7a5.087 5.087 0 0 1 .819-.468c.234-.117.818 0 .7-.467 0-.118-.585-.234-.935-.351-.234-.117-.469.585-.7.117-.234-.234 0-.469 0-.7-.351-1.519.585-2.689 1.052-3.974 0-.118.118-.118.234-.235.118.117.234.235.234.351v.234a1.179 1.179 0 0 0 .117.351c.117 0 .234-.234.234-.351v-1.876c0-.233 0-.585.35-.585.7.118.585-.233.352-.467-.117-.351-.234-.468-.117-.7a2.164 2.164 0 0 1 .818-.234c.585.468.7 0 1.17-.233.35-.235 0-.585 0-.7-.117-.467-.351-.116-.585 0s-.7.351-.819.234c-.35-.234-.116-.7.118-1.052a1.33 1.33 0 0 0 .35-.936 1.292 1.292 0 0 1 .819-1.051 1.172 1.172 0 0 0 .351-.118c-.234-1.4.7-2.338 1.169-3.508.116.234.116.468.234.7a.114.114 0 0 0 .116.118c0 .116.235 0 .235 0 .116-.585.7-1.169.468-1.872a1.678 1.678 0 0 1 .35-1.636 14.84 14.84 0 0 1 1.17-1.4c.116-.468.116-1.053.234-1.521l-.127-.123a4.167 4.167 0 0 1-.819 1.17.534.534 0 0 0 0 .584c0 .118-.116.234-.233.351-.7.584-1.287 1.169-.936 2.105a1.259 1.259 0 0 1 .118.585.9.9 0 0 1-.819.935c0-.234-.117-.584-.351-.117-.35.351-.584.936-1.169 1.052v.235c.117.7-.468 1.285-.585 1.87l-1.286 3.157a8.312 8.312 0 0 0-.936 2.106h-.468c-.116 0-.116-.118-.234-.234-.116.116-.116.234-.233.35a.429.429 0 0 0 .117.351c.468.819 0 1.521-.585 2.106a1.74 1.74 0 0 0-.351.935c.117.584-.117.7-.7.935-.116.118-.233.118-.35.234.117 0 .234.116.35.234.352 0 .352.234.118.467a2.6 2.6 0 0 0-.351 1.872c.117.818-.584 1.169-1.053 1.754a.364.364 0 0 1-.234-.117l-.584-.936c-.117-.117 0-.351 0-.467.234-.118.468-.118.7-.351a1 1 0 0 0 .35-.586 6.652 6.652 0 0 1 1.17-4.092 1.242 1.242 0 0 0 .234-.585 5.3 5.3 0 0 0 .233-.935l2.222-4.561a11.917 11.917 0 0 1 1.169-1.87c0-.118.118-.118.118-.234-.118-.819.467-1.287.935-1.754a.9.9 0 0 0 .234-.468c-.352-.935.819-1.4 1.169-2.1.117-.234.351-.35.234-.7 0-.467.467-.817.585-1.169a7.181 7.181 0 0 1 1.4-2.221.887.887 0 0 0 .234-.468c0-.585.469-.935.585-1.287.234-.467.468-.233.468-.117a.608.608 0 0 1 .234.469c.234.467.234.584.7.234.469-.118.585-.469.118-.7-.118 0-.118-.234-.234-.35h.116c.819.116 1.17-.351 1.638-.819-.118.351-.118.585.234.7.467.118.935-.584.935-.935a.41.41 0 0 0-.116-.234l-.234.234c-.118.468-.469.585-.937.234a1.467 1.467 0 0 1 .118-.7c0-.352-.234-.936.468-.352.116 0 .233-.233.233-.35 0-.351-.351-.585-.585-.467-.467.35-.935.584-1.169 1.169a1 1 0 0 1-.819 1.052c-.233 0-.467 0-.233-.467a.894.894 0 0 1 .233-.585c.937-1.287 1.754-2.69 2.573-3.976.118-.118.352-.118.468-.234 0 .116.234.234.351.468 0 .116-.234.351-.351.467-.819 0-.234.7-.468 1.053-.117 0 .118.35.234.468.118 0 .234-.118.351-.352.351-.234.234-.935.936-.935.35 0 0-.585.585-.7.233 0 .584-.352.7-.468.116-.351.468-.468.116-.935-.116-.352.234-.819.7-1.053a.115.115 0 0 0 .117-.117 14.385 14.385 0 0 1 1.169-1.637c.118-.117 0-.351 0-.351-.116 0-.233-.117-.35 0a1.691 1.691 0 0 0-.819.234c0 .117-.234.233-.234.351.351.467-.117.7-.351.935-.584.7-1.636.935-1.754 1.988 0 .117-.234.117-.467.117 0-.233-.117-.467 0-.585a7.762 7.762 0 0 1 1.052-1.636l.819-1.17 2.338-3.274v.468c0 .116.118.116.118.234.116-.234.35-.352.233-.468 0-.117-.233-.117-.351-.234a10.289 10.289 0 0 0 .7-1.17.878.878 0 0 0 .233-.468c0-.116 0-.467-.116-.467a.354.354 0 0 0-.468 0l-1.988 1.286a2.225 2.225 0 0 1-1.169.584 4.4 4.4 0 0 0-1.4.819 17.115 17.115 0 0 1-1.521 1.053 2.386 2.386 0 0 1-1.051.585 15.659 15.659 0 0 1-2.457 1.052 17.666 17.666 0 0 1-1.519.936 8.691 8.691 0 0 1-3.158 1.4c-.117 0-.35.233-.584.233a6.54 6.54 0 0 1-1.4.468 1.442 1.442 0 0 1-.935.468l-6.549.819c-.234.116-.584-.234-.935-.352a.874.874 0 0 0-.351-.35c-.233-.117-.818-.117-1.052-.351s-.234-.7-.351-1.169c-.351-.7-1.169-.7-1.754-.935a1.255 1.255 0 0 1-1.17-1.053.99.99 0 0 0-.351-.585c-.584-.234-.467-.468-.116-.7.234-.117.351-.117.116-.468-.35-.819-.234-1.169.469-1.872a.251.251 0 0 0 .234-.232c-.234-.7.584-1.171.467-1.872-.117-.351.117-.585.351-.819.233-.7.585-.584 1.052-.467.585.117 1.053 0 1.053-.351a2.309 2.309 0 0 0-.234-1.286c0-.234-.351-.234-.585-.117-.116.117-.116.467-.116.585 0 .35 0 .585-.585.585-.7 0-.7.467-.585 1.051-.234-.116-.7.118-.468-.584.234-.585.117-1.17.351-1.754a26.626 26.626 0 0 1 1.169-2.689c.118-.235.468-.351.7-.469.233.469.467.351.818 0v-.116a.7.7 0 0 0-.467.116h-.351c-.468-.468 0-.935.233-1.4.118-.467.352-1.052 1.053-.7 0 0 .234-.118.234-.234-.7-.7-.117-1.4.234-1.988a8.845 8.845 0 0 1 1.52-2.689c.117 0 .234-.351.351-.585a5.686 5.686 0 0 1 .468-1.287c.467-.234.467-.7.819-1.051.232-.7.467-1.521 1.051-1.754.585-.469.585-1.171.937-1.638l1.636-2.105c.234-.351.234-.585.468-.936.234 0 .351-.116.585-.35.116-.117.234-.117.234-.234-.234-.467.234-.7.35-.936.468-1.052 1.286-2.1 1.871-3.157a2.79 2.79 0 0 0 .351-1.053c0-.584.117-.935.585-1.169.7-.234.935-.819 1.169-1.4.234-.233.234-.7.585-1.052.116-.118.467-.35.585-.234a.663.663 0 0 0 .935-.468 2.3 2.3 0 0 1 2.222-1.169c.234-.117.7.35 1.052.584 0 .118-.117.234-.233.352-.234.116-.7-.234-.7.233a.626.626 0 0 0 .585.584c.234 0 .351.352.351.585-.117.936.468 1.521 1.17 2.106l.7.7v.468a4.957 4.957 0 0 0 .351 3.157 6.11 6.11 0 0 1-.234 2.923 12.041 12.041 0 0 1-2.455 4.211c-.469.467-.819 1.285-1.4 1.87a23.355 23.355 0 0 1-2.222 2.807 22.283 22.283 0 0 0-1.754 2.455 7.5 7.5 0 0 1-1.52 2.222.7.7 0 0 0-.117.468c-.351.935-.7 1.4-1.637 1.4-.468 0-.468.234-.234.468s-.116.819.468.819v.223c-.234.585-.117.7.468.7.35-.116.584-.35.935-.35.468-.117 1.053-.351 1.521-.468.116 0 .35 0 .35-.117.585-.7 1.4-.585 2.105-.819v.118a2.164 2.164 0 0 1 .234.818l.116-.117c0-.234-.116-.468-.116-.819h-.234c.234 0 .234-.116.468-.234q.351-.525.7 0c.352.234.585.234.819-.234 0-.116.117-.233.234 0 .234.468.7 0 1.053.234l.35-.35c.117-.234.351-.351.467-.585.7-.819.7-.819-.116-1.637.234 0 .468-.351.584-.233.469.233.819-.118 1.053-.468.117-.235.7-.235.7-.235.234.7.468.469.585 0 0-.467.234-.467.585-.35.35.234.234-.117.35-.234v.117c.234-.117.352-.234.352-.468 0-.468-.118-.468-.352-.468.585-.35 1.171-.585 1.638-.935a1.267 1.267 0 0 1 1.052-.468c.351 0 .819 0 .7-.585 0-.35.468-.35.7-.116.935.234 1.286.234 1.4-.7a1.173 1.173 0 0 1 .7-1.169l.234-.233v.467a.36.36 0 0 1-.117.234 4.15 4.15 0 0 0 1.169.234c.234-.117.7-.7.585-.935-.351-1.053.7-1.287 1.17-1.871a.579.579 0 0 1 .351.117c.467.233.584.233.584-.351 0-.233-.117-.7.467-.351 0 .118.118 0 .118-.117.234-.818.935-1.052 1.637-1.286.233-.117.585-.234.585-.585 0-.117.351-.234.351-.234.116.117.116.352.234.468v.585c.35-.117.7-.117.817-.351.468-.234.585-.7.937-.935v-.118a.908.908 0 0 0 .467.468 5 5 0 0 1 .117-.584c0-.468-.117-.7-.117-1.053 0-.116.117-.234.234-.351a.252.252 0 0 1 .234.235c.584.7.584.7 1.4.116.117-.234.467-.351.7-.585a3.817 3.817 0 0 0 .351-.7v.117a.5.5 0 0 0 .819-.234c.117-.351.117-.819.234-1.052l.35-.7c0-.117.234-.117.352-.234a.407.407 0 0 1-.118.234c-.234.584-.234.584.351.468a.866.866 0 0 0 .584-.118c.469-.7 1.053-1.285 1.521-1.87a26.9 26.9 0 0 1 2.455-2.69 33.263 33.263 0 0 1 2.924-2.806c.936-.935 1.4-2.106 2.456-2.807a18.993 18.993 0 0 0 1.999-2.23 14.727 14.727 0 0 0 2.572-2.8 2.27 2.27 0 0 1 1.871-.59.379.379 0 0 1 .234.585c-.351.233-.819.35 0 .35a1.217 1.217 0 0 1 1.169.819c0 .116.234.233.234.233a1.728 1.728 0 0 1 .936 1.754 1.269 1.269 0 0 0 .818 1.4c.351.118.351.468.351.819a17.441 17.441 0 0 1 .234 2.456c0 .117.116.234.234.351.234.116.234.35 0 .584a27.8 27.8 0 0 1-4.444 5.5c0 .118-.117.118-.117.234a8.417 8.417 0 0 1-2.572 2.807v.116c-.819 1.638-2.455 2.69-3.392 4.445a14.917 14.917 0 0 1-2.689 3.39 19.651 19.651 0 0 0-1.4 1.871l-4.795 6.549a.434.434 0 0 1-.116.351c-1.17.35-1.4 1.519-2.222 2.338a5.86 5.86 0 0 0-.936.819c-.468.584-1.052 1.052-1.52 1.754l-3.157 3.976c-.35.467-.935.935-1.287 1.4a4.191 4.191 0 0 0-.817 1.169 5.337 5.337 0 0 1-1.638 1.987c0 .118 0 .118-.117.118a36 36 0 0 1-3.625 5.379c-.7.818-1.052 1.871-1.871 2.689a7.921 7.921 0 0 0-1.637 2.69c-.234.35-.234.584-.7.584a.114.114 0 0 0-.116.118c0 .7-.351.935-1.053.467a.252.252 0 0 0-.234.234.7.7 0 0 0 .117.468c.351.467.235.935-.117 1.52-.351.468-.585 1.053-.935 1.52a37.854 37.854 0 0 1-1.988 3.742c-.351.468-.585 1.169-1.52.936-.234-.118-.7.585-.585 1.052a2.274 2.274 0 0 1 0 1.754 15.417 15.417 0 0 1-1.754 3.391c-.234.118-.234.351-.234.585-.116 0-.234.35-.35.35-.819 0-.585.468-.585 1.053l-.819 2.222c-.117.117-.117.117-.234.117a.41.41 0 0 1-.116-.235c-.118-.234.233-.7-.468-.234-.585.352-.585.469-.351.937l.351 1.051a.737.737 0 0 1-.351 1.053c-.585.234-.351.7-.351.7.467.936 0 1.871-.117 2.69a4.268 4.268 0 0 1-.351 1.753c-.468.7-.468 1.638-1.287 2.105-.467.351-.817.585-.935 1.169 0 .118-.234.234-.234.234-.467-.467-.818 0-1.169.118-.472.355-.94.355-1.174-.23zm-9-54.025l-.468-.234c0 .118-.117.118-.233.234a.881.881 0 0 0 .467.234c-.004.117-.004-.117.23-.234zm2.222-.116a.9.9 0 0 1-.118-.352c-.116 0-.234.118-.35.234l.116.118zm.819.585a1.724 1.724 0 0 0-.819-.118.116.116 0 0 0-.118.118c.118.233.468.467.585.7a3.911 3.911 0 0 0 .348-.701zm1.051 52.62c.118-.117.118-.233.234-.351.117 0 .117 0 .234.118-.117.233-.117.35-.234.467-.12-.117-.238-.117-.238-.234zm1.053-5.613c0-.116.117-.234.117-.35.117.116.117.234.234.234 0 .233-.117.233-.117.35-.004-.117-.121-.117-.238-.234zm.234 7.6c-.117-.117 0-.467 0-.7.117-.116.234-.116.234-.234a1.046 1.046 0 0 1 .7.936c-.116.351-.468.936-.7.936-.472-.001-.238-.469-.238-.937zm1.286-7.835c0-.116-.117-.116-.234-.116l-.117.116c.117 0 .117.118.234.234a.412.412 0 0 1 .113-.233zm.118-45.254a.363.363 0 0 0-.118-.234c0 .118-.117.118-.117.234s.117.117.117.234c.114-.116.114-.116.114-.233zm.935 45.254l-.118-.116c-.233 0-.35.116-.35.234v.233a1.611 1.611 0 0 0 .464-.35zm2.689-6.431v-.234c-.117.116-.351 0-.467.116-.118 0-.234.118-.352.235v-.585a.251.251 0 0 0-.234-.234 7.712 7.712 0 0 0-.233.819c.233 0 .467 0 .467-.117a.364.364 0 0 0 .234.117 1.055 1.055 0 0 0 .581-.116zm-.117-.935a.407.407 0 0 0-.234-.118l-.116.118c.116.116.116.116.116.233.113-.116.23-.116.23-.232zm1.52 3.508c.351-.234.585-.937 1.17-.351.468 0 .935-.819.7-1.17l-.585-.935c-.117-.351-.234-.351-.586 0-.116.234-.467.468-.233.935 0 .117-.584.351-.818.584a.886.886 0 0 0-.234.469c-.117.117 0 .468 0 .468zm.351-2.923c0-.235-.117-.352-.351-.7 0 .351-.116.585 0 .7 0 .116.117.232.234.35-.004-.117.23-.233.113-.349zM185.1 73.2c.117 0 0-.234 0-.234-.118 0-.118 0-.118.117-.116.117-.116.234-.234.351a.407.407 0 0 1 .118.233c.114-.232.234-.232.234-.467zm.351-38.354l-.234-.234a.883.883 0 0 0-.235.467.361.361 0 0 0 .118.234c.115-.233.231-.233.349-.466zm1.4 36.132c-.352-.234-.468-.351-.585-.351-.234 0-.351.351-.351.351 0 .117.117.468.351.468.118.001.234-.233.586-.467zm-.468-8.068c0-.469.116-.936.116-1.4v-.234l-.233.234c-.351.468-.117.935 0 1.52a.115.115 0 0 0 .117.118zm1.517 8.19h-.117l-.35.351c.116 0 .116 0 .35.117a.884.884 0 0 1 .117-.468zm2.1-38.94c-.234-.35-.117-.467.117-.7v-.117l.116.117a1.748 1.748 0 0 0-.116.7zm.351 37.537c0-.117.116-.234.234-.351a1.267 1.267 0 0 0 .467.234c-.467.117-.467.234-.585.234.009-.004-.225-.121-.107-.121zm.468-7.484l-.234-.234a.407.407 0 0 1-.118.234.428.428 0 0 0 .118.351 1.414 1.414 0 0 1 .243-.355zm2.1-5.145a1.014 1.014 0 0 0-.35-.7c-.118.118-.234.234-.118.234a3.012 3.012 0 0 0 .234.819c.13-.121.247-.24.247-.357zm-.117 7.6a.363.363 0 0 0-.233-.116l-.118.116a.408.408 0 0 0 .118.235c.131-.121.131-.239.246-.239zm.585-9.588c.117-.234.351-.35.468-.585a1.629 1.629 0 0 1 .35-.468c-.116-.116-.116-.234-.234-.234s-.116 0-.116.118c-.351.35-.585.584-.936 0l-.117-.118v.234c.117.351.117.7.234 1.053zm.117 6.665a.883.883 0 0 1-.117-.468c-.233 0-.351.118-.351.234.118.118.234.234.351.234zm.467-31.923l-.7-.351c.234-.117.468-.35.7-.468v.819zm1.638 27.713a.432.432 0 0 1-.351-.116v.234c0 .116.117.116.117.234a.913.913 0 0 0 .247-.356zM197.96 44.2c.118-.117.118-.234.118-.585-.234.234-.352.234-.352.351v.584c.118-.115.234-.115.234-.35zm1.053-2.105c-.116-.117-.234-.234-.351-.234a.408.408 0 0 1-.117.234.413.413 0 0 0 .117.235c.117-.117.238-.23.351-.23zm9.939-22.8c-.117-.117-.117-.117-.117-.351a.408.408 0 0 1 .234-.117c.235.117.468.234.468.351 0 .234-.233.468-.233.584v.118c-.118-.235-.235-.353-.352-.586zm1.755-1.287c0-.116.116-.116.233-.234a.431.431 0 0 1 .117.351l-.117.117c-.117-.118-.233-.118-.233-.235zm1.4-.818a.115.115 0 0 1 .118-.117c.116 0 .234.117.35.234l.117.117v-.117c-.117.117-.233.233-.351.233s-.232-.234-.232-.351zm19.881-15.436c-.116-.118-.233-.118-.35-.234a.412.412 0 0 1-.117.234 1.6 1.6 0 0 1 .351.467.89.89 0 0 0 .116-.467z"/></svg>