<?xml version="1.0" encoding="utf-8"?>
<!-- Generator: Adobe Illustrator 25.4.1, SVG Export Plug-In . SVG Version: 6.00 Build 0)  -->
<svg version="1.1" id="Layer_1" xmlns="http://www.w3.org/2000/svg" xmlns:xlink="http://www.w3.org/1999/xlink" x="0px" y="0px"
	 viewBox="0 0 4155.7 1444.1" style="enable-background:new 0 0 4155.7 1444.1;" xml:space="preserve">
<style type="text/css">
	.st0{fill:#C5843D;}
</style>
<g>
	<path class="st0" d="M66.8,33.2c6.7-11.5,14.4-20,23.1-25.2S109.4,0,122.4,0h7.9c18.3,0,30.8,4.9,37.5,14.8s6.7,23.2,0,40
		L126,160.1c-10.1,24-27.9,36.1-53.4,36.1H42.3c-19.2,0-32-5.2-38.2-15.5c-6.2-10.3-5.3-23.9,2.9-40.8L66.8,33.2z M226.9,33.2
		c6.7-11.5,14.4-20,23.1-25.2c8.7-5.3,19.5-7.9,32.5-7.9h7.9c18.3,0,30.8,4.9,37.5,14.8c6.7,9.9,6.7,23.2,0,40l-41.8,105.3
		c-10.1,24-27.9,36.1-53.4,36.1h-31c-18.8,0-31.3-5.2-37.5-15.5c-6.3-10.3-5.3-23.9,2.9-40.8L226.9,33.2z"/>
	<path class="st0" d="M3878.9,1275.8c6.7-11.5,14.4-20,23.1-25.2s19.5-7.9,32.5-7.9h7.9c18.3,0,30.8,4.9,37.5,14.8
		c6.7,9.9,6.7,23.2,0,40l-41.8,105.3c-10.1,24-27.9,36.1-53.4,36.1h-30.3c-19.2,0-32-5.2-38.2-15.5c-6.2-10.3-5.3-23.9,2.9-40.8
		L3878.9,1275.8z M4039,1275.8c6.7-11.5,14.4-20,23.1-25.2s19.5-7.9,32.5-7.9h7.9c18.3,0,30.8,4.9,37.5,14.8c6.7,9.9,6.7,23.2,0,40
		l-41.8,105.3c-10.1,24-27.9,36.1-53.4,36.1h-31c-18.8,0-31.3-5.2-37.5-15.5c-6.3-10.3-5.3-23.9,2.9-40.8L4039,1275.8z"/>
</g>
</svg>
