<svg xmlns="http://www.w3.org/2000/svg" viewBox="0 0 4155.7 1444.1" fill="#c5843d" xmlns:v="https://vecta.io/nano"><path d="M66.8 33.2c6.7-11.5 14.4-20 23.1-25.2s19.5-8 32.5-8h7.9c18.3 0 30.8 4.9 37.5 14.8s6.7 23.2 0 40L126 160.1c-10.1 24-27.9 36.1-53.4 36.1H42.3c-19.2 0-32-5.2-38.2-15.5s-5.3-23.9 2.9-40.8L66.8 33.2zm160.1 0c6.7-11.5 14.4-20 23.1-25.2 8.7-5.3 19.5-7.9 32.5-7.9h7.9c18.3 0 30.8 4.9 37.5 14.8s6.7 23.2 0 40l-41.8 105.3c-10.1 24-27.9 36.1-53.4 36.1h-31c-18.8 0-31.3-5.2-37.5-15.5-6.3-10.3-5.3-23.9 2.9-40.8l59.8-106.8zm3652 1242.6c6.7-11.5 14.4-20 23.1-25.2s19.5-7.9 32.5-7.9h7.9c18.3 0 30.8 4.9 37.5 14.8s6.7 23.2 0 40l-41.8 105.3c-10.1 24-27.9 36.1-53.4 36.1h-30.3c-19.2 0-32-5.2-38.2-15.5s-5.3-23.9 2.9-40.8l59.8-106.8zm160.1 0c6.7-11.5 14.4-20 23.1-25.2s19.5-7.9 32.5-7.9h7.9c18.3 0 30.8 4.9 37.5 14.8s6.7 23.2 0 40l-41.8 105.3c-10.1 24-27.9 36.1-53.4 36.1h-31c-18.8 0-31.3-5.2-37.5-15.5-6.3-10.3-5.3-23.9 2.9-40.8l59.8-106.8z"/></svg>