<?xml version="1.0" encoding="utf-8"?>
<!-- Generator: Adobe Illustrator 26.0.2, SVG Export Plug-In . SVG Version: 6.00 Build 0)  -->
<svg version="1.1" id="Layer_1" xmlns:v="https://vecta.io/nano"
	 xmlns="http://www.w3.org/2000/svg" xmlns:xlink="http://www.w3.org/1999/xlink" x="0px" y="0px" viewBox="0 0 512 261.1"
	 style="enable-background:new 0 0 512 261.1;" xml:space="preserve">
<style type="text/css">
	.st0{fill:#E6C07C;}
</style>
<polygon class="st0" points="261.5,1.4 231.1,48.1 177.2,62.6 212.3,105.9 209.4,161.6 261.5,141.6 313.5,161.6 310.6,105.9 
	345.7,62.6 291.8,48.1 "/>
<polygon class="st0" points="358.4,125.1 340.6,160.2 379.8,162.1 407.7,189.8 421.6,153.1 456.6,135.2 426,110.6 419.8,71.8 
	386.9,93.3 348.1,87.2 "/>
<polygon class="st0" points="496.2,194.2 500,168.7 475.2,175.6 452.1,164.1 451,189.8 432.9,208.2 457,217.3 468.9,240.2 485,220 
	510.4,215.8 "/>
<polygon class="st0" points="169.3,88.9 130.5,95 97.6,73.5 91.4,112.3 60.8,136.9 95.8,154.8 109.7,191.5 137.6,163.8 176.8,161.8 
	159.1,126.8 "/>
<polygon class="st0" points="7,217.4 32.4,221.7 48.5,241.9 60.4,219 84.6,209.9 66.5,191.5 65.3,165.8 42.2,177.3 17.4,170.4 
	21.2,195.9 "/>
</svg>
