<svg xmlns="http://www.w3.org/2000/svg" width="512" height="261.105" fill="#e6c07c" xmlns:v="https://vecta.io/nano"><path d="M101.876 149.5l-38.051 11.72-36.115-16.763-.61 39.809L0 213.435l37.671 12.885 19.369 34.785 23.894-31.846L120 221.587l-22.9-32.566zM256 0l-46.892 72.219L125.934 94.5l54.194 66.914-4.513 85.986L256 216.536l80.385 30.864-4.513-85.989L386.066 94.5l-83.174-22.281zm228.9 184.266l-.614-39.809-36.115 16.758-38.047-11.715 4.778 39.526L392 221.587l39.068 7.671 23.894 31.847 19.369-34.785L512 213.435z"/></svg>