<svg xmlns="http://www.w3.org/2000/svg" width="512" height="261.105" viewBox="0 0 512 261.105">
  <defs>
    <style>
      .a {
        fill: #e6c07c;
      }
    </style>
  </defs>
  <g>
    <path class="a" d="M101.876,149.5l-38.051,11.72L27.71,144.457,27.1,184.266,0,213.435,37.671,226.32,57.04,261.105l23.894-31.846L120,221.587,97.1,189.021Z"/>
    <path class="a" d="M256,0,209.108,72.219,125.934,94.5l54.194,66.914L175.615,247.4,256,216.536,336.385,247.4l-4.513-85.989L386.066,94.5,302.892,72.219Z"/>
    <path class="a" d="M484.9,184.266l-.614-39.809-36.115,16.758L410.124,149.5l4.778,39.526L392,221.587l39.068,7.671,23.894,31.847,19.369-34.785L512,213.435Z"/>
  </g>
</svg>
