<svg xmlns="http://www.w3.org/2000/svg" width="249.018" height="248.916" viewBox="0 0 249.018 248.916">
  <defs>
    <style>
      .a {
        fill: #7f7f7f;
      }

      .b {
        fill: #2c2c2c;
      }

      .c {
        fill: #404040;
      }

      .d {
        opacity: 0.5;
      }
    </style>
  </defs>
  <g>
    <g>
      <g>
        <path class="a" d="M245.01,108.257C226.083-21.248,45.085-34.6,7.327,90.663-2.809,125.253,3.367,164.144,24,193.7,96.094,298.44,261.979,234.194,245.01,108.257ZM229.8,155.6c-.2.882-.411,1.556-.634,2.379l.034-.072c-.041.135-.128.433-.165.567l.038-.085c-.206.571-.323,1.172-.5,1.753l.02-.026c-5.254,16.264-16.956,29.638-28.748,41.712l.131-.1c-1.535,1.391-3.061,2.839-4.6,4.225l.062-.04c-.262.221-.533.479-.805.728l.03-.012-.054.035.027-.006a106.611,106.611,0,0,1-21.7,15.217l.3-.143c-7.542,3.916-15.682,7.427-23.985,9.235h.045c-22.807,5.243-47.71,5.4-68.745-5.813l.134.083c-19.147-9.766-35.244-24.671-47.553-42.2-9.725-15.046-28.986-37.972,2.883-38.681a.358.358,0,0,0-.073-.011c1.413,0,2.661-.159,4.1-.155l-.042-.012c12.073-.419,24.1.769,36.164.293l-.109-.009c2.059-.019,4.125.044,6.186.049l-.035-.013q25.86.06,51.737.561l-.068-.015a1.027,1.027,0,0,0,.236.014l-.161-.015c7.621.337,15.213.919,22.857.794l-.122-.013c7.676-.276,15.324-.192,23-.477l-.056-.015c.482.038.992.008,1.477.017l-.028-.015c.994.043,1.768-.085,2.833-.066l-.076-.014a.835.835,0,0,0,.1.01l-.021-.014c5.02.014,9.994-.149,15.02-.123l-.1-.015c2.047.106,4.037.059,6.011-.006l-.182-.015C213.614,144.986,231.387,141.511,229.8,155.6Zm3.591-49.1c-1.6,6.83-10.286,5.823-15.68,5.441a50,50,0,0,1,1.266,10.967.031.031,0,0,0,.011-.03c.072,1.759-.116,3.545-.1,5.306l.011-.089c-.833,4.349,2.094,14.087-3.89,14.859a.062.062,0,0,0,.028.017c-40.361.886-81.333.87-121.9.428-12.868.019-25.77-.508-38.634-.488-8.909-.936-24.146,4.326-22.96-9.435v.155c-.923-6.761-.612-13.892-1.076-20.537-5.5-.112-12.1-1.207-14.934-6.515C16.593,87.969,28.591,71.479,39.91,57.255,60.779,30.1,94.43,14.15,128.719,16.023L128.553,16a160.573,160.573,0,0,1,41,9.09l-.092-.044c30.092,11.494,50.649,39.577,61.253,69.112l-.006-.056c.329.9.674,1.789.987,2.694v-.049C232.765,100.045,233.984,103.087,233.391,106.509Z"/>
        <path class="a" d="M217.675,117.372c-.534-3.436-.858-8.231-4.694-9.5a99.19,99.19,0,0,0-21.856-5.9c-27.371-3.563-55.039-6.117-82.679-4.757-21.9,1.307-44.018,3.347-64.993,10.084-4.754,1.628-11.945,2.448-10.48,9.146.561,6.047.114,12.252,1.058,18.3a.054.054,0,0,0,.005-.028c-.3,4.226,2.389,7.3,6.829,6.364h-.044c40.855-.088,81.774,1.079,122.644.828,16.764-.3,33.584-.048,50.317-.992,4.292.481,4.334-.892,4.147-4.965C218.046,129.812,218.759,123.45,217.675,117.372Z"/>
      </g>
      <g>
        <path class="b" d="M248.717,118.906C247.034,51.781,184.537-4.742,117.581.315h0C14.127,3.374-39.2,136.583,33.705,210.109,109.29,294.132,256.562,231.637,248.717,118.906ZM245,141.191C219.491,292.129,3.483,274.675,2.532,121.654a119.292,119.292,0,0,1,13.66-53.069C79.441-51.283,262.425,6.761,245,141.191Z"/>
        <path class="b" d="M128.715,16.005l-.09-.006.022,0h0Z"/>
        <path class="b" d="M56.648,43.621c-.059.052-.119.1-.177.156Q56.56,43.7,56.648,43.621Z"/>
        <path class="b" d="M233.508,104.387a26.644,26.644,0,0,0-1.833-7.621l.007.02-.007-.019v.021c-.311-.895-.64-1.78-.984-2.668v.022c-10.593-29.508-31.148-57.573-61.2-69.067l.039.015-.031-.01.029.014A159.615,159.615,0,0,0,128.647,16l.068.008h-.041l.041.007c-26.822-1.2-54.084,7.669-74.139,25.769C38.692,57.012,23.847,74.906,17.268,96.24c-4.673,13.472.929,15.55,12.981,17.083l.007-.031a197.081,197.081,0,0,0,.964,21.154.442.442,0,0,0,0-.088.307.307,0,0,0,0,.067v-.067c-1.282,13.112,12.785,8.713,21.235,9.5,12.014-.3,24.071.512,36.094.347,42.756.566,85.905.552,128.458-.341l-.014-.006c6.3-.084,3.084-15.454,4.018-20.051v.006a47.426,47.426,0,0,0-1.489-11.744C225.1,112.749,234.165,111.987,233.508,104.387Zm-15.369,24.618c-1.021,12.989,2.909,11.47-7.955,12.29-15.427.117-30.851.557-46.276.619-41.012.259-82.063-.916-123.059-.836h.021c-10,1.637-6.491-12.552-7.6-18.713.06-3.419-.553-6.783-.058-10.159,4.548-4.81,12.518-5.048,18.556-7.329,21.88-5.42,44.536-7.448,67.043-7.982,28.556.351,57.575,1.4,85.413,8.04a39.3,39.3,0,0,1,10.366,3.875C218.027,113.865,218.552,121.9,218.139,129.005Zm12.622-23.453c-.84,4.8-10.691,5.255-13.063,2.352l.026.076C187.43,92.616,149.182,95.91,115.655,94.1l.007-.017C90.438,95.42,64.8,97.162,40.729,105.357l.338-.116c-51.725,22.57.527-51.55,16.375-62.341,19.491-16.923,45.393-25.223,71.074-24.176l-.112-.008a159.411,159.411,0,0,1,33.517,6.669l-.1-.032c32.556,9.239,54.933,38.564,66.128,69.24v-.011c.073.2.147.407.223.611-.04-.112-.08-.222-.119-.333C229.273,98.31,230.888,101.822,230.761,105.552Z"/>
        <path class="b" d="M227.88,94.408c-.01-.03-.037-.105-.048-.134Z"/>
        <path class="b" d="M199.948,201.806c-.014.013-.052.047-.065.06Z"/>
        <path class="b" d="M172.964,221.9l0,0Z"/>
        <path class="b" d="M173.1,221.832l-.132.068C172.985,221.891,173.074,221.843,173.1,221.832Z"/>
        <path class="b" d="M229.844,152.572c-2.051-10.943-15.661-7.286-23.7-7.534-7.36.246-14.838.059-22.218.222l.008.006c-21.7.87-43.36.225-65.035-.644-27.635.429-55.347-.872-82.881-.278h0C5.746,145.465,21.31,164.679,31.175,180.2c12.558,18.741,29.313,34.761,49.5,45.046-.022-.014-.079-.046-.1-.06l.035.018-.034-.021c21.023,11.2,45.917,11.053,68.714,5.8h-.023c8.225-1.8,16.292-5.247,23.766-9.124l-.071.034a106.522,106.522,0,0,0,21.692-15.213l-.015.006a.352.352,0,0,0,.037-.027h-.01c.261-.242.525-.475.775-.7l-.026.021.015-.014-.018.011c1.524-1.373,3.015-2.788,4.534-4.167l-.06.052.029-.028-.032.025c11.779-12.069,23.5-25.434,28.734-41.7l-.007.014v-.008l-.006.007c.164-.564.291-1.144.473-1.7l-.014.041.006-.024-.01.023c.042-.151.119-.4.158-.55a.4.4,0,0,0-.02.058l.011-.036-.013.034V158l-.009.02C229.674,156.276,230.31,154.417,229.844,152.572ZM21.918,151.336c3.672-3.609,9.114-3.869,13.97-4.254H35.8c12.811-.816,25.558.532,38.37.172h-.084c35.256-.641,70.494,2.018,105.757.8,9.4-.259,18.743.01,28.123-.366,6.3.546,16.491-3.012,19.089,4.8-4.266-3.715-10.278-1.836-15.423-2.162-9.936-.165-19.877.087-29.8.52h.012c-34.31,1.521-68.745-.392-103.1-.746-19.055-.1-38.925-3.333-57.434,1.982A7.757,7.757,0,0,1,21.918,151.336Zm205,4.64c-.089.3-.175.606-.263.909.029-.095.056-.189.084-.283-.073.251-.137.5-.21.755.026-.085.052-.172.076-.257-.091.327-.176.653-.273.978l.022-.074c-.152.5-.286,1-.414,1.508.011-.033.02-.066.03-.1-.61,2.041-1.514,3.975-2.1,6.029l.1-.343c-6.3,13.038-15.72,24.446-25.9,34.682l.169-.158c-1.332,1.244-2.681,2.494-4.028,3.721a1.348,1.348,0,0,0,.1-.1q-.418.384-.833.771l.116-.109a105.21,105.21,0,0,1-22.116,15.664l.316-.167a94.856,94.856,0,0,1-25.444,9.419l.087-.02c-21.423,4.619-44.612,4.431-64.371-5.918l.329.172c-1.524-.726-2.913-1.689-4.417-2.452l.009.006-.051-.027.008,0c-22.815-12.485-40.484-33.045-52.972-55.58C8.8,143.364,51.49,152.1,63.4,150.715c20.908.784,41.8.8,62.723,1.679h-.027c25.38.49,50.687-.254,76.053-1l-.142-.015C207.8,152.774,226.942,147.6,226.918,155.976Z"/>
        <path class="b" d="M99.857,94.981c.119-.009.237-.017.356-.028Z"/>
        <path class="b" d="M143.857,120.7a18.579,18.579,0,0,0-34.366-10.2l.014-.019-.013.018.017-.014a18.34,18.34,0,0,0-1.273,14.345V124.8C113.179,144.65,144.1,142.393,143.857,120.7Zm-1.438,1.04c-.829,11.742-11.49,18.051-22.4,14.1.02.01.07.03.092.038l-.053-.02.05.024c-5.025-1.691-9.458-5.912-10.443-11.242,0,.009,0,.058,0,.069a16.171,16.171,0,0,1-.182-10.106l-.006.013c1.816-7.487,10.47-11.413,17.651-11.69l-.007,0A18.028,18.028,0,0,1,142.419,121.742Z"/>
        <path class="b" d="M121.365,107.443c5.009,10.736,3.855,10.405,8.746,0l-.016.034c.47-.565.2-1.827-.7-1.675a.648.648,0,0,1,.115.03,34.718,34.718,0,0,0-5.073.188C123.421,106.179,120.635,105.622,121.365,107.443Zm1.632.046c1.887-.015,3.756-.182,5.641-.314-.332.574-.6,1.186-.893,1.781l.019-.033c-.109.2-.206.445-.293.641.007-.01.038-.075.044-.088-.01.022-.022.045-.032.068l.036-.067c-.6,1.242-1.066,2.551-1.769,3.74-.7-1.405-1.428-2.8-2.133-4.2v.01a13.73,13.73,0,0,1-.651-1.534C122.976,107.492,123,107.5,123,107.489Z"/>
        <path class="b" d="M129.118,132.923l.024.046-.02-.047.031.068a7.313,7.313,0,0,0-.672-1.572v.007a.585.585,0,0,0-.041-.088l.031.059-.027-.061.027.059c-.388-1.118-.881-2.193-1.327-3.291v.012c-.384-.853-.574-3.087-1.939-2.505h0c-1.234,1.419-1.515,3.573-2.563,5.183-.98,1.775-2.184,4.325,1.077,3.6C125.1,134.081,129.463,135.062,129.118,132.923Zm-1.718-.149c-1.386.118-2.776.211-4.166.2.706-1.709,1.711-3.32,2.319-5.072.619,1.641,1.226,3.29,2,4.863A1.149,1.149,0,0,0,127.4,132.774Z"/>
        <path class="b" d="M128.474,131.4l.007.015-.01-.024Z"/>
        <path class="b" d="M141.3,120.754a6.9,6.9,0,0,0-.735-2.917v.015c-.014-.023-.025-.048-.037-.072v.017c-.171-.84-1.206-2.272-1.987-1.165v0a13.27,13.27,0,0,0-.651,1.47v-.019c-1.741,3.832-3.377,7.727-5.416,11.423-3.711,4.416,1.448,4.715,4.144,2.186l-.016.009C139.462,128.86,141.6,124.89,141.3,120.754Zm-1.417.9c0,.062-.01.131-.009.2l.006-.028c-.3,3.757-2.856,9.617-7.066,9.949a120.891,120.891,0,0,0,6.471-13.281,6.9,6.9,0,0,1,.59,3.147l.014-.089Z"/>
        <path class="b" d="M120.016,132.074a22.566,22.566,0,0,0-1.488-3.579v.032c-1.452-3.278-3-6.518-4.278-9.865v.036c-2.276-7.838-5.042-.973-4.107,3.34C109.566,125.8,117.643,137.215,120.016,132.074Zm-1.93-.42c-5.208-2.072-7.8-9.46-6.11-14.566.269.66.6,1.385.88,2.03a.412.412,0,0,0-.028-.091c1.654,4.308,3.755,8.508,5.577,12.742C118.3,131.729,118.2,131.691,118.086,131.654Z"/>
        <path class="b" d="M131.288,123.68c.922-3.423,8.652-11.809,4.714-13.664l.007.01c-3.626-4.717-4.663,2.345-6.632,4.85-1.284,1.708-1.405,4.791-3.959,4.468-.463.019-1.378.284-1.635.021a32.63,32.63,0,0,0-2.575-6.225l.023.039-.02-.04.03.056c-.377-.844-.754-1.653-1.209-2.459v.012c-1.607-3.889-3.354-1.772-5.3.525-.8,1.894,2.179,4.448,2.455,6.7a.642.642,0,0,0-.015-.063l.007.024v-.026c.662,1.966,1.551,3.849,2.212,5.8a.233.233,0,0,1-.011-.074c1.315,3.866,3.147-1.29,4.2-2.682,1.177-.074,2.35-.281,3.518-.3C128.017,122.8,129.441,128.38,131.288,123.68Zm-8.884-3.569c-.52.991-1.284,1.83-1.749,2.857-.12-.323-.232-.652-.351-.975v.017c-.35-2.772-5.722-10.253-3.1-11.3l-.032.026C118.439,108.5,122.391,118.934,122.4,120.111Zm8.728.715a19.026,19.026,0,0,1-1.331,2.538c-.466-1.005-.9-2.007-1.3-3.045v.024c.77-3.6,3.766-6.917,5.184-10.466.648.956,2.808,1.564,1.908,2.838C134.218,115.472,132.433,118.042,131.132,120.826Z"/>
      </g>
      <g>
        <path class="c" d="M227.008,152.157c-1.621-4.88-7.322-4.858-11.628-4.621a1.518,1.518,0,0,0,.191.008c-3.628.084-7.479.207-11.131.337.048,0,.166.01.213.008-6.927.1-13.882.039-20.824.146l.048.008c-11.48.24-22.943.6-34.437.527l.1.007c-5.258-.055-10.375-.581-15.65-.729l.029.007c-17.436-.3-34.885-.529-52.309-.558l.147.007c-2.58-.053-5.147-.078-7.727,0,.014,0,.181.009.195.008-12.873.389-25.629-.993-38.429-.22a1.761,1.761,0,0,0,.192.008c-5.114.4-11.228.639-14.673,4.994,18.6-5.4,38.671-1.877,57.8-1.917,34.227.426,68.531,2.244,102.712.753H181.8c9.931-.431,19.863-.686,29.809-.519,5.161.319,11.2-1.563,15.465,2.19C227.061,152.456,227.038,152.311,227.008,152.157Z"/>
        <path class="c" d="M128.49,131.438c-.011-.035-.031-.066-.045-.1Z"/>
        <path class="c" d="M121.235,113.207c-.01-.019-.021-.037-.03-.057Z"/>
        <path class="c" d="M108.707,119.117c-.159,1.922.563,3.746.951,5.6l-.009-.119c.951,5.352,5.409,9.6,10.446,11.3l-.1-.049c24.813,8.244,31.186-28.388,7.241-32.9l.024-.018c-7.227.211-15.965,4.169-17.79,11.7l.012-.023A21.846,21.846,0,0,0,108.707,119.117ZM128.9,133.881c-1.584.622-3.475.39-5.174.509-2.746.624-2.437-1.226-1.361-3.025,1.354-2.225,3.108-9.642,4.784-3.244v-.029c.632,1.647,1.393,3.247,2,4.9l-.031-.07A.73.73,0,0,1,128.9,133.881Zm8.783-15.37c.07-.147.15-.291.216-.441a.177.177,0,0,0-.008.031c.327-1.979,2.152-2.526,2.647-.31l-.01-.036a.524.524,0,0,0,.042.09v-.023c2.182,4.8-.482,10.407-3.973,13.856l.028-.016c-4.226,3.013-7.521,1.96-3.625-3.17C134.763,125.255,136.191,121.866,137.684,118.511Zm-16.435-11.786c.882-1.2,2.864-.465,4.189-.754h0a22.871,22.871,0,0,1,4.071-.144,1.143,1.143,0,0,0-.115-.03c2.527.438-1.179,4.568-1.375,6.083-1.185,2.605-2.189,5.878-3.866,1.358C123.188,111.1,121.67,109.017,121.249,106.725Zm-6.634,4.621c2.057-2.175,3.729-4.612,5.414-.586l-.007-.027a92.6,92.6,0,0,1,3.942,8.758c3.282-.044,3.391-.422,4.719-3.352,2.263-2.506,3.369-11.3,7.323-6.121l-.013-.02c3.649,2.369-2.077,7.4-3.022,10.372-2.8,6.073-3.355,7.226-5.95.315-1.145,0-2.291.23-3.442.29-1.055,1.393-2.908,6.543-4.22,2.689a.372.372,0,0,0,.014.074c-.661-1.954-1.551-3.837-2.212-5.8a.574.574,0,0,0,.021.1C116.841,115.739,114.172,113.37,114.615,111.346Zm-4.539,7.465c.728-5.111,2.78-4.867,4.169-.115l-.007-.036c1.279,3.347,2.829,6.588,4.277,9.866l-.007-.038c.366,1.393,2.794,4.146.768,4.968l.01.008C112.807,132.363,109.538,124.819,110.076,118.811Z"/>
      </g>
    </g>
    <g class="d">
      <g>
        <path class="c" d="M155.253,132.655c-.061-7.9-.62-41.253-1.459-20.755C153.748,116.424,154.346,146.844,155.253,132.655Z"/>
        <path class="c" d="M158.75,134.786c-.081-6.943-.295-13.885-.231-20.834v.176c.414-11.553-1.808-12.708-1.045-.441v-.176C157.405,117.1,157.337,143.565,158.75,134.786Z"/>
        <path class="c" d="M162.8,130.136c-.049-19.318-2.222-36.271-1.308-6.95C161.367,128.5,162.608,145.888,162.8,130.136Z"/>
        <path class="c" d="M166.771,130.034c-1.5-7.1,1.421-22.951-1.911-25.814C165.1,110.237,165.786,149.956,166.771,130.034Z"/>
        <path class="c" d="M166.732,132.917v0Z"/>
        <path class="c" d="M170.635,130.442c-.211-5.586-.748-34.98-1.572-21.3C168.875,115.012,169.783,149.029,170.635,130.442Z"/>
        <path class="c" d="M174.4,132.931c-1.053-8.912,1.581-21.762-1.269-28.76C173.044,108.781,172.97,145.114,174.4,132.931Z"/>
        <path class="c" d="M177.856,131.163c-.139-6.691-.333-37.079-1.322-19.7C176.2,116.7,177.005,148.152,177.856,131.163Z"/>
        <path class="c" d="M181.8,133.144q-.288-8.387-.267-16.77c-.587-26.592-1.568,10.49-.741,20.481C182.267,139,181.824,134.066,181.8,133.144Z"/>
      </g>
      <g>
        <path class="c" d="M186.364,132.7c-.078-6.569-.5-37.815-1.459-20.756C184.86,116.462,185.455,146.9,186.364,132.7Z"/>
        <path class="c" d="M189.862,134.825c-.1-6.94-.293-13.882-.232-20.828v.176c.481-9.142-1.73-10.286-1.044-.441v-.176C188.514,117.145,188.456,143.641,189.862,134.825Z"/>
        <path class="c" d="M193.909,130.175c-.315-4.89-.466-31.348-1.641-19.877C191.992,116,193.537,148.975,193.909,130.175Z"/>
        <path class="c" d="M197.883,130.073c.026-13.039-2.017-34.507-1.4-9.076.446,5.3-.262,11.371.715,16.286C198.766,135.824,197.418,132.239,197.883,130.073Z"/>
        <path class="c" d="M197.843,132.955v0Z"/>
        <path class="c" d="M201.746,130.481c-1.442-7.109,1.471-17.6-1.658-23.053C200.088,113.15,200.79,149.733,201.746,130.481Z"/>
        <path class="c" d="M205.517,132.97c-1.079-7.627,1.756-18.438-1.373-24.529C204.31,112.512,204.124,145.361,205.517,132.97Z"/>
        <path class="c" d="M208.968,131.2c-1.137-6.727,1.4-16.4-1.279-21.675C207.245,114.866,208.079,148.444,208.968,131.2Z"/>
        <path class="c" d="M212.917,133.183c-1.167-6.959,1.489-16.617-1.306-22.237C211.366,115.136,211.758,145.982,212.917,133.183Z"/>
      </g>
    </g>
    <g class="d">
      <g>
        <path class="c" d="M101.99,132.655c.058-7.905.616-41.254,1.456-20.755C103.492,116.425,102.891,146.842,101.99,132.655Z"/>
        <path class="c" d="M98.492,134.786c.081-6.943.294-13.885.232-20.834v.176c-.417-11.553,1.807-12.708,1.044-.441v-.176C99.838,117.1,99.9,143.565,98.492,134.786Z"/>
        <path class="c" d="M94.445,130.136c.186-13.815,1.554-39.826,1.586-11.29C95.9,124.34,94.751,147.082,94.445,130.136Z"/>
        <path class="c" d="M90.471,130.034c1.5-7.1-1.422-22.948,1.908-25.814C92.137,110.22,91.45,149.988,90.471,130.034Z"/>
        <path class="c" d="M86.607,130.442c.211-5.586.748-34.981,1.571-21.3C88.366,115.011,87.462,149.029,86.607,130.442Z"/>
        <path class="c" d="M82.839,132.931c1.052-8.912-1.581-21.761,1.269-28.76C84.193,108.777,84.281,145.116,82.839,132.931Z"/>
        <path class="c" d="M79.386,131.163c.141-6.692.33-37.079,1.322-19.7C81.054,116.7,80.22,148.149,79.386,131.163Z"/>
        <path class="c" d="M75.442,133.144q.288-8.387.267-16.77c.585-26.591,1.565,10.49.738,20.481C74.972,139,75.417,134.066,75.442,133.144Z"/>
      </g>
      <g>
        <path class="c" d="M70.878,132.7c.313-5.492.013-35.279,1.5-22.912C72.421,114.289,71.813,147.428,70.878,132.7Z"/>
        <path class="c" d="M67.381,134.825c.091-6.942.307-13.887.241-20.835v.176c-.48-9.142,1.729-10.286,1.044-.441v-.176C68.729,117.137,68.815,143.618,67.381,134.825Z"/>
        <path class="c" d="M63.333,130.175c.314-4.889.465-31.348,1.644-19.877C65.25,116,63.716,148.98,63.333,130.175Z"/>
        <path class="c" d="M59.36,130.073c-.028-13.04,2.016-34.508,1.4-9.076-.45,5.3.263,11.372-.717,16.286C58.469,135.827,59.814,132.233,59.36,130.073Z"/>
        <path class="c" d="M59.4,132.955v0Z"/>
        <path class="c" d="M55.5,130.481c1.442-7.109-1.468-17.6,1.652-23.053C57.152,113.154,56.435,149.725,55.5,130.481Z"/>
        <path class="c" d="M51.728,132.97c1.081-7.627-1.76-18.441,1.374-24.529C52.935,112.512,53.12,145.362,51.728,132.97Z"/>
        <path class="c" d="M48.275,131.2c1.134-6.727-1.4-16.4,1.278-21.675C49.985,114.84,49.18,148.5,48.275,131.2Z"/>
        <path class="c" d="M44.331,133.183c1.166-6.959-1.492-16.619,1.306-22.237C45.874,115.113,45.479,146.047,44.331,133.183Z"/>
      </g>
    </g>
     <animateTransform attributeName="transform" type="rotate" from="0 125 125" to="360 125 125" dur="4s" repeatCount="indefinite"></animateTransform>
  </g>


</svg>
