<svg xmlns="http://www.w3.org/2000/svg" viewBox="0 0 198 199.7" fill="#eddcc4" xmlns:v="https://vecta.io/nano"><path d="M196.2 101.4c-.1.9 1.6.6 1.9.7-.5-1.5-2.4-.6-1.9-.7zm-4.4-14.3l-2-1.8 1.3 1.7.7.1zm-3-5.7l2.5.6c-.6-1.5-1.3-3-2.1-4.4-.7-1.2-1.2-2.5-1.2-3.9-1.2 1-.8 2.2 0 3.4.9 1.1 1.4 2.4 1.4 3.9l-.6.4zm2.9-15.1c0-.1.1-.3.1-.4-.2-.5-.4-.9-.5-1.4-.8.8-1.5-1.2.4 1.8zm-.9-7.2c-1.4-1.7-1.8-1-2.3.5l1.7 1.4c.5-.6-.1-2.3.6-1.9zm-5-.2c.3.2.6.5.8.7.2-.3.2-.6-.8-.7z"/><path d="M187.3 60.4c-.9.2.1.2 1 .8l-1.7-1.6c-.3.5-1.1.9.7.8zm-.5 3.4c.9 1.6 1.7 2.2 2.2 1.8s.4-1.5-.5-3.1c-.2 1.3 0 2.7-1.7 1.3zm-1.9 10.1l-.4 1.6 1.3.9c-.3-.2-.3-.9-.3-1.5s-.1-1.2-.6-1zm-1.1-26c-.6.2-1 1.4-1.6 2l1.4.9c0-.9-.5-2.3.2-2.9z"/><path d="M182.2 49.9l-2.1-1.3c1 1.7 1.6 1.7 2.1 1.3zm.2 9.5l.3.6 3.5 2.2c-1.2-1-2.5-1.9-3.8-2.8zM180.9 41l-3.1-.5 1.2.3c.7 0 1.3.1 1.9.2zm-5.6-4.5c1.5 0 .7-2.3 1.9-2-1.3-.9-2.7-1.5-4.3-1.7 1.3.8 2.2 2.1 2.4 3.7zm-4.8-4.2c.8.3 1.5.4 2.3.5-.7-.3-1.5-.5-2.3-.5zm8.2 10.6l-.9 1.7.5.7c.5-.6.7-1.5.4-2.4z"/><path d="M177.8 44.7h0l-1-1.6 1 1.6zm.6.8l-.1-.2c-.1.2-.1.3.1.2zm3.1 8.8c-1.5-.6-3.6-2.3-3.7.6 1.5.2 1.5-1.5 3.7-.6zm-1.9-5.3l-2.3-1.4.9 2.1c.3-.2.7-1 1.4-.7z"/><path d="M176.2 47l1.1.6-.4-.8-.7.2zM172 36.3c-.6-.1-1.1-.4-1.6-.7s-.9-.7-1.4-1.1c.7 1.2 1.4 2.3 2.3 3.3.6-.2 1.7-.4.7-1.5zm2.8 4.1c-.1 0-.1-.1-.2-.1 0 .2 0 .3.2.1zm-14.5-14.2c0 .1 0 .2-.1.4l.2-.2-.1-.2z"/><path d="M171.3 38.2c.3.8 1.1 1.2 1.9 1.2l-1.8-1.6c-.3.1-.4.2-.1.4zm-3.8-7.8c.1.6.3 1.3.6 1.9.1-.8-.1-2.1-.6-1.9zm7.3 9.4c.1 0 .1 0 .2.1 0-.6-.1-.4-.2-.1z"/><path d="M174.8 39.8c-.5-.2-1.1-.3-1.6-.4.4.4.9.7 1.5.9 0-.2 0-.4.1-.5zm-11.4-10.3l.8.5c-.6-1.2-.9-2.5-1-3.8-1.7-.4-2.3-.2-2.8.1l3.3 3.2h-.3z"/><path d="M167.3 32.9c-1.7.7-3.8-.3-4.2 2 2 1.8 2.3.3 4 .9-3.3-2.8 1.6.2.1-2.7a14.29 14.29 0 0 1 2 1.4c-.4-.7-.7-1.5-1-2.2v.2h0 0c0 .3-.1.4-.1.2h-.1c-.3.1-.5.2-.7.2-.6-1.2.2-.5.6-.3.1 0 .2-.1.2-.1-1.2-.9-2.6-1.6-3.9-2.4.9 1 1.9 2 3.1 2.8zm6.2 22.1c0-.1.1-.3.3-.3-.3-.1-.5-.1-.3.3zm2.2-5.7l.2-.3c0-.1-.1.1-.2.3z"/><path d="M173.5 53c.4.1 1.1 0 1.5.9 0 1-.7.4-1.2.8.7.2 2.1 1.1 1.9-.9l-.4-.1a10.34 10.34 0 0 1 .3-4.3c-.8 1-1.6 2.3-2.1 3.6zm-5.8-9.7l.6-.6c1 1.7 1.6.7 2.3.5-.9-.8-1.9-1.4-2.9-2.1v2.2zm-5.6-19.1l-3.3.7 1.8.4 1.5-1.1zm-4.4-2.9h-1.6l.5 1.2 1.1-1.2zM44.8 17.7c-2.1-.4-5-1.4-3.8 0l1.4 1.2c.6-.7 1.5-1.1 2.4-1.2zm66.3-13.4c-1-.7-2.1-1.2-3.3-1.5 1.6 1.2 2.7 2.9 3.3 1.5z"/><path d="M11 149.5c.6.4 1.1.5 1.4.3-.6-.4-1.1-.6-1.4-.3zM107.9 2.8c-1.1-1.1-2.8-1.2-4-.3.2.2.5.3.7.5 1.1-.3 2.2-.3 3.3-.2zm85.2 112.3c0 .6 0 1.2-.1 1.8.2-.6.3-1.2.1-1.8zm-52.4-94.5c.2-.3.4-.5.7-.6-.2.1-.5.4-.7.6zm-.3-8.6l.9 1.1c-.2-.4-.5-.8-.9-1.1zm1.1.2c.3.2.5.4.7.6.3-.2.3-.4-.7-.6z"/><path d="M140.3 11.7c-.3-.1-.7-.2-1.4-.5.5.2 1 .5 1.4.9 0-.3-.1-.4 0-.4zM193 116.9c-.5.8-1.7-.3-2.7-.3l3.3-5.2c-1.3-.6-1.2-2.1-1.1-3.5s.1-2.8-1.2-3.1l.4 1.8c-1.5-1.2-3.2-.5-5 .4l-.6.3.1-5.1c0-24.6-10.1-48.1-28.1-65h.2l.6-.7c-.8-.7-1.8-.8-1.6-.1-.7-.6-1.4-1.3-2.1-1.9 2.2.1 4.6-4.5 5-7.9-.5.5-.9.9-3.2.3.1 1.1 2.4 4.7.1 4.6-1.3-.6-1.7-1.1-1.8-1.6 0-.6 0-1.2-.2-1.9-.2 1.2-1.3 1.2-2.6 1.2-1 0-2 .3-2.7.9-4.4-3.3-9.2-6.1-14.2-8.5.2-.2.3-.5.2-.7l-1.5-.4c-.6-2.2 3.7-1 2.2-2.5 1.3-.2 2.6-.2 4-.2.7.1 1.4.2 2 .5.7.3 1.3.8 1.8 1.3l-.7 2.4c.3-.7-1-2.3-2.1-2 .8-.2 1.4 1.1 2.1 2.2.3.5.7.9 1.2 1.2.6.3 1.3.1 1.8-.3l-.9-2.6c1.3 0 2.8-.1 4.3 0 1.5 0 2.9.6 3.9 1.7.4-2.8-.7-.1-.7-3.7-.3 2-1.8.9-3.2 0-1.3-.9-2.5-1.6-2.5.1 0-1.1-.5-2.2-1.3-3-1-.9-1.7-2.1-2.1-3.4-.3.8.1 1.8-1.8.4-.2.2-.5.3-.8.4l-.1-.1c0 .1 0 .1.1.1-.1.1-.2.1 0 .1.3.5.5 1.1.5 1.7-1.1.5-2.3.5-3.5.2-1.1-.3-2.1-.4-3.2-.3-1.1-.9.9-.6.6-1.7l-2.3.6c.6-1.7-2.4-4.2 1.2-3.9L132 8.5c-1.3-1.6-3.2-2.5-5.3-2.5-1.3-.8-4 .9-2.5-.1-.8 0-1.6-.1-2.4-.1h-2.4l.1-.5c-2.4-.4-4.8-.6-7.2-.4-2.7.2-5.3-.6-7.5-2.1-.8.2-1.7.4-2.5.4-1.1.1-2.2.1-3.3-.2l-.5-1.6c-1.3.1-2.7 0-3.9-.3-1.4-.2-2.7-.3-3.1.6-.6-1-1.6-1.6-2.7-1.7h-2c-.7.1-1.3.1-2 .3-1.3.3-2.7.6-3.9 1a9.6 9.6 0 0 1-3.3.6l.3 2c-1.2.2-2.4.5-3.6 1.1-.6.3-1.2.5-1.8.9s-1.3.7-2 1.1l.7 1.7c-1.3 1-2.9 1.4-4.6 1.3-.9.1-1.9.1-3 .2-1 .1-2 .4-2.9.8 0-.7 1-1 1.9-.8-1.3-.5-2.7-.4-4 .2-1.2.6-2.2 1.4-3.1 2.4-.9.9-1.8 1.8-2.9 2.6-1 .7-2.2 1.1-3.4 1-.4.9-1.4 1.4-2.3 1.3.1-.1.2-.1.2-.2-.1.1-.3.1-.4.2-.6 0-1.2-.1-1.8 0 .5.1 1.1.2 1.6.1-1 .7-1.8 1.5-2.5 2.4L42.4 19l-.2.2c-1.5.1-.3 1.3 1 2.2-.4.6-.6 1.2-.7 1.9-1.3-1-1.8-.3-2.4.4s-1.1 1.3-2.7.4c.2.9-.9 2.1-1.8 3.5-.8 1.1-1.1 2.5-.9 3.8-1.3.6-2.5 1.2-2.7 2.8l-2.1-1.4.1 2.2.2 2.2c-2.3.2-3.5.2-3.6-2.4l-.6 2.8c-.1.5-.3 1-.5 1.5-.5 1.2-.7 2.5-.7 3.8l-1.1-1.2c-.8 1.1-.4 4-1.9 3.9-1.3.3-2.4 1.1-3.3 2.1-.6.7-1.2 1.4-1.7 2.1-.6.8-1.1 1.6-1.7 2.5-2.1 3.9-4.6 7.5-7.4 10.9 2.5.3 1.6.9.6 1.6s-2.3 1.9-.7 2.7c-1.2 0-2.2.8-2.6-.7-.3 1.6-.8 3.2-1.7 4.6-.8 1.3-.7 2.9.2 4.2-1.2.1-1.3-1.3-2.1-1.1.1.3.6 1.5-.2 1.7s-.7-.8-1-1.6c-.2.8-.2 1.7 0 2.6.2.7.7 1.3 1.2 1.8 1.3.9 2.7 1.6 4.2 2-1 .8-1.5 1.5-1.5 2.2.1.9.6 1.7 1.4 2.3-1.2.5-2.5 1.5-2.4-1l-.6 1.8c-.1.4-.3.9-.4 1.4a4.44 4.44 0 0 0-.2 1.3c-.3 2-.2 3.8 1.1 4-.7.4-.3 1.9-.1 2.3-.2 1.5-.4 2.4-.4 3.2-.1 1.1-.1 2.1 0 3.2l.4-.8c3.1 1.2.7 2.5 1.1 4.9l-.3-.1c-.4.9-.6 1.9-.7 2.8 0 .4.1.8.3 1.2a1.39 1.39 0 0 1 .2 1.1c0 .4-.1.7-.2 1.1-.1.5-.3 1-.5 1.8l1.9-.5c2.1 0 1.6 1.2.9 2.9-.7 1.6-1.6 3.7-.5 5.2L6 120c.8.7-.3 2.1-1.6 3.7s-2.9 3.3-2.9 4.2c-.2.5-.7-.5-1.1-.9-1.1 5.3 2.6 0 4.2 3.2-1.1 1-3.6.2-3.1 2.6-.3.7 1.3 2.1 2.8 3.7.8.7 1.5 1.6 2.1 2.5.2.4.4.9.5 1.4s.1 1 0 1.5c.7-1.1 1.4-2.1 2.8-1 .7 1 .4 3 .6 4.8s.7 3.4 2.7 3.5c0 .3-.2.6-.5.8.9.6 1.9 1.8 3.1 2.8.9.9 2.1 1.6 3.5 1.7-1 .9-1.2 2.3-.5 3.5.8 1.1 1.8 2.1 3 2.7 1.1.6 2 1.4 2.9 2.3.6.7.6 1.6-.6 2.6l2.1 2.1 2.1 2-.6.3c.8 1.2 2 2.1 3.3 2.5 1 .2 2 .3 3 .1.4.9-.5.9-.8 1.1 1 1.7 2.3 3 3.9 4.1 1.8.7 3.6 1 5.5.8l-.8 1.9c.4-.1.9.4 1.5 1s1.4 1.6 2.2 2.5c.4.5.9 1 1.4 1.4a6.57 6.57 0 0 0 1.7 1.2c1.2.8 2.6 1.3 4 1.4-.2.3-.6.5-.9.5 3.2.4 5.9 3.2 8.6 5.1s5.3 2.9 7.5-.2c1.4-.1 2.9-.4 4.3-.6-2.3-1-1.9-1.7-1.1-2.4s1.9-1.4 1.1-2.2c1 .2 2 .8 2.5 1.7.5.8.5 1.6-.7 1.5l-.3-.5c-1.9 3.5 5.7 2.8 5.1 5.2 5 .9 9.8 1.9 14.7 2.6l3.7.5 3.7.3c1.2.1 2.4.1 3.7.1 1.2 0 2.4 0 3.6-.2-.5-.9-.9-1.9-1.4-2.8 1.1 0 2.2-.1 3.3-.2.9.6 1.5 2.1-.9 2.3.7.8 1.7.3 2.4-.5.6-.6 1.1-1.3 1.3-2.1 2.4.2 2.1 1.1 1.4 2s-1.9 1.7-1.2 1.6l1.9-.6-.5-.3c.7-.7 1-1.4 1.5-2 .3-.3.6-.5.9-.7.5-.3 1.1-.4 1.6-.5 1.9.2 1.3 1.6 2 1.5 0 .2.3.2 1.1-.2l4.2-.9c-.8-.6-1.5-1.2-2.3-1.8 1.5-1.6 3.8-1 1.2-3 1.9 1.6 5.7.7 9.2-.7 1.7-.7 3.4-1.6 4.7-2.2.9-.5 1.8-.9 2.9-1 .4-.6.8-1.2 1.3-1.7a6.73 6.73 0 0 1 1.5-1.4c1.2-.8 2.4-1.6 3.7-2.2-.9-.1-1.5-.9-1.4-1.8.1-.6.5-1.2 1.1-1.4 1.1 2.5 2.4 2.4 4 1.8a6.85 6.85 0 0 1 5.4-.8c-1.6-.4-.1-1.8 1.1-3.1s2.1-2.8-.2-3.2c2-1.1 1.4 1.5 3.6 1.3.7-1.3 1.6-2.4 2.7-3.4.5-.5 1.1-1 1.7-1.5s1.2-1 1.9-1.5 1.3-1 1.9-1.5l1.9-1.6c1.3-1.1 2.4-2.4 3.3-3.8-.5-.5-2-.3-2-2.1 1.7-.2 3.3-.5 5-.7.2-.7-.4-1.5-.7-2.2s-.2-1.4 1.4-1.7c-.7 0-1.7-.1-1.4-1 1.2-1.1 2.4-2.4 3.3-3.7.5-.7 1-1.4 1.4-2.1s.8-1.4 1.2-2.2.7-1.5 1.1-2.2l.9-2.3.9-2.3.8-2.4c.6-1.6 1-3.2 1.6-4.8s1.1-3.2 1.7-4.7c1.3-3.3 2.9-6.4 4.9-9.3-2 1.7-2 .5-1.8-.9zm-39.9-84.8c.5.1.9.4 1.2.8a3.79 3.79 0 0 1 .6 1.3c-.9-.7-1.8-1.5-2.7-2.2.4 0 .6.1.9.1h0zm-1.3-.6c0 .1-.1.1 0 0l-.2-.1.2.1zM129.3 8.9s-.1 0-.1.1c-1.4-1.3-.9-.8.1-.1h0zm-20.4 3.3c.8-.7 1.7-1.3 2.6-1.7 1-.5 2.1-.8 3.3-1 1.8-.1 2.1.6 2 1.1s-.6 1.1-.2 1c1.2.5 2.5.5 3.8.2.9-.3 1.8-.6 2.6-1.1.7-.5 1.5-.8 2.4-.8 1.1.1 2.2.6 2.9 1.4 1.4 2.8-1.3 4.1-1.4 5.8-1.2-.1-2.3-.6-3.1-1.4-.7-.7-1.5-1.3-2.4-1.6l1.9 1.6c-1.2.5-2.7.4-3.7-.4.2.3.4.6.7.8-4.1-1.1-8.4-1.9-12.6-2.4.4-.6.8-1.1 1.2-1.5h0zm-15.5-1c0 .6.2 1.2.5 1.7-.9 0-1.8.1-2.7.1.5-.7 1.3-1.3 2.2-1.8h0zm-19.2-.9c.2.1 1.7.5 3.2 1.1 1.4.5 2.7 1.2 3.9 2.1.2.2.4.5.5.8l-3.2.6-.7-3 .3 3.1c-1.2.2-2.2.4-3.2.7-.6-1.8-.9-3.6-.8-5.4h0zm-15.4 6.4a28.48 28.48 0 0 1 2.3-2.6c-.2 1.7-.7 4.3-1.2 7-1.5.7-3 1.4-4.4 2.2-.1-2.6.6-5.2 2.1-7.4l1.2.8zm-24 14.7c.1.2.2.5.3.7-.3-.3-.7-.3-.3-.7h0zm-2 8.8c-.5.5-1 1.1-1.6 1.7-.4-1.4-.7-2.7-1-4.1.8.9 1.7 1.7 2.6 2.4h0zM6.9 82c.5-.4 1.3.2 2.2 1-.2-.3-.3-.6-.5-.8.4-.4.9-.5 1.5-.4-.1.6-.3 1.2-.4 1.8l-.6-.6c.2.3.3.7.5 1-.1.3-.1.5-.2.8-.7.3-1.3.7-2 1.1-.1-1.2-.3-2.5-.5-3.9h0zm113.4 114.4l-.8-.4c1.4-.9 1.1-.3.8.4h0zM149.9 16c.1 0 .2.1.2.1 0-.1-.1-.1-.2-.1z"/><path d="M149.4 16.9c.2-.4.2-1 .6-.9l-2-.6c.6.2 1.1.8 1.4 1.5zm1.2 6.3c-.7-.3-1.4-.5-2.2-.5-.8 1.5.7 1.7 2 2.3-.1 0-.2-.1-.2-.1.9-.9.8-1.4.4-1.7zm.1 1.9c.4.2.8.4 1.1.8.8-.7-.3-.5-1.1-.8zm-14-13.6c.5.7 1.3-1.7 1.4-.9.8-.8-.6-.7-1.7-.4-.5.2-1 .4-1 .7s.2.4 1.3.6zm9.7 16.3l.7-2-1.6.9.9 1.1zm-8.9-6.9l1.8 1.5c.1-.3.5-.4.9-.3-1.3-.7-2.4-1.7-2.7-1.2zm4.4 1.8c-.5-.3-1.1-.5-1.8-.6.6.4 1.2.6 1.8.6zm-28.7-8.8c.7-.4 1.6-.5 1.4-1.2l-2.5.1c-.5.7.1 1.2 1.1 1.1zm82.9 93.9c.4-.7.6-1.3.9-2l-1.4 1.3a3.04 3.04 0 0 0 .5.7zm-2.7-5.7c.1.4.3 1.3-.3 1.7l2.6-.4-2.3-1.3z"/></svg>