<?xml version="1.0" encoding="utf-8"?>
<!-- Generator: Adobe Illustrator 25.4.1, SVG Export Plug-In . SVG Version: 6.00 Build 0)  -->
<svg version="1.1" id="Layer_1" xmlns="http://www.w3.org/2000/svg" xmlns:xlink="http://www.w3.org/1999/xlink" x="0px" y="0px"
	 viewBox="50% 50% 100% 100%">
<style type="text/css">
	.st0{fill:#EDDCC4;}
</style>
<g>
	<path class="st0" d="M523.8,15.2L523.8,15.2L523.8,15.2L523.8,15.2L523.8,15.2z"/>
	<path class="st0" d="M246.4,4.7L246.4,4.7L246.4,4.7L246.4,4.7z"/>
	<g>
		<path class="st0" d="M483.7,191.1c-0.4,0-0.8,0-1.2,0c-0.2,0-0.5,0-0.7,0c-0.6,0-1.1,0.1-1.6,0.2l-0.1,0c-0.4,0-0.9,0.1-1.4,0.2
			c-0.4,0.1-0.7,0.1-1,0.2l-0.3,0.1l-0.5,0.1l-0.2,0c-0.1,0-0.3,0-0.4,0.1c-0.1,0-0.3,0.1-0.4,0.1l-0.2,0l-0.2,0
			c-0.4,0-0.9,0.1-1.4,0.1c-0.6,0.1-1.1,0.1-1.6,0.2c-0.6,0.1-1.2,0.1-1.9,0.2c-0.5,0.1-1,0.1-1.5,0.2c-0.7,0.1-1.4,0.2-2,0.3
			c-0.4,0.1-0.7,0.1-1,0.1l-0.2,0c-0.4,0-0.7,0.1-1,0.1c-0.4,0.1-0.9,0.2-1.3,0.3c-0.3,0.1-0.5,0.1-0.8,0.2c-0.1,0-0.2,0.1-0.4,0.2
			l-0.2,0.1c-0.2,0-0.3,0.1-0.3,0.2c0,0,0,0,0,0l0,0c0,0,0,0.1,0.1,0.1c0,0,0.1,0,0.1,0.1l0,0c0.1,0.1,0.4,0.2,0.7,0.3
			c0.4,0.1,0.9,0.1,1.3,0.1c0.3,0,0.6,0,0.8,0h0.2l0.8,0c0.2,0,0.3,0,0.5,0c0.4,0,0.8,0,1.3,0c0.5,0,0.9-0.1,1.4-0.1
			c0.5,0,0.9-0.1,1.3-0.2c0.4-0.1,0.8-0.2,1.1-0.3l0.5-0.1l0.5-0.1c0.5-0.1,1.1-0.2,1.5-0.3c0.6-0.1,1.4-0.3,2-0.4l0.8-0.1
			c0.7-0.1,1.3-0.3,2-0.4l0.4-0.1l0.5-0.1l0.5-0.1l0.5-0.1c0.5-0.1,1-0.1,1.4-0.2l0.1,0l0.3,0l0.2,0l0.5-0.1l0.2,0
			c0.6-0.1,1.1-0.2,1.6-0.2c0.2,0,0.5-0.1,0.7-0.2c0.5-0.2,0.4-0.4-0.3-0.5C484.8,191.2,484.3,191.1,483.7,191.1z"/>
		<path class="st0" d="M523.8,15.2L523.8,15.2L523.8,15.2L523.8,15.2L523.8,15.2z"/>
		<path class="st0" d="M246.4,4.7L246.4,4.7L246.4,4.7L246.4,4.7z"/>
		<path class="st0" d="M523.8,41.1L523.8,41.1L523.8,41.1L523.8,41.1L523.8,41.1L523.8,41.1L523.8,41.1c0.1-0.4,0.1-0.7,0.1-1
			c0-0.2-0.1-0.4-0.2-0.6c-0.1-0.2-0.3-0.4-0.4-0.5c-0.2-0.2-0.4-0.4-0.6-0.6c0-0.1,0-0.1,0-0.2c-0.1-0.3-0.4-0.6-0.7-0.9
			c-0.3-0.3-0.6-0.5-0.9-0.8l-0.1-0.1l-0.1-0.1l0-0.1l0-0.1c0-0.1-0.1-0.1-0.2-0.1c-0.1-0.1-0.2-0.2-0.3-0.3
			c-0.1-0.1-0.1-0.2-0.2-0.3c0-0.1,0-0.2,0-0.3c0,0,0,0,0-0.1l0.2-0.2c0.1-0.1,0.3-0.3,0.4-0.4c0.1-0.1,0.1-0.1,0.1-0.2
			c0-0.1,0.1-0.1,0.1-0.2c0.1-0.1,0.2-0.2,0.3-0.4v0c0,0,0.1-0.1,0.1-0.1c0.1-0.1,0.1-0.2,0.2-0.3c0.1-0.2,0.1-0.3,0-0.5
			c0-0.1-0.1-0.2-0.1-0.2c-0.1-0.1-0.1-0.2-0.2-0.2c-0.1-0.1-0.2-0.2-0.4-0.3c-0.1,0-0.1-0.1-0.2-0.1l-0.4-0.3l-0.6-0.5
			c-0.2-0.2-0.4-0.3-0.5-0.4c-0.1-0.1-0.3-0.3-0.5-0.5c-0.1-0.1-0.2-0.2-0.3-0.4c-0.1-0.1-0.1-0.2-0.1-0.3c0-0.1-0.1-0.2-0.1-0.3
			l0-0.1c0-0.2-0.1-0.4-0.1-0.6v0c0-0.1,0-0.2,0-0.2c0-0.1,0-0.2,0-0.3c0-0.1,0.1-0.3,0.2-0.4c0.1-0.1,0.1-0.2,0.2-0.4
			c0.1-0.1,0.2-0.3,0.2-0.4c0-0.1,0.1-0.3,0-0.4c0-0.3-0.2-0.6-0.4-0.9c-0.1-0.2-0.2-0.3-0.4-0.5c-0.1-0.1-0.3-0.3-0.5-0.4l-0.1-0.1
			c-0.1-0.1-0.3-0.2-0.4-0.3c-0.3-0.2-0.7-0.5-0.9-0.7l-0.4-0.3c-0.2-0.2-0.3-0.3-0.5-0.5c-0.3-0.2-0.6-0.5-1-0.8
			c-0.4-0.3-0.8-0.5-1.1-0.8l-0.3-0.2c-0.2-0.1-0.3-0.2-0.5-0.3c-0.3-0.2-0.6-0.3-0.9-0.5l-0.2-0.1c-0.3-0.2-0.7-0.3-1-0.5
			c-0.4-0.2-0.8-0.4-1.1-0.6c-0.1-0.1-0.2-0.1-0.3-0.2c-0.1-0.1-0.2-0.2-0.4-0.3l-0.1-0.1l-0.8-0.7c-0.2-0.2-0.5-0.4-0.7-0.6
			c-0.3-0.2-0.7-0.4-1-0.7c-0.3-0.1-0.5-0.3-0.8-0.4c-0.1-0.1-0.3-0.1-0.4-0.2l-0.2-0.1c-0.3-0.1-0.6-0.3-0.9-0.4
			c-0.4-0.1-0.8-0.3-1.3-0.4l-0.1,0c-0.2,0-0.4-0.1-0.6-0.1l-0.2,0c-0.3-0.1-0.6-0.1-0.9-0.2c-0.3-0.1-0.7-0.1-1-0.2
			c-0.2,0-0.4-0.1-0.6-0.1l-0.7-0.1l-0.7-0.1c-0.2,0-0.4-0.1-0.6-0.1c-0.2,0-0.5-0.1-0.7-0.1c-0.5-0.1-0.9-0.2-1.4-0.2l-0.4-0.1
			c-0.3-0.1-0.6-0.1-0.9-0.2c-0.2,0-0.3-0.1-0.5-0.1l-0.3,0c-0.2,0-0.4-0.1-0.6-0.1l-0.2,0c-0.4-0.1-1-0.2-1.6-0.2
			c-0.4,0-0.9-0.1-1.3-0.1c-0.6-0.1-1.2-0.1-1.8-0.2c-0.3-0.1-0.6-0.1-0.8-0.2c-0.2-0.1-0.5-0.2-0.6-0.3c-0.1-0.1-0.2-0.1-0.3-0.2
			c-0.1-0.1-0.2-0.1-0.2-0.2c-0.2-0.2-0.5-0.3-0.8-0.4c-0.3-0.1-0.7-0.3-1.1-0.4c-0.2-0.1-0.3-0.1-0.5-0.1c-0.2-0.1-0.4-0.1-0.6-0.1
			c-0.3-0.1-0.7-0.1-1-0.1c-0.4,0-0.8,0-1.1-0.1l-0.4,0c-0.2,0-0.5,0-0.7,0c-0.4,0-0.8,0-1.2-0.1l-0.6,0c-0.3,0-0.6,0-0.8-0.1
			c-0.3,0-0.7-0.1-1-0.1c-0.3,0-0.7,0-1.1-0.1c-0.3,0-0.6,0-0.9-0.1l-1.3-0.1c-0.3,0-0.5,0-0.8,0c-0.2,0-0.4,0-0.6,0
			c-0.5,0-1-0.1-1.5-0.1c-0.3,0-0.6,0-0.9,0c-0.2,0-0.3,0-0.5,0c-0.7-0.1-1.3-0.1-1.9-0.3c-0.3-0.1-0.7-0.2-1-0.3
			c-0.2-0.1-0.3-0.1-0.5-0.2c-0.6-0.3-1.3-0.5-2-0.7c-0.5-0.1-1.1-0.2-1.6-0.3c-0.5-0.1-1.1-0.2-1.7-0.2l-0.2,0
			c-0.5-0.1-1-0.1-1.5-0.1l-0.5,0c-0.4,0-0.9-0.1-1.3-0.1c-0.3,0-0.5-0.1-0.7-0.1l-0.8-0.1l-0.8-0.1c-0.7-0.1-1.4-0.1-2.2-0.2
			c-0.5,0-1-0.1-1.5-0.1l-0.2,0c-0.4,0-0.8-0.1-1.3-0.1c-0.9-0.1-1.9-0.2-2.9-0.4l-0.2,0c-0.4-0.1-0.7-0.1-1.1-0.2
			c-0.5-0.1-1.1-0.1-1.6-0.1c-0.2,0-0.4,0-0.6,0c-0.1,0-0.3,0-0.4,0h-0.3c-0.4,0-0.8,0-1.2,0.1c-0.2,0-0.4,0-0.6,0s-0.4,0-0.6,0
			h-0.1c-0.3,0-0.6,0-0.9,0C437,6,436.7,6,436.5,6c-0.3,0-0.5-0.1-0.8-0.1c-0.3-0.1-0.6-0.1-0.8-0.2c-0.2-0.1-0.4-0.2-0.7-0.3
			c-0.2-0.1-0.4-0.2-0.6-0.2c-0.2-0.1-0.5-0.1-0.7-0.1c-0.3,0-0.6-0.1-0.9-0.1c-0.1,0-0.3,0-0.4,0c-0.1,0-0.2,0-0.2,0
			c-0.2,0-0.5,0.1-0.6,0.2c-0.1,0.1-0.3,0.1-0.4,0.2c-0.1,0.1-0.2,0.1-0.4,0.2c-0.1,0-0.1,0-0.2,0c-0.1,0-0.1,0-0.2,0h-0.1
			c-0.1,0-0.1,0-0.2,0c-0.1,0-0.3,0-0.4-0.1c-0.2,0-0.4-0.1-0.5-0.1c-0.2,0-0.4-0.1-0.5-0.2L427.7,5c-0.2-0.1-0.3-0.1-0.5-0.2
			c-0.3-0.1-0.7-0.2-1-0.2c-0.3,0-0.6-0.1-1-0.1c0,0-0.1,0-0.1,0h-0.4c-0.1,0-0.1,0-0.2,0H424c-0.1,0-0.2,0-0.3,0
			c-0.3,0-0.7,0-1,0.1c-0.2,0-0.3,0.1-0.5,0.1c-0.1,0-0.2,0-0.3,0.1c-0.3,0-0.7,0.1-1,0.1c-0.2,0-0.5,0-0.7,0h-0.8
			c-0.5,0-0.9,0-1.4-0.1c-0.2,0-0.5,0-0.7-0.1c-0.2,0-0.5,0-0.7-0.1c-0.4,0-0.8-0.1-1.3-0.1h-0.1h-0.1c-0.5,0-0.9-0.1-1.4-0.1
			c-0.4,0-0.8,0-1.2,0h-0.9c-0.4,0-0.8,0-1.3,0c-0.5,0-1,0-1.4,0.1l-0.2,0c-0.8,0-1.5,0-2.3,0.1h-0.3l-1.7,0l-0.9,0
			c-0.3,0-0.7,0-1,0c-1.1,0-2.3,0-3.4,0l-1,0h-0.3c-0.3,0-0.7,0-1,0c-0.3,0-0.6,0-0.9,0l-0.5,0c-1.1,0-2.2-0.1-3.4-0.2
			c-0.5,0-0.9-0.1-1.3-0.1h-0.1c-0.5,0-1-0.1-1.4-0.1c-0.6,0-1.2,0-2,0h-0.5c-0.7,0-1.4,0-2.4,0.1c-0.9,0-1.8,0.1-2.7,0.2l-0.5,0
			l-0.1,0l-0.1,0c-0.2,0-0.3,0-0.5,0.1c-0.2,0-0.4,0.1-0.6,0.1c-0.2,0-0.3,0.1-0.5,0.1c-0.4,0.1-0.9,0.1-1.3,0.1
			c-0.4,0-0.8,0.1-1.2,0.1c-0.3,0-0.7,0.1-1.1,0.2c-0.2,0-0.4,0.1-0.5,0.1c-0.3,0.1-0.6,0.1-0.9,0.2c-0.4,0.1-0.8,0.1-1.2,0.1
			l-0.3,0c-0.5,0-0.9,0.1-1.4,0.1h0c-0.5,0-1,0-1.5,0.1h-0.3c-0.4,0-0.8,0-1.2,0l-0.5,0l-0.5,0l-0.6,0c-0.2,0-0.3,0-0.5,0l-0.4,0
			l-0.7,0l-0.5,0l-0.6,0c-0.5,0-1.2,0-1.9,0h-0.5h-0.5h-0.9c-0.6,0-1.1,0-1.7,0.1c-0.5,0-0.9,0.1-1.4,0.1h-0.1l-0.3,0l-0.3,0
			c-0.3,0-0.6,0-1,0.1c-0.4,0-0.9,0.1-1.3,0.2c-0.2,0-0.3,0-0.5,0.1c-0.6,0.1-1.1,0.1-1.7,0.2c-0.1,0-0.3,0-0.4,0
			c-0.1,0-0.3,0-0.4,0c-0.3,0-0.6,0.1-0.9,0.1c-0.6,0-1.1,0.1-1.7,0.1c-0.5,0-1,0.1-1.5,0.1l-0.4,0l-0.4,0c-0.2,0-0.3,0-0.5,0
			l-0.3,0l-0.1,0l-1.2,0.1c-0.4,0-0.8,0-1.1,0c-0.2,0-0.4,0-0.6,0l-0.4,0c-0.2,0-0.4,0-0.6,0h-0.3c-0.3,0-0.6,0-0.9,0l-0.4,0
			c-0.2,0-0.3,0-0.5,0c-0.3,0-0.6,0-0.9,0c-0.7,0-1.3,0-2,0c-0.3,0-0.7,0-1,0l-0.2,0c-0.3,0-0.5,0-0.7,0c-0.7,0.1-1.5,0.1-2.2,0.2
			c-0.7,0.1-1.3,0.2-2,0.2c-0.6,0-1.4,0.1-2.1,0.1c-0.5,0-1,0-1.6,0.1c-0.2,0-0.5,0-0.7,0s-0.5,0-0.8,0h-0.1c-0.8,0-1.7,0-2.6,0H322
			h-0.5c-0.4,0-0.7,0-1.1,0h-0.4c-0.4,0-0.8,0-1.2,0c-0.5,0-1,0-1.5,0s-1,0-1.5,0l-1.6,0c-0.2,0-0.4,0-0.6,0c-0.3,0-0.6,0-0.8,0
			c-1,0-2.1,0-3.1,0.1c-0.9,0-1.8,0.1-2.7,0.2l-0.4,0l-0.3,0c-0.5,0-1,0.1-1.6,0.1c-0.4,0-0.8,0.1-1.2,0.1L302.8,8
			c-0.4,0-0.8,0.1-1.2,0.1c-0.3,0-0.6,0-0.9,0.1c-0.7,0.1-1.2,0.1-1.7,0.1h0.1c-0.4,0-0.7,0-1.1,0.1c-0.3,0-0.6,0-1,0.1h-0.1l0,0
			l-0.6,0l-0.6,0c-0.9,0-1.7,0.1-2.6,0.2l-1.4,0.1l-0.9,0c-0.4,0-0.7,0-1,0c-0.2,0-0.4,0-0.7,0c-0.3,0-0.5,0-0.8,0
			c-0.4,0-0.9,0-1.3,0.1l-0.2,0c-0.2,0-0.4,0-0.7,0c-0.2,0-0.4,0-0.6,0c-0.5,0-0.9,0-1.3,0h-0.1c-0.1,0-0.3,0-0.4,0l-0.2,0L283,9
			l-0.2,0c-0.2,0-0.5,0-0.8,0c-0.2,0-0.5,0-0.7,0c-0.5,0-1,0-1.5,0h-0.1c-0.3,0-0.6,0-0.9,0l-0.5,0h-0.3c-0.3,0-0.5,0-0.8,0h-0.4
			h-0.2c-0.3,0-0.7,0-1,0c-0.4,0-0.9,0-1.3,0l-0.4,0l0,0c-0.3,0-0.6,0.1-0.7,0.2l-0.4,0l-0.4,0c-0.7,0-1.5,0-2.2,0h-0.2l-1.1,0
			l-1.1,0c-0.6,0-1.2,0-1.7,0h-2.9c-0.7,0-1.4,0-2.2,0c-0.5,0-0.9-0.1-1.3-0.2c-0.4-0.1-0.8-0.2-1.1-0.3c-0.4-0.1-0.8-0.2-1.1-0.3
			c-0.3-0.1-0.7-0.2-1.1-0.3c-0.2,0-0.4-0.1-0.7-0.1c-0.3-0.1-0.5-0.1-0.8-0.2c-0.7-0.1-1.4-0.3-2.2-0.4c-0.8-0.1-1.7-0.2-2.4-0.3
			c-0.2,0-0.4,0-0.6-0.1l-0.4,0c-0.3,0-0.7-0.1-1-0.1l-0.1,0c-0.6-0.1-1.1-0.1-1.7-0.3c-0.1,0-0.2-0.1-0.3-0.1l0.1,0l-0.1,0l0,0
			c0,0-0.1,0-0.1,0l0,0l0,0l0,0l0,0c0.1-0.1,0.2-0.3,0.3-0.4c0.1-0.1,0.1-0.2,0.2-0.3c0.1-0.2,0.1-0.3-0.1-0.5
			c-0.1-0.1-0.3-0.3-0.5-0.4c-0.2-0.1-0.5-0.2-0.8-0.3c-0.3-0.1-0.6-0.1-0.9-0.2c-0.1,0-0.3,0-0.4-0.1c-0.3-0.1-0.6-0.1-1.1-0.2
			c-0.3,0-0.6,0-0.9,0L242,4c-0.1,0-0.2,0-0.3,0c-0.1,0-0.3,0-0.5,0H241l-1.6,0c-0.9,0-1.9,0-2.8,0.1c-0.6,0-1.3,0-2,0.1
			c-0.4,0-0.7,0-1.1,0.1c-0.4,0-0.9,0.1-1.3,0.1c-0.4,0-0.8,0-1.2,0s-0.7,0-1,0c-0.6,0-1.2,0.1-1.8,0.1c-0.3,0-0.6,0.1-1,0.1
			c-0.2,0-0.4,0.1-0.7,0.1s-0.4,0.1-0.6,0.1c-0.3,0-0.6,0.1-1,0.1c-0.2,0-0.5,0.1-0.7,0.1c-0.3,0-0.6,0.1-1,0.1l-0.5,0.1
			c-0.4,0-0.8,0.1-1.2,0.1l-0.5,0c-0.5,0-1,0.1-1.5,0.1c-0.6,0-1.2,0-1.9,0.1c-0.3,0-0.6,0.1-0.9,0.2c-0.3,0.1-0.4,0.3-0.5,0.4
			c0,0.2,0,0.3,0.2,0.5c0.1,0.1,0.1,0.2,0.2,0.2v0l0,0c0,0,0,0,0,0.1c0,0-0.1,0-0.1,0.1c-0.1,0-0.3,0.1-0.4,0.1l-0.2,0
			c-0.3,0.1-0.5,0.1-0.8,0.1c-0.4,0.1-0.8,0.1-1.2,0.1c-0.3,0-0.5,0-0.8,0h-0.2c-0.2,0-0.3,0-0.5,0h-0.3c-0.8,0-1.5,0-2.2,0
			c-0.6,0-1.3,0-2-0.1l-0.2,0c-0.3,0-0.6,0-0.8,0c-0.3,0-0.7,0-1,0h-0.3c-1.7,0-3.2,0-4.6,0.1c-0.4,0-0.7,0-1.1,0
			c-0.3,0-0.6,0-0.9,0c-0.2,0-0.5,0-0.7,0c-0.1,0-0.2,0-0.3,0c-0.5,0-0.9,0-1.2-0.1h0c-0.5,0-1-0.1-1.6-0.2l-0.6-0.1
			c-0.3,0-0.7-0.1-1-0.1C193.1,7,192.6,7,192.1,7l-0.3,0c-0.6,0-1.1-0.1-1.7-0.1c-0.4,0-0.8-0.1-1.1-0.1l-0.3,0
			c-0.3,0-0.5-0.1-0.8-0.1c-0.3,0-0.5,0-0.8,0h-0.2c-0.4,0-0.7,0-1.1,0.1l-0.2,0c-0.2,0-0.4,0.1-0.7,0.1l-0.4,0
			c-0.3,0-0.6,0.1-0.9,0.1l-0.3,0c-0.8,0.1-1.6,0.1-2.4,0.2c-0.3,0-0.5,0-0.8,0s-0.6,0-0.9,0c-0.5,0-1.1,0.1-1.8,0.1
			c-0.2,0-0.5,0-0.7,0.1l-0.8,0.1c-0.2,0-0.5,0.1-0.7,0.1c-0.3,0-0.7,0.1-1,0.1c-0.5,0.1-1.1,0.1-1.6,0.2c-0.6,0.1-1.1,0.2-1.6,0.4
			c-0.3,0.1-0.5,0.1-0.8,0.2c-0.2,0.1-0.4,0.1-0.6,0.2c-0.5,0.1-1,0.2-1.5,0.3c-0.4,0.1-0.8,0.1-1.2,0.2l-0.2,0l-0.3,0
			c-0.3,0.1-0.7,0.1-1,0.2c-0.8,0.1-1.6,0.2-2.4,0.2l-0.2,0c-0.5,0-1,0-1.6,0.1H161c-0.7,0-1.3,0-2,0.1c-0.2,0-0.5,0-0.7,0
			c-0.4,0-0.9,0-1.3,0h-0.2c-0.5,0-1,0-1.5-0.1c-0.3,0-0.6,0-0.9-0.1l-0.3,0c-0.4,0-0.8,0-1.3-0.1H152c-0.7,0-1.5,0-2.2,0
			c-1.1,0-2.3,0-3.4,0c-1.1,0-2.2,0-3.3-0.1c-0.3,0-0.6,0-0.9-0.1c-0.2,0-0.3,0-0.5,0s-0.4,0-0.6-0.1c-0.6,0-1.2-0.1-1.9-0.1
			c-0.2,0-0.4,0-0.6,0c-2.2,0-4.1,0.1-5.8,0.2h-0.1c-0.4,0-0.8,0-1.1,0c-0.1,0-0.2,0-0.3,0c-0.3,0-0.6,0-1,0h-0.2
			c-0.7,0-1.3,0-2-0.1l-0.7,0c-0.3,0-0.5,0-0.8,0c-0.1,0-0.2,0-0.3,0c-0.4,0-0.9,0-1.3,0.1c-0.6,0-1.2,0.1-1.8,0.1l-0.7,0
			c-0.7,0-1.4,0.1-2.1,0.1c-0.3,0-0.5,0-0.8,0s-0.6,0-0.9,0c-0.2,0-0.4,0-0.6,0c-1.4,0-2.8,0-4.2,0s-2.7,0-4.1,0
			c-1.3,0-2.6,0-3.9-0.1c-0.7-0.1-1.3-0.1-2-0.2c-0.3,0-0.5-0.1-0.8-0.1l-0.2,0l-0.3,0c-0.3,0-0.5-0.1-0.8-0.1
			c-0.8-0.1-1.6-0.1-2.5-0.1c-0.8,0-1.5,0-2.3-0.1c-0.6,0-1.2-0.1-1.7-0.2c-0.4-0.1-0.9-0.2-1.3-0.2l-0.3-0.1
			c-0.7-0.1-1.4-0.3-2.1-0.3c-0.4,0-0.7,0-1.1,0h-0.2c-0.5,0-1,0-1.4,0c-0.6,0-1.1-0.1-1.7-0.2L87,7.8c-0.3-0.1-0.7-0.1-1-0.2
			c-0.6-0.1-1.1-0.2-1.7-0.2c-0.1,0-0.3,0-0.4,0c-0.2,0-0.4,0-0.5-0.1c-0.2,0-0.4-0.1-0.6-0.1l-0.1,0C82,7.1,81.5,7,80.9,7
			c-0.2,0-0.3,0-0.5,0c-0.1,0-0.2,0-0.3,0l-0.2,0c-0.2,0-0.4,0-0.6,0c-0.5,0-0.9,0-1.4,0h-0.6c-1.1,0-2.2,0-3.2-0.1
			c-0.4,0-0.7-0.1-1.1-0.1l-0.1,0c-0.2,0-0.3,0-0.5-0.1c-0.2,0-0.3,0-0.5,0h-0.1c-0.3,0-0.7-0.1-1-0.1c-0.2,0-0.4-0.1-0.5-0.1
			c-0.2,0-0.5-0.1-0.7-0.1c0,0-0.1,0-0.1,0l0,0C69.3,6.1,69.2,6,69.1,6c-0.2-0.1-0.4-0.1-0.7-0.1c-0.3,0-0.7-0.1-1-0.1l-0.2,0
			c-0.4,0-0.9-0.1-1.3-0.1c-0.3,0-0.6,0-0.9,0h-0.2c-0.2,0-0.5,0-0.7,0c-0.4,0-0.8-0.1-1.2-0.2c-0.5-0.1-1-0.2-1.6-0.3
			c-0.3,0-0.5,0-0.8,0c-0.4,0-0.8,0-1.2,0h-0.1c-0.4,0-0.7,0-1.1,0.1c-0.3,0-0.6,0.1-0.9,0.1c-0.4,0.1-0.7,0.1-1.1,0.2
			c-0.5,0.1-0.9,0.1-1.3,0.1c-0.8,0-1.6,0-2.4,0.1c-0.6,0-1.2,0-1.8,0c-0.5,0-1.1,0-1.6,0.1l-0.2,0c-0.3,0-0.5,0-0.8,0
			c-0.3,0-0.6,0-0.8,0c-0.4,0-0.9,0.1-1.3,0.1c-0.4,0.1-0.8,0.2-1.2,0.3l-0.3,0.1c-0.2,0.1-0.4,0.1-0.6,0.2
			c-0.3,0.1-0.5,0.1-0.8,0.2c-0.1,0-0.3,0.1-0.4,0.1c-0.1,0-0.3,0-0.4,0.1c-0.1,0-0.2,0-0.2,0c-0.2,0-0.4,0.1-0.5,0.1
			c-0.1,0-0.3,0-0.4,0.1c-0.1,0-0.2,0-0.3,0c-0.5,0.1-1,0.2-1.5,0.4c-0.2,0.1-0.3,0.1-0.5,0.2c-0.3,0.1-0.6,0.2-0.9,0.3l0,0l0,0l0,0
			c-0.3,0.1-0.6,0.2-0.9,0.4c0,0-0.1,0-0.1,0c-0.1,0-0.2,0.1-0.3,0.1l-0.1,0l-0.1,0l-0.2,0.1l-0.3,0.1c-0.3,0.1-0.6,0.2-0.9,0.3
			s-0.7,0.2-1,0.3c-0.5,0.2-0.9,0.3-1.3,0.5c-0.3,0.1-0.6,0.3-0.9,0.4c-0.3,0.1-0.6,0.2-0.9,0.3c-0.2,0.1-0.4,0.1-0.5,0.2
			c-0.2,0-0.4,0.1-0.6,0.2c-0.7,0.3-1.4,0.5-1.9,0.8c-0.4,0.2-0.7,0.4-1.1,0.6c-0.3,0.1-0.6,0.3-0.8,0.4c-0.1,0.1-0.2,0.1-0.4,0.2
			c-0.1,0.1-0.3,0.2-0.4,0.2c-0.3,0.1-0.6,0.3-0.9,0.4c-0.4,0.1-0.8,0.3-1.2,0.4l-0.2,0.1c-0.6,0.2-1.4,0.5-2.2,0.8
			c-0.2,0.1-0.5,0.2-0.7,0.3l-0.2,0.1l-0.1,0c-0.4,0.2-0.7,0.3-1.1,0.5c-0.4,0.2-0.7,0.3-1,0.5c-0.3,0.1-0.5,0.3-0.8,0.4l-0.2,0.1
			c-0.4,0.2-0.9,0.4-1.3,0.6c-0.2,0.1-0.4,0.2-0.6,0.3c-0.6,0.3-1.2,0.6-1.8,0.9l-0.2,0.1c-0.2,0.1-0.5,0.2-0.7,0.4
			c-0.2,0.1-0.4,0.2-0.5,0.3c-0.1,0.1-0.2,0.1-0.3,0.2c-0.1,0.1-0.3,0.1-0.4,0.2c-0.1,0.1-0.2,0.1-0.3,0.1c-0.2,0.1-0.5,0.2-0.8,0.4
			c-0.3,0.1-0.6,0.2-0.9,0.3c-0.3,0.1-0.6,0.2-0.9,0.3c-0.2,0.1-0.5,0.2-0.7,0.2c-0.4,0.1-0.9,0.3-1.3,0.4c-0.1,0.1-0.3,0.1-0.4,0.2
			c-0.2,0.1-0.4,0.2-0.6,0.3l-0.1,0.1c-0.2,0.2-0.4,0.3-0.5,0.5C4,22.6,4,22.8,4,23L4,23c0,0.1,0,0.1,0.1,0.2c0,0,0,0.1,0.1,0.1
			c0,0.1,0.1,0.2,0.1,0.2c0.1,0.1,0.2,0.3,0.3,0.4c0.1,0.2,0.3,0.4,0.3,0.7c0,0.3,0,0.5,0,0.8v0.2v0.2c0,0.3,0,0.5,0,0.8
			c0,0.4,0,0.7,0.1,1.1C5,28,5,28.2,5.1,28.4c0,0.1,0.1,0.1,0.1,0.2l0.1,0.2c0,0,0,0.1,0,0.1v0c0,0.1,0,0.2,0.1,0.3v0
			c0,0.1,0.1,0.2,0.3,0.4l0.1,0.1l0,0l0,0l0,0.2c0,0.2,0.1,0.4,0.1,0.6C5.9,30.7,6,30.8,6.1,31c0.1,0.1,0.2,0.2,0.3,0.3
			c0.1,0.1,0.2,0.2,0.4,0.2l0.1,0.1c0,0,0.1,0.1,0.1,0.1c0.1,0.1,0.3,0.2,0.4,0.2l0.1,0C7.6,32,7.8,32.1,8,32.2
			c0.2,0.1,0.3,0.1,0.5,0.2l0,0c0,0.2,0,0.3,0,0.5c0,0,0,0.1-0.1,0.1c0,0-0.1,0-0.1,0.1l-0.1,0c-0.1,0-0.2,0-0.2,0.1
			c-0.3,0-0.7,0.1-1,0.1l-0.6,0.1c-0.5,0.1-1,0.2-1.4,0.4c-0.3,0.1-0.5,0.2-0.6,0.4c-0.1,0.1-0.1,0.3-0.1,0.4c0,0.2,0.1,0.3,0.1,0.5
			c0,0.1,0.1,0.1,0.1,0.2c0,0.1,0.1,0.1,0.1,0.2c0,0.6,0,1.2-0.2,1.8c-0.1,0.3-0.2,0.5-0.3,0.8c-0.1,0.1-0.1,0.2-0.2,0.3L4,38.3
			c-0.1,0.1-0.1,0.2-0.2,0.3l-0.1,0.1c-0.1,0.3-0.2,0.5-0.2,0.8l0,0.1c0,0.3-0.1,0.5-0.1,0.7c0,0.1-0.1,0.2-0.1,0.3
			c-0.1,0.1-0.1,0.3-0.1,0.4c0,0.2,0,0.3,0.1,0.5v0c0.1,0.2,0.3,0.5,0.5,0.7c0.1,0.1,0.3,0.2,0.4,0.2c0.1,0.1,0.3,0.1,0.5,0.2l0.1,0
			c0.2,0.1,0.5,0.1,0.7,0.1c0.2,0,0.3,0,0.4,0c0.3,0,0.6-0.1,0.8-0.1c0.3-0.1,0.5-0.2,0.6-0.3l0.1-0.1l0,0c0.1,0,0.1-0.1,0.2-0.1
			c0,0,0.1,0,0.1-0.1c0,0,0.1,0,0.2-0.1l0.1,0C8.3,42,8.4,42,8.6,41.9c0,0,0.1,0,0.1,0l0.1,0c0.1,0,0.1,0,0.2-0.1c0,0,0.1,0,0.1,0
			l0.1,0l0.2-0.1c0.1,0,0.2-0.1,0.3-0.2c0,0,0.1,0,0.1,0c0,0,0.1,0,0.1-0.1c0.1,0,0.1-0.1,0.2-0.1l0,0l0.1,0l0.1,0
			c0.1-0.1,0.2-0.1,0.3-0.2c0.1-0.1,0.1-0.1,0.2-0.2c0.1-0.1,0.2-0.2,0.2-0.2c0.1-0.1,0.1-0.1,0.2-0.2c0.1-0.1,0.1-0.1,0.2-0.2
			c0.1-0.1,0.2-0.2,0.3-0.3c0.1-0.1,0.1-0.1,0.2-0.2c0,0,0.1-0.1,0.1-0.1c0,0,0.1-0.1,0.1-0.1l0.1-0.1c0,0,0.1-0.1,0.1-0.1l0,0
			c0.1-0.1,0.3-0.3,0.5-0.5c0.1-0.1,0.2-0.1,0.3-0.2c0.1-0.1,0.2-0.1,0.2-0.2s0.1-0.1,0.2-0.1c0.2-0.1,0.4-0.2,0.6-0.3
			c0.2-0.1,0.4-0.1,0.7-0.2c0.2,0,0.3,0,0.5-0.1c0.1,0,0.1,0,0.2,0c0.1,0,0.1,0,0.2,0.1c0.1,0,0.1,0,0.2,0.1c0.1,0,0.1,0,0.2,0.1
			l0,0l0,0c0,0.1,0,0.2,0,0.4v0c0,0.2-0.1,0.4-0.1,0.6c0,0.1-0.1,0.2-0.2,0.3c-0.1,0.1-0.3,0.3-0.5,0.4c-0.2,0.1-0.4,0.3-0.6,0.4
			l-0.2,0.1c0,0-0.1,0.1-0.1,0.1s-0.1,0.1-0.2,0.1l-0.1,0.1c-0.1,0.1-0.2,0.2-0.3,0.3c-0.1,0.1-0.1,0.2-0.1,0.3v0.1
			c0,0.1-0.1,0.3-0.2,0.4c-0.1,0.2-0.1,0.4,0,0.6c0.1,0.1,0.2,0.2,0.5,0.3c0.2,0.1,0.4,0.1,0.6,0.1l0,0c0.2,0,0.5,0,0.7-0.1l0,0
			c0.1,0,0.2,0,0.3-0.1l0.2,0c0.1,0,0.2,0,0.2,0l0.2,0c0.2,0,0.3-0.1,0.5-0.1c0,0,0.1,0.1,0.1,0.1l0,0.1l0,0.1
			c0,0.2,0.1,0.4,0.2,0.5c0,0.1,0.1,0.2,0.1,0.3c0.1,0.2,0.2,0.3,0.4,0.5c0,0.2,0,0.3,0.1,0.5v0.2v0.1c0,0.2,0,0.3,0,0.5
			c0,0.1-0.1,0.1-0.1,0.2c-0.1,0.1-0.1,0.1-0.2,0.2l-0.2,0.1c-0.1,0-0.2,0.1-0.3,0.1c-0.1,0-0.2,0.1-0.3,0.1c-0.1,0-0.1,0-0.2,0
			c-0.3,0.1-0.5,0.1-0.8,0.2c-0.3,0.1-0.5,0.1-0.8,0.2c-0.2,0-0.4,0.1-0.6,0.2c-0.2,0.1-0.3,0.1-0.4,0.2c-0.1,0.1-0.3,0.2-0.4,0.3
			c-0.1,0.1-0.2,0.2-0.2,0.3l0,0c-0.1,0.1-0.1,0.2-0.2,0.4c0,0.1,0,0.1,0,0.2v0c0.1,0.3,0.1,0.6,0,1c0,0.1-0.1,0.2-0.1,0.3
			c0,0.1-0.1,0.2-0.1,0.3c0,0.1-0.1,0.3-0.1,0.4c0,0.1,0,0.2,0,0.3c0,0.1-0.1,0.1-0.1,0.2c-0.1,0.1-0.2,0.1-0.2,0.2l0,0
			c-0.1,0-0.1,0.1-0.2,0.1c0,0-0.1,0-0.1,0l-0.1,0c0,0-0.1-0.1-0.1-0.1c0,0-0.1-0.1-0.1-0.1l0,0c0-0.1-0.1-0.1-0.1-0.2
			c0,0,0-0.1-0.1-0.1c0,0-0.1-0.1-0.1-0.1c0-0.1,0-0.1,0-0.2v-0.1c0-0.1,0-0.2-0.1-0.3c0-0.1-0.1-0.2-0.3-0.3
			c-0.1-0.1-0.2-0.1-0.4-0.2c0,0-0.1,0-0.1,0l0,0c-0.1,0-0.1-0.1-0.1-0.1c-0.1-0.1-0.2-0.1-0.4-0.2c-0.1,0-0.2-0.1-0.3-0.1
			c-0.1,0-0.1,0-0.2,0l0-0.1c0,0,0-0.1,0-0.1c0-0.1-0.1-0.3-0.1-0.4c-0.1-0.1-0.1-0.2-0.2-0.4l0,0c-0.1-0.1-0.1-0.1-0.2-0.2
			c-0.1-0.1-0.1-0.1-0.2-0.2c0,0,0,0-0.1,0c-0.1-0.1-0.3-0.2-0.5-0.3c-0.2-0.1-0.4-0.1-0.7-0.1c-0.2,0-0.3,0-0.5,0
			c-0.4,0-0.7,0-1,0.1c-0.2,0-0.3,0.1-0.4,0.2l-0.1,0.1l-0.1,0.1c-0.1,0-0.2,0.1-0.3,0.1c-0.2,0.1-0.3,0.1-0.5,0.2
			c-0.1,0.1-0.2,0.1-0.3,0.2c0,0-0.1,0.1-0.1,0.1c0,0-0.1,0.1-0.1,0.1c0,0-0.1,0-0.1,0.1c0,0-0.1,0.1-0.2,0.1
			c-0.1,0.1-0.2,0.1-0.2,0.2l0,0c0,0,0,0-0.1,0.1c0,0,0,0-0.1,0.1c0,0,0,0.1-0.1,0.1c-0.1,0.1-0.1,0.2-0.2,0.2c0,0,0,0.1,0,0.1
			l0,0.1c0,0.1-0.1,0.3-0.2,0.4l0,0c-0.1,0.2-0.2,0.4-0.1,0.7c0,0.2,0.1,0.5,0.2,0.7c0.1,0.1,0.2,0.3,0.3,0.4
			c0.1,0.1,0.2,0.3,0.3,0.4c0,0.1,0,0.3,0,0.4v0.6v0.4c0,0.4,0,0.9,0.1,1.3c0.1,1,0.1,1.9,0.1,2.6v0.7v0.6v0.6c0,0.3,0,0.5,0,0.8
			c0,0.3,0,0.7,0.1,1c0,0.5,0.1,1,0.1,1.4c0,0.2,0,0.4-0.1,0.5c-0.1,0.3-0.3,0.7-0.4,1c-0.1,0.1-0.1,0.3-0.2,0.4l0,0.1
			c-0.1,0.1-0.1,0.3-0.1,0.4L3,64L3,64.2c0,0.1-0.1,0.2-0.1,0.3c0,0.2,0,0.4,0,0.6v0.1c0,0.2,0.1,0.4,0.1,0.6c0,0.1,0.1,0.2,0.1,0.3
			l0.1,0.1c0.1,0.1,0.1,0.2,0.1,0.3c0,0.2,0,0.4,0.1,0.5c0.1,0.2,0.2,0.3,0.3,0.5c0.1,0.1,0.1,0.2,0.2,0.3c0,0,0,0.1,0.1,0.1l0,0
			c0.1,0.1,0.1,0.2,0.1,0.3c0,0.1,0.1,0.3,0.1,0.5c0,0.1,0.1,0.2,0.1,0.3c0,0.1,0.1,0.2,0.1,0.2c0,0.2,0.1,0.3,0.1,0.5
			c0,0.1,0.1,0.2,0.1,0.3s0.1,0.2,0.1,0.3c0,0.2,0,0.3,0,0.5v0.1c0,0.2,0,0.5,0,0.7c0,0.6,0,1.2-0.1,1.8c-0.1,1.2-0.1,2.4-0.1,3.7
			c0,0.5,0,1.1-0.1,1.6c0,0.6,0,1.3-0.1,1.9c0,0.3,0,0.5,0,0.8c0.1,0.5,0,1-0.1,1.5c0,0.1-0.1,0.2-0.1,0.4c0,0.1-0.1,0.2-0.1,0.2
			c-0.1,0.2-0.1,0.3-0.1,0.5c0,0.1,0,0.1,0,0.2c-0.1,0.2-0.2,0.4-0.3,0.6c-0.1,0.1-0.1,0.3-0.2,0.4s-0.1,0.2-0.2,0.3l0,0.1
			c-0.1,0.2-0.2,0.4-0.2,0.6l0,0.1c0,0.1-0.1,0.2-0.1,0.3c0,0.2-0.1,0.3,0,0.5v0.4c0,0.2,0,0.4,0,0.6c0,0.3,0,0.5,0.1,0.8
			c0,0.2,0.1,0.4,0.2,0.6l0.1,0.2c0,0.1,0.1,0.2,0.1,0.3c0,0.1,0,0.2,0,0.4v0c0,0.2-0.1,0.5-0.1,0.7c0,0.1-0.1,0.2-0.1,0.3
			c-0.1,0.2-0.1,0.4-0.2,0.5c0,0.2,0,0.3,0,0.5c0,0.1,0,0.1,0,0.2c0,0.6,0,1.2-0.2,1.8l-0.1,0.2c-0.1,0.2-0.1,0.3-0.2,0.5
			c0,0.1,0,0.1,0,0.2c0,0,0,0.1,0,0.1c0,0.1,0,0.2-0.1,0.3c-0.1,0.3-0.2,0.5-0.3,0.7c-0.1,0.1-0.1,0.2-0.1,0.3
			c0,0.1-0.1,0.2-0.1,0.3c-0.1,0.1,0,0.2-0.1,0.3s-0.1,0.2-0.2,0.3c-0.1,0.2-0.2,0.4-0.4,0.6c-0.1,0.2-0.3,0.3-0.4,0.5
			s-0.2,0.4-0.3,0.5l0,0.1c-0.1,0.2-0.2,0.4-0.2,0.5c0,0.2-0.1,0.4-0.1,0.6c0,0.3,0,0.6,0,0.9c0,0.2,0.1,0.4,0.1,0.6
			c0,0.1,0.1,0.2,0.1,0.3c0,0.1,0.1,0.1,0.1,0.2c0,0.1,0,0.2,0,0.2c0,0.1,0,0.2,0,0.3c0.1,0.2,0.2,0.5,0.2,0.7c0,0.1,0,0.3,0,0.4
			v0.1c0,0.2,0,0.4,0,0.6c0,0.2,0,0.4,0,0.6c0,0.2,0,0.4,0,0.6c0,0.4,0,0.8,0,1.2c0,0.2,0.1,0.5,0.1,0.7c0,0.1,0.1,0.2,0.1,0.4
			l0,0.1c0,0.1,0,0.2,0,0.3v0.1c0,0.1,0,0.3,0,0.4v0.2v0.3c0,0.3,0,0.7,0,1c0,0.4,0.1,0.8,0.2,1.1c0.1,0.3,0.1,0.5,0.2,0.8
			c0,0.1,0.1,0.2,0.1,0.3c0,0.1,0.1,0.2,0.1,0.3c0.1,0.3,0.2,0.6,0.3,0.9c0,0.1,0.1,0.3,0.2,0.4s0.1,0.2,0.2,0.4
			c0,0.2,0,0.4,0.1,0.5c0,0.3,0.1,0.5,0.1,0.8c0.1,0.4,0.1,0.8,0.2,1.2c0,0.2,0,0.5,0.1,0.7c0,0.2,0,0.5,0.1,0.7
			c0.1,0.5,0.1,1,0,1.5c0,0.1-0.1,0.3-0.1,0.4l-0.1,0.2c-0.1,0.2-0.1,0.3-0.1,0.5c0,0.1,0,0.2-0.1,0.3l-0.1,0.2
			c-0.1,0.2-0.1,0.4-0.1,0.6v0c0,0.3,0,0.6-0.1,0.9c-0.1,0.3-0.2,0.6-0.4,0.9c-0.1,0.2-0.2,0.3-0.2,0.5c-0.1,0.3-0.2,0.5-0.4,0.8
			l-0.1,0.1C1,125.8,1,125.9,0.9,126l0,0.1l0,0.1c-0.1,0.1-0.1,0.3-0.2,0.4l-0.1,0.2c-0.1,0.2-0.2,0.5-0.2,0.7
			c0,0.2-0.1,0.5-0.1,0.7l0,0.3c-0.1,0.7-0.1,1.4,0,1.9c0,0.5,0,1.1,0,1.7c0,0.3,0,0.6-0.1,0.9c0,0.3,0,0.5-0.1,0.8
			c0,0.2,0,0.5,0,0.8c0,0.3,0.1,0.5,0.2,0.8c0.1,0.2,0.2,0.4,0.4,0.6l0.1,0.1c0.1,0.1,0.2,0.3,0.3,0.4c0.1,0.1,0.1,0.1,0.2,0.2
			c0.1,0.1,0.2,0.1,0.2,0.2l0.1,0c0.1,0.1,0.2,0.2,0.3,0.3l0,0c0.1,0.1,0.1,0.2,0.2,0.2s0.1,0.2,0.2,0.3c0.1,0.2,0.3,0.4,0.5,0.6
			c0.1,0.2,0.2,0.4,0.3,0.5c0.1,0.1,0.1,0.2,0.1,0.3l0,0.1l0.1,0.2l0,0.2c0,0.2,0.1,0.5,0.1,0.7c0,0.3,0,0.5,0.1,0.8
			c0,0.3,0.1,0.5,0.2,0.8c0,0.1,0.1,0.2,0.1,0.4c0,0.1,0.1,0.2,0.1,0.3c0.1,0.3,0.2,0.6,0.3,0.9c0,0.1,0.1,0.2,0.2,0.3
			s0.1,0.2,0.2,0.3c0.1,0.2,0.2,0.4,0.2,0.6c0.1,0.4,0.1,0.8,0.1,1.2v0.3c0,0.5,0,1.1,0,1.7c0,0.3-0.1,0.6-0.1,0.8
			c-0.1,0.4-0.1,0.7-0.1,1.1c0,0.6,0,1.2-0.2,1.8c-0.1,0.3-0.2,0.6-0.4,0.8c-0.1,0.1-0.2,0.3-0.3,0.4c-0.1,0.1-0.2,0.3-0.3,0.5
			c-0.2,0.2-0.3,0.5-0.5,0.7c-0.1,0.2-0.2,0.5-0.3,0.7c0,0.1,0,0.3,0.1,0.4v0c0,0.1,0.1,0.2,0.1,0.3c0.1,0.2,0.3,0.5,0.5,0.7l0,0
			c0.2,0.2,0.4,0.5,0.6,0.7l0.2,0.1c0.1,0.1,0.3,0.3,0.4,0.4c0,0,0,0.1,0.1,0.1c0,0.1,0,0.3,0,0.4c0,0.1,0,0.2,0,0.2
			c0,0.3,0.1,0.5,0.2,0.8c0,0.1,0.1,0.2,0.2,0.3c0.1,0.1,0.1,0.2,0.2,0.3c0.1,0.2,0.2,0.4,0.4,0.6l0,0c0,0,0.1,0.1,0.1,0.1
			c0,0,0.1,0.1,0.1,0.2l0.1,0.1c0.1,0.1,0.2,0.2,0.2,0.3c0.1,0.1,0.2,0.2,0.2,0.4c0.1,0.1,0.2,0.2,0.2,0.3c0.1,0.1,0.2,0.2,0.3,0.3
			c0.1,0.1,0.1,0.2,0.2,0.2c0,0.1,0.1,0.1,0.1,0.2l0.1,0.1c0.1,0.1,0.2,0.2,0.2,0.4c0,0.2,0,0.4,0,0.5c0,0.1-0.1,0.2-0.1,0.3
			c-0.1,0.2-0.2,0.5-0.2,0.7c0,0.3,0,0.7-0.1,1.1c-0.1,0.3-0.3,0.6-0.4,0.9c0,0.1-0.1,0.2-0.1,0.2c0,0.1-0.1,0.2-0.1,0.3
			c-0.1,0.1-0.2,0.3-0.3,0.4l0,0l-0.1,0.1l0,0v0l0,0l0,0l0,0c-0.1,0.1-0.2,0.2-0.2,0.3l0,0c-0.1,0.1-0.1,0.2-0.2,0.2
			c0,0.1-0.1,0.1-0.2,0.2c-0.1,0.1-0.1,0.1-0.2,0.2l-0.1,0.1C5.1,168,5,168,5,168.1c-0.1,0.1-0.2,0.2-0.2,0.4
			c-0.1,0.2-0.1,0.5-0.1,0.7v0c0,0.2,0,0.4,0,0.6v0c0,0.4,0,0.7,0.1,1.1c0,0.2,0.1,0.4,0.2,0.7c0,0.1,0.1,0.2,0.1,0.3
			s0.1,0.2,0.1,0.2c0,0.3,0,0.5,0.1,0.8c0,0.2,0,0.5-0.1,0.8c-0.1,0.2-0.2,0.3-0.3,0.5l-0.1,0.1c-0.1,0.1-0.1,0.2-0.1,0.3l0,0.1
			c0,0.1-0.1,0.2-0.2,0.3L4.3,175c-0.1,0.1-0.2,0.2-0.3,0.3l0,0c-0.1,0.1-0.2,0.2-0.3,0.3l-0.1,0.1l-0.1,0.1
			c-0.1,0.1-0.2,0.2-0.4,0.4c-0.1,0.1-0.3,0.2-0.4,0.3c-0.1,0.1-0.2,0.2-0.3,0.3c0,0.1-0.1,0.1-0.1,0.2c0,0.1-0.1,0.2-0.1,0.2
			c0,0.1,0,0.2,0,0.4c0,0.1-0.1,0.3-0.2,0.4c0,0.1-0.1,0.2-0.1,0.2c-0.1,0.1-0.1,0.2-0.1,0.4c0,0.1-0.1,0.2-0.2,0.3
			c-0.1,0.1-0.1,0.2-0.1,0.2c0,0.1,0,0.1,0,0.2l0,0.1l0,0.2c0,0.3,0.1,0.7,0.1,1c0,0.6,0,1.1,0,1.6l0,0.4c0,0.4,0,0.8,0,1.2
			c0,0.2,0.1,0.5,0.1,0.7c0,0.2,0.1,0.3,0.2,0.4c0.1,0.1,0.1,0.2,0.2,0.4c0.1,0.5,0,1,0,1.4c0,0.3,0,0.5,0,0.8c0,0.3,0,0.6,0.1,0.8
			c0,0.2,0.1,0.4,0.1,0.5c0,0.1,0.1,0.2,0.1,0.3c0.1,0.1,0.1,0.1,0.1,0.2c0,0.3,0,0.5,0,0.8v0.7c0,0.3,0,0.5,0,0.8v0.1
			c0,0.4,0,0.9,0,1.3c0,0.2,0,0.4,0.1,0.6c0,0.1,0.1,0.2,0.2,0.3c0.1,0.1,0.1,0.2,0.2,0.3c0,0.3,0,0.6-0.1,0.9c0,0.1,0,0.3,0,0.4
			c0,0.2,0,0.4,0,0.7c0,0.1,0.1,0.2,0.1,0.3c0.1,0.1,0.2,0.2,0.3,0.3c0,0.1,0.1,0.1,0.1,0.2l0,0.1c0,0.1,0.1,0.1,0.1,0.2
			c0,0.1,0.1,0.1,0.1,0.2s0,0.1,0,0.2v0.4v0.2c0,0.1,0,0.2,0,0.4c0,0.2,0,0.4,0.1,0.6c0,0.1,0.1,0.2,0.1,0.3
			c0.1,0.1,0.2,0.2,0.3,0.3l0,0c0.1,0.1,0.2,0.2,0.3,0.3c0.2,0.1,0.3,0.2,0.5,0.3l0,0c0.1,0.1,0.3,0.2,0.5,0.3
			c0.2,0.1,0.4,0.1,0.6,0.2c0.1,0,0.2,0,0.3,0.1c0.2,0,0.3,0.1,0.5,0.1c0.1,0,0.2,0,0.2,0c0,0,0.1,0,0.1,0l0.2,0
			c-0.1,0.1-0.1,0.2-0.2,0.3c-0.1,0.1-0.2,0.1-0.3,0.2c-0.3,0.2-0.6,0.3-0.9,0.5l-0.3,0.1c-0.3,0.1-0.6,0.2-0.8,0.3
			c-0.5,0.2-0.8,0.5-0.7,0.8c0,0.4,0,0.7-0.1,1.1c0,0.1-0.1,0.1-0.1,0.2c0,0-0.1,0.1-0.1,0.1l-0.2,0.1c-0.2,0.1-0.4,0.2-0.6,0.4
			l-0.1,0.1c-0.2,0.1-0.4,0.3-0.5,0.4c-0.2,0.2-0.3,0.4-0.3,0.6c0,0.1,0,0.1,0,0.2l0,0.1c0,0.2,0,0.4,0,0.6
			c-0.1,0.1-0.2,0.3-0.3,0.4l-0.2,0.2c-0.1,0.1-0.1,0.1-0.2,0.2c-0.1,0.1-0.1,0.1-0.2,0.2c0,0-0.1,0.1-0.1,0.1
			c-0.2,0.2-0.4,0.4-0.5,0.7c-0.1,0.1-0.1,0.3-0.1,0.4c0,0.1,0,0.2,0,0.3v0.2c0,0.1,0,0.2,0,0.4c0,0.1,0,0.3,0,0.4
			c0.1,0.4,0.1,0.9,0,1.3c0,0.1-0.1,0.2-0.2,0.3c-0.2,0.2-0.4,0.4-0.5,0.6C0,213,0,213.2,0,213.3c0,0.1,0,0.2,0,0.2
			c0,0.3,0,0.7,0.1,1c0.1,0.4,0.2,0.8,0.4,1.1c0,0.1,0.1,0.1,0.1,0.2s0.1,0.2,0.1,0.2c0.1,0.1,0.2,0.3,0.3,0.4l0.1,0.1
			c0,0.1,0.1,0.1,0.1,0.2l0.1,0.1c0.1,0.1,0.2,0.2,0.3,0.4c0.1,0.1,0.2,0.2,0.2,0.3l0.1,0.2c0.1,0.1,0.1,0.2,0.1,0.2l0,0.1l0,0.1
			l0.1,0.2c0,0.2,0,0.3,0,0.5v0.1c0,0.1,0,0.3-0.1,0.4c0,0.1-0.1,0.1-0.1,0.2C2,219.6,1.9,219.8,2,220c0.2,0.2,0.5,0.5,0.9,0.7
			c0.1,0,0.1,0.1,0.2,0.1c0.1,0.1,0.1,0.2,0.2,0.3c0,0.1,0,0.2,0,0.4v0.2c0,0.2,0,0.3,0,0.5v0.1c0,0,0,0.1,0,0.1
			c0,0.1,0,0.2,0.1,0.4l0,0c0,0.1,0.1,0.2,0.1,0.3c0,0.1,0.1,0.2,0.1,0.2c0,0.3,0.1,0.5,0.2,0.8c0.1,0.2,0.3,0.4,0.5,0.6l0.1,0.1
			c0.1,0.1,0.1,0.1,0.2,0.2c0.1,0.1,0.1,0.1,0.2,0.1c0.1,0,0.1,0.1,0.1,0.1c0.1,0.2,0.3,0.3,0.4,0.5c0.1,0.1,0.1,0.2,0.2,0.3
			l0.1,0.1c0.1,0.1,0.1,0.2,0.2,0.4c0,0.1,0,0.1,0.1,0.2c0.1,0.2,0.2,0.4,0.3,0.6l0,0.1c0.2,0.4,0.3,0.8,0.4,1.1l0,0.1
			c0,0.1,0.2,0.2,0.4,0.2l0,0l0,0c0,0.1,0.1,0.2,0.1,0.3c0,0,0,0.1,0,0.1c0,0.2,0.2,0.5,0.5,0.7l0,0l0.2,0.1l0.1,0.1
			c0.1,0.1,0.2,0.2,0.3,0.3l0,0.1c0.1,0.1,0.2,0.3,0.4,0.4c0.2,0.2,0.4,0.3,0.6,0.5c0.2,0.1,0.4,0.2,0.5,0.4l0.2,0.2l0,0l0,0
			l0.2,0.2l0.1,0l0,0c0.2,0.1,0.3,0.3,0.5,0.4l0.2,0.2l0.2,0.1l0.2,0.2c0.2,0.2,0.4,0.4,0.5,0.6c0.1,0.3,0.2,0.6,0.3,0.8
			c0,0.2,0.1,0.4,0.2,0.5c0.1,0.2,0.2,0.3,0.3,0.4c0.2,0.2,0.3,0.3,0.5,0.5c0.2,0.1,0.4,0.3,0.5,0.4c0.4,0.2,0.8,0.5,1.2,0.7
			l0.2,0.1c0.1,0.1,0.3,0.1,0.4,0.2c0.2,0.1,0.4,0.2,0.6,0.3c0.3,0.2,0.7,0.5,1,0.7c0.1,0.1,0.2,0.2,0.3,0.3l0.2,0.2l0.2,0.2l0,0
			c0.1,0.1,0.2,0.2,0.3,0.4c0,0,0.1,0.1,0.2,0.1l0.1,0.1c0.1,0.1,0.2,0.2,0.3,0.3c0.3,0.2,0.7,0.5,1.2,0.7c0.4,0.3,0.9,0.5,1.4,0.7
			c0.6,0.3,1.2,0.5,1.9,0.7c0.4,0.1,0.8,0.2,1.2,0.3l0.1,0c0.3,0.1,0.6,0.1,0.9,0.2c0.3,0.1,0.5,0.2,0.8,0.3
			c0.3,0.1,0.5,0.2,0.8,0.3c0.1,0.1,0.3,0.1,0.4,0.2s0.2,0.2,0.3,0.2c0.1,0.1,0.3,0.3,0.4,0.4l0.1,0.1c0.1,0.1,0.2,0.2,0.3,0.3
			c0.2,0.2,0.4,0.3,0.6,0.5c0.2,0.1,0.5,0.3,0.8,0.4c0.3,0.1,0.5,0.2,0.8,0.3c0.2,0.1,0.4,0.1,0.6,0.2c0.4,0.2,1,0.4,1.5,0.6
			l0.1,0.1c0.2,0.1,0.4,0.2,0.7,0.2l0.1,0c0.2,0.1,0.4,0.2,0.6,0.2c0.3,0.1,0.6,0.2,0.9,0.3s0.6,0.2,1,0.3l0.2,0.1l0.4,0.1l0.1,0
			c0.3,0.1,0.7,0.2,1,0.3l0.4,0.1c0.3,0.1,0.5,0.1,0.8,0.2l0.4,0.1c0.3,0.1,0.6,0.2,0.9,0.3c0.2,0,0.4,0.1,0.6,0.1l0,0l0.6,0.1
			l0.3,0c0.2,0,0.4,0.1,0.6,0.1l0.1,0c0.2,0.1,0.5,0.1,0.7,0.2c0.2,0,0.3,0.1,0.5,0.1l0.2,0l0.6,0.2c0.2,0.1,0.4,0.1,0.6,0.2
			c0.2,0.1,0.4,0.2,0.6,0.2c0.2,0.1,0.4,0.2,0.5,0.3c0,0,0.1,0.1,0.1,0.1l0.1,0.1c0.1,0.1,0.3,0.2,0.5,0.3c0.3,0.1,0.6,0.2,0.9,0.3
			c0.3,0.1,0.6,0.1,0.8,0.2c0.5,0.1,1,0.1,1.6,0.1l0.3,0c0.4,0,0.8,0,1.2,0c0.3,0,0.5,0,0.8,0c0.2,0,0.5,0,0.7-0.1
			c0.1,0,0.3,0,0.4,0c0.4,0,0.8-0.1,1.3-0.1c0.1,0,0.3,0,0.4,0l0.1,0l0.3,0c0.1,0,0.2,0,0.3,0c0.4,0,0.8,0,1.2-0.1
			c0.3,0,0.6,0,0.9,0c0.3,0,0.5,0,0.8,0h0.2c0.3,0,0.7-0.1,1-0.1l0.2,0l0.2,0c0.3-0.1,0.6-0.2,0.8-0.3c0.2-0.1,0.3-0.3,0.4-0.4
			l0-0.1c0.1-0.1,0.2-0.3,0.3-0.5c0-0.1,0.1-0.3,0.1-0.5c0-0.2,0-0.3,0-0.5c0-0.1,0-0.2,0-0.3v-0.1c0-0.1,0-0.3,0-0.4v-0.1
			c0-0.1,0-0.2,0-0.2v-0.2c0-0.1,0-0.2,0-0.2c0-0.2,0-0.4,0-0.6c0-0.1,0-0.2,0-0.3c0-0.1,0-0.3,0.1-0.4c0-0.1,0.1-0.3,0.1-0.4
			c0.1-0.3,0.1-0.6,0.2-0.9c0-0.2,0.1-0.3,0.1-0.5c0-0.2,0.1-0.3,0.1-0.5c0-0.1,0-0.2,0.1-0.2s0.1-0.2,0.1-0.2
			c0-0.1,0.1-0.2,0.1-0.4v-0.1c0-0.1,0-0.2,0.1-0.2c0,0,0-0.1,0-0.1c0-0.1,0-0.3,0.1-0.4c0-0.1,0-0.2,0-0.3c0-0.2,0-0.3,0.1-0.5
			l0.1-0.3c0.1-0.4,0.2-0.8,0.4-1.2c0,0,0.1-0.1,0.1-0.1l0-0.1v0c0.1,0,0.2,0,0.3,0.1c0.1,0,0.3,0.1,0.4,0.2
			c0.3,0.1,0.5,0.3,0.8,0.5l0.1,0c0.3,0.2,0.5,0.3,0.7,0.5c0.1,0.1,0.2,0.2,0.3,0.3c0.1,0.1,0.2,0.2,0.2,0.3
			c0.1,0.2,0.1,0.4,0.2,0.5c0,0-0.1,0-0.2,0c-0.1,0-0.1,0-0.2,0c0,0,0,0,0,0.1c0.1,0.1,0.1,0.3,0.1,0.4c0,0.1,0.1,0.3,0.1,0.4
			l0.1,0.2c0.1,0.2,0.2,0.4,0.2,0.6l0,0c0.1,0.2,0.2,0.5,0.2,0.7c0.1,0.3,0.1,0.5,0.1,0.8c0,0.1,0,0.2,0,0.3l0,0.1
			c0,0.1,0,0.3,0,0.4c0,0.1,0,0.2,0,0.2v0.1v0.1c0,0.1,0,0.2,0,0.3c0,0.3,0.1,0.6,0.2,0.8c0.1,0.3,0.2,0.6,0.2,0.9
			c0,0.1,0,0.3-0.1,0.4c0,0.1,0,0.1,0,0.2c0,0.1,0,0.2-0.1,0.3c0,0.1,0,0.3-0.1,0.4c-0.1,0.3-0.1,0.6-0.1,0.8c0,0.1,0.1,0.2,0.2,0.4
			c0.2,0.2,0.4,0.3,0.8,0.4c0.3,0.1,0.6,0.2,0.9,0.2c0.5,0.1,1,0.1,1.6,0.2c0.5,0,0.9,0,1.4,0h0.2c0.3,0,0.6,0,0.9,0
			c0.4,0,0.7,0,1.1,0s0.7,0,1.1,0h0.2c0.4,0,0.8,0,1.2,0h0.3c0.5,0,0.9,0,1.4,0h0.3c0.3,0,0.7,0,1,0c0.2,0,0.5,0,0.7,0l0.4,0
			c0.1,0,0.3,0,0.4,0c0.3,0,0.5,0,0.8,0c0.3,0,0.5,0,0.8,0s0.5,0,0.8,0c0.5,0,1.1,0,1.6,0h0.8c0.2,0,0.5,0,0.7,0h0.1
			c0.3,0,0.6,0,0.8,0c0.3,0,0.5,0,0.8,0c0.8,0,1.6-0.1,2.4-0.1l0.6,0c1,0,1.9,0,2.7,0h0.4c0.7,0,1.4,0,2.1,0c0.3,0,0.6,0,0.9,0
			c1,0,1.9,0,2.8,0h0.3c0.3,0,0.6,0,0.9,0c0.5,0,1,0,1.5,0h0.7c0.6,0,1.1,0,1.7,0c0.3,0,0.6,0,0.9,0h0.1c0.8,0,1.4,0,2.1,0
			c0.4,0,0.8,0,1.2,0c0.3,0,0.5,0,0.8,0c0.2,0,0.4,0,0.5,0l0.5,0l0.4,0l0.8,0h0.2c0.3,0,0.7,0,1,0h2.6c0.4,0,0.8,0,1.2,0
			c0.9,0,1.7,0,2.4,0.1c0.5,0,0.9,0,1.4,0c0.3,0,0.6,0,0.9,0l0.4,0c0.2,0,0.4,0,0.6,0l0.5,0l0.6,0l0.8,0c0.9,0,1.8,0,2.6,0h0.2
			c0.2,0,0.5,0,0.8,0c0.4,0,0.7,0,1.1,0c0.7,0,1.3,0,2,0h0.6c0.4,0,0.9,0,1.3,0c0.6,0,1.1,0,1.7,0h0.1c0.3,0,0.5,0,0.8,0h0.3
			c0.3,0,0.6,0,0.9,0l0.2,0c0.6,0,1.3,0,2,0h0.2h-0.1l0.7,0c0.2,0,0.4,0,0.5,0l0.4,0c0.3,0,0.5,0,0.8,0h0.9c0.5,0,1,0,1.4,0
			c0.2,0,0.4,0,0.6,0c0.3,0,0.5,0,0.8,0c0.4,0,0.8,0,1.2,0l0.3,0c0.3,0,0.5,0,0.8,0h0.5h0.3l0.5,0c0.2,0,0.4,0,0.6,0l0.3,0
			c0.6,0,1.1,0,1.7,0c0.3,0,0.6,0,0.9,0c0.3,0,0.6,0,0.9,0c0.3,0,0.5,0,0.8,0h1c0.4,0,0.9,0,1.3,0.1c0.4,0,0.9,0.1,1.4,0.1
			c0.2,0,0.4,0,0.6,0s0.4,0,0.6,0c0.3,0,0.7,0,1,0.1c0.3,0,0.5,0.1,0.8,0.1l0.5,0.1c0.2,0,0.4,0.1,0.6,0.1l0.1,0
			c0.5,0.1,0.9,0.2,1.4,0.3c0.2,0,0.3,0.1,0.5,0.1l0.2,0l0.5,0.1c0.2,0.1,0.3,0.1,0.5,0.2c0.6,0.2,1.3,0.4,2,0.6
			c0.3,0.1,0.7,0.1,1,0.1c0.1,0,0.2,0,0.3,0c0.1,0,0.2,0,0.3,0c0.2,0,0.4,0,0.5-0.1l0.1,0c0.3,0,0.5-0.1,0.8-0.2l0.1,0l0.3-0.1
			l0.3-0.1c0.6-0.2,1.3-0.3,2-0.4c0.3,0,0.5-0.1,0.8-0.1c0.3-0.1,0.6-0.1,1-0.2c0.6-0.1,1.1-0.2,1.6-0.3c0.5-0.1,1-0.2,1.5-0.3
			c0.4,0,0.7,0,1.1,0c0.5,0,1,0,1.5,0.1c0.5,0,0.9,0,1.4,0c0.2,0,0.4,0,0.6,0c0.4,0,0.7,0,1.1,0c0.8,0,1.6,0,2.4,0h0.3
			c0.5,0,1,0,1.4,0.1l0.8,0c0.5,0,0.9,0,1.4,0.1l1.1,0c0.7,0,1.4,0.1,2,0.1l0.2,0c0.6,0,1.3,0.1,2,0.1h0.5c0.6,0,1.1,0.1,1.7,0.1
			c0.4,0.1,0.7,0.1,1,0.2l0.2,0c0.5,0.1,1,0.2,1.6,0.3c0.6,0.1,1.2,0.2,1.8,0.3l0.6,0.1c0.3,0,0.6,0.1,0.9,0.1
			c0.5,0.1,1,0.1,1.6,0.1c0.1,0,0.1,0,0.2,0c0.6,0,1.2-0.1,1.8-0.2c0.3-0.1,0.5-0.1,0.8-0.2c0.3-0.1,0.6-0.1,0.8-0.2
			c0.4-0.1,0.7-0.3,1-0.5c0.1,0,0.2-0.1,0.3-0.1c0.2,0,0.4-0.1,0.6-0.1c0.2,0,0.3,0,0.5,0c0.2,0,0.4,0,0.6,0l0.4,0
			c0.4,0,0.7,0,1.1,0c0.4,0,0.9,0,1.3,0h0.3c0.5,0,0.9,0,1.4,0l0.4,0c0.7,0,1.4,0,2.1,0c0.2,0,0.5,0,0.7,0c0.4,0,0.8,0,1.2,0
			c0.4,0,0.8,0,1.3-0.1l0.6,0l1.6-0.1c0.2,0,0.4,0,0.6,0c0.3,0,0.6,0,0.9,0c0.1,0,0.3,0,0.4,0c0.2,0,0.4,0.1,0.6,0.1l0.3,0.1
			l0.4,0.1c0.2,0,0.5,0.1,0.7,0.1c0.4,0.1,0.8,0.1,1.2,0.2c0.3,0,0.5,0,0.8,0c0.1,0,0.2,0,0.3,0c0.5,0,1-0.1,1.5-0.2
			c0.4-0.1,0.7-0.2,0.9-0.4c0.2-0.1,0.5-0.2,0.7-0.4l0.1,0c0.2-0.1,0.3-0.2,0.5-0.3c0,0,0.1,0,0.2-0.1l0.1,0c0.2,0,0.4,0.1,0.6,0.1
			c0.4,0.1,0.7,0.2,1,0.4c0.2,0.1,0.4,0.2,0.5,0.4c0,0,0.1,0.1,0.1,0.1c0.1,0.1,0.2,0.2,0.2,0.2c0.2,0.1,0.3,0.3,0.6,0.4
			c0.2,0.1,0.4,0.2,0.7,0.3c0.3,0.1,0.6,0.2,1,0.2c0.3,0,0.7,0.1,1.1,0.1h0.2c0.2,0,0.3,0,0.5,0c0.2,0,0.4-0.1,0.5-0.1
			c0.2,0,0.3-0.1,0.5-0.1l0.1,0c0.2,0,0.4-0.1,0.5-0.1s0.4-0.1,0.6-0.1c0.7-0.2,1.5-0.3,2.3-0.4c0.4,0,0.9-0.1,1.3-0.1l0.9-0.1
			c0.2,0,0.5,0,0.7,0c0.5,0,1.1,0,1.6,0h0.7c0.3,0,0.5,0,0.8,0l0.1,0c0.6,0,1.3-0.1,1.9-0.1c0.6,0,1.3-0.1,2-0.1c0.4,0,0.7,0,1.2,0
			c0.2,0,0.4,0,0.6,0h0.8l0.8,0c0.8,0,1.5,0.1,2.3,0.1l0.1,0c0.7,0.1,1.4,0.1,2.1,0.1c0.3,0,0.6,0,1,0c0.4,0,0.8,0,1.1,0
			c0.6,0,1.1,0.1,1.6,0.2l0.1,0l0,0c0.5,0.1,0.9,0.2,1.4,0.3c0.3,0.1,0.6,0.1,0.9,0.2c0.2,0,0.4,0.1,0.6,0.1
			c0.5,0.1,1.1,0.2,1.6,0.3c0.3,0,0.5,0.1,0.8,0.1c0.3,0,0.5,0,0.8,0h0.2c0.2,0,0.3,0,0.5,0h0.8c0.1,0,0.3,0,0.4,0
			c0.3,0,0.5,0,0.8-0.1c0.2,0,0.5-0.1,0.7-0.1c0.3-0.1,0.6-0.1,0.9-0.2l0.5-0.1c0.1,0,0.3,0,0.4-0.1c0.3-0.1,0.7-0.1,1-0.2
			c0.4,0,0.7-0.1,1.1-0.1c0.4,0,0.8-0.1,1.2-0.1h-0.1c1.1-0.1,2.2-0.2,3.3-0.2c0.3,0,0.6,0,0.9-0.1l0.6,0c0.4,0,0.9,0,1.3,0h0.2h0.2
			c0.5,0,1.1,0,1.7,0c0.2,0,0.3,0,0.5,0c0.3,0,0.6,0,0.9,0l0.4,0c0.5,0,0.9,0,1.4,0c1,0,1.9,0,2.7-0.1l0.3,0c0.3,0,0.7,0,1,0
			c0.3,0,0.6,0,0.8,0h0.3c0.5,0,1.1,0,1.6,0.1c0.5,0,1.2,0,1.9,0.1h-0.1c0.7,0,1.4,0,2.1,0.1c0.2,0,0.4,0,0.6,0c0.7,0,1.3,0,2-0.1
			l0.2,0c0.3,0,0.6,0,0.9,0s0.6,0,1,0l0.7,0h0.2c0.3,0,0.6,0,0.9,0c0.3,0,0.6,0,0.8,0h0.5c1,0,1.9,0.1,2.9,0.2l0.1,0
			c0.4,0.1,0.8,0.1,1.3,0.2c0.5,0.1,0.9,0.2,1.4,0.3c0.1,0,0.3,0.1,0.4,0.1l0.4,0.1c0.3,0.1,0.5,0.1,0.8,0.1c0.5,0.1,1,0.2,1.5,0.2
			c0.5,0.1,1,0.1,1.5,0.1c0.1,0,0.3,0,0.4,0c0.8,0,1.5-0.1,2.3-0.2l0.3,0c0.5-0.1,0.9-0.1,1.5-0.2l0.1,0l-0.1,0l0.5,0
			c0.3,0,0.6-0.1,0.9-0.1c0.5-0.1,1-0.1,1.5-0.1l1.1,0h0.7h0.4c0.4,0,0.7,0,1.1,0h0.1c0.3,0,0.6,0,0.9,0c0.3,0,0.7,0,1,0
			c0.6,0,1.2,0,1.7-0.1c0.5,0,1.1-0.1,1.6-0.2c0.4-0.1,0.9-0.1,1.4-0.2c0.1,0,0.2,0,0.3-0.1c0.2,0,0.3-0.1,0.5-0.1
			c0.3,0,0.6-0.1,0.9-0.1c1.6-0.2,3.2-0.3,4.8-0.3c0.3,0,0.6,0,1,0h2.2c0.7,0,1.5,0,2.2,0c0.4,0,0.9,0,1.3,0l0.6,0
			c0.3,0,0.6,0,0.9,0c0.5,0,1,0,1.5,0c0.6,0,1.2,0,1.8,0l0.6,0c0.4,0,0.9,0,1.3,0c0.3,0,0.6,0,0.9,0l0.9,0c0.6,0,1,0,1.6,0.1
			s1,0.1,1.6,0.1c0.6,0,1.1,0,1.7,0c0.4,0,0.8,0,1.3,0c0.6,0,1.2,0,1.7,0c0.5,0,1,0,1.6,0c0.4,0,0.8,0,1.2,0h1c0.3,0,0.5,0,0.8,0
			c0.4,0,0.8,0,1.2,0l0.6,0c0.7,0,1.4,0,2,0h0.2c0.6,0,1.2,0,1.8,0c0.7,0,1.4,0,2-0.1c0.5,0,1.1-0.1,1.6-0.1c0.7,0,1.3-0.1,2-0.1
			h0.2c0.5,0,1,0,1.5-0.1c0.6,0,1.2-0.1,1.7-0.2c0.3,0,0.7-0.1,1-0.1c0.5,0,1-0.1,1.5-0.1c0.4,0,0.8-0.1,1.3-0.1c0.2,0,0.4,0,0.6,0
			c0.3,0,0.5,0,0.8,0l0,0c0.4,0,0.8,0,1.2,0.1c0.3,0.1,0.7,0.1,1,0.2l0.1,0l0.1,0c0.2,0,0.3,0.1,0.5,0.1c0.2,0,0.5,0.1,0.7,0.1
			c0.2,0,0.4,0.1,0.7,0.1c0.1,0,0.2,0,0.3,0c0.2,0,0.4,0,0.6,0c0.3,0,0.6-0.1,0.9-0.1c0.2,0,0.4-0.1,0.6-0.1c0.3,0,0.5,0,0.8,0
			c0.4,0,0.8,0,1.2,0l0.6,0c0.4,0,0.8,0,1.3,0c0.2,0,0.4,0,0.6,0h0.3c0.5,0,1,0,1.5,0h0.1c0.5,0,1.1,0,1.6,0h0.1c0.6,0,1.1,0,1.7,0
			c0.2,0,0.4,0,0.5,0l0.3,0l0.4,0c0.2,0,0.4,0,0.6,0c0.3,0,0.6,0,0.8-0.1c0.4,0,0.7-0.1,1.1-0.1c0.6,0,1.2-0.1,1.8-0.1h0.1
			c0.7,0,1.3,0,1.9,0.1c0.3,0,0.5,0,0.8,0.1c0.4,0,0.8,0.1,1.2,0.1c0.6,0,1.1,0.1,1.7,0.1c0.6,0,1.1,0.1,1.6,0.2
			c0.3,0,0.6,0.1,0.8,0.2l0.4,0.1c0.3,0,0.5,0.1,0.8,0.1c0.3,0,0.4,0.1,0.6,0.1c0.3,0,0.5,0.1,0.8,0.2c0.2,0,0.3,0.1,0.5,0.1
			c0.4,0.1,0.8,0.1,1.2,0.2c0.2,0,0.4,0,0.5,0c0.3,0,0.6,0,0.9-0.1c0.5-0.1,0.9-0.1,1.4-0.2l0.1,0c1.1-0.3,2.3-0.5,3.6-0.6
			c0.3,0,0.6,0,0.8-0.1c0.2,0,0.4,0,0.6,0l0.4,0c0.4,0,0.9,0,1.3,0h0.2c0.6,0,1.2,0.1,1.8,0.1c0.5,0,1.1,0.1,1.6,0.1
			c0.4,0,1,0,1.5,0.1c0.4,0,0.9,0.1,1.4,0.2c0.5,0.1,1,0.1,1.5,0.2c0.5,0,1,0.1,1.5,0.1c0.4,0,0.9,0,1.3,0h0.7c0.3,0,0.5,0,0.8,0
			s0.5,0,0.8,0h0.5l-0.2,0l0.4,0h0.4l0.6,0l0.4,0h0l0.4,0c0.8,0,1.5,0,2.3,0c1.1,0,2.2,0,3.3,0c0.5,0,1,0,1.5,0h0.1c0.5,0,1,0,1.5,0
			c0.5,0,0.9,0,1.4-0.1c0.4,0,0.8-0.1,1.1-0.2l0.4,0c0.1,0,0.3,0,0.4,0c0.3,0,0.7-0.1,1-0.1l0.1,0l-0.1,0c0.8-0.1,1.5-0.2,2.3-0.2
			h0.1c0.4,0,0.7,0,1.1-0.1c0.3,0,0.7-0.1,1-0.1l0.2,0l0.2,0c0.8-0.1,1.6-0.2,2.3-0.4c0.4-0.1,0.8-0.2,1.1-0.3l0.2-0.1
			c0.3-0.1,0.6-0.2,0.9-0.3c0.4-0.1,0.8-0.2,1.1-0.2c0.3-0.1,0.7-0.1,1-0.2c0.7-0.2,1.4-0.3,2.1-0.5c0.3-0.1,0.6-0.2,0.9-0.3
			c0.3-0.1,0.6-0.2,0.9-0.3l0.2-0.1c0.5-0.2,1.1-0.4,1.7-0.5c0.6-0.1,1.2-0.3,1.9-0.4l0.3,0c0.2,0,0.5-0.1,0.7-0.1
			c0.1,0,0.3-0.1,0.4-0.1c0.5-0.1,0.9-0.2,1.4-0.2c0.2,0,0.5-0.1,0.7-0.1c0.3,0,0.5-0.1,0.8-0.2c0.6-0.2,1-0.4,1.3-0.7
			c0.1-0.1,0.2-0.2,0.3-0.3l0.1-0.1c0.1-0.1,0.3-0.2,0.4-0.4l0.2-0.2c0.1-0.1,0.2-0.1,0.3-0.2c0.1-0.1,0.3-0.2,0.4-0.4
			c0.3-0.2,0.6-0.4,1-0.6c0.3-0.2,0.7-0.4,1.1-0.6c0.4-0.2,0.8-0.3,1.2-0.5c0.4-0.2,0.9-0.3,1.3-0.5c0.2-0.1,0.5-0.2,0.7-0.2
			l0.7-0.2l0.1,0c0.4-0.1,0.8-0.3,1.2-0.4c0.5-0.1,0.9-0.2,1.4-0.2H501c0.3,0,0.6-0.1,0.9-0.1c0.3-0.1,0.6-0.1,0.8-0.2l0.2,0
			c0.2,0,0.4-0.1,0.6-0.1c0.4-0.1,0.7-0.2,1-0.2c0.4-0.1,0.8-0.2,1.2-0.4l0.2-0.1c0.5-0.2,1-0.4,1.5-0.6c0.3-0.1,0.6-0.3,0.8-0.4
			c0.2-0.2,0.4-0.3,0.6-0.5l0.1-0.1l0.3-0.3c0.3-0.3,0.7-0.6,0.9-0.9c0.1-0.1,0.2-0.2,0.3-0.3c0.1-0.1,0.2-0.2,0.2-0.2
			c0.2-0.1,0.3-0.3,0.5-0.5c0.2-0.2,0.3-0.4,0.4-0.7c0.1-0.2,0.2-0.4,0.3-0.6c0.1-0.2,0.3-0.4,0.4-0.6c0.1-0.1,0.2-0.3,0.3-0.4
			c0.1-0.1,0.2-0.2,0.4-0.4c0.2-0.2,0.5-0.3,0.8-0.5l0.3-0.2c0.2-0.1,0.4-0.2,0.5-0.3c0.3-0.2,0.5-0.4,0.6-0.6l0,0
			c0-0.1,0.1-0.1,0.1-0.2l0-0.1c0-0.1,0.1-0.2,0.2-0.3c0.2-0.2,0.3-0.4,0.6-0.7c0.3-0.2,0.6-0.5,0.8-0.7s0.5-0.5,0.8-0.7
			c0.3-0.2,0.5-0.4,0.8-0.7c0.3-0.3,0.5-0.5,0.7-0.7c0.1-0.1,0.2-0.3,0.3-0.4c0.1-0.1,0.1-0.3,0.2-0.4c0.1-0.3,0.1-0.6,0.1-0.9
			c0-0.1-0.1-0.3-0.1-0.4l0-0.1c0-0.1-0.1-0.2-0.1-0.4c-0.3-0.6-0.6-1.1-0.9-1.7v0c0-0.1-0.1-0.1-0.1-0.2c-0.2-0.4-0.2-0.9,0-1.3
			c0.1-0.2,0.2-0.4,0.4-0.7l0,0c0.2-0.2,0.3-0.5,0.6-0.7c0.1-0.1,0.1-0.1,0.2-0.2l0.1-0.1l0.1-0.1c0.1-0.1,0.2-0.2,0.2-0.3
			c0.2-0.3,0.4-0.5,0.5-0.8c0.1-0.2,0.2-0.5,0.2-0.8s0.1-0.6,0.1-0.9c0-0.2,0-0.5,0-0.7v-0.1c0-0.2,0-0.3,0-0.5c0-0.1,0-0.2,0-0.3
			c0-0.2,0-0.3-0.1-0.5l0-0.2c0-0.2,0-0.4,0-0.6c0-0.2,0-0.3,0-0.5v-0.3c0-0.4,0-0.8,0-1.3v0c0-0.3,0-0.6,0-0.8c0-0.1,0-0.3,0-0.4
			v-0.1c0-0.2,0-0.4,0-0.6l0-0.3c0-0.1,0-0.3,0-0.4c-0.1-0.5-0.1-0.9-0.1-1.3v-0.1c0-0.4,0-0.8,0-1.2c0-0.2,0-0.5,0-0.7v-0.1v-0.1
			c0-0.1,0-0.2,0-0.2s0-0.1,0-0.2s0-0.1,0-0.2c0-0.1,0-0.1,0-0.2v-0.1c0-0.1,0-0.1,0-0.2c0-0.1,0-0.1,0-0.2c0-0.2,0-0.4-0.1-0.6
			l0-0.3c0-0.2-0.1-0.4-0.1-0.6l0-0.2l0-0.2c0-0.2-0.1-0.4-0.1-0.6l0-0.2c-0.1-0.5-0.2-1-0.3-1.5l0-0.3c0-0.1,0-0.3-0.1-0.4v-0.1
			c0-0.1,0-0.1,0-0.2V201c0-0.1,0-0.2,0-0.2s0-0.1,0-0.2v-0.1v-0.1c0-0.1,0-0.2,0-0.2c0-0.1,0-0.2-0.1-0.4l0-0.1l0-0.1
			c0-0.2-0.1-0.4-0.2-0.6c0.1-0.1,0.2-0.1,0.3-0.2c0.1-0.1,0.2-0.3,0.2-0.4c0-0.1,0-0.3,0-0.4c-0.1-0.1-0.1-0.2-0.2-0.3l-0.1-0.1
			l-0.1-0.1c-0.2-0.2-0.3-0.3-0.5-0.5c-0.1-0.1-0.2-0.3-0.3-0.4c0,0-0.1-0.1-0.1-0.1c-0.1-0.1-0.1-0.2-0.2-0.3v0c0,0,0-0.1,0.1-0.1
			c0.1-0.1,0.2-0.2,0.3-0.3c0.1-0.1,0.2-0.1,0.3-0.2c0.1,0,0.2-0.1,0.3-0.1l0.2-0.1c0.4-0.2,0.8-0.5,0.9-0.8
			c0.1-0.1,0.2-0.2,0.2-0.4c0.1-0.2,0.2-0.3,0.2-0.5c0-0.3,0-0.7-0.2-1c0-0.1-0.1-0.1-0.1-0.2c0,0,0-0.1-0.1-0.1
			c0-0.1-0.1-0.1-0.1-0.2c0-0.1-0.1-0.1-0.1-0.2c-0.1-0.3-0.3-0.5-0.5-0.7l-0.1-0.1c-0.1-0.1-0.2-0.2-0.3-0.3s-0.2-0.2-0.4-0.3
			c-0.1-0.1-0.1-0.1-0.2-0.2c-0.2-0.1-0.3-0.3-0.5-0.4c-0.1-0.1-0.2-0.2-0.2-0.4c0-0.1,0-0.2,0-0.3l0-0.1c0-0.1,0-0.1,0-0.2l0,0
			l0-0.1c0-0.1,0.1-0.3,0.1-0.4c0-0.2-0.1-0.4-0.3-0.6c-0.3-0.2-0.7-0.5-1.2-0.7l-0.1-0.1c-0.4-0.2-0.8-0.4-1.2-0.5
			c-0.1,0-0.3-0.1-0.4-0.1l-0.1,0l-0.1,0l-0.3-0.1l-0.1,0l-0.1,0c-0.1-0.1-0.1-0.1-0.1-0.2c0-0.1-0.1-0.1-0.1-0.2l0-0.1
			c0-0.1-0.1-0.1-0.1-0.2c-0.1-0.1-0.1-0.2-0.1-0.3c0-0.1,0-0.3,0-0.4c0,0,0,0,0-0.1c0.2-0.2,0.4-0.4,0.7-0.7
			c0.1-0.1,0.2-0.2,0.3-0.3c0.2-0.2,0.4-0.4,0.7-0.6l0.2-0.2c0.2-0.1,0.4-0.2,0.5-0.3c0.3-0.2,0.5-0.4,0.7-0.5
			c0.2-0.2,0.3-0.3,0.5-0.5c0.2-0.2,0.3-0.4,0.4-0.6c0.1-0.2,0.1-0.3,0.1-0.5l0-0.1c0-0.2,0-0.4,0-0.6c0-0.1-0.1-0.3-0.1-0.4
			c-0.1-0.2-0.4-0.4-0.7-0.6c-0.1-0.1-0.2-0.1-0.4-0.2l-0.1,0c-0.2-0.1-0.4-0.1-0.5-0.2c-0.1,0-0.3-0.1-0.4-0.1l-0.1,0
			c-0.1,0-0.2-0.1-0.4-0.1l-0.1,0c-0.1,0-0.2,0-0.3-0.1c0,0-0.1,0-0.1,0c-0.1,0-0.1-0.1-0.2-0.1l0,0c-0.1-0.1-0.1-0.1-0.1-0.2
			c0-0.1,0-0.1,0-0.2c0.2-0.4,0.4-0.8,0.7-1.1c0.2-0.2,0.3-0.4,0.5-0.7c0.2-0.2,0.4-0.5,0.6-0.7l0,0c0.1-0.1,0.2-0.2,0.3-0.3
			c0.1-0.1,0.3-0.2,0.4-0.3c0.2-0.1,0.4-0.2,0.6-0.3c0.1-0.1,0.3-0.1,0.4-0.2l0.3-0.1c0.3-0.1,0.5-0.3,0.6-0.4
			c0.1-0.1,0.2-0.2,0.3-0.2c0.1-0.1,0.2-0.2,0.3-0.2c0.2-0.2,0.4-0.4,0.6-0.6c0.2-0.2,0.4-0.5,0.5-0.7c0.2-0.4,0.3-0.7,0.4-1.1
			c0-0.1,0-0.1,0-0.2c0-0.1,0-0.1,0.1-0.2c0-0.1,0.1-0.1,0.1-0.2c0-0.1,0-0.2,0.1-0.3c0-0.1,0-0.2,0-0.3c0-0.1,0-0.2,0-0.2
			c0-0.1,0-0.2-0.1-0.3l0-0.1c0-0.1-0.1-0.2-0.2-0.3c0-0.1-0.1-0.2-0.1-0.2c0,0,0-0.1,0-0.1v-0.2c0-0.1,0-0.1,0-0.2s0-0.1,0-0.2
			c0.1-0.2,0.2-0.3,0.3-0.5l0,0l0,0l0.1-0.1c0.1-0.1,0.2-0.2,0.3-0.3c0.3-0.3,0.6-0.7,0.7-1c0-0.1,0.1-0.2,0.1-0.4
			c0-0.2,0-0.3-0.1-0.5c0-0.1-0.1-0.2-0.2-0.2l-0.1-0.1l-0.1-0.1c-0.1-0.1-0.1-0.1-0.2-0.2c-0.3-0.4-0.5-0.8-0.6-1.1l0,0.1
			c-0.1-0.2-0.1-0.4-0.2-0.7l0-0.1l0-0.1c0-0.1-0.1-0.3-0.1-0.4c-0.1-0.2-0.1-0.4-0.2-0.6c0-0.2,0-0.5,0-0.7c0-0.2,0-0.4,0-0.7
			l0-0.2c0-0.1,0-0.3,0-0.4l0-0.2c0-0.2,0-0.4-0.1-0.7c0-0.2-0.1-0.3-0.1-0.5l0-0.2l0-0.2c0-0.2-0.1-0.4-0.1-0.6
			c0-0.5,0.1-0.9,0.1-1.4l0-0.3c0-0.2,0.1-0.3,0.1-0.4c0-0.1,0-0.2,0.1-0.3c0-0.3,0.1-0.5,0-0.8l0-0.3c-0.1-0.4-0.1-0.9-0.1-1.4
			c0-0.3,0-0.7,0-1v-0.3c0-0.2,0-0.4,0-0.5c0-0.3,0.1-0.5,0.1-0.8c0-0.1,0.1-0.3,0.1-0.4c0-0.1,0.1-0.3,0.1-0.4
			c0-0.2,0.1-0.5,0.1-0.7v-0.1c0-0.2,0-0.3,0.1-0.5c0-0.1,0-0.2,0.1-0.3c0-0.4,0-0.7-0.1-1.1c0-0.1,0-0.3-0.1-0.4c0-0.1,0-0.2,0-0.3
			c0-0.1,0-0.3,0-0.4c0-0.1,0-0.2,0-0.2c0-0.1,0-0.2-0.1-0.3c0-0.2,0-0.4,0.1-0.6c0-0.2,0.1-0.4,0.1-0.6c0-0.1,0-0.2,0.1-0.2
			c0-0.1,0.1-0.2,0.1-0.4c0.1-0.2,0-0.4,0-0.7c-0.1-0.2-0.3-0.5-0.5-0.7c-0.2-0.2-0.5-0.3-0.8-0.5l-0.1,0c-0.2-0.1-0.3-0.2-0.5-0.4
			c-0.1-0.1-0.1-0.1-0.2-0.1c-0.2-0.2-0.3-0.3-0.5-0.4c-0.1-0.1-0.2-0.2-0.2-0.3c0-0.1,0-0.3,0-0.4v-0.1c0-0.1,0-0.2,0-0.2
			c0-0.1,0-0.2,0-0.3c0,0,0-0.1,0-0.1v-0.1l0.1-0.2c0.1-0.2,0.1-0.4,0.2-0.6c0-0.1,0-0.2,0-0.3c0-0.1,0-0.3,0-0.4
			c0-0.2,0.1-0.3,0.2-0.5c0,0,0.1-0.1,0.1-0.1c0.3-0.2,0.5-0.3,0.7-0.4c0.7-0.4,1-0.8,1.1-1.3v0c0-0.1,0-0.2,0-0.3
			c0-0.1,0-0.2-0.1-0.3c-0.1-0.1-0.2-0.2-0.3-0.3l-0.1-0.1c-0.3-0.2-0.6-0.4-0.8-0.6c-0.1-0.1-0.1-0.1-0.2-0.2
			c-0.1-0.1-0.1-0.1-0.2-0.2l0,0c0,0-0.1-0.1-0.1-0.1c0-0.1,0-0.2-0.1-0.2c0-0.1,0-0.2,0-0.3c0.1-0.3,0.2-0.6,0.4-0.8
			c0.2-0.3,0.4-0.5,0.6-0.8l0,0c0.2-0.3,0.4-0.6,0.5-0.9c0.1-0.3,0.2-0.6,0.2-1c0.1-0.6,0.1-1.3,0-1.9c-0.1-0.6-0.1-1.3,0-1.9
			c0.1-0.2,0.1-0.4,0.2-0.6c0-0.1,0.1-0.2,0.1-0.3c0-0.2,0.1-0.4,0.2-0.5l0.1-0.2c0.2-0.5,0.3-1,0.4-1.4l0-0.2c0-0.2,0-0.3,0.1-0.5
			c0.1-0.2,0.1-0.5,0.1-0.8c0-0.2,0-0.5-0.1-0.7c-0.1-0.3-0.1-0.6-0.1-0.9c0-0.1,0-0.2,0-0.3c0-0.2,0.1-0.4,0.1-0.6
			c0-0.2,0-0.4,0-0.6c0-0.1,0-0.2,0-0.3c0-0.3,0-0.6,0.1-0.9s0-0.6,0-0.9l0-0.2c0-0.2-0.1-0.4-0.1-0.6v-0.2c0-0.2,0-0.5,0-0.7
			c0-0.3,0-0.6-0.1-1c0-0.2,0-0.5,0-0.7c0-0.2-0.1-0.4-0.1-0.6l0-0.1c0-0.1,0-0.2-0.1-0.3c0-0.2-0.1-0.3-0.1-0.5
			c-0.1-0.3-0.2-0.5-0.3-0.7c-0.1-0.2-0.2-0.4-0.3-0.7l0-0.1c-0.1-0.2-0.3-0.5-0.4-0.7c-0.1-0.2-0.2-0.5-0.4-0.7
			c-0.1-0.1-0.2-0.3-0.3-0.4c-0.1-0.1-0.2-0.2-0.2-0.3c0-0.1-0.1-0.1-0.1-0.2c0-0.1-0.1-0.1-0.1-0.2c-0.1-0.1-0.2-0.2-0.3-0.3
			l-0.1-0.1c-0.1-0.1-0.2-0.2-0.3-0.3l0,0c-0.1-0.1-0.2-0.2-0.4-0.3l-0.1,0c-0.2-0.1-0.5-0.2-0.8-0.3l-0.1,0c-0.1,0-0.1-0.1-0.2-0.1
			c-0.1,0-0.1-0.1-0.1-0.1c0-0.1-0.1-0.1-0.1-0.2c0-0.2-0.1-0.3-0.1-0.5l0-0.2c0-0.2,0-0.3-0.1-0.5c0-0.2-0.1-0.3-0.1-0.5
			c0-0.2-0.1-0.4-0.1-0.7c-0.1,0-0.2-0.1-0.2-0.2l0,0c-0.1,0.1-0.3,0.1-0.4,0.1c-0.1,0-0.2,0-0.3,0c-0.1,0.1-0.2,0.2-0.5,0.3
			c-0.1,0-0.2,0-0.3,0.1c0,0.1,0,0.1-0.1,0.2c-0.1,0.2-0.1,0.4-0.2,0.6c0,0.1-0.1,0.2-0.1,0.3c0,0.2-0.1,0.3-0.2,0.5
			c-0.1,0.1-0.2,0.2-0.4,0.2c-0.1,0-0.3,0-0.4,0c-0.2,0-0.3,0-0.5-0.1c-0.1,0-0.2-0.1-0.2-0.1l0,0c-0.2,0.1-0.5,0.1-0.8,0.1
			c-0.2,0-0.4-0.1-0.5-0.2c-0.1-0.1-0.1-0.1-0.2-0.2c-0.1-0.1-0.1-0.2-0.2-0.2c-0.1-0.1-0.1-0.2-0.2-0.3c-0.1-0.2-0.2-0.4-0.2-0.5
			c0-0.1-0.1-0.2-0.1-0.3c0,0-0.1,0-0.1,0.1l-0.2,0.1c-0.2,0-0.4,0.1-0.6,0c-0.5,0-0.7-0.3-0.8-0.5c-0.1-0.1-0.1-0.2-0.2-0.3l-0.1,0
			c-0.1,0-0.2,0-0.3,0.1c-0.3,0-0.6,0-0.8,0c-0.1,0-0.2,0-0.4-0.1c-0.1,0-0.3,0-0.4,0c-0.4-0.1-0.7-0.3-0.5-0.5
			c0.1-0.2,0.5-0.3,0.9-0.3l0.1,0c0.1,0,0.2,0,0.3,0c0.1,0,0.2,0,0.3,0.1c0,0,0.1,0,0.1,0c0,0,0.1,0,0.1-0.1
			c0.1-0.1,0.3-0.1,0.4-0.2c0.2-0.1,0.6-0.1,0.9-0.1c0.2,0,0.4,0.1,0.5,0.2l0.1-0.1c0-0.1,0.1-0.1,0.1-0.2c0.1-0.1,0.1-0.2,0.3-0.2
			c0.1-0.1,0.3-0.1,0.5-0.1c0.3,0,0.6,0,0.7,0.1c0.3,0.2,0.4,0.4,0.4,0.6l0.1,0.2c0.1-0.4,0.1-0.9,0.2-1.3c0-0.2,0.3-0.4,0.8-0.4
			c0.5,0,0.8,0.2,0.8,0.4c0,0.3,0,0.5,0,0.8v0.1c0.1,0,0.1-0.1,0.2-0.1c0.2,0,0.4-0.1,0.6,0l0.1-0.3c0,0,0-0.1,0-0.1l0-0.1
			c0-0.1,0-0.1,0.1-0.2c0.1-0.1,0.2-0.2,0.4-0.2c0.2,0,0.4-0.1,0.6,0c0.1,0,0.2,0,0.2,0.1c0-0.1,0-0.2,0-0.3l0-0.2
			c0-0.4,0-0.8,0-1.2c0.1-0.3,0.2-0.7,0.3-1c0.2-0.6,0.4-1.2,0.5-1.8c0.1-0.3,0.1-0.5,0.2-0.8c0.1-0.2,0.1-0.4,0.2-0.7l0-0.2
			c0.1-0.3,0.2-0.5,0.3-0.8c0.1-0.3,0.3-0.6,0.5-0.8c0.2-0.2,0.4-0.4,0.7-0.6c0.2-0.1,0.4-0.2,0.6-0.3c0.2-0.1,0.4-0.2,0.6-0.4
			c0.4-0.3,0.7-0.6,0.9-0.9c0.1-0.1,0.1-0.2,0.1-0.3c0-0.1,0.1-0.1,0.1-0.2c0.1-0.2,0.2-0.3,0.3-0.5l0-0.1c0.2-0.4,0.4-0.7,0.5-1.1
			c0.2-0.5,0.3-0.9,0.3-1.4c0-0.5,0-0.9-0.1-1.3c0-0.2-0.1-0.5-0.1-0.7c0-0.2,0-0.4,0-0.6c0-0.2-0.1-0.4-0.1-0.7l-0.1-0.4
			c0-0.4,0-0.7,0.1-1.1c0.2-0.6,0.5-1.1,0.9-1.7c0.2-0.2,0.3-0.5,0.4-0.8c0.1-0.3,0.2-0.6,0.2-0.9c0-0.3,0-0.5-0.1-0.8
			c-0.1-0.3-0.2-0.6-0.3-0.9c-0.1-0.2-0.2-0.3-0.3-0.5c-0.1-0.1-0.1-0.2-0.2-0.3c-0.2-0.3-0.3-0.6-0.4-0.9c0-0.1,0-0.2-0.1-0.3
			c0-0.1,0-0.2-0.1-0.3c-0.1-0.3-0.1-0.5-0.1-0.8c0-0.2,0-0.4,0-0.6v-0.2v-0.3c0-0.2,0-0.4,0-0.6c0-0.5,0-1,0-1.5v-0.2
			c0-0.4,0-0.9,0-1.3l0-0.2c0-0.6,0.1-1.1,0.1-1.7c0-0.2,0-0.4,0-0.6v-0.2c0-0.1,0-0.3,0-0.4c0-0.1,0-0.2,0-0.4c0-0.2,0-0.5,0-0.8
			c0-0.3,0-0.6,0-0.9c0-0.3,0-0.6,0.1-0.9c0-0.3,0-0.6,0.1-0.9c0-0.2,0-0.5,0-0.7V61c0-0.3,0-0.6,0-0.8c0-0.3,0-0.5,0-0.8
			c0-0.2,0-0.4,0-0.6c0-0.1,0-0.2,0-0.3c0-0.5,0.1-1,0.2-1.4l0-0.1c0-0.1,0-0.3,0.1-0.4c0-0.1,0-0.2,0-0.2l0-0.3
			c0-0.1,0-0.3,0.1-0.4c0-0.2,0.1-0.4,0.1-0.5c0-0.3,0.1-0.6,0.1-0.9c0-0.5,0-1-0.1-1.6l0-0.2c0-0.2-0.1-0.4-0.1-0.5
			c0-0.1,0-0.3,0-0.4v-0.2v-0.1c0-0.4,0-0.9,0.1-1.3c0.1-0.2,0.1-0.4,0.2-0.5l0.1-0.2c0.1-0.1,0.1-0.2,0.2-0.4
			c0.1-0.4,0.2-0.9,0.3-1.3c0-0.2,0.1-0.5,0.1-0.7c0-0.2,0.1-0.4,0.1-0.6c0-0.3,0.1-0.7,0.2-1.1c0.1-0.3,0.1-0.6,0.2-0.8
			c0-0.3,0-0.7-0.1-1C523.7,42.4,523.7,41.8,523.8,41.1z M451.6,210.3c-0.5,0.3-1.3,0.4-2.2,0.4c-0.3,0-0.6,0-0.9-0.1
			c-0.3-0.1-0.6-0.1-0.9-0.2l-0.2-0.1l-0.1,0l-0.2,0.1l0.1,0l-0.5,0.3c-0.4,0.3-0.9,0.6-1.5,0.9c-0.7,0.4-1.5,0.7-2.3,1
			c-0.5,0.2-1.1,0.3-1.7,0.3c-0.5,0-1-0.1-1.3-0.3c-0.3-0.2-0.5-0.4-0.5-0.6c0,0,0,0,0-0.1c0-0.2,0.1-0.4,0.3-0.5
			c0.1-0.1,0.3-0.2,0.5-0.3c0.2-0.1,0.4-0.1,0.5-0.2l0.3-0.1c0.2-0.1,0.4-0.2,0.6-0.2c0.1-0.1,0.2-0.1,0.3-0.2
			c0.4-0.3,0.7-0.5,1-0.8c0.3-0.3,0.7-0.6,1.2-0.8c0.4-0.2,0.8-0.5,1.2-0.7l0.4-0.2c0.1-0.1,0.2-0.1,0.2-0.2
			c0.1-0.2,0.2-0.4,0.3-0.6c0.1-0.2,0.2-0.4,0.3-0.6c0.2-0.3,0.5-0.6,0.9-0.9c0.2-0.2,0.6-0.3,1-0.4c0.2-0.1,0.5-0.1,0.8-0.1
			c0.2,0,0.3,0,0.5,0c0.3,0,0.6,0.1,0.8,0.2c0.2,0.1,0.3,0.2,0.4,0.3l0.1,0.1c0.1,0.1,0.2,0.2,0.2,0.3c0,0.1,0.1,0.2,0.1,0.3l0,0.1
			c0.1,0.1,0.1,0.2,0.2,0.3c0.1,0.3,0.2,0.6,0.3,1c0,0.1,0,0.2,0,0.4l0,0.3c0.1,0.1,0.1,0.2,0.2,0.4l0.1,0.1
			c0.1,0.2,0.2,0.4,0.2,0.6C452.4,209.7,452.2,210,451.6,210.3z M475.2,186.5c-0.2,0.2-0.5,0.4-0.9,0.6c-0.6,0.3-1.3,0.6-2.1,0.8
			c-0.1,0-0.1,0-0.2,0.1l-0.6,0.2l-0.2,0.1c-0.1,0.1-0.3,0.1-0.4,0.1l-0.1,0c-0.6,0.2-1.2,0.4-1.8,0.6l-0.6,0.3l-0.6,0.3
			c-0.2,0.1-0.4,0.2-0.6,0.3l-0.6,0.4c-0.7,0.5-1.6,1-2.5,1.4l-1,0.4c-0.8,0.4-1.8,0.8-2.6,1.2c-0.5,0.3-1.2,0.6-1.9,0.9l-0.6,0.3
			c-0.2,0.2-0.4,0.3-0.7,0.5c-0.4,0.3-0.9,0.6-1.4,0.9c-0.5,0.3-1,0.5-1.7,0.7c-0.5,0.2-1.1,0.3-1.8,0.4c-0.5,0.1-1.1,0.1-1.6,0.1
			c-0.2,0-0.4,0-0.6,0c-0.3,0-0.7,0-1-0.1l-0.3,0c-0.4,0-0.7,0-1.1-0.1c-0.6-0.1-1.2-0.3-1.7-0.5c-0.5-0.3-0.8-0.6-0.9-0.9l0-0.1
			c-0.2-0.2-0.2-0.3-0.3-0.5c0,0,0-0.1,0-0.1c0,0,0-0.1,0-0.1c0-0.2,0.1-0.5,0.4-0.7l0.3-0.2c0.1-0.2,0.3-0.3,0.4-0.5
			c0.3-0.3,0.6-0.5,1-0.8c0.5-0.3,1-0.6,1.6-0.8c0.4-0.2,0.8-0.3,1.3-0.5l0.3-0.1c0.4-0.1,0.8-0.3,1.2-0.5c0.8-0.3,1.7-0.6,2.6-0.9
			c0.6-0.2,1.2-0.4,1.9-0.5c0.8-0.2,1.6-0.5,2.4-0.7c0.7-0.2,1.4-0.4,2.1-0.5c0.6-0.1,1.2-0.3,1.7-0.4l0.3-0.1l0.3-0.1
			c0.2-0.1,0.3-0.2,0.5-0.3c0.1-0.1,0.3-0.2,0.5-0.2c0.1,0,0.2-0.1,0.3-0.1l0.6-0.3l0.4-0.2c0.4-0.3,0.8-0.5,1.3-0.7
			c0.6-0.2,1.2-0.5,1.8-0.7l0.2-0.1c0.6-0.3,1.3-0.5,2.1-0.6c0.3,0,0.6-0.1,0.9-0.1c0.5,0,1,0,1.5,0.1c0.8,0.1,1.5,0.3,2,0.5
			C475.8,185.3,475.9,186,475.2,186.5L475.2,186.5z"/>
	</g>
</g>
</svg>
