<svg xmlns="http://www.w3.org/2000/svg" width="201.008" height="228.227" viewBox="0 0 201.008 228.227">
  <defs>
    <style>
      .a {
        fill: #eddcc4;
      }
    </style>
  </defs>
  <g>
    <path class="a" d="M200.975,10.209l0,.01,0-.013h0Z"/>
    <path class="a" d="M94.536.665,94.51.654h0Z"/>
    <g>
      <path class="a" d="M185.584,170.645a3.4,3.4,0,0,0-.451-.036,1.884,1.884,0,0,0-.28.02,3.085,3.085,0,0,0-.625.174l-.056.019c-.143.042-.352.108-.539.179a3.918,3.918,0,0,0-.4.2l-.107.056-.175.093-.091.038c-.05.02-.1.041-.141.062s-.107.053-.159.076l-.092.023-.093.025c-.168.043-.347.081-.519.117-.228.048-.436.091-.63.145-.236.067-.478.13-.719.193-.19.05-.379.1-.565.15-.275.077-.531.168-.779.256-.138.05-.254.091-.372.131l-.086.027c-.145.045-.276.086-.393.132a3.5,3.5,0,0,0-.486.233,1.705,1.705,0,0,0-.3.218.832.832,0,0,0-.135.143l-.083.049a.25.25,0,0,0-.133.194c0,.01,0,.021,0,.032l.01.03a.165.165,0,0,0,.032.076.279.279,0,0,0,.049.054l.008.022a.444.444,0,0,0,.273.253,2.217,2.217,0,0,0,.5.13,2.68,2.68,0,0,0,.322.022l.089,0,.306.014c.06,0,.12,0,.179,0a4.621,4.621,0,0,0,.485-.026,3.01,3.01,0,0,0,.532-.1,2.555,2.555,0,0,0,.5-.188,4.765,4.765,0,0,0,.436-.259l.2-.124.184-.095c.209-.083.411-.177.573-.25.248-.12.529-.235.778-.335l.292-.121a6.182,6.182,0,0,0,.755-.388l.169-.1.182-.085.174-.075.176-.076c.195-.049.389-.113.545-.164l.041-.013.118-.041.067-.022.192-.064.065-.02a6.377,6.377,0,0,0,.63-.225,1.3,1.3,0,0,0,.257-.157c.194-.164.157-.337-.1-.475A1.936,1.936,0,0,0,185.584,170.645Z"/>
      <path class="a" d="M200.975,10.209l0,.01,0-.013h0Z"/>
      <path class="a" d="M94.536.665,94.51.654h0Z"/>
      <path class="a" d="M200.968,33.853l0,.042,0-.033v-.009h0l0-.023,0-.029a4.343,4.343,0,0,0,.027-.822,3.209,3.209,0,0,0-.087-.514,5.044,5.044,0,0,0-.172-.493c-.072-.183-.149-.365-.228-.544,0-.052-.011-.1-.019-.156a2.615,2.615,0,0,0-.269-.786c-.116-.23-.232-.459-.346-.689l-.047-.095-.047-.1-.019-.065-.019-.066a.261.261,0,0,0-.089-.134c-.047-.1-.092-.2-.133-.311a1.568,1.568,0,0,1-.063-.269,1.5,1.5,0,0,1-.009-.232c0-.021.011-.041.017-.062l.088-.2c.053-.119.107-.243.154-.37.02-.063.038-.125.056-.188.014-.048.027-.095.042-.143.036-.114.076-.225.118-.338l0,.009a.782.782,0,0,0,.034-.079,1.645,1.645,0,0,0,.062-.239,1.517,1.517,0,0,0,.008-.431.927.927,0,0,0-.051-.206c-.026-.073-.053-.143-.085-.212-.043-.1-.093-.189-.143-.281-.022-.042-.046-.086-.069-.127l-.152-.286-.244-.465c-.08-.153-.143-.281-.2-.4s-.118-.284-.181-.456a2.9,2.9,0,0,1-.1-.342,2.394,2.394,0,0,1-.045-.292c-.009-.1-.021-.2-.032-.3l-.007-.065c-.015-.173-.029-.346-.036-.521v-.042c0-.071-.006-.143-.006-.216a1.869,1.869,0,0,1,.019-.248,3.048,3.048,0,0,1,.062-.341c.026-.112.053-.224.083-.335a3.349,3.349,0,0,0,.077-.366,1.911,1.911,0,0,0,.015-.378,3.281,3.281,0,0,0-.153-.834,3.819,3.819,0,0,0-.153-.415,3.207,3.207,0,0,0-.194-.361l-.042-.07c-.047-.083-.1-.164-.146-.246a7.107,7.107,0,0,1-.36-.644l-.14-.3q-.1-.215-.2-.421c-.1-.211-.236-.489-.385-.767-.135-.25-.294-.493-.436-.706l-.1-.151c-.062-.1-.124-.194-.19-.29a5.333,5.333,0,0,0-.345-.448L196,14.835c-.127-.152-.254-.3-.387-.448a4.371,4.371,0,0,1-.414-.516c-.04-.064-.08-.127-.117-.193-.05-.091-.095-.185-.14-.279l-.029-.061-.288-.6c-.079-.165-.175-.358-.28-.545a6.279,6.279,0,0,0-.393-.6c-.1-.128-.2-.25-.3-.368-.05-.059-.1-.117-.148-.179l-.077-.093a3.752,3.752,0,0,0-.33-.371,3.083,3.083,0,0,0-.487-.348l-.022-.014c-.068-.042-.141-.078-.215-.116l-.074-.037c-.111-.058-.222-.106-.335-.153-.129-.054-.25-.1-.373-.144-.08-.028-.16-.057-.238-.089l-.251-.1-.253-.1c-.081-.032-.161-.068-.241-.1s-.184-.082-.277-.119c-.181-.069-.36-.143-.54-.216l-.157-.066c-.116-.05-.232-.1-.35-.143-.062-.023-.125-.049-.187-.077l-.1-.045c-.072-.027-.142-.056-.212-.083l-.089-.036c-.166-.065-.385-.147-.61-.215a4.7,4.7,0,0,0-.515-.107,3.847,3.847,0,0,1-.677-.219,1.917,1.917,0,0,1-.316-.212,2.194,2.194,0,0,1-.247-.313c-.038-.062-.075-.126-.111-.189s-.058-.1-.09-.155a2.325,2.325,0,0,0-.291-.386,2.68,2.68,0,0,0-.412-.355c-.066-.048-.133-.091-.2-.133a1.492,1.492,0,0,0-.234-.123,1.953,1.953,0,0,0-.4-.112c-.157-.026-.309-.039-.438-.049l-.164-.012c-.095,0-.191-.011-.286-.022-.15-.017-.3-.04-.447-.064l-.223-.039c-.107-.021-.212-.044-.318-.067-.131-.027-.262-.056-.393-.079s-.286-.042-.429-.06c-.117-.014-.234-.028-.349-.046l-.514-.1c-.1-.019-.192-.032-.288-.044-.077-.009-.153-.019-.229-.032-.187-.033-.375-.062-.564-.092-.117-.018-.235-.026-.353-.036-.064,0-.128-.008-.193-.016a2.866,2.866,0,0,1-.721-.238,2.18,2.18,0,0,1-.368-.259c-.067-.062-.133-.126-.2-.189a4.559,4.559,0,0,0-.783-.651,4.073,4.073,0,0,0-.627-.3,5.134,5.134,0,0,0-.643-.186l-.084-.021c-.188-.046-.378-.083-.567-.12l-.209-.041c-.167-.036-.336-.08-.5-.125-.1-.025-.191-.051-.286-.074l-.32-.08-.322-.08c-.26-.064-.536-.12-.844-.171-.2-.039-.4-.085-.558-.125l-.093-.023q-.244-.06-.489-.124c-.332-.087-.723-.2-1.108-.328l-.063-.021c-.14-.048-.28-.1-.421-.14a4.713,4.713,0,0,0-.61-.136c-.082-.013-.164-.026-.246-.036-.053,0-.107-.006-.16-.006h-.118a3.69,3.69,0,0,0-.467.054c-.078.007-.155.01-.232.01s-.143,0-.215-.006h-.04a3.242,3.242,0,0,1-.357-.025,1.8,1.8,0,0,1-.28-.091,2.785,2.785,0,0,1-.3-.128,1.793,1.793,0,0,1-.322-.219c-.085-.086-.172-.188-.276-.316A.992.992,0,0,0,166.341.9a1.432,1.432,0,0,0-.269-.133,1.214,1.214,0,0,0-.331-.075,1.4,1.4,0,0,0-.145.014.248.248,0,0,0-.089.026.714.714,0,0,0-.244.153c-.055.059-.107.121-.156.185s-.091.115-.143.167a.579.579,0,0,1-.064.036.767.767,0,0,1-.078.023H164.8a.532.532,0,0,1-.069,0,1.3,1.3,0,0,1-.159-.055c-.068-.036-.136-.069-.2-.107a1.245,1.245,0,0,1-.2-.137L164.1.914c-.058-.059-.115-.119-.175-.172a1.013,1.013,0,0,0-.4-.2,1.915,1.915,0,0,0-.374-.079.254.254,0,0,0-.039,0h-.151a.7.7,0,0,0-.08-.005h-.2c-.043,0-.086,0-.13.006a1.574,1.574,0,0,0-.372.081c-.06.022-.12.046-.179.071-.04.016-.08.034-.122.048a1.843,1.843,0,0,1-.379.094c-.094.007-.189.01-.283.01h-.3a3.747,3.747,0,0,1-.54-.046C160.286.7,160.2.69,160.11.676s-.179-.036-.268-.057c-.16-.036-.319-.071-.481-.1l-.023,0-.023,0c-.178-.034-.347-.064-.52-.085a3.7,3.7,0,0,0-.459-.019h-.347c-.161,0-.322,0-.481.01-.182.007-.368.028-.547.049l-.075.007c-.29.031-.587.043-.874.053l-.113,0-.668.022-.334.01c-.127,0-.254.006-.382.006-.431,0-.871-.019-1.294-.038l-.384-.017-.115,0c-.127,0-.255-.008-.383-.018s-.24-.022-.358-.036l-.211-.02c-.429-.039-.849-.1-1.315-.176-.179-.034-.343-.064-.5-.1l-.027,0a5.2,5.2,0,0,0-.556-.093c-.226-.021-.468-.031-.765-.031h-.2c-.265,0-.548.019-.919.053a9.727,9.727,0,0,0-1.048.153l-.187.043L146.2.3l-.043.011c-.06.015-.12.028-.179.047-.076.024-.149.052-.224.08s-.123.048-.185.068a4.582,4.582,0,0,1-.516.13c-.153.033-.312.068-.465.114-.132.04-.266.088-.41.143-.069.029-.139.056-.209.084-.12.051-.24.1-.364.143a2.851,2.851,0,0,1-.474.107l-.1.016c-.178.032-.355.058-.534.082h-.012c-.182.021-.371.045-.558.049h-.12c-.155,0-.309-.007-.463-.016l-.184-.009-.183-.011-.22-.014c-.064-.006-.127-.011-.191-.014L140.4,1.3l-.256-.015-.181-.013-.226-.018c-.2-.011-.46-.025-.725-.027h-.186l-.186,0h-.345a4.534,4.534,0,0,0-.637.073c-.177.032-.354.059-.53.087l-.027,0-.115.012-.12.014c-.118.012-.241.032-.4.064a3.931,3.931,0,0,0-.5.148c-.063.024-.125.045-.189.066-.214.069-.438.132-.666.184-.05.012-.1.022-.151.031s-.111.022-.165.036c-.11.027-.22.048-.331.065-.217.026-.434.055-.651.089-.2.03-.393.068-.591.1l-.167.032-.167.032c-.06.011-.122.02-.183.028l-.123.018-.045.007-.478.074c-.143.012-.291.017-.433.02-.074,0-.15,0-.225,0l-.153.007c-.077,0-.154.008-.23.011l-.128,0c-.109,0-.218,0-.327-.011l-.163-.014c-.061,0-.121-.011-.182-.014-.11-.005-.22-.01-.33-.01-.258,0-.517.015-.782.029-.125.006-.251.023-.374.04l-.084.01c-.1.014-.192.025-.286.044a7.557,7.557,0,0,0-.85.216,6.3,6.3,0,0,1-.764.185c-.245.043-.529.1-.812.132-.2.021-.4.04-.6.059-.092.009-.186.012-.28.012s-.193,0-.29-.008l-.036,0c-.325-.016-.659-.031-.991-.031h-.195l-.177,0c-.139,0-.277.006-.415.006H122.8c-.157,0-.315,0-.473-.007-.19-.006-.381-.009-.572-.009s-.391,0-.579.018l-.6.044c-.078,0-.155.012-.233.019-.107.008-.214.018-.322.023-.384.014-.789.035-1.2.066-.344.026-.689.082-1.024.137l-.158.026-.1.016c-.2.031-.4.063-.6.1-.153.031-.3.069-.454.108l-.3.075c-.158.035-.316.066-.474.1-.117.021-.235.045-.352.069-.25.055-.469.094-.67.12h.036c-.143.016-.287.035-.431.056-.123.018-.245.036-.367.051l-.02,0v0l-.217.029-.229.029c-.328.036-.659.088-.979.139l-.527.081-.358.044c-.136.015-.265.029-.393.036-.084.006-.168.01-.251.013-.1,0-.2.009-.3.017-.17.014-.339.034-.507.054l-.088.011c-.084.01-.168.024-.253.038s-.149.023-.224.033c-.174.016-.34.023-.508.023h-.027c-.057,0-.114-.006-.17-.013l-.09-.01-.194-.02-.072-.009c-.091-.008-.193-.014-.308-.014-.09,0-.178,0-.27.006-.188.007-.375.013-.564.013h-.038c-.117,0-.233-.006-.349-.012l-.173-.007H106.7c-.1,0-.2,0-.3.007l-.143,0h-.066c-.132,0-.266-.008-.4-.017-.165-.013-.331-.029-.5-.045l-.157-.016h0a.285.285,0,0,0-.264.191l-.157-.015-.171-.014c-.283-.023-.57-.027-.848-.029h-.066l-.435-.006-.441-.007c-.221,0-.443,0-.664,0h-1.1a6.738,6.738,0,0,1-.828-.036,2.71,2.71,0,0,1-.506-.146,3.452,3.452,0,0,1-.426-.282c-.143-.11-.29-.215-.438-.319a2.772,2.772,0,0,0-.418-.251c-.084-.04-.169-.084-.25-.127-.1-.05-.2-.1-.3-.15-.279-.136-.553-.267-.829-.375-.315-.123-.641-.215-.928-.3-.082-.023-.165-.04-.248-.057l-.138-.031c-.125-.03-.25-.056-.374-.082l-.043-.009a2.9,2.9,0,0,1-.638-.233.6.6,0,0,1-.113-.076l.034.036-.036-.036h0c-.012-.011-.024-.024-.036-.037l-.012-.02h0l-.006-.042h0a3.469,3.469,0,0,1,.114-.372,2.155,2.155,0,0,0,.077-.248.862.862,0,0,0-.025-.442,1.155,1.155,0,0,0-.183-.329.844.844,0,0,0-.3-.229,3.324,3.324,0,0,0-.332-.153c-.05-.02-.1-.04-.148-.062-.119-.052-.246-.1-.414-.156A1.512,1.512,0,0,0,92.9.008L92.86,0a.975.975,0,0,0-.108,0c-.057,0-.115,0-.174.008l-.1,0L91.86.039c-.363.014-.725.029-1.088.053-.247.018-.492.044-.784.077-.137.016-.273.036-.408.055-.17.025-.34.049-.511.066-.148.014-.3.024-.443.032s-.27.016-.4.027a5.281,5.281,0,0,0-.695.118,3.81,3.81,0,0,0-.368.111c-.083.027-.166.054-.25.079s-.158.047-.236.074c-.124.039-.248.077-.373.109-.094.025-.187.052-.278.081-.121.036-.242.074-.365.1l-.2.047c-.154.035-.308.073-.465.1l-.181.029q-.285.05-.572.071a3.935,3.935,0,0,0-.71.085.771.771,0,0,0-.34.2.711.711,0,0,0-.179.409.971.971,0,0,0,.063.449,2.158,2.158,0,0,1,.06.223v.042h0a.358.358,0,0,1-.016.056.522.522,0,0,0-.048.046,1.676,1.676,0,0,1-.171.106l-.062.029c-.1.046-.2.092-.3.131a2.287,2.287,0,0,1-.453.125c-.1.013-.206.023-.311.029l-.091,0c-.064,0-.128,0-.192-.007l-.12,0c-.309-.007-.588-.019-.854-.036-.24-.018-.493-.042-.774-.076l-.078-.011c-.108-.013-.215-.027-.325-.039a3.761,3.761,0,0,0-.383-.016h-.125c-.643,0-1.223.029-1.773.075-.143.013-.286.028-.433.043-.11.013-.221.025-.332.036-.092.009-.184.016-.276.016a.885.885,0,0,1-.114,0c-.174-.011-.344-.033-.472-.05h-.006a4.465,4.465,0,0,1-.595-.138l-.215-.068c-.125-.041-.25-.082-.376-.116-.172-.046-.35-.076-.522-.1L73.6,2.682c-.215-.036-.427-.067-.644-.1-.156-.026-.3-.055-.435-.091l-.106-.027a2.432,2.432,0,0,0-.317-.074,2.489,2.489,0,0,0-.311-.023h-.077a2.182,2.182,0,0,0-.416.079l-.064.018c-.086.021-.171.047-.256.073l-.141.042c-.12.036-.241.064-.363.092l-.121.029c-.306.072-.619.126-.912.172-.1.013-.209.023-.314.033s-.237.023-.355.039c-.209.028-.431.069-.695.13-.09.022-.178.042-.27.062l-.306.069c-.095.022-.19.047-.284.072-.126.033-.251.065-.379.092a3.261,3.261,0,0,0-.6.2,4.921,4.921,0,0,0-.61.341c-.1.063-.2.133-.3.2-.078.054-.155.108-.234.157a5.094,5.094,0,0,1-.582.314c-.152.071-.306.134-.46.2l-.059.025-.1.04c-.133.055-.265.109-.4.157a5.928,5.928,0,0,1-.919.208l-.083.014c-.2.029-.4.036-.6.048l-.123,0c-.257.012-.512.031-.758.055-.088.007-.175.018-.263.029-.163.019-.332.039-.5.045h-.079a4.19,4.19,0,0,1-.56-.049c-.112-.019-.225-.039-.337-.061l-.1-.019a2.664,2.664,0,0,0-.48-.046h-.362c-.28,0-.56,0-.84-.007q-.654-.011-1.31-.013A10.19,10.19,0,0,1,54.9,5.134c-.118-.019-.237-.042-.355-.068-.063-.013-.125-.028-.188-.044s-.156-.039-.234-.053a3.839,3.839,0,0,0-.71-.06c-.073,0-.146,0-.22,0-.83.029-1.557.079-2.223.154l-.035,0c-.147.015-.293.033-.44.039-.044,0-.089,0-.132,0-.123,0-.245-.006-.368-.012l-.086,0c-.254-.012-.512-.039-.761-.063l-.274-.027a2.882,2.882,0,0,0-.294-.018c-.036,0-.068,0-.1,0-.171.009-.342.028-.5.046-.235.027-.472.068-.7.108l-.253.043c-.27.036-.545.058-.8.075-.1.008-.2.01-.3.01s-.224,0-.338,0c-.071,0-.143,0-.217-.006-.533-.006-1.067-.02-1.6-.036s-1.051-.021-1.589-.023a11.06,11.06,0,0,1-1.5-.1,7.256,7.256,0,0,1-.758-.179c-.1-.027-.2-.051-.3-.072l-.083-.018-.12-.028c-.106-.024-.211-.049-.322-.064a9.054,9.054,0,0,0-.944-.091,8.165,8.165,0,0,1-.884-.072,3.442,3.442,0,0,1-.669-.172c-.165-.063-.33-.14-.489-.214l-.111-.052a3.912,3.912,0,0,0-.81-.316,1.811,1.811,0,0,0-.429-.042h-.066c-.206,0-.376-.007-.532-.022a2.9,2.9,0,0,1-.644-.2l-.139-.068c-.134-.068-.269-.136-.4-.2a3.351,3.351,0,0,0-.664-.21c-.051-.013-.1-.021-.143-.031-.069-.015-.137-.029-.2-.048-.084-.022-.166-.052-.246-.081l-.053-.019a5.4,5.4,0,0,0-.621-.173c-.059-.013-.117-.021-.177-.032-.036,0-.069-.01-.1-.017l-.093-.016a2.32,2.32,0,0,0-.234-.036c-.175-.018-.355-.018-.528-.02h-.249a10.627,10.627,0,0,1-1.236-.065,3.614,3.614,0,0,1-.424-.1l-.043-.013c-.062-.021-.124-.039-.187-.054s-.132-.023-.2-.032l-.042,0a1.608,1.608,0,0,1-.379-.107c-.068-.036-.136-.072-.2-.111S26.78,2.038,26.7,2c-.019-.01-.035-.022-.055-.033l-.014-.016a.95.95,0,0,0-.136-.133.963.963,0,0,0-.251-.124,1.847,1.847,0,0,0-.383-.071l-.085-.011c-.172-.027-.346-.073-.512-.116a1.685,1.685,0,0,0-.332-.042l-.073,0c-.089-.006-.179-.013-.266-.025a2.227,2.227,0,0,1-.455-.157,2.567,2.567,0,0,0-.6-.244,1.526,1.526,0,0,0-.316-.032,3.958,3.958,0,0,0-.462.036l-.027,0a3.814,3.814,0,0,0-.425.074,1.97,1.97,0,0,0-.331.124,2.768,2.768,0,0,1-.429.143c-.182.047-.351.085-.515.115-.3.036-.607.045-.907.055-.232.009-.473.016-.709.036-.207.017-.418.044-.622.071l-.081.012c-.1.014-.207.023-.31.033s-.215.019-.322.033a1.779,1.779,0,0,0-.487.129,2.648,2.648,0,0,0-.449.275l-.105.078c-.079.061-.157.121-.239.174-.1.069-.208.127-.314.185-.052.025-.105.049-.157.072s-.1.035-.149.053c-.029.011-.06.02-.09.032-.069.026-.14.054-.209.083a1.352,1.352,0,0,1-.161.049c-.036.009-.068.019-.1.029a1.968,1.968,0,0,0-.564.332c-.066.052-.134.1-.2.153-.12.09-.245.183-.361.286l-.018.015-.017.02v0c-.119.1-.236.215-.351.325-.016.014-.032.03-.049.044a.885.885,0,0,0-.1.1l-.021.016-.02.019-.071.057-.129.108c-.115.089-.233.173-.352.255s-.261.185-.386.286a5.46,5.46,0,0,0-.508.489c-.112.117-.227.237-.347.348-.109.094-.221.179-.334.268-.067.049-.135.1-.2.143s-.159.111-.236.172a4.8,4.8,0,0,0-.74.775c-.136.17-.276.339-.417.506-.107.127-.212.255-.317.384-.047.059-.093.121-.139.178s-.107.143-.163.21a4.187,4.187,0,0,1-.336.369c-.156.131-.318.255-.476.376l-.076.058c-.236.179-.544.421-.842.694-.094.086-.185.178-.275.268l-.083.082-.033.033c-.139.139-.279.277-.415.42-.154.165-.275.3-.383.429s-.2.253-.3.381l-.09.117c-.158.2-.33.391-.5.577-.077.085-.154.171-.23.257-.241.271-.473.552-.689.817l-.089.111c-.09.11-.179.221-.271.331-.068.08-.14.16-.211.239-.044.048-.088.1-.13.146s-.1.121-.148.185c-.036.046-.071.092-.107.135a4.228,4.228,0,0,1-.3.328c-.113.086-.23.166-.351.241a3.491,3.491,0,0,0-.362.252c-.088.072-.176.143-.264.211-.163.128-.332.261-.49.406-.051.047-.1.093-.146.144a1.807,1.807,0,0,0-.214.3l-.031.049a1.591,1.591,0,0,0-.173.476,1.993,1.993,0,0,0-.04.481l.008.074c.007.054.013.109.02.166.006.041.013.085.02.126.013.07.028.138.043.206a3.392,3.392,0,0,0,.119.37,4.174,4.174,0,0,1,.124.616c.016.233.013.471.009.7l0,.207v.184c0,.245,0,.488-.007.732a9.531,9.531,0,0,0,.029,1.014c.015.172.035.352.069.534.01.062.021.123.035.183l.027.139c0,.039,0,.079,0,.118v.04a2.114,2.114,0,0,0,.028.286l0,.029a1.22,1.22,0,0,0,.1.321l.026.058.008.026h0l.011.173c.014.188.026.382.055.572a2.342,2.342,0,0,0,.107.429,2.524,2.524,0,0,0,.1.25,1.268,1.268,0,0,0,.143.219l.048.088c.015.03.027.052.042.078a2.139,2.139,0,0,0,.154.222l.031.044a1.08,1.08,0,0,0,.205.232c.065.055.131.11.2.159l.015.02a2.4,2.4,0,0,1,0,.415.691.691,0,0,1-.021.09.575.575,0,0,1-.044.054l-.024.018c-.029.019-.058.039-.089.057-.125.038-.25.084-.373.131l-.217.078A1.531,1.531,0,0,0,2,27.139a.959.959,0,0,0-.237.358.889.889,0,0,0-.036.366,3.771,3.771,0,0,0,.05.424,1.6,1.6,0,0,0,.045.191c.016.056.031.111.042.167a12.914,12.914,0,0,1-.075,1.645,4.77,4.77,0,0,1-.131.7c-.024.087-.054.174-.084.257l-.025.077c-.026.075-.046.152-.066.231l-.026.1a3.34,3.34,0,0,0-.085.751l-.006.136c-.011.234-.025.445-.045.641-.013.1-.029.2-.044.3-.02.133-.041.266-.056.4a1.752,1.752,0,0,0,.033.457l0,.032a1.7,1.7,0,0,0,.21.615,1.067,1.067,0,0,0,.164.214,2.073,2.073,0,0,0,.179.146l.028.021a.453.453,0,0,0,.281.094.628.628,0,0,0,.172-.025,1.388,1.388,0,0,0,.317-.129.759.759,0,0,0,.242-.291l.027-.046.015-.022c.023-.03.044-.059.065-.091.014-.017.031-.032.047-.048s.044-.036.068-.052l.051-.035a1.56,1.56,0,0,0,.167-.158c.018-.013.038-.024.057-.037L3.39,34.5a.74.74,0,0,0,.072-.053.342.342,0,0,1,.052-.042l.036-.025.067-.049a.79.79,0,0,0,.134-.149.361.361,0,0,0,.036-.038.469.469,0,0,0,.046-.054.769.769,0,0,0,.063-.107l.019-.036.029-.031.035-.042a.7.7,0,0,0,.108-.179c.02-.047.041-.093.063-.14.031-.069.063-.14.091-.21s.053-.13.079-.191.057-.134.083-.2a2.473,2.473,0,0,1,.107-.242,1.645,1.645,0,0,0,.067-.155c.016-.04.031-.08.048-.118s.026-.056.04-.083l.045-.1c.017-.04.032-.081.046-.122l.012-.036c.053-.129.116-.274.188-.411.036-.067.077-.129.118-.192s.062-.1.087-.14.043-.072.065-.105a2.257,2.257,0,0,1,.241-.285,1.78,1.78,0,0,1,.264-.192,1.194,1.194,0,0,1,.194-.056A.466.466,0,0,1,6,30.739a.532.532,0,0,1,.076.056c.023.021.043.041.064.063s.043.041.065.061l.009.023h0c0,.108-.007.215-.014.322v.023c-.011.173-.025.348-.044.521a1.75,1.75,0,0,1-.063.276,2.577,2.577,0,0,1-.19.36c-.078.123-.152.253-.225.38l-.06.1c-.018.029-.036.059-.052.088s-.044.089-.064.134l-.028.059a1.791,1.791,0,0,0-.117.319,1.43,1.43,0,0,0-.036.252l0,.059c-.018.119-.04.236-.062.353a1.036,1.036,0,0,0,0,.555.507.507,0,0,0,.178.262.433.433,0,0,0,.234.075h0a.542.542,0,0,0,.255-.086l.019-.01a1.022,1.022,0,0,0,.1-.065l.059-.038c.031-.012.06-.022.091-.032l.094-.033a1.428,1.428,0,0,1,.2-.066.725.725,0,0,0,.047.075l.009.125.009.13c.014.173.036.342.058.5.012.09.028.178.047.269a2.379,2.379,0,0,0,.147.436c.015.163.019.307.023.452l0,.178,0,.088a3.946,3.946,0,0,1,0,.435,1.415,1.415,0,0,1-.043.193,1.269,1.269,0,0,1-.075.147l-.092.08c-.042.033-.082.067-.124.1a1.374,1.374,0,0,1-.122.075c-.021.011-.041.023-.061.035-.1.058-.195.113-.294.164s-.2.1-.3.153a.969.969,0,0,0-.226.166,1.629,1.629,0,0,0-.168.212,2.249,2.249,0,0,0-.143.229,1.485,1.485,0,0,0-.09.244l-.013.045a1.573,1.573,0,0,0-.059.34,1.119,1.119,0,0,0,0,.192l0,.044a5,5,0,0,1,0,.874c-.012.089-.028.179-.043.265s-.029.159-.04.238a2.9,2.9,0,0,0-.021.361c0,.087,0,.176-.011.264a1.322,1.322,0,0,1-.04.165c-.028.06-.06.119-.095.178l0,0a.906.906,0,0,1-.065.088.091.091,0,0,1-.047-.018l-.023-.024q-.018-.036-.036-.066c-.018-.034-.038-.067-.054-.1l-.009-.041c-.014-.063-.027-.126-.042-.188-.007-.026-.016-.051-.024-.077a.752.752,0,0,1-.029-.1c0-.054,0-.108-.006-.165v-.069a2.87,2.87,0,0,0-.028-.307.971.971,0,0,0-.1-.315.446.446,0,0,0-.138-.164c-.012-.009-.025-.017-.038-.025l-.019-.013c-.022-.041-.033-.071-.047-.1a.5.5,0,0,0-.143-.169,1.138,1.138,0,0,0-.1-.079.424.424,0,0,0-.077-.038l-.011-.055a1.086,1.086,0,0,0,0-.115c-.008-.135-.021-.267-.038-.393a1.944,1.944,0,0,0-.088-.335l-.015-.044c-.021-.064-.042-.128-.067-.192a.58.58,0,0,0-.086-.138c-.01-.018-.016-.03-.022-.042a.885.885,0,0,0-.193-.315.485.485,0,0,0-.275-.133c-.06-.007-.121-.008-.181-.01a.738.738,0,0,0-.4.112.916.916,0,0,0-.162.149l-.046.047-.053.056c-.042.044-.083.089-.128.129a1.751,1.751,0,0,0-.179.166,1.3,1.3,0,0,0-.1.147c-.017.029-.033.058-.052.085a.813.813,0,0,0-.051.091.677.677,0,0,1-.036.065c-.018.034-.037.065-.058.1-.029.05-.059.1-.085.148l-.012.033c-.007.017-.014.036-.02.055a.693.693,0,0,1-.028.067c-.01.023-.018.046-.027.07a1.943,1.943,0,0,0-.069.212.755.755,0,0,0-.019.125l-.006.055c-.018.126-.042.25-.066.377l-.008.035a2.577,2.577,0,0,0-.053.6,3.742,3.742,0,0,0,.075.651,3.854,3.854,0,0,0,.114.4,2.959,2.959,0,0,1,.1.394c0,.114,0,.229,0,.344v.506l0,.339c0,.4.014.786.027,1.186.027.871.036,1.74.04,2.4l0,.6,0,.59v.587c0,.245,0,.491,0,.736,0,.314.013.63.024.945.014.431.027.878.023,1.317,0,.169-.01.336-.026.5-.042.315-.1.628-.172.937-.029.12-.052.239-.074.361l-.013.069a3.5,3.5,0,0,0-.046.365l-.012.127-.02.154q-.019.136-.036.273a2.891,2.891,0,0,0,0,.518l0,.059c.013.2.026.364.047.531a2.318,2.318,0,0,0,.052.286l.023.089c.022.08.042.158.057.238.007.163.016.322.035.481a2.5,2.5,0,0,0,.117.46,1.967,1.967,0,0,1,.064.273c.007.039.014.076.023.115l.008.038c.021.094.041.189.056.284.014.135.029.281.053.429.014.081.032.16.051.239s.036.146.047.22c.015.143.03.289.048.431.011.088.024.175.038.261s.026.16.036.241c.009.14.009.283.008.421v.117c0,.219,0,.437,0,.655,0,.54-.014,1.077-.025,1.616q-.033,1.666-.055,3.336c-.006.491-.013.984-.021,1.476q-.013.886-.023,1.775c0,.245,0,.492.008.739a11.645,11.645,0,0,1-.024,1.4c-.016.107-.036.215-.053.322-.011.069-.023.138-.036.206-.024.143-.035.29-.049.431,0,.062-.011.123-.017.183-.026.191-.062.381-.1.569-.021.117-.043.234-.063.349s-.042.2-.068.305l-.019.081a4.287,4.287,0,0,0-.085.541l-.009.067c-.013.1-.027.2-.036.3a4.45,4.45,0,0,0-.019.462v.34c0,.172,0,.345,0,.516,0,.27.012.493.031.7.016.182.039.363.064.545l.022.174c.011.1.02.2.023.3s0,.214-.006.321v.03c-.01.213-.026.433-.051.674-.013.093-.027.185-.041.276-.023.159-.048.322-.063.485a4.2,4.2,0,0,0-.009.476c0,.06,0,.122,0,.183a15.3,15.3,0,0,1-.067,1.63l-.027.188c-.022.16-.046.318-.062.477-.006.062-.009.126-.012.188,0,.043,0,.088-.008.131-.008.1-.019.208-.031.312-.031.235-.068.459-.113.681-.021.1-.036.208-.054.312s-.033.208-.054.31S.73,85.12.7,85.21s-.047.179-.066.269a3.907,3.907,0,0,1-.157.542c-.053.137-.112.3-.161.472s-.086.342-.112.472l-.018.086a3.812,3.812,0,0,0-.081.5c-.013.17-.022.342-.026.513-.006.257-.012.531,0,.808a4.541,4.541,0,0,0,.044.508c.013.094.034.186.054.278.013.057.026.113.036.169.005.074.009.148.013.22,0,.093.009.187.018.28.023.225.059.45.093.649.006.119,0,.242,0,.362v.124c0,.192,0,.383-.008.574s-.011.376-.017.565S.3,92.945.3,93.121c-.008.4-.007.747,0,1.076a6.379,6.379,0,0,0,.057.662c.014.11.035.22.054.33l.018.1c0,.084,0,.168,0,.251v.107c0,.118,0,.237,0,.355v.181l0,.24c0,.3-.006.6,0,.9.006.354.025.7.059,1.032.029.286.057.5.091.712.015.09.032.183.049.272s.036.2.053.3c.031.3.059.572.1.849.018.121.04.242.063.361s.042.221.059.332c.009.162.016.322.024.482.011.243.023.484.039.723.024.351.044.718.061,1.127.008.208.017.414.027.622s.019.419.027.628a9.264,9.264,0,0,1-.017,1.343c-.016.123-.036.244-.054.364l-.03.19c-.021.139-.03.281-.04.42q-.009.137-.021.273l-.022.157a4.552,4.552,0,0,0-.057.546v.028c-.006.263-.012.534-.036.8s-.085.543-.135.807c-.029.156-.059.311-.085.467-.039.236-.093.471-.145.7l-.025.11c-.023.1-.042.2-.06.305l-.014.082-.012.064c-.023.125-.046.25-.062.376l-.023.166c-.029.215-.06.434-.078.654s-.023.42-.028.624l-.006.244c-.02.68-.026,1.237-.018,1.757.006.465.012,1.012,0,1.574,0,.259-.014.519-.023.778-.008.243-.016.485-.021.729,0,.224-.008.465,0,.712a5.515,5.515,0,0,0,.074.7,3.849,3.849,0,0,0,.15.557l.034.1c.042.127.084.256.133.38a1.879,1.879,0,0,0,.083.2,1.394,1.394,0,0,0,.095.157l.029.044a1.406,1.406,0,0,1,.112.239l.017.045c.024.071.045.146.066.22s.05.173.079.258c.053.153.12.353.179.563.046.157.084.322.12.482.021.1.032.176.043.257l.01.076.024.173.019.141c.019.208.023.414.028.644s.012.463.022.694.029.453.062.7c.014.107.033.215.05.322.014.085.029.17.041.257a6.046,6.046,0,0,0,.128.8c.018.078.038.156.059.233s.041.154.06.232a4.921,4.921,0,0,1,.084.512,10.507,10.507,0,0,1,.035,1.136v.24c0,.494,0,1-.017,1.507-.009.25-.028.506-.045.751-.024.321-.049.65-.051.976,0,.531-.006,1.081-.063,1.619a5.626,5.626,0,0,1-.16.772c-.033.118-.066.236-.1.358s-.073.275-.113.412c-.064.224-.126.447-.182.674a4.039,4.039,0,0,0-.1.665,1.839,1.839,0,0,0,.024.378l0,.028c.013.1.027.2.046.3a5.357,5.357,0,0,0,.173.673l.013.04a4.787,4.787,0,0,0,.232.636l.061.126c.057.118.114.235.165.357a.593.593,0,0,1,.021.083c.008.119.008.239.008.357,0,.072,0,.143,0,.215a5.259,5.259,0,0,0,.072.708c.019.1.042.207.071.309.023.079.045.159.062.238a5.1,5.1,0,0,0,.158.556l.008.026c.013.04.025.08.036.122s.031.1.047.15l.02.061c.032.1.064.192.089.288s.061.217.094.322.063.2.091.309.064.212.1.316c.026.074.051.149.074.225.014.046.03.092.046.139l.033.1a2.117,2.117,0,0,1,.074.341,2.637,2.637,0,0,1-.017.478c-.012.083-.024.165-.036.25a4.9,4.9,0,0,0-.072.684c0,.289-.011.633-.046.98-.04.281-.1.553-.157.786-.016.069-.03.137-.045.206-.019.086-.036.171-.057.254-.03.114-.067.233-.115.365l.019-.036-.032.072v0l0,.007h0v0h0c-.034.09-.064.175-.095.259l-.016.043c-.027.071-.054.143-.08.218-.019.049-.039.095-.06.141-.028.064-.055.127-.079.192l-.03.076c-.022.057-.044.114-.064.172a2.349,2.349,0,0,0-.089.339,3.781,3.781,0,0,0-.046.62v.036c0,.2-.006.388-.007.58v.028c0,.329,0,.666.023,1,.013.189.039.385.075.6.014.08.031.16.05.239s.031.137.045.2c.015.25.019.5.021.691,0,.221,0,.456-.022.691-.024.157-.063.312-.1.462l-.02.081c-.021.085-.036.172-.051.26l-.01.056a1.66,1.66,0,0,1-.079.286l-.065.163c-.033.081-.067.162-.1.245l.008-.014c-.04.092-.079.183-.119.274l-.057.135-.043.1a2.258,2.258,0,0,1-.155.321c-.049.075-.1.154-.143.236a1.745,1.745,0,0,0-.126.295c-.019.051-.038.1-.055.152a.687.687,0,0,0-.024.207,3.07,3.07,0,0,1-.019.322c-.015.124-.037.246-.064.368-.017.071-.034.143-.052.214a2.066,2.066,0,0,0-.056.322,2.123,2.123,0,0,1-.071.306.7.7,0,0,0-.04.226c0,.054.005.106.008.156l.005.068.011.182c.019.3.036.607.044.908.008.514,0,1.018-.008,1.443l-.009.345c-.008.358-.017.729-.008,1.094.006.214.024.438.053.676.017.138.044.276.069.409.022.11.042.218.059.329.022.432.019.875.017,1.305,0,.239,0,.475,0,.716,0,.286.011.525.027.75a4.7,4.7,0,0,0,.057.487c.013.08.032.158.052.236s.033.132.047.2c.011.233.01.471.009.7v.6c0,.243,0,.485,0,.729l0,.133c.008.383.016.78.013,1.171a3.626,3.626,0,0,0,.032.57,2.1,2.1,0,0,0,.068.292c.022.076.044.152.06.23.007.286-.009.574-.025.856-.007.122-.013.246-.018.371a4.064,4.064,0,0,0,.014.594,1.282,1.282,0,0,0,.051.275,2.677,2.677,0,0,0,.116.306,1.765,1.765,0,0,1,.039.175l.017.085c.01.047.021.095.032.143s.03.122.042.184,0,.114,0,.17v.356l0,.217c0,.11,0,.221,0,.331a4.088,4.088,0,0,0,.036.564,1.819,1.819,0,0,0,.054.274,1.934,1.934,0,0,0,.1.257l.019.045a1.6,1.6,0,0,0,.114.282,3.508,3.508,0,0,0,.209.315l.015.022a2.218,2.218,0,0,0,.183.236.8.8,0,0,0,.244.171c.036.018.072.04.108.06a1.466,1.466,0,0,0,.192.1.469.469,0,0,0,.091.024.211.211,0,0,1,.049.009l.062.014a2.907,2.907,0,0,1-.078.306,1.754,1.754,0,0,1-.1.187,5.473,5.473,0,0,1-.354.421l-.108.077a1.809,1.809,0,0,0-.315.278,1.058,1.058,0,0,0-.286.762,6.524,6.524,0,0,1-.024.958c-.009.052-.02.1-.034.155-.013.028-.028.057-.043.085l-.068.093c-.081.109-.163.221-.236.34l-.031.051a2.41,2.41,0,0,0-.21.4,1.541,1.541,0,0,0-.127.575c0,.062,0,.125,0,.189l.005.114c.005.206,0,.372-.008.523a3.155,3.155,0,0,1-.1.393l-.063.158c-.025.062-.05.124-.074.188s-.054.115-.082.173c-.016.036-.033.069-.049.1a2.4,2.4,0,0,0-.189.619,1.74,1.74,0,0,0-.025.36c0,.086.007.171.009.256l0,.163c0,.107,0,.218.009.326s.011.241.017.361a8.959,8.959,0,0,1,.012,1.226,2.049,2.049,0,0,1-.066.289c-.072.17-.143.348-.2.529a1.47,1.47,0,0,0-.05.378c0,.072,0,.141,0,.208a8.089,8.089,0,0,0,.036.894A6.443,6.443,0,0,0,.2,193.057c.014.058.027.116.04.174s.033.14.051.209a2.962,2.962,0,0,0,.128.352l.031.076c.014.047.026.093.039.137l.025.09c.031.11.071.216.11.322s.064.2.095.3l.051.162a1.943,1.943,0,0,1,.047.214l.011.061.01.058.027.151c.009.155,0,.313,0,.465l0,.071c0,.133-.014.264-.026.4-.009.056-.021.111-.033.165a1.1,1.1,0,0,0-.02.555,1.843,1.843,0,0,0,.355.606c.027.043.055.087.079.134.024.083.045.169.062.255.006.107.006.215,0,.322v.2c0,.147,0,.3,0,.444l0,.066c0,.043,0,.088,0,.133a2.487,2.487,0,0,0,.03.322l.006.039c.012.092.032.182.051.272.015.069.03.139.042.208a3.718,3.718,0,0,0,.065.691,2.638,2.638,0,0,0,.2.531l.041.093c.023.059.045.118.069.176s.042.089.064.134.036.069.051.1c.052.155.107.31.169.461.028.085.051.17.076.257l.029.1a2.4,2.4,0,0,1,.06.339c.006.051.013.1.021.154.031.2.072.393.11.586l.01.052c.068.34.116.691.162,1.029l.017.118a.36.36,0,0,0,.145.223l.007.028.007.021c.018.088.035.175.046.265,0,.035.008.074.012.112a1.279,1.279,0,0,0,.182.6l.017.036.061.118.051.094a2.073,2.073,0,0,1,.1.3l.014.049a2.5,2.5,0,0,0,.138.395,4.6,4.6,0,0,0,.234.445c.068.112.135.226.2.346l.09.179.008.012.006.008.064.137.02.04-.007-.017c.059.126.122.25.185.374l.095.186.062.125.071.139a3.547,3.547,0,0,1,.192.55c.054.261.088.525.117.768a4.6,4.6,0,0,0,.08.481,3.258,3.258,0,0,0,.126.408,3.215,3.215,0,0,0,.206.431c.068.123.137.246.211.364a5.779,5.779,0,0,0,.453.625l.079.095c.054.065.108.128.159.2.081.1.153.211.214.3.129.2.255.411.372.631.045.1.09.2.128.3l.078.209.062.169.01.028c.043.114.085.226.131.338.019.044.038.09.059.135l.023.055a2.091,2.091,0,0,0,.125.245c.129.205.276.421.448.662a7.424,7.424,0,0,0,.543.67,4.556,4.556,0,0,0,.715.636q.225.156.464.29l.046.026c.111.062.222.125.33.2s.21.153.322.247a3.052,3.052,0,0,1,.3.291c.049.064.1.129.141.2s.082.14.119.212c.055.121.107.244.158.368l.039.1c.036.09.069.179.108.266a2.061,2.061,0,0,0,.234.417,4.518,4.518,0,0,0,.3.346c.1.1.2.19.306.278.077.068.155.135.23.207.167.159.365.345.572.524l.057.049c.085.073.171.149.255.226l.045.041c.081.073.163.148.248.219.107.088.214.179.328.26s.245.17.367.253l.074.052.151.1.028.019c.13.092.261.183.4.267l.138.084c.1.057.194.117.289.179l.149.107c.11.082.224.167.341.241a1.686,1.686,0,0,0,.234.114l.019.007.215.091.1.043a2.509,2.509,0,0,1,.232.116l.042.021c.093.051.183.1.272.151.061.035.122.071.182.11l.067.042.228.146c.074.055.148.107.219.167a2.481,2.481,0,0,1,.22.215,1.841,1.841,0,0,1,.2.3c.019.036.036.072.055.108l.027.053a1.215,1.215,0,0,0,.176.262,1.511,1.511,0,0,0,.359.272,2.309,2.309,0,0,0,.324.158,1.865,1.865,0,0,0,.6.116l.1.009c.149.012.3.026.455.026a1.773,1.773,0,0,0,.291-.021,2.321,2.321,0,0,0,.272-.061c.054-.012.109-.027.165-.038.143-.032.3-.058.483-.086.053-.007.107-.018.159-.03l.047-.01.107-.019c.036,0,.072-.012.108-.02a4.041,4.041,0,0,1,.452-.055,3,3,0,0,1,.34.04,1.575,1.575,0,0,0,.291.026h.073a1.02,1.02,0,0,0,.366-.109l.094-.044.065-.03a.808.808,0,0,0,.309-.274,1.37,1.37,0,0,0,.169-.386l.018-.054a2.583,2.583,0,0,0,.1-.418,3.771,3.771,0,0,0,.032-.411c.007-.143.007-.293,0-.439,0-.1-.011-.21-.018-.316l0-.08c-.008-.126-.012-.251-.014-.375v-.1c0-.069,0-.138,0-.208l0-.137c0-.073.007-.146.008-.219,0-.174,0-.345-.008-.517,0-.079,0-.158-.007-.238a3.15,3.15,0,0,1,.026-.375c.016-.134.031-.269.044-.4.027-.262.049-.523.072-.786.011-.137.02-.275.029-.413s.026-.289.043-.429c.009-.077.019-.143.028-.209s.022-.152.031-.228c.013-.112.02-.226.027-.34l0-.063c0-.074.013-.148.02-.221.006-.045.01-.092.015-.136.01-.121.019-.242.025-.362,0-.094.006-.186.01-.279,0-.153.009-.306.022-.457l.021-.26a7.44,7.44,0,0,1,.151-1.131c.011-.042.022-.085.03-.128l.01-.049,0-.026c.036.018.075.039.112.062a1.014,1.014,0,0,1,.152.148,4.067,4.067,0,0,1,.3.418l.023.036c.1.153.183.313.275.49a2.437,2.437,0,0,1,.112.275c.031.095.058.192.081.29.032.166.051.331.067.47a.067.067,0,0,0-.06-.039.087.087,0,0,0-.068.041.089.089,0,0,0-.014.065c.02.124.038.251.056.375s.036.253.057.378l.032.195c.03.176.058.35.086.527l.008.044c.032.2.065.415.081.624.02.26.03.5.03.743,0,.091-.011.179-.018.271l-.006.077c-.01.134-.013.267-.014.4,0,.075,0,.15,0,.227l0,.112v.121c0,.083,0,.163.008.244.018.251.036.509.079.76a5.72,5.72,0,0,1,.082.8c0,.124-.018.25-.031.37-.007.061-.013.125-.018.187-.009.087-.015.175-.02.262-.009.128-.018.258-.033.385a3.661,3.661,0,0,0-.03.769,1.193,1.193,0,0,0,.079.327.837.837,0,0,0,.3.384,1.444,1.444,0,0,0,.35.189,2.633,2.633,0,0,0,.605.153,4.374,4.374,0,0,0,.537.033h.071c.113,0,.226,0,.339,0,.143,0,.286,0,.429,0s.286,0,.429,0l.082,0c.155,0,.309.01.463.01h.1c.181,0,.362-.01.543-.016l.106,0c.126,0,.252-.019.377-.031.091-.01.179-.02.271-.026l.163-.013c.054-.006.107-.01.162-.015.1-.008.209-.01.313-.011s.2,0,.3,0,.2,0,.3,0q.314-.016.627-.022h.3a2.61,2.61,0,0,0,.265-.025l.021,0q.16-.021.321-.045c.1-.015.2-.029.291-.042.3-.039.614-.064.914-.088l.24-.021c.374-.03.715-.044,1.041-.044H36.1c.264.008.537.015.812.015.119,0,.239,0,.357,0,.366-.009.725-.016,1.086-.016h.105c.118,0,.236.007.355.013.188.008.377.015.565.017h.267c.214,0,.425,0,.638,0,.1,0,.214,0,.332,0h.03c.294.011.539.019.787.039.156.012.313.018.471.022.1,0,.2.007.306.012.072,0,.14.01.21.016l.207.014.152.007.3.013.072,0c.126.008.252.015.38.015h1.015c.166,0,.313,0,.459,0,.344.01.649.026.93.049.173.013.345.026.518.036.119.007.238.022.358.035l.167.019c.081.009.163.017.245.024l.2.018.236.025.313.033c.336.029.68.033,1.01.036h.084c.092,0,.2,0,.306,0,.141,0,.28,0,.42-.008.256-.011.5-.022.755-.025l.231,0c.166,0,.333,0,.5-.012.218-.01.435-.016.651-.016h.044c.1,0,.2.006.294.006H52.4c.112,0,.223-.013.333-.024l.061-.007a6.974,6.974,0,0,1,.751-.044h.09l-.023,0,.254.01c.076,0,.143.006.21.012l.135.01c.1.006.206.007.308.007h.333c.183.011.366.019.549.028.083,0,.164.011.245.017.1.008.208.016.312.018.158.006.313.016.469.026l.13.011c.1.007.194.008.291.008h.2l.122,0,.21.007c.078,0,.156.009.234.016l.1.01c.215.016.434.018.644.022.12,0,.24.014.357.023s.218.019.327.023.208.006.312.006h.378a4.584,4.584,0,0,1,.51.049c.16.025.332.049.54.069.078.008.156.011.234.014s.164.007.246.016a1.965,1.965,0,0,1,.394.086,2.673,2.673,0,0,1,.293.135l.191.088a2.18,2.18,0,0,0,.223.078l.021.006a3.972,3.972,0,0,1,.533.238c.06.03.121.058.182.084l.092.04.208.1c.069.054.134.1.2.156a5.6,5.6,0,0,0,.781.55.977.977,0,0,0,.389.109c.036,0,.072,0,.106,0s.09,0,.134-.006a.922.922,0,0,0,.207-.051l.04-.011a1.322,1.322,0,0,0,.29-.154l.035-.024.109-.071.108-.07a5.818,5.818,0,0,1,.772-.37c.105-.042.21-.083.314-.122.123-.049.246-.1.368-.145a6.186,6.186,0,0,0,.619-.286,3.62,3.62,0,0,1,.569-.263,2.192,2.192,0,0,1,.42-.035c.186.013.376.04.558.066a4.176,4.176,0,0,0,.547.036c.08,0,.159,0,.238-.008.138-.007.276-.015.415-.025.3-.022.615-.044.921-.044h.133c.182.012.365.036.543.058l.3.036c.174.019.347.033.52.049l.423.035c.261.028.523.077.777.126l.06.01a4.38,4.38,0,0,0,.75.053l.181,0a3.274,3.274,0,0,1,.635.125c.137.05.271.112.4.171l.062.029c.181.082.381.161.61.241s.458.158.688.231l.243.076c.116.038.233.074.348.111a1.862,1.862,0,0,0,.6.091.814.814,0,0,0,.086,0,1.722,1.722,0,0,0,.69-.2c.1-.05.209-.107.316-.172a2.57,2.57,0,0,0,.322-.214,3.281,3.281,0,0,0,.4-.421,1.185,1.185,0,0,1,.126-.107,1.772,1.772,0,0,1,.214-.08,1.956,1.956,0,0,1,.2-.035,1.455,1.455,0,0,1,.238-.013l.159.01c.143.007.286.016.429.02.172.005.344.006.515.007h.131a4.781,4.781,0,0,0,.521-.035l.137-.013c.256-.025.522-.038.809-.044.094,0,.189,0,.283,0,.151,0,.3,0,.451-.007a4.661,4.661,0,0,0,.485-.05l.214-.029.619-.069q.12-.017.237-.036a2.711,2.711,0,0,1,.336-.045,1.078,1.078,0,0,1,.149.025c.072.029.145.06.217.092l.132.058.169.072c.094.04.189.08.283.118a2.91,2.91,0,0,0,.445.15,1.381,1.381,0,0,0,.314.036c.037,0,.076,0,.114,0a1.172,1.172,0,0,0,.559-.182,1.76,1.76,0,0,0,.361-.355c.086-.1.173-.211.252-.322l.024-.036c.063-.09.123-.179.191-.26A.478.478,0,0,1,90,225.9l.042.011a1.28,1.28,0,0,1,.215.117,2.673,2.673,0,0,1,.387.357,2.073,2.073,0,0,1,.209.331c.017.039.036.078.051.117.03.072.061.143.095.211a2.033,2.033,0,0,0,.214.336,1.681,1.681,0,0,0,.256.257,1.142,1.142,0,0,0,.389.2,1.248,1.248,0,0,0,.411.064h.077a.844.844,0,0,0,.173-.036,1.391,1.391,0,0,0,.209-.081c.064-.03.126-.068.187-.1l.028-.016c.069-.04.137-.082.2-.124s.147-.09.22-.133a3.81,3.81,0,0,1,.9-.373,4.763,4.763,0,0,1,.5-.087l.335-.046c.086-.012.173-.025.26-.036a4.959,4.959,0,0,1,.609-.031h.27a2.6,2.6,0,0,0,.3-.027l.05-.006c.246-.029.488-.066.721-.107a7.414,7.414,0,0,1,.751-.085c.14-.011.286-.016.445-.016.072,0,.141,0,.213,0l.31,0,.313.006a7.715,7.715,0,0,1,.869.1l.046.009c.267.046.544.093.818.125.123.013.248.023.372.032.143.011.289.021.434.04a3.32,3.32,0,0,1,.621.163l.047.016-.016-.008c.183.072.363.152.539.242.115.06.227.128.341.195.071.043.147.088.221.13a3.427,3.427,0,0,0,.628.28,1.629,1.629,0,0,0,.31.066,2.631,2.631,0,0,0,.307.016h.089c.062,0,.125,0,.186,0h.322c.053,0,.107,0,.161,0a1.442,1.442,0,0,0,.31-.067,2.14,2.14,0,0,0,.27-.1c.118-.052.236-.1.358-.152l.178-.075c.05-.022.1-.043.15-.066a3.125,3.125,0,0,1,.382-.151c.143-.037.286-.071.43-.1s.308-.071.461-.112l-.027,0a9.6,9.6,0,0,1,1.25-.2c.12-.013.24-.03.357-.048l.215-.029a4.084,4.084,0,0,1,.506-.035h.079l.08,0c.209.012.424.021.635.021.065,0,.129,0,.193,0,.111-.006.221-.015.331-.025l.139-.011c.175-.013.349-.023.525-.029.381-.016.719-.041,1.034-.073l.118-.013c.134-.014.269-.028.4-.036.107-.006.214-.009.324-.009h.132c.2.013.405.032.614.056s.445.042.73.054l-.022,0c.272.018.544.039.816.058.08.007.16.008.24.008a7.344,7.344,0,0,0,.755-.051l.068-.008c.107-.01.223-.016.357-.016s.245,0,.367.009l.251.007h.074c.114,0,.229,0,.343-.012s.214-.008.322-.008h.174a4.4,4.4,0,0,1,1.094.167l.038.014c.162.058.322.115.483.183.176.074.351.155.525.237.052.025.1.051.155.078l.136.069c.1.048.2.091.3.133a4.422,4.422,0,0,0,.594.192,2.581,2.581,0,0,0,.558.092c.049,0,.1,0,.146,0a2.181,2.181,0,0,0,.867-.16l.107-.036c.179-.062.361-.117.561-.173l.051-.013-.05.008.176-.039c.11-.027.221-.056.332-.086a2.672,2.672,0,0,1,.584-.077l.412-.007.274,0h.16c.135,0,.271,0,.406,0h.038c.117,0,.234,0,.349,0q.195,0,.387-.009a6.3,6.3,0,0,0,.662-.058,4.978,4.978,0,0,0,.615-.141c.165-.049.34-.11.55-.194.044-.018.088-.036.132-.057.06-.026.12-.054.182-.076.117-.044.234-.081.351-.116a10.1,10.1,0,0,1,1.86-.307c.121-.007.243-.009.365-.009h.835c.281,0,.562.007.842.016.161.009.328.019.5.027l.221.015c.121.008.242.018.363.021.194,0,.387,0,.581.006.229,0,.46,0,.69.009l.246.014c.167.01.334.019.5.026.119,0,.237.008.353.009l.354.01c.212.011.4.025.6.051s.4.052.6.073a6.008,6.008,0,0,0,.657.031c.162,0,.322,0,.483-.009q.332-.011.662-.016c.2,0,.4-.008.6-.014.157,0,.314-.006.471-.006h.372c.1,0,.2,0,.3,0,.15.011.3.029.451.045l.243.026c.273.027.518.043.751.045h.078c.225,0,.449-.013.7-.029s.523-.032.784-.056c.209-.021.418-.048.626-.075.254-.036.515-.072.774-.09l.086,0c.184-.014.374-.027.559-.052a4.791,4.791,0,0,0,.659-.148c.132-.033.264-.06.4-.083.2-.036.394-.074.588-.11a3.747,3.747,0,0,1,.483-.059c.074,0,.148-.006.223-.006.1,0,.2,0,.3.007h0a3.5,3.5,0,0,1,.456.077,2.438,2.438,0,0,1,.37.2l.04.023.048.03c.059.036.117.071.179.1a2.51,2.51,0,0,0,.265.1,1.458,1.458,0,0,0,.253.061,1.055,1.055,0,0,0,.113.006,1.016,1.016,0,0,0,.233-.027,3.424,3.424,0,0,0,.358-.107c.078-.026.156-.053.235-.076a1.389,1.389,0,0,1,.294-.029c.158.008.3.022.447.033l.215.017c.151.01.314.016.5.016.077,0,.154,0,.232,0h.113c.191,0,.38.008.57.013h.05c.2.009.406.015.608.015h.036c.214,0,.438,0,.656-.025.069-.006.137-.016.2-.025l.105-.014.152-.019c.075-.008.15-.017.226-.03.107-.017.215-.036.324-.058.143-.026.286-.053.431-.073a4.339,4.339,0,0,1,.683-.046h.051a6.892,6.892,0,0,1,.745.079c.1.016.206.035.308.052.153.029.306.056.461.075.212.027.429.06.668.1a4.391,4.391,0,0,1,.629.17c.108.042.215.09.322.137l.15.068c.1.041.193.078.291.115s.166.062.248.1a3.216,3.216,0,0,1,.294.146c.063.036.126.068.19.1a1.844,1.844,0,0,0,.469.16,1.07,1.07,0,0,0,.211.02,1.128,1.128,0,0,0,.336-.052,4.022,4.022,0,0,0,.525-.221l.04-.02a7.745,7.745,0,0,1,1.368-.558,2.673,2.673,0,0,1,.322-.055c.081-.011.163-.014.244-.019l.137-.008c.16-.012.33-.023.5-.023h.095c.227.02.456.055.677.09.205.03.416.063.626.083.169.019.367.042.564.082.166.036.338.081.541.143a5.383,5.383,0,0,0,.576.143,4.92,4.92,0,0,0,.566.084c.171.011.342.013.5.013h.25c.1,0,.205,0,.307-.006s.206,0,.308,0h.175l-.058-.008.149.012.15,0,.22.01.148.006-.018,0,.171.014c.3.018.593.036.889.045.417.013.834.02,1.252.024.188,0,.377.006.565.007h.046c.193,0,.39-.01.558-.022a3,3,0,0,0,.525-.083,2.84,2.84,0,0,0,.431-.137l.158-.036c.052-.012.1-.026.157-.036.126-.027.25-.062.374-.095l.053-.014-.029.006a5.666,5.666,0,0,1,.894-.172l.035,0a3.769,3.769,0,0,0,.423-.057c.134-.029.268-.071.4-.112l.079-.026.058-.017a6.637,6.637,0,0,0,.885-.322,2.543,2.543,0,0,0,.439-.271l.065-.049c.11-.081.22-.163.334-.237.143-.081.29-.156.439-.223.117-.053.256-.118.4-.194.278-.15.549-.3.812-.476a3.384,3.384,0,0,0,.355-.277c.113-.1.229-.192.346-.284l.069-.055c.209-.164.426-.333.65-.479a6.441,6.441,0,0,1,.724-.339l.107-.045c.094-.039.187-.082.279-.127.054-.025.108-.051.163-.075a4.057,4.057,0,0,1,.54-.188c.093-.023.185-.05.275-.082a1.217,1.217,0,0,0,.3-.165,1.444,1.444,0,0,0,.5-.617c.04-.079.074-.162.107-.244l.04-.095c.049-.111.1-.222.153-.331l.071-.151q.05-.1.1-.2c.052-.114.106-.226.163-.337a5.533,5.533,0,0,1,.373-.546c.125-.164.271-.358.429-.531.143-.147.3-.289.446-.429.17-.16.334-.3.5-.432.089-.07.179-.137.27-.2l.269-.2.026-.022c.15-.118.305-.239.465-.343a2.649,2.649,0,0,1,.549-.224l-.024,0a2.294,2.294,0,0,0,.364-.114c.108-.046.215-.093.322-.143l.09-.042c.082-.036.163-.073.242-.117.143-.078.27-.15.386-.225a4.437,4.437,0,0,0,.455-.354l.085-.071a7.241,7.241,0,0,0,.581-.554,2.581,2.581,0,0,0,.3-.408,4.614,4.614,0,0,0,.214-.435l.034-.075.11-.238c.122-.264.25-.536.362-.814.036-.086.073-.172.11-.258s.064-.146.094-.221c.059-.136.116-.286.184-.48a5.293,5.293,0,0,0,.161-.6c.039-.182.083-.362.13-.543s.1-.379.149-.57c.032-.107.075-.25.131-.391.041-.1.091-.214.157-.348a5.02,5.02,0,0,1,.3-.447l.115-.15c.068-.088.136-.176.2-.268a1.52,1.52,0,0,0,.247-.579l.01-.044c.013-.051.023-.1.033-.156l.019-.1c.017-.083.036-.163.058-.247a4.029,4.029,0,0,1,.225-.605c.11-.226.218-.452.322-.679s.2-.427.309-.638.2-.407.3-.613c.112-.24.194-.436.261-.62a3.8,3.8,0,0,0,.118-.376,2.857,2.857,0,0,0,.059-.345,4.57,4.57,0,0,0,.022-.8c-.008-.134-.026-.263-.044-.381l-.012-.078c-.017-.111-.034-.222-.055-.33-.1-.509-.215-1.037-.339-1.569v.019c-.011-.06-.023-.119-.036-.178a3.639,3.639,0,0,1,0-1.2c.032-.188.078-.391.145-.644l-.011.031c.064-.223.133-.457.217-.677.024-.062.049-.126.074-.188l.046-.115.049-.121c.031-.078.063-.156.091-.235a5.077,5.077,0,0,0,.193-.746c.032-.215.06-.452.085-.749s.039-.572.044-.825c0-.228-.009-.459-.019-.683l0-.083c-.007-.146-.01-.292-.014-.437,0-.1-.006-.205-.009-.308-.006-.158-.017-.316-.028-.474l-.016-.225c-.011-.187-.017-.379-.017-.585,0-.14,0-.281-.008-.421l0-.235c-.007-.381,0-.753.006-1.166v.008c.008-.254.01-.507.011-.761,0-.122,0-.245,0-.369v-.132c0-.173,0-.351,0-.526l-.01-.232q-.006-.195-.015-.39c-.02-.434-.03-.828-.028-1.2v-.1c0-.375,0-.75.012-1.126.006-.207.009-.411.011-.617v-.1l0-.105c0-.071,0-.143,0-.212s0-.134-.007-.2,0-.134-.006-.2,0-.135-.008-.2l0-.134c0-.068,0-.135,0-.2s0-.136,0-.2c-.006-.173-.015-.346-.025-.519l-.014-.256c-.009-.191-.021-.383-.031-.574l-.01-.184-.009-.146c-.011-.2-.022-.4-.038-.592l-.016-.179c-.039-.434-.079-.882-.1-1.326l-.014-.273c-.006-.119-.012-.24-.02-.36v-.081c0-.063,0-.124-.007-.186l0-.112c0-.07-.007-.138-.014-.207s0-.115,0-.172v-.088l0-.111c0-.075,0-.15-.006-.224-.006-.114-.018-.226-.03-.338l-.007-.082-.012-.117a4.893,4.893,0,0,0-.081-.59.4.4,0,0,0,.107-.187,1.746,1.746,0,0,0,.081-.366,1.342,1.342,0,0,0,0-.39,1.309,1.309,0,0,0-.091-.271l-.032-.068-.031-.065c-.067-.138-.129-.282-.188-.429-.04-.118-.074-.238-.107-.361-.013-.043-.025-.086-.038-.129a2.7,2.7,0,0,1-.075-.291v-.027c.006-.03.013-.057.021-.086a1.914,1.914,0,0,1,.133-.273,1.81,1.81,0,0,1,.12-.157c.033-.039.068-.076.1-.111l.083-.087a1.89,1.89,0,0,0,.36-.7c.036-.107.065-.216.094-.326a2.861,2.861,0,0,0,.075-.452,2.9,2.9,0,0,0-.088-.889c-.015-.061-.026-.127-.035-.19-.008-.044-.017-.089-.025-.136s-.024-.1-.036-.156-.023-.1-.036-.157a4.6,4.6,0,0,0-.2-.679l-.026-.072c-.039-.1-.079-.209-.128-.31s-.09-.176-.135-.264c-.026-.052-.054-.1-.081-.154-.061-.113-.124-.23-.175-.35a2.08,2.08,0,0,1-.078-.332,1.662,1.662,0,0,1-.012-.264l.012-.085c.007-.046.013-.092.019-.14h0l.008-.064a2.777,2.777,0,0,0,.03-.364,1.282,1.282,0,0,0-.123-.541,2.561,2.561,0,0,0-.451-.613l-.044-.049a3.9,3.9,0,0,0-.462-.465.918.918,0,0,0-.169-.1l-.045-.026-.043-.023-.122-.068-.043-.022-.053-.029a.958.958,0,0,1-.04-.184,1.714,1.714,0,0,0-.036-.173l-.015-.067c-.013-.053-.026-.1-.04-.157-.021-.086-.042-.172-.057-.26a3.061,3.061,0,0,1-.011-.4c0-.019.008-.036.012-.053.072-.186.161-.383.278-.622.044-.089.085-.179.128-.271a4.771,4.771,0,0,1,.255-.511l.095-.14c.068-.1.137-.2.2-.305.1-.158.191-.322.276-.486a4.1,4.1,0,0,0,.186-.424,2.5,2.5,0,0,0,.158-.543c.022-.152.03-.31.038-.462l.005-.077a3.66,3.66,0,0,0-.01-.544,2.775,2.775,0,0,0-.056-.373,1.447,1.447,0,0,0-.27-.535.968.968,0,0,0-.14-.139l-.029-.025c-.067-.061-.136-.115-.207-.17a1.008,1.008,0,0,0-.153-.113l-.052-.03c-.046-.027-.091-.055-.138-.081l-.044-.022c-.036-.017-.076-.035-.113-.055a.358.358,0,0,1-.045-.031.6.6,0,0,1-.07-.072l-.018-.035a1.64,1.64,0,0,1-.05-.195q0-.092,0-.183a5.788,5.788,0,0,1,.268-1.029c.07-.212.128-.405.187-.6.069-.227.138-.453.215-.679v0a2.126,2.126,0,0,1,.1-.247c.046-.092.1-.182.151-.27a3.123,3.123,0,0,1,.229-.309c.05-.059.107-.111.161-.164l.126-.124a1.613,1.613,0,0,0,.241-.37c.035-.072.074-.145.111-.217s.075-.146.112-.22a4.907,4.907,0,0,0,.226-.508,4.568,4.568,0,0,0,.183-.652,9.5,9.5,0,0,0,.152-.994c0-.047.011-.094.015-.143s.016-.1.024-.154.02-.119.028-.179c.012-.081.019-.163.023-.244a2.008,2.008,0,0,0-.018-.29c-.006-.072-.006-.143-.006-.215a1.887,1.887,0,0,0-.022-.26l-.009-.067a2.044,2.044,0,0,0-.066-.291c-.019-.071-.038-.141-.052-.214,0-.041,0-.081,0-.123v-.21c0-.058,0-.117,0-.175s0-.1,0-.148a3.071,3.071,0,0,1,.12-.442l-.008.015.013-.035.034-.1c.037-.1.079-.207.119-.308a3.915,3.915,0,0,0,.281-.922c.015-.11.028-.226.032-.336a2.194,2.194,0,0,0-.027-.429.911.911,0,0,0-.079-.221l-.034-.075-.036-.073c-.029-.066-.056-.132-.082-.2a5.072,5.072,0,0,1-.236-1.04l.01.12c-.022-.2-.052-.407-.083-.61l-.018-.111-.012-.12c-.013-.13-.027-.26-.045-.39-.027-.183-.053-.368-.077-.551a4.222,4.222,0,0,1,0-.616,5.258,5.258,0,0,0,.006-.615l-.012-.225c-.008-.123-.014-.247-.019-.37l-.007-.154c-.007-.2-.015-.4-.031-.6-.013-.151-.022-.3-.031-.455l-.012-.2-.01-.154c-.013-.186-.025-.38-.026-.57,0-.414.023-.834.049-1.241l.019-.274c.008-.137.021-.273.035-.41.009-.083.018-.168.025-.252a5.591,5.591,0,0,0,.01-.7l-.015-.306c-.02-.407-.04-.827-.05-1.239-.008-.319,0-.632,0-.924l0-.271c0-.166,0-.332.01-.5.009-.25.02-.5.038-.753.009-.131.023-.262.036-.393s.026-.264.036-.4c.015-.215.021-.436.028-.654v-.052c0-.143.014-.288.025-.432.008-.1.015-.195.021-.294a8.693,8.693,0,0,0-.021-1c-.007-.134-.015-.267-.021-.4,0-.1,0-.2,0-.3,0-.121,0-.244-.009-.363,0-.072-.01-.143-.017-.211-.009-.1-.017-.211-.021-.318a5.132,5.132,0,0,1,.022-.54c.014-.19.029-.382.045-.573.008-.072.018-.143.027-.217.014-.107.028-.218.039-.326a2.365,2.365,0,0,0-.011-.612,2.5,2.5,0,0,0-.2-.649,2.431,2.431,0,0,0-.291-.458l-.024-.032a3.756,3.756,0,0,1-.175-.34c-.022-.046-.043-.091-.065-.134-.073-.152-.13-.277-.179-.4a2.016,2.016,0,0,1-.079-.315c-.009-.131-.007-.264,0-.393l0-.133c0-.073,0-.146-.007-.22a2.739,2.739,0,0,1,0-.314c0-.019,0-.059.009-.1l0-.059.021-.149a5.212,5.212,0,0,0,.064-.572c0-.093,0-.187.006-.281,0-.132.005-.263.013-.393a3.2,3.2,0,0,1,.08-.422c.013-.027.026-.053.041-.08.1-.141.2-.272.281-.4a2.49,2.49,0,0,0,.438-1.21v-.026a1.466,1.466,0,0,0,.008-.239,1.083,1.083,0,0,0-.045-.276,1.156,1.156,0,0,0-.129-.273l-.035-.059a4.116,4.116,0,0,1-.3-.536c-.02-.064-.039-.126-.058-.191a1.847,1.847,0,0,0-.078-.2l-.017-.044a1.02,1.02,0,0,1-.032-.135c-.008-.077-.015-.151-.025-.228a1.7,1.7,0,0,1,0-.247,6.578,6.578,0,0,1,.153-.764c.063-.239.14-.475.214-.7l.012-.036a5.913,5.913,0,0,0,.195-.806,7.773,7.773,0,0,0,.082-.888,15.537,15.537,0,0,0,.007-1.713,12.413,12.413,0,0,1-.013-1.778c.021-.19.046-.378.072-.566.011-.085.023-.172.034-.258.019-.16.04-.322.066-.479l.035-.215a11.144,11.144,0,0,0,.161-1.314l.006-.179c0-.143.009-.286.022-.429.02-.206.04-.45.042-.7,0-.214-.013-.431-.028-.64a6.554,6.554,0,0,1-.023-.805c0-.089.01-.179.016-.27.011-.168.022-.339.027-.507.005-.2,0-.391,0-.586,0-.089,0-.179,0-.267,0-.265.009-.533.02-.792s0-.534-.011-.855l-.013-.227c-.011-.179-.021-.358-.025-.536l0-.179c0-.209,0-.419-.014-.628-.012-.288-.018-.577-.025-.867q-.006-.328-.016-.658c-.007-.192-.028-.386-.048-.574l-.013-.13c-.011-.092-.019-.185-.028-.277-.013-.143-.027-.286-.044-.431-.032-.243-.063-.444-.1-.628s-.083-.395-.128-.593l-.014-.069c-.05-.221-.1-.44-.143-.663s-.087-.451-.146-.673c-.036-.129-.078-.255-.12-.38-.032-.094-.065-.187-.092-.282-.018-.057-.034-.113-.049-.17s-.027-.095-.04-.141c-.032-.107-.071-.212-.113-.316l-.028-.075c-.031-.081-.069-.159-.107-.236l-.013-.028a1.5,1.5,0,0,0-.151-.236l-.026-.036a1.232,1.232,0,0,0-.319-.3l-.027-.022a.9.9,0,0,1-.072-.078c-.02-.037-.039-.075-.056-.114a1.439,1.439,0,0,1-.043-.2c-.016-.156-.025-.313-.034-.47l-.011-.194c-.008-.137-.019-.274-.029-.411s-.022-.277-.03-.416c-.014-.211-.028-.406-.047-.6a.651.651,0,0,1-.081-.143l-.006.007a.347.347,0,0,1-.158.1.237.237,0,0,1-.121,0,.55.55,0,0,1-.182.282.308.308,0,0,1-.115.049c-.008.06-.017.121-.025.182-.026.191-.05.385-.074.578-.012.1-.025.193-.038.291a3.686,3.686,0,0,1-.065.419.336.336,0,0,1-.143.2.265.265,0,0,1-.154.043.387.387,0,0,1-.176-.055.305.305,0,0,1-.083-.085l-.01-.014a.314.314,0,0,1-.308.08.377.377,0,0,1-.2-.175.739.739,0,0,1-.058-.15c-.024-.074-.048-.146-.069-.22-.026-.09-.048-.182-.071-.274a4.61,4.61,0,0,1-.085-.481c-.013-.105-.025-.209-.035-.312a.564.564,0,0,1-.046.063l-.078.067a.266.266,0,0,1-.231.027c-.193-.04-.259-.294-.311-.477-.024-.08-.045-.159-.064-.239l-.036.028a.479.479,0,0,1-.1.051.5.5,0,0,1-.322,0,.565.565,0,0,1-.139-.057c-.048-.018-.1-.026-.143-.045a.353.353,0,0,1-.2-.424.3.3,0,0,1,.349-.234l.024.006c.036.013.076.019.113.032s.069.03.1.046a.174.174,0,0,0,.036.013c.017-.017.033-.036.05-.052a1.538,1.538,0,0,1,.154-.137.342.342,0,0,1,.353-.069.424.424,0,0,1,.2.183l.027-.092c.016-.056.032-.113.049-.169a.671.671,0,0,1,.105-.225.339.339,0,0,1,.179-.118.279.279,0,0,1,.286.095.857.857,0,0,1,.14.513l.021.221q.045-.587.081-1.172a.324.324,0,0,1,.31-.331.33.33,0,0,1,.289.352c-.007.245.007.49.007.736V88a.363.363,0,0,1,.076-.065.261.261,0,0,1,.219-.031l.038-.23a.357.357,0,0,1,.01-.072l.012-.109a.774.774,0,0,1,.023-.172.357.357,0,0,1,.143-.2.267.267,0,0,1,.23-.028.3.3,0,0,1,.091.052c0-.082-.008-.164-.013-.247l-.007-.154a7.639,7.639,0,0,1,.019-1.059q.054-.459.111-.918c.067-.528.135-1.076.189-1.615.028-.246.056-.492.09-.739.028-.2.047-.4.066-.6l.014-.143a7.033,7.033,0,0,1,.12-.735c.053-.232.12-.506.2-.773a3.251,3.251,0,0,1,.276-.577c.082-.119.156-.215.23-.3a2.883,2.883,0,0,0,.245-.346,2.771,2.771,0,0,0,.333-.791c.021-.089.035-.178.052-.269.01-.064.021-.127.035-.192.029-.14.062-.279.1-.417l.012-.048a10,10,0,0,0,.2-1,12.819,12.819,0,0,0,.126-1.287c.015-.426-.007-.858-.027-1.228-.014-.224-.02-.447-.029-.669-.006-.169-.011-.339-.019-.51-.01-.206-.024-.41-.036-.616l-.021-.337a5.8,5.8,0,0,1,.041-.959,9.284,9.284,0,0,1,.351-1.527,5.961,5.961,0,0,0,.149-.687,6.183,6.183,0,0,0,.084-.792,5.2,5.2,0,0,0-.021-.7,7.368,7.368,0,0,0-.114-.8c-.033-.16-.072-.319-.111-.476-.025-.1-.051-.2-.073-.306-.058-.25-.11-.518-.156-.815-.009-.088-.016-.179-.023-.268s-.014-.179-.024-.269c-.023-.236-.039-.467-.044-.685,0-.172,0-.343,0-.515l0-.2v-.232c0-.2,0-.389.007-.583.011-.443,0-.89-.015-1.323l0-.172c-.013-.406,0-.817.016-1.216l.007-.21c.017-.518.028-1.032.032-1.528,0-.174.007-.349.012-.524l0-.143c0-.125.01-.25.018-.375s.014-.222.018-.333c.008-.221.017-.481.015-.746,0-.283,0-.567,0-.85s.013-.557.023-.834.017-.556.022-.834c0-.208,0-.414,0-.623v-.077c0-.259.007-.515.014-.709.009-.234.014-.465.019-.7,0-.173.009-.343.016-.511,0-.1.007-.2.011-.307.013-.438.047-.882.079-1.31l.01-.131c.009-.125.015-.25.021-.373,0-.075.007-.151.012-.226l.018-.264c.009-.132.017-.262.024-.394.009-.166.021-.332.034-.5.018-.263.038-.536.047-.807.015-.423.006-.869-.028-1.445l-.01-.163c-.009-.164-.02-.329-.024-.495,0-.128,0-.256,0-.386l0-.194V43c0-.4,0-.816.039-1.22.02-.168.044-.322.072-.471l.03-.146c.022-.107.043-.214.061-.322a10.429,10.429,0,0,0,.1-1.223c.008-.221.022-.441.036-.662.011-.186.022-.372.031-.56.014-.3.041-.635.085-1.045.031-.3.051-.549.061-.775a6.625,6.625,0,0,0-.041-.923A8.762,8.762,0,0,1,200.968,33.853ZM173.282,188.168a1.08,1.08,0,0,1-.846.4,1.031,1.031,0,0,1-.34-.055,2.042,2.042,0,0,1-.351-.188l-.074-.051-.049-.022-.068.064.051-.036-.182.282c-.168.261-.358.558-.564.822a5.532,5.532,0,0,1-.9.935,1.128,1.128,0,0,1-.671.255.707.707,0,0,1-.511-.279.893.893,0,0,1-.2-.52.32.32,0,0,1,0-.053,1.192,1.192,0,0,1,.122-.48,1.212,1.212,0,0,1,.185-.252,2.228,2.228,0,0,1,.21-.167l.1-.075c.069-.063.147-.139.22-.219.041-.061.081-.119.123-.173a4.644,4.644,0,0,0,.366-.729,3.832,3.832,0,0,1,.458-.763c.146-.226.319-.446.458-.623l.166-.212a1.652,1.652,0,0,0,.082-.176c.053-.176.09-.358.126-.54a5.588,5.588,0,0,1,.133-.558,3.463,3.463,0,0,1,.355-.839,1.035,1.035,0,0,1,.392-.409.516.516,0,0,1,.295-.088,1.2,1.2,0,0,1,.2.022.625.625,0,0,1,.3.205.972.972,0,0,1,.156.261l.036.092a1.786,1.786,0,0,1,.085.256q.026.128.057.255l.015.067c.023.1.046.208.065.318.049.29.084.583.108.873,0,.1.008.209.012.322l.008.244c.025.1.053.2.09.327l.036.127a1.557,1.557,0,0,1,.065.512A1.505,1.505,0,0,1,173.282,188.168Zm9.046-21.685A2.6,2.6,0,0,1,182,167a6.5,6.5,0,0,1-.8.747c-.024.021-.049.04-.082.066l-.243.214-.085.074c-.057.049-.113.1-.15.135l-.052.044a7.42,7.42,0,0,1-.691.545l-.224.251-.222.25c-.078.092-.15.182-.23.284l-.215.325a10.009,10.009,0,0,1-.957,1.287l-.371.4c-.315.335-.672.715-.987,1.113-.206.25-.462.559-.727.835l-.233.315c-.086.138-.169.275-.251.411a9.422,9.422,0,0,1-.553.858,2.8,2.8,0,0,1-.634.623,1.866,1.866,0,0,1-.674.34,2.471,2.471,0,0,1-.617.088,1.76,1.76,0,0,1-.229-.014c-.133-.015-.262-.031-.388-.049l-.113-.01a1.314,1.314,0,0,1-.407-.071,1.76,1.76,0,0,1-.634-.429,1.5,1.5,0,0,1-.346-.839l-.01-.073a1.271,1.271,0,0,1-.1-.433c0-.032-.006-.067-.011-.1a.752.752,0,0,1,0-.107,1.294,1.294,0,0,1,.168-.643l.106-.163a3.447,3.447,0,0,1,.172-.471,4.248,4.248,0,0,1,.383-.724,5.043,5.043,0,0,1,.617-.773,5.449,5.449,0,0,1,.5-.437l.109-.09c.149-.131.3-.268.471-.433a11.1,11.1,0,0,1,.989-.849c.236-.169.476-.334.716-.5.306-.21.613-.419.913-.639a7.265,7.265,0,0,1,.8-.483c.22-.121.446-.246.66-.389l.118-.082.116-.078c.067-.077.131-.157.2-.251.055-.071.116-.138.178-.2.04-.042.078-.084.116-.129l.222-.308.137-.185a5.778,5.778,0,0,1,.508-.659,6.451,6.451,0,0,1,.684-.595l.071-.065a2.52,2.52,0,0,1,.794-.578.922.922,0,0,1,.356-.066,1.7,1.7,0,0,1,.572.115,1.494,1.494,0,0,1,.768.5,1.552,1.552,0,0,1,.126,1.578Z"/>
    </g>
  </g>
</svg>
