<svg xmlns="http://www.w3.org/2000/svg" width="799.041" height="228.227" fill="#241e1f" xmlns:v="https://vecta.io/nano"><path d="M798.912 10.209l-.009.01.014-.013h0zM375.8.665l-.105-.011h-.009z"/><path d="M737.728 170.645l-1.791-.036-1.113.02-2.486.174-.223.019-2.141.179-1.592.2-.426.056-.7.093-.362.038-.56.062-.631.076-.366.023-.369.025-2.066.117-2.5.145-2.861.193-2.244.15-3.1.256-1.476.131-.343.027-1.563.132q-1 .1-1.932.233l-1.2.218a4.736 4.736 0 0 0-.537.143l-.33.049c-.293.039-.491.111-.529.194a.084.084 0 0 0 .01.032.24.24 0 0 1 .037.03.243.243 0 0 0 .128.076 1.572 1.572 0 0 0 .2.054l.033.022a2.8 2.8 0 0 0 1.084.253l1.99.13q.636.021 1.279.022h.353l1.216.014h.711q.967 0 1.93-.026l2.112-.1 1.99-.188q.893-.118 1.734-.259l.782-.124.733-.095 2.274-.25 3.094-.335 1.163-.121q1.551-.168 3-.388l.675-.1.72-.085.695-.075.7-.076 2.166-.164.162-.013.469-.041.266-.022.764-.064.256-.02q1.275-.1 2.5-.225l1.023-.157c.772-.164.625-.337-.4-.475l-2.408-.147zm61.184-160.436l-.009.01.014-.013h0zM375.8.665l-.105-.011h-.009z"/><path d="M798.882 33.853l-.019.042.012-.033v-.009h0l.008-.023.013-.029a1.173 1.173 0 0 0 .105-.822 1.348 1.348 0 0 0-.347-.514 5.143 5.143 0 0 0-.682-.493l-.9-.544a.932.932 0 0 0-.076-.156 2.681 2.681 0 0 0-1.069-.786q-.695-.345-1.377-.689l-.186-.095-.189-.1-.074-.065-.077-.066a.8.8 0 0 0-.352-.134l-.53-.311a.955.955 0 0 1-.248-.269.4.4 0 0 1-.037-.232.858.858 0 0 1 .069-.062l.346-.2.613-.37.223-.188.169-.143a6.71 6.71 0 0 1 .469-.338l-.02.009.134-.079a1.168 1.168 0 0 0 .249-.239.424.424 0 0 0 .031-.431.586.586 0 0 0-.205-.206 3.341 3.341 0 0 0-.335-.212c-.174-.1-.371-.189-.569-.281l-.274-.127-.6-.286-.971-.465-.783-.4-.722-.456a2.228 2.228 0 0 1-.392-.342.9.9 0 0 1-.178-.292c-.037-.1-.084-.2-.129-.3l-.029-.065a3.415 3.415 0 0 1-.142-.521v-.042a1.2 1.2 0 0 1-.023-.216.571.571 0 0 1 .074-.248 1.486 1.486 0 0 1 .248-.341l.329-.335a1.769 1.769 0 0 0 .307-.366.511.511 0 0 0 .059-.378 1.515 1.515 0 0 0-.606-.834 4.366 4.366 0 0 0-.61-.415 7.276 7.276 0 0 0-.771-.361l-.165-.07-.583-.246q-.782-.312-1.43-.644l-.557-.3-.779-.421-1.529-.767-1.736-.706-.376-.151-.755-.29q-.639-.232-1.372-.448l-.376-.114-1.538-.448q-.9-.241-1.648-.516l-.463-.193-.557-.279-.117-.061-1.145-.6-1.113-.545q-.711-.312-1.564-.6l-1.186-.368-.589-.179-.307-.093q-.6-.2-1.312-.371l-1.934-.348-.088-.014-.853-.116-.3-.037-1.331-.153-1.482-.144-.949-.089-1-.1-1-.1-.958-.1-1.1-.119-2.146-.216-.624-.066-1.39-.143-.746-.077-.418-.045-.843-.083-.352-.036-2.425-.215q-1.01-.068-2.046-.107l-2.692-.219-1.255-.212a9.329 9.329 0 0 1-.983-.313l-.441-.189-.358-.155a9.382 9.382 0 0 0-1.155-.386l-1.639-.355-.8-.133-.933-.123-1.6-.112-1.74-.049c-.217 0-.435-.007-.652-.012q-.569-.006-1.137-.022l-1.776-.064-.888-.039-1.262-.067-1.563-.079-1.706-.06-1.389-.046-2.041-.1-1.147-.044-.908-.032-2.241-.092-1.406-.036c-.254 0-.507-.008-.766-.016l-2.866-.238-1.462-.259-.8-.189c-.939-.246-1.984-.464-3.115-.651l-2.49-.3-2.559-.186-.331-.021-2.257-.12-.827-.041-1.99-.125-1.137-.074-1.271-.08-1.279-.08-3.357-.171-2.216-.125-.372-.023-1.942-.124-4.406-.328-.252-.021-1.671-.14-2.426-.136-.978-.036c-.211 0-.427-.006-.634-.006h-.469l-1.856.054q-.465.011-.926.01c-.284 0-.568 0-.852-.006h-.158a39.1 39.1 0 0 1-1.422-.025q-.57-.034-1.114-.091l-1.19-.128-1.279-.219-1.1-.316a6.675 6.675 0 0 0-.92-.227l-1.07-.133-1.315-.075-.578.014a3.522 3.522 0 0 0-.354.026 6.963 6.963 0 0 0-.968.153q-.33.088-.621.185l-.569.167-.254.036-.31.023h-.105-.275q-.322-.022-.632-.055l-.8-.107-.775-.137-.3-.078-.7-.172a11.524 11.524 0 0 0-1.6-.2l-1.489-.079h-.155-.6c-.106 0-.212-.005-.319-.005h-.779l-.515.006-1.481.081-.711.071-.485.048-1.506.094q-.564.01-1.126.01h-1.185c-.719 0-1.437-.018-2.147-.046l-1.044-.044L635.4.619l-1.913-.1h-.092-.089l-2.068-.09q-.909-.024-1.825-.019h-1.38l-1.91.01-2.176.049-.3.007-3.472.053h-.449l-2.655.022-1.328.01-1.518.006c-1.715 0-3.462-.019-5.146-.038l-1.527-.014h-.456a77.97 77.97 0 0 1-1.522-.018l-1.422-.036-.84-.02-5.227-.176-2.006-.1h-.1q-1.1-.062-2.212-.093l-3.038-.031h-.8l-3.652.053q-2.1.048-4.166.153l-.742.043-.2.012-.169.005-.711.047-.891.08-.735.068q-1.011.08-2.051.13l-1.848.114-1.63.143-.832.084-1.445.143-1.886.107-.38.016-2.123.082h-.047l-2.22.049h-.478c-.614 0-1.228-.007-1.841-.016l-.73-.009-.729-.011-.873-.014-.757-.014-.674-.011-1.019-.015-.72-.013-.9-.018-2.881-.027h-.739-.742-1.369l-2.536.073-2.1.087h-.11l-.455.012-.48.014-1.591.064-1.989.148-.751.066-2.648.184q-.3.018-.6.031l-.654.036-1.316.065q-1.3.039-2.588.089l-2.348.1-.667.032-.661.032-.73.028-.488.018-.178.007-1.9.074-1.722.02h-.893l-.61.007-.914.011h-.508c-.434 0-.869 0-1.3-.011l-.647-.014c-.241 0-.48-.011-.723-.014l-1.312-.01-3.111.029-1.486.04-.334.01-1.137.044-3.378.216-3.039.185-3.226.132q-1.188.031-2.371.059l-1.114.012c-.372 0-.768 0-1.155-.008h-.142l-3.938-.031h-.776-.7l-1.652.006h-.623q-.939 0-1.88-.007-1.137-.009-2.274-.009l-2.3.018-2.385.044-.924.019-1.279.023-4.776.066-4.069.137-.63.026-.4.016-2.38.1-1.806.108-1.208.075-1.881.1-1.4.069-2.663.12h.142l-1.713.056-1.458.051h-.08 0l-.86.029-.924.045-3.891.139-2.1.081-1.422.044-1.563.036-.995.013-1.2.017-2.015.054-.347.011-1.006.038-.891.033-2.02.023h-.108q-.339 0-.675-.013l-.36-.01-.77-.02-.284-.009-1.224-.014-1.075.006-2.241.013h-.152c-.464 0-.925-.006-1.386-.012l-.691-.007h-.445l-1.186.007h-.569-.261c-.525 0-1.058-.008-1.58-.017l-1.974-.045-.625-.016h0a2.236 2.236 0 0 0-1.044.197l-.622-.015-.678-.015-3.372-.029h-.258l-1.733-.006-1.751-.007q-1.32 0-2.641 0h-4.386a124.34 124.34 0 0 1-3.293-.036l-2.01-.146-1.695-.282-1.743-.319-1.66-.251-1-.127-1.208-.15-3.3-.375-3.688-.3-.985-.057-.55-.031-1.487-.082-.17-.009-2.536-.233-.448-.076.134.036-.142-.036h.011l-.142-.037-.05-.02h.009l-.024-.042h.008a2.814 2.814 0 0 1 .452-.372 1.879 1.879 0 0 0 .306-.248c.122-.147.088-.3-.1-.442a2.729 2.729 0 0 0-.727-.329 7.035 7.035 0 0 0-1.193-.229l-1.319-.153-.589-.062-1.647-.156-1.4-.057h-.143-.426l-.694.008h-.382q-1.236.015-2.473.027l-4.322.053-3.12.077-1.622.055-2.031.066-1.761.032-1.606.027-2.76.118-1.464.111-1 .079-.937.074-1.482.109q-.559.037-1.107.081l-1.449.1-.783.047-1.848.1-.722.029q-1.128.05-2.274.071l-2.823.085a8.082 8.082 0 0 0-1.351.2c-.405.114-.654.257-.711.409s.027.306.25.449a1.445 1.445 0 0 1 .239.223v.042h0a.259.259 0 0 1-.064.056l-.19.046-.681.106-.243.029-1.214.131-1.8.125-1.238.029h-.363c-.254 0-.509 0-.763-.007h-.476l-3.394-.036-3.078-.076-.311-.011-1.292-.039-1.521-.016h-.5l-7.051.075-1.718.043-1.321.036-1.1.016h-.453l-1.878-.05h-.024l-2.365-.138-.853-.068-1.494-.116-2.078-.1-.443-.019-2.559-.1-1.731-.091-.419-.027q-.621-.048-1.261-.074l-1.239-.023h-.306l-1.651.079-.255.018-1.017.073-.561.042-1.444.092-.48.029-3.627.172-1.248.033-1.41.039-2.762.13-1.073.062-1.218.069-1.13.072-1.5.092-2.389.2-2.425.341-1.2.2-.928.157-2.314.314-1.828.2-.235.025-.391.04-1.594.157-3.655.208-.326.014-2.378.048h-.488l-3.016.055-1.045.029-1.978.045h-.314q-1.12-.006-2.229-.049l-1.339-.061-.392-.019-1.909-.046h-1.44c-1.112 0-2.224 0-3.337-.007q-2.6-.011-5.208-.013c-1.705 0-3.409-.023-5.1-.075l-1.408-.068-.748-.044-.934-.053-2.818-.06q-.438 0-.876 0l-8.836.154h-.142l-1.749.039h-.524c-.487 0-.974-.006-1.461-.012h-.343l-3.027-.063-1.086-.027-1.171-.018h-.407l-1.99.046-2.79.108-1 .043-3.193.075-1.187.01h-1.343c-.285 0-.569 0-.863-.006q-3.183-.009-6.366-.036l-6.318-.023c-1.993 0-3.985-.031-5.961-.1q-1.524-.069-3.012-.179-.592-.04-1.195-.072l-.327-.018-.479-.028-1.279-.064q-1.866-.07-3.752-.091-1.766-.012-3.517-.072l-2.656-.172-1.946-.214-.441-.052-3.218-.316-1.705-.042h-.263c-.82 0-1.494-.007-2.117-.022l-2.558-.2-.553-.068-1.612-.2-2.636-.21-.569-.031-.814-.048-.978-.081-.21-.019q-1.213-.105-2.469-.173l-.7-.032c-.142 0-.276-.01-.412-.017l-.371-.016-.929-.036-2.1-.02h-.989q-2.461 0-4.912-.065-.855-.036-1.687-.1l-.171-.013-.743-.054-.788-.032h-.164l-1.51-.107-.8-.111-.969-.133-.219-.033-.057-.016c-.161-.049-.343-.093-.542-.133-.3-.053-.641-.095-1-.124l-1.525-.071-.335-.011-2.038-.116-1.319-.042h-.292l-1.054-.025-1.808-.157-2.374-.244-1.25-.042q-.923 0-1.838.036h-.105q-.852.026-1.69.074l-1.314.124-1.706.143-2.047.115-3.607.055-2.819.036-2.47.071-.322.012-1.236.033-1.279.033-1.934.129-1.785.275-.417.078-.949.174-1.251.185-.625.072-.59.053-.36.032-.828.083-.642.049-.407.029a20.358 20.358 0 0 0-2.242.332l-.8.153-1.438.286-.069.015-.069.02h0l-1.4.325-.2.044-.406.1-.081.016-.08.019-.284.057-.513.108-1.4.255-1.535.286-2.022.489-1.376.348L46.844 6l-.807.143-.937.172a27.615 27.615 0 0 0-2.942.775l-1.656.506-1.26.384-.555.178-.646.21-1.338.369-1.892.376-.3.058-3.346.694-1.094.268-.33.082-.129.033-1.652.42-1.521.429-1.194.381-.345.122-1.974.577-.916.257-2.736.817-.355.111-1.077.331-.84.239q-.261.072-.518.146l-.585.185-.427.135q-.558.173-1.189.328-.672.129-1.393.241l-1.442.252q-.522.108-1.049.211l-1.948.406-.577.144a6.253 6.253 0 0 0-.853.3l-.122.049a1.79 1.79 0 0 0-.69.476.612.612 0 0 0-.157.481l.031.074.081.166a1.1 1.1 0 0 0 .08.126 1.971 1.971 0 0 0 .17.206 2.982 2.982 0 0 0 .473.37 2.084 2.084 0 0 1 .492.616 2.07 2.07 0 0 1 .037.7l-.008.207v.184l-.029.732a2.484 2.484 0 0 0 .114 1.014 2.024 2.024 0 0 0 .274.534 1.291 1.291 0 0 0 .133.185l.106.139a.586.586 0 0 0 .008.118v.04a.687.687 0 0 0 .11.286l.015.029a1.192 1.192 0 0 0 .419.321l.1.058.031.026h0l.046.173a2.339 2.339 0 0 0 .217.572 1.529 1.529 0 0 0 .427.429 3.723 3.723 0 0 0 .411.25 4.13 4.13 0 0 0 .568.219l.191.088.169.078.609.222.127.044a5.489 5.489 0 0 0 .814.232l.792.159.057.02a.6.6 0 0 1 0 .415.409.409 0 0 1-.084.09l-.173.054-.094.018-.354.057-1.485.131-.863.078a13.117 13.117 0 0 0-2.124.395 3.025 3.025 0 0 0-.939.358c-.149.118-.2.243-.142.366a1.228 1.228 0 0 0 .2.424 1.039 1.039 0 0 0 .178.191 1.338 1.338 0 0 1 .169.167 3.461 3.461 0 0 1-.3 1.645 2.239 2.239 0 0 1-.52.7 4.58 4.58 0 0 1-.334.257l-.1.077a2.1 2.1 0 0 0-.263.231l-.1.1a1.1 1.1 0 0 0-.34.751l-.023.136a3.441 3.441 0 0 1-.18.641l-.175.3a3.7 3.7 0 0 0-.222.4.507.507 0 0 0 .132.457l.02.032a1.7 1.7 0 0 0 .832.615 4.423 4.423 0 0 0 .655.214q.339.078.711.146l.112.021a5.962 5.962 0 0 0 1.114.094l.685-.025 1.26-.129a3.438 3.438 0 0 0 .96-.291l.11-.046.061-.022.257-.091.185-.048.272-.052.2-.035.661-.158.226-.037.165-.026.284-.053.211-.042.142-.025.266-.049a4.331 4.331 0 0 0 .533-.149c.021 0 .081-.021.142-.038l.184-.054a2.045 2.045 0 0 0 .248-.107l.076-.036.114-.031.142-.042a1.909 1.909 0 0 0 .427-.179l.251-.14.363-.21.315-.191.329-.2a3.738 3.738 0 0 1 .426-.242 2.989 2.989 0 0 0 .267-.155l.191-.118.156-.083.181-.1a1.834 1.834 0 0 0 .181-.122l.049-.036a8.022 8.022 0 0 1 .747-.411l.469-.192.347-.14.258-.105.958-.285 1.048-.192.772-.056.3.023c.1.01.208.035.3.056l.255.063.257.061.036.023h0a1.335 1.335 0 0 1-.056.322v.023a3.533 3.533 0 0 1-.173.521 1.041 1.041 0 0 1-.252.276 5.5 5.5 0 0 1-.757.36l-.893.38-.239.1-.2.088c-.1.043-.178.089-.258.134l-.109.059a2.088 2.088 0 0 0-.468.319.558.558 0 0 0-.142.252l-.017.059a3.218 3.218 0 0 1-.246.353.332.332 0 0 0 .016.555 1.651 1.651 0 0 0 .711.262 5.822 5.822 0 0 0 .928.075h0a7.225 7.225 0 0 0 1.013-.086l.077-.01.415-.065.237-.038.36-.032.375-.033q.4-.041.81-.066a1.773 1.773 0 0 0 .189.075l.036.125.035.13a2.98 2.98 0 0 0 .229.5 1.676 1.676 0 0 0 .189.269 2.3 2.3 0 0 0 .584.436 1.986 1.986 0 0 1 .09.452l.02.178.013.088a1.049 1.049 0 0 1 .02.435.83.83 0 0 1-.171.193 2.691 2.691 0 0 1-.3.147l-.366.08-.492.1-.485.075-.241.035-1.171.164-1.192.153a8.318 8.318 0 0 0-.9.166q-.368.1-.667.212a6.085 6.085 0 0 0-.568.229 1.757 1.757 0 0 0-.36.244l-.053.045a.737.737 0 0 0-.234.34.283.283 0 0 0 .011.192l.016.044a1.3 1.3 0 0 1-.016.874 2.667 2.667 0 0 1-.173.265 2.042 2.042 0 0 0-.158.238.805.805 0 0 0-.085.361.875.875 0 0 1-.044.264.727.727 0 0 1-.157.165l-.378.178h.009l-.259.088a1.178 1.178 0 0 1-.189-.018l-.089-.024-.143-.066-.217-.1-.033-.041-.169-.188a1.152 1.152 0 0 0-.1-.077.614.614 0 0 1-.114-.1.7.7 0 0 1-.024-.165v-.069a.766.766 0 0 0-.5-.622 2.1 2.1 0 0 0-.548-.164l-.151-.025-.077-.013-.186-.1a2.342 2.342 0 0 0-.568-.169l-.413-.079-.307-.038-.044-.055a.3.3 0 0 0-.015-.115 1.614 1.614 0 0 0-.152-.393 1.328 1.328 0 0 0-.347-.335l-.06-.044-.27-.192a1.681 1.681 0 0 0-.338-.138l-.088-.042a2.5 2.5 0 0 0-.753-.323 5.561 5.561 0 0 0-1.093-.133l-.722-.01a10.272 10.272 0 0 0-1.6.112 6.381 6.381 0 0 0-.647.149l-.18.047-.211.056-.509.129q-.38.076-.71.166a4.06 4.06 0 0 0-.391.147l-.209.085a1.813 1.813 0 0 0-.2.091l-.143.065-.233.1-.335.148-.048.033a.716.716 0 0 0-.081.055 1.049 1.049 0 0 1-.11.067c-.04.023-.072.046-.108.07a1.748 1.748 0 0 0-.276.212.326.326 0 0 0-.075.125l-.024.055a3.687 3.687 0 0 1-.263.377l-.028.035a.793.793 0 0 0-.214.6 1.236 1.236 0 0 0 .3.651 2.894 2.894 0 0 0 .454.4 1.966 1.966 0 0 1 .4.394 3.034 3.034 0 0 1 .013.344v.506l.009.339a11.689 11.689 0 0 0 .108 1.186c.105.871.142 1.74.156 2.4l.017.6.02.59v.587l.008.736c.013.314.053.63.094.945a8.041 8.041 0 0 1 .094 1.317 1.341 1.341 0 0 1-.1.5 4.31 4.31 0 0 1-.685.937 3.785 3.785 0 0 0-.294.361l-.052.069a1.242 1.242 0 0 0-.181.365l-.049.127-.079.154-.143.273a.757.757 0 0 0 .012.518l.015.059a2.559 2.559 0 0 0 .189.531 1 1 0 0 0 .207.286l.092.089a1.8 1.8 0 0 1 .223.238 1.9 1.9 0 0 0 .142.481 1.625 1.625 0 0 0 .465.46 1.179 1.179 0 0 1 .254.273l.09.115.031.038a2.36 2.36 0 0 1 .226.284 2.2 2.2 0 0 0 .211.429 1.713 1.713 0 0 0 .2.239 1.629 1.629 0 0 1 .189.22l.189.431a2.894 2.894 0 0 0 .152.261l.142.241a1.5 1.5 0 0 1 .033.421v.117l-.016.655-.1 1.616-.218 3.336-.081 1.476q-.055.886-.093 1.775a5.234 5.234 0 0 0 .031.739 2.944 2.944 0 0 1-.1 1.4c-.061.107-.142.215-.209.322l-.142.206a1.905 1.905 0 0 0-.2.431l-.068.183a4.905 4.905 0 0 1-.388.569l-.248.349a2.077 2.077 0 0 1-.271.305l-.077.081a1.721 1.721 0 0 0-.338.541l-.036.067a2.737 2.737 0 0 0-.142.3 1.129 1.129 0 0 0-.074.462v.34l.012.516a2.161 2.161 0 0 0 .121.7 4.159 4.159 0 0 0 .254.545l.089.174a1.032 1.032 0 0 1 .09.3 1.056 1.056 0 0 1-.024.321v.03a3.277 3.277 0 0 1-.2.674l-.162.276a3.018 3.018 0 0 0-.25.485 1.07 1.07 0 0 0-.036.476c0 .06.009.122.013.183a4.046 4.046 0 0 1-.27 1.63l-.105.188a3.8 3.8 0 0 0-.249.456 1 1 0 0 0-.048.188l-.033.131a2.5 2.5 0 0 1-.121.312 4.02 4.02 0 0 1-.452.681c-.084.1-.142.208-.214.312l-.214.31a2.731 2.731 0 0 1-.274.275 2.444 2.444 0 0 0-.263.269 3.076 3.076 0 0 1-.625.542 5.929 5.929 0 0 0-.638.472 3.641 3.641 0 0 0-.448.472l-.07.086a1.593 1.593 0 0 0-.322.5 2.446 2.446 0 0 0-.1.513 3.808 3.808 0 0 0-.013.808 1.29 1.29 0 0 0 .175.508 1.494 1.494 0 0 0 .213.278 1.5 1.5 0 0 1 .142.169l.051.22a1.449 1.449 0 0 0 .074.28 3.763 3.763 0 0 0 .367.649 1.22 1.22 0 0 1 .008.362v.124c0 .192-.015.383-.031.574l-.068.565-.061.523a5.476 5.476 0 0 0 .004 1.077 1.889 1.889 0 0 0 .224.662 3.617 3.617 0 0 0 .214.33l.074.1a1.618 1.618 0 0 1 0 .251v.107l-.016.355v.181l-.008.24a7.738 7.738 0 0 0 0 .9 3.377 3.377 0 0 0 .233 1.032 4.1 4.1 0 0 0 .364.712 2.66 2.66 0 0 0 .2.272c.074.089.142.2.21.3a6.745 6.745 0 0 0 .391.849 3.082 3.082 0 0 0 .25.361l.232.332.1.482.157.723.241 1.127.1.622.11.628a2.353 2.353 0 0 1-.07 1.334c-.064.123-.142.244-.214.364l-.118.19a1.533 1.533 0 0 0-.158.42l-.084.273-.088.157a1.431 1.431 0 0 0-.226.546v.028a3.245 3.245 0 0 1-.142.8 5.444 5.444 0 0 1-.538.807l-.338.467a6.279 6.279 0 0 1-.577.7l-.1.11a3.348 3.348 0 0 0-.239.305l-.055.082-.049.064a3.031 3.031 0 0 0-.247.376l-.092.166a4.266 4.266 0 0 0-.31.654 2.557 2.557 0 0 0-.109.624l-.025.244a9.755 9.755 0 0 0-.072 1.757 11 11 0 0 1 0 1.574l-.09.778-.084.729a3.527 3.527 0 0 0 0 .712 1.719 1.719 0 0 0 .3.7 2.639 2.639 0 0 0 .6.557l.132.1.529.38a2.6 2.6 0 0 0 .331.2 4.032 4.032 0 0 0 .376.157l.117.044a2.454 2.454 0 0 1 .445.239l.068.045c.094.071.178.146.262.22l.315.258.711.563a5.25 5.25 0 0 1 .476.482 1.11 1.11 0 0 1 .17.257l.042.076.093.173.077.141a2.511 2.511 0 0 1 .113.644l.085.694a2.426 2.426 0 0 0 .247.7c.057.107.129.215.2.322l.165.257a2.382 2.382 0 0 0 .509.8 3.219 3.219 0 0 0 .234.233l.238.232a2.058 2.058 0 0 1 .331.512 2.713 2.713 0 0 1 .142 1.136v.24a10.92 10.92 0 0 1-.07 1.507 5.65 5.65 0 0 1-.179.751 3.941 3.941 0 0 0-.2.976 4.289 4.289 0 0 1-.25 1.619 2.983 2.983 0 0 1-.637.772l-.387.358-.449.412-.723.674a1.542 1.542 0 0 0-.384.665.512.512 0 0 0 .094.378l.015.028a2.383 2.383 0 0 0 .182.3 3.64 3.64 0 0 0 .691.673l.051.04a5.429 5.429 0 0 0 .92.636l.243.126.657.357a.481.481 0 0 1 .085.083 1.4 1.4 0 0 1 .031.357 1.718 1.718 0 0 0 .009.215 1.6 1.6 0 0 0 .284.708 1.863 1.863 0 0 0 .284.309 2.553 2.553 0 0 1 .246.238 3.8 3.8 0 0 0 .627.556l.033.026.142.122.186.15.079.061a4.273 4.273 0 0 1 .356.288c.112.11.241.217.372.322l.363.309a4.57 4.57 0 0 0 .4.316l.294.225.185.139.13.1a1.14 1.14 0 0 1 .294.341.692.692 0 0 1-.068.478l-.143.25a1.558 1.558 0 0 0-.284.684 2.894 2.894 0 0 1-.185.98 4.418 4.418 0 0 1-.622.786l-.182.206-.226.254a3.729 3.729 0 0 1-.456.365l.075-.036-.125.072h0l-.011.007h0 0 0l-.376.259-.065.043-.316.218-.241.141-.314.192-.118.076-.255.172a1.651 1.651 0 0 0-.354.339 1.09 1.09 0 0 0-.182.62v.036l-.028.58v.028a3.683 3.683 0 0 0 .092 1 2.155 2.155 0 0 0 .3.6 1.741 1.741 0 0 0 .2.239l.178.2a3.475 3.475 0 0 1 .084.691 1.906 1.906 0 0 1-.088.691 2.662 2.662 0 0 1-.4.462l-.08.081a1.994 1.994 0 0 0-.205.26l-.037.056a1.286 1.286 0 0 1-.314.286l-.258.163-.388.245.031-.014-.472.274-.227.135-.169.1a4.45 4.45 0 0 1-.617.321l-.569.236a2.548 2.548 0 0 0-.5.295l-.219.152a.243.243 0 0 0-.1.207.837.837 0 0 1-.075.322 1.612 1.612 0 0 1-.254.368l-.207.214a.926.926 0 0 0-.221.322 1.215 1.215 0 0 1-.285.306.315.315 0 0 0-.157.226.585.585 0 0 0 .032.156l.02.068.044.182a6.516 6.516 0 0 1 .174.908 10.519 10.519 0 0 1-.032 1.443l-.035.345a5.546 5.546 0 0 0-.031 1.094 2.008 2.008 0 0 0 .21.676 2.556 2.556 0 0 0 .276.409 3.751 3.751 0 0 1 .233.329 6.088 6.088 0 0 1 .068 1.305v.716a3.3 3.3 0 0 0 .1.75 1.527 1.527 0 0 0 .434.723 2.006 2.006 0 0 1 .186.2 3.326 3.326 0 0 1 .036.7v.6.729l.011.133a10.345 10.345 0 0 1 .048 1.171 1.015 1.015 0 0 0 .128.57 1.236 1.236 0 0 0 .272.292 1.8 1.8 0 0 1 .237.23 2.8 2.8 0 0 1-.1.856l-.074.371a1.067 1.067 0 0 0 .057.594.609.609 0 0 0 .2.275 3.291 3.291 0 0 0 .461.306 1.028 1.028 0 0 1 .156.175l.068.085.127.143a2.154 2.154 0 0 1 .166.184.463.463 0 0 1 0 .17v.356l-.011.217-.013.331a1.163 1.163 0 0 0 .142.564.926.926 0 0 0 .217.274 2.179 2.179 0 0 0 .38.257l.077.045a2.116 2.116 0 0 0 .452.282l.831.315.06.022q.332.124.726.236a7.129 7.129 0 0 0 .972.171l.427.06.763.1.362.024q.1 0 .2.009l.249.014a2.14 2.14 0 0 1-.31.306 4 4 0 0 1-.391.187q-.661.219-1.408.421l-.427.077-1.252.278c-.769.205-1.179.48-1.137.762a1.7 1.7 0 0 1-.1.958.872.872 0 0 1-.132.155l-.174.085-.271.093-.937.34-.121.051a5.275 5.275 0 0 0-.838.4c-.312.182-.484.377-.505.575a.72.72 0 0 0 .017.189l.02.114a1.409 1.409 0 0 1-.031.523 2.162 2.162 0 0 1-.411.393l-.25.158-.291.188-.327.173-.2.1a2.045 2.045 0 0 0-.753.619.491.491 0 0 0-.1.36l.033.256.013.163a1.815 1.815 0 0 0 .035.326c.017.121.046.241.07.361a2.334 2.334 0 0 1 .047 1.226 1.238 1.238 0 0 1-.263.289 7.379 7.379 0 0 0-.8.529.545.545 0 0 0-.2.378 1.145 1.145 0 0 0-.013.208 2.166 2.166 0 0 0 .143.894 2.635 2.635 0 0 0 .645 1.015l.16.174.2.209a3.323 3.323 0 0 0 .508.352l.122.076.156.137.1.09a4.62 4.62 0 0 0 .441.322l.375.3.2.162a1.016 1.016 0 0 1 .189.214l.044.061.04.058a1.36 1.36 0 0 1 .1.151 1.253 1.253 0 0 1-.013.465l-.008.071a1.8 1.8 0 0 1-.1.4 1.772 1.772 0 0 1-.13.165c-.217.18-.245.371-.081.555a4.772 4.772 0 0 0 1.412.606l.314.134a1.835 1.835 0 0 1 .247.255 1.245 1.245 0 0 1 .017.322v.2a4.137 4.137 0 0 1-.016.444l-.008.066c0 .043-.009.088-.009.133a.705.705 0 0 0 .12.322l.021.039a1.71 1.71 0 0 0 .206.272 2.518 2.518 0 0 1 .166.208 1.118 1.118 0 0 0 .259.691 3.2 3.2 0 0 0 .8.531l.166.093.275.176c.076.046.166.089.254.134l.2.1.669.461c.113.085.206.17.3.257l.117.1a.99.99 0 0 1 .237.339 1.379 1.379 0 0 0 .085.154 7.2 7.2 0 0 0 .435.586l.04.052a6.954 6.954 0 0 1 .647 1.029l.065.118a1.073 1.073 0 0 0 .579.223l.028.028.024.021a1.407 1.407 0 0 1 .186.265 1.25 1.25 0 0 1 .046.112c.038.213.287.42.723.6l.069.036.243.118.2.094a2.037 2.037 0 0 1 .4.3l.057.049a2.6 2.6 0 0 0 .549.395 10 10 0 0 0 .929.445l.784.346.358.179.031.012.024.008.255.137.079.04-.027-.017.734.374.376.186.248.125.284.139a3.858 3.858 0 0 1 .762.55 3.644 3.644 0 0 1 .464.768 1.884 1.884 0 0 0 .319.481 2.739 2.739 0 0 0 .5.408 5.78 5.78 0 0 0 .819.431l.838.364 1.8.625.316.095.629.2.853.3 1.477.631.512.3.307.209.247.169.041.028.52.338.233.135.094.055a4.062 4.062 0 0 0 .5.245l1.779.662q1 .351 2.156.67l2.843.636q.894.156 1.848.29l.18.026 1.312.2 1.279.247q.636.135 1.2.291l.56.2.472.212.626.368.158.1.427.266a5 5 0 0 0 .931.417l1.206.346 1.214.278.917.207 2.274.524.223.049 1.016.226.178.041.985.219 1.3.26 1.461.253.294.052.6.1.113.019 1.575.267.548.084 1.147.179.593.107 1.356.241.929.114.077.007.853.091.387.043.921.116.166.021 1.083.151.723.11.268.042.905.146.871.167q.465.1.873.215a6.146 6.146 0 0 1 .8.3l.218.108.108.053a4.009 4.009 0 0 0 .7.262 12.692 12.692 0 0 0 1.43.272l1.287.158 2.4.116.384.009 1.808.026 1.159-.021 1.078-.061.658-.038 1.921-.086.629-.03.189-.01.427-.019.426-.02 1.8-.055q.679.01 1.349.04l1.159.026h.291a14.178 14.178 0 0 0 1.454-.109l.372-.044.259-.03a5.607 5.607 0 0 0 1.228-.274 2.152 2.152 0 0 0 .674-.386l.07-.054a1.538 1.538 0 0 0 .379-.418 1.138 1.138 0 0 0 .128-.411 1.5 1.5 0 0 0 .008-.439 2.412 2.412 0 0 0-.068-.316l-.023-.08a2.23 2.23 0 0 1-.054-.375v-.1a.917.917 0 0 1 .016-.208l.021-.137.032-.219a2.488 2.488 0 0 0-.033-.517l-.027-.238a.864.864 0 0 1 .1-.375l.178-.4.284-.786.116-.413a2.31 2.31 0 0 1 .171-.429l.112-.209.121-.228a1.741 1.741 0 0 0 .108-.34l.016-.063a1.282 1.282 0 0 1 .081-.221l.059-.136a2.9 2.9 0 0 0 .1-.362l.04-.279a2.087 2.087 0 0 1 .089-.457l.084-.26a2.662 2.662 0 0 1 .6-1.131 1.315 1.315 0 0 0 .122-.128l.037-.049.02-.026.446.062.606.148 1.184.418.089.036 1.094.49a3.265 3.265 0 0 1 .445.275 2.588 2.588 0 0 1 .323.29 2.437 2.437 0 0 1 .266.47.589.589 0 0 0-.239-.039.827.827 0 0 0-.27.041c-.052.019-.072.043-.057.065l.223.375.226.378.128.195.344.527.028.044a2.889 2.889 0 0 1 .325.624 2.461 2.461 0 0 1 .12.743l-.074.271-.022.077a1.627 1.627 0 0 0-.057.4 1.959 1.959 0 0 0 .017.227l.02.112v.121a.637.637 0 0 0 .032.244 2.471 2.471 0 0 0 .312.76 1.77 1.77 0 0 1 .327.8 1.818 1.818 0 0 1-.121.37 1.971 1.971 0 0 0-.075.187 2.014 2.014 0 0 0-.08.262 2.12 2.12 0 0 1-.128.385.98.98 0 0 0-.122.769.761.761 0 0 0 .314.327 3.427 3.427 0 0 0 1.185.384l1.392.189 2.406.153 2.132.033h.284 1.349 1.706 1.7.326l1.839.01h.4l2.16-.016h.42l1.5-.031 1.077-.026.647-.013.642-.015 1.244-.011h1.2 1.2q1.246-.016 2.494-.022h1.18q.529-.006 1.055-.025h.081l1.279-.045 1.157-.042 3.633-.088.952-.021 4.138-.044h.631l3.225.015h1.421l4.315-.016h.417l1.412.013 2.245.017h1.061 2.536 1.323.118l3.127.039 1.872.022 1.218.012.834.016.825.014.6.007 1.211.013h.284l1.514.015h4.034 1.825l3.695.049q1.031.019 2.06.036l1.421.035.665.019.974.024.8.018.937.025 1.246.033 4.015.036h.332 1.219l1.667-.008 3-.025h.915q.993 0 1.99-.012 1.3-.015 2.588-.016h.173l1.17.006h.52l1.325-.024.242-.007q1.486-.042 2.984-.044h.359-.093l1.009.01.836.012.537.01 1.224.007h1.325l2.183.028.972.017 1.242.018 1.862.026.518.011 1.155.008h.795.487l.836.007.928.016.415.01 2.559.022 1.421.023 1.3.023q.618.006 1.238.006h1.5l2.026.049 2.146.069.932.014.978.016 1.564.086 1.166.135.758.088.887.078.084.006 2.12.238.722.084.367.04.824.1.788.156 3.1.55a13.823 13.823 0 0 0 1.549.109h.42l.533-.006.824-.051.158-.011 1.151-.154.142-.024.434-.071.426-.07 3.071-.37 1.247-.122 1.464-.145q1.26-.126 2.459-.286l2.264-.263 1.667-.035 2.22.066 2.175.036.945-.008 1.65-.025 3.662-.044h.526l2.159.058 1.179.036 2.067.049 1.68.035 3.088.126.238.01 2.985.053h.719l2.521.125 1.595.171.247.029 2.425.241 2.736.231.965.076 1.385.111 2.389.091h.34a24.154 24.154 0 0 0 2.744-.2l1.255-.172q.672-.094 1.279-.214l1.606-.421q.235-.057.5-.107l.853-.08.786-.035.945-.013.634.01 1.7.02 2.046.007h.521l2.072-.035.542-.013 3.218-.044h1.126l1.792-.007q.967-.012 1.926-.05l.853-.029 2.461-.069.941-.036q.663-.033 1.336-.045.3.007.593.025l.863.092.524.058.67.072q.563.06 1.127.118l1.766.15 1.248.036h.457a15.787 15.787 0 0 0 2.22-.182 10.8 10.8 0 0 0 1.434-.355l1-.322.1-.036.759-.26.213-.047.169.011.853.117 1.538.357a6.008 6.008 0 0 1 .831.331l.2.117.378.211a6.223 6.223 0 0 0 .853.336 9.777 9.777 0 0 0 1.018.257 13.031 13.031 0 0 0 1.546.2l1.63.064h.307l.69-.036.831-.081.744-.1.109-.016.815-.124.875-.133 3.576-.373 2-.087 1.329-.046 1.033-.036q1.207-.034 2.423-.031h1.071q.609 0 1.213-.027l.2-.006 2.865-.107 2.985-.085 1.771-.016h.843 1.235l1.242.006q1.737.027 3.454.1l.183.009 3.252.125 1.481.032 1.723.04 2.47.163.186.016-.065-.008 2.143.242 1.356.195.88.13 2.5.28 1.231.066 1.224.016h.351.742 1.279.638l1.234-.067 1.073-.1 1.421-.152.711-.075.593-.066 1.522-.151q.852-.055 1.7-.1l1.834-.112h-.1l4.967-.2 1.422-.048.852-.029 2.012-.035h.314.318l2.526.021h.766q.662-.009 1.316-.025l.553-.011 2.084-.029 4.112-.073.467-.013 1.6-.036 1.288-.009h.526l2.442.056 2.9.054h-.09l3.247.058.952.008q1.5-.006 3-.051l.27-.008 1.421-.016 1.458.009 1 .007h.294l1.365-.012q.639-.007 1.279-.008h.692l4.351.167.151.014 1.92.183 2.086.237.615.078.541.069 1.192.133q1.154.117 2.363.192l2.22.092h.578a32.584 32.584 0 0 0 3.447-.16l.426-.036 2.229-.173.2-.013-.2.008.7-.039q.659-.041 1.319-.086l2.321-.077 1.638-.007h1.089.638 1.614.15 1.389q.769 0 1.538-.009l2.631-.058 2.446-.141 2.183-.194.526-.057.723-.076 1.4-.116 7.391-.307 1.454-.009h3.316l3.347.016 1.977.027.879.015 1.442.021 2.31.006q1.369 0 2.742.009l.978.014 1.99.026 1.4.009 1.409.01 2.378.051 2.38.073q1.3.033 2.611.031l1.92-.009 2.631-.016q1.187-.006 2.373-.014.939-.007 1.873-.006h1.481 1.174l1.792.045.968.026 2.985.045h.31l2.77-.029 3.115-.056 2.491-.075 3.075-.09h.343l2.223-.052 2.619-.148 1.575-.083 2.337-.11 1.92-.059.887-.006 1.178.007h-.008q.915.024 1.812.077l1.47.2.157.023.194.03.71.1 1.054.1 1 .061.449.006.928-.027 1.421-.107.935-.076 1.17-.029 1.775.033.853.017 1.981.016h.921.452l2.266.013h.2l2.416.015h.142l2.607-.025.815-.025.419-.014.6-.019.9-.03 1.288-.058 1.714-.073 2.716-.046h.2q1.488.019 2.963.079l1.222.052 1.832.075 2.657.1 2.5.17 1.279.137.6.068 1.155.115.985.1 1.171.146.754.1 1.866.16.838.02 1.334-.052 2.086-.221.161-.02 5.438-.558q.633-.037 1.279-.055l.972-.019.542-.008 1.99-.023h.378l2.689.09 2.49.083 2.24.082 2.152.143q1.128.087 2.288.143 1.116.058 2.252.084l1.989.013h1l1.223-.006h1.222.7l-.233-.008.594.012h.6l.873.01.588.006h-.07l.678.014 3.535.045q2.488.02 4.975.024l2.247.007h.182l2.22-.022 2.087-.083 1.712-.137.627-.036.625-.036 1.486-.095.213-.014-.117.006 3.554-.172h.142q.846-.017 1.68-.057l1.582-.112.314-.026.229-.017 3.519-.322 1.744-.271.261-.049 1.325-.237 1.747-.223 1.573-.194 3.227-.476 1.413-.277 1.376-.284.274-.055 2.584-.479q1.4-.192 2.877-.339l.426-.045 1.11-.127.645-.075 2.146-.188q.557-.034 1.095-.082l1.182-.165a6.323 6.323 0 0 0 1.99-.617 4.884 4.884 0 0 0 .427-.244l.157-.095.609-.331.284-.151q.193-.1.381-.2l.647-.337 1.484-.546 1.705-.531 1.771-.429 1.99-.432 1.07-.2 1.071-.2.105-.022 1.847-.343 2.184-.224h-.1l1.448-.114q.64-.069 1.279-.143l.356-.042.965-.117 1.533-.225 1.808-.354.339-.071q1.215-.261 2.309-.554a9.984 9.984 0 0 0 1.211-.408 8.652 8.652 0 0 0 .853-.435l.134-.075.436-.238 1.44-.814.436-.258.375-.221a9.21 9.21 0 0 0 .732-.48 3.654 3.654 0 0 0 .638-.6l.518-.543.594-.57a4.314 4.314 0 0 1 .52-.391l.626-.348 1.208-.447.456-.15.8-.268a2.208 2.208 0 0 0 .981-.579l.039-.044a1.692 1.692 0 0 0 .131-.156l.077-.1a2.721 2.721 0 0 1 .23-.247 4.627 4.627 0 0 1 .9-.605l1.279-.679 1.228-.638 1.182-.613a11.53 11.53 0 0 0 1.041-.62 3.49 3.49 0 0 0 .467-.376 1.148 1.148 0 0 0 .233-.345 1.177 1.177 0 0 0 .089-.8 1.339 1.339 0 0 0-.174-.381l-.05-.078a2.835 2.835 0 0 0-.217-.33c-.392-.509-.853-1.037-1.349-1.569v.019a1.729 1.729 0 0 0-.142-.178 1.112 1.112 0 0 1-.185-.674 1.164 1.164 0 0 1 .2-.528 4.042 4.042 0 0 1 .577-.644l-.046.031a8.035 8.035 0 0 1 .863-.677l.294-.188.184-.115.2-.121.359-.235a3.322 3.322 0 0 0 .768-.746 3.579 3.579 0 0 0 .338-.749 3.5 3.5 0 0 0 .178-.825 3.031 3.031 0 0 0-.077-.683l-.017-.083-.056-.437-.035-.308a4.268 4.268 0 0 0-.11-.474l-.064-.225a2.526 2.526 0 0 1-.069-.585c0-.14-.02-.281-.03-.421l-.02-.235a8.838 8.838 0 0 1 .024-1.166v.008a8.44 8.44 0 0 0 .044-.761l.01-.369v-.132a2.316 2.316 0 0 0-.008-.526l-.037-.232-.061-.39a6.071 6.071 0 0 1-.113-1.2v-.1l.049-1.126.044-.617v-.1l.008-.105c0-.071.016-.143.012-.212s-.016-.134-.027-.2l-.024-.2c-.007-.066-.02-.135-.032-.2l-.02-.134-.015-.2-.016-.2c-.024-.173-.061-.346-.1-.519l-.057-.256-.122-.574-.041-.184-.033-.146a6.059 6.059 0 0 0-.153-.592l-.064-.179a11.4 11.4 0 0 1-.412-1.326l-.057-.273-.077-.36v-.081a.851.851 0 0 0-.031-.186l-.017-.112a1.115 1.115 0 0 0-.056-.207l-.019-.172v-.088l-.013-.111a1.408 1.408 0 0 0-.024-.224 2.19 2.19 0 0 0-.118-.338l-.032-.082-.045-.117a1.773 1.773 0 0 0-.323-.59.985.985 0 0 0 .427-.187.921.921 0 0 0 .319-.366.361.361 0 0 0-.015-.39 1.253 1.253 0 0 0-.363-.271l-.125-.068-.125-.065-.746-.429a4.608 4.608 0 0 1-.426-.361l-.151-.129a1.78 1.78 0 0 1-.3-.291v-.027a.805.805 0 0 1 .081-.086 3.7 3.7 0 0 1 .529-.273l.479-.157.412-.111.33-.087a3.865 3.865 0 0 0 1.433-.7 4.068 4.068 0 0 0 .372-.326 1.192 1.192 0 0 0 .3-.452.945.945 0 0 0-.349-.889 1.091 1.091 0 0 1-.142-.19l-.1-.136c-.035-.047-.094-.1-.142-.156l-.142-.157a3.85 3.85 0 0 0-.795-.679l-.105-.072a5.3 5.3 0 0 0-.509-.31q-.264-.132-.536-.264l-.322-.154-.7-.35a1.2 1.2 0 0 1-.309-.332.436.436 0 0 1-.047-.264l.047-.085a1.341 1.341 0 0 0 .074-.14h0l.032-.064a.773.773 0 0 0 .118-.364c0-.187-.17-.372-.487-.541a9.881 9.881 0 0 0-1.793-.613l-.173-.049-1.838-.465-.671-.1-.182-.026-.167-.023-.488-.068-.169-.022-.213-.029a.535.535 0 0 1-.158-.184.807.807 0 0 0-.142-.173l-.061-.067-.157-.157a1.983 1.983 0 0 1-.228-.26.78.78 0 0 1-.045-.4.626.626 0 0 1 .05-.053 12.366 12.366 0 0 1 1.1-.622l.509-.271a9.5 9.5 0 0 1 1.016-.511l.375-.14.8-.305 1.1-.486a6.423 6.423 0 0 0 .737-.424 2 2 0 0 0 .629-.543 1.411 1.411 0 0 0 .15-.462l.02-.077a.957.957 0 0 0-.037-.544 1.119 1.119 0 0 0-.224-.373 2.822 2.822 0 0 0-1.075-.535 5.634 5.634 0 0 0-.556-.139l-.112-.025-.823-.17q-.285-.063-.608-.113l-.21-.03-.549-.081-.173-.022-.448-.055-.181-.031-.277-.072-.072-.035a1.079 1.079 0 0 1-.2-.195.406.406 0 0 1 .012-.183 3.938 3.938 0 0 1 1.065-1.029l.744-.6.853-.679h0a2.782 2.782 0 0 1 .4-.247l.6-.27.908-.309.641-.164.5-.124a4.979 4.979 0 0 0 .958-.37l.444-.217.443-.22a8.064 8.064 0 0 0 .9-.508 3.433 3.433 0 0 0 .725-.652 3.836 3.836 0 0 0 .607-.994l.057-.143a.886.886 0 0 1 .1-.154 1.56 1.56 0 0 0 .112-.179.728.728 0 0 0 .088-.244.562.562 0 0 0-.07-.29.658.658 0 0 1-.024-.215.562.562 0 0 0-.085-.26l-.037-.067a1.218 1.218 0 0 0-.262-.291 1.991 1.991 0 0 1-.209-.214.4.4 0 0 1 .013-.123v-.21a.856.856 0 0 0 .009-.175.918.918 0 0 1 .008-.148 2.16 2.16 0 0 1 .475-.442l-.031.015.052-.035.134-.1.473-.308a3.288 3.288 0 0 0 1.117-.922 1.061 1.061 0 0 0 .13-.336.621.621 0 0 0-.108-.429 1 1 0 0 0-.316-.221l-.133-.075-.143-.073-.326-.2a2.911 2.911 0 0 1-.941-1.04l.04.12a4.337 4.337 0 0 0-.33-.61l-.068-.111-.049-.12a3.389 3.389 0 0 0-.18-.39l-.307-.551a1.094 1.094 0 0 1 0-.616 1.362 1.362 0 0 0 .024-.615l-.048-.225-.076-.37-.027-.154a3.356 3.356 0 0 0-.122-.6 5.1 5.1 0 0 1-.125-.455l-.045-.2-.04-.154a2.394 2.394 0 0 1-.105-.57 4.386 4.386 0 0 1 .2-1.241l.073-.274a2.66 2.66 0 0 1 .142-.41l.1-.252a1.368 1.368 0 0 0 .04-.7l-.057-.306-.2-1.239a5.058 5.058 0 0 1 .013-.924l.016-.271a3.793 3.793 0 0 1 .037-.5 6.015 6.015 0 0 1 .152-.753 3.87 3.87 0 0 1 .142-.393l.142-.4a4.585 4.585 0 0 0 .112-.654v-.052a2.522 2.522 0 0 1 .1-.432l.081-.294a2.249 2.249 0 0 0-.081-1l-.084-.4a1.735 1.735 0 0 1-.017-.3 1.272 1.272 0 0 0-.035-.363 1.847 1.847 0 0 0-.066-.211 1.736 1.736 0 0 1-.084-.318 1.294 1.294 0 0 1 .088-.54l.178-.573c.03-.072.07-.143.108-.217l.155-.326a.638.638 0 0 0-.044-.612 2.209 2.209 0 0 0-.812-.649 7.31 7.31 0 0 0-1.158-.458l-.092-.032a7.723 7.723 0 0 1-.7-.34l-.258-.134-.71-.4a1.3 1.3 0 0 1-.317-.315 1.183 1.183 0 0 1-.016-.393l.009-.133a1.289 1.289 0 0 0-.029-.22.725.725 0 0 1-.015-.314.4.4 0 0 1 .035-.1l.021-.059.084-.149a1.69 1.69 0 0 0 .255-.572c.013-.093.017-.187.024-.281a2.274 2.274 0 0 1 .051-.393 1.481 1.481 0 0 1 .319-.422l.162-.08 1.117-.4c.992-.358 1.593-.775 1.742-1.21v-.026a.407.407 0 0 0 .032-.239.467.467 0 0 0-.181-.276 2.071 2.071 0 0 0-.51-.273l-.142-.059a10.024 10.024 0 0 1-1.176-.536l-.23-.191a2.563 2.563 0 0 0-.31-.2l-.07-.044a.674.674 0 0 1-.125-.135l-.1-.228a.4.4 0 0 1 0-.247 3.258 3.258 0 0 1 .606-.764 11.025 11.025 0 0 1 .853-.7l.048-.036a3.652 3.652 0 0 0 .772-.806 2.341 2.341 0 0 0 .327-.888 3.961 3.961 0 0 0 .028-1.713 3.166 3.166 0 0 1-.05-1.778c.083-.19.182-.378.285-.566l.133-.258a4.431 4.431 0 0 1 .263-.479l.142-.215a3.8 3.8 0 0 0 .637-1.314l.024-.179a1.729 1.729 0 0 1 .09-.429 2.247 2.247 0 0 0 .166-.7 2.477 2.477 0 0 0-.111-.64 1.679 1.679 0 0 1-.092-.805l.065-.27a4.349 4.349 0 0 0 .105-.507 3.373 3.373 0 0 0 0-.586l-.011-.267a4.877 4.877 0 0 1 .08-.792 2.367 2.367 0 0 0-.044-.855l-.053-.227a3.618 3.618 0 0 1-.1-.536l-.008-.179a4.934 4.934 0 0 0-.057-.628c-.048-.288-.072-.577-.1-.867l-.065-.658a2.333 2.333 0 0 0-.191-.574l-.052-.13c-.042-.092-.074-.185-.11-.277l-.176-.431a4.082 4.082 0 0 0-.395-.628l-.509-.593-.057-.069-.568-.663a6.232 6.232 0 0 0-.582-.673c-.142-.129-.31-.255-.476-.38l-.368-.282-.193-.17-.158-.141a4.335 4.335 0 0 0-.449-.316l-.113-.075a4.156 4.156 0 0 0-.426-.236l-.052-.028a4.674 4.674 0 0 0-.6-.236l-.106-.036a8.276 8.276 0 0 0-1.267-.3l-.108-.022-.285-.078a2.427 2.427 0 0 1-.223-.114.813.813 0 0 1-.173-.2 3.413 3.413 0 0 1-.134-.47l-.044-.194-.116-.411-.118-.416-.185-.6a1.589 1.589 0 0 1-.324-.143l-.023.007a3.4 3.4 0 0 1-.63.1 3.658 3.658 0 0 1-.48 0 1.62 1.62 0 0 1-.725.282 3.728 3.728 0 0 1-.456.049l-.1.182-.294.578-.153.291a1.447 1.447 0 0 1-.258.419 1.164 1.164 0 0 1-.568.2 3.683 3.683 0 0 1-.614.043 5.36 5.36 0 0 1-.7-.055 1.785 1.785 0 0 1-.327-.085l-.041-.014a4.221 4.221 0 0 1-1.226.08 2.61 2.61 0 0 1-.8-.175.947.947 0 0 1-.234-.15l-.271-.22-.284-.274a1.975 1.975 0 0 1-.336-.481l-.142-.312q-.081.033-.18.063l-.312.067a3.9 3.9 0 0 1-.916.027 1.706 1.706 0 0 1-1.24-.477 3.287 3.287 0 0 1-.254-.239l-.142.028-.4.051a7.693 7.693 0 0 1-1.279 0l-.555-.057-.568-.045c-.655-.07-1-.252-.8-.424a2.3 2.3 0 0 1 1.385-.234l.1.006.447.032.413.046.142.013.2-.052q.29-.074.613-.137a4.754 4.754 0 0 1 1.4-.069 2.744 2.744 0 0 1 .78.183l.106-.092.194-.169a1.164 1.164 0 0 1 .42-.225 3.119 3.119 0 0 1 .71-.118 3.5 3.5 0 0 1 1.137.095c.395.152.59.332.558.513l.083.221.32-1.172c-.014-.176.531-.323 1.231-.331.7.021 1.2.176 1.15.352a6.717 6.717 0 0 0 .028.736V88a2.669 2.669 0 0 1 .3-.065 3.838 3.838 0 0 1 .872-.031l.15-.23a.141.141 0 0 1 .041-.072l.045-.109a.3.3 0 0 1 .093-.172 1.26 1.26 0 0 1 .568-.2 3.964 3.964 0 0 1 .917-.028 2.978 2.978 0 0 1 .358.052l-.048-.247-.029-.154a1.967 1.967 0 0 1 .074-1.059l.444-.918.747-1.615.36-.739a4.7 4.7 0 0 0 .262-.6l.055-.143a2.961 2.961 0 0 1 .478-.735 7.235 7.235 0 0 1 .81-.773 6.02 6.02 0 0 1 1.1-.577l.915-.3a10.237 10.237 0 0 0 .974-.346 3.976 3.976 0 0 0 1.323-.791 2.141 2.141 0 0 0 .206-.269 1.371 1.371 0 0 1 .142-.192c.113-.14.246-.279.381-.417l.049-.048a4.87 4.87 0 0 0 .777-1 4.034 4.034 0 0 0 .5-1.287 3.462 3.462 0 0 0-.11-1.228c-.052-.224-.078-.447-.112-.669l-.077-.51-.142-.616-.085-.337a1.586 1.586 0 0 1 .162-.959 5.459 5.459 0 0 1 1.4-1.527 3.1 3.1 0 0 0 .592-.687 1.961 1.961 0 0 0 .334-.792 1.368 1.368 0 0 0-.081-.7 2.747 2.747 0 0 0-.456-.8 6.389 6.389 0 0 0-.439-.476l-.291-.306a5.384 5.384 0 0 1-.62-.815c-.037-.088-.063-.179-.092-.268s-.056-.179-.1-.269a2.638 2.638 0 0 1-.175-.685 3.407 3.407 0 0 1 .009-.515l.016-.2v-.232a4.059 4.059 0 0 1 .028-.583 6.086 6.086 0 0 0-.06-1.323l-.017-.172a4.673 4.673 0 0 1 .064-1.216l.029-.21.128-1.528c0-.174.028-.349.045-.524l.02-.143a2.26 2.26 0 0 1 .074-.375l.071-.333a4.859 4.859 0 0 0 .06-.746v-.85a10.9 10.9 0 0 1 .089-.834l.09-.834v-.623-.077a4.811 4.811 0 0 1 .055-.709c.037-.234.056-.465.074-.7a5.36 5.36 0 0 1 .064-.511l.044-.307a8.051 8.051 0 0 1 .314-1.31l.04-.131a3.421 3.421 0 0 0 .082-.373l.052-.226.068-.264.1-.394.134-.5a5.906 5.906 0 0 0 .189-.807 3.82 3.82 0 0 0-.112-1.445l-.04-.163a4.242 4.242 0 0 1-.1-.495 1.915 1.915 0 0 1 0-.386l.009-.194V43a3.253 3.253 0 0 1 .158-1.22 2.542 2.542 0 0 1 .284-.471l.118-.146a3.625 3.625 0 0 0 .243-.322 3.033 3.033 0 0 0 .4-1.223 6.8 6.8 0 0 1 .142-.662l.126-.56a4.834 4.834 0 0 1 .335-1.045 3.58 3.58 0 0 0 .242-.775 1.747 1.747 0 0 0-.162-.923 2.286 2.286 0 0 1 .066-1.8zM688.824 188.168a12.1 12.1 0 0 1-3.363.4c-.459 0-.916-.018-1.352-.055l-1.392-.188-.295-.051-.2-.022-.271.064.2-.036-.723.282-2.24.822a32.042 32.042 0 0 1-3.581.935 14.32 14.32 0 0 1-2.663.255 7.378 7.378 0 0 1-2.034-.279c-.483-.147-.767-.329-.81-.52a.088.088 0 0 1 .012-.053c.025-.167.191-.331.485-.48a4.56 4.56 0 0 1 .735-.252q.4-.09.836-.167l.4-.075.873-.219.489-.173a9.232 9.232 0 0 0 1.458-.729 10.341 10.341 0 0 1 1.821-.763l1.821-.623.659-.212a3.087 3.087 0 0 0 .323-.176 3.269 3.269 0 0 0 .5-.54 3.393 3.393 0 0 1 .532-.558 5.008 5.008 0 0 1 1.409-.839 5.8 5.8 0 0 1 1.557-.409 7.1 7.1 0 0 1 1.174-.088q.4 0 .788.022a5.558 5.558 0 0 1 1.182.205 2.65 2.65 0 0 1 .623.261l.142.092a1.75 1.75 0 0 1 .34.256 3.232 3.232 0 0 0 .226.255l.059.067a3.162 3.162 0 0 1 .259.318 3.478 3.478 0 0 1 .426.873l.049.322.032.244.358.327.143.127a.56.56 0 0 1 .257.512c-.042.318-.479.62-1.244.868zm35.96-21.685a7.655 7.655 0 0 1-1.3.52l-3.179.747-.324.066-.97.214-.338.074-.594.135-.206.044q-1.31.293-2.749.545l-.888.251-.883.25-.915.284-.853.325a39.366 39.366 0 0 1-3.805 1.287l-1.474.4-3.927 1.113-2.887.835-.929.315q-.507.207-1 .411-1.006.444-2.2.858a17.32 17.32 0 0 1-2.519.623 21.233 21.233 0 0 1-2.68.34l-2.451.088c-.3 0-.609 0-.911-.014l-1.543-.049-.448-.01a18.89 18.89 0 0 1-1.619-.071 16.25 16.25 0 0 1-2.52-.429c-.791-.237-1.271-.53-1.376-.839l-.041-.073a.785.785 0 0 1-.411-.433.672.672 0 0 0-.045-.1.2.2 0 0 1-.013-.107c0-.225.229-.447.671-.643l.419-.163a3.962 3.962 0 0 1 .682-.471 9.417 9.417 0 0 1 1.525-.724 22.217 22.217 0 0 1 2.451-.773l1.99-.437.433-.09 1.873-.433q1.866-.453 3.932-.849l2.842-.5 3.632-.639q1.523-.267 3.174-.483l2.621-.389.469-.082.463-.078.8-.251.711-.2.46-.129.882-.308.544-.185 2.021-.659 2.716-.595.285-.065a21.809 21.809 0 0 1 3.156-.578 13.734 13.734 0 0 1 1.413-.066l2.274.115a14.023 14.023 0 0 1 3.055.5c1.3.464 1.493 1.069.5 1.578z"/></svg>