<?xml version="1.0" encoding="utf-8"?>
<!-- Generator: Adobe Illustrator 25.4.1, SVG Export Plug-In . SVG Version: 6.00 Build 0)  -->
<svg version="1.1" id="Layer_1" xmlns="http://www.w3.org/2000/svg" xmlns:xlink="http://www.w3.org/1999/xlink" x="0px" y="0px"
	 viewBox="0 0 799 228.2" style="enable-background:new 0 0 799 228.2;" xml:space="preserve">
<style type="text/css">
	.st0{fill:#62ABD0;}
</style>
<g>
	<path class="st0" d="M798.9,10.2L798.9,10.2L798.9,10.2L798.9,10.2L798.9,10.2z"/>
	<path class="st0" d="M375.8,0.7l-0.1,0h0L375.8,0.7z"/>
	<g>
		<path class="st0" d="M737.7,170.6c-0.6,0-1.2,0-1.8,0c-0.4,0-0.7,0-1.1,0c-0.9,0-1.7,0.1-2.5,0.2l-0.2,0c-0.6,0-1.4,0.1-2.1,0.2
			c-0.5,0.1-1.1,0.1-1.6,0.2l-0.4,0.1l-0.7,0.1l-0.4,0c-0.2,0-0.4,0-0.6,0.1c-0.2,0-0.4,0.1-0.6,0.1l-0.4,0l-0.4,0
			c-0.7,0-1.4,0.1-2.1,0.1c-0.9,0-1.7,0.1-2.5,0.1c-0.9,0.1-1.9,0.1-2.9,0.2c-0.8,0.1-1.5,0.1-2.2,0.1c-1.1,0.1-2.1,0.2-3.1,0.3
			c-0.5,0.1-1,0.1-1.5,0.1l-0.3,0c-0.6,0-1.1,0.1-1.6,0.1c-0.7,0.1-1.3,0.1-1.9,0.2c-0.4,0.1-0.8,0.1-1.2,0.2
			c-0.2,0-0.4,0.1-0.5,0.1l-0.3,0c-0.3,0-0.5,0.1-0.5,0.2c0,0,0,0,0,0c0,0,0,0,0,0c0,0,0.1,0.1,0.1,0.1c0.1,0,0.1,0,0.2,0.1l0,0
			c0.3,0.2,0.7,0.2,1.1,0.3c0.6,0.1,1.3,0.1,2,0.1c0.4,0,0.9,0,1.3,0h0.4l1.2,0c0.2,0,0.5,0,0.7,0c0.6,0,1.3,0,1.9,0
			c0.7,0,1.4-0.1,2.1-0.1s1.4-0.1,2-0.2c0.6-0.1,1.2-0.2,1.7-0.3l0.8-0.1l0.7-0.1c0.8-0.1,1.6-0.2,2.3-0.2c1-0.1,2.1-0.2,3.1-0.3
			l1.2-0.1c1-0.1,2-0.2,3-0.4l0.7-0.1l0.7-0.1l0.7-0.1l0.7-0.1c0.8,0,1.5-0.1,2.2-0.2l0.2,0l0.5,0l0.3,0l0.8-0.1l0.3,0
			c0.8-0.1,1.7-0.1,2.5-0.2c0.4,0,0.7-0.1,1-0.2c0.8-0.2,0.6-0.3-0.4-0.5C739.4,170.7,738.6,170.7,737.7,170.6z"/>
		<path class="st0" d="M798.9,10.2L798.9,10.2L798.9,10.2L798.9,10.2L798.9,10.2z"/>
		<path class="st0" d="M375.8,0.7l-0.1,0h0L375.8,0.7z"/>
		<path class="st0" d="M798.9,33.9L798.9,33.9L798.9,33.9L798.9,33.9L798.9,33.9L798.9,33.9L798.9,33.9c0.1-0.3,0.2-0.6,0.1-0.9
			c-0.1-0.2-0.2-0.4-0.3-0.5c-0.2-0.2-0.4-0.3-0.7-0.5c-0.3-0.2-0.6-0.4-0.9-0.5c0-0.1,0-0.1-0.1-0.2c-0.3-0.3-0.7-0.6-1.1-0.8
			c-0.5-0.2-0.9-0.5-1.4-0.7l-0.2-0.1l-0.2-0.1l-0.1-0.1l-0.1-0.1c-0.1-0.1-0.2-0.1-0.4-0.1c-0.2-0.1-0.4-0.2-0.5-0.3
			c-0.1-0.1-0.2-0.2-0.2-0.3c0-0.1,0-0.2,0-0.2c0,0,0,0,0.1-0.1c0.1-0.1,0.2-0.1,0.3-0.2c0.2-0.1,0.4-0.2,0.6-0.4
			c0.1-0.1,0.2-0.1,0.2-0.2c0.1,0,0.1-0.1,0.2-0.1c0.1-0.1,0.3-0.2,0.5-0.3l0,0c0.1,0,0.1-0.1,0.1-0.1c0.1-0.1,0.2-0.1,0.2-0.2
			c0.1-0.1,0.1-0.3,0-0.4c0-0.1-0.1-0.2-0.2-0.2c-0.1-0.1-0.2-0.1-0.3-0.2c-0.2-0.1-0.4-0.2-0.6-0.3l-0.3-0.1l-0.6-0.3l-1-0.5
			c-0.3-0.2-0.6-0.3-0.8-0.4c-0.2-0.1-0.5-0.3-0.7-0.5c-0.1-0.1-0.3-0.2-0.4-0.3c-0.1-0.1-0.1-0.2-0.2-0.3c0-0.1-0.1-0.2-0.1-0.3
			l0-0.1c-0.1-0.2-0.1-0.3-0.1-0.5v0c0-0.1,0-0.1,0-0.2c0-0.1,0-0.2,0.1-0.2c0.1-0.1,0.1-0.2,0.2-0.3c0.1-0.1,0.2-0.2,0.3-0.3
			c0.1-0.1,0.2-0.2,0.3-0.4c0.1-0.1,0.1-0.2,0.1-0.4c-0.1-0.3-0.3-0.6-0.6-0.8c-0.2-0.2-0.4-0.3-0.6-0.4c-0.2-0.1-0.5-0.3-0.8-0.4
			l-0.2-0.1c-0.2-0.1-0.4-0.2-0.6-0.2c-0.5-0.2-1-0.4-1.4-0.6c-0.2-0.1-0.4-0.2-0.6-0.3c-0.3-0.1-0.5-0.3-0.8-0.4
			c-0.4-0.2-0.9-0.5-1.5-0.8c-0.5-0.2-1.2-0.5-1.7-0.7l-0.4-0.2c-0.2-0.1-0.5-0.2-0.8-0.3c-0.4-0.2-0.9-0.3-1.4-0.4l-0.4-0.1
			c-0.5-0.2-1-0.3-1.5-0.4c-0.6-0.2-1.1-0.3-1.6-0.5c-0.2-0.1-0.3-0.1-0.5-0.2c-0.2-0.1-0.4-0.2-0.6-0.3l-0.1-0.1l-1.1-0.6
			c-0.3-0.2-0.7-0.4-1.1-0.5c-0.5-0.2-1-0.4-1.6-0.6c-0.4-0.1-0.8-0.2-1.2-0.4c-0.2-0.1-0.4-0.1-0.6-0.2l-0.3-0.1
			c-0.4-0.1-0.8-0.3-1.3-0.4c-0.6-0.1-1.2-0.2-1.9-0.3l-0.1,0c-0.3,0-0.6-0.1-0.9-0.1l-0.3,0c-0.4-0.1-0.9-0.1-1.3-0.2
			c-0.5-0.1-1-0.1-1.5-0.1c-0.3,0-0.6-0.1-0.9-0.1l-1-0.1l-1-0.1c-0.3,0-0.6-0.1-1-0.1c-0.4,0-0.7-0.1-1.1-0.1
			c-0.7-0.1-1.4-0.1-2.1-0.2L753.9,9c-0.5-0.1-0.9-0.1-1.4-0.1c-0.2,0-0.5,0-0.7-0.1l-0.4,0l-0.8-0.1l-0.4,0
			c-0.7-0.1-1.5-0.1-2.4-0.2c-0.7,0-1.4-0.1-2-0.1c-0.9-0.1-1.8-0.1-2.7-0.2c-0.4-0.1-0.9-0.1-1.3-0.2c-0.3-0.1-0.7-0.2-1-0.3
			c-0.2-0.1-0.3-0.1-0.4-0.2c-0.1-0.1-0.2-0.1-0.4-0.2c-0.4-0.2-0.8-0.3-1.2-0.4c-0.5-0.1-1-0.3-1.6-0.4c-0.3,0-0.5-0.1-0.8-0.1
			c-0.3,0-0.6-0.1-0.9-0.1c-0.5-0.1-1-0.1-1.6-0.1c-0.6,0-1.2,0-1.7,0c-0.2,0-0.4,0-0.7,0c-0.4,0-0.8,0-1.1,0c-0.6,0-1.2,0-1.8-0.1
			l-0.9,0c-0.4,0-0.8,0-1.3-0.1c-0.5,0-1-0.1-1.6-0.1c-0.6,0-1.1,0-1.7-0.1c-0.5,0-0.9,0-1.4,0l-2-0.1c-0.4,0-0.8,0-1.1,0
			c-0.3,0-0.6,0-0.9,0c-0.7,0-1.5-0.1-2.2-0.1c-0.5,0-0.9,0-1.4,0c-0.3,0-0.5,0-0.8,0c-1,0-2-0.1-2.9-0.2c-0.5-0.1-1-0.2-1.5-0.3
			c-0.3-0.1-0.5-0.1-0.8-0.2c-0.9-0.2-2-0.5-3.1-0.7c-0.8-0.1-1.6-0.2-2.5-0.3c-0.8-0.1-1.7-0.1-2.6-0.2l-0.3,0
			c-0.8,0-1.5-0.1-2.3-0.1l-0.8,0c-0.7,0-1.3-0.1-2-0.1c-0.4,0-0.8-0.1-1.1-0.1L692.1,3L690.8,3c-1-0.1-2.1-0.1-3.4-0.2
			c-0.8,0-1.6-0.1-2.2-0.1l-0.4,0c-0.6,0-1.3-0.1-1.9-0.1c-1.3-0.1-2.9-0.2-4.4-0.3l-0.3,0c-0.6,0-1.1-0.1-1.7-0.1
			c-0.8-0.1-1.6-0.1-2.4-0.1c-0.3,0-0.7,0-1,0c-0.2,0-0.4,0-0.6,0h-0.5c-0.6,0-1.2,0-1.9,0.1c-0.3,0-0.6,0-0.9,0c-0.3,0-0.6,0-0.9,0
			h-0.2c-0.5,0-0.9,0-1.4,0c-0.4,0-0.8-0.1-1.1-0.1c-0.4,0-0.8-0.1-1.2-0.1c-0.5-0.1-0.9-0.1-1.3-0.2c-0.3-0.1-0.7-0.2-1.1-0.3
			c-0.3-0.1-0.6-0.2-0.9-0.2c-0.3-0.1-0.7-0.1-1.1-0.1c-0.4,0-0.9-0.1-1.3-0.1c-0.2,0-0.4,0-0.6,0c-0.1,0-0.2,0-0.4,0
			c-0.3,0-0.6,0.1-1,0.2c-0.2,0.1-0.4,0.1-0.6,0.2c-0.2,0.1-0.4,0.1-0.6,0.2c-0.1,0-0.2,0-0.3,0s-0.2,0-0.3,0h-0.1
			c-0.1,0-0.2,0-0.3,0c-0.2,0-0.4,0-0.6-0.1c-0.3,0-0.5-0.1-0.8-0.1S652.8,1,652.6,1l-0.3-0.1c-0.2-0.1-0.5-0.1-0.7-0.2
			c-0.5-0.1-1.1-0.2-1.6-0.2c-0.5,0-1-0.1-1.5-0.1c-0.1,0-0.1,0-0.2,0h-0.6c-0.1,0-0.2,0-0.3,0h-0.8c-0.2,0-0.3,0-0.5,0
			c-0.5,0-1,0-1.5,0.1c-0.2,0-0.5,0-0.7,0.1c-0.2,0-0.3,0-0.5,0c-0.5,0-1,0.1-1.5,0.1c-0.4,0-0.8,0-1.1,0h-1.2c-0.7,0-1.4,0-2.1,0
			c-0.3,0-0.7,0-1,0s-0.7,0-1.1-0.1c-0.6,0-1.3-0.1-1.9-0.1h-0.1h-0.1c-0.7,0-1.4-0.1-2.1-0.1c-0.6,0-1.2,0-1.8,0H628
			c-0.6,0-1.3,0-1.9,0c-0.7,0-1.5,0-2.2,0l-0.3,0c-1.2,0-2.3,0-3.5,0.1h-0.4l-2.7,0l-1.3,0c-0.5,0-1,0-1.5,0c-1.7,0-3.5,0-5.1,0
			l-1.5,0h-0.5c-0.5,0-1,0-1.5,0c-0.5,0-1,0-1.4,0l-0.8,0c-1.7,0-3.4-0.1-5.2-0.2c-0.7,0-1.4-0.1-2-0.1H596c-0.7,0-1.5-0.1-2.2-0.1
			c-0.9,0-1.9,0-3,0h-0.8c-1.1,0-2.2,0-3.7,0.1c-1.4,0-2.8,0.1-4.2,0.2l-0.7,0l-0.2,0l-0.2,0c-0.2,0-0.5,0-0.7,0
			c-0.3,0-0.6,0.1-0.9,0.1c-0.2,0-0.5,0-0.7,0.1c-0.7,0.1-1.4,0.1-2.1,0.1c-0.6,0-1.2,0.1-1.8,0.1c-0.5,0-1.1,0.1-1.6,0.1
			c-0.3,0-0.6,0.1-0.8,0.1c-0.5,0.1-1,0.1-1.4,0.1c-0.6,0-1.2,0.1-1.9,0.1l-0.4,0c-0.7,0-1.4,0.1-2.1,0.1h0c-0.7,0-1.5,0-2.2,0h-0.5
			c-0.6,0-1.2,0-1.8,0l-0.7,0l-0.7,0l-0.9,0c-0.3,0-0.5,0-0.8,0l-0.7,0l-1,0l-0.7,0l-0.9,0c-0.8,0-1.8,0-2.9,0h-0.7h-0.7h-1.4
			c-0.9,0-1.7,0-2.5,0.1c-0.7,0-1.4,0.1-2.1,0.1H545l-0.5,0l-0.5,0c-0.5,0-1,0-1.6,0.1c-0.7,0-1.3,0.1-2,0.1c-0.3,0-0.5,0-0.8,0.1
			c-0.9,0.1-1.7,0.1-2.6,0.2c-0.2,0-0.4,0-0.6,0c-0.2,0-0.4,0-0.7,0c-0.4,0-0.9,0-1.3,0.1c-0.9,0-1.7,0.1-2.6,0.1
			c-0.8,0-1.6,0.1-2.3,0.1l-0.7,0l-0.7,0c-0.2,0-0.5,0-0.7,0l-0.5,0l-0.2,0L525,2.4c-0.6,0-1.2,0-1.7,0c-0.3,0-0.6,0-0.9,0l-0.6,0
			c-0.3,0-0.6,0-0.9,0h-0.5c-0.4,0-0.9,0-1.3,0l-0.6,0c-0.2,0-0.5,0-0.7,0c-0.4,0-0.9,0-1.3,0c-1,0-2.1,0-3.1,0c-0.5,0-1,0-1.5,0
			l-0.3,0c-0.4,0-0.8,0-1.1,0c-1.1,0.1-2.3,0.1-3.4,0.2c-1,0.1-2,0.1-3,0.2c-1,0-2.1,0.1-3.2,0.1c-0.8,0-1.6,0-2.4,0.1
			c-0.4,0-0.7,0-1.1,0s-0.8,0-1.2,0h-0.1c-1.3,0-2.6,0-3.9,0h-0.8h-0.7c-0.6,0-1.1,0-1.7,0h-0.6c-0.6,0-1.3,0-1.9,0
			c-0.8,0-1.5,0-2.3,0c-0.8,0-1.6,0-2.3,0l-2.4,0c-0.3,0-0.6,0-0.9,0c-0.4,0-0.9,0-1.3,0c-1.5,0-3.1,0-4.8,0.1
			c-1.4,0-2.7,0.1-4.1,0.1l-0.6,0l-0.4,0c-0.8,0-1.6,0.1-2.4,0.1c-0.6,0-1.2,0.1-1.8,0.1c-0.4,0-0.8,0.1-1.2,0.1
			c-0.6,0-1.3,0.1-1.9,0.1c-0.5,0-0.9,0-1.4,0.1c-1,0.1-1.9,0.1-2.7,0.1h0.1c-0.6,0-1.1,0-1.7,0.1c-0.5,0-1,0-1.5,0.1h-0.1l0,0
			l-0.9,0l-0.9,0c-1.3,0-2.6,0.1-3.9,0.1L445,4.4l-1.4,0c-0.5,0-1.1,0-1.6,0c-0.3,0-0.7,0-1,0c-0.4,0-0.8,0-1.2,0
			c-0.7,0-1.3,0-2,0.1l-0.3,0c-0.3,0-0.7,0-1,0c-0.3,0-0.6,0-0.9,0c-0.7,0-1.4,0-2,0h-0.1c-0.2,0-0.5,0-0.7,0l-0.4,0l-0.8,0l-0.3,0
			c-0.4,0-0.8,0-1.2,0c-0.4,0-0.7,0-1.1,0c-0.7,0-1.5,0-2.2,0h-0.2c-0.5,0-0.9,0-1.4,0l-0.7,0h-0.4c-0.4,0-0.8,0-1.2,0h-0.6h-0.3
			c-0.5,0-1.1,0-1.6,0c-0.7,0-1.3,0-2,0l-0.6,0l0,0c-0.4,0-0.7,0-1,0.2l-0.6,0l-0.7,0c-1.1,0-2.3,0-3.4,0H412l-1.7,0l-1.8,0
			c-0.9,0-1.8,0-2.6,0h-4.4c-1.1,0-2.2,0-3.3,0c-0.7,0-1.4-0.1-2-0.1c-0.6-0.1-1.2-0.2-1.7-0.3c-0.6-0.1-1.2-0.2-1.7-0.3
			c-0.5-0.1-1.1-0.2-1.7-0.3c-0.3,0-0.7-0.1-1-0.1c-0.4,0-0.8-0.1-1.2-0.2c-1.1-0.1-2.2-0.3-3.3-0.4c-1.3-0.1-2.5-0.2-3.7-0.3
			c-0.3,0-0.7,0-1-0.1l-0.5,0c-0.5,0-1-0.1-1.5-0.1l-0.2,0c-0.9-0.1-1.7-0.1-2.5-0.2c-0.2,0-0.3,0-0.4-0.1l0.1,0l-0.1,0h0
			c0,0-0.1,0-0.1,0l0,0h0l0,0h0c0.1-0.1,0.3-0.3,0.5-0.4c0.1-0.1,0.2-0.2,0.3-0.2c0.1-0.1,0.1-0.3-0.1-0.4c-0.2-0.1-0.5-0.3-0.7-0.3
			c-0.4-0.1-0.8-0.2-1.2-0.2c-0.4-0.1-0.9-0.1-1.3-0.2c-0.2,0-0.4,0-0.6-0.1c-0.5-0.1-1-0.1-1.6-0.2c-0.5,0-0.9-0.1-1.4-0.1h-0.1
			c-0.1,0-0.3,0-0.4,0c-0.2,0-0.5,0-0.7,0h-0.4c-0.8,0-1.6,0-2.5,0c-1.4,0-2.9,0-4.3,0.1c-1,0-2,0-3.1,0.1c-0.5,0-1.1,0-1.6,0.1
			c-0.7,0-1.4,0-2,0.1c-0.6,0-1.2,0-1.8,0c-0.5,0-1.1,0-1.6,0c-0.9,0-1.9,0.1-2.8,0.1c-0.5,0-1,0.1-1.5,0.1c-0.3,0-0.7,0.1-1,0.1
			s-0.6,0-0.9,0.1c-0.5,0-1,0.1-1.5,0.1c-0.4,0-0.7,0.1-1.1,0.1c-0.5,0-1,0.1-1.4,0.1l-0.8,0c-0.6,0-1.2,0.1-1.8,0.1l-0.7,0
			c-0.8,0-1.5,0.1-2.3,0.1c-0.9,0-1.9,0-2.8,0.1c-0.5,0-0.9,0.1-1.4,0.2C330.3,1.7,330,1.8,330,2s0,0.3,0.2,0.4
			c0.1,0.1,0.2,0.1,0.2,0.2v0l0,0c0,0,0,0-0.1,0.1c-0.1,0-0.1,0-0.2,0c-0.2,0-0.4,0.1-0.7,0.1l-0.2,0c-0.4,0-0.8,0.1-1.2,0.1
			c-0.6,0.1-1.2,0.1-1.8,0.1c-0.4,0-0.8,0-1.2,0c-0.1,0-0.2,0-0.4,0c-0.3,0-0.5,0-0.8,0h-0.5c-1.2,0-2.3,0-3.4,0c-1,0-2,0-3.1-0.1
			l-0.3,0c-0.4,0-0.9,0-1.3,0c-0.5,0-1,0-1.5,0h-0.5c-2.6,0-4.9,0-7.1,0.1c-0.6,0-1.1,0-1.7,0c-0.4,0-0.9,0-1.3,0
			c-0.4,0-0.7,0-1.1,0c-0.1,0-0.3,0-0.5,0c-0.7,0-1.4,0-1.9,0h0c-0.8,0-1.6-0.1-2.4-0.1l-0.9-0.1c-0.5,0-1-0.1-1.5-0.1
			c-0.7,0-1.4-0.1-2.1-0.1l-0.4,0c-0.9,0-1.7-0.1-2.6-0.1c-0.6,0-1.2-0.1-1.7-0.1l-0.4,0c-0.4,0-0.8-0.1-1.3-0.1c-0.4,0-0.8,0-1.2,0
			h-0.3c-0.6,0-1.1,0-1.7,0.1l-0.3,0c-0.3,0-0.7,0-1,0.1l-0.6,0c-0.5,0-1,0.1-1.4,0.1l-0.5,0c-1.2,0.1-2.5,0.1-3.6,0.2
			c-0.4,0-0.8,0-1.2,0c-0.5,0-0.9,0-1.4,0c-0.8,0-1.7,0.1-2.8,0.1c-0.4,0-0.7,0-1.1,0.1l-1.2,0.1c-0.4,0-0.8,0-1.1,0.1
			c-0.5,0-1,0.1-1.5,0.1c-0.8,0-1.6,0.1-2.4,0.2c-0.8,0.1-1.6,0.2-2.4,0.3c-0.4,0.1-0.8,0.1-1.2,0.2c-0.3,0.1-0.6,0.1-0.9,0.2
			c-0.7,0.1-1.5,0.2-2.3,0.3c-0.6,0.1-1.2,0.1-1.8,0.2l-0.2,0l-0.4,0c-0.5,0.1-1.1,0.1-1.6,0.2c-1.2,0.1-2.4,0.2-3.7,0.2l-0.3,0
			c-0.8,0-1.6,0-2.4,0h-0.5c-1,0-2,0-3,0.1c-0.3,0-0.7,0-1,0c-0.6,0-1.3,0-2,0h-0.3c-0.7,0-1.5,0-2.2,0c-0.4,0-0.9,0-1.3-0.1l-0.4,0
			c-0.6,0-1.3,0-1.9,0h-1.4c-1.1,0-2.2,0-3.3,0c-1.7,0-3.5,0-5.2,0c-1.7,0-3.4,0-5.1-0.1c-0.5,0-0.9,0-1.4-0.1c-0.3,0-0.5,0-0.7,0
			c-0.3,0-0.6,0-0.9-0.1c-0.9,0-1.9-0.1-2.8-0.1c-0.3,0-0.6,0-0.9,0c-3.3,0-6.2,0.1-8.8,0.2h-0.1c-0.6,0-1.2,0-1.7,0
			c-0.2,0-0.4,0-0.5,0c-0.5,0-1,0-1.5,0h-0.3c-1,0-2,0-3-0.1l-1.1,0c-0.4,0-0.8,0-1.2,0c-0.1,0-0.3,0-0.4,0c-0.7,0-1.4,0-2,0
			c-0.9,0-1.9,0.1-2.8,0.1l-1,0c-1.1,0-2.2,0.1-3.2,0.1c-0.4,0-0.8,0-1.2,0c-0.4,0-0.9,0-1.3,0c-0.3,0-0.6,0-0.9,0
			c-2.1,0-4.2,0-6.4,0c-2.1,0-4.2,0-6.3,0c-2,0-4,0-6-0.1c-1,0-2-0.1-3-0.2c-0.4,0-0.8-0.1-1.2-0.1l-0.3,0l-0.5,0
			c-0.4,0-0.8,0-1.3-0.1c-1.2,0-2.5-0.1-3.8-0.1c-1.2,0-2.3,0-3.5-0.1c-0.9,0-1.8-0.1-2.7-0.2c-0.7-0.1-1.3-0.1-1.9-0.2l-0.4-0.1
			c-1-0.1-2.1-0.2-3.2-0.3c-0.6,0-1.1,0-1.7,0h-0.3c-0.8,0-1.5,0-2.1,0c-0.9,0-1.7-0.1-2.6-0.2l-0.6-0.1c-0.5-0.1-1.1-0.1-1.6-0.2
			c-0.8-0.1-1.7-0.2-2.6-0.2c-0.2,0-0.4,0-0.6,0c-0.3,0-0.5,0-0.8,0c-0.3,0-0.7-0.1-1-0.1l-0.2,0c-0.8-0.1-1.6-0.1-2.5-0.2
			c-0.2,0-0.5,0-0.7,0c-0.1,0-0.3,0-0.4,0l-0.4,0c-0.3,0-0.6,0-0.9,0c-0.7,0-1.4,0-2.1,0h-1c-1.6,0-3.3,0-4.9-0.1
			c-0.6,0-1.1-0.1-1.7-0.1l-0.2,0c-0.2,0-0.5,0-0.7-0.1s-0.5,0-0.8,0h-0.2c-0.5,0-1-0.1-1.5-0.1c-0.3,0-0.5-0.1-0.8-0.1
			c-0.3,0-0.6-0.1-1-0.1c-0.1,0-0.1,0-0.2,0l-0.1,0c-0.2,0-0.3-0.1-0.5-0.1c-0.3-0.1-0.6-0.1-1-0.1c-0.5,0-1-0.1-1.5-0.1l-0.3,0
			c-0.7,0-1.4-0.1-2-0.1c-0.4,0-0.9,0-1.3,0h-0.3c-0.4,0-0.7,0-1.1,0c-0.6,0-1.2-0.1-1.8-0.2c-0.7-0.1-1.5-0.2-2.4-0.2
			c-0.4,0-0.8,0-1.3,0c-0.6,0-1.2,0-1.8,0h-0.1c-0.6,0-1.1,0-1.7,0.1c-0.5,0-0.9,0.1-1.3,0.1c-0.6,0.1-1.1,0.1-1.7,0.1
			c-0.7,0-1.4,0.1-2,0.1c-1.2,0-2.4,0-3.6,0.1c-0.9,0-1.9,0-2.8,0c-0.8,0-1.7,0-2.5,0.1l-0.3,0c-0.4,0-0.8,0-1.2,0s-0.9,0-1.3,0
			c-0.7,0-1.3,0.1-1.9,0.1S68.7,2,68.2,2.1l-0.4,0.1c-0.3,0.1-0.6,0.1-0.9,0.2c-0.4,0.1-0.8,0.1-1.3,0.2c-0.2,0-0.4,0-0.6,0.1
			s-0.4,0-0.6,0.1c-0.1,0-0.2,0-0.4,0c-0.3,0-0.6,0.1-0.8,0.1c-0.2,0-0.4,0-0.6,0c-0.1,0-0.3,0-0.4,0c-0.8,0.1-1.5,0.2-2.2,0.3
			c-0.3,0.1-0.5,0.1-0.8,0.2c-0.5,0.1-1,0.2-1.4,0.3l-0.1,0l-0.1,0l0,0C57,3.8,56.5,3.9,56.1,4c-0.1,0-0.1,0-0.2,0
			c-0.1,0-0.3,0.1-0.4,0.1l-0.1,0l-0.1,0L55,4.2l-0.5,0.1c-0.5,0.1-0.9,0.2-1.4,0.3c-0.5,0.1-1,0.2-1.5,0.3c-0.7,0.2-1.4,0.3-2,0.5
			c-0.4,0.1-0.9,0.2-1.4,0.3c-0.4,0.1-0.9,0.2-1.3,0.3c-0.3,0-0.5,0.1-0.8,0.1c-0.3,0.1-0.6,0.1-0.9,0.2c-1,0.2-2,0.5-2.9,0.8
			c-0.5,0.2-1.1,0.3-1.7,0.5c-0.4,0.1-0.8,0.3-1.3,0.4c-0.2,0.1-0.4,0.1-0.6,0.2c-0.2,0.1-0.4,0.1-0.6,0.2c-0.4,0.1-0.9,0.3-1.3,0.4
			c-0.6,0.1-1.3,0.3-1.9,0.4l-0.3,0.1c-0.9,0.2-2.2,0.4-3.3,0.7c-0.4,0.1-0.7,0.2-1.1,0.3l-0.3,0.1l-0.1,0c-0.6,0.1-1.1,0.3-1.7,0.4
			c-0.6,0.2-1.1,0.3-1.5,0.4s-0.8,0.3-1.2,0.4l-0.3,0.1c-0.6,0.2-1.3,0.4-2,0.6c-0.3,0.1-0.6,0.2-0.9,0.3c-1,0.3-1.9,0.6-2.7,0.8
			l-0.4,0.1c-0.4,0.1-0.7,0.2-1.1,0.3c-0.3,0.1-0.6,0.2-0.8,0.2c-0.2,0-0.3,0.1-0.5,0.1c-0.2,0.1-0.4,0.1-0.6,0.2
			c-0.1,0-0.3,0.1-0.4,0.1c-0.4,0.1-0.8,0.2-1.2,0.3c-0.4,0.1-0.9,0.2-1.4,0.2c-0.5,0.1-1,0.2-1.4,0.3c-0.3,0.1-0.7,0.1-1,0.2
			c-0.6,0.1-1.3,0.3-1.9,0.4c-0.2,0-0.4,0.1-0.6,0.1c-0.3,0.1-0.6,0.2-0.9,0.3l-0.1,0c-0.3,0.1-0.5,0.3-0.7,0.5
			c-0.1,0.1-0.2,0.3-0.2,0.5l0,0.1c0,0.1,0.1,0.1,0.1,0.2c0,0,0.1,0.1,0.1,0.1c0.1,0.1,0.1,0.1,0.2,0.2c0.1,0.1,0.3,0.3,0.5,0.4
			c0.2,0.2,0.4,0.4,0.5,0.6c0.1,0.2,0.1,0.5,0,0.7l0,0.2v0.2c0,0.2,0,0.5,0,0.7c0,0.3,0,0.7,0.1,1c0.1,0.2,0.2,0.4,0.3,0.5
			c0,0.1,0.1,0.1,0.1,0.2c0,0,0.1,0.1,0.1,0.1c0,0,0,0.1,0,0.1v0c0,0.1,0.1,0.2,0.1,0.3l0,0c0.1,0.1,0.3,0.2,0.4,0.3l0.1,0.1l0,0
			l0,0l0,0.2c0,0.2,0.1,0.4,0.2,0.6c0.1,0.2,0.3,0.3,0.4,0.4c0.1,0.1,0.3,0.2,0.4,0.2c0.2,0.1,0.4,0.2,0.6,0.2l0.2,0.1
			c0.1,0,0.1,0.1,0.2,0.1c0.2,0.1,0.4,0.2,0.6,0.2l0.1,0c0.3,0.1,0.5,0.2,0.8,0.2c0.3,0.1,0.5,0.1,0.8,0.2l0.1,0c0,0.1,0,0.3,0,0.4
			c0,0-0.1,0.1-0.1,0.1c-0.1,0-0.1,0-0.2,0.1l-0.1,0c-0.1,0-0.2,0-0.4,0.1c-0.5,0-1,0.1-1.5,0.1l-0.9,0.1c-0.7,0.1-1.4,0.2-2.1,0.4
			c-0.3,0.1-0.6,0.2-0.9,0.4c-0.1,0.1-0.2,0.2-0.1,0.4c0,0.2,0.1,0.3,0.2,0.4c0.1,0.1,0.1,0.1,0.2,0.2c0.1,0.1,0.1,0.1,0.2,0.2
			c0,0.6-0.1,1.1-0.3,1.6C7,30.6,6.8,30.8,6.6,31c-0.1,0.1-0.2,0.2-0.3,0.3l-0.1,0.1c-0.1,0.1-0.2,0.1-0.3,0.2l-0.1,0.1
			c-0.2,0.2-0.3,0.5-0.3,0.8l0,0.1c0,0.2-0.1,0.4-0.2,0.6c-0.1,0.1-0.1,0.2-0.2,0.3c-0.1,0.1-0.2,0.3-0.2,0.4c0,0.2,0,0.3,0.1,0.5
			l0,0c0.2,0.3,0.5,0.5,0.8,0.6c0.2,0.1,0.4,0.2,0.7,0.2c0.2,0.1,0.5,0.1,0.7,0.1l0.1,0c0.4,0.1,0.7,0.1,1.1,0.1c0.2,0,0.5,0,0.7,0
			c0.4,0,0.9-0.1,1.3-0.1c0.3,0,0.7-0.1,1-0.3l0.1,0l0.1,0c0.1,0,0.2-0.1,0.3-0.1c0.1,0,0.1,0,0.2,0c0.1,0,0.2,0,0.3-0.1l0.2,0
			c0.2,0,0.5-0.1,0.7-0.2l0.2,0l0.2,0c0.1,0,0.2,0,0.3-0.1c0.1,0,0.1,0,0.2,0l0.1,0l0.3,0c0.2,0,0.4-0.1,0.5-0.1c0,0,0.1,0,0.1,0
			s0.1,0,0.2-0.1c0.1,0,0.2-0.1,0.2-0.1l0.1,0l0.1,0l0.1,0c0.1,0,0.3-0.1,0.4-0.2c0.1,0,0.2-0.1,0.3-0.1c0.1-0.1,0.2-0.1,0.4-0.2
			s0.2-0.1,0.3-0.2s0.2-0.1,0.3-0.2c0.1-0.1,0.3-0.2,0.4-0.2c0.1,0,0.2-0.1,0.3-0.2c0.1,0,0.1-0.1,0.2-0.1c0.1,0,0.1-0.1,0.2-0.1
			l0.2-0.1c0.1,0,0.1-0.1,0.2-0.1l0,0c0.2-0.2,0.5-0.3,0.7-0.4c0.1-0.1,0.3-0.1,0.5-0.2c0.1-0.1,0.2-0.1,0.3-0.1
			c0.1,0,0.2-0.1,0.3-0.1c0.3-0.1,0.6-0.2,1-0.3c0.3-0.1,0.7-0.1,1-0.2c0.2,0,0.5,0,0.8-0.1c0.1,0,0.2,0,0.3,0s0.2,0,0.3,0.1
			s0.2,0,0.3,0.1s0.2,0,0.3,0.1l0,0l0,0c0,0.1,0,0.2-0.1,0.3v0c0,0.2-0.1,0.4-0.2,0.5c-0.1,0.1-0.2,0.2-0.3,0.3
			c-0.2,0.1-0.5,0.3-0.8,0.4c-0.3,0.1-0.6,0.3-0.9,0.4c-0.1,0-0.2,0.1-0.2,0.1S22.2,33,22.1,33c-0.1,0-0.2,0.1-0.3,0.1l-0.1,0.1
			c-0.2,0.1-0.3,0.2-0.5,0.3c-0.1,0.1-0.1,0.2-0.1,0.3l0,0.1c-0.1,0.1-0.2,0.2-0.2,0.4c-0.2,0.1-0.2,0.3-0.1,0.5
			c0,0,0.1,0.1,0.1,0.1c0.2,0.1,0.5,0.2,0.7,0.3c0.3,0,0.6,0.1,0.9,0.1l0,0c0.3,0,0.7,0,1-0.1l0.1,0c0.1,0,0.3,0,0.4-0.1l0.2,0
			c0.1,0,0.2,0,0.4,0l0.4,0c0.3,0,0.5,0,0.8-0.1c0.1,0,0.1,0.1,0.2,0.1l0,0.1l0,0.1c0.1,0.2,0.1,0.3,0.2,0.5
			c0.1,0.1,0.1,0.2,0.2,0.3c0.2,0.2,0.4,0.3,0.6,0.4c0,0.1,0.1,0.3,0.1,0.5l0,0.2l0,0.1c0,0.1,0,0.3,0,0.4c0,0.1-0.1,0.1-0.2,0.2
			c-0.1,0.1-0.2,0.1-0.3,0.1l-0.4,0.1L25.9,38c-0.2,0-0.3,0.1-0.5,0.1c-0.1,0-0.2,0-0.2,0c-0.4,0.1-0.8,0.1-1.2,0.2
			s-0.8,0.1-1.2,0.2c-0.3,0-0.6,0.1-0.9,0.2c-0.2,0.1-0.5,0.1-0.7,0.2c-0.2,0.1-0.4,0.1-0.6,0.2c-0.1,0.1-0.3,0.1-0.4,0.2l-0.1,0
			c-0.1,0.1-0.2,0.2-0.2,0.3c0,0.1,0,0.1,0,0.2l0,0c0.1,0.3,0.1,0.6,0,0.9c-0.1,0.1-0.1,0.2-0.2,0.3c-0.1,0.1-0.1,0.2-0.2,0.2
			c-0.1,0.1-0.1,0.2-0.1,0.4c0,0.1,0,0.2,0,0.3c0,0.1-0.1,0.1-0.2,0.2c-0.1,0.1-0.2,0.1-0.4,0.2h0c-0.1,0-0.2,0.1-0.3,0.1
			c-0.1,0-0.1,0-0.2,0l-0.1,0c0,0-0.1,0-0.1-0.1c-0.1,0-0.1-0.1-0.2-0.1l0,0C18.1,42,18,41.9,18,41.9c0,0-0.1-0.1-0.1-0.1
			c0,0-0.1-0.1-0.1-0.1c0-0.1,0-0.1,0-0.2v-0.1c0-0.3-0.2-0.5-0.5-0.6c-0.2-0.1-0.4-0.1-0.5-0.2l-0.2,0l-0.1,0
			c-0.1,0-0.1-0.1-0.2-0.1c-0.2-0.1-0.4-0.1-0.6-0.2c-0.1,0-0.3-0.1-0.4-0.1c-0.1,0-0.2,0-0.3,0l0-0.1c0,0,0-0.1,0-0.1
			c0-0.1-0.1-0.3-0.2-0.4c-0.1-0.1-0.2-0.2-0.3-0.3l-0.1,0c-0.1-0.1-0.2-0.1-0.3-0.2C14,39,13.9,39,13.7,39c0,0-0.1,0-0.1,0
			c-0.2-0.1-0.5-0.3-0.8-0.3c-0.4-0.1-0.7-0.1-1.1-0.1c-0.2,0-0.5,0-0.7,0c-0.5,0-1.1,0-1.6,0.1c-0.2,0-0.4,0.1-0.6,0.1l-0.2,0
			l-0.2,0.1c-0.2,0-0.3,0.1-0.5,0.1c-0.3,0.1-0.5,0.1-0.7,0.2c-0.1,0-0.3,0.1-0.4,0.1c-0.1,0-0.1,0.1-0.2,0.1
			c-0.1,0-0.1,0.1-0.2,0.1c0,0-0.1,0-0.1,0.1c-0.1,0-0.2,0.1-0.2,0.1c-0.1,0-0.2,0.1-0.3,0.1l0,0c0,0-0.1,0-0.1,0.1
			c0,0-0.1,0-0.1,0.1c0,0-0.1,0-0.1,0.1c-0.1,0.1-0.2,0.1-0.3,0.2c0,0-0.1,0.1-0.1,0.1l0,0.1c-0.1,0.1-0.2,0.3-0.3,0.4l0,0
			c-0.2,0.2-0.2,0.4-0.2,0.6c0,0.2,0.1,0.5,0.3,0.7c0.1,0.1,0.3,0.3,0.5,0.4c0.2,0.1,0.3,0.2,0.4,0.4c0,0.1,0,0.2,0,0.3v0.5l0,0.3
			c0,0.4,0.1,0.8,0.1,1.2c0.1,0.9,0.1,1.7,0.2,2.4l0,0.6l0,0.6v0.6c0,0.2,0,0.5,0,0.7c0,0.3,0.1,0.6,0.1,0.9
			c0.1,0.4,0.1,0.9,0.1,1.3c0,0.2,0,0.3-0.1,0.5c-0.2,0.3-0.4,0.7-0.7,0.9c-0.1,0.1-0.2,0.2-0.3,0.4L5,54.2
			c-0.1,0.1-0.1,0.2-0.2,0.4l0,0.1l-0.1,0.2c-0.1,0.1-0.1,0.2-0.1,0.3c-0.1,0.2-0.1,0.4,0,0.5l0,0.1c0,0.2,0.1,0.4,0.2,0.5
			c0.1,0.1,0.1,0.2,0.2,0.3l0.1,0.1c0.1,0.1,0.2,0.2,0.2,0.2c0,0.2,0.1,0.3,0.1,0.5c0.1,0.2,0.3,0.3,0.5,0.5C6,57.9,6.1,58,6.2,58.1
			c0,0,0.1,0.1,0.1,0.1l0,0c0.1,0.1,0.2,0.2,0.2,0.3c0.1,0.2,0.1,0.3,0.2,0.4c0.1,0.1,0.1,0.2,0.2,0.2c0.1,0.1,0.1,0.1,0.2,0.2
			c0.1,0.1,0.1,0.3,0.2,0.4c0,0.1,0.1,0.2,0.2,0.3c0.1,0.1,0.1,0.2,0.1,0.2c0,0.1,0,0.3,0,0.4v0.1c0,0.2,0,0.4,0,0.7
			c0,0.5-0.1,1.1-0.1,1.6c-0.1,1.1-0.2,2.2-0.2,3.3c0,0.5-0.1,1-0.1,1.5c0,0.6-0.1,1.2-0.1,1.8c0,0.2,0,0.5,0,0.7
			c0.1,0.5,0,0.9-0.1,1.4C7,72,6.9,72.1,6.9,72.2c0,0.1-0.1,0.1-0.1,0.2c-0.1,0.1-0.2,0.3-0.2,0.4c0,0.1,0,0.1-0.1,0.2
			c-0.1,0.2-0.2,0.4-0.4,0.6C6,73.7,5.9,73.8,5.8,74c-0.1,0.1-0.2,0.2-0.3,0.3l-0.1,0.1c-0.1,0.2-0.3,0.3-0.3,0.5l0,0.1
			C5,75,5,75.1,4.9,75.2c-0.1,0.1-0.1,0.3-0.1,0.5V76c0,0.2,0,0.3,0,0.5c0,0.2,0,0.5,0.1,0.7c0.1,0.2,0.2,0.4,0.3,0.5L5.3,78
			c0,0.1,0.1,0.2,0.1,0.3c0,0.1,0,0.2,0,0.3v0c0,0.2-0.1,0.5-0.2,0.7c-0.1,0.1-0.1,0.2-0.2,0.3c-0.1,0.2-0.2,0.3-0.2,0.5
			c0,0.2-0.1,0.3,0,0.5c0,0.1,0,0.1,0,0.2c0,0.6-0.1,1.1-0.3,1.6l-0.1,0.2c-0.1,0.1-0.2,0.3-0.2,0.5c0,0.1,0,0.1,0,0.2
			c0,0,0,0.1,0,0.1C4,83.4,4,83.5,4,83.6c-0.1,0.2-0.3,0.5-0.5,0.7c-0.1,0.1-0.1,0.2-0.2,0.3s-0.1,0.2-0.2,0.3
			C3,85,2.9,85.1,2.8,85.2c-0.1,0.1-0.2,0.2-0.3,0.3c-0.2,0.2-0.4,0.4-0.6,0.5c-0.2,0.1-0.4,0.3-0.6,0.5C1.1,86.6,1,86.8,0.8,87
			L0.8,87c-0.1,0.1-0.2,0.3-0.3,0.5c-0.1,0.2-0.1,0.3-0.1,0.5c0,0.3,0,0.5,0,0.8c0,0.2,0.1,0.4,0.2,0.5c0.1,0.1,0.1,0.2,0.2,0.3
			c0.1,0.1,0.1,0.1,0.1,0.2c0,0.1,0,0.1,0.1,0.2c0,0.1,0,0.2,0.1,0.3c0.1,0.2,0.2,0.4,0.4,0.6c0,0.1,0,0.2,0,0.4v0.1
			c0,0.2,0,0.4,0,0.6s0,0.4-0.1,0.6s-0.1,0.3-0.1,0.5c0,0.4,0,0.7,0,1.1c0,0.2,0.1,0.5,0.2,0.7c0.1,0.1,0.1,0.2,0.2,0.3l0.1,0.1
			c0,0.1,0,0.2,0,0.3v0.1c0,0.1,0,0.2,0,0.4v0.2l0,0.2c0,0.3,0,0.6,0,0.9c0,0.4,0.1,0.7,0.2,1c0.1,0.2,0.2,0.5,0.4,0.7
			c0.1,0.1,0.1,0.2,0.2,0.3s0.1,0.2,0.2,0.3c0.1,0.3,0.2,0.6,0.4,0.8c0.1,0.1,0.2,0.2,0.2,0.4c0.1,0.1,0.2,0.2,0.2,0.3
			c0,0.2,0.1,0.3,0.1,0.5c0,0.2,0.1,0.5,0.2,0.7c0.1,0.4,0.2,0.7,0.2,1.1c0,0.2,0.1,0.4,0.1,0.6s0.1,0.4,0.1,0.6
			c0.1,0.4,0.1,0.9-0.1,1.3c-0.1,0.1-0.1,0.2-0.2,0.4l-0.1,0.2c-0.1,0.1-0.1,0.3-0.2,0.4c0,0.1-0.1,0.2-0.1,0.3l-0.1,0.2
			c-0.1,0.2-0.2,0.4-0.2,0.5v0c0,0.3-0.1,0.5-0.1,0.8c-0.2,0.3-0.3,0.6-0.5,0.8c-0.1,0.2-0.2,0.3-0.3,0.5c-0.2,0.2-0.4,0.5-0.6,0.7
			L1.6,111c-0.1,0.1-0.2,0.2-0.2,0.3l-0.1,0.1l0,0.1c-0.1,0.1-0.2,0.2-0.2,0.4L0.9,112c-0.1,0.2-0.2,0.4-0.3,0.7
			c-0.1,0.2-0.1,0.4-0.1,0.6c0,0.1,0,0.2,0,0.2c-0.1,0.6-0.1,1.2-0.1,1.8c0,0.5,0,1.1,0,1.6c0,0.3-0.1,0.5-0.1,0.8
			c0,0.2-0.1,0.5-0.1,0.7c0,0.2,0,0.5,0,0.7c0,0.3,0.1,0.5,0.3,0.7c0.2,0.2,0.4,0.4,0.6,0.6l0.1,0.1c0.2,0.1,0.3,0.3,0.5,0.4
			c0.1,0.1,0.2,0.1,0.3,0.2c0.1,0.1,0.2,0.1,0.4,0.2l0.1,0c0.2,0.1,0.3,0.1,0.4,0.2l0.1,0c0.1,0.1,0.2,0.1,0.3,0.2
			c0.1,0.1,0.2,0.2,0.3,0.3c0.2,0.2,0.5,0.4,0.7,0.6c0.2,0.2,0.3,0.3,0.5,0.5c0.1,0.1,0.1,0.2,0.2,0.3l0,0.1l0.1,0.2l0.1,0.1
			c0.1,0.2,0.1,0.4,0.1,0.6c0,0.2,0,0.5,0.1,0.7c0,0.2,0.1,0.5,0.2,0.7c0.1,0.1,0.1,0.2,0.2,0.3c0.1,0.1,0.1,0.2,0.2,0.3
			c0.1,0.3,0.3,0.6,0.5,0.8c0.1,0.1,0.2,0.2,0.2,0.2c0.1,0.1,0.2,0.2,0.2,0.2c0.1,0.2,0.2,0.3,0.3,0.5c0.1,0.4,0.2,0.8,0.1,1.1v0.2
			c0,0.5,0,1-0.1,1.5c0,0.3-0.1,0.5-0.2,0.8c-0.1,0.3-0.2,0.6-0.2,1c0,0.6-0.1,1.1-0.2,1.6c-0.2,0.3-0.4,0.6-0.6,0.8
			c-0.1,0.1-0.3,0.2-0.4,0.4c-0.1,0.1-0.3,0.3-0.4,0.4c-0.3,0.2-0.5,0.4-0.7,0.7c-0.2,0.2-0.3,0.4-0.4,0.7c0,0.1,0,0.3,0.1,0.4l0,0
			c0.1,0.1,0.1,0.2,0.2,0.3c0.2,0.3,0.4,0.5,0.7,0.7l0.1,0c0.3,0.2,0.6,0.5,0.9,0.6l0.2,0.1c0.2,0.1,0.5,0.2,0.7,0.4
			c0,0,0.1,0.1,0.1,0.1c0,0.1,0,0.2,0,0.4c0,0.1,0,0.1,0,0.2c0,0.3,0.1,0.5,0.3,0.7c0.1,0.1,0.2,0.2,0.3,0.3
			c0.1,0.1,0.2,0.2,0.2,0.2c0.2,0.2,0.4,0.4,0.6,0.6l0,0c0,0,0.1,0.1,0.1,0.1c0.1,0.1,0.1,0.1,0.2,0.1l0.1,0.1
			c0.1,0.1,0.2,0.2,0.4,0.3c0.1,0.1,0.2,0.2,0.4,0.3s0.2,0.2,0.4,0.3c0.1,0.1,0.3,0.2,0.4,0.3c0.1,0.1,0.2,0.1,0.3,0.2
			c0.1,0,0.1,0.1,0.2,0.1l0.1,0.1c0.1,0.1,0.2,0.2,0.3,0.3c0,0.2,0,0.3-0.1,0.5c0,0.1-0.1,0.2-0.1,0.2c-0.1,0.2-0.2,0.4-0.3,0.7
			c0,0.3-0.1,0.7-0.2,1c-0.2,0.3-0.4,0.5-0.6,0.8c-0.1,0.1-0.1,0.1-0.2,0.2c-0.1,0.1-0.1,0.2-0.2,0.3c-0.1,0.1-0.3,0.3-0.5,0.4
			l0.1,0l-0.1,0.1l0,0l0,0l0,0l0,0l0,0c-0.1,0.1-0.3,0.2-0.4,0.3l-0.1,0c-0.1,0.1-0.2,0.1-0.3,0.2c-0.1,0-0.2,0.1-0.2,0.1
			c-0.1,0.1-0.2,0.1-0.3,0.2l-0.1,0.1c-0.1,0.1-0.2,0.1-0.3,0.2c-0.1,0.1-0.3,0.2-0.4,0.3c-0.1,0.2-0.2,0.4-0.2,0.6v0
			c0,0.2,0,0.4,0,0.6v0c0,0.3,0,0.7,0.1,1c0.1,0.2,0.2,0.4,0.3,0.6c0.1,0.1,0.1,0.2,0.2,0.2c0.1,0.1,0.1,0.1,0.2,0.2
			c0.1,0.2,0.1,0.5,0.1,0.7c0,0.2,0,0.5-0.1,0.7c-0.1,0.2-0.2,0.3-0.4,0.5l-0.1,0.1c-0.1,0.1-0.1,0.2-0.2,0.3l0,0.1
			c-0.1,0.1-0.2,0.2-0.3,0.3L6.5,156c-0.1,0.1-0.3,0.2-0.4,0.2l0,0c-0.2,0.1-0.3,0.2-0.5,0.3l-0.2,0.1l-0.2,0.1
			c-0.2,0.1-0.4,0.2-0.6,0.3c-0.2,0.1-0.4,0.2-0.6,0.2c-0.2,0.1-0.3,0.2-0.5,0.3c-0.1,0.1-0.2,0.1-0.2,0.2c-0.1,0-0.1,0.1-0.1,0.2
			c0,0.1,0,0.2-0.1,0.3c-0.1,0.1-0.2,0.3-0.3,0.4c-0.1,0.1-0.1,0.1-0.2,0.2c-0.1,0.1-0.2,0.2-0.2,0.3c-0.1,0.1-0.2,0.2-0.3,0.3
			c-0.1,0-0.1,0.1-0.2,0.2c0,0.1,0,0.1,0,0.2l0,0.1l0,0.2c0.1,0.3,0.1,0.6,0.2,0.9c0,0.5,0,1,0,1.4l0,0.3c0,0.4-0.1,0.7,0,1.1
			c0,0.2,0.1,0.5,0.2,0.7c0.1,0.1,0.2,0.3,0.3,0.4c0.1,0.1,0.2,0.2,0.2,0.3c0.1,0.4,0.1,0.9,0.1,1.3c0,0.2,0,0.5,0,0.7
			c0,0.3,0,0.5,0.1,0.8c0.1,0.3,0.2,0.5,0.4,0.7c0.1,0.1,0.1,0.1,0.2,0.2c0,0.2,0,0.5,0,0.7v0.6c0,0.2,0,0.5,0,0.7l0,0.1
			c0,0.4,0.1,0.8,0,1.2c0,0.2,0,0.4,0.1,0.6c0.1,0.1,0.2,0.2,0.3,0.3c0.1,0.1,0.2,0.1,0.2,0.2c0,0.3,0,0.6-0.1,0.9
			c0,0.1-0.1,0.2-0.1,0.4c0,0.2,0,0.4,0.1,0.6c0,0.1,0.1,0.2,0.2,0.3c0.1,0.1,0.3,0.2,0.5,0.3c0.1,0.1,0.1,0.1,0.2,0.2l0.1,0.1
			c0,0,0.1,0.1,0.1,0.1c0.1,0.1,0.1,0.1,0.2,0.2c0,0.1,0,0.1,0,0.2v0.4l0,0.2c0,0.1,0,0.2,0,0.3c0,0.2,0,0.4,0.1,0.6
			c0.1,0.1,0.1,0.2,0.2,0.3c0.1,0.1,0.2,0.2,0.4,0.3l0.1,0c0.1,0.1,0.3,0.2,0.5,0.3c0.3,0.1,0.5,0.2,0.8,0.3l0.1,0
			c0.2,0.1,0.5,0.2,0.7,0.2c0.3,0.1,0.6,0.1,1,0.2c0.1,0,0.3,0,0.4,0.1c0.2,0,0.5,0.1,0.8,0.1c0.1,0,0.2,0,0.4,0c0.1,0,0.1,0,0.2,0
			l0.2,0c-0.1,0.1-0.2,0.2-0.3,0.3c-0.1,0.1-0.3,0.1-0.4,0.2c-0.4,0.1-0.9,0.3-1.4,0.4l-0.4,0.1C8.4,181,8,181,7.6,181.1
			c-0.8,0.2-1.2,0.5-1.1,0.8c0.1,0.3,0,0.7-0.1,1c0,0.1-0.1,0.1-0.1,0.2c-0.1,0-0.1,0.1-0.2,0.1l-0.3,0.1c-0.3,0.1-0.6,0.2-0.9,0.3
			l-0.1,0.1c-0.3,0.1-0.6,0.2-0.8,0.4c-0.3,0.2-0.5,0.4-0.5,0.6c0,0.1,0,0.1,0,0.2l0,0.1c0,0.2,0,0.4,0,0.5
			c-0.1,0.1-0.3,0.3-0.4,0.4l-0.2,0.2c-0.1,0.1-0.2,0.1-0.3,0.2c-0.1,0.1-0.2,0.1-0.3,0.2c-0.1,0-0.1,0.1-0.2,0.1
			c-0.3,0.1-0.6,0.4-0.8,0.6c-0.1,0.1-0.1,0.2-0.1,0.4c0,0.1,0,0.2,0,0.3l0,0.2c0,0.1,0,0.2,0,0.3c0,0.1,0,0.2,0.1,0.4
			c0.1,0.4,0.1,0.8,0,1.2c-0.1,0.1-0.2,0.2-0.3,0.3c-0.3,0.2-0.5,0.3-0.8,0.5c-0.1,0.1-0.2,0.2-0.2,0.4c0,0.1,0,0.1,0,0.2
			c0,0.3,0,0.6,0.1,0.9c0.1,0.4,0.4,0.7,0.6,1c0.1,0.1,0.1,0.1,0.2,0.2s0.1,0.1,0.2,0.2c0.2,0.1,0.3,0.3,0.5,0.4l0.1,0.1
			c0.1,0,0.1,0.1,0.2,0.1l0.1,0.1c0.1,0.1,0.3,0.2,0.4,0.3c0.1,0.1,0.3,0.2,0.4,0.3l0.2,0.2c0.1,0.1,0.1,0.1,0.2,0.2l0,0.1l0,0.1
			c0,0.1,0.1,0.1,0.1,0.2c0,0.2,0,0.3,0,0.5l0,0.1c0,0.1-0.1,0.3-0.1,0.4c0,0.1-0.1,0.1-0.1,0.2c-0.2,0.2-0.2,0.4-0.1,0.6
			c0.4,0.3,0.9,0.5,1.4,0.6c0.1,0,0.2,0.1,0.3,0.1c0.1,0.1,0.2,0.2,0.2,0.3c0,0.1,0,0.2,0,0.3v0.2c0,0.1,0,0.3,0,0.4l0,0.1
			c0,0,0,0.1,0,0.1c0,0.1,0.1,0.2,0.1,0.3l0,0c0.1,0.1,0.1,0.2,0.2,0.3c0.1,0.1,0.1,0.1,0.2,0.2c0,0.3,0.1,0.5,0.3,0.7
			c0.2,0.2,0.5,0.4,0.8,0.5l0.2,0.1c0.1,0.1,0.2,0.1,0.3,0.2c0.1,0,0.2,0.1,0.3,0.1c0.1,0,0.1,0.1,0.2,0.1c0.2,0.2,0.4,0.3,0.7,0.5
			c0.1,0.1,0.2,0.2,0.3,0.3l0.1,0.1c0.1,0.1,0.2,0.2,0.2,0.3c0,0.1,0.1,0.1,0.1,0.2c0.1,0.2,0.3,0.4,0.4,0.6l0,0.1
			c0.2,0.3,0.5,0.7,0.6,1l0.1,0.1c0.2,0.1,0.4,0.2,0.6,0.2l0,0l0,0c0.1,0.1,0.1,0.2,0.2,0.3c0,0,0,0.1,0,0.1c0,0.2,0.3,0.4,0.7,0.6
			l0.1,0l0.2,0.1l0.2,0.1c0.1,0.1,0.3,0.2,0.4,0.3l0.1,0c0.2,0.2,0.3,0.3,0.5,0.4c0.3,0.2,0.6,0.3,0.9,0.4c0.3,0.1,0.5,0.2,0.8,0.3
			c0.1,0.1,0.2,0.1,0.4,0.2l0,0l0,0l0.3,0.1l0.1,0l0,0c0.2,0.1,0.5,0.2,0.7,0.4l0.4,0.2l0.2,0.1l0.3,0.1c0.3,0.2,0.5,0.3,0.8,0.6
			c0.2,0.2,0.3,0.5,0.5,0.8c0.1,0.2,0.2,0.3,0.3,0.5c0.2,0.2,0.3,0.3,0.5,0.4c0.3,0.2,0.5,0.3,0.8,0.4c0.3,0.1,0.5,0.2,0.8,0.4
			c0.5,0.2,1.1,0.4,1.8,0.6l0.3,0.1c0.2,0.1,0.4,0.1,0.6,0.2c0.3,0.1,0.6,0.2,0.9,0.3c0.5,0.2,1,0.4,1.5,0.6
			c0.2,0.1,0.4,0.2,0.5,0.3l0.3,0.2l0.2,0.2l0,0c0.2,0.1,0.3,0.2,0.5,0.3c0.1,0,0.2,0.1,0.2,0.1l0.1,0.1c0.2,0.1,0.3,0.2,0.5,0.2
			c0.5,0.2,1.1,0.4,1.8,0.7c0.7,0.2,1.4,0.5,2.2,0.7c0.9,0.2,1.8,0.4,2.8,0.6c0.6,0.1,1.2,0.2,1.8,0.3l0.2,0
			c0.4,0.1,0.9,0.1,1.3,0.2c0.4,0.1,0.8,0.2,1.3,0.2c0.4,0.1,0.8,0.2,1.2,0.3c0.2,0.1,0.4,0.1,0.6,0.2s0.3,0.1,0.5,0.2
			c0.2,0.1,0.4,0.2,0.6,0.4l0.2,0.1c0.1,0.1,0.3,0.2,0.4,0.3c0.3,0.2,0.6,0.3,0.9,0.4c0.4,0.1,0.8,0.2,1.2,0.3
			c0.4,0.1,0.8,0.2,1.2,0.3c0.3,0.1,0.6,0.1,0.9,0.2c0.7,0.2,1.4,0.3,2.3,0.5l0.2,0c0.3,0.1,0.7,0.1,1,0.2l0.2,0
			c0.3,0.1,0.6,0.1,1,0.2c0.4,0.1,0.9,0.2,1.3,0.3c0.5,0.1,1,0.2,1.5,0.3l0.3,0.1l0.6,0.1l0.1,0c0.5,0.1,1,0.2,1.6,0.3l0.5,0.1
			c0.4,0.1,0.8,0.1,1.1,0.2c0.2,0,0.4,0.1,0.6,0.1c0.4,0.1,0.9,0.2,1.4,0.2c0.3,0,0.6,0.1,0.9,0.1l0.1,0l0.9,0.1l0.4,0
			c0.3,0,0.6,0.1,0.9,0.1l0.2,0c0.4,0.1,0.7,0.1,1.1,0.2c0.2,0,0.5,0.1,0.7,0.1l0.3,0c0.3,0.1,0.6,0.1,0.9,0.1s0.6,0.1,0.9,0.2
			c0.3,0.1,0.6,0.1,0.9,0.2c0.3,0.1,0.5,0.2,0.8,0.3c0.1,0,0.1,0.1,0.2,0.1l0.1,0.1c0.2,0.1,0.5,0.2,0.7,0.3
			c0.5,0.1,0.9,0.2,1.4,0.3c0.4,0.1,0.8,0.1,1.3,0.2c0.8,0.1,1.6,0.1,2.4,0.1l0.4,0c0.6,0,1.2,0,1.8,0c0.4,0,0.8,0,1.2,0
			c0.4,0,0.7,0,1.1-0.1c0.2,0,0.4,0,0.7,0c0.6,0,1.2-0.1,1.9-0.1c0.2,0,0.4,0,0.6,0l0.2,0l0.4,0c0.1,0,0.3,0,0.4,0
			c0.6,0,1.2,0,1.8-0.1c0.5,0,0.9,0,1.3,0c0.4,0,0.8,0,1.2,0h0.3c0.5,0,1,0,1.5-0.1l0.4,0l0.3,0c0.4,0,0.8-0.1,1.2-0.3
			c0.2-0.1,0.5-0.2,0.7-0.4l0.1-0.1c0.2-0.1,0.3-0.3,0.4-0.4c0.1-0.1,0.1-0.3,0.1-0.4c0-0.1,0-0.3,0-0.4c0-0.1,0-0.2-0.1-0.3l0-0.1
			c0-0.1,0-0.2-0.1-0.4v-0.1c0-0.1,0-0.1,0-0.2l0-0.1c0-0.1,0-0.1,0-0.2c0-0.2,0-0.3,0-0.5c0-0.1,0-0.2,0-0.2c0-0.1,0-0.3,0.1-0.4
			c0.1-0.1,0.1-0.3,0.2-0.4c0.1-0.3,0.2-0.5,0.3-0.8c0-0.1,0.1-0.3,0.1-0.4c0-0.1,0.1-0.3,0.2-0.4c0-0.1,0.1-0.1,0.1-0.2
			s0.1-0.2,0.1-0.2c0-0.1,0.1-0.2,0.1-0.3l0-0.1c0-0.1,0-0.1,0.1-0.2c0,0,0-0.1,0.1-0.1c0-0.1,0.1-0.2,0.1-0.4c0-0.1,0-0.2,0-0.3
			c0-0.2,0-0.3,0.1-0.5c0-0.1,0.1-0.2,0.1-0.3c0.1-0.4,0.3-0.8,0.6-1.1c0,0,0.1-0.1,0.1-0.1l0,0l0,0c0.1,0,0.3,0,0.4,0.1
			c0.2,0,0.4,0.1,0.6,0.1c0.4,0.1,0.8,0.3,1.2,0.4l0.1,0c0.4,0.2,0.7,0.3,1.1,0.5c0.2,0.1,0.3,0.2,0.4,0.3c0.1,0.1,0.2,0.2,0.3,0.3
			c0.1,0.1,0.2,0.3,0.3,0.5c-0.1,0-0.2,0-0.2,0c-0.1,0-0.2,0-0.3,0c-0.1,0-0.1,0-0.1,0.1c0.1,0.1,0.2,0.3,0.2,0.4s0.1,0.3,0.2,0.4
			l0.1,0.2c0.1,0.2,0.2,0.4,0.3,0.5l0,0c0.1,0.2,0.2,0.4,0.3,0.6c0.1,0.2,0.1,0.5,0.1,0.7c0,0.1,0,0.2-0.1,0.3l0,0.1
			c0,0.1-0.1,0.3-0.1,0.4c0,0.1,0,0.2,0,0.2l0,0.1v0.1c0,0.1,0,0.2,0,0.2c0.1,0.3,0.2,0.5,0.3,0.8c0.2,0.2,0.3,0.5,0.3,0.8
			c0,0.1-0.1,0.3-0.1,0.4c0,0.1-0.1,0.1-0.1,0.2c0,0.1-0.1,0.2-0.1,0.3c0,0.1-0.1,0.3-0.1,0.4c-0.1,0.2-0.2,0.5-0.1,0.8
			c0.1,0.1,0.2,0.3,0.3,0.3c0.4,0.2,0.8,0.3,1.2,0.4c0.4,0.1,0.9,0.1,1.4,0.2c0.8,0.1,1.6,0.1,2.4,0.2c0.7,0,1.4,0,2.1,0h0.3
			c0.4,0,0.9,0,1.3,0c0.6,0,1.1,0,1.7,0s1.1,0,1.7,0h0.3c0.6,0,1.2,0,1.8,0h0.4c0.7,0,1.4,0,2.2,0h0.4c0.5,0,1,0,1.5,0
			c0.4,0,0.7,0,1.1,0l0.6,0l0.6,0c0.4,0,0.8,0,1.2,0s0.8,0,1.2,0s0.8,0,1.2,0c0.8,0,1.7,0,2.5,0h1.2c0.4,0,0.7,0,1.1,0h0.1l1.3,0
			c0.4,0,0.8,0,1.2,0c1.2,0,2.4-0.1,3.6-0.1l1,0c1.5,0,2.8,0,4.1,0h0.6c1,0,2.1,0,3.2,0c0.5,0,0.9,0,1.4,0c1.5,0,2.9,0,4.3,0h0.4
			c0.5,0,0.9,0,1.4,0c0.7,0,1.5,0,2.2,0h1.1c0.9,0,1.7,0,2.5,0c0.4,0,0.9,0,1.3,0h0.1c1.2,0,2.1,0,3.1,0c0.6,0,1.2,0,1.9,0
			c0.4,0,0.8,0,1.2,0c0.3,0,0.6,0,0.8,0l0.8,0l0.6,0l1.2,0h0.3c0.5,0,1,0,1.5,0h4c0.7,0,1.2,0,1.8,0c1.4,0,2.6,0,3.7,0
			c0.7,0,1.4,0,2.1,0c0.5,0,0.9,0,1.4,0l0.7,0c0.3,0,0.6,0,1,0l0.8,0l0.9,0l1.2,0c1.3,0,2.7,0,4,0h0.3c0.4,0,0.8,0,1.2,0
			c0.6,0,1.1,0,1.7,0c1,0,2,0,3,0h0.9c0.7,0,1.3,0,2,0c0.9,0,1.7,0,2.6,0h0.2c0.4,0,0.8,0,1.2,0h0.5c0.4,0,0.9,0,1.3,0l0.2,0
			c1,0,2,0,3,0h0.4h-0.1l1,0c0.3,0,0.6,0,0.8,0l0.5,0c0.4,0,0.8,0,1.2,0h1.3c0.7,0,1.5,0,2.2,0c0.3,0,0.6,0,1,0c0.4,0,0.8,0,1.2,0
			c0.6,0,1.2,0,1.9,0l0.5,0c0.4,0,0.8,0,1.2,0h0.8h0.5l0.8,0c0.3,0,0.6,0,0.9,0l0.4,0c0.9,0,1.7,0,2.6,0c0.5,0,1,0,1.4,0
			c0.4,0,0.9,0,1.3,0c0.4,0,0.8,0,1.2,0h1.5c0.7,0,1.4,0,2,0c0.6,0,1.3,0,2.1,0.1c0.3,0,0.6,0,0.9,0s0.7,0,1,0c0.5,0,1.1,0,1.6,0.1
			c0.4,0,0.8,0.1,1.2,0.1l0.8,0.1c0.3,0,0.6,0.1,0.9,0.1l0.1,0c0.7,0.1,1.4,0.1,2.1,0.2c0.2,0,0.5,0.1,0.7,0.1l0.4,0l0.8,0.1
			c0.3,0.1,0.5,0.1,0.8,0.2c1,0.2,2,0.4,3.1,0.6c0.5,0.1,1,0.1,1.5,0.1c0.1,0,0.3,0,0.4,0c0.2,0,0.4,0,0.5,0c0.3,0,0.6,0,0.8-0.1
			l0.2,0c0.4,0,0.8-0.1,1.2-0.2l0.1,0l0.4-0.1l0.4-0.1c1-0.1,2-0.3,3.1-0.4c0.4,0,0.8-0.1,1.2-0.1c0.5,0,1-0.1,1.5-0.1
			c0.8-0.1,1.7-0.2,2.5-0.3c0.7-0.1,1.5-0.2,2.3-0.3c0.5,0,1.1,0,1.7,0c0.7,0,1.5,0,2.2,0.1s1.4,0,2.2,0c0.3,0,0.6,0,0.9,0
			c0.5,0,1.1,0,1.6,0c1.2,0,2.4,0,3.7,0h0.5c0.7,0,1.5,0,2.2,0.1l1.2,0c0.7,0,1.4,0,2.1,0l1.7,0c1,0,2.1,0.1,3.1,0.1l0.2,0
			c1,0,2,0.1,3,0.1h0.7c0.9,0,1.7,0.1,2.5,0.1c0.5,0.1,1.1,0.1,1.6,0.2l0.2,0c0.7,0.1,1.5,0.2,2.4,0.2s1.8,0.2,2.7,0.2l1,0.1
			c0.5,0,0.9,0.1,1.4,0.1c0.8,0.1,1.6,0.1,2.4,0.1c0.1,0,0.2,0,0.3,0c0.9,0,1.8-0.1,2.7-0.2c0.4-0.1,0.8-0.1,1.3-0.2
			c0.4-0.1,0.9-0.1,1.3-0.2c0.6-0.1,1.1-0.3,1.6-0.4c0.2,0,0.3-0.1,0.5-0.1c0.3,0,0.6-0.1,0.9-0.1c0.3,0,0.5,0,0.8,0
			c0.3,0,0.6,0,0.9,0l0.6,0c0.6,0,1.1,0,1.7,0c0.7,0,1.4,0,2,0h0.5c0.7,0,1.4,0,2.1,0l0.5,0c1,0,2.1,0,3.2,0c0.4,0,0.8,0,1.1,0
			c0.6,0,1.2,0,1.8,0c0.6,0,1.3,0,1.9-0.1l0.9,0l2.5-0.1c0.3,0,0.6,0,0.9,0c0.4,0,0.9,0,1.3,0c0.2,0,0.4,0,0.6,0
			c0.3,0,0.6,0.1,0.9,0.1l0.5,0.1l0.7,0.1c0.4,0,0.8,0.1,1.1,0.1c0.6,0.1,1.2,0.1,1.8,0.1c0.4,0,0.8,0,1.2,0c0.2,0,0.3,0,0.5,0
			c0.7,0,1.5-0.1,2.2-0.2c0.5-0.1,1-0.2,1.4-0.4c0.3-0.1,0.7-0.2,1-0.3l0.1,0c0.2-0.1,0.5-0.2,0.8-0.3c0.1,0,0.1,0,0.2,0l0.2,0
			c0.3,0,0.6,0.1,0.9,0.1c0.6,0.1,1.1,0.2,1.5,0.4c0.3,0.1,0.6,0.2,0.8,0.3c0.1,0,0.1,0.1,0.2,0.1c0.1,0.1,0.2,0.1,0.4,0.2
			c0.3,0.1,0.6,0.2,0.9,0.3c0.3,0.1,0.7,0.2,1,0.3c0.5,0.1,1,0.2,1.5,0.2c0.5,0,1.1,0.1,1.6,0.1h0.3c0.2,0,0.5,0,0.7,0
			c0.3,0,0.6,0,0.8-0.1s0.5-0.1,0.7-0.1l0.1,0c0.3,0,0.5-0.1,0.8-0.1c0.3,0,0.6-0.1,0.9-0.1c1.1-0.2,2.3-0.3,3.6-0.4
			c0.7,0,1.3-0.1,2-0.1l1.3,0l1,0c0.8,0,1.6,0,2.4,0h1.1c0.4,0,0.8,0,1.2,0l0.2,0c1,0,1.9-0.1,2.9-0.1c1,0,2-0.1,3-0.1
			c0.6,0,1.1,0,1.8,0c0.3,0,0.6,0,0.8,0h1.2l1.2,0c1.2,0,2.3,0.1,3.5,0.1l0.2,0c1.1,0,2.2,0.1,3.3,0.1c0.5,0,1,0,1.5,0
			c0.6,0,1.1,0,1.7,0c0.8,0,1.7,0.1,2.5,0.2l0.2,0l-0.1,0c0.7,0.1,1.4,0.2,2.1,0.2c0.5,0.1,0.9,0.1,1.4,0.2c0.3,0,0.6,0.1,0.9,0.1
			c0.8,0.1,1.6,0.2,2.5,0.3c0.4,0,0.8,0.1,1.2,0.1s0.8,0,1.2,0h0.4c0.2,0,0.5,0,0.7,0h1.3c0.2,0,0.4,0,0.6,0c0.4,0,0.8,0,1.2-0.1
			c0.4,0,0.7-0.1,1.1-0.1c0.5-0.1,0.9-0.1,1.4-0.2l0.7-0.1l0.6-0.1c0.5-0.1,1-0.1,1.5-0.2c0.6,0,1.1-0.1,1.7-0.1
			c0.6,0,1.2-0.1,1.8-0.1h-0.1c1.6-0.1,3.3-0.2,5-0.2c0.5,0,1,0,1.4,0l0.9,0c0.7,0,1.3,0,2,0h0.3h0.3c0.8,0,1.7,0,2.5,0
			c0.3,0,0.5,0,0.8,0c0.4,0,0.9,0,1.3,0l0.6,0c0.7,0,1.4,0,2.1,0c1.5,0,2.9,0,4.1-0.1l0.5,0c0.5,0,1.1,0,1.6,0c0.4,0,0.9,0,1.3,0
			h0.5c0.8,0,1.6,0,2.4,0.1s1.8,0,2.9,0.1h-0.1c1.1,0,2.2,0,3.2,0.1c0.3,0,0.6,0,1,0c1,0,2,0,3-0.1l0.3,0c0.4,0,0.9,0,1.4,0
			c0.5,0,1,0,1.5,0l1,0h0.3c0.5,0,0.9,0,1.4,0c0.4,0,0.9,0,1.3,0h0.7c1.5,0,2.9,0.1,4.4,0.2l0.2,0c0.6,0.1,1.3,0.1,1.9,0.2
			c0.7,0.1,1.4,0.2,2.1,0.2c0.2,0,0.4,0.1,0.6,0.1l0.5,0.1c0.4,0,0.8,0.1,1.2,0.1c0.8,0.1,1.6,0.1,2.4,0.2c0.7,0.1,1.5,0.1,2.2,0.1
			c0.2,0,0.4,0,0.6,0c1.2,0,2.3,0,3.4-0.2l0.4,0c0.7-0.1,1.4-0.1,2.2-0.2l0.2,0l-0.2,0l0.7,0c0.4,0,0.9-0.1,1.3-0.1
			c0.8,0,1.5-0.1,2.3-0.1l1.6,0h1.1h0.6c0.5,0,1.1,0,1.6,0h0.1c0.5,0,0.9,0,1.4,0c0.5,0,1,0,1.5,0c0.9,0,1.8,0,2.6-0.1
			c0.8,0,1.6-0.1,2.4-0.1c0.7,0,1.3-0.1,2.2-0.2c0.2,0,0.4,0,0.5-0.1c0.2,0,0.5-0.1,0.7-0.1c0.5,0,0.9-0.1,1.4-0.1
			c2.4-0.2,4.9-0.3,7.4-0.3c0.5,0,1,0,1.5,0h3.3c1.1,0,2.2,0,3.3,0c0.6,0,1.3,0,2,0l0.9,0c0.5,0,1,0,1.4,0c0.8,0,1.5,0,2.3,0
			c0.9,0,1.8,0,2.7,0l1,0c0.7,0,1.3,0,2,0c0.5,0,0.9,0,1.4,0l1.4,0c0.8,0,1.6,0,2.4,0.1s1.6,0.1,2.4,0.1c0.9,0,1.7,0,2.6,0
			c0.6,0,1.3,0,1.9,0c0.9,0,1.8,0,2.6,0c0.8,0,1.6,0,2.4,0c0.6,0,1.3,0,1.9,0h1.5c0.4,0,0.8,0,1.2,0c0.6,0,1.2,0,1.8,0l1,0
			c1.1,0,2.1,0,3,0h0.3c0.9,0,1.8,0,2.8,0c1,0,2.1,0,3.1-0.1c0.8,0,1.7,0,2.5-0.1c1,0,2-0.1,3.1-0.1h0.3c0.7,0,1.5,0,2.2-0.1
			c0.9,0,1.8-0.1,2.6-0.1c0.5,0,1-0.1,1.6-0.1l2.3-0.1c0.6,0,1.3-0.1,1.9-0.1c0.3,0,0.6,0,0.9,0c0.4,0,0.8,0,1.2,0h0
			c0.6,0,1.2,0,1.8,0.1c0.5,0.1,1,0.1,1.5,0.2l0.2,0l0.2,0c0.2,0,0.5,0.1,0.7,0.1c0.3,0,0.7,0.1,1.1,0.1c0.3,0,0.7,0,1,0.1
			c0.1,0,0.3,0,0.4,0c0.3,0,0.6,0,0.9,0c0.5,0,1-0.1,1.4-0.1c0.3,0,0.6-0.1,0.9-0.1c0.4,0,0.8,0,1.2,0c0.6,0,1.2,0,1.8,0l0.9,0
			c0.6,0,1.3,0,2,0c0.3,0,0.6,0,0.9,0h0.5c0.8,0,1.5,0,2.3,0h0.2c0.8,0,1.6,0,2.4,0h0.1c0.9,0,1.7,0,2.6,0c0.3,0,0.5,0,0.8,0l0.4,0
			l0.6,0c0.3,0,0.6,0,0.9,0c0.4,0,0.9,0,1.3-0.1c0.6,0,1.1-0.1,1.7-0.1c0.9,0,1.8,0,2.7,0h0.2c1,0,2,0,3,0.1c0.4,0,0.8,0,1.2,0.1
			c0.6,0,1.2,0.1,1.8,0.1c0.8,0,1.7,0.1,2.7,0.1c0.8,0,1.7,0.1,2.5,0.2c0.4,0,0.9,0.1,1.3,0.1l0.6,0.1c0.4,0,0.8,0.1,1.2,0.1
			c0.3,0,0.7,0.1,1,0.1c0.4,0,0.8,0.1,1.2,0.1c0.2,0,0.5,0.1,0.8,0.1c0.6,0.1,1.2,0.1,1.9,0.2c0.3,0,0.6,0,0.8,0
			c0.5,0,0.9,0,1.3-0.1c0.7-0.1,1.4-0.1,2.1-0.2l0.2,0c1.7-0.2,3.6-0.4,5.4-0.6c0.4,0,0.8,0,1.3-0.1c0.3,0,0.6,0,1,0l0.5,0
			c0.6,0,1.3,0,2,0h0.4c0.9,0,1.8,0.1,2.7,0.1c0.8,0,1.7,0.1,2.5,0.1c0.7,0,1.5,0,2.2,0.1c0.7,0,1.3,0.1,2.2,0.1
			c0.8,0.1,1.5,0.1,2.3,0.1c0.7,0,1.5,0.1,2.3,0.1c0.7,0,1.4,0,2,0h1c0.4,0,0.8,0,1.2,0s0.8,0,1.2,0h0.7l-0.2,0l0.6,0h0.6l0.9,0
			l0.6,0h-0.1l0.7,0c1.2,0,2.4,0,3.5,0c1.7,0,3.3,0,5,0c0.8,0,1.5,0,2.2,0h0.2c0.8,0,1.6,0,2.2,0c0.7,0,1.4,0,2.1-0.1
			c0.6,0,1.2-0.1,1.7-0.1c0.2,0,0.4,0,0.6,0s0.4,0,0.6,0c0.5,0,1-0.1,1.5-0.1l0.2,0l-0.1,0c1.2-0.1,2.4-0.1,3.6-0.2h0.1
			c0.6,0,1.1,0,1.7-0.1c0.5,0,1.1-0.1,1.6-0.1l0.3,0l0.2,0c1.2-0.1,2.4-0.2,3.5-0.3c0.6-0.1,1.2-0.2,1.7-0.3l0.3,0
			c0.4-0.1,0.9-0.2,1.3-0.2c0.6-0.1,1.2-0.2,1.7-0.2c0.5-0.1,1-0.1,1.6-0.2c1.1-0.1,2.2-0.3,3.2-0.5c0.5-0.1,1-0.2,1.4-0.3
			s0.9-0.2,1.4-0.3l0.3-0.1c0.8-0.2,1.7-0.3,2.6-0.5c0.9-0.1,1.9-0.2,2.9-0.3l0.4,0c0.4,0,0.7-0.1,1.1-0.1c0.2,0,0.4-0.1,0.6-0.1
			c0.7-0.1,1.4-0.1,2.1-0.2c0.4,0,0.7-0.1,1.1-0.1c0.4,0,0.8-0.1,1.2-0.2c0.7-0.1,1.4-0.3,2-0.6c0.1-0.1,0.3-0.2,0.4-0.2l0.2-0.1
			c0.2-0.1,0.4-0.2,0.6-0.3l0.3-0.2c0.1-0.1,0.3-0.1,0.4-0.2c0.2-0.1,0.4-0.2,0.6-0.3c0.5-0.2,0.9-0.4,1.5-0.5
			c0.5-0.2,1.1-0.4,1.7-0.5c0.6-0.1,1.2-0.3,1.8-0.4c0.7-0.2,1.3-0.3,2-0.4c0.4-0.1,0.7-0.1,1.1-0.2s0.7-0.1,1.1-0.2l0.1,0
			c0.6-0.1,1.2-0.2,1.8-0.3c0.7-0.1,1.4-0.2,2.2-0.2H764c0.5,0,1-0.1,1.4-0.1c0.4,0,0.9-0.1,1.3-0.1l0.4,0c0.3,0,0.7-0.1,1-0.1
			c0.6-0.1,1.1-0.1,1.5-0.2c0.6-0.1,1.2-0.2,1.8-0.4l0.3-0.1c0.8-0.2,1.6-0.4,2.3-0.6c0.4-0.1,0.8-0.2,1.2-0.4
			c0.3-0.1,0.6-0.3,0.9-0.4l0.1-0.1l0.4-0.2c0.5-0.3,1-0.5,1.4-0.8c0.1-0.1,0.3-0.2,0.4-0.3c0.1-0.1,0.3-0.1,0.4-0.2
			c0.2-0.1,0.5-0.3,0.7-0.5c0.2-0.2,0.5-0.4,0.6-0.6c0.2-0.2,0.3-0.4,0.5-0.5c0.2-0.2,0.4-0.4,0.6-0.6c0.2-0.1,0.3-0.3,0.5-0.4
			c0.2-0.1,0.4-0.2,0.6-0.3c0.4-0.2,0.8-0.3,1.2-0.4l0.5-0.1c0.3-0.1,0.5-0.2,0.8-0.3c0.4-0.1,0.7-0.3,1-0.6l0,0
			c0,0,0.1-0.1,0.1-0.2l0.1-0.1c0.1-0.1,0.1-0.2,0.2-0.2c0.3-0.2,0.6-0.4,0.9-0.6c0.4-0.2,0.9-0.5,1.3-0.7c0.4-0.2,0.8-0.4,1.2-0.6
			c0.4-0.2,0.8-0.4,1.2-0.6c0.4-0.2,0.7-0.4,1-0.6c0.2-0.1,0.3-0.2,0.5-0.4c0.1-0.1,0.2-0.2,0.2-0.3c0.1-0.2,0.2-0.5,0.1-0.8
			c0-0.1-0.1-0.3-0.2-0.4l0-0.1c-0.1-0.1-0.1-0.2-0.2-0.3c-0.4-0.5-0.9-1-1.3-1.6v0c0-0.1-0.1-0.1-0.1-0.2c-0.1-0.2-0.2-0.4-0.2-0.7
			c0-0.2,0.1-0.4,0.2-0.5c0.2-0.2,0.4-0.5,0.6-0.6l0,0c0.3-0.2,0.6-0.5,0.9-0.7l0.3-0.2l0.2-0.1l0.2-0.1c0.1-0.1,0.2-0.2,0.4-0.2
			c0.3-0.2,0.6-0.5,0.8-0.7c0.1-0.2,0.3-0.5,0.3-0.7c0.1-0.3,0.2-0.5,0.2-0.8c0-0.2,0-0.5-0.1-0.7l0-0.1c0-0.1,0-0.3-0.1-0.4
			c0-0.1,0-0.2,0-0.3c0-0.2-0.1-0.3-0.1-0.5l-0.1-0.2c0-0.2-0.1-0.4-0.1-0.6c0-0.1,0-0.3,0-0.4l0-0.2c0-0.4,0-0.8,0-1.2v0
			c0-0.3,0-0.5,0-0.8c0-0.1,0-0.2,0-0.4v-0.1c0-0.2,0-0.4,0-0.5l0-0.2c0-0.1,0-0.3-0.1-0.4c-0.1-0.4-0.1-0.8-0.1-1.2v-0.1
			c0-0.4,0-0.8,0-1.1c0-0.2,0-0.4,0-0.6v-0.1l0-0.1c0-0.1,0-0.1,0-0.2s0-0.1,0-0.2s0-0.1,0-0.2s0-0.1,0-0.2l0-0.1c0-0.1,0-0.1,0-0.2
			s0-0.1,0-0.2c0-0.2-0.1-0.3-0.1-0.5l-0.1-0.3c0-0.2-0.1-0.4-0.1-0.6l0-0.2l0-0.1c0-0.2-0.1-0.4-0.2-0.6l-0.1-0.2
			c-0.2-0.4-0.3-0.9-0.4-1.3l-0.1-0.3c0-0.1,0-0.2-0.1-0.4V180c0-0.1,0-0.1,0-0.2l0-0.1c0-0.1,0-0.1-0.1-0.2c0-0.1,0-0.1,0-0.2v-0.1
			l0-0.1c0-0.1,0-0.2,0-0.2c0-0.1-0.1-0.2-0.1-0.3l0-0.1l0-0.1c-0.1-0.2-0.2-0.4-0.3-0.6c0.2,0,0.3-0.1,0.4-0.2
			c0.1-0.1,0.2-0.2,0.3-0.4c0.1-0.1,0.1-0.3,0-0.4c-0.1-0.1-0.2-0.2-0.4-0.3l-0.1-0.1l-0.1-0.1c-0.3-0.1-0.5-0.3-0.7-0.4
			c-0.1-0.1-0.3-0.2-0.4-0.4c0,0-0.1-0.1-0.2-0.1c-0.1-0.1-0.2-0.2-0.3-0.3v0c0,0,0.1-0.1,0.1-0.1c0.2-0.1,0.3-0.2,0.5-0.3
			c0.1-0.1,0.3-0.1,0.5-0.2c0.1,0,0.3-0.1,0.4-0.1l0.3-0.1c0.5-0.1,1-0.4,1.4-0.7c0.1-0.1,0.3-0.2,0.4-0.3c0.1-0.1,0.2-0.3,0.3-0.5
			c0.1-0.3-0.1-0.7-0.3-0.9c-0.1-0.1-0.1-0.1-0.1-0.2c0,0-0.1-0.1-0.1-0.1s-0.1-0.1-0.1-0.2s-0.1-0.1-0.1-0.2
			c-0.2-0.3-0.5-0.5-0.8-0.7l-0.1-0.1c-0.2-0.1-0.3-0.2-0.5-0.3c-0.2-0.1-0.4-0.2-0.5-0.3c-0.1-0.1-0.2-0.1-0.3-0.2
			c-0.2-0.1-0.5-0.2-0.7-0.4c-0.1-0.1-0.2-0.2-0.3-0.3c0-0.1-0.1-0.2,0-0.3l0-0.1c0,0,0.1-0.1,0.1-0.1l0,0l0-0.1
			c0.1-0.1,0.1-0.2,0.1-0.4c0-0.2-0.2-0.4-0.5-0.5c-0.6-0.3-1.2-0.5-1.8-0.6l-0.2,0c-0.6-0.2-1.2-0.3-1.8-0.5
			c-0.2,0-0.4-0.1-0.7-0.1l-0.2,0l-0.2,0l-0.5-0.1l-0.2,0l-0.2,0c-0.1,0-0.1-0.1-0.2-0.2c0-0.1-0.1-0.1-0.1-0.2l-0.1-0.1
			c-0.1-0.1-0.1-0.1-0.2-0.2c-0.1-0.1-0.2-0.2-0.2-0.3c0-0.1-0.1-0.3,0-0.4c0,0,0,0,0-0.1c0.4-0.2,0.7-0.4,1.1-0.6
			c0.2-0.1,0.3-0.2,0.5-0.3c0.3-0.2,0.7-0.4,1-0.5l0.4-0.1c0.3-0.1,0.5-0.2,0.8-0.3c0.4-0.2,0.8-0.3,1.1-0.5
			c0.3-0.1,0.5-0.3,0.7-0.4c0.2-0.1,0.5-0.3,0.6-0.5c0.1-0.1,0.1-0.3,0.2-0.5l0-0.1c0-0.2,0-0.4,0-0.5c0-0.1-0.1-0.3-0.2-0.4
			c-0.3-0.3-0.7-0.4-1.1-0.5c-0.2-0.1-0.4-0.1-0.6-0.1l-0.1,0c-0.3-0.1-0.5-0.1-0.8-0.2c-0.2,0-0.4-0.1-0.6-0.1l-0.2,0
			c-0.2,0-0.4-0.1-0.5-0.1l-0.2,0c-0.1,0-0.3,0-0.4-0.1c-0.1,0-0.1,0-0.2,0c-0.1,0-0.2,0-0.3-0.1l-0.1,0c-0.1-0.1-0.1-0.1-0.2-0.2
			c0-0.1,0-0.1,0-0.2c0.3-0.4,0.6-0.8,1.1-1c0.3-0.2,0.5-0.4,0.7-0.6c0.3-0.2,0.5-0.5,0.9-0.7l0,0c0.1-0.1,0.3-0.2,0.4-0.2
			c0.2-0.1,0.4-0.2,0.6-0.3c0.3-0.1,0.6-0.2,0.9-0.3c0.2-0.1,0.4-0.1,0.6-0.2l0.5-0.1c0.3-0.1,0.7-0.2,1-0.4
			c0.1-0.1,0.3-0.1,0.4-0.2s0.3-0.1,0.4-0.2c0.3-0.1,0.6-0.3,0.9-0.5c0.3-0.2,0.5-0.4,0.7-0.7c0.3-0.3,0.5-0.6,0.6-1
			c0,0,0-0.1,0.1-0.1c0-0.1,0.1-0.1,0.1-0.2c0-0.1,0.1-0.1,0.1-0.2c0-0.1,0.1-0.2,0.1-0.2c0-0.1,0-0.2-0.1-0.3c0-0.1,0-0.1,0-0.2
			c0-0.1,0-0.2-0.1-0.3l0-0.1c-0.1-0.1-0.2-0.2-0.3-0.3c-0.1-0.1-0.1-0.1-0.2-0.2c0,0,0-0.1,0-0.1v-0.2c0-0.1,0-0.1,0-0.2
			c0,0,0-0.1,0-0.1c0.1-0.2,0.3-0.3,0.5-0.4l0,0l0.1,0l0.1-0.1c0.1-0.1,0.3-0.2,0.5-0.3c0.4-0.2,0.8-0.5,1.1-0.9
			c0.1-0.1,0.1-0.2,0.1-0.3c0-0.2,0-0.3-0.1-0.4c-0.1-0.1-0.2-0.2-0.3-0.2l-0.1-0.1l-0.1-0.1c-0.1-0.1-0.2-0.1-0.3-0.2
			c-0.4-0.3-0.7-0.6-0.9-1l0,0.1c-0.1-0.2-0.2-0.4-0.3-0.6l-0.1-0.1l0-0.1c-0.1-0.1-0.1-0.3-0.2-0.4c-0.1-0.2-0.2-0.4-0.3-0.6
			c-0.1-0.2-0.1-0.4,0-0.6c0.1-0.2,0.1-0.4,0-0.6l0-0.2c0-0.1-0.1-0.2-0.1-0.4l0-0.2c0-0.2-0.1-0.4-0.1-0.6
			c-0.1-0.2-0.1-0.3-0.1-0.5l0-0.2l0-0.2c-0.1-0.2-0.1-0.4-0.1-0.6c0-0.4,0.1-0.8,0.2-1.2l0.1-0.3c0-0.1,0.1-0.3,0.1-0.4
			c0-0.1,0.1-0.2,0.1-0.3c0.1-0.2,0.1-0.5,0-0.7l-0.1-0.3c-0.1-0.4-0.2-0.8-0.2-1.2c0-0.3,0-0.6,0-0.9l0-0.3c0-0.2,0-0.3,0-0.5
			c0-0.3,0.1-0.5,0.2-0.8c0-0.1,0.1-0.3,0.1-0.4c0.1-0.1,0.1-0.3,0.1-0.4c0.1-0.2,0.1-0.4,0.1-0.7v-0.1c0-0.1,0.1-0.3,0.1-0.4
			c0-0.1,0.1-0.2,0.1-0.3c0-0.3,0-0.7-0.1-1c0-0.1-0.1-0.3-0.1-0.4c0-0.1,0-0.2,0-0.3c0-0.1,0-0.2,0-0.4c0-0.1,0-0.1-0.1-0.2
			c0-0.1-0.1-0.2-0.1-0.3c0-0.2,0-0.4,0.1-0.5c0.1-0.2,0.1-0.4,0.2-0.6c0-0.1,0.1-0.1,0.1-0.2c0.1-0.1,0.1-0.2,0.2-0.3
			c0.1-0.2,0.1-0.4,0-0.6c-0.2-0.3-0.5-0.5-0.8-0.6c-0.4-0.2-0.8-0.3-1.2-0.5l-0.1,0c-0.2-0.1-0.5-0.2-0.7-0.3
			c-0.1,0-0.2-0.1-0.3-0.1c-0.3-0.2-0.5-0.3-0.7-0.4c-0.1-0.1-0.2-0.2-0.3-0.3c0-0.1,0-0.3,0-0.4l0-0.1c0-0.1,0-0.1,0-0.2
			c0-0.1,0-0.2,0-0.3c0,0,0-0.1,0-0.1l0-0.1l0.1-0.1c0.1-0.2,0.2-0.4,0.3-0.6c0-0.1,0-0.2,0-0.3c0-0.1,0-0.3,0.1-0.4
			c0.1-0.2,0.2-0.3,0.3-0.4c0.1,0,0.1-0.1,0.2-0.1c0.4-0.1,0.8-0.3,1.1-0.4c1-0.4,1.6-0.8,1.7-1.2v0c0-0.1,0-0.2,0-0.2
			c0-0.1-0.1-0.2-0.2-0.3c-0.2-0.1-0.3-0.2-0.5-0.3l-0.1-0.1c-0.4-0.2-0.8-0.3-1.2-0.5c-0.1-0.1-0.2-0.1-0.2-0.2
			c-0.1-0.1-0.2-0.1-0.3-0.2l-0.1,0c0,0-0.1-0.1-0.1-0.1c0-0.1-0.1-0.2-0.1-0.2c0-0.1,0-0.2,0-0.2c0.2-0.3,0.4-0.5,0.6-0.8
			c0.3-0.2,0.6-0.5,0.9-0.7l0,0c0.3-0.2,0.6-0.5,0.8-0.8c0.2-0.3,0.3-0.6,0.3-0.9c0.1-0.6,0.1-1.1,0-1.7c-0.2-0.6-0.2-1.2,0-1.8
			c0.1-0.2,0.2-0.4,0.3-0.6c0-0.1,0.1-0.2,0.1-0.3c0.1-0.2,0.2-0.3,0.3-0.5l0.1-0.2c0.3-0.4,0.5-0.8,0.6-1.3c0-0.1,0-0.1,0-0.2
			c0-0.1,0-0.3,0.1-0.4c0.1-0.2,0.1-0.5,0.2-0.7c0-0.2,0-0.4-0.1-0.6c-0.1-0.3-0.1-0.5-0.1-0.8c0-0.1,0-0.2,0.1-0.3
			c0-0.2,0.1-0.3,0.1-0.5c0-0.2,0-0.4,0-0.6c0-0.1,0-0.2,0-0.3c0-0.3,0-0.5,0.1-0.8c0-0.3,0-0.6,0-0.9l-0.1-0.2
			c0-0.2-0.1-0.4-0.1-0.5l0-0.2c0-0.2,0-0.4-0.1-0.6c0-0.3-0.1-0.6-0.1-0.9c0-0.2,0-0.4-0.1-0.7c0-0.2-0.1-0.4-0.2-0.6l-0.1-0.1
			c0-0.1-0.1-0.2-0.1-0.3c-0.1-0.1-0.1-0.3-0.2-0.4c-0.1-0.2-0.2-0.4-0.4-0.6c-0.2-0.2-0.3-0.4-0.5-0.6l-0.1-0.1
			c-0.2-0.2-0.4-0.4-0.6-0.7c-0.2-0.2-0.4-0.5-0.6-0.7c-0.1-0.1-0.3-0.3-0.5-0.4c-0.1-0.1-0.3-0.2-0.4-0.3c-0.1-0.1-0.1-0.1-0.2-0.2
			s-0.1-0.1-0.2-0.1c-0.1-0.1-0.3-0.2-0.4-0.3l-0.1-0.1c-0.1-0.1-0.3-0.2-0.4-0.2l-0.1,0c-0.2-0.1-0.4-0.2-0.6-0.2l-0.1,0
			c-0.4-0.1-0.8-0.2-1.3-0.3l-0.1,0c-0.1,0-0.2-0.1-0.3-0.1c-0.1,0-0.2-0.1-0.2-0.1c-0.1-0.1-0.1-0.1-0.2-0.2
			c-0.1-0.2-0.1-0.3-0.1-0.5l0-0.2c0-0.1-0.1-0.3-0.1-0.4s-0.1-0.3-0.1-0.4c-0.1-0.2-0.1-0.4-0.2-0.6c-0.1,0-0.2-0.1-0.3-0.1l0,0
			c-0.2,0.1-0.4,0.1-0.6,0.1c-0.2,0-0.3,0-0.5,0c-0.2,0.2-0.5,0.2-0.7,0.3c-0.2,0-0.3,0-0.5,0c0,0.1-0.1,0.1-0.1,0.2
			c-0.1,0.2-0.2,0.4-0.3,0.6l-0.2,0.3c-0.1,0.2-0.1,0.3-0.3,0.4c-0.2,0.1-0.4,0.2-0.6,0.2c-0.2,0-0.4,0-0.6,0c-0.2,0-0.5,0-0.7-0.1
			c-0.1,0-0.2,0-0.3-0.1l0,0c-0.4,0.1-0.8,0.1-1.2,0.1c-0.3,0-0.5-0.1-0.8-0.2c-0.1,0-0.2-0.1-0.2-0.2c-0.1-0.1-0.2-0.1-0.3-0.2
			c-0.1-0.1-0.2-0.2-0.3-0.3c-0.1-0.1-0.2-0.3-0.3-0.5c-0.1-0.1-0.1-0.2-0.1-0.3c-0.1,0-0.1,0-0.2,0.1l-0.3,0.1
			c-0.3,0-0.6,0.1-0.9,0c-0.5,0-0.9-0.2-1.2-0.5c-0.1-0.1-0.2-0.2-0.3-0.2l-0.1,0c-0.1,0-0.3,0-0.4,0.1c-0.4,0-0.9,0-1.3,0
			c-0.2,0-0.4,0-0.6-0.1c-0.2,0-0.4,0-0.6,0c-0.7-0.1-1-0.3-0.8-0.4c0.4-0.2,0.9-0.3,1.4-0.2l0.1,0c0.1,0,0.3,0,0.4,0s0.3,0,0.4,0
			c0,0,0.1,0,0.1,0c0.1,0,0.1,0,0.2-0.1c0.2,0,0.4-0.1,0.6-0.1c0.5-0.1,0.9-0.1,1.4-0.1c0.3,0,0.5,0.1,0.8,0.2c0,0,0.1-0.1,0.1-0.1
			c0.1-0.1,0.1-0.1,0.2-0.2c0.1-0.1,0.3-0.2,0.4-0.2c0.2-0.1,0.5-0.1,0.7-0.1c0.4,0,0.8,0,1.1,0.1c0.4,0.2,0.6,0.3,0.6,0.5l0.1,0.2
			c0.1-0.4,0.2-0.8,0.3-1.2c0-0.2,0.5-0.3,1.2-0.3c0.7,0,1.2,0.2,1.2,0.4c0,0.2,0,0.5,0,0.7V88c0.1,0,0.2,0,0.3-0.1
			c0.3,0,0.6-0.1,0.9,0l0.2-0.2c0,0,0-0.1,0-0.1c0,0,0-0.1,0-0.1c0-0.1,0-0.1,0.1-0.2c0.2-0.1,0.4-0.2,0.6-0.2c0.3,0,0.6-0.1,0.9,0
			c0.1,0,0.2,0,0.4,0.1c0-0.1,0-0.2,0-0.2l0-0.2c-0.1-0.4,0-0.7,0.1-1.1c0.1-0.3,0.3-0.6,0.4-0.9c0.3-0.5,0.5-1.1,0.7-1.6
			c0.1-0.2,0.2-0.5,0.4-0.7c0.1-0.2,0.2-0.4,0.3-0.6l0.1-0.1c0.1-0.3,0.3-0.5,0.5-0.7c0.2-0.3,0.5-0.5,0.8-0.8
			c0.3-0.2,0.7-0.4,1.1-0.6c0.3-0.1,0.6-0.2,0.9-0.3c0.3-0.1,0.7-0.2,1-0.3c0.5-0.2,0.9-0.4,1.3-0.8c0.1-0.1,0.1-0.2,0.2-0.3
			c0-0.1,0.1-0.1,0.1-0.2c0.1-0.1,0.2-0.3,0.4-0.4l0,0c0.3-0.3,0.6-0.6,0.8-1c0.2-0.4,0.4-0.8,0.5-1.3c0-0.4,0-0.8-0.1-1.2
			c-0.1-0.2-0.1-0.4-0.1-0.7c0-0.2,0-0.3-0.1-0.5c0-0.2-0.1-0.4-0.1-0.6l-0.1-0.3c0-0.3,0-0.7,0.2-1c0.4-0.6,0.8-1.1,1.4-1.5
			c0.2-0.2,0.4-0.4,0.6-0.7c0.2-0.2,0.3-0.5,0.3-0.8c0-0.2,0-0.5-0.1-0.7c-0.1-0.3-0.3-0.6-0.5-0.8c-0.1-0.2-0.3-0.3-0.4-0.5
			c-0.1-0.1-0.2-0.2-0.3-0.3c-0.2-0.3-0.4-0.5-0.6-0.8c0-0.1-0.1-0.2-0.1-0.3s-0.1-0.2-0.1-0.3c-0.1-0.2-0.1-0.4-0.2-0.7
			c0-0.2,0-0.3,0-0.5l0-0.2v-0.2c0-0.2,0-0.4,0-0.6c0-0.4,0-0.9-0.1-1.3l0-0.2c0-0.4,0-0.8,0.1-1.2l0-0.2c0.1-0.5,0.1-1,0.1-1.5
			c0-0.2,0-0.3,0-0.5l0-0.1c0-0.1,0-0.3,0.1-0.4c0-0.1,0.1-0.2,0.1-0.3c0-0.2,0.1-0.5,0.1-0.7c0-0.3,0-0.6,0-0.8s0.1-0.6,0.1-0.8
			s0.1-0.6,0.1-0.8c0-0.2,0-0.4,0-0.6V52c0-0.2,0-0.5,0.1-0.7c0-0.2,0.1-0.5,0.1-0.7c0-0.2,0-0.3,0.1-0.5c0-0.1,0-0.2,0-0.3
			c0.1-0.4,0.2-0.9,0.3-1.3l0-0.1c0-0.1,0.1-0.2,0.1-0.4c0-0.1,0-0.2,0.1-0.2l0.1-0.3c0-0.1,0.1-0.3,0.1-0.4c0-0.2,0.1-0.3,0.1-0.5
			c0.1-0.3,0.1-0.5,0.2-0.8c0.1-0.5,0-1-0.1-1.4l0-0.2c0-0.2-0.1-0.3-0.1-0.5c0-0.1,0-0.3,0-0.4l0-0.2V43c0-0.4,0-0.8,0.2-1.2
			c0.1-0.2,0.2-0.3,0.3-0.5l0.1-0.1c0.1-0.1,0.2-0.2,0.2-0.3c0.2-0.4,0.4-0.8,0.4-1.2c0-0.2,0.1-0.4,0.1-0.7c0-0.2,0.1-0.4,0.1-0.6
			c0.1-0.4,0.2-0.7,0.3-1c0.1-0.2,0.2-0.5,0.2-0.8c0-0.3,0-0.6-0.2-0.9C798.6,35.1,798.6,34.4,798.9,33.9z M688.8,188.2
			c-1.1,0.3-2.2,0.4-3.4,0.4c-0.5,0-0.9,0-1.4-0.1c-0.5-0.1-1-0.1-1.4-0.2l-0.3-0.1l-0.2,0l-0.3,0.1l0.2,0l-0.7,0.3
			c-0.7,0.3-1.4,0.6-2.2,0.8c-1.2,0.4-2.4,0.7-3.6,0.9c-0.9,0.2-1.8,0.3-2.7,0.3c-0.7,0-1.4-0.1-2-0.3c-0.5-0.1-0.8-0.3-0.8-0.5
			c0,0,0,0,0-0.1c0-0.2,0.2-0.3,0.5-0.5c0.2-0.1,0.5-0.2,0.7-0.3c0.3-0.1,0.5-0.1,0.8-0.2l0.4-0.1c0.3-0.1,0.6-0.1,0.9-0.2
			c0.2-0.1,0.3-0.1,0.5-0.2c0.5-0.2,1-0.4,1.5-0.7c0.6-0.3,1.2-0.6,1.8-0.8c0.6-0.2,1.3-0.4,1.8-0.6l0.7-0.2
			c0.1-0.1,0.2-0.1,0.3-0.2c0.2-0.2,0.4-0.3,0.5-0.5c0.2-0.2,0.3-0.4,0.5-0.6c0.4-0.4,0.9-0.6,1.4-0.8c0.5-0.2,1-0.3,1.6-0.4
			c0.4-0.1,0.8-0.1,1.2-0.1c0.3,0,0.5,0,0.8,0c0.4,0,0.8,0.1,1.2,0.2c0.2,0.1,0.4,0.1,0.6,0.3l0.1,0.1c0.1,0.1,0.2,0.2,0.3,0.3
			c0.1,0.1,0.1,0.2,0.2,0.3l0.1,0.1c0.1,0.1,0.2,0.2,0.3,0.3c0.2,0.3,0.3,0.6,0.4,0.9c0,0.1,0,0.2,0,0.3l0,0.2
			c0.1,0.1,0.2,0.2,0.4,0.3l0.1,0.1c0.2,0.1,0.3,0.3,0.3,0.5C690,187.6,689.6,187.9,688.8,188.2z M724.8,166.5
			c-0.4,0.2-0.9,0.4-1.3,0.5c-1,0.3-2,0.5-3.2,0.7c-0.1,0-0.2,0-0.3,0.1l-1,0.2l-0.3,0.1c-0.2,0-0.4,0.1-0.6,0.1l-0.2,0
			c-0.9,0.2-1.8,0.4-2.7,0.5l-0.9,0.3l-0.9,0.2c-0.3,0.1-0.6,0.2-0.9,0.3l-0.9,0.3c-1.2,0.5-2.5,0.9-3.8,1.3l-1.5,0.4
			c-1.3,0.3-2.7,0.7-3.9,1.1c-0.8,0.2-1.8,0.6-2.9,0.8l-0.9,0.3c-0.3,0.1-0.7,0.3-1,0.4c-0.7,0.3-1.4,0.6-2.2,0.9
			c-0.8,0.3-1.7,0.5-2.5,0.6c-0.9,0.2-1.8,0.3-2.7,0.3c-0.8,0.1-1.6,0.1-2.5,0.1c-0.3,0-0.6,0-0.9,0c-0.5,0-1,0-1.5,0l-0.4,0
			c-0.6,0-1.1,0-1.6-0.1c-0.8-0.1-1.7-0.2-2.5-0.4c-0.8-0.2-1.3-0.5-1.4-0.8l0-0.1c-0.2-0.1-0.3-0.2-0.4-0.4c0,0,0-0.1,0-0.1
			c0,0,0-0.1,0-0.1c0-0.2,0.2-0.4,0.7-0.6l0.4-0.2c0.2-0.2,0.4-0.3,0.7-0.5c0.5-0.3,1-0.5,1.5-0.7c0.8-0.3,1.6-0.6,2.5-0.8
			c0.6-0.2,1.3-0.3,2-0.4l0.4-0.1c0.6-0.1,1.2-0.3,1.9-0.4c1.2-0.3,2.6-0.6,3.9-0.8c0.9-0.2,1.9-0.3,2.8-0.5
			c1.2-0.2,2.4-0.4,3.6-0.6c1-0.2,2.1-0.3,3.2-0.5c0.9-0.1,1.8-0.2,2.6-0.4l0.5-0.1l0.5-0.1c0.3-0.1,0.5-0.2,0.8-0.3
			c0.2-0.1,0.5-0.1,0.7-0.2c0.2,0,0.3-0.1,0.5-0.1l0.9-0.3l0.5-0.2c0.6-0.2,1.3-0.5,2-0.7c0.8-0.2,1.8-0.4,2.7-0.6l0.3-0.1
			c1-0.3,2.1-0.5,3.2-0.6c0.5,0,0.9-0.1,1.4-0.1c0.8,0,1.5,0,2.3,0.1c1,0.1,2.1,0.2,3.1,0.5C725.6,165.4,725.8,166,724.8,166.5
			L724.8,166.5z"/>
	</g>
</g>
</svg>
