<svg xmlns="http://www.w3.org/2000/svg" viewBox="0 0 592.1 181.6" xmlns:v="https://vecta.io/nano"><path d="M588.8 168.5c-1.2-2.6-.8.2-2.8-2.8 1.6 3.6-7.5-.6-5.6 2.6-1.9-2.9-3.8-1.5-6.4-4.5 0 .8.9 1.6-1.7 1-.2.2-.4.5-.7.7-.1 0-.1 0-.2-.1l.1.1c-.1.1-.1.1.1 0 .5.3 1 .8 1.3 1.4-1.5 1.7-5.8 1.2-7.3 2.1-1.6-.5.8-.9 0-1.8l-2.3 1.2c0-1.8-4-3.4-.1-4.1l-3.4-.4c-1.9-1.2-4.6-1.8-6.4-1.2-1.6-.5-4.2 1.6-2.7.3l-5.4.7v-.5c-5.2-.7-11 2.1-16.8-1.6-2.2.5-4.4.5-6.6 0l-.5-1.6c-2.3.4-6.7-2.1-7.8-.5-2.2-4.4-11-1.7-14.9-2.7l-.3 2c-3-.2-6 0-8.9.7l.1 1.8c-3 1.3-7.5-1.7-12.2-1.8.4-.7 1.5-.4 2.3 0-5.3-4.4-11.9 2.3-16.8-1-1 .5-2.1.4-3.1-.2.1 0 .2 0 .3-.1h-.5c-.5-.3-1.1-.7-1.7-1 .4.4.9.8 1.4 1-1.3 0-2.6.2-3.9.5l-.5-2h-.3c-1.4-.8-1.2.9-.5 2.3-.7.2-1.4.6-2 1.1-1-3.2-3.8.9-5.2-2.5-1 1.5-6.4 1-7.9 3.6-1.6-.5-3.2-.9-4.6 0l-.6-2.5-3.6 3.1c-2.1-1.6-2.9-2.5-.7-4.3-5.2 2.7-4.2.9-8.7 3.6l.3-1.6c-1.6 0-4.1 2-5 .7-3.4-3.2-17.2-1-26-4 1.6 4.7-4.1-2.2-4.5 1.4-.5-1.1-1.7-1.8-.3-2.7-4.6 1-6.8-1.9-10 1.1-.5-1.1 1-1.6.6-2.3-.4.2-1.5.9-1.9.3s.7-.9 1.4-1.4c-4.7.1-5.2 3.5-5.6 6.7-2.3-1.6-3.5-1.4-5.2.7-.8-1.1-2.2-2.2.7-2.5-1.6-.2-9.9-1.6-10.1.9-.5-.7-2.3-.2-2.7.1-2.5-.3-5-.3-7.6-.2l1 .4c-1.4 3.1-3 .7-5.9 1l.1-.3c-6.6-2.3-2.9 1-9.4-1.5l.4 1.9c-.6 4.1-5.8-2.4-9.6-.8l1.4 1.1c-2.1 1.4-5.8-5.6-7.9-6.1-.5-.4.7-.6 1.3-.8-5.5-2.4-.7 2.5-4.8 3.1-.8-1.4 1-3.4-1.8-3.7-1.4-1.1-7.9 4.5-11.7 1.9.8 1 1.7 2.1-.2 2.9-2.9.4-7.9-3.9-10.4-.5-.3-.2-.5-.5-.5-.8-2.2.9-7.2 1.5-8.5 3.3-2.2-6.6-13.7 3.5-13.7-2.6l-6.8.5.2-.6c-4.4-.3-5.9 1.2-7.3 2.7-1-.4-.3-1-.2-1.3-6.4-1-7-.8-12.2 2.4l-.6-2c-1.4 1.2-9.3-2.8-15.4-.2.1-.4.3-.7.6-.9-6.9 2.6-17-4.8-19.3 2.5l-4.5 2c6 .3-.7 3.2 1.8 4.2-2.3.5-6.2-1.9-3.3-2.4l.5.3c.9-3.8-7.5-1-7.5-3.5-11.8.7-23.3-.6-34.4-.1l1.5 2.8-3.8.1c-1.1-.6-1.5-2.2 1.2-2.3-1.5-1.6-4.5 1.7-4.5 2.3-5.4-.8 1.9-3.5.2-3.5l-2.2.4.5.3c-1.7 1.3-1.8 2.6-5.1 2.7-2.1-.4-1.2-1.7-2-1.8 0-.2-.3-.3-1.3 0l-4.9.1 2.1 2.2c-2.1 1.3-4.6.2-2.1 2.6-3.6-3.8-18.1-.1-20.2-1.2-2.9 1.9-5.8 2.1-9.5 2.2 1 .4 1.7 2.9-1.5 2.9.7-5.3-5.7-2-8.7-5.2 1.5 2-9 1.3-5.2 4.5-2.7-.2-.3-2-2.5-3.1-6.1 2.6-14 0-21.7 1.4-.1.7 1.4 1.7-.2 2.9l-4.4-3.1c-1.5.5-1 4.2-4 2 .5.5 1.1 1.4.1 1.7-7.8-.9-15.5.6-23.2 1.8s-15.5 2-23.6-.2c2.2 1.1.9 1.4-.7 1.6 1.1.2.2 1.7.5 2.6l-6.8-1.8c-.8 2.8-6.9 1-7.2 3.6l2-.7c-2.3 3.3 4.6 6.1 4.7 10 2.6-3.7 8.6 4 13-1.4 1.2.6-.8 1.3-.1 2.2 1.1-1.8 2.5-2.3 5.4-1.9l-.3.4c7.9-1.3 11.4-.1 20.4 0l-.9-1.8c1.2 0 2.3.4 3.3 1 1.9-3.1-5.4.4-3.7-3 2.9 3.6 13.5-1.4 15.7 2.8 2.9-.3-1.1-2.1 1.9-2.4l.9 1.1.6-1.6c1.5 0 2.9 1 3.2 2.4-.5-.1-1.3.4-1.8.5 2.5 1.1 6.4-.9 7.7-.8l-2.7-.4c7.9-1.9 17.9-1.3 25.4-4.4l-.7-.8c5.8-2.2 4.8.6 11.3-.8l-.2.2c1.4-1 3-1.6 4.7-1.7-1.6 1.2 3.3 1.8 1.2 3.1 6.3-2.3 3.1-1.6 7.1-5.3l1.1 1.4c1.3-1.5 1.4-2.2 4.6-2.8-2.6 1.5 2.3 2.1-.6 4 7.1 2.7 9.9-4.1 13.4.4 2.8-4.3-6.1-1.8-4.4-2.8-1.6-1.2 2.4-3.3 4.5-3 2.2-.1 4.1 5 9.6 4.5-.5 0-.6.3-1.1.4 2.1.9 3.9-1.7 6.6-.2 1.2-2.6 3.3-.1 3.5-3.3l-5 1.1c2.8-1 5.2-4.9 10.1-3.4-.7.9-1.6 1.6-2.6 2.1 1.4.8 2.6-.8 4.1.1-.2 3.2-6.1 1.1-9 3.7 1.6 1.2 5.6-2.7 4.3.8 1.9-4.5 5.4.2 9-3.3l-.1 1.9c.6-.3 1.7-1.3 2.8-1.3l-1.8 2.6c2.9-2.3 5.9 1.5 8.7.2-6 .4-1.5-2.2-4.1-3.4 7.2-2.9 4.7 4.5 12.5 3.3-1.3.1-3.8-1-2.3-1.9 1.7.2 3.4.9 4.8 1.9 5.5-.7-1-1.9 1.3-3.2 2 2.2 2.7-1.1 5.1-1.9l.1 1.9c6.4.9 1.5-4.1 7.2-2.9l-2.3 2.8 2.9-.8-.5 2.2c3.1-1.8 4.2-1.4 7.3-1-.8-1.3.3-3.5 3-3.7 2 1.1-1 1.9 3 1.4-.8 1.2-1.8 2.8-3.6 1.1-.1.6-.8 1.2-1 1.9 2.1 1.2 5.2.1 6.6 0-.5 0-1.1-.1-1.6-.4l5.6-2.9c.9.7.2 1.3-.4 1.9 1.2-.3 1.9-1.2 3.6-1.4-.4 1.6-.2 3.2-2.6 4l5.4-2c.4.7 2.9 1.8 2.2 2.4 3.1.8 7.3-3.3 11.4-2.2a2.37 2.37 0 0 1 1.5-.9c3.8.2 7.2 2.1 11.6-.2l2.6 2.7c3.5-.7-3.5-3.4 2.3-4.7 4.1-1 1.6 2.4 3.1 3.1 2-1.5 5.5-4.4 9.4-2.2-1.2.6-2.2.2-3.4.4l2.9 1.5c-3.4 2.6-6 1.8-3.2 3.9.3-5.4 11.2-.8 11.5-6.2l1.9 1.1c-.5 0-.6.3-1.2.2 3.8 2.5 2.7-4 7.5-3.3 1.7.4 2.9 1.2 1.7 1.8l3.7-1.4c.9.1.9.7.2.9l5.2-.5v.2c1.1-1 2.3-2 3.5-2.8 1.4.8-.7.6-.3 1.3l3.1-1.4c1.3 1.4-1.3 2.8-3.5 2.6 3 5.4 2.6-1.4 8.9 1.7l-3 .7c1.9 3.1 4.2 1.9 7.6 3.8-.8-1-6.7-4.8-3.3-6.2 1.4.5 2.9.4 4.1-.5 0 1.9 1.8 1.5 4.1 1.3l-.1 2.6c2.4-.7 2.2-2 3.7-3.2 2.7.3 3.3 2.2 3.9 3.9 4.3.4-3-3.2 2.1-3.7 3.6 1 6.1-.1 10.4-1.6 2.5.9-.4 1.6.5 2.3l2.2-2c.5.1.4.7.3 1 1.9-.8.2-2.6 3.1-3.2.8-2.8 6 4.2 9.7 1 .9.7-.5 1.6-.2 2.6 5.1-2.1 4.3-1.5 8.5-4.3l3.5 1.7c-2.6-2 .8-4.2 3.7-6a22.84 22.84 0 0 0-2.2-2.2l4.7-1.3c.6.4.1 1.3-.7 2.4l.9-.6c1.6 1 .8 2.4-.5 3.8-.6-.5-1.1-1.1-1.6-1.6-1.2 1.5-2.3 3.2-2.1 4.7.4-.3 1-.6 1.5-.7-.3.4-.5.8-.4 1 .2.3.6-.3 1.4-.9l1 2.9.3-1.1 6 1.9c4.4-2.8 8.2-6.9 15.1-8-1.8 2.1-.5 3.4-.6 5.9-1.8-2.7-5.3 1-8.9.4 1.9.3 1.4 1.5.9 1.9l6.4-2.3c-.2 2 1.3 1.5 2.9 2.4-1.1-4 4.8-2.5 7.4-3.7.1 1.3-.5 2.7-3.7 2.3 3.4 3.1 4.6-4.6 8-1.9-.8 0-1.2-.2-1.5.5 1.8-1.1 6.2-.1 5.1 1.1h-.8c5.1.6 15.5.6 16.4-2.8-.2 1.6-.6 3.2-1.2 4.8l9.6-11.1c-.9 2.9 1.9 10-2.4 11.4 1.7.8 3.6.8 5.3.1-.8-.5-1.9-4.3-.7-4.5 3 3.4 2.1 1.8 5.8 4.8-1.2-.7.4-5.2 2.3-5-.3.7 0 4.5-.8 5l4.9-4.1c-.9 1-.1 3.7.9 4.9-.5-.9 4.2.3 5.5-.1l-2-1.1c5.5.9 5.8-6 11.2-5.5-.7.9-1.9 5.6.8 6.3 1.4-2.2 6.2-10.8 11.2-12.3l.9 1.4 3.8-1.3c-3.9 4.7-8.3 9.1-13.1 12.9 2 1.2.5 1.6 3.6 1.6 1 1.3-1.8 1.8-2.7 1.8l7.1 1.2c-.2-2.7 5.6-2.4 5.5-4.6l-8 2.3c-.2-2.7 4.9-7.4 10-6.6 1.2 1.1-1.3 4.7-1.2 5.6.7-.9 4.9-1.5 5.4-.8l-2.2 1.3c2.8 1.2 4.8-3.3 8.1-.5 1.2.2 3.3 3.7 3.6 2.1-1.7-3.2-1.5-12.7-.1-14.9.4.2 6 3.4 7.2 5 1.8 2.5-3.3 5.5-1.8 7.7.1-.7 1.2-1.6 1.7-1.8 1.2.7-.7 2.2 2 2.1.6-2.7 5.4.6 1.4-2.2 2.7-.6 2.8.8 5.8.8-.9-1.8 3.2-5.8 5.9-6.4-.1.7.1 1.5.6 2.1 5.4.7 8.2 2.1 13.2 2.5.4.7 2.8 1.7 1.6 2.8.8-.4 1.5-1.3 3-1.2 2.8 2.6-3.5.1-1.4 3.1.3-1.6 4.2-1.8 6.5-2.7-.5-2.5-5.1-.9-7.3-.1.3-3.4 4.4-6.6 9.8-7.7 4.2-.5 1.6 2.3 2.4 1.9 7.8 1.2 7.2-5.3 13.5-2.3 2.4 2.4-.3 4.3.2 5.9-3.5.5-5.1-1.8-7.4-2l2.7 1.3c-1.1.6-3.5.9-4.6.2 2 2.1 13.2 1.6 19.1 3.9 1.1-.6 3.1-1.2 2.3-2.1l-1.9.1c-1.6-1.9 3.8-2.1 1.5-3.1 2.7-1 5.7-2.6 9.3-1.3l.4 2.5c0-.7-2.2-1.7-3.3-1 1.6-.9 5.2 3.8 7.2.8l-2.4-1.9c2.6-.3 6-2.5 9.2-1.4zm-447.6-6.2l.8.5c-1.6.6-1.2.1-.8-.5zM303.4 173c.9-2.2 1.7-1.2 3.1-.5-.8.4-2.5 1.7-3.1.5zm66.3-5.2c.9-.2 1.9 0 2.7.5-.7.6-1.6.3-2.7-.5h0zm69.2-6.5c-.1.2-.2.4-.3.7 0-.5-.4-.7.3-.7h0zm117.9 3.6c-1.8-.9-1.1-.6 0 0 .1-.1.1 0 0 0h0z" fill="#eebf70"/></svg>