<svg xmlns="http://www.w3.org/2000/svg" viewBox="50 50 100 100" fill="#eddcc4" xmlns:v="https://vecta.io/nano"><path d="M523.8 15.2h0 0 0 0zM246.4 4.7h0 0 0z"/><path d="M483.7 191.1h-1.2-.7c-.6 0-1.1.1-1.6.2h-.1c-.4 0-.9.1-1.4.2-.4.1-.7.1-1 .2l-.3.1-.5.1h-.2c-.1 0-.3 0-.4.1-.1 0-.3.1-.4.1h-.2-.2c-.4 0-.9.1-1.4.1l-1.6.2c-.6.1-1.2.1-1.9.2-.5.1-1 .1-1.5.2l-2 .3c-.4.1-.7.1-1 .1h-.2c-.4 0-.7.1-1 .1l-1.3.3c-.3.1-.5.1-.8.2-.1 0-.2.1-.4.2l-.2.1c-.2 0-.3.1-.3.2h0s0 .1.1.1c0 0 .1 0 .1.1h0c.1.1.4.2.7.3.4.1.9.1 1.3.1h.8.2.8.5 1.3c.5 0 .9-.1 1.4-.1s.9-.1 1.3-.2l1.1-.3.5-.1.5-.1 1.5-.3 2-.4.8-.1c.7-.1 1.3-.3 2-.4l.4-.1.5-.1.5-.1.5-.1c.5-.1 1-.1 1.4-.2h.1.3.2l.5-.1h.2c.6-.1 1.1-.2 1.6-.2.2 0 .5-.1.7-.2.5-.2.4-.4-.3-.5-.6-.1-1.1-.2-1.7-.2zm40.1-175.9h0 0 0 0z"/><path d="M246.4 4.7h0 0 0zm277.4 36.4h0 0 0 0 0 0c.1-.4.1-.7.1-1 0-.2-.1-.4-.2-.6s-.3-.4-.4-.5l-.6-.6v-.2c-.1-.3-.4-.6-.7-.9s-.6-.5-.9-.8l-.1-.1-.1-.1v-.1-.1c0-.1-.1-.1-.2-.1l-.3-.3c-.1-.1-.1-.2-.2-.3v-.3-.1l.2-.2.4-.4c.1-.1.1-.1.1-.2s.1-.1.1-.2c.1-.1.2-.2.3-.4h0l.1-.1c.1-.1.1-.2.2-.3a.45.45 0 0 0 0-.5c0-.1-.1-.2-.1-.2-.1-.1-.1-.2-.2-.2-.1-.1-.2-.2-.4-.3-.1 0-.1-.1-.2-.1l-.4-.3-.6-.5c-.2-.2-.4-.3-.5-.4l-.5-.5c-.1-.1-.2-.2-.3-.4-.1-.1-.1-.2-.1-.3s-.1-.2-.1-.3v-.1c0-.2-.1-.4-.1-.6h0v-.2-.3a.76.76 0 0 1 .2-.4c.1-.1.1-.2.2-.4a.76.76 0 0 0 .2-.4c0-.1.1-.3 0-.4 0-.3-.2-.6-.4-.9-.1-.2-.2-.3-.4-.5-.1-.1-.3-.3-.5-.4l-.1-.1c-.1-.1-.3-.2-.4-.3-.3-.2-.7-.5-.9-.7l-.4-.3-.5-.5c-.3-.2-.6-.5-1-.8s-.8-.5-1.1-.8l-.3-.2c-.2-.1-.3-.2-.5-.3-.3-.2-.6-.3-.9-.5l-.2-.1c-.3-.2-.7-.3-1-.5l-1.1-.6c-.1-.1-.2-.1-.3-.2s-.2-.2-.4-.3l-.1-.1-.8-.7c-.2-.2-.5-.4-.7-.6-.3-.2-.7-.4-1-.7-.3-.1-.5-.3-.8-.4-.1-.1-.3-.1-.4-.2l-.2-.1c-.3-.1-.6-.3-.9-.4-.4-.1-.8-.3-1.3-.4h-.1c-.2 0-.4-.1-.6-.1h-.2c-.3-.1-.6-.1-.9-.2s-.7-.1-1-.2c-.2 0-.4-.1-.6-.1l-.7-.1-.7-.1c-.2 0-.4-.1-.6-.1s-.5-.1-.7-.1c-.5-.1-.9-.2-1.4-.2l-.4-.1c-.3-.1-.6-.1-.9-.2-.2 0-.3-.1-.5-.1h-.3c-.2 0-.4-.1-.6-.1h-.2a6.96 6.96 0 0 0-1.6-.2c-.4 0-.9-.1-1.3-.1-.6-.1-1.2-.1-1.8-.2-.3-.1-.6-.1-.8-.2s-.5-.2-.6-.3-.2-.1-.3-.2-.2-.1-.2-.2c-.2-.2-.5-.3-.8-.4s-.7-.3-1.1-.4c-.2-.1-.3-.1-.5-.1-.2-.1-.4-.1-.6-.1-.3-.1-.7-.1-1-.1-.4 0-.8 0-1.1-.1h-.4-.7c-.4 0-.8 0-1.2-.1h-.6c-.3 0-.6 0-.8-.1-.3 0-.7-.1-1-.1s-.7 0-1.1-.1c-.3 0-.6 0-.9-.1l-1.3-.1h-.8-.6c-.5 0-1-.1-1.5-.1h-.9-.5c-.7-.1-1.3-.1-1.9-.3l-1-.3c-.2-.1-.3-.1-.5-.2-.6-.3-1.3-.5-2-.7l-1.6-.3c-.5-.1-1.1-.2-1.7-.2h-.2c-.5-.1-1-.1-1.5-.1h-.5c-.4 0-.9-.1-1.3-.1-.3 0-.5-.1-.7-.1l-.8-.1-.8-.1c-.7-.1-1.4-.1-2.2-.2-.5 0-1-.1-1.5-.1h-.2c-.4 0-.8-.1-1.3-.1l-2.9-.4h-.2c-.4-.1-.7-.1-1.1-.2-.5-.1-1.1-.1-1.6-.1h-.6-.4-.3c-.4 0-.8 0-1.2.1h-.6-.6-.1-.9c-.5-.3-.8-.3-1-.3-.3 0-.5-.1-.8-.1-.3-.1-.6-.1-.8-.2s-.4-.2-.7-.3c-.2-.1-.4-.2-.6-.2-.2-.1-.5-.1-.7-.1-.3 0-.6-.1-.9-.1h-.4-.2c-.2 0-.5.1-.6.2s-.3.1-.4.2-.2.1-.4.2h-.2-.2-.1-.2c-.1 0-.3 0-.4-.1-.2 0-.4-.1-.5-.1-.2 0-.4-.1-.5-.2l-.2-.2c-.2-.1-.3-.1-.5-.2-.3-.1-.7-.2-1-.2s-.6-.1-1-.1h-.1-.4-.2-.5-.3c-.3 0-.7 0-1 .1-.2 0-.3.1-.5.1-.1 0-.2 0-.3.1-.3 0-.7.1-1 .1h-.7-.8c-.5 0-.9 0-1.4-.1-.2 0-.5 0-.7-.1-.2 0-.5 0-.7-.1-.4 0-.8-.1-1.3-.1h-.1-.1c-.5 0-.9-.1-1.4-.1h-1.2-.9-1.3c-.5 0-1 0-1.4.1h-.2l-2.3.1h-.3-1.7-.9-1-3.4-1-.3-1-.9-.5c-1.1 0-2.2-.1-3.4-.2-.5 0-.9-.1-1.3-.1h-.1c-.5 0-1-.1-1.4-.1h-2-.5l-2.4.1c-.9 0-1.8.1-2.7.2h-.5-.1-.1c-.2 0-.3 0-.5.1-.2 0-.4.1-.6.1s-.3.1-.5.1c-.4.1-.9.1-1.3.1s-.8.1-1.2.1c-.3 0-.7.1-1.1.2-.2 0-.4.1-.5.1-.3.1-.6.1-.9.2-.4.1-.8.1-1.2.1h-.3c-.5 0-.9.1-1.4.1h0c-.5 0-1 0-1.5.1h-.3-1.2-.5-.5-.6-.5-.4-.7-.5-.6-1.9-.5-.5-.9c-.6 0-1.1 0-1.7.1-.5 0-.9.1-1.4.1h-.1-.3-.3c-.3 0-.6 0-1 .1-.4 0-.9.1-1.3.2-.2 0-.3 0-.5.1l-1.7.2h-.4-.4c-.3 0-.6.1-.9.1-.6 0-1.1.1-1.7.1-.5 0-1 .1-1.5.1h-.4-.4-.5-.3-.1l-1.2.1h-1.1-.6-.4-.6-.3-.9-.4-.5-.9-2-1-.2-.7c-.7.1-1.5.1-2.2.2s-1.3.2-2 .2l-2.1.1c-.5 0-1 0-1.6.1h-.7-.8-.1-2.6-.5-.5-1.1-.4-1.2-1.5-1.5-1.6-.6-.8l-3.1.1c-.9 0-1.8.1-2.7.2h-.4-.3c-.5 0-1 .1-1.6.1-.4 0-.8.1-1.2.1l-.7-.1c-.4 0-.8.1-1.2.1-.3 0-.6 0-.9.1-.7.1-1.2.1-1.7.1h.1c-.4 0-.7 0-1.1.1-.3 0-.6 0-1 .1h-.1 0-.6-.6c-.9 0-1.7.1-2.6.2l-1.4.1h-.9-1-.7-.8c-.4 0-.9 0-1.3.1h-.2-.7-.6-1.3-.1-.4-.2l-.5.1h-.2-.8-.7-1.5-.1-.9-.5-.3-.8-.4-.2-1-1.3-.4 0c-.3 0-.6.1-.7.2h-.4-.4-2.2-.2-1.1-1.1-1.7-2.9-2.2c-.5 0-.9-.1-1.3-.2l-1.1-.3-1.1-.3c-.3-.1-.7-.2-1.1-.3-.2 0-.4-.1-.7-.1-.3-.1-.5-.1-.8-.2l-2.2-.4-2.4-.3c-.2 0-.4 0-.6-.1h-.4c-.3 0-.7-.1-1-.1h-.1c-.6-.1-1.1-.1-1.7-.3-.1 0-.2-.1-.3-.1h.1-.1 0-.1 0 0 0 0c.1-.1.2-.3.3-.4s.1-.2.2-.3c.1-.2.1-.3-.1-.5-.1-.1-.3-.3-.5-.4s-.5-.2-.8-.3-.6-.1-.9-.2c-.1 0-.3 0-.4-.1-.3-.1-.6-.1-1.1-.2h-.9l.1-.1h-.3-.5-.2-1.6l-2.8.1-2 .1c-.4 0-.7 0-1.1.1-.4 0-.9.1-1.3.1H231h-1c-.6 0-1.2.1-1.8.1-.3 0-.6.1-1 .1-.2 0-.4.1-.7.1s-.4.1-.6.1c-.3 0-.6.1-1 .1-.2 0-.5.1-.7.1-.3 0-.6.1-1 .1l-.5.1c-.4 0-.8.1-1.2.1h-.5c-.5 0-1 .1-1.5.1-.6 0-1.2 0-1.9.1-.3 0-.6.1-.9.2s-.4.3-.5.4c0 .2 0 .3.2.5.1.1.1.2.2.2h0 0v.1s-.1 0-.1.1c-.1 0-.3.1-.4.1h-.2c-.3.1-.5.1-.8.1-.4.1-.8.1-1.2.1h-.8-.2-.5-.3-2.2c-.6 0-1.3 0-2-.1h-.2-.8-1-.3l-4.6.1h-1.1-.9-.7-.3c-.5 0-.9 0-1.2-.1h0c-.5 0-1-.1-1.6-.2l-.6-.1c-.3 0-.7-.1-1-.1-.5.2-1 .2-1.5.2h-.3c-.6 0-1.1-.1-1.7-.1-.4 0-.8-.1-1.1-.1h-.3c-.3 0-.5-.1-.8-.1h-.8-.2c-.4 0-.7 0-1.1.1h-.2c-.2 0-.4.1-.7.1h-.4c-.3 0-.6.1-.9.1h-.3l-2.4.2h-.8-.9c-.5 0-1.1.1-1.8.1-.2 0-.5 0-.7.1l-.8.1c-.2 0-.5.1-.7.1-.3 0-.7.1-1 .1-.5.1-1.1.1-1.6.2-.6.1-1.1.2-1.6.4-.3.1-.5.1-.8.2-.2.1-.4.1-.6.2l-1.5.3c-.4.1-.8.1-1.2.2h-.2-.3c-.3.1-.7.1-1 .2l-2.4.2h-.2c-.5 0-1 0-1.6.1h-.2l-2 .1h-.7-1.3-.2c-.5 0-1 0-1.5-.1-.3 0-.6 0-.9-.1h-.3c-.4 0-.8 0-1.3-.1h-.8-2.2-3.4c-1.1 0-2.2 0-3.3-.1-.3 0-.6 0-.9-.1h-.5c-.2 0-.4 0-.6-.1-.6 0-1.2-.1-1.9-.1h-.6l-5.8.2h-.1-1.1-.3-1-.2c-.7 0-1.3 0-2-.1h-.7-.8-.3c-.4 0-.9 0-1.3.1-.6 0-1.2.1-1.8.1h-.7l-2.1.1h-.8-.9-.6-4.2-4.1c-1.3 0-2.6 0-3.9-.1l-2-.2c-.3 0-.5-.1-.8-.1h-.2-.3c-.3 0-.5-.1-.8-.1-.8-.1-1.6-.1-2.5-.1-.8 0-1.5 0-2.3-.1-.6 0-1.2-.1-1.7-.2-.4-.1-.9-.2-1.3-.2l-.3-.1c-.7-.1-1.4-.3-2.1-.3h-1.1-.2-1.4c-.6 0-1.1-.1-1.7-.2H87c-.3-.1-.7-.1-1-.2-.6-.1-1.1-.2-1.7-.2h-.4c-.2 0-.4 0-.5-.1-.2 0-.4-.1-.6-.1h-.1c-.7-.1-1.2-.2-1.8-.2h-.5-.3-.2-.6-1.4-.6c-1.1 0-2.2 0-3.2-.1-.4 0-.7-.1-1.1-.1h-.1c-.2 0-.3 0-.5-.1h-.5-.1c-.3 0-.7-.1-1-.1-.2 0-.4-.1-.5-.1-.2 0-.5-.1-.7-.1h-.1 0c-.2-.3-.3-.4-.4-.4-.2-.1-.4-.1-.7-.1s-.7-.1-1-.1h-.2c-.4 0-.9-.1-1.3-.1H65h-.2-.7c-.4 0-.8-.1-1.2-.2l-1.6-.3h-.8-1.2-.1c-.4 0-.7 0-1.1.1-.3 0-.6.1-.9.1-.4.1-.7.1-1.1.2-.5.1-.9.1-1.3.1l-2.4.1h-1.8c-.5 0-1.1 0-1.6.1h-.2-.8-.8c-.4 0-.9.1-1.3.1l-1.2.3-.3.1c-.2.1-.4.1-.6.2-.3.1-.5.1-.8.2-.1 0-.3.1-.4.1s-.3 0-.4.1H42c-.2 0-.4.1-.5.1s-.3 0-.4.1h-.3c-.5.1-1 .2-1.5.4-.2.1-.3.1-.5.2l-.9.3h0 0 0c-.3.1-.6.2-.9.4h-.1c-.1 0-.2.1-.3.1h-.1-.1l-.2.1-.3.1-.9.3-1 .3-1.3.5c-.3.1-.6.3-.9.4l-.9.3c-.2.1-.4.1-.5.2-.2 0-.4.1-.6.2-.7.3-1.4.5-1.9.8l-1.1.6c-.3.1-.6.3-.8.4-.1.1-.2.1-.4.2a.76.76 0 0 1-.4.2c-.3.1-.6.3-.9.4-.4.1-.8.3-1.2.4l-.2.1-2.2.8c-.2.1-.5.2-.7.3l-.2.1h-.1l-1.1.5c-.4.2-.7.3-1 .5-.3.1-.5.3-.8.4l-.2.1-1.3.6-.6.3-1.8.9-.2.1c-.2.1-.5.2-.7.4-.2.1-.4.2-.5.3s-.2.1-.3.2-.3.1-.4.2-.2.1-.3.1c-.2.1-.5.2-.8.4l-.9.3-.9.3c-.2.1-.5.2-.7.2-.4.1-.9.3-1.3.4-.1.1-.3.1-.4.2l-.6.3-.1.1c-.2.2-.4.3-.5.5-.3 0-.3.2-.3.4h0c0 .1 0 .1.1.2 0 0 0 .1.1.1 0 .1.1.2.1.2.1.1.2.3.3.4.1.2.3.4.3.7v.8.2.2.8c0 .4 0 .7.1 1.1 0 .3 0 .5.1.7 0 .1.1.1.1.2l.1.2v.1h0c0 .1 0 .2.1.3h0c0 .1.1.2.3.4l.1.1h0 0v.2c0 .2.1.4.1.6s.1.3.2.5l.3.3c.1.1.2.2.4.2l.1.1.1.1a.76.76 0 0 0 .4.2h.1c.1.1.3.2.5.3s.3.1.5.2h0v.5s0 .1-.1.1c0 0-.1 0-.1.1h-.1c-.1 0-.2 0-.2.1-.3 0-.7.1-1 .1l-.6.1c-.5.1-1 .2-1.4.4-.3.1-.5.2-.6.4-.1.1-.1.3-.1.4 0 .2.1.3.1.5 0 .1.1.1.1.2s.1.1.1.2c0 .6 0 1.2-.2 1.8l-.3.8c-.1.1-.1.2-.2.3l.1-.1c-.1.1-.1.2-.2.3l-.1.1c-.1.3-.2.5-.2.8v.1c0 .3-.1.5-.1.7 0 .1-.1.2-.1.3-.1.1-.1.3-.1.4a.9.9 0 0 0 .1.5h0a3.04 3.04 0 0 0 .5.7.76.76 0 0 0 .4.2c.1.1.3.1.5.2h.1c.2.1.5.1.7.1h.4c.3 0 .6-.1.8-.1.3-.1.5-.2.6-.3l.1-.1h0c.1 0 .1-.1.2-.1 0 0 .1 0 .1-.1 0 0 .1 0 .2-.1H8c.3.1.4.1.6 0h.1.1c.1 0 .1 0 .2-.1h.1.1l.2-.1c.1 0 .2-.1.3-.2h.1s.1 0 .1-.1c.1 0 .1-.1.2-.1h0 .1.1c.1-.1.2-.1.3-.2l.2-.2.2-.2.2-.2.2-.2.3-.3.2-.2.1-.1.1-.1.1-.1.1-.1h0l.5-.5c.1-.1.2-.1.3-.2s.2-.1.2-.2.1-.1.2-.1l.6-.3c.2-.1.4-.1.7-.2.2 0 .3 0 .5-.1h.2c.1 0 .1 0 .2.1.1 0 .1 0 .2.1.1 0 .1 0 .2.1h0 0v.4h0c0 .2-.1.4-.1.6 0 .1-.1.2-.2.3s-.3.3-.5.4-.4.3-.6.4l-.2.1-.1.1s-.1.1-.2.1l-.1.1-.3.3c-.1.1-.1.2-.1.3v.1a.76.76 0 0 1-.2.4c-.1.2-.1.4 0 .6.1.1.2.2.5.3.2.1.4.1.6.1h0c.2 0 .5 0 .7-.1h0c.1 0 .2 0 .3-.1h.2.2.2c.2 0 .3-.1.5-.1l.1.1v.1.1c0 .2.1.4.2.5 0 .1.1.2.1.3.1.2.2.3.4.5a.9.9 0 0 0 .1.5v.2.1.5c0 .1-.1.1-.1.2l-.2.2-.2.1c-.1 0-.2.1-.3.1s-.2.1-.3.1h-.2c-.3.1-.5.1-.8.2s-.5.1-.8.2c-.2 0-.4.1-.6.2s-.3.1-.4.2-.3.2-.4.3-.2.2-.2.3h0c-.1.1-.1.2-.2.4v.2h0c.1.3.1.6 0 1 0 .1-.1.2-.1.3s-.1.2-.1.3-.1.3-.1.4v.3c0 .1-.1.1-.1.2-.1.1-.2.1-.2.2h0c-.1 0-.1.1-.2.1H12h-.1l-.1-.1-.1-.1h0c0-.1-.1-.1-.1-.2 0 0 0-.1-.1-.1l-.1-.1V50v-.1c0-.1 0-.2-.1-.3 0-.1-.1-.2-.3-.3-.1-.1-.2-.1-.4-.2h-.1 0c-.1 0-.1-.1-.1-.1-.1-.1-.2-.1-.4-.2-.1 0-.2-.1-.3-.1h-.2v-.1-.1c0-.1-.1-.3-.1-.4-.1-.1-.1-.2-.2-.4h0l-.2-.2-.2-.2h-.1c-.1-.1-.3-.2-.5-.3s-.4-.1-.7-.1H7c-.4 0-.7 0-1 .1-.2 0-.3.1-.4.2l-.1.1-.1.1c-.1 0-.2.1-.3.1-.2.1-.3.1-.5.2-.1.1-.2.1-.3.2l-.1.1-.1.1s-.1 0-.1.1c0 0-.1.1-.2.1-.1.1-.2.1-.2.2h0l-.1.1-.1.1s0 .1-.1.1c-.1.1-.1.2-.2.2v.1.1a.76.76 0 0 1-.2.4h0c-.1.2-.2.4-.1.7 0 .2.1.5.2.7.1.1.2.3.3.4s.2.3.3.4v.4.6.4c0 .4 0 .9.1 1.3.1 1 .1 1.9.1 2.6v.7.6.6.8c0 .3 0 .7.1 1 0 .5.1 1 .1 1.4 0 .2 0 .4-.1.5-.1.3-.3.7-.4 1-.1.1-.1.3-.2.4v.1c-.1.1-.1.3-.1.4L3 64v.2c0 .1-.1.2-.1.3v.6.1c0 .2.1.4.1.6 0 .1.1.2.1.3l.1.1c.1.1.1.2.1.3 0 .2 0 .4.1.5.1.2.2.3.3.5.1.1.1.2.2.3 0 0 0 .1.1.1h0c.1.1.1.2.1.3s.1.3.1.5c0 .1.1.2.1.3s.1.2.1.2c0 .2.1.3.1.5 0 .1.1.2.1.3s.1.2.1.3v.5.1.7c0 .6 0 1.2-.1 1.8-.1 1.2-.1 2.4-.1 3.7 0 .5 0 1.1-.1 1.6 0 .6 0 1.3-.1 1.9v.8c.1.5 0 1-.1 1.5 0 .1-.1.2-.1.4 0 .1-.1.2-.1.2-.1.2-.1.3-.1.5v.2l-.3.6c-.1.1-.1.3-.2.4s-.1.2-.2.3v.1c-.1.2-.2.4-.2.6v.1c0 .1-.1.2-.1.3 0 .2-.1.3 0 .5v.4.6c0 .3 0 .5.1.8 0 .2.1.4.2.6l.1.2c0 .1.1.2.1.3v.4h0c0 .2-.1.5-.1.7 0 .1-.1.2-.1.3-.1.2-.1.4-.2.5v.5.2c0 .6 0 1.2-.2 1.8l-.1.2c-.1.2-.1.3-.2.5v.2.1c0 .1 0 .2-.1.3-.1.3-.2.5-.3.7-.1.1-.1.2-.1.3s-.1.2-.1.3c-.1.1 0 .2-.1.3s-.1.2-.2.3c-.1.2-.2.4-.4.6-.1.2-.3.3-.4.5s-.2.4-.3.5v.1c-.1.2-.2.4-.2.5 0 .2-.1.4-.1.6v.9c0 .2.1.4.1.6 0 .1.1.2.1.3s.1.1.1.2v.2.3c.1.2.2.5.2.7v.4.1.6.6.6 1.2c0 .2.1.5.1.7 0 .1.1.2.1.4v.1.3.1.4.2.3 1c0 .4.1.8.2 1.1s.1.5.2.8c0 .1.1.2.1.3s.1.2.1.3l.3.9a.76.76 0 0 0 .2.4c.1.1.1.2.2.4 0 .2 0 .4.1.5 0 .3.1.5.1.8.1.4.1.8.2 1.2 0 .2 0 .5.1.7 0 .2 0 .5.1.7.1.5.1 1 0 1.5 0 .1-.1.3-.1.4l-.1.2c-.1.2-.1.3-.1.5 0 .1 0 .2-.1.3l-.1.2c-.1.2-.1.4-.1.6h0c0 .3 0 .6-.1.9s-.2.6-.4.9c-.1.2-.2.3-.2.5-.1.3-.2.5-.4.8l-.1.1c0 .2 0 .3-.1.4v.1.1c-.1.1-.1.3-.2.4l-.1.2c-.1.2-.2.5-.2.7s-.1.5-.1.7v.3c-.1.7-.1 1.4 0 1.9v1.7c0 .3 0 .6-.1.9 0 .3 0 .5-.1.8v.8c0 .3.1.5.2.8.1.2.2.4.4.6l.1.1c.1.1.2.3.3.4l.2.2c.1.1.2.1.2.2h.1l.3.3h0c.1.1.1.2.2.2s.1.2.2.3c.1.2.3.4.5.6.1.2.2.4.3.5s.1.2.1.3v.1l.1.2v.2c0 .2.1.5.1.7 0 .3 0 .5.1.8 0 .3.1.5.2.8 0 .1.1.2.1.4 0 .1.1.2.1.3l.3.9c0 .1.1.2.2.3s.1.2.2.3c.1.2.2.4.2.6.1.4.1.8.1 1.2v.3 1.7c0 .3-.1.6-.1.8-.1.4-.1.7-.1 1.1 0 .6 0 1.2-.2 1.8-.1.3-.2.6-.4.8-.1.1-.2.3-.3.4s-.2.3-.3.5c-.2.2-.3.5-.5.7-.1.2-.2.5-.3.7 0 .1 0 .3.1.4h0c0 .1.1.2.1.3a3.04 3.04 0 0 0 .5.7h0c.2.2.4.5.6.7l.2.1.4.4s0 .1.1.1v.4.2c0 .3.1.5.2.8 0 .1.1.2.2.3s.1.2.2.3c.1.2.2.4.4.6h0l.1.1s.1.1.1.2l.1.1c.1.1.2.2.2.3.1.1.2.2.2.4.1.1.2.2.2.3l.3.3c.1.1.1.2.2.2 0 .1.1.1.1.2l.1.1c.1.1.2.2.2.4v.5c0 .1-.1.2-.1.3-.1.2-.2.5-.2.7 0 .3 0 .7-.1 1.1-.1.3-.3.6-.4.9 0 .1-.1.2-.1.2 0 .1-.1.2-.1.3-.1.1-.2.3-.3.4h0l-.1.1h0 0 0 0 0c-.1.1-.2.2-.2.3h0c-.1.1-.1.2-.2.2 0 .1-.1.1-.2.2l-.2.2-.1.1c-.1-.1-.2-.1-.2 0-.1.1-.2.2-.2.4-.1.2-.1.5-.1.7h0v.6h0c0 .4 0 .7.1 1.1 0 .2.1.4.2.7 0 .1.1.2.1.3s.1.2.1.2c0 .3 0 .5.1.8 0 .2 0 .5-.1.8-.1.2-.2.3-.3.5l-.1.1c-.1.1-.1.2-.1.3v.1c0 .1-.1.2-.2.3h-.2l-.3.3h0l-.3.3-.1.1-.1.1-.4.4c-.1.1-.3.2-.4.3l-.3.3c0 .1-.1.1-.1.2s-.1.2-.1.2v.4a.76.76 0 0 1-.2.4c0 .1-.1.2-.1.2-.1.1-.1.2-.1.4 0 .1-.1.2-.2.3s-.1.2-.1.2v.2.1.2c0 .3.1.7.1 1v1.6.4 1.2c0 .2.1.5.1.7s.1.3.2.4.1.2.2.4c.1.5 0 1 0 1.4v.8c0 .3 0 .6.1.8 0 .2.1.4.1.5s.1.2.1.3c.1.1.1.1.1.2v.8.7.8.1 1.3c0 .2 0 .4.1.6 0 .1.1.2.2.3s.1.2.2.3c0 .3 0 .6-.1.9v.4.7c0 .1.1.2.1.3l.3.3c0 .1.1.1.1.2v.1c0 .1.1.1.1.2s.1.1.1.2v.2.4.2.4c0 .2 0 .4.1.6 0 .1.1.2.1.3l.3.3h0l.3.3c.2.1.3.2.5.3h0c.1.1.3.2.5.3s.4.1.6.2c.1 0 .2 0 .3.1.2 0 .3.1.5.1H7h.1.2c-.1.1-.1.2-.2.3s-.2.1-.3.2c-.3.2-.6.3-.9.5l-.3.1-.8.3c-.5.2-.8.5-.7.8 0 .4 0 .7-.1 1.1 0 .1-.1.1-.1.2l-.1.1-.2.1c-.2.1-.4.2-.6.4l-.1.1c-.2.1-.4.3-.5.4-.2.2-.3.4-.3.6v.2.1.6c-.1.1-.2.3-.3.4l-.2.2-.2.2-.2.2-.1.1c-.2.2-.4.4-.5.7-.1.1-.1.3-.1.4v.3.2.4.4c.1.4.1.9 0 1.3 0 .1-.1.2-.2.3-.2.2-.4.4-.5.6.2 0 .2.2.2.3v.2c0 .3 0 .7.1 1 .1.4.2.8.4 1.1 0 .1.1.1.1.2s.1.2.1.2c.1.1.2.3.3.4l.1.1c0 .1.1.1.1.2l.1.1a1.38 1.38 0 0 1 .3.4c.1.1.2.2.2.3l.1.2c.1.1.1.2.1.2v.1.1l.1.2v.5.1c0 .1 0 .3-.1.4 0 .1-.1.1-.1.2.1.1 0 .3.1.5.2.2.5.5.9.7.1 0 .1.1.2.1.1.1.1.2.2.3v.4.2.5.1.1c0 .1 0 .2.1.4h0c0 .1.1.2.1.3s.1.2.1.2c0 .3.1.5.2.8.1.2.3.4.5.6l.1.1.2.2c.1.1.1.1.2.1s.1.1.1.1c.1.2.3.3.4.5.1.1.1.2.2.3l.1.1c.1.1.1.2.2.4 0 .1 0 .1.1.2l.3.6v.1c.2.4.3.8.4 1.1v.1c0 .1.2.2.4.2h0 0c0 .1.1.2.1.3v.1c0 .2.2.5.5.7h0l.2.1.1.1.3.3v.1c.1.1.2.3.4.4.2.2.4.3.6.5.2.1.4.2.5.4l.2.2h0 0l.2.2h.1 0c.2.1.3.3.5.4l.2.2.2.1.2.2c.2.2.4.4.5.6l.3.8c0 .2.1.4.2.5a1.38 1.38 0 0 0 .3.4l.5.5c.2.1.4.3.5.4.4.2.8.5 1.2.7l.2.1c.1.1.3.1.4.2l.6.3 1 .7.3.3.2.2.2.2h0a1.38 1.38 0 0 1 .3.4s.1.1.2.1l.1.1.3.3c.3.2.7.5 1.2.7.4.3.9.5 1.4.7.6.3 1.2.5 1.9.7l1.2.3h.1c.3.1.6.1.9.2l.8.3.8.3c.1.1.3.1.4.2s.2.2.3.2l.4.4.1.1.3.3c.2.2.4.3.6.5.2.1.5.3.8.4l.8.3c.2.1.4.1.6.2.4.2 1 .4 1.5.6l.1.1c.2.1.4.2.7.2h.1c.2.1.4.2.6.2l.9.3 1 .3.2.1.4.1h.1l1 .3.4.1c.3.1.5.1.8.2l.4.1.9.3c.2 0 .4.1.6.1h0l.6.1h.3c.2 0 .4.1.6.1h.1c.2.1.5.1.7.2.2 0 .3.1.5.1h.2l.6.2c.2.1.4.1.6.2s.4.2.6.2c.2.1.4.2.5.3l.1.1.1.1c.1.1.3.2.5.3l.9.3c.3.1.6.1.8.2.5.1 1 .1 1.6.1h.3 1.2.8c.2 0 .5 0 .7-.1h.4c.4 0 .8-.1 1.3-.1h.4.1.3.3c.4 0 .8 0 1.2-.1h.9.8.2c.3 0 .7-.1 1-.1h.2.2l.8-.3c.2-.1.3-.3.4-.4v-.1c.1-.1.2-.3.3-.5 0-.1.1-.3.1-.5v-.5-.3-.1-.4-.1-.2-.2-.2-.6-.3c0-.1 0-.3.1-.4 0-.1.1-.3.1-.4.1-.3.1-.6.2-.9 0-.2.1-.3.1-.5s.1-.3.1-.5c0-.1 0-.2.1-.2s.1-.2.1-.2c0-.1.1-.2.1-.4v-.1c0-.1 0-.2.1-.2v-.1c0-.1 0-.3.1-.4v-.3c0-.2 0-.3.1-.5l.1-.3c.1-.4.2-.8.4-1.2l.1-.1v-.1h0c.1 0 .2 0 .3.1a.76.76 0 0 1 .4.2c.3.1.5.3.8.5h.1c.3.2.5.3.7.5l.3.3c.1.1.2.2.2.3.1.2.1.4.2.5h-.2-.2v.1c.1.1.1.3.1.4s.1.3.1.4l.1.2c.1.2.2.4.2.6h0c.1.2.2.5.2.7.1.3.1.5.1.8v.3.1.4.2.1.1.3c0 .3.1.6.2.8.1.3.2.6.2.9 0 .1 0 .3-.1.4v.2c0 .1 0 .2-.1.3 0 .1 0 .3-.1.4-.1.3-.1.6-.1.8 0 .1.1.2.2.4.2.2.4.3.8.4.3.1.6.2.9.2.5.1 1 .1 1.6.2h1.4.2.9 1.1 1.1.2 1.2.3 1.4.3 1 .7.4.4.8.8.8 1.6.8.7.1.8.8l2.4-.1h.6 2.7.4 2.1.9 2.8.3.9 1.5.7 1.7.9.1 2.1 1.2.8.5.5.4.8.2 1 2.6 1.2l2.4.1h1.4.9.4.6.5.6.8 2.6.2.8 1.1 2 .6 1.3 1.7.1.8.3.9.2 2 .2-.1.7.5.4.8.9 1.4.6.8 1.2.3.8.5.3.5.6.3 1.7.9.9.8 1c.4 0 .9 0 1.3.1.4 0 .9.1 1.4.1h.6.6c.3 0 .7 0 1 .1.3 0 .5.1.8.1l.5.1c.2 0 .4.1.6.1h.1l1.4.3c.2 0 .3.1.5.1h.2l.5.1c.2.1.3.1.5.2l2 .6c.3.1.7.1 1 .1h.3.3c.2 0 .4 0 .5-.1h.1c.3 0 .5-.1.8-.2h.1l.3-.1.3-.1c.6-.2 1.3-.3 2-.4.3 0 .5-.1.8-.1.3-.1.6-.1 1-.2l1.6-.3 1.5-.3h1.1c.5 0 1 0 1.5.1h1.4.6 1.1 2.4.3c.5 0 1 0 1.4.1h.8c.5 0 .9 0 1.4.1h1.1c.7 0 1.4.1 2 .1h.2c.6 0 1.3.1 2 .1h.5c.6 0 1.1.1 1.7.1.4.1.7.1 1 .2h.2l1.6.3 1.8.3.6.1c.3 0 .6.1.9.1.5.1 1 .1 1.6.1h.2c.6 0 1.2-.1 1.8-.2.3-.1.5-.1.8-.2s.6-.1.8-.2c.4-.1.7-.3 1-.5.1 0 .2-.1.3-.1.2 0 .4-.1.6-.1h.5.6.4 1.1 1.3.3 1.4.4 2.1.7 1.2c.4 0 .8 0 1.3-.1h.6l1.6-.1h.6.9.4c.2 0 .4.1.6.1l.3.1.4.1c.2 0 .5.1.7.1.4.1.8.1 1.2.2h.8.3c.5 0 1-.1 1.5-.2.4-.1.7-.2.9-.4.2-.1.5-.2.7-.4h.1c.2-.1.3-.2.5-.3 0 0 .1 0 .2-.1h.1c.2 0 .4.1.6.1.4.1.7.2 1 .4.2.1.4.2.5.4l.1.1.2.2c.2.1.3.3.6.4.2.1.4.2.7.3s.6.2 1 .2c.3 0 .7.1 1.1.1h.2.5c.2 0 .4-.1.5-.1.2 0 .3-.1.5-.1h.1c.2 0 .4-.1.5-.1s.4-.1.6-.1c.7-.2 1.5-.3 2.3-.4.4 0 .9-.1 1.3-.1l.9-.1h.7 1.6.7.8.1c.6 0 1.3-.1 1.9-.1s1.3-.1 2-.1h1.2.6.8.8l2.3.1h.1c.7.1 1.4.1 2.1.1h1 1.1c.6 0 1.1.1 1.6.2h.1 0l1.4.3c.3.1.6.1.9.2.2 0 .4.1.6.1l1.6.3c.3 0 .5.1.8.1h.8.2.5.8.4c.3 0 .5 0 .8-.1.2 0 .5-.1.7-.1.3-.1.6-.1.9-.2l.5-.1c.1 0 .3 0 .4-.1.3-.1.7-.1 1-.2.4 0 .7-.1 1.1-.1s.8-.1 1.2-.1h-.1l3.3-.2c.3 0 .6 0 .9-.1h.6 1.3.2.2 1.7.5.9.4 1.4l2.7-.1h.3 1 .8.3c.5 0 1.1 0 1.6.1.5 0 1.2 0 1.9.1h-.1l2.1.1h.6c.7 0 1.3 0 2-.1h.2.9 1 .7.2.9.8.5c1 0 1.9.1 2.9.2h.1c.4.1.8.1 1.3.2l1.4.3c.1 0 .3.1.4.1l.4.1c.3.1.5.1.8.1.5.1 1 .2 1.5.2.5.1 1 .1 1.5.1h.4c.8 0 1.5-.1 2.3-.2h.3c.5-.1.9-.1 1.5-.2h.1-.1.5c.3 0 .6-.1.9-.1.5-.1 1-.1 1.5-.1h1.1.7.4 1.1.1.9 1c.6 0 1.2 0 1.7-.1.5 0 1.1-.1 1.6-.2.4-.1.9-.1 1.4-.2.1 0 .2 0 .3-.1.2 0 .3-.1.5-.1.3 0 .6-.1.9-.1 1.6-.2 3.2-.3 4.8-.3h1 2.2 2.2 1.3.6.9 1.5 1.8.6 1.3.9.9c.6 0 1 0 1.6.1s1 .1 1.6.1h1.7 1.3 1.7 1.6 1.2 1 .8 1.2.6 2 .2 1.8c.7 0 1.4 0 2-.1.5 0 1.1-.1 1.6-.1.7 0 1.3-.1 2-.1h.2c.5 0 1 0 1.5-.1.6 0 1.2-.1 1.7-.2.3 0 .7-.1 1-.1.5 0 1-.1 1.5-.1.4 0 .8-.1 1.3-.1h.6.8 0c.4 0 .8 0 1.2.1.3.1.7.1 1 .2h.1.1c.2 0 .3.1.5.1s.5.1.7.1.4.1.7.1h.3.6c.3 0 .6-.1.9-.1.2 0 .4-.1.6-.1h.8 1.2.6 1.3.6.3 1.5.1 1.6.1 1.7.5.3.4.6c.3 0 .6 0 .8-.1.4 0 .7-.1 1.1-.1.6 0 1.2-.1 1.8-.1h.1c.7 0 1.3 0 1.9.1.3 0 .5 0 .8.1.4 0 .8.1 1.2.1.6 0 1.1.1 1.7.1s1.1.1 1.6.2c.3 0 .6.1.8.2l.4.1c.3 0 .5.1.8.1s.4.1.6.1c.3 0 .5.1.8.2.2 0 .3.1.5.1.4.1.8.1 1.2.2h.5c.3 0 .6 0 .9-.1.5-.1.9-.1 1.4-.2h.1c1.1-.3 2.3-.5 3.6-.6.3 0 .6 0 .8-.1h.6.4 1.3.2c.6 0 1.2.1 1.8.1.5 0 1.1.1 1.6.1.4 0 1 0 1.5.1.4 0 .9.1 1.4.2s1 .1 1.5.2c.5 0 1 .1 1.5.1h1.3.7.8.8.5-.2.4.4.6.4 0 .4 2.3 3.3 1.5.1 1.5c.5 0 .9 0 1.4-.1.4 0 .8-.1 1.1-.2h.4.4c.3 0 .7-.1 1-.1h.1-.1l2.3-.2h.1c.4 0 .7 0 1.1-.1.3 0 .7-.1 1-.1h.2.2l2.3-.4 1.1-.3.2-.1.9-.3c.4-.1.8-.2 1.1-.2.3-.1.7-.1 1-.2l2.1-.5.9-.3.9-.3.2-.1c.5-.2 1.1-.4 1.7-.5l1.9-.4h.3c.2 0 .5-.1.7-.1.1 0 .3-.1.4-.1.5-.1.9-.2 1.4-.2.2 0 .5-.1.7-.1.3 0 .5-.1.8-.2.6-.2 1-.4 1.3-.7l.3-.3.1-.1c.1-.1.3-.2.4-.4l.2-.2c.1-.1.2-.1.3-.2s.3-.2.4-.4l1-.6c.3-.2.7-.4 1.1-.6s.8-.3 1.2-.5.9-.3 1.3-.5c.2-.1.5-.2.7-.2l.7-.2h.1c.4-.1.8-.3 1.2-.4.5-.1.9-.2 1.4-.2h-.8c.3 0 .6-.1.9-.1.3-.1.6-.1.8-.2h.2c.2 0 .4-.1.6-.1.4-.1.7-.2 1-.2.4-.1.8-.2 1.2-.4l.2-.1 1.5-.6c.3-.1.6-.3.8-.4.2-.2.4-.3.6-.5l.1-.1.3-.3c.3-.3.7-.6.9-.9l.3-.3.2-.2c.2-.1.3-.3.5-.5s.3-.4.4-.7l.3-.6c.1-.2.3-.4.4-.6.1-.1.2-.3.3-.4l.4-.4c.2-.2.5-.3.8-.5l.3-.2c.2-.1.4-.2.5-.3.3-.2.5-.4.6-.6h0c0-.1.1-.1.1-.2v-.1c0-.1.1-.2.2-.3.2-.2.3-.4.6-.7.3-.2.6-.5.8-.7s.5-.5.8-.7.5-.4.8-.7l.7-.7c.1-.1.2-.3.3-.4s.1-.3.2-.4c.1-.3.1-.6.1-.9 0-.1-.1-.3-.1-.4v-.1c0-.1-.1-.2-.1-.4l-.9-1.7h0c0-.1-.1-.1-.1-.2-.2-.4-.2-.9 0-1.3.1-.2.2-.4.4-.7h0c.2-.2.3-.5.6-.7l.2-.2.1-.1.1-.1c.1-.1.2-.2.2-.3.2-.3.4-.5.5-.8.1-.2.2-.5.2-.8s.1-.6.1-.9v-.7-.1-.5-.3c0-.2 0-.3-.1-.5v-.2-.6-.5-.3-1.3h0v-.8-.4-.1-.6-.3-.4c-.1-.5-.1-.9-.1-1.3v-.1-1.2-.7-.1-.1-.2-.2-.2-.2-.1-.2-.2c0-.2 0-.4-.1-.6v-.3c0-.2-.1-.4-.1-.6v-.2-.2c0-.2-.1-.4-.1-.6v-.2l-.3-1.5v-.3c0-.1 0-.3-.1-.4v-.1-.2.3-.2-.2-.1-.1-.2c0-.1 0-.2-.1-.4v-.1-.1c0-.2-.1-.4-.2-.6.1-.1.2-.1.3-.2a.76.76 0 0 0 .2-.4v-.4c-.1-.1-.1-.2-.2-.3l-.1-.1-.1-.1-.5-.5c-.1-.1-.2-.3-.3-.4l-.1-.1c-.1-.1-.1-.2-.2-.3h0s0-.1.1-.1l.3-.3c.1-.1.2-.1.3-.2.1 0 .2-.1.3-.1l.2-.1c.4-.2.8-.5.9-.8.1-.1.2-.2.2-.4.1-.2.2-.3.2-.5 0-.3 0-.7-.2-1 0-.1-.1-.1-.1-.2 0 0 0-.1-.1-.1 0-.1-.1-.1-.1-.2s-.1-.1-.1-.2c-.1-.3-.3-.5-.5-.7l-.1-.1-.3-.3a1.38 1.38 0 0 0-.4-.3l-.2-.2c-.2-.1-.3-.3-.5-.4-.1-.1-.2-.2-.2-.4v-.3-.1-.2h0v-.1c0-.1.1-.3.1-.4 0-.2-.1-.4-.3-.6-.3-.2-.7-.5-1.2-.7l-.1-.1c-.4-.2-.8-.4-1.2-.5-.1 0-.3-.1-.4-.1h-.1-.1l-.3-.1h-.1-.1c-.1-.1-.1-.1-.1-.2s-.1-.1-.1-.2v-.1c0-.1-.1-.1-.1-.2-.1-.1-.1-.2-.1-.3v-.4-.1l.7-.7.3-.3c.2-.2.4-.4.7-.6l.2-.2c.2-.1.4-.2.5-.3.3-.2.5-.4.7-.5l.5-.5c.2-.2.3-.4.4-.6s.1-.3.1-.5v-.1-.6c0-.1-.1-.3-.1-.4-.1-.2-.4-.4-.7-.6-.1-.1-.2-.1-.4-.2h-.1c-.2-.1-.4-.1-.5-.2-.1 0-.3-.1-.4-.1h-.1c-.1 0-.2-.1-.4-.1h-.1c-.1 0-.2 0-.3-.1h-.1c-.1 0-.1-.1-.2-.1h0c-.1-.1-.1-.1-.1-.2v-.2c.2-.4.4-.8.7-1.1.2-.2.3-.4.5-.7.2-.2.4-.5.6-.7h0l.3-.3c.1-.1.3-.2.4-.3l.6-.3c.1-.1.3-.1.4-.2l.3-.1c.3-.1.5-.3.6-.4s.2-.2.3-.2c.1-.1.2-.2.3-.2l.6-.6a3.04 3.04 0 0 0 .5-.7c.2-.4.3-.7.4-1.1v-.2c0-.1 0-.1.1-.2 0-.1.1-.1.1-.2s0-.2.1-.3v-.3-.2c0-.1 0-.2-.1-.3v-.1c0-.1-.1-.2-.2-.3 0-.1-.1-.2-.1-.2v-.1-.2-.2-.2c.1-.2.2-.3.3-.5h0 0l.1-.1.3-.3c.3-.3.6-.7.7-1 0-.1.1-.2.1-.4s0-.3-.1-.5c0-.1-.1-.2-.2-.2l-.1-.1-.1-.1-.2-.2c-.3-.4-.5-.8-.6-1.1v.1c-.1-.2-.1-.4-.2-.7v-.1-.1c0-.1-.1-.3-.1-.4-.1-.2-.1-.4-.2-.6v-.7-.7-.2-.4-.2c0-.2 0-.4-.1-.7 0-.2-.1-.3-.1-.5v-.2-.2c0-.2-.1-.4-.1-.6 0-.5.1-.9.1-1.4v-.3c0-.2.1-.3.1-.4s0-.2.1-.3c0-.3.1-.5 0-.8v-.3c-.1-.4-.1-.9-.1-1.4v-1-.3-.5c0-.3.1-.5.1-.8 0-.1.1-.3.1-.4s.1-.3.1-.4c0-.2.1-.5.1-.7v-.1c0-.2 0-.3.1-.5 0-.1 0-.2.1-.3 0-.4 0-.7-.1-1.1 0-.1 0-.3-.1-.4v-.3-.4-.2c0-.1 0-.2-.1-.3 0-.2 0-.4.1-.6 0-.2.1-.4.1-.6 0-.1 0-.2.1-.2 0-.1.1-.2.1-.4.1-.2 0-.4 0-.7a3.04 3.04 0 0 0-.5-.7c-.2-.2-.5-.3-.8-.5h-.1c-.2-.1-.3-.2-.5-.4-.1-.1-.1-.1-.2-.1-.2-.2-.3-.3-.5-.4-.1-.1-.2-.2-.2-.3v-.4-.1-.2-.3-.1-.1l.1-.2c.1-.2.1-.4.2-.6v-.3-.4c0-.2.1-.3.2-.5l.1-.1c.3-.2.5-.3.7-.4.7-.4 1-.8 1.1-1.3h0v-.3c0-.1 0-.2-.1-.3l-.3-.3-.1-.1c-.3-.2-.6-.4-.8-.6l-.2-.2-.2-.2h0l-.1-.1c0-.1 0-.2-.1-.2v-.3c.1-.3.2-.6.4-.8.2-.3.4-.5.6-.8h0c.2-.3.4-.6.5-.9s.2-.6.2-1c.1-.6.1-1.3 0-1.9s-.1-1.3 0-1.9c.1-.2.1-.4.2-.6 0-.1.1-.2.1-.3 0-.2.1-.4.2-.5l.1-.2c.2-.5.3-1 .4-1.4v-.2c0-.2 0-.3.1-.5s.1-.5.1-.8c0-.2 0-.5-.1-.7-.1-.3-.1-.6-.1-.9v-.3c0-.2.1-.4.1-.6v-.6-.3c0-.3 0-.6.1-.9s0-.6 0-.9v-.2c0-.2-.1-.4-.1-.6v-.2-.7c0-.3 0-.6-.1-1v-.7c0-.2-.1-.4-.1-.6v-.1c0-.1 0-.2-.1-.3 0-.2-.1-.3-.1-.5-.1-.3-.2-.5-.3-.7s-.2-.4-.3-.7v-.1c-.1-.2-.3-.5-.4-.7s-.2-.5-.4-.7c-.1-.1-.2-.3-.3-.4s-.2-.2-.2-.3-.1-.1-.1-.2-.1-.1-.1-.2l-.3-.3-.1-.1-.3-.3h0c-.1-.1-.2-.2-.4-.3h-.1c-.2-.1-.5-.2-.8-.3h-.1c-.1 0-.1-.1-.2-.1s-.1-.1-.1-.1c0-.1-.1-.1-.1-.2 0-.2-.1-.3-.1-.5v-.2c0-.2 0-.3-.1-.5 0-.2-.1-.3-.1-.5s-.1-.4-.1-.7c-.1 0-.2-.1-.2-.2h0c-.1.1-.3.1-.4.1h-.3c-.1.1-.2.2-.5.3-.1 0-.2 0-.3.1 0 .1 0 .1-.1.2-.1.2-.1.4-.2.6 0 .1-.1.2-.1.3 0 .2-.1.3-.2.5-.1.1-.2.2-.4.2h-.4c-.2 0-.3 0-.5-.1-.1 0-.2-.1-.2-.1h0c-.2.1-.5.1-.8.1-.2 0-.4-.1-.5-.2l-.2-.2c-.1-.1-.1-.2-.2-.2-.1-.1-.1-.2-.2-.3-.1-.2-.2-.4-.2-.5s-.1-.2-.1-.3c0 0-.1 0-.1.1l-.2.1c-.2 0-.4.1-.6 0-.5 0-.7-.3-.8-.5-.1-.1-.1-.2-.2-.3h-.1c-.1 0-.2 0-.3.1h-.8c-.1 0-.2 0-.4-.1h-.4c-.4-.1-.7-.3-.5-.5.1-.2.5-.3.9-.3h.1.3c.1 0 .2 0 .3.1h.1s.1 0 .1-.1c.1-.1.3-.1.4-.2.2-.1.6-.1.9-.1.2 0 .4.1.5.2l.1-.1c0-.1.1-.1.1-.2.1-.1.1-.2.3-.2.1-.1.3-.1.5-.1.3 0 .6 0 .7.1.3.2.4.4.4.6l.1.2c.1-.4.1-.9.2-1.3 0-.2.3-.4.8-.4s.8.2.8.4v.8.1c.1 0 .1-.1.2-.1.2 0 .4-.1.6 0l.1-.3v-.1-.1c0-.1 0-.1.1-.2s.2-.2.4-.2.4-.1.6 0c.1 0 .2 0 .2.1v-.3-.2-1.2l.3-1c.2-.6.4-1.2.5-1.8.1-.3.1-.5.2-.8.1-.2.1-.4.2-.7v-.2l.3-.8c.1-.3.3-.6.5-.8s.4-.4.7-.6l.6-.3c.2-.1.4-.2.6-.4.4-.3.7-.6.9-.9.1-.1.1-.2.1-.3s.1-.1.1-.2c.1-.2.2-.3.3-.5v-.1c.2-.4.4-.7.5-1.1.2-.5.3-.9.3-1.4s0-.9-.1-1.3c0-.2-.1-.5-.1-.7v-.6c0-.2-.1-.4-.1-.7l-.1-.4c0-.4 0-.7.1-1.1.2-.6.5-1.1.9-1.7.2-.2.3-.5.4-.8s.2-.6.2-.9 0-.5-.1-.8l-.3-.9c-.1-.2-.2-.3-.3-.5-.1-.1-.1-.2-.2-.3-.2-.3-.3-.6-.4-.9 0-.1 0-.2-.1-.3 0-.1 0-.2-.1-.3-.1-.3-.1-.5-.1-.8v-.6-.2-.3-.6-1.5-.2-1.3-.2c0-.6.1-1.1.1-1.7v-.6-.2-.4-.4-.8-.9c0-.3 0-.6.1-.9 0-.3 0-.6.1-.9v-.7.1-.8-.8-.6-.3c0-.5.1-1 .2-1.4V57c0-.1 0-.3.1-.4v-.2-.3c0-.1 0-.3.1-.4 0-.2.1-.4.1-.5 0-.3.1-.6.1-.9 0-.5 0-1-.1-1.6v-.2c0-.2-.1-.4-.1-.5v-.4-.2-.1c0-.4 0-.9.1-1.3.1-.2.1-.4.2-.5l.1-.2c.1-.1.1-.2.2-.4l.3-1.3c0-.2.1-.5.1-.7s.1-.4.1-.6c0-.3.1-.7.2-1.1.1-.3.1-.6.2-.8 0-.3 0-.7-.1-1-.1-1-.1-1.6 0-2.3zm-72.2 169.2c-.5.3-1.3.4-2.2.4-.3 0-.6 0-.9-.1s-.6-.1-.9-.2l-.2-.1h-.1l-.2.1h.1l-.5.3c-.4.3-.9.6-1.5.9-.7.4-1.5.7-2.3 1-.5.2-1.1.3-1.7.3-.5 0-1-.1-1.3-.3s-.5-.4-.5-.6v-.1a.55.55 0 0 1 .3-.5c.1-.1.3-.2.5-.3s.4-.1.5-.2l.3-.1c.2-.1.4-.2.6-.2.1-.1.2-.1.3-.2.4-.3.7-.5 1-.8s.7-.6 1.2-.8c.4-.2.8-.5 1.2-.7l.4-.2c.1-.1.2-.1.2-.2l.3-.6.3-.6c.2-.3.5-.6.9-.9.2-.2.6-.3 1-.4.2-.1.5-.1.8-.1h.5c.3 0 .6.1.8.2a1.38 1.38 0 0 1 .4.3l.1.1c.1.1.2.2.2.3s.1.2.1.3v.1c.1.1.1.2.2.3l.3 1v.4.3c.1.1.1.2.2.4l.1.1c.1.2.2.4.2.6.1.2-.1.5-.7.8zm23.6-23.8c-.2.2-.5.4-.9.6-.6.3-1.3.6-2.1.8-.1 0-.1 0-.2.1l-.6.2-.2.1c-.1.1-.3.1-.4.1h-.1l-1.8.6-.6.3-.6.3-.6.3-.6.4c-.7.5-1.6 1-2.5 1.4l-1 .4-2.6 1.2c-.5.3-1.2.6-1.9.9l-.6.3c-.2.2-.4.3-.7.5-.4.3-.9.6-1.4.9s-1 .5-1.7.7c-.5.2-1.1.3-1.8.4-.5.1-1.1.1-1.6.1h-.6c-.3 0-.7 0-1-.1h-.3c-.4 0-.7 0-1.1-.1-.6-.1-1.2-.3-1.7-.5-.5-.3-.8-.6-.9-.9v-.1c-.2-.2-.2-.3-.3-.5v-.1-.1c0-.2.1-.5.4-.7l.3-.2c.1-.2.3-.3.4-.5.3-.3.6-.5 1-.8.5-.3 1-.6 1.6-.8.4-.2.8-.3 1.3-.5l.3-.1c.4-.1.8-.3 1.2-.5l2.6-.9c.6-.2 1.2-.4 1.9-.5l2.4-.7 2.1-.5c.6-.1 1.2-.3 1.7-.4l.3-.1.3-.1c.2-.1.3-.2.5-.3.1-.1.3-.2.5-.2.1 0 .2-.1.3-.1l.6-.3.4-.2c.4-.3.8-.5 1.3-.7l1.8-.7.2-.1c.6-.3 1.3-.5 2.1-.6.3 0 .6-.1.9-.1.5 0 1 0 1.5.1.8.1 1.5.3 2 .5 1.1.6 1.2 1.3.5 1.8h0z"/></svg>