<svg xmlns="http://www.w3.org/2000/svg" width="799.041" height="228.227" viewBox="0 0 799.041 228.227">
  <defs>
    <style>
      .a {
        fill: #241e1f;
      }
    </style>
  </defs>
  <g>
    <path class="a" d="M798.912,10.209l-.009.01.014-.013h0Z"/>
    <path class="a" d="M375.8.665l-.105-.011h-.009Z"/>
    <g>
      <path class="a" d="M737.728,170.645c-.593-.022-1.192-.034-1.791-.036-.373,0-.745.006-1.113.02-.851.036-1.685.094-2.486.174l-.223.019c-.569.042-1.4.108-2.141.179-.545.059-1.077.125-1.592.2l-.426.056-.7.093-.362.038c-.2.02-.388.041-.56.062-.224.028-.427.053-.631.076l-.366.023-.369.025c-.67.043-1.38.081-2.066.117-.9.048-1.732.091-2.5.145-.941.067-1.9.13-2.861.193-.755.05-1.5.1-2.244.15-1.094.077-2.113.168-3.1.256-.548.05-1.009.091-1.476.131l-.343.027c-.575.045-1.1.086-1.563.132q-1,.1-1.932.233c-.431.061-.834.135-1.2.218a4.736,4.736,0,0,0-.537.143l-.33.049c-.293.039-.491.111-.529.194a.084.084,0,0,0,.01.032.24.24,0,0,1,.037.03.243.243,0,0,0,.128.076,1.572,1.572,0,0,0,.2.054l.033.022a2.8,2.8,0,0,0,1.084.253c.641.063,1.309.106,1.99.13q.636.021,1.279.022l.353,0,1.216.014c.239,0,.479,0,.711,0q.967,0,1.93-.026c.715-.018,1.422-.052,2.112-.1s1.355-.108,1.99-.188q.893-.118,1.734-.259l.782-.124.733-.095c.83-.083,1.63-.177,2.274-.25.987-.12,2.105-.235,3.094-.335l1.163-.121q1.551-.168,3-.388l.675-.1.72-.085.695-.075.7-.076c.773-.049,1.546-.113,2.166-.164l.162-.013.469-.041.266-.022.764-.064.256-.02q1.275-.1,2.5-.225c.364-.042.708-.095,1.023-.157.772-.164.625-.337-.4-.475C739.375,170.714,738.56,170.663,737.728,170.645Z"/>
      <path class="a" d="M798.912,10.209l-.009.01.014-.013h0Z"/>
      <path class="a" d="M375.8.665l-.105-.011h-.009Z"/>
      <path class="a" d="M798.882,33.853l-.019.042.012-.033v-.009h0l.008-.023.013-.029a1.173,1.173,0,0,0,.105-.822,1.348,1.348,0,0,0-.347-.514,5.143,5.143,0,0,0-.682-.493c-.284-.183-.593-.365-.9-.544a.932.932,0,0,0-.076-.156,2.681,2.681,0,0,0-1.069-.786q-.695-.345-1.377-.689l-.186-.095-.189-.1-.074-.065-.077-.066a.8.8,0,0,0-.352-.134c-.186-.1-.367-.2-.53-.311a.955.955,0,0,1-.248-.269.4.4,0,0,1-.037-.232.858.858,0,0,1,.069-.062c.112-.067.23-.134.346-.2.214-.119.427-.243.613-.37.082-.063.153-.125.223-.188.056-.048.108-.095.169-.143.142-.114.3-.225.469-.338l-.02.009c.057-.03.1-.055.134-.079a1.168,1.168,0,0,0,.249-.239.424.424,0,0,0,.031-.431.586.586,0,0,0-.205-.206,3.341,3.341,0,0,0-.335-.212c-.174-.1-.371-.189-.569-.281l-.274-.127-.6-.286-.971-.465c-.32-.153-.568-.281-.783-.4-.233-.135-.469-.284-.722-.456a2.228,2.228,0,0,1-.392-.342.9.9,0,0,1-.178-.292c-.037-.1-.084-.2-.129-.3l-.029-.065a3.415,3.415,0,0,1-.142-.521v-.042a1.2,1.2,0,0,1-.023-.216.571.571,0,0,1,.074-.248,1.486,1.486,0,0,1,.248-.341c.105-.112.21-.224.329-.335a1.769,1.769,0,0,0,.307-.366.511.511,0,0,0,.059-.378,1.515,1.515,0,0,0-.606-.834,4.366,4.366,0,0,0-.61-.415,7.276,7.276,0,0,0-.771-.361l-.165-.07c-.189-.083-.388-.164-.583-.246q-.782-.312-1.43-.644c-.185-.1-.371-.2-.557-.3-.254-.143-.512-.283-.779-.421-.4-.211-.939-.489-1.529-.767-.536-.25-1.171-.493-1.736-.706l-.376-.151c-.246-.1-.494-.194-.755-.29q-.639-.232-1.372-.448l-.376-.114c-.5-.152-1.011-.3-1.538-.448q-.9-.241-1.648-.516c-.159-.064-.318-.127-.463-.193-.2-.091-.379-.185-.557-.279l-.117-.061-1.145-.6c-.314-.165-.694-.358-1.113-.545q-.711-.312-1.564-.6c-.378-.128-.787-.25-1.186-.368-.2-.059-.393-.117-.589-.179l-.307-.093q-.6-.2-1.312-.371c-.6-.132-1.246-.248-1.934-.348l-.088-.014c-.272-.042-.562-.078-.853-.116l-.3-.037c-.439-.058-.884-.106-1.331-.153-.514-.054-1-.1-1.482-.144-.319-.028-.636-.057-.949-.089l-1-.1-1-.1c-.322-.032-.641-.068-.958-.1-.366-.041-.733-.082-1.1-.119-.719-.069-1.432-.143-2.146-.216l-.624-.066c-.462-.05-.921-.1-1.39-.143-.25-.023-.5-.049-.746-.077l-.418-.045-.843-.083-.352-.036c-.659-.065-1.53-.147-2.425-.215q-1.01-.068-2.046-.107c-.922-.052-1.823-.125-2.692-.219-.445-.06-.866-.131-1.255-.212a9.329,9.329,0,0,1-.983-.313c-.152-.062-.3-.126-.441-.189-.118-.052-.231-.1-.358-.155a9.382,9.382,0,0,0-1.155-.386c-.5-.132-1.048-.251-1.639-.355-.263-.048-.529-.091-.8-.133-.3-.048-.607-.089-.933-.123-.514-.052-1.05-.089-1.6-.112-.623-.026-1.228-.039-1.74-.049-.217,0-.435-.007-.652-.012q-.569-.006-1.137-.022c-.6-.017-1.186-.04-1.776-.064l-.888-.039c-.426-.021-.844-.044-1.262-.067-.522-.027-1.042-.056-1.563-.079-.569-.025-1.137-.042-1.706-.06-.465-.014-.93-.028-1.389-.046l-2.041-.1c-.381-.019-.766-.032-1.147-.044-.305-.009-.608-.019-.908-.032-.746-.033-1.492-.062-2.241-.092-.465-.018-.936-.026-1.406-.036-.254,0-.507-.008-.766-.016-.993-.047-1.956-.127-2.866-.238-.521-.073-1.011-.16-1.462-.259-.266-.062-.532-.126-.8-.189-.939-.246-1.984-.464-3.115-.651-.8-.119-1.628-.221-2.49-.3-.836-.076-1.691-.138-2.559-.186l-.331-.021c-.75-.046-1.5-.083-2.257-.12l-.827-.041c-.667-.036-1.336-.08-1.99-.125-.382-.025-.759-.051-1.137-.074l-1.271-.08-1.279-.08c-1.036-.064-2.132-.12-3.357-.171-.8-.039-1.571-.085-2.216-.125l-.372-.023c-.647-.04-1.3-.081-1.942-.124-1.32-.087-2.874-.2-4.406-.328l-.252-.021c-.555-.048-1.113-.1-1.671-.14-.8-.059-1.607-.1-2.426-.136-.326-.013-.65-.026-.978-.036-.211,0-.427-.006-.634-.006h-.469c-.623.008-1.243.026-1.856.054q-.465.011-.926.01c-.284,0-.568,0-.852-.006h-.158c-.488,0-.948-.008-1.422-.025q-.57-.034-1.114-.091c-.4-.035-.8-.08-1.19-.128-.456-.061-.885-.134-1.279-.219-.338-.086-.685-.188-1.1-.316A6.675,6.675,0,0,0,661.234.9c-.337-.054-.7-.1-1.07-.133-.422-.04-.865-.066-1.315-.075-.194,0-.387.007-.578.014a3.522,3.522,0,0,0-.354.026,6.963,6.963,0,0,0-.968.153q-.33.088-.621.185c-.185.057-.363.115-.569.167-.081.013-.166.026-.254.036s-.205.017-.31.023h-.105c-.092,0-.184,0-.275,0q-.322-.022-.632-.055c-.272-.036-.54-.069-.8-.107s-.535-.085-.775-.137l-.3-.078c-.231-.059-.457-.119-.7-.172a11.524,11.524,0,0,0-1.6-.2c-.485-.039-.983-.065-1.489-.079-.051,0-.1,0-.155,0h-.6c-.106,0-.212-.005-.319-.005h-.779c-.17,0-.344,0-.515.006-.5.012-1,.039-1.481.081-.239.022-.478.046-.711.071-.158.016-.32.034-.485.048-.487.045-.992.076-1.506.094q-.564.01-1.126.01h-1.185c-.719,0-1.437-.018-2.147-.046-.344-.016-.69-.03-1.044-.044S635.754.64,635.4.619c-.637-.036-1.271-.071-1.913-.1l-.092,0-.089,0C632.6.48,631.925.45,631.238.429q-.909-.024-1.825-.019h-1.38c-.638,0-1.279,0-1.91.01-.723.007-1.464.028-2.176.049l-.3.007c-1.15.031-2.332.043-3.472.053l-.449,0-2.655.022-1.328.01c-.5,0-1.012.006-1.518.006-1.715,0-3.462-.019-5.146-.038L607.552.515l-.456,0c-.5,0-1.014-.008-1.522-.018-.475-.009-.953-.022-1.422-.036l-.84-.02c-1.705-.039-3.375-.1-5.227-.176-.711-.034-1.365-.064-2.006-.1l-.1,0q-1.1-.062-2.212-.093c-.9-.021-1.86-.031-3.038-.031h-.8c-1.053,0-2.179.019-3.652.053q-2.1.048-4.166.153l-.742.043-.2.012L581,.307c-.238.015-.477.028-.711.047-.3.024-.594.052-.891.08-.243.024-.488.048-.735.068q-1.011.08-2.051.13c-.607.033-1.242.068-1.848.114-.524.04-1.057.088-1.63.143-.276.029-.554.056-.832.084-.477.051-.953.1-1.445.143-.616.049-1.247.085-1.886.107l-.38.016c-.71.032-1.413.058-2.123.082h-.047c-.726.021-1.478.045-2.22.049h-.478c-.614,0-1.228-.007-1.841-.016l-.73-.009-.729-.011-.873-.014c-.253-.006-.5-.011-.757-.014l-.674-.011L557.1,1.28l-.72-.013-.9-.018c-.788-.011-1.83-.025-2.881-.027h-.739l-.742,0h-1.369c-.851.009-1.7.034-2.536.073-.7.032-1.4.059-2.1.087l-.11,0-.455.012-.48.014c-.468.012-.958.032-1.591.064-.675.038-1.34.088-1.989.148-.251.024-.5.045-.751.066-.853.069-1.741.132-2.648.184q-.3.018-.6.031c-.2.01-.439.022-.654.036-.439.027-.875.048-1.316.065q-1.3.039-2.588.089c-.783.03-1.564.068-2.348.1l-.667.032-.661.032c-.241.011-.487.02-.73.028l-.488.018-.178.007-1.9.074c-.568.012-1.157.017-1.722.02-.3,0-.6,0-.893,0l-.61.007c-.307,0-.612.008-.914.011l-.508,0c-.434,0-.869,0-1.3-.011l-.647-.014c-.241,0-.48-.011-.723-.014-.436-.005-.876-.01-1.312-.01-1.025,0-2.055.015-3.111.029-.5.006-1,.023-1.486.04l-.334.01c-.382.014-.763.025-1.137.044-1.142.055-2.27.128-3.378.216-1,.078-2.012.139-3.039.185-.972.043-2.1.1-3.226.132q-1.188.031-2.371.059c-.368.009-.742.012-1.114.012s-.768,0-1.155-.008l-.142,0c-1.29-.016-2.621-.031-3.938-.031h-.776l-.7,0c-.553,0-1.1.006-1.652.006h-.623q-.939,0-1.88-.007-1.137-.009-2.274-.009c-.819,0-1.555,0-2.3.018l-2.385.044c-.308,0-.617.012-.924.019-.426.008-.853.018-1.279.023-1.529.014-3.14.035-4.776.066-1.366.026-2.74.082-4.069.137l-.63.026-.4.016c-.8.031-1.59.063-2.38.1-.606.031-1.207.069-1.806.108-.4.026-.8.051-1.208.075-.626.035-1.256.066-1.881.1-.468.021-.937.045-1.4.069-1,.055-1.862.094-2.663.12h.142c-.569.016-1.137.035-1.713.056-.487.018-.974.036-1.458.051l-.08,0v0l-.86.029L451,4.151c-1.3.036-2.621.088-3.891.139l-2.1.081-1.422.044c-.54.015-1.054.029-1.563.036-.331.006-.665.01-.995.013-.4,0-.8.009-1.2.017-.675.014-1.344.034-2.015.054l-.347.011c-.335.01-.669.024-1.006.038-.3.011-.593.023-.891.033-.691.016-1.352.023-2.02.023h-.108q-.339,0-.675-.013l-.36-.01-.77-.02-.284-.009c-.363-.008-.766-.014-1.224-.014-.358,0-.711,0-1.075.006-.747.007-1.491.013-2.241.013h-.152c-.464,0-.925-.006-1.386-.012l-.691-.007h-.445c-.395,0-.791,0-1.186.007l-.569,0h-.261c-.525,0-1.058-.008-1.58-.017-.655-.013-1.316-.029-1.974-.045l-.625-.016h0A2.236,2.236,0,0,0,416.9,4.7l-.622-.015L415.6,4.67c-1.123-.023-2.264-.027-3.372-.029h-.258l-1.733-.006-1.751-.007q-1.32,0-2.641,0h-4.386c-1.1,0-2.2-.007-3.293-.036-.687-.032-1.36-.081-2.01-.146-.592-.083-1.159-.178-1.695-.282-.569-.11-1.154-.215-1.743-.319-.523-.1-1.078-.18-1.66-.251-.334-.04-.669-.084-1-.127-.4-.05-.8-.1-1.208-.15-1.107-.136-2.2-.267-3.3-.375-1.252-.123-2.547-.215-3.688-.3-.327-.023-.655-.04-.985-.057l-.55-.031c-.5-.03-1-.056-1.487-.082l-.17-.009c-.879-.052-1.73-.131-2.536-.233-.16-.021-.31-.046-.448-.076l.134.036-.142-.036h.011c-.05-.011-.1-.024-.142-.037l-.05-.02h.009l-.024-.042h.008a2.814,2.814,0,0,1,.452-.372,1.879,1.879,0,0,0,.306-.248c.122-.147.088-.3-.1-.442a2.729,2.729,0,0,0-.727-.329,7.035,7.035,0,0,0-1.193-.229c-.428-.057-.869-.108-1.319-.153-.2-.02-.393-.04-.589-.062-.472-.052-.978-.1-1.647-.156-.458-.033-.929-.052-1.4-.057l-.143,0c-.141,0-.284,0-.426,0-.227,0-.461,0-.694.008l-.382,0q-1.236.015-2.473.027c-1.441.014-2.883.029-4.322.053-.985.018-1.959.044-3.12.077-.542.016-1.082.036-1.622.055-.675.025-1.352.049-2.031.066-.585.014-1.171.024-1.761.032-.536.007-1.073.016-1.606.027-.93.024-1.852.063-2.76.118-.5.028-.985.071-1.464.111-.329.027-.661.054-1,.079s-.626.047-.937.074c-.493.039-.988.077-1.482.109q-.559.037-1.107.081c-.481.036-.961.074-1.449.1l-.783.047c-.613.035-1.224.073-1.848.1l-.722.029q-1.128.05-2.274.071c-.949.007-1.894.035-2.823.085a8.082,8.082,0,0,0-1.351.2c-.405.114-.654.257-.711.409s.027.306.25.449a1.445,1.445,0,0,1,.239.223v.042h0a.259.259,0,0,1-.064.056c-.067.014-.13.03-.19.046-.218.039-.446.074-.681.106l-.243.029c-.4.046-.8.092-1.214.131-.581.057-1.184.1-1.8.125-.413.013-.821.023-1.238.029-.121,0-.242,0-.363,0-.254,0-.509,0-.763-.007l-.476,0c-1.228-.007-2.338-.019-3.394-.036-.956-.018-1.962-.042-3.078-.076l-.311-.011c-.426-.013-.853-.027-1.292-.039-.5-.012-1.013-.017-1.521-.016h-.5c-2.558,0-4.863.029-7.051.075-.568.013-1.137.028-1.718.043-.438.013-.88.025-1.321.036-.366.009-.73.016-1.1.016-.142,0-.3,0-.453,0-.691-.011-1.368-.033-1.878-.05h-.024c-.8-.032-1.59-.079-2.365-.138l-.853-.068c-.5-.041-1-.082-1.494-.116-.685-.046-1.391-.076-2.078-.1l-.443-.019c-.853-.036-1.7-.067-2.559-.1-.621-.026-1.186-.055-1.731-.091l-.419-.027q-.621-.048-1.261-.074c-.411-.014-.825-.022-1.239-.023h-.306c-.559.013-1.113.039-1.651.079l-.255.018c-.344.021-.681.047-1.017.073l-.561.042c-.479.036-.958.064-1.444.092l-.48.029c-1.215.072-2.462.126-3.627.172-.407.013-.829.023-1.248.033-.469.012-.941.023-1.41.039-.833.028-1.713.069-2.762.13-.358.022-.71.042-1.073.062l-1.218.069c-.379.022-.755.047-1.13.072-.5.033-1,.065-1.5.092-.821.047-1.621.114-2.389.2-.839.1-1.65.213-2.425.341-.408.063-.8.133-1.2.2-.307.054-.614.108-.928.157-.744.117-1.517.222-2.314.314-.606.071-1.216.134-1.828.2l-.235.025-.391.04c-.528.055-1.054.109-1.594.157-1.194.094-2.416.163-3.655.208l-.326.014c-.791.029-1.6.036-2.378.048l-.488,0c-1.022.012-2.035.031-3.016.055-.347.007-.694.018-1.045.029-.649.019-1.319.039-1.978.045h-.314q-1.12-.006-2.229-.049c-.443-.019-.892-.039-1.339-.061l-.392-.019c-.63-.03-1.268-.045-1.909-.046h-1.44c-1.112,0-2.224,0-3.337-.007q-2.6-.011-5.208-.013c-1.705,0-3.409-.023-5.1-.075-.469-.019-.941-.042-1.408-.068-.253-.013-.5-.028-.748-.044-.311-.018-.622-.039-.934-.053-.93-.042-1.873-.062-2.818-.06q-.438,0-.876,0c-3.3.029-6.188.079-8.836.154l-.142,0c-.584.015-1.163.033-1.749.039-.173,0-.351,0-.524,0-.487,0-.974-.006-1.461-.012l-.343,0c-1.012-.012-2.035-.039-3.027-.063l-1.086-.027c-.389-.011-.78-.017-1.171-.018-.142,0-.27,0-.407,0-.682.009-1.363.028-1.99.046-.932.027-1.877.068-2.79.108l-1,.043c-1.073.036-2.167.058-3.193.075-.393.008-.791.01-1.187.01-.448,0-.893,0-1.343,0-.285,0-.569,0-.863-.006q-3.183-.009-6.366-.036c-2.087-.016-4.179-.021-6.318-.023-1.993,0-3.985-.031-5.961-.1q-1.524-.069-3.012-.179-.592-.04-1.195-.072l-.327-.018-.479-.028c-.419-.024-.84-.049-1.279-.064q-1.866-.07-3.752-.091-1.766-.012-3.517-.072c-.906-.035-1.8-.092-2.656-.172-.658-.063-1.312-.14-1.946-.214l-.441-.052c-1.022-.135-2.1-.241-3.218-.316-.56-.031-1.132-.045-1.705-.042h-.263c-.82,0-1.494-.007-2.117-.022-.88-.042-1.738-.11-2.558-.2l-.553-.068c-.533-.068-1.069-.136-1.612-.2-.847-.093-1.731-.163-2.636-.21-.206-.013-.387-.021-.569-.031-.274-.015-.545-.029-.814-.048-.331-.022-.657-.052-.978-.081l-.21-.019q-1.213-.105-2.469-.173c-.235-.013-.465-.021-.7-.032-.142,0-.276-.01-.412-.017l-.371-.016c-.307-.014-.619-.03-.929-.036-.7-.018-1.412-.018-2.1-.02h-.989q-2.461,0-4.912-.065-.855-.036-1.687-.1l-.171-.013c-.247-.021-.492-.039-.743-.054s-.525-.023-.788-.032l-.164,0c-.519-.02-1.026-.056-1.51-.107-.27-.036-.537-.072-.8-.111-.323-.046-.641-.091-.969-.133-.077-.01-.143-.022-.219-.033l-.057-.016c-.161-.049-.343-.093-.542-.133-.3-.053-.641-.095-1-.124-.5-.037-1.008-.061-1.525-.071l-.335-.011c-.687-.027-1.376-.073-2.038-.116-.433-.025-.875-.039-1.319-.042l-.292,0c-.351-.006-.71-.013-1.054-.025-.624-.036-1.23-.088-1.808-.157-.748-.106-1.546-.188-2.374-.244C93.155,1,92.734.988,92.311.988q-.923,0-1.838.036l-.105,0q-.852.026-1.69.074c-.451.031-.891.073-1.314.124-.552.059-1.123.107-1.706.143-.726.047-1.4.085-2.047.115-1.2.036-2.416.045-3.607.055-.924.009-1.88.016-2.819.036-.824.017-1.66.044-2.47.071l-.322.012c-.411.014-.823.023-1.236.033s-.852.019-1.279.033c-.666.02-1.317.063-1.934.129s-1.227.169-1.785.275l-.417.078c-.314.061-.627.121-.949.174-.4.069-.827.127-1.251.185-.206.025-.415.049-.625.072s-.391.035-.59.053c-.117.011-.238.02-.36.032-.274.026-.556.054-.828.083-.211.02-.427.036-.642.049-.142.009-.271.019-.407.029a20.358,20.358,0,0,0-2.242.332c-.263.052-.533.1-.8.153-.48.09-.976.183-1.438.286l-.069.015-.069.02v0c-.473.1-.937.215-1.4.325-.061.014-.126.03-.2.044-.145.031-.28.065-.406.1l-.081.016-.08.019-.284.057-.513.108c-.456.089-.925.173-1.4.255-.509.091-1.04.185-1.535.286-.715.152-1.391.316-2.022.489-.444.117-.9.237-1.376.348-.435.094-.879.179-1.331.268-.265.049-.537.1-.807.143-.315.057-.632.111-.937.172a27.615,27.615,0,0,0-2.942.775c-.541.17-1.1.339-1.656.506-.426.127-.842.255-1.26.384-.189.059-.373.121-.555.178-.214.072-.426.143-.646.21-.416.129-.863.253-1.338.369-.617.131-1.263.255-1.892.376l-.3.058c-.937.179-2.163.421-3.346.694-.375.086-.737.178-1.094.268l-.33.082-.129.033c-.556.139-1.11.277-1.652.42-.614.165-1.094.3-1.521.429s-.8.253-1.194.381L24.9,11.6c-.627.2-1.312.391-1.974.577-.307.085-.613.171-.916.257-.956.271-1.88.552-2.736.817l-.355.111c-.358.11-.711.221-1.077.331-.272.08-.556.16-.84.239q-.261.072-.518.146c-.2.059-.4.121-.585.185-.143.046-.285.092-.427.135q-.558.173-1.189.328-.672.129-1.393.241c-.5.076-.982.161-1.442.252q-.522.108-1.049.211c-.646.128-1.319.261-1.948.406-.2.047-.391.093-.577.144a6.253,6.253,0,0,0-.853.3l-.122.049a1.79,1.79,0,0,0-.69.476.612.612,0,0,0-.157.481l.031.074c.028.054.053.109.081.166a1.1,1.1,0,0,0,.08.126,1.971,1.971,0,0,0,.17.206,2.982,2.982,0,0,0,.473.37,2.084,2.084,0,0,1,.492.616,2.07,2.07,0,0,1,.037.7l-.008.207v.184c-.007.245-.016.488-.029.732a2.484,2.484,0,0,0,.114,1.014,2.024,2.024,0,0,0,.274.534A1.291,1.291,0,0,0,7.9,22.4c.033.047.07.093.106.139a.586.586,0,0,0,.008.118v.04a.687.687,0,0,0,.11.286l.015.029a1.192,1.192,0,0,0,.419.321l.1.058.031.026h0l.046.173a2.339,2.339,0,0,0,.217.572,1.529,1.529,0,0,0,.427.429,3.723,3.723,0,0,0,.411.25,4.13,4.13,0,0,0,.568.219l.191.088c.062.03.109.052.169.078.184.077.388.152.609.222l.127.044a5.489,5.489,0,0,0,.814.232c.259.055.522.11.792.159l.057.02a.6.6,0,0,1,0,.415.409.409,0,0,1-.084.09c-.052.019-.11.037-.173.054l-.094.018c-.117.019-.233.039-.354.057-.5.038-.995.084-1.485.131l-.863.078a13.117,13.117,0,0,0-2.124.395,3.025,3.025,0,0,0-.939.358c-.149.118-.2.243-.142.366a1.228,1.228,0,0,0,.2.424,1.039,1.039,0,0,0,.178.191,1.338,1.338,0,0,1,.169.167,3.461,3.461,0,0,1-.3,1.645,2.239,2.239,0,0,1-.52.7c-.1.087-.218.174-.334.257l-.1.077a2.1,2.1,0,0,0-.263.231l-.1.1a1.1,1.1,0,0,0-.34.751l-.023.136a3.441,3.441,0,0,1-.18.641c-.053.1-.114.2-.175.3a3.7,3.7,0,0,0-.222.4.507.507,0,0,0,.132.457l.02.032a1.7,1.7,0,0,0,.832.615,4.423,4.423,0,0,0,.655.214q.339.078.711.146l.112.021a5.962,5.962,0,0,0,1.114.094c.232,0,.463-.009.685-.025.44-.03.863-.073,1.26-.129a3.438,3.438,0,0,0,.96-.291l.11-.046.061-.022c.09-.03.175-.059.257-.091.057-.017.121-.032.185-.048.09-.017.178-.036.272-.052l.2-.035c.236-.049.457-.1.661-.158l.226-.037.165-.026c.1-.016.194-.034.284-.053.066-.016.136-.03.211-.042l.142-.025.266-.049a4.331,4.331,0,0,0,.533-.149c.021,0,.081-.021.142-.038s.128-.035.184-.054a2.045,2.045,0,0,0,.248-.107l.076-.036.114-.031.142-.042a1.909,1.909,0,0,0,.427-.179c.081-.047.166-.093.251-.14.125-.069.25-.14.363-.21s.21-.13.315-.191.226-.134.329-.2a3.738,3.738,0,0,1,.426-.242,2.989,2.989,0,0,0,.267-.155c.061-.04.122-.08.191-.118.051-.028.1-.056.156-.083l.181-.1a1.834,1.834,0,0,0,.181-.122l.049-.036a8.022,8.022,0,0,1,.747-.411c.143-.067.307-.129.469-.192.143-.055.246-.1.347-.14.084-.036.171-.072.258-.105.287-.1.608-.2.958-.285.325-.072.676-.136,1.048-.192.25-.024.509-.043.772-.056.1.006.2.013.3.023s.208.035.3.056.171.041.255.063.17.041.257.061l.036.023h0a1.335,1.335,0,0,1-.056.322v.023a3.533,3.533,0,0,1-.173.521,1.041,1.041,0,0,1-.252.276,5.5,5.5,0,0,1-.757.36c-.307.123-.6.253-.893.38-.1.043-.166.071-.239.1s-.142.059-.2.088c-.1.043-.178.089-.258.134l-.109.059a2.088,2.088,0,0,0-.468.319.558.558,0,0,0-.142.252l-.017.059a3.218,3.218,0,0,1-.246.353.332.332,0,0,0,.016.555,1.651,1.651,0,0,0,.711.262,5.822,5.822,0,0,0,.928.075h0a7.225,7.225,0,0,0,1.013-.086l.077-.01c.142-.02.284-.041.415-.065l.237-.038c.121-.012.239-.022.36-.032l.375-.033q.4-.041.81-.066a1.773,1.773,0,0,0,.189.075l.036.125.035.13a2.98,2.98,0,0,0,.229.5,1.676,1.676,0,0,0,.189.269,2.3,2.3,0,0,0,.584.436,1.986,1.986,0,0,1,.09.452l.02.178.013.088a1.049,1.049,0,0,1,.02.435.83.83,0,0,1-.171.193,2.691,2.691,0,0,1-.3.147l-.366.08-.492.1c-.156.027-.318.052-.485.075-.084.011-.165.023-.241.035-.384.058-.776.113-1.171.164s-.8.1-1.192.153a8.318,8.318,0,0,0-.9.166q-.368.1-.667.212a6.085,6.085,0,0,0-.568.229,1.757,1.757,0,0,0-.36.244l-.053.045a.737.737,0,0,0-.234.34.283.283,0,0,0,.011.192l.016.044a1.3,1.3,0,0,1-.016.874,2.667,2.667,0,0,1-.173.265,2.042,2.042,0,0,0-.158.238.805.805,0,0,0-.085.361.875.875,0,0,1-.044.264.727.727,0,0,1-.157.165c-.113.06-.238.119-.378.178l.009,0c-.08.03-.166.06-.259.088a1.178,1.178,0,0,1-.189-.018l-.089-.024c-.047-.024-.094-.046-.143-.066-.073-.034-.15-.067-.217-.1l-.033-.041c-.055-.063-.108-.126-.169-.188a1.152,1.152,0,0,0-.1-.077.614.614,0,0,1-.114-.1.7.7,0,0,1-.024-.165v-.069a.766.766,0,0,0-.5-.622,2.1,2.1,0,0,0-.548-.164l-.151-.025-.077-.013c-.085-.041-.132-.071-.186-.1a2.342,2.342,0,0,0-.568-.169c-.132-.028-.269-.055-.413-.079-.1-.015-.2-.028-.307-.038l-.044-.055a.3.3,0,0,0-.015-.115,1.614,1.614,0,0,0-.152-.393,1.328,1.328,0,0,0-.347-.335l-.06-.044c-.084-.064-.17-.128-.27-.192a1.681,1.681,0,0,0-.338-.138c-.04-.018-.066-.03-.088-.042A2.5,2.5,0,0,0,12.9,38.6a5.561,5.561,0,0,0-1.093-.133c-.239-.007-.48-.008-.722-.01a10.272,10.272,0,0,0-1.6.112,6.381,6.381,0,0,0-.647.149l-.18.047-.211.056c-.169.044-.331.089-.509.129q-.38.076-.71.166a4.06,4.06,0,0,0-.391.147c-.068.029-.134.058-.209.085a1.813,1.813,0,0,0-.2.091c-.046.022-.093.045-.143.065-.073.034-.15.065-.233.1-.113.05-.233.1-.335.148l-.048.033a.716.716,0,0,0-.081.055,1.049,1.049,0,0,1-.11.067c-.04.023-.072.046-.108.07a1.748,1.748,0,0,0-.276.212.326.326,0,0,0-.075.125l-.024.055a3.687,3.687,0,0,1-.263.377l-.028.035a.793.793,0,0,0-.214.6,1.236,1.236,0,0,0,.3.651,2.894,2.894,0,0,0,.454.4,1.966,1.966,0,0,1,.4.394,3.034,3.034,0,0,1,.013.344v.506l.009.339a11.689,11.689,0,0,0,.108,1.186c.105.871.142,1.74.156,2.4l.017.6.02.59v.587c0,.245,0,.491.008.736.013.314.053.63.094.945a8.041,8.041,0,0,1,.094,1.317,1.341,1.341,0,0,1-.1.5,4.31,4.31,0,0,1-.685.937,3.785,3.785,0,0,0-.294.361l-.052.069a1.242,1.242,0,0,0-.181.365l-.049.127-.079.154c-.05.091-.1.182-.143.273a.757.757,0,0,0,.012.518l.015.059a2.559,2.559,0,0,0,.189.531,1,1,0,0,0,.207.286l.092.089a1.8,1.8,0,0,1,.223.238,1.9,1.9,0,0,0,.142.481,1.625,1.625,0,0,0,.465.46,1.179,1.179,0,0,1,.254.273c.029.039.056.076.09.115l.031.038a2.36,2.36,0,0,1,.226.284,2.2,2.2,0,0,0,.211.429,1.713,1.713,0,0,0,.2.239,1.629,1.629,0,0,1,.189.22c.06.143.118.289.189.431a2.894,2.894,0,0,0,.152.261c.05.081.1.16.142.241a1.5,1.5,0,0,1,.033.421v.117c0,.219,0,.437-.016.655-.017.54-.056,1.077-.1,1.616-.085,1.111-.166,2.223-.218,3.336-.025.491-.053.984-.081,1.476q-.055.886-.093,1.775a5.234,5.234,0,0,0,.031.739,2.944,2.944,0,0,1-.1,1.4c-.061.107-.142.215-.209.322-.046.069-.093.138-.142.206a1.905,1.905,0,0,0-.2.431c-.021.062-.044.123-.068.183a4.905,4.905,0,0,1-.388.569c-.084.117-.169.234-.248.349a2.077,2.077,0,0,1-.271.305l-.077.081a1.721,1.721,0,0,0-.338.541l-.036.067a2.737,2.737,0,0,0-.142.3,1.129,1.129,0,0,0-.074.462v.34c0,.172,0,.345.012.516a2.161,2.161,0,0,0,.121.7,4.159,4.159,0,0,0,.254.545l.089.174a1.032,1.032,0,0,1,.09.3,1.056,1.056,0,0,1-.024.321v.03a3.277,3.277,0,0,1-.2.674c-.05.093-.105.185-.162.276a3.018,3.018,0,0,0-.25.485,1.07,1.07,0,0,0-.036.476c0,.06.009.122.013.183a4.046,4.046,0,0,1-.27,1.63l-.105.188A3.8,3.8,0,0,0,4.155,83a1,1,0,0,0-.048.188c-.012.043-.02.088-.033.131a2.5,2.5,0,0,1-.121.312,4.02,4.02,0,0,1-.452.681c-.084.1-.142.208-.214.312s-.13.208-.214.31a2.731,2.731,0,0,1-.274.275,2.444,2.444,0,0,0-.263.269,3.076,3.076,0,0,1-.625.542,5.929,5.929,0,0,0-.638.472,3.641,3.641,0,0,0-.448.472l-.07.086a1.593,1.593,0,0,0-.322.5,2.446,2.446,0,0,0-.1.513,3.808,3.808,0,0,0-.013.808,1.29,1.29,0,0,0,.175.508,1.494,1.494,0,0,0,.213.278,1.5,1.5,0,0,1,.142.169c.021.074.037.148.051.22a1.449,1.449,0,0,0,.074.28,3.763,3.763,0,0,0,.367.649,1.22,1.22,0,0,1,.008.362v.124c0,.192-.015.383-.031.574s-.044.376-.068.565-.051.347-.061.523A5.476,5.476,0,0,0,1.194,94.2a1.889,1.889,0,0,0,.224.662,3.617,3.617,0,0,0,.214.33l.074.1a1.618,1.618,0,0,1,0,.251v.107c0,.118-.013.237-.016.355v.181l-.008.24a7.738,7.738,0,0,0,0,.9,3.377,3.377,0,0,0,.233,1.032,4.1,4.1,0,0,0,.364.712c.057.09.126.183.2.272s.142.2.21.3a6.745,6.745,0,0,0,.391.849,3.082,3.082,0,0,0,.25.361c.081.111.165.221.232.332.035.162.065.322.1.482.044.243.09.484.157.723.092.351.173.718.241,1.127.031.208.068.414.1.622s.076.419.11.628A2.353,2.353,0,0,1,4.2,106.1c-.064.123-.142.244-.214.364l-.118.19a1.533,1.533,0,0,0-.158.42c-.024.091-.051.182-.084.273l-.088.157a1.431,1.431,0,0,0-.226.546v.028a3.245,3.245,0,0,1-.142.8,5.444,5.444,0,0,1-.538.807c-.118.156-.234.311-.338.467a6.279,6.279,0,0,1-.577.7l-.1.11a3.348,3.348,0,0,0-.239.305l-.055.082-.049.064a3.031,3.031,0,0,0-.247.376l-.092.166a4.266,4.266,0,0,0-.31.654,2.557,2.557,0,0,0-.109.624c-.009.081-.016.162-.025.244a9.755,9.755,0,0,0-.072,1.757,11,11,0,0,1,0,1.574c-.021.259-.056.519-.09.778-.031.243-.065.485-.084.729a3.527,3.527,0,0,0,0,.712,1.719,1.719,0,0,0,.3.7,2.639,2.639,0,0,0,.6.557l.132.1c.169.127.334.256.529.38a2.6,2.6,0,0,0,.331.2,4.032,4.032,0,0,0,.376.157l.117.044a2.454,2.454,0,0,1,.445.239l.068.045c.094.071.178.146.262.22.1.086.2.173.315.258.209.153.478.353.711.563a5.25,5.25,0,0,1,.476.482,1.11,1.11,0,0,1,.17.257l.042.076.093.173.077.141a2.511,2.511,0,0,1,.113.644c.019.229.045.463.085.694a2.426,2.426,0,0,0,.247.7c.057.107.129.215.2.322.057.085.114.17.165.257a2.382,2.382,0,0,0,.509.8,3.219,3.219,0,0,0,.234.233c.084.077.162.154.238.232a2.058,2.058,0,0,1,.331.512,2.713,2.713,0,0,1,.142,1.136v.24a10.92,10.92,0,0,1-.07,1.507,5.65,5.65,0,0,1-.179.751,3.941,3.941,0,0,0-.2.976,4.289,4.289,0,0,1-.25,1.619,2.983,2.983,0,0,1-.637.772c-.134.118-.262.236-.387.358-.142.137-.291.275-.449.412-.254.224-.5.447-.723.674a1.542,1.542,0,0,0-.384.665.512.512,0,0,0,.094.378l.015.028a2.383,2.383,0,0,0,.182.3,3.64,3.64,0,0,0,.691.673l.051.04a5.429,5.429,0,0,0,.92.636l.243.126c.226.118.453.235.657.357a.481.481,0,0,1,.085.083,1.4,1.4,0,0,1,.031.357,1.718,1.718,0,0,0,.009.215,1.6,1.6,0,0,0,.284.708,1.863,1.863,0,0,0,.284.309,2.553,2.553,0,0,1,.246.238,3.8,3.8,0,0,0,.627.556l.033.026c.049.04.1.08.142.122.064.051.122.1.186.15l.079.061a4.273,4.273,0,0,1,.356.288c.112.11.241.217.372.322s.25.2.363.309a4.57,4.57,0,0,0,.4.316c.1.074.205.149.294.225.057.046.121.092.185.139l.13.1a1.14,1.14,0,0,1,.294.341.692.692,0,0,1-.068.478c-.046.083-.094.165-.143.25a1.558,1.558,0,0,0-.284.684,2.894,2.894,0,0,1-.185.98,4.418,4.418,0,0,1-.622.786c-.064.069-.122.137-.182.206-.073.086-.142.171-.226.254a3.729,3.729,0,0,1-.456.365l.075-.036-.125.072v0l-.011.007h0v0h0c-.134.09-.255.175-.376.259l-.065.043c-.108.071-.213.143-.316.218-.076.049-.157.095-.241.141-.11.064-.218.127-.314.192l-.118.076c-.086.057-.174.114-.255.172a1.651,1.651,0,0,0-.354.339,1.09,1.09,0,0,0-.182.62v.036c-.012.2-.025.388-.028.58v.028a3.683,3.683,0,0,0,.092,1,2.155,2.155,0,0,0,.3.6,1.741,1.741,0,0,0,.2.239c.064.07.125.137.178.2a3.475,3.475,0,0,1,.084.691,1.906,1.906,0,0,1-.088.691,2.662,2.662,0,0,1-.4.462l-.08.081a1.994,1.994,0,0,0-.205.26l-.037.056a1.286,1.286,0,0,1-.314.286l-.258.163c-.134.081-.268.162-.388.245l.031-.014c-.156.092-.314.183-.472.274l-.227.135-.169.1a4.45,4.45,0,0,1-.617.321c-.195.075-.383.154-.569.236a2.548,2.548,0,0,0-.5.295c-.077.051-.151.1-.219.152a.243.243,0,0,0-.1.207.837.837,0,0,1-.075.322,1.612,1.612,0,0,1-.254.368c-.066.071-.134.143-.207.214a.926.926,0,0,0-.221.322,1.215,1.215,0,0,1-.285.306.315.315,0,0,0-.157.226.585.585,0,0,0,.032.156l.02.068.044.182a6.516,6.516,0,0,1,.174.908,10.519,10.519,0,0,1-.032,1.443l-.035.345a5.546,5.546,0,0,0-.031,1.094,2.008,2.008,0,0,0,.21.676,2.556,2.556,0,0,0,.276.409,3.751,3.751,0,0,1,.233.329,6.088,6.088,0,0,1,.068,1.305c0,.239-.008.475,0,.716a3.3,3.3,0,0,0,.1.75,1.527,1.527,0,0,0,.434.723,2.006,2.006,0,0,1,.186.2,3.326,3.326,0,0,1,.036.7v.6c0,.243-.012.485,0,.729l.011.133a10.345,10.345,0,0,1,.048,1.171,1.015,1.015,0,0,0,.128.57,1.236,1.236,0,0,0,.272.292,1.8,1.8,0,0,1,.237.23,2.8,2.8,0,0,1-.1.856c-.028.122-.055.246-.074.371a1.067,1.067,0,0,0,.057.594.609.609,0,0,0,.2.275,3.291,3.291,0,0,0,.461.306,1.028,1.028,0,0,1,.156.175l.068.085c.04.047.084.095.127.143a2.154,2.154,0,0,1,.166.184.463.463,0,0,1,0,.17v.356l-.011.217c0,.11-.013.221-.013.331a1.163,1.163,0,0,0,.142.564.926.926,0,0,0,.217.274,2.179,2.179,0,0,0,.38.257l.077.045a2.116,2.116,0,0,0,.452.282c.254.109.532.214.831.315l.06.022q.332.124.726.236a7.129,7.129,0,0,0,.972.171c.142.018.285.04.427.06.245.038.5.073.763.1.117.011.239.019.362.024q.1,0,.2.009l.249.014a2.14,2.14,0,0,1-.31.306,4,4,0,0,1-.391.187q-.661.219-1.408.421l-.427.077c-.458.08-.878.173-1.252.278-.769.205-1.179.48-1.137.762a1.7,1.7,0,0,1-.1.958.872.872,0,0,1-.132.155c-.053.028-.113.057-.174.085l-.271.093c-.319.109-.645.221-.937.34l-.121.051a5.275,5.275,0,0,0-.838.4c-.312.182-.484.377-.505.575a.72.72,0,0,0,.017.189l.02.114a1.409,1.409,0,0,1-.031.523,2.162,2.162,0,0,1-.411.393l-.25.158c-.1.062-.2.124-.291.188-.108.057-.215.115-.327.173-.064.036-.134.069-.2.1a2.045,2.045,0,0,0-.753.619.491.491,0,0,0-.1.36c.013.086.024.171.033.256l.013.163a1.815,1.815,0,0,0,.035.326c.017.121.046.241.07.361a2.334,2.334,0,0,1,.047,1.226,1.238,1.238,0,0,1-.263.289,7.379,7.379,0,0,0-.8.529.545.545,0,0,0-.2.378,1.145,1.145,0,0,0-.013.208,2.166,2.166,0,0,0,.143.894,2.635,2.635,0,0,0,.645,1.015c.055.058.108.116.16.174s.128.14.2.209a3.323,3.323,0,0,0,.508.352l.122.076c.057.047.1.093.156.137l.1.09a4.62,4.62,0,0,0,.441.322c.133.1.254.2.375.3l.2.162a1.016,1.016,0,0,1,.189.214l.044.061.04.058c.037.05.072.1.1.151a1.253,1.253,0,0,1-.013.465l-.008.071a1.8,1.8,0,0,1-.1.4,1.772,1.772,0,0,1-.13.165c-.217.18-.245.371-.081.555a4.772,4.772,0,0,0,1.412.606c.109.043.217.087.314.134a1.835,1.835,0,0,1,.247.255,1.245,1.245,0,0,1,.017.322v.2a4.137,4.137,0,0,1-.016.444l-.008.066c0,.043-.009.088-.009.133a.705.705,0,0,0,.12.322l.021.039a1.71,1.71,0,0,0,.206.272,2.518,2.518,0,0,1,.166.208,1.118,1.118,0,0,0,.259.691,3.2,3.2,0,0,0,.8.531l.166.093c.088.059.177.118.275.176.076.046.166.089.254.134.068.036.142.069.2.1.206.155.426.31.669.461.113.085.206.17.3.257l.117.1a.99.99,0,0,1,.237.339,1.379,1.379,0,0,0,.085.154,7.2,7.2,0,0,0,.435.586l.04.052a6.954,6.954,0,0,1,.647,1.029l.065.118a1.073,1.073,0,0,0,.579.223l.028.028.024.021a1.407,1.407,0,0,1,.186.265c.017.035.032.074.046.112.038.213.287.42.723.6l.069.036.243.118.2.094a2.037,2.037,0,0,1,.4.3l.057.049a2.6,2.6,0,0,0,.549.395,10,10,0,0,0,.929.445c.272.112.536.226.784.346.116.06.237.12.358.179l.031.012.024.008.255.137.079.04-.027-.017c.233.126.485.25.734.374l.376.186.248.125.284.139a3.858,3.858,0,0,1,.762.55,3.644,3.644,0,0,1,.464.768,1.884,1.884,0,0,0,.319.481,2.739,2.739,0,0,0,.5.408,5.78,5.78,0,0,0,.819.431c.271.123.546.246.838.364.544.218,1.146.427,1.8.625l.316.095c.213.065.426.128.629.2.323.1.61.211.853.3.513.2,1.012.411,1.477.631.182.1.36.2.512.3l.307.209.247.169.041.028c.169.114.338.226.52.338.076.044.151.09.233.135l.094.055a4.062,4.062,0,0,0,.5.245c.511.205,1.094.421,1.779.662q1,.351,2.156.67c.856.236,1.809.449,2.843.636q.894.156,1.848.29l.18.026c.444.062.884.125,1.312.2.383.069.835.153,1.279.247q.636.135,1.2.291c.194.064.386.129.56.2s.324.14.472.212c.218.121.426.244.626.368l.158.1c.142.09.274.179.427.266a5,5,0,0,0,.931.417c.378.12.781.236,1.206.346.388.1.8.19,1.214.278.307.068.617.135.917.207.661.159,1.448.345,2.274.524l.223.049c.34.073.682.149,1.016.226l.178.041c.324.073.647.148.985.219.426.088.853.179,1.3.26.484.087.973.17,1.461.253l.294.052.6.1.113.019c.517.092,1.036.183,1.575.267l.548.084c.384.057.771.117,1.147.179.2.035.4.071.593.107.436.082.891.167,1.356.241.3.044.609.082.929.114l.077.007.853.091.387.043c.315.035.622.073.921.116l.166.021c.371.051.73.1,1.083.151.243.035.483.071.723.11l.268.042c.307.05.608.1.905.146s.588.107.871.167q.465.1.873.215a6.146,6.146,0,0,1,.8.3c.074.036.143.072.218.108l.108.053a4.009,4.009,0,0,0,.7.262,12.692,12.692,0,0,0,1.43.272c.412.061.843.114,1.287.158.77.072,1.582.111,2.4.116l.384.009c.593.012,1.2.026,1.808.026.388,0,.775-.006,1.159-.021.364-.015.724-.035,1.078-.061.218-.012.435-.027.658-.038.569-.032,1.186-.058,1.921-.086.21-.007.426-.018.629-.03l.189-.01.427-.019c.142,0,.284-.012.426-.02.595-.027,1.2-.045,1.8-.055q.679.01,1.349.04c.383.018.77.026,1.159.026h.291a14.178,14.178,0,0,0,1.454-.109l.372-.044.259-.03a5.607,5.607,0,0,0,1.228-.274,2.152,2.152,0,0,0,.674-.386l.07-.054a1.538,1.538,0,0,0,.379-.418,1.138,1.138,0,0,0,.128-.411,1.5,1.5,0,0,0,.008-.439,2.412,2.412,0,0,0-.068-.316l-.023-.08a2.23,2.23,0,0,1-.054-.375v-.1a.917.917,0,0,1,.016-.208l.021-.137c.013-.073.025-.146.032-.219a2.488,2.488,0,0,0-.033-.517c-.01-.079-.019-.158-.027-.238a.864.864,0,0,1,.1-.375c.064-.134.125-.269.178-.4.105-.262.193-.523.284-.786.044-.137.081-.275.116-.413a2.31,2.31,0,0,1,.171-.429c.037-.077.074-.143.112-.209s.086-.152.121-.228a1.741,1.741,0,0,0,.108-.34l.016-.063a1.282,1.282,0,0,1,.081-.221c.021-.045.04-.092.059-.136a2.9,2.9,0,0,0,.1-.362c.017-.094.027-.186.04-.279a2.087,2.087,0,0,1,.089-.457c.029-.087.056-.173.084-.26a2.662,2.662,0,0,1,.6-1.131,1.315,1.315,0,0,0,.122-.128l.037-.049.02-.026c.142.018.3.039.446.062.221.044.424.094.606.148.429.133.825.273,1.184.418l.089.036c.392.153.728.313,1.094.49a3.265,3.265,0,0,1,.445.275,2.588,2.588,0,0,1,.323.29,2.437,2.437,0,0,1,.266.47.589.589,0,0,0-.239-.039.827.827,0,0,0-.27.041c-.052.019-.072.043-.057.065.081.124.152.251.223.375s.142.253.226.378l.128.195c.118.176.233.35.344.527l.028.044a2.889,2.889,0,0,1,.325.624,2.461,2.461,0,0,1,.12.743c-.021.091-.045.179-.074.271l-.022.077a1.627,1.627,0,0,0-.057.4,1.959,1.959,0,0,0,.017.227l.02.112v.121a.637.637,0,0,0,.032.244,2.471,2.471,0,0,0,.312.76,1.77,1.77,0,0,1,.327.8,1.818,1.818,0,0,1-.121.37,1.971,1.971,0,0,0-.075.187,2.014,2.014,0,0,0-.08.262,2.12,2.12,0,0,1-.128.385.98.98,0,0,0-.122.769.761.761,0,0,0,.314.327,3.427,3.427,0,0,0,1.185.384c.428.079.9.142,1.392.189.775.075,1.583.126,2.406.153.707.022,1.419.033,2.132.033h.284c.45,0,.9,0,1.349,0,.569,0,1.137,0,1.706,0s1.137,0,1.7,0l.326,0c.614,0,1.228.01,1.839.01h.4c.719,0,1.441-.01,2.16-.016l.42,0c.5,0,1-.019,1.5-.031.359-.01.711-.02,1.077-.026l.647-.013.642-.015c.415-.008.832-.01,1.244-.011s.806,0,1.2,0,.8,0,1.2,0q1.246-.016,2.494-.022h1.18q.529-.006,1.055-.025l.081,0,1.279-.045c.384-.015.772-.029,1.157-.042,1.206-.039,2.439-.064,3.633-.088l.952-.021c1.485-.03,2.843-.044,4.138-.044h.631c1.049.008,2.132.015,3.225.015.473,0,.949,0,1.421,0,1.454-.009,2.882-.016,4.315-.016h.417c.471,0,.94.007,1.412.013.748.008,1.5.015,2.245.017h1.061c.853,0,1.69,0,2.536,0,.391,0,.853,0,1.323,0h.118c1.167.011,2.144.019,3.127.039.623.012,1.247.018,1.872.022.407,0,.812.007,1.218.012.284,0,.556.01.834.016l.825.014.6.007,1.211.013.284,0c.5.008,1.005.015,1.514.015h4.034c.661,0,1.242,0,1.825,0,1.364.01,2.579.026,3.695.049q1.031.019,2.06.036c.473.007.945.022,1.421.035l.665.019c.324.009.65.017.974.024l.8.018.937.025,1.246.033c1.333.029,2.7.033,4.015.036h.332c.366,0,.794,0,1.219,0,.56,0,1.113,0,1.667-.008,1.016-.011,2.007-.022,3-.025l.915,0q.993,0,1.99-.012,1.3-.015,2.588-.016h.173c.388,0,.779.006,1.17.006h.52c.444,0,.884-.013,1.325-.024l.242-.007q1.486-.042,2.984-.044h.359l-.093,0,1.009.01c.305,0,.569.006.836.012l.537.01c.411.006.819.007,1.224.007h1.325c.728.011,1.454.019,2.183.028.327,0,.65.011.972.017.415.008.827.016,1.242.018.626.006,1.243.016,1.862.026l.518.011c.386.007.772.008,1.155.008h.795l.487,0,.836.007c.31,0,.617.009.928.016l.415.01c.853.016,1.724.018,2.559.022.476,0,.953.014,1.421.023.435.01.864.019,1.3.023q.618.006,1.238.006h1.5c.678.007,1.355.023,2.026.049.638.025,1.32.049,2.146.069.31.008.622.011.932.014s.651.007.978.016c.531.015,1.055.044,1.564.086.4.039.788.084,1.166.135l.758.088c.289.03.586.056.887.078l.084.006c.729.066,1.438.146,2.12.238.239.03.481.058.722.084l.367.04.824.1c.276.054.533.1.788.156.969.205,2.008.389,3.1.55a13.823,13.823,0,0,0,1.549.109c.142,0,.285,0,.42,0,.18,0,.358,0,.533-.006.281-.009.558-.026.824-.051l.158-.011c.408-.039.8-.091,1.151-.154l.142-.024.434-.071.426-.07c.986-.142,2.013-.266,3.071-.37.415-.042.832-.083,1.247-.122.487-.049.976-.1,1.464-.145q1.26-.126,2.459-.286c.723-.1,1.481-.192,2.264-.263.55-.025,1.108-.037,1.667-.035.742.013,1.494.04,2.22.066s1.448.036,2.175.036c.316,0,.633,0,.945-.008.549-.007,1.1-.015,1.65-.025,1.2-.022,2.445-.044,3.662-.044h.526c.723.012,1.452.036,2.159.058l1.179.036c.69.019,1.378.033,2.067.049l1.68.035c1.038.028,2.079.077,3.088.126l.238.01c.987.039,1.986.057,2.985.053l.719,0c.855.021,1.7.062,2.521.125.545.05,1.078.112,1.595.171l.247.029c.72.082,1.514.161,2.425.241s1.821.158,2.736.231l.965.076c.461.038.925.074,1.385.111.771.063,1.578.094,2.389.091.113,0,.229,0,.34,0a24.154,24.154,0,0,0,2.744-.2c.411-.05.832-.107,1.255-.172q.672-.094,1.279-.214c.585-.128,1.122-.269,1.606-.421q.235-.057.5-.107c.276-.031.561-.058.853-.08.262-.014.524-.028.786-.035.313-.011.629-.015.945-.013l.634.01c.568.007,1.137.016,1.7.02.683.005,1.365.006,2.046.007h.521c.693,0,1.385-.014,2.072-.035l.542-.013c1.021-.025,2.075-.038,3.218-.044.375,0,.75,0,1.126,0,.6,0,1.2,0,1.792-.007q.967-.012,1.926-.05l.853-.029,2.461-.069c.319-.011.63-.023.941-.036q.663-.033,1.336-.045.3.007.593.025c.284.029.577.06.863.092l.524.058.67.072q.563.06,1.127.118c.571.062,1.162.112,1.766.15.41.024.828.036,1.248.036.151,0,.306,0,.457,0a15.787,15.787,0,0,0,2.22-.182,10.8,10.8,0,0,0,1.434-.355c.342-.1.689-.211,1-.322l.1-.036c.247-.09.489-.179.759-.26.067-.017.138-.033.213-.047l.169.011c.3.032.584.071.853.117.559.106,1.075.226,1.538.357a6.008,6.008,0,0,1,.831.331c.069.039.143.078.2.117.121.072.242.143.378.211a6.223,6.223,0,0,0,.853.336,9.777,9.777,0,0,0,1.018.257,13.031,13.031,0,0,0,1.546.2c.526.044,1.077.066,1.63.064h.307c.234-.006.465-.018.69-.036.285-.021.563-.049.831-.081s.5-.068.744-.1l.109-.016c.274-.04.544-.082.815-.124.291-.045.584-.09.875-.133,1.124-.162,2.325-.288,3.576-.373.661-.038,1.33-.067,2-.087l1.329-.046,1.033-.036q1.207-.034,2.423-.031h1.071q.609,0,1.213-.027l.2-.006c.976-.029,1.937-.066,2.865-.107,1.022-.045,2.04-.068,2.985-.085.556-.011,1.137-.016,1.771-.016.284,0,.56,0,.843,0l1.235,0,1.242.006q1.737.027,3.454.1l.183.009c1.065.046,2.164.093,3.252.125.492.013.988.023,1.481.032.569.011,1.147.021,1.723.04.843.034,1.67.089,2.47.163l.186.016-.065-.008c.73.072,1.446.152,2.143.242.46.06.906.128,1.356.195.285.043.586.088.88.13.792.114,1.628.208,2.5.28.4.032.813.054,1.231.066s.815.017,1.224.016h.351c.247,0,.5,0,.742,0h1.279c.21,0,.426,0,.638,0,.42-.011.834-.033,1.234-.067.366-.028.725-.062,1.073-.1.469-.052.939-.1,1.421-.152l.711-.075.593-.066c.494-.059,1-.109,1.522-.151q.852-.055,1.7-.1c.613-.037,1.227-.071,1.834-.112l-.1,0c1.636-.094,3.3-.161,4.967-.2.478-.013.953-.03,1.422-.048l.852-.029c.667-.022,1.339-.034,2.012-.035h.314l.318,0c.829.012,1.684.021,2.526.021.257,0,.512,0,.766,0q.662-.009,1.316-.025l.553-.011c.695-.013,1.387-.023,2.084-.029,1.516-.016,2.861-.041,4.112-.073l.467-.013c.535-.014,1.07-.028,1.6-.036.427-.006.853-.009,1.288-.009h.526c.787.013,1.61.032,2.442.056s1.767.042,2.9.054l-.09,0c1.085.018,2.165.039,3.247.058.315.007.636.008.952.008q1.5-.006,3-.051l.27-.008c.426-.01.885-.016,1.421-.016.488,0,.972,0,1.458.009l1,.007h.294c.454,0,.912,0,1.365-.012q.639-.007,1.279-.008h.692c1.473.009,2.935.066,4.351.167l.151.014c.645.058,1.279.115,1.92.183.7.074,1.4.155,2.086.237.205.025.408.051.615.078l.541.069c.391.048.792.091,1.192.133q1.154.117,2.363.192c.724.051,1.469.082,2.22.092.195,0,.388,0,.578,0a32.584,32.584,0,0,0,3.447-.16l.426-.036c.711-.062,1.434-.117,2.229-.173l.2-.013-.2.008.7-.039q.659-.041,1.319-.086c.76-.047,1.538-.073,2.321-.077l1.638-.007,1.089,0h.638c.538,0,1.075,0,1.614,0h.15c.466,0,.928,0,1.389,0q.769,0,1.538-.009c.852-.01,1.752-.024,2.631-.058.826-.034,1.643-.081,2.446-.141.654-.049,1.349-.11,2.183-.194.178-.018.351-.036.526-.057.239-.026.477-.054.723-.076.465-.044.931-.081,1.4-.116,2.42-.16,4.9-.263,7.391-.307.482-.007.967-.009,1.454-.009h3.316c1.117,0,2.236.007,3.347.016.643.009,1.3.019,1.977.027l.879.015c.48.008.961.018,1.442.021.771,0,1.538,0,2.31.006q1.369,0,2.742.009l.978.014c.665.01,1.327.019,1.99.026.473,0,.941.008,1.4.009l1.409.01c.843.011,1.6.025,2.378.051s1.586.052,2.38.073q1.3.033,2.611.031c.643,0,1.279,0,1.92-.009.877-.007,1.756-.012,2.631-.016q1.187-.006,2.373-.014.939-.007,1.873-.006h1.481c.392,0,.783,0,1.174,0,.6.011,1.194.029,1.792.045l.968.026c1.083.027,2.06.043,2.985.045h.31c.895,0,1.783-.013,2.77-.029,1.037-.014,2.079-.032,3.115-.056.835-.021,1.663-.048,2.491-.075,1.009-.036,2.048-.072,3.075-.09l.343,0c.73-.014,1.487-.027,2.223-.052.886-.034,1.761-.083,2.619-.148.525-.033,1.049-.06,1.575-.083l2.337-.11c.634-.03,1.276-.05,1.92-.059.294,0,.59-.006.887-.006.392,0,.786,0,1.178.007h-.008q.915.024,1.812.077c.511.056,1,.122,1.47.2l.157.023.194.03c.233.036.465.071.71.1.343.04.7.074,1.054.1.327.028.663.048,1,.061.149,0,.3.006.449.006.312,0,.623-.009.928-.027.481-.029.956-.065,1.421-.107.31-.026.621-.053.935-.076.385-.02.777-.03,1.17-.029.625.008,1.2.022,1.775.033l.853.017c.6.01,1.251.016,1.981.016.307,0,.614,0,.921,0h.452c.757,0,1.511.008,2.266.013h.2c.806.009,1.613.015,2.416.015h.142c.853,0,1.74,0,2.607-.025.274-.006.544-.016.815-.025l.419-.014.6-.019c.3-.008.6-.017.9-.03.427-.017.853-.036,1.288-.058.568-.026,1.137-.053,1.714-.073.9-.033,1.807-.049,2.716-.046h.2q1.488.019,2.963.079c.411.016.816.035,1.222.052.61.029,1.218.056,1.832.075.845.027,1.706.06,2.657.1.85.041,1.686.1,2.5.17.426.042.852.09,1.279.137l.6.068c.379.041.767.078,1.155.115.329.031.661.062.985.1.4.042.795.095,1.171.146.25.036.5.068.754.1.59.074,1.218.128,1.866.16.276.014.557.02.838.02.453,0,.9-.018,1.334-.052.715-.061,1.412-.135,2.086-.221l.161-.02c1.739-.229,3.559-.416,5.438-.558q.633-.037,1.279-.055c.324-.011.649-.014.972-.019l.542-.008c.636-.012,1.314-.023,1.99-.023h.378c.9.02,1.812.055,2.689.09.814.03,1.654.063,2.49.083.669.019,1.458.042,2.24.082.659.036,1.343.081,2.152.143q1.128.087,2.288.143,1.116.058,2.252.084c.679.011,1.36.013,1.989.013h1c.411,0,.816,0,1.223-.006s.816,0,1.222,0h.7l-.233-.008.594.012.6,0,.873.01.588.006-.07,0,.678.014c1.179.018,2.357.036,3.535.045q2.488.02,4.975.024c.75,0,1.5.006,2.247.007h.182c.77,0,1.553-.01,2.22-.022.7-.012,1.4-.04,2.087-.083.585-.034,1.158-.08,1.712-.137.208-.012.42-.023.627-.036s.414-.026.625-.036c.5-.027,1-.062,1.486-.095l.213-.014-.117.006c1.165-.081,2.353-.139,3.554-.172l.142,0q.846-.017,1.68-.057c.533-.029,1.066-.071,1.582-.112l.314-.026.229-.017c1.2-.086,2.378-.194,3.519-.322.616-.075,1.2-.166,1.744-.271l.261-.049c.437-.081.873-.163,1.325-.237.569-.081,1.154-.156,1.747-.223.465-.053,1.018-.118,1.573-.194,1.106-.15,2.184-.3,3.227-.476.5-.084.967-.177,1.413-.277s.911-.192,1.376-.284l.274-.055c.831-.164,1.691-.333,2.584-.479q1.4-.192,2.877-.339l.426-.045c.375-.039.742-.082,1.11-.127.215-.025.426-.051.645-.075.7-.075,1.415-.138,2.146-.188q.557-.034,1.095-.082c.423-.041.821-.1,1.182-.165a6.323,6.323,0,0,0,1.99-.617,4.884,4.884,0,0,0,.427-.244l.157-.095c.194-.111.4-.222.609-.331l.284-.151q.193-.1.381-.2c.206-.114.419-.226.647-.337.451-.19.947-.372,1.484-.546.5-.164,1.077-.358,1.705-.531.569-.147,1.174-.289,1.771-.429.678-.16,1.33-.3,1.99-.432.351-.07.711-.137,1.07-.2s.711-.133,1.071-.2l.105-.022c.594-.118,1.211-.239,1.847-.343.692-.095,1.425-.17,2.184-.224l-.1,0c.5-.028.98-.066,1.448-.114q.64-.069,1.279-.143l.356-.042c.327-.036.651-.073.965-.117.568-.078,1.073-.15,1.533-.225.634-.108,1.238-.226,1.808-.354l.339-.071q1.215-.261,2.309-.554a9.984,9.984,0,0,0,1.211-.408,8.652,8.652,0,0,0,.853-.435l.134-.075.436-.238c.487-.264,1-.536,1.44-.814.142-.086.291-.172.436-.258.128-.071.255-.146.375-.221.233-.136.461-.286.732-.48a3.654,3.654,0,0,0,.638-.6c.157-.182.332-.362.518-.543.2-.19.4-.379.594-.57a4.314,4.314,0,0,1,.52-.391c.162-.1.363-.214.626-.348.369-.154.772-.3,1.208-.447l.456-.15c.271-.088.541-.176.8-.268a2.208,2.208,0,0,0,.981-.579l.039-.044a1.692,1.692,0,0,0,.131-.156l.077-.1a2.721,2.721,0,0,1,.23-.247,4.627,4.627,0,0,1,.9-.605c.435-.226.864-.452,1.279-.679.392-.215.81-.427,1.228-.638.4-.2.806-.407,1.182-.613a11.53,11.53,0,0,0,1.041-.62,3.49,3.49,0,0,0,.467-.376,1.148,1.148,0,0,0,.233-.345,1.177,1.177,0,0,0,.089-.8,1.339,1.339,0,0,0-.174-.381l-.05-.078a2.835,2.835,0,0,0-.217-.33c-.392-.509-.853-1.037-1.349-1.569v.019a1.729,1.729,0,0,0-.142-.178,1.112,1.112,0,0,1-.185-.674,1.164,1.164,0,0,1,.2-.528,4.042,4.042,0,0,1,.577-.644l-.046.031a8.035,8.035,0,0,1,.863-.677l.294-.188.184-.115.2-.121c.122-.078.25-.156.359-.235a3.322,3.322,0,0,0,.768-.746,3.579,3.579,0,0,0,.338-.749,3.5,3.5,0,0,0,.178-.825,3.031,3.031,0,0,0-.077-.683l-.017-.083c-.026-.146-.04-.292-.056-.437-.008-.1-.021-.205-.035-.308a4.268,4.268,0,0,0-.11-.474l-.064-.225a2.526,2.526,0,0,1-.069-.585c0-.14-.02-.281-.03-.421l-.02-.235a8.838,8.838,0,0,1,.024-1.166v.008c.03-.254.037-.507.044-.761,0-.122,0-.245.01-.369v-.132a2.316,2.316,0,0,0-.008-.526l-.037-.232c-.017-.13-.038-.26-.061-.39a6.071,6.071,0,0,1-.113-1.2v-.1c0-.375.013-.75.049-1.126.024-.207.035-.411.044-.617v-.1l.008-.105c0-.071.016-.143.012-.212s-.016-.134-.027-.2-.017-.134-.024-.2-.02-.135-.032-.2l-.02-.134c-.008-.068-.011-.135-.015-.2s-.009-.136-.016-.2c-.024-.173-.061-.346-.1-.519l-.057-.256c-.036-.191-.081-.383-.122-.574l-.041-.184-.033-.146a6.059,6.059,0,0,0-.153-.592l-.064-.179a11.4,11.4,0,0,1-.412-1.326l-.057-.273c-.024-.119-.048-.24-.077-.36v-.081a.851.851,0,0,0-.031-.186l-.017-.112a1.115,1.115,0,0,0-.056-.207c-.008-.058-.015-.115-.019-.172v-.088l-.013-.111a1.408,1.408,0,0,0-.024-.224,2.19,2.19,0,0,0-.118-.338l-.032-.082-.045-.117a1.773,1.773,0,0,0-.323-.59.985.985,0,0,0,.427-.187.921.921,0,0,0,.319-.366.361.361,0,0,0-.015-.39,1.253,1.253,0,0,0-.363-.271l-.125-.068-.125-.065c-.263-.138-.513-.282-.746-.429a4.608,4.608,0,0,1-.426-.361c-.05-.043-.1-.086-.151-.129a1.78,1.78,0,0,1-.3-.291v-.027a.805.805,0,0,1,.081-.086,3.7,3.7,0,0,1,.529-.273c.148-.054.308-.107.479-.157.13-.039.267-.076.412-.111l.33-.087a3.865,3.865,0,0,0,1.433-.7,4.068,4.068,0,0,0,.372-.326,1.192,1.192,0,0,0,.3-.452.945.945,0,0,0-.349-.889,1.091,1.091,0,0,1-.142-.19c-.031-.044-.065-.089-.1-.136s-.094-.1-.142-.156-.093-.1-.142-.157a3.85,3.85,0,0,0-.795-.679l-.105-.072a5.3,5.3,0,0,0-.509-.31q-.264-.132-.536-.264c-.105-.052-.214-.1-.322-.154-.244-.113-.492-.23-.7-.35a1.2,1.2,0,0,1-.309-.332.436.436,0,0,1-.047-.264l.047-.085a1.341,1.341,0,0,0,.074-.14h0l.032-.064a.773.773,0,0,0,.118-.364c0-.187-.17-.372-.487-.541a9.881,9.881,0,0,0-1.793-.613l-.173-.049c-.561-.168-1.175-.323-1.838-.465-.209-.041-.434-.076-.671-.1l-.182-.026-.167-.023-.488-.068-.169-.022-.213-.029a.535.535,0,0,1-.158-.184.807.807,0,0,0-.142-.173l-.061-.067c-.051-.053-.1-.1-.157-.157a1.983,1.983,0,0,1-.228-.26.78.78,0,0,1-.045-.4.626.626,0,0,1,.05-.053,12.366,12.366,0,0,1,1.1-.622c.175-.089.34-.179.509-.271a9.5,9.5,0,0,1,1.016-.511l.375-.14c.272-.1.545-.2.8-.305.39-.158.759-.322,1.1-.486a6.423,6.423,0,0,0,.737-.424,2,2,0,0,0,.629-.543,1.411,1.411,0,0,0,.15-.462l.02-.077a.957.957,0,0,0-.037-.544,1.119,1.119,0,0,0-.224-.373,2.822,2.822,0,0,0-1.075-.535,5.634,5.634,0,0,0-.556-.139l-.112-.025c-.267-.061-.544-.115-.823-.17q-.285-.063-.608-.113l-.21-.03c-.181-.027-.36-.055-.549-.081l-.173-.022c-.142-.017-.3-.035-.448-.055-.064-.009-.124-.02-.181-.031-.1-.022-.192-.046-.277-.072l-.072-.035a1.079,1.079,0,0,1-.2-.195.406.406,0,0,1,.012-.183,3.938,3.938,0,0,1,1.065-1.029c.278-.212.509-.405.744-.6.273-.227.548-.453.853-.679v0a2.782,2.782,0,0,1,.4-.247c.182-.092.391-.182.6-.27.278-.107.581-.211.908-.309.2-.059.426-.111.641-.164l.5-.124a4.979,4.979,0,0,0,.958-.37c.142-.072.294-.145.444-.217s.3-.146.443-.22a8.064,8.064,0,0,0,.9-.508,3.433,3.433,0,0,0,.725-.652,3.836,3.836,0,0,0,.607-.994c.02-.047.04-.094.057-.143a.886.886,0,0,1,.1-.154,1.56,1.56,0,0,0,.112-.179.728.728,0,0,0,.088-.244.562.562,0,0,0-.07-.29.658.658,0,0,1-.024-.215.562.562,0,0,0-.085-.26l-.037-.067a1.218,1.218,0,0,0-.262-.291,1.991,1.991,0,0,1-.209-.214.4.4,0,0,1,.013-.123v-.21a.856.856,0,0,0,.009-.175.918.918,0,0,1,.008-.148,2.16,2.16,0,0,1,.475-.442l-.031.015.052-.035.134-.1c.149-.1.314-.207.473-.308a3.288,3.288,0,0,0,1.117-.922,1.061,1.061,0,0,0,.13-.336.621.621,0,0,0-.108-.429,1,1,0,0,0-.316-.221l-.133-.075-.143-.073c-.118-.066-.226-.132-.326-.2a2.911,2.911,0,0,1-.941-1.04l.04.12a4.337,4.337,0,0,0-.33-.61l-.068-.111-.049-.12a3.389,3.389,0,0,0-.18-.39c-.1-.183-.211-.368-.307-.551a1.094,1.094,0,0,1,0-.616,1.362,1.362,0,0,0,.024-.615l-.048-.225c-.029-.123-.053-.247-.076-.37l-.027-.154a3.356,3.356,0,0,0-.122-.6c-.051-.151-.088-.3-.125-.455l-.045-.2-.04-.154a2.394,2.394,0,0,1-.105-.57,4.386,4.386,0,0,1,.2-1.241l.073-.274a2.66,2.66,0,0,1,.142-.41c.035-.083.068-.168.1-.252a1.368,1.368,0,0,0,.04-.7l-.057-.306c-.079-.407-.159-.827-.2-1.239a5.058,5.058,0,0,1,.013-.924l.016-.271a3.793,3.793,0,0,1,.037-.5,6.015,6.015,0,0,1,.152-.753,3.87,3.87,0,0,1,.142-.393c.052-.13.1-.264.142-.4a4.585,4.585,0,0,0,.112-.654v-.052a2.522,2.522,0,0,1,.1-.432c.031-.1.06-.195.081-.294a2.249,2.249,0,0,0-.081-1c-.03-.134-.061-.267-.084-.4a1.735,1.735,0,0,1-.017-.3,1.272,1.272,0,0,0-.035-.363,1.847,1.847,0,0,0-.066-.211,1.736,1.736,0,0,1-.084-.318,1.294,1.294,0,0,1,.088-.54c.054-.19.114-.382.178-.573.03-.072.07-.143.108-.217.054-.107.111-.218.155-.326a.638.638,0,0,0-.044-.612,2.209,2.209,0,0,0-.812-.649,7.31,7.31,0,0,0-1.158-.458l-.092-.032a7.723,7.723,0,0,1-.7-.34c-.088-.046-.171-.091-.258-.134-.291-.152-.517-.277-.71-.4a1.3,1.3,0,0,1-.317-.315,1.183,1.183,0,0,1-.016-.393l.009-.133a1.289,1.289,0,0,0-.029-.22.725.725,0,0,1-.015-.314.4.4,0,0,1,.035-.1l.021-.059.084-.149a1.69,1.69,0,0,0,.255-.572c.013-.093.017-.187.024-.281a2.274,2.274,0,0,1,.051-.393,1.481,1.481,0,0,1,.319-.422c.051-.027.1-.053.162-.08.415-.141.781-.272,1.117-.4.992-.358,1.593-.775,1.742-1.21v-.026a.407.407,0,0,0,.032-.239.467.467,0,0,0-.181-.276,2.071,2.071,0,0,0-.51-.273l-.142-.059a10.024,10.024,0,0,1-1.176-.536c-.081-.064-.156-.126-.23-.191a2.563,2.563,0,0,0-.31-.2l-.07-.044a.674.674,0,0,1-.125-.135c-.031-.077-.061-.151-.1-.228a.4.4,0,0,1,0-.247,3.258,3.258,0,0,1,.606-.764,11.025,11.025,0,0,1,.853-.7l.048-.036a3.652,3.652,0,0,0,.772-.806,2.341,2.341,0,0,0,.327-.888,3.961,3.961,0,0,0,.028-1.713,3.166,3.166,0,0,1-.05-1.778c.083-.19.182-.378.285-.566.045-.085.089-.172.133-.258a4.431,4.431,0,0,1,.263-.479l.142-.215a3.8,3.8,0,0,0,.637-1.314c.009-.059.016-.12.024-.179a1.729,1.729,0,0,1,.09-.429,2.247,2.247,0,0,0,.166-.7,2.477,2.477,0,0,0-.111-.64,1.679,1.679,0,0,1-.092-.805c.02-.089.04-.179.065-.27a4.349,4.349,0,0,0,.105-.507,3.373,3.373,0,0,0,0-.586c0-.089-.011-.179-.011-.267a4.877,4.877,0,0,1,.08-.792,2.367,2.367,0,0,0-.044-.855l-.053-.227a3.618,3.618,0,0,1-.1-.536l-.008-.179a4.934,4.934,0,0,0-.057-.628c-.048-.288-.072-.577-.1-.867-.017-.219-.037-.438-.065-.658a2.333,2.333,0,0,0-.191-.574l-.052-.13c-.042-.092-.074-.185-.11-.277-.052-.143-.108-.286-.176-.431a4.082,4.082,0,0,0-.395-.628c-.157-.2-.331-.395-.509-.593l-.057-.069c-.2-.221-.392-.44-.568-.663a6.232,6.232,0,0,0-.582-.673c-.142-.129-.31-.255-.476-.38-.128-.094-.257-.187-.368-.282-.07-.057-.132-.113-.193-.17s-.1-.095-.158-.141a4.335,4.335,0,0,0-.449-.316l-.113-.075a4.156,4.156,0,0,0-.426-.236l-.052-.028a4.674,4.674,0,0,0-.6-.236l-.106-.036a8.276,8.276,0,0,0-1.267-.3l-.108-.022c-.1-.024-.194-.05-.285-.078a2.427,2.427,0,0,1-.223-.114.813.813,0,0,1-.173-.2,3.413,3.413,0,0,1-.134-.47l-.044-.194c-.033-.137-.077-.274-.116-.411s-.086-.277-.118-.416c-.057-.211-.113-.406-.185-.6a1.589,1.589,0,0,1-.324-.143l-.023.007a3.4,3.4,0,0,1-.63.1,3.658,3.658,0,0,1-.48,0,1.62,1.62,0,0,1-.725.282,3.728,3.728,0,0,1-.456.049c-.031.06-.066.121-.1.182-.1.191-.2.385-.294.578l-.153.291a1.447,1.447,0,0,1-.258.419,1.164,1.164,0,0,1-.568.2,3.683,3.683,0,0,1-.614.043,5.36,5.36,0,0,1-.7-.055,1.785,1.785,0,0,1-.327-.085l-.041-.014a4.221,4.221,0,0,1-1.226.08,2.61,2.61,0,0,1-.8-.175.947.947,0,0,1-.234-.15c-.092-.074-.189-.146-.271-.22-.1-.09-.193-.182-.284-.274a1.975,1.975,0,0,1-.336-.481c-.052-.105-.1-.209-.142-.312q-.081.033-.18.063l-.312.067a3.9,3.9,0,0,1-.916.027,1.706,1.706,0,0,1-1.24-.477,3.287,3.287,0,0,1-.254-.239l-.142.028c-.125.021-.26.038-.4.051a7.693,7.693,0,0,1-1.279,0c-.194-.013-.381-.032-.555-.057-.189-.018-.384-.026-.568-.045-.655-.07-1-.252-.8-.424a2.3,2.3,0,0,1,1.385-.234l.1.006c.142.013.3.019.447.032s.276.03.413.046c.044.006.092.01.142.013.065-.017.129-.036.2-.052q.29-.074.613-.137a4.754,4.754,0,0,1,1.4-.069,2.744,2.744,0,0,1,.78.183c.036-.03.069-.062.106-.092.064-.056.126-.113.194-.169a1.164,1.164,0,0,1,.42-.225,3.119,3.119,0,0,1,.71-.118,3.5,3.5,0,0,1,1.137.095c.395.152.59.332.558.513l.083.221c.117-.391.225-.781.32-1.172-.014-.176.531-.323,1.231-.331.7.021,1.2.176,1.15.352a6.717,6.717,0,0,0,.028.736V88a2.669,2.669,0,0,1,.3-.065,3.838,3.838,0,0,1,.872-.031l.15-.23a.141.141,0,0,1,.041-.072c.015-.037.033-.073.045-.109a.3.3,0,0,1,.093-.172,1.26,1.26,0,0,1,.568-.2,3.964,3.964,0,0,1,.917-.028,2.978,2.978,0,0,1,.358.052c-.015-.082-.031-.164-.048-.247l-.029-.154a1.967,1.967,0,0,1,.074-1.059c.142-.306.292-.612.444-.918.266-.528.536-1.076.747-1.615.113-.246.226-.492.36-.739a4.7,4.7,0,0,0,.262-.6l.055-.143a2.961,2.961,0,0,1,.478-.735,7.235,7.235,0,0,1,.81-.773,6.02,6.02,0,0,1,1.1-.577c.328-.119.621-.215.915-.3a10.237,10.237,0,0,0,.974-.346,3.976,3.976,0,0,0,1.323-.791,2.141,2.141,0,0,0,.206-.269,1.371,1.371,0,0,1,.142-.192c.113-.14.246-.279.381-.417l.049-.048a4.87,4.87,0,0,0,.777-1,4.034,4.034,0,0,0,.5-1.287,3.462,3.462,0,0,0-.11-1.228c-.052-.224-.078-.447-.112-.669-.024-.169-.047-.339-.077-.51-.039-.206-.1-.41-.142-.616l-.085-.337a1.586,1.586,0,0,1,.162-.959,5.459,5.459,0,0,1,1.4-1.527,3.1,3.1,0,0,0,.592-.687,1.961,1.961,0,0,0,.334-.792,1.368,1.368,0,0,0-.081-.7,2.747,2.747,0,0,0-.456-.8,6.389,6.389,0,0,0-.439-.476c-.1-.1-.2-.2-.291-.306a5.384,5.384,0,0,1-.62-.815c-.037-.088-.063-.179-.092-.268s-.056-.179-.1-.269a2.638,2.638,0,0,1-.175-.685,3.407,3.407,0,0,1,.009-.515l.016-.2v-.232a4.059,4.059,0,0,1,.028-.583,6.086,6.086,0,0,0-.06-1.323l-.017-.172a4.673,4.673,0,0,1,.064-1.216l.029-.21c.068-.518.112-1.032.128-1.528,0-.174.028-.349.045-.524l.02-.143a2.26,2.26,0,0,1,.074-.375c.027-.111.055-.222.071-.333a4.859,4.859,0,0,0,.06-.746c-.009-.283-.016-.567,0-.85s.052-.557.089-.834.07-.556.09-.834c.008-.208,0-.414,0-.623v-.077a4.811,4.811,0,0,1,.055-.709c.037-.234.056-.465.074-.7.011-.173.037-.343.064-.511.015-.1.03-.2.044-.307a8.051,8.051,0,0,1,.314-1.31l.04-.131a3.421,3.421,0,0,0,.082-.373c.016-.075.032-.151.052-.226l.068-.264c.035-.132.068-.262.1-.394.037-.166.084-.332.134-.5a5.906,5.906,0,0,0,.189-.807,3.82,3.82,0,0,0-.112-1.445l-.04-.163a4.242,4.242,0,0,1-.1-.495,1.915,1.915,0,0,1,0-.386l.009-.194V43a3.253,3.253,0,0,1,.158-1.22,2.542,2.542,0,0,1,.284-.471l.118-.146a3.625,3.625,0,0,0,.243-.322,3.033,3.033,0,0,0,.4-1.223c.033-.221.086-.441.142-.662.045-.186.09-.372.126-.56a4.834,4.834,0,0,1,.335-1.045,3.58,3.58,0,0,0,.242-.775,1.747,1.747,0,0,0-.162-.923A2.286,2.286,0,0,1,798.882,33.853ZM688.824,188.168a12.1,12.1,0,0,1-3.363.4c-.459,0-.916-.018-1.352-.055-.487-.051-.953-.114-1.392-.188l-.295-.051-.2-.022-.271.064.2-.036-.723.282c-.666.261-1.422.558-2.24.822a32.042,32.042,0,0,1-3.581.935,14.32,14.32,0,0,1-2.663.255,7.378,7.378,0,0,1-2.034-.279c-.483-.147-.767-.329-.81-.52a.088.088,0,0,1,.012-.053c.025-.167.191-.331.485-.48a4.56,4.56,0,0,1,.735-.252q.4-.09.836-.167l.4-.075c.276-.063.586-.139.873-.219.165-.061.324-.119.489-.173a9.232,9.232,0,0,0,1.458-.729,10.341,10.341,0,0,1,1.821-.763c.577-.226,1.266-.446,1.821-.623l.659-.212a3.087,3.087,0,0,0,.323-.176,3.269,3.269,0,0,0,.5-.54,3.393,3.393,0,0,1,.532-.558,5.008,5.008,0,0,1,1.409-.839,5.8,5.8,0,0,1,1.557-.409,7.1,7.1,0,0,1,1.174-.088q.4,0,.788.022a5.558,5.558,0,0,1,1.182.205,2.65,2.65,0,0,1,.623.261l.142.092a1.75,1.75,0,0,1,.34.256,3.232,3.232,0,0,0,.226.255l.059.067a3.162,3.162,0,0,1,.259.318,3.478,3.478,0,0,1,.426.873c.02.1.033.209.049.322l.032.244c.1.1.211.2.358.327l.143.127a.56.56,0,0,1,.257.512C690.026,187.618,689.589,187.92,688.824,188.168Zm35.96-21.685a7.655,7.655,0,0,1-1.3.52c-.974.271-2.038.521-3.179.747-.1.021-.193.04-.324.066l-.97.214-.338.074c-.224.049-.447.1-.594.135l-.206.044q-1.31.293-2.749.545l-.888.251-.883.25c-.31.092-.6.182-.915.284l-.853.325a39.366,39.366,0,0,1-3.805,1.287l-1.474.4c-1.255.335-2.675.715-3.927,1.113-.819.25-1.833.559-2.887.835l-.929.315q-.507.207-1,.411-1.006.444-2.2.858a17.32,17.32,0,0,1-2.519.623,21.233,21.233,0,0,1-2.68.34c-.8.055-1.622.085-2.451.088-.3,0-.609,0-.911-.014-.53-.015-1.042-.031-1.543-.049l-.448-.01c-.551,0-1.1-.026-1.619-.071a16.25,16.25,0,0,1-2.52-.429c-.791-.237-1.271-.53-1.376-.839l-.041-.073a.785.785,0,0,1-.411-.433.672.672,0,0,0-.045-.1.2.2,0,0,1-.013-.107c0-.225.229-.447.671-.643l.419-.163a3.962,3.962,0,0,1,.682-.471,9.417,9.417,0,0,1,1.525-.724,22.217,22.217,0,0,1,2.451-.773c.628-.156,1.293-.3,1.99-.437l.433-.09c.593-.131,1.178-.268,1.873-.433q1.866-.453,3.932-.849c.936-.169,1.889-.334,2.842-.5,1.219-.21,2.438-.419,3.632-.639q1.523-.267,3.174-.483c.871-.121,1.772-.246,2.621-.389l.469-.082.463-.078c.263-.077.517-.157.8-.251.219-.071.461-.138.711-.2.158-.042.31-.084.46-.129l.882-.308.544-.185c.61-.231,1.286-.452,2.021-.659.848-.214,1.756-.413,2.716-.595l.285-.065a21.809,21.809,0,0,1,3.156-.578,13.734,13.734,0,0,1,1.413-.066c.779.005,1.549.044,2.274.115a14.023,14.023,0,0,1,3.055.5c1.3.464,1.493,1.069.5,1.578Z"/>
    </g>
  </g>
</svg>
